<?xml version="1.0" encoding="UTF-8" standalone="no"?>
<!-- Created with Inkscape (http://www.inkscape.org/) -->

<svg
   width="8.2710037mm"
   height="8.2710037mm"
   viewBox="0 0 8.2710037 8.2710037"
   version="1.1"
   id="svg1"
   sodipodi:docname="rutschung.svg"
   inkscape:version="1.4 (1:1.4+202410161351+e7c3feb100)"
   xmlns:inkscape="http://www.inkscape.org/namespaces/inkscape"
   xmlns:sodipodi="http://sodipodi.sourceforge.net/DTD/sodipodi-0.dtd"
   xmlns="http://www.w3.org/2000/svg"
   xmlns:svg="http://www.w3.org/2000/svg">
  <sodipodi:namedview
     id="namedview1"
     pagecolor="#ffffff"
     bordercolor="#000000"
     borderopacity="0.25"
     inkscape:showpageshadow="2"
     inkscape:pageopacity="0.0"
     inkscape:pagecheckerboard="0"
     inkscape:deskcolor="#d1d1d1"
     inkscape:document-units="mm"
     inkscape:zoom="48.303791"
     inkscape:cx="15.640594"
     inkscape:cy="15.630243"
     inkscape:window-width="3840"
     inkscape:window-height="2075"
     inkscape:window-x="0"
     inkscape:window-y="0"
     inkscape:window-maximized="1"
     inkscape:current-layer="svg1" />
  <defs
     id="defs1">
    <clipPath
       id="clip4">
      <path
         d="M 1,13 H 23 V 23 H 1 Z m 0,0"
         id="path7" />
    </clipPath>
    <clipPath
       id="clip5">
      <path
         d="M 22.960938,12 C 22.960938,18.054688 18.054688,22.960938 12,22.960938 5.945312,22.960938 1.039062,18.054688 1.039062,12 1.039062,5.945312 5.945312,1.039062 12,1.039062 c 6.054688,0 10.960938,4.90625 10.960938,10.960938 z m 0,0"
         id="path8" />
    </clipPath>
  </defs>
  <circle
     style="display:inline;fill:#ffffff;stroke-width:0.264583;stroke-linecap:round;stroke-linejoin:round;paint-order:markers fill stroke"
     id="circle3"
     cx="4.1355033"
     cy="4.1354976"
     r="4.1355019" />
  <path
     style="fill:#ccab66;stroke:#000000;stroke-width:0.473147;stroke-linecap:square;stroke-linejoin:miter;stroke-dasharray:none;fill-opacity:1"
     id="path1"
     sodipodi:type="arc"
     sodipodi:cx="4.1355023"
     sodipodi:cy="4.1409783"
     sodipodi:rx="3.9133976"
     sodipodi:ry="3.9133976"
     sodipodi:start="0"
     sodipodi:end="6.240011"
     sodipodi:open="true"
     sodipodi:arc-type="arc"
     d="M 8.0488999,4.1409783 A 3.9133976,3.9133976 0 0 1 4.1777411,8.0541479 3.9133976,3.9133976 0 0 1 0.22301658,4.2254509 3.9133976,3.9133976 0 0 1 4.0088058,0.22963223 3.9133976,3.9133976 0 0 1 8.0452531,3.9720726" />
</svg>
