<?xml version="1.0" encoding="utf-8"?>
<!-- Generator: Adobe Illustrator 15.0.2, SVG Export Plug-In . SVG Version: 6.00 Build 0)  -->
<!DOCTYPE svg PUBLIC "-//W3C//DTD SVG 1.1//EN" "http://www.w3.org/Graphics/SVG/1.1/DTD/svg11.dtd">
<svg version="1.1" id="Ebene_1" xmlns="http://www.w3.org/2000/svg" xmlns:xlink="http://www.w3.org/1999/xlink" x="0px" y="0px"
	 width="48px" height="48px" viewBox="0 0 48 48" enable-background="new 0 0 48 48" xml:space="preserve">
<path fill="#FFFFFF" d="M48,24c0,1.659-1.341,2.999-3,2.999H10.247l12.877,12.872c1.172,1.179,1.172,3.076,0,4.253
	c-1.171,1.172-3.076,1.172-4.247,0L0.879,26.127c-1.171-1.171-1.171-3.069-0.006-4.248c0.006,0,0.006,0,0.006-0.005L18.877,3.875
	c1.171-1.171,3.076-1.171,4.247,0c1.172,1.179,1.172,3.077,0,4.253L10.247,21H45C46.659,21,48,22.343,48,24z"/>
</svg>
