<svg xmlns="http://www.w3.org/2000/svg" width="32" height="32" viewBox="0 0 8.4666664 8.4666667"><g transform="translate(-.227 -25.336) scale(1.76646)"><path d="M4.386 14.892l-1.692 1.471.733 2.054-2.785.21" fill="none" stroke="#999" stroke-width=".191" stroke-linejoin="round"/><path d="M4.89 14.732a.485.484 76.183 0 1-.355.587.485.484 76.183 0 1-.585-.355.485.484 76.183 0 1 .354-.587.485.484 76.183 0 1 .585.355zM1.097 18.526a.485.484 76.183 0 1-.354.587.485.484 76.183 0 1-.586-.356.485.484 76.183 0 1 .354-.586.485.484 76.183 0 1 .586.355z" style="isolation:auto;mix-blend-mode:normal" color="#000" overflow="visible" fill="#b3b3b3"/><path d="M3.252 16.21a.485.484 76.183 0 1-.353.587.485.484 76.183 0 1-.586-.355.485.484 76.183 0 1 .354-.587.485.484 76.183 0 1 .585.356z" style="isolation:auto;mix-blend-mode:normal" color="#000" overflow="visible" fill="#333"/><path d="M3.864 18.253a.485.484 76.183 0 1-.353.587.485.484 76.183 0 1-.586-.356.485.484 76.183 0 1 .354-.586.485.484 76.183 0 1 .585.355z" style="isolation:auto;mix-blend-mode:normal" color="#000" overflow="visible" fill="#b3b3b3"/><circle style="isolation:auto;mix-blend-mode:normal;marker:none" cx="2.301" cy="16.382" r=".975" color="#000" overflow="visible" fill="#b3b3b3" fill-rule="evenodd" paint-order="markers stroke fill"/><path d="M1.671 16.857v-.93h.141v.13q.044-.067.117-.109.072-.042.165-.042.104 0 .17.043.066.043.093.12.11-.163.287-.163.138 0 .213.077.074.077.074.236v.638h-.157v-.586q0-.094-.015-.135-.015-.042-.055-.068-.04-.025-.095-.025-.098 0-.163.066-.065.064-.065.208v.54h-.157v-.604q0-.105-.039-.158-.038-.052-.126-.052-.066 0-.123.035-.056.035-.082.102-.025.068-.025.195v.482z" style="-inkscape-font-specification:Arial" font-family="Arial" font-weight="400" font-size="1.793" letter-spacing="0" word-spacing="0" fill="#fff" stroke-width=".084"/></g></svg>