<?xml version="1.0" encoding="UTF-8"?>
<!-- Created with Inkscape (http://www.inkscape.org/) -->
<svg width="32" height="32" version="1.1" viewBox="0 0 8.4667 8.4667" xmlns="http://www.w3.org/2000/svg" xmlns:cc="http://creativecommons.org/ns#" xmlns:dc="http://purl.org/dc/elements/1.1/" xmlns:osb="http://www.openswatchbook.org/uri/2009/osb" xmlns:rdf="http://www.w3.org/1999/02/22-rdf-syntax-ns#" xmlns:xlink="http://www.w3.org/1999/xlink">
 <defs>
  <linearGradient id="linearGradient882" x1="90.129" x2="90.129" y1="127.6" y2="132.11" gradientUnits="userSpaceOnUse">
   <stop stop-color="#abddff" offset="0"/>
   <stop stop-color="#abddff" stop-opacity="0" offset="1"/>
  </linearGradient>
 </defs>
 <metadata>
  <rdf:RDF>
   <cc:Work rdf:about="">
    <dc:format>image/svg+xml</dc:format>
    <dc:type rdf:resource="http://purl.org/dc/dcmitype/StillImage"/>
    <dc:title/>
   </cc:Work>
  </rdf:RDF>
 </metadata>
 <g transform="translate(-85.99 -126.19)">
  <rect x="85.99" y="126.19" width="8.4667" height="8.4667" color="#000000" color-rendering="auto" fill="#fff" fill-rule="evenodd" image-rendering="auto" shape-rendering="auto" solid-color="#000000" style="isolation:auto;mix-blend-mode:normal;paint-order:markers stroke fill"/>
  <rect x="87.131" y="126.97" width="4.0628" height="5.4865" fill="url(#linearGradient882)" style="paint-order:fill markers stroke"/>
  <path d="m88.818 134.34c-0.02147-9e-3 -0.54914-0.30486-1.1726-0.65826-0.62346-0.3534-1.1769-0.66583-1.2298-0.69428-0.07144-0.0384-0.10671-0.0714-0.13666-0.12807l-0.04036-0.0763v-6.0528l0.03967-0.0787c0.02905-0.0576 0.06086-0.0894 0.11882-0.11859l0.07915-0.0399 5.085 0.01 0.04978 0.0369c0.02738 0.0203 0.06763 0.0631 0.08946 0.0952l0.03967 0.0583v2.3576h-0.54662v-1.9925l-1.7942 4.7e-4c-1.6218 4.3e-4 -1.7899 3e-3 -1.7501 0.0276 0.02425 0.0149 0.36124 0.20712 0.74887 0.42713 0.64134 0.36401 0.70838 0.40637 0.74471 0.47055l0.03991 0.0705 2.94e-4 2.1997 2.86e-4 2.1997h2.0102v-1.5517h0.54662v1.9168l-0.03973 0.059c-0.02185 0.0324-0.06748 0.0753-0.10139 0.0952-0.06029 0.0354-0.08765 0.0363-1.238 0.0411l-1.1763 5e-3 -0.0102 1.154-0.04233 0.0594c-0.06963 0.0976-0.21525 0.14762-0.3141 0.10784zm3.6185-3.0838c-0.0194-8e-3 -0.05114-0.0327-0.07053-0.0543-0.03267-0.0363-0.03566-0.0682-0.04061-0.43341l-0.0053-0.39426-0.79696-5e-3c-0.77725-5e-3 -0.79871-6e-3 -0.86749-0.0431-0.14114-0.076-0.21052-0.19238-0.20967-0.35185 1e-3 -0.18775 0.1198-0.33338 0.30665-0.37593 0.04724-0.0108 0.38078-0.0182 0.82434-0.0185l0.745-4.3e-4v-0.36205c0-0.38483 0.01316-0.46182 0.08551-0.50055 0.10273-0.055 0.11207-0.0495 0.9545 0.56201 0.44028 0.31959 0.81063 0.59929 0.82299 0.62157 0.02747 0.0495 0.02975 0.11091 0.0058 0.15571-0.0274 0.0512-1.614 1.198-1.6701 1.2072-0.02684 5e-3 -0.06467 1e-3 -0.08407-7e-3z" fill="#666" stroke-width=".017633"/>
  <path d="m92.437 131.26c-0.0194-8e-3 -0.05114-0.0327-0.07053-0.0543-0.03267-0.0363-0.03566-0.0682-0.04061-0.43341l-0.0053-0.39426-0.79696-5e-3c-0.77725-5e-3 -0.79871-6e-3 -0.86749-0.0431-0.14114-0.076-0.21052-0.19238-0.20967-0.35185 1e-3 -0.18775 0.1198-0.33338 0.30665-0.37593 0.04724-0.0108 0.38078-0.0182 0.82434-0.0185l0.745-4.2e-4v-0.36205c0-0.38483 0.01316-0.46182 0.08551-0.50055 0.10273-0.055 0.11207-0.0495 0.9545 0.56201 0.44028 0.31959 0.81063 0.59929 0.82299 0.62157 0.02747 0.0495 0.02975 0.11091 0.0058 0.15571-0.0274 0.0512-1.614 1.198-1.6701 1.2072-0.02684 5e-3 -0.06467 1e-3 -0.08407-7e-3z" fill="#c83737" stroke-width=".017633"/>
  <path d="m89.053 128.16-2.4841-1.4571-0.13524 0.0526-0.06762 0.1127v5.7615l0.12022 0.11646 2.3842 1.3853 0.18258-8e-3z" fill="#f2f2f2"/>
 </g>
</svg>
