<?xml version="1.0" encoding="UTF-8" standalone="no"?>
<svg
   id="svg4460"
   height="100"
   width="100"
   version="1.1"
   sodipodi:docname="btn_measure_ortho.svg"
   inkscape:version="1.3.1 (9b9bdc1480, 2023-11-25, custom)"
   xmlns:inkscape="http://www.inkscape.org/namespaces/inkscape"
   xmlns:sodipodi="http://sodipodi.sourceforge.net/DTD/sodipodi-0.dtd"
   xmlns="http://www.w3.org/2000/svg"
   xmlns:svg="http://www.w3.org/2000/svg"
   xmlns:rdf="http://www.w3.org/1999/02/22-rdf-syntax-ns#"
   xmlns:cc="http://creativecommons.org/ns#"
   xmlns:dc="http://purl.org/dc/elements/1.1/">
  <sodipodi:namedview
     id="namedview1"
     pagecolor="#ffffff"
     bordercolor="#000000"
     borderopacity="0.25"
     inkscape:showpageshadow="2"
     inkscape:pageopacity="0.0"
     inkscape:pagecheckerboard="0"
     inkscape:deskcolor="#d1d1d1"
     showgrid="true"
     inkscape:zoom="18.75"
     inkscape:cx="49.973333"
     inkscape:cy="45.84"
     inkscape:window-width="3840"
     inkscape:window-height="2075"
     inkscape:window-x="0"
     inkscape:window-y="0"
     inkscape:window-maximized="1"
     inkscape:current-layer="svg4460">
    <inkscape:grid
       id="grid1"
       units="px"
       originx="0"
       originy="0"
       spacingx="1"
       spacingy="1"
       empcolor="#0099e5"
       empopacity="0.30196078"
       color="#0099e5"
       opacity="0.14901961"
       empspacing="5"
       dotted="false"
       gridanglex="30"
       gridanglez="30"
       visible="true" />
  </sodipodi:namedview>
  <defs
     id="defs4462" />
  <metadata
     id="metadata4465">
    <rdf:RDF>
      <cc:Work
         rdf:about="">
        <dc:format>image/svg+xml</dc:format>
        <dc:type
           rdf:resource="http://purl.org/dc/dcmitype/StillImage" />
        <dc:title />
      </cc:Work>
    </rdf:RDF>
  </metadata>
  <path
     d="m 5,76 v 24 H 11.269531 88.730469 93.5625 95 V 76 h -6.269531 v 17.896484 h -7.6875 V 81.173828 H 74.773438 V 93.896484 H 67.091797 V 81.173828 H 60.824219 V 93.896484 H 53.134766 V 76 H 46.865234 V 93.896484 H 39.175781 V 81.173828 H 32.908203 V 93.896484 H 25.226562 V 81.173828 h -6.269531 v 12.722656 h -7.6875 V 76 Z"
     style="color:#000000;font-style:normal;font-variant:normal;font-weight:normal;font-stretch:normal;font-size:medium;line-height:normal;font-family:sans-serif;text-indent:0;text-align:start;text-decoration:none;text-decoration-line:none;text-decoration-style:solid;text-decoration-color:#000000;letter-spacing:normal;word-spacing:normal;text-transform:none;writing-mode:lr-tb;direction:ltr;baseline-shift:baseline;text-anchor:start;white-space:normal;clip-rule:nonzero;display:inline;overflow:visible;visibility:visible;opacity:1;isolation:auto;mix-blend-mode:normal;color-interpolation:sRGB;color-interpolation-filters:linearRGB;solid-color:#000000;solid-opacity:1;fill:#000080;fill-opacity:1;fill-rule:evenodd;stroke:none;stroke-width:8.24735;stroke-linecap:butt;stroke-linejoin:miter;stroke-miterlimit:4;stroke-dasharray:none;stroke-dashoffset:0;stroke-opacity:1;color-rendering:auto;image-rendering:auto;shape-rendering:auto;text-rendering:auto;enable-background:accumulate"
     id="path846"
     sodipodi:nodetypes="cccccccccccccccccccccccccccccccc" />
  <path
     id="path944"
     d="m 17.556197,46.758959 c -6.889711,0 -12.5507807,5.659117 -12.5507807,12.548828 0,6.889712 5.6610697,12.550782 12.5507807,12.550782 6.654534,-10e-7 12.112224,-5.294802 12.480469,-11.863282 a 3.5,3.5 0 0 0 0.07031,-0.6875 3.5,3.5 0 0 0 -0.07031,-0.691406 C 29.666182,52.049968 24.209227,46.75896 17.556197,46.758959 Z m 0,7 c 3.10663,0 5.550781,2.442198 5.550781,5.548828 0,3.10663 -2.444151,5.550781 -5.550781,5.550782 -3.10663,0 -5.550781,-2.444151 -5.550781,-5.550782 0,-3.10663 2.444151,-5.548828 5.550781,-5.548828 z"
     style="color:#000000;font-style:normal;font-variant:normal;font-weight:normal;font-stretch:normal;font-size:medium;line-height:normal;font-family:sans-serif;font-variant-ligatures:normal;font-variant-position:normal;font-variant-caps:normal;font-variant-numeric:normal;font-variant-alternates:normal;font-variant-east-asian:normal;font-feature-settings:normal;font-variation-settings:normal;text-indent:0;text-align:start;text-decoration:none;text-decoration-line:none;text-decoration-style:solid;text-decoration-color:#000000;letter-spacing:normal;word-spacing:normal;text-transform:none;writing-mode:lr-tb;direction:ltr;text-orientation:mixed;dominant-baseline:auto;baseline-shift:baseline;text-anchor:start;white-space:normal;shape-padding:0;shape-margin:0;inline-size:0;clip-rule:nonzero;display:inline;overflow:visible;visibility:visible;isolation:auto;mix-blend-mode:normal;color-interpolation:sRGB;color-interpolation-filters:linearRGB;solid-color:#000000;solid-opacity:1;vector-effect:none;fill:#000080;fill-opacity:1;fill-rule:nonzero;stroke:none;stroke-width:7;stroke-linecap:round;stroke-linejoin:round;stroke-miterlimit:4;stroke-dasharray:none;stroke-dashoffset:0;stroke-opacity:1;paint-order:normal;color-rendering:auto;image-rendering:auto;shape-rendering:auto;text-rendering:auto;enable-background:accumulate;stop-color:#000000" />
  <path
     id="path944-1"
     d="m 50.119531,-0.06708333 c -6.889711,0 -12.550781,5.65911703 -12.550781,12.54882833 0,6.889712 5.66107,12.550782 12.550781,12.550782 6.654534,-1e-6 12.112224,-5.294802 12.480469,-11.863282 a 3.5,3.5 0 0 0 0.07031,-0.6875 A 3.5,3.5 0 0 0 62.6,11.790339 C 62.229516,5.2239257 56.772561,-0.06708233 50.119531,-0.06708333 Z m 0,7.00000003 c 3.10663,0 5.550781,2.442198 5.550781,5.5488283 0,3.10663 -2.444151,5.550781 -5.550781,5.550782 -3.10663,0 -5.550781,-2.444151 -5.550781,-5.550782 0,-3.1066303 2.444151,-5.5488283 5.550781,-5.5488283 z"
     style="color:#000000;font-style:normal;font-variant:normal;font-weight:normal;font-stretch:normal;font-size:medium;line-height:normal;font-family:sans-serif;font-variant-ligatures:normal;font-variant-position:normal;font-variant-caps:normal;font-variant-numeric:normal;font-variant-alternates:normal;font-variant-east-asian:normal;font-feature-settings:normal;font-variation-settings:normal;text-indent:0;text-align:start;text-decoration:none;text-decoration-line:none;text-decoration-style:solid;text-decoration-color:#000000;letter-spacing:normal;word-spacing:normal;text-transform:none;writing-mode:lr-tb;direction:ltr;text-orientation:mixed;dominant-baseline:auto;baseline-shift:baseline;text-anchor:start;white-space:normal;shape-padding:0;shape-margin:0;inline-size:0;clip-rule:nonzero;display:inline;overflow:visible;visibility:visible;isolation:auto;mix-blend-mode:normal;color-interpolation:sRGB;color-interpolation-filters:linearRGB;solid-color:#000000;solid-opacity:1;vector-effect:none;fill:#000080;fill-opacity:1;fill-rule:nonzero;stroke:none;stroke-width:7;stroke-linecap:round;stroke-linejoin:round;stroke-miterlimit:4;stroke-dasharray:none;stroke-dashoffset:0;stroke-opacity:1;paint-order:normal;color-rendering:auto;image-rendering:auto;shape-rendering:auto;text-rendering:auto;enable-background:accumulate;stop-color:#000000" />
  <path
     id="path944-7"
     d="m 82.362864,46.665417 c -6.889711,0 -12.550781,5.659117 -12.550781,12.548828 0,6.889712 5.66107,12.550782 12.550781,12.550782 6.654534,-10e-7 12.112224,-5.294802 12.480469,-11.863282 a 3.5,3.5 0 0 0 0.07031,-0.6875 3.5,3.5 0 0 0 -0.07031,-0.691406 C 94.472849,51.956426 89.015894,46.665418 82.362864,46.665417 Z m 0,7 c 3.10663,0 5.550781,2.442198 5.550781,5.548828 0,3.10663 -2.444151,5.550781 -5.550781,5.550782 -3.10663,0 -5.550781,-2.444151 -5.550781,-5.550782 0,-3.10663 2.444151,-5.548828 5.550781,-5.548828 z"
     style="color:#000000;font-style:normal;font-variant:normal;font-weight:normal;font-stretch:normal;font-size:medium;line-height:normal;font-family:sans-serif;font-variant-ligatures:normal;font-variant-position:normal;font-variant-caps:normal;font-variant-numeric:normal;font-variant-alternates:normal;font-variant-east-asian:normal;font-feature-settings:normal;font-variation-settings:normal;text-indent:0;text-align:start;text-decoration:none;text-decoration-line:none;text-decoration-style:solid;text-decoration-color:#000000;letter-spacing:normal;word-spacing:normal;text-transform:none;writing-mode:lr-tb;direction:ltr;text-orientation:mixed;dominant-baseline:auto;baseline-shift:baseline;text-anchor:start;white-space:normal;shape-padding:0;shape-margin:0;inline-size:0;clip-rule:nonzero;display:inline;overflow:visible;visibility:visible;isolation:auto;mix-blend-mode:normal;color-interpolation:sRGB;color-interpolation-filters:linearRGB;solid-color:#000000;solid-opacity:1;vector-effect:none;fill:#000080;fill-opacity:1;fill-rule:nonzero;stroke:none;stroke-width:7;stroke-linecap:round;stroke-linejoin:round;stroke-miterlimit:4;stroke-dasharray:none;stroke-dashoffset:0;stroke-opacity:1;paint-order:normal;color-rendering:auto;image-rendering:auto;shape-rendering:auto;text-rendering:auto;enable-background:accumulate;stop-color:#000000" />
  <rect
     style="fill:#000080"
     id="rect1"
     width="36.705418"
     height="7.0470834"
     x="32.073124"
     y="54.731667" />
  <rect
     style="fill:#000080"
     id="rect2"
     width="9.1714582"
     height="25.536875"
     x="45.176247"
     y="27.125208" />
</svg>
