<svg xmlns="http://www.w3.org/2000/svg" width="32" height="32" viewBox="0 0 8.4666664 8.4666667"><g transform="translate(-30.583 -63.723) scale(.2341)" fill="#fff"><path d="M134.48 302.431l29.053.283" fill="none" stroke="#999" stroke-width="1.443" stroke-linejoin="round"/><path d="M166.48 301.7a3.66 3.65 76.183 0 1-2.67 4.427 3.66 3.65 76.183 0 1-4.42-2.683 3.66 3.65 76.183 0 1 2.671-4.426 3.66 3.65 76.183 0 1 4.42 2.683z" style="isolation:auto;mix-blend-mode:normal" color="#000" overflow="visible" fill="#b3b3b3"/><path d="M148.866 276.26l-.283 26.256" fill="none" stroke="#999" stroke-width="1.443" stroke-linejoin="round"/><path d="M152.27 275.538a3.66 3.65 76.183 0 1-2.671 4.426 3.66 3.65 76.183 0 1-4.42-2.683 3.66 3.65 76.183 0 1 2.671-4.426 3.66 3.65 76.183 0 1 4.42 2.683z" style="isolation:auto;mix-blend-mode:normal" color="#000" overflow="visible" fill="#b3b3b3"/><circle style="isolation:auto;mix-blend-mode:normal;marker:none" cx="136.118" cy="302.67" r="5.413" color="#000" overflow="visible" fill="#b3b3b3" fill-rule="evenodd" paint-order="markers stroke fill"/><path d="M138.971 305.873l-2.24-3.107 2.45-3.21-1.224-.017-1.875 2.455-1.803-2.508-1.224-.018 2.406 3.341-2.29 2.98 1.225.018 1.708-2.227 1.643 2.275z" style="line-height:30.78354645px" font-weight="400" font-size="26.269" font-family="sans-serif" letter-spacing="0" word-spacing="0" stroke-width="1.231"/><circle style="isolation:auto;mix-blend-mode:normal;marker:none" cx="148.922" cy="290.487" r="5.413" color="#000" overflow="visible" fill="#b3b3b3" fill-rule="evenodd" paint-order="markers stroke fill"/><path d="M145.853 287.646h1.013l1.931 2.657 1.918-2.657h1.012l-2.463 3.384v3.077h-.947v-3.077z" style="line-height:10.7843647px" font-weight="400" font-size="9.203" font-family="sans-serif" letter-spacing="0" word-spacing="0" stroke-width=".431"/></g></svg>