<?xml version="1.0" encoding="UTF-8" standalone="no"?>
<svg
   sodipodi:docname="btn_rl_area.svg"
   inkscape:version="1.3.1 (9b9bdc1480, 2023-11-25, custom)"
   id="svg4460"
   height="100"
   width="100"
   version="1.1"
   xmlns:inkscape="http://www.inkscape.org/namespaces/inkscape"
   xmlns:sodipodi="http://sodipodi.sourceforge.net/DTD/sodipodi-0.dtd"
   xmlns="http://www.w3.org/2000/svg"
   xmlns:svg="http://www.w3.org/2000/svg"
   xmlns:rdf="http://www.w3.org/1999/02/22-rdf-syntax-ns#"
   xmlns:cc="http://creativecommons.org/ns#"
   xmlns:dc="http://purl.org/dc/elements/1.1/">
  <sodipodi:namedview
     inkscape:document-rotation="0"
     inkscape:current-layer="svg4460"
     inkscape:window-maximized="1"
     inkscape:window-y="0"
     inkscape:window-x="0"
     inkscape:cy="19.199747"
     inkscape:cx="36.673674"
     inkscape:zoom="6.9532167"
     showgrid="false"
     id="namedview11"
     inkscape:window-height="2075"
     inkscape:window-width="3840"
     inkscape:pageshadow="2"
     inkscape:pageopacity="0"
     guidetolerance="10"
     gridtolerance="10"
     objecttolerance="10"
     borderopacity="1"
     bordercolor="#666666"
     pagecolor="#ffffff"
     inkscape:showpageshadow="2"
     inkscape:pagecheckerboard="0"
     inkscape:deskcolor="#d1d1d1" />
  <defs
     id="defs4462" />
  <metadata
     id="metadata4465">
    <rdf:RDF>
      <cc:Work
         rdf:about="">
        <dc:format>image/svg+xml</dc:format>
        <dc:type
           rdf:resource="http://purl.org/dc/dcmitype/StillImage" />
      </cc:Work>
    </rdf:RDF>
  </metadata>
  <path
     style="color:#000000;font-style:normal;font-variant:normal;font-weight:normal;font-stretch:normal;font-size:medium;line-height:normal;font-family:sans-serif;font-variant-ligatures:normal;font-variant-position:normal;font-variant-caps:normal;font-variant-numeric:normal;font-variant-alternates:normal;font-feature-settings:normal;text-indent:0;text-align:start;text-decoration:none;text-decoration-line:none;text-decoration-style:solid;text-decoration-color:#000000;letter-spacing:normal;word-spacing:normal;text-transform:none;writing-mode:lr-tb;direction:ltr;text-orientation:mixed;dominant-baseline:auto;baseline-shift:baseline;text-anchor:start;white-space:normal;shape-padding:0;clip-rule:nonzero;display:inline;overflow:visible;visibility:visible;opacity:1;isolation:auto;mix-blend-mode:normal;color-interpolation:sRGB;color-interpolation-filters:linearRGB;solid-color:#000000;solid-opacity:1;vector-effect:none;fill:#000080;fill-opacity:1;fill-rule:nonzero;stroke:none;stroke-width:7.0057;stroke-linecap:round;stroke-linejoin:round;stroke-miterlimit:4;stroke-dasharray:none;stroke-dashoffset:4;stroke-opacity:1;paint-order:normal;color-rendering:auto;image-rendering:auto;shape-rendering:auto;text-rendering:auto;enable-background:accumulate"
     d="m 88.332524,0.97673282 c -1.387303,-1.3487517 -3.636271,-1.3487517 -5.023575,0 L 41.764375,41.374886 c -0.346758,0.337256 -0.605671,0.727194 -0.779046,1.143003 l -5.675072,19.291736 c -0.259978,0.79717 0.139346,1.137639 1.024339,0.873947 l 19.741081,-5.491753 c 0.427608,-0.168593 0.828613,-0.42036 1.175437,-0.757549 L 98.79569,16.036116 c 1.38703,-1.349019 1.38703,-3.535928 0,-4.884949 z m -9.042435,13.67785818 5.43959,5.289485 -29.990354,29.16277 -5.439588,-5.289485 z"
     id="rect812"
     inkscape:connector-curvature="0" />
  <path
     id="path876"
     style="color:#000000;font-style:normal;font-variant:normal;font-weight:normal;font-stretch:normal;font-size:medium;line-height:normal;font-family:sans-serif;font-variant-ligatures:normal;font-variant-position:normal;font-variant-caps:normal;font-variant-numeric:normal;font-variant-alternates:normal;font-variant-east-asian:normal;font-feature-settings:normal;font-variation-settings:normal;text-indent:0;text-align:start;text-decoration:none;text-decoration-line:none;text-decoration-style:solid;text-decoration-color:#000000;letter-spacing:normal;word-spacing:normal;text-transform:none;writing-mode:lr-tb;direction:ltr;text-orientation:mixed;dominant-baseline:auto;baseline-shift:baseline;text-anchor:start;white-space:normal;shape-padding:0;shape-margin:0;inline-size:0;clip-rule:nonzero;display:inline;overflow:visible;visibility:visible;isolation:auto;mix-blend-mode:normal;color-interpolation:sRGB;color-interpolation-filters:linearRGB;solid-color:#000000;solid-opacity:1;vector-effect:none;fill:#000080;fill-opacity:1;fill-rule:nonzero;stroke:none;stroke-width:6.06783;stroke-linecap:round;stroke-linejoin:round;stroke-miterlimit:4;stroke-dasharray:none;stroke-dashoffset:0;stroke-opacity:1;color-rendering:auto;image-rendering:auto;shape-rendering:auto;text-rendering:auto;enable-background:accumulate;stop-color:#000000"
     d="m 38.293145,99.777803 c 5.594744,2.043207 11.858048,-0.909672 13.885954,-6.546621 1.183381,-3.289435 0.669175,-6.802777 -1.068595,-9.569135 l 14.26457,-14.003481 c 0.568064,0.340024 1.172384,0.63426 1.815486,0.869122 5.594743,2.043205 11.858047,-0.90967 13.885951,-6.546622 2.02791,-5.636953 -0.902851,-11.947509 -6.497598,-13.990715 -4.166062,-1.52145 -8.673883,-0.250046 -11.54637,2.821542 L 23.662173,31.297879 C 24.318913,26.326596 21.474089,21.339794 16.619053,19.56673 11.214209,17.592876 5.2227266,20.307911 2.9914043,25.574908 a 3.0230951,3.0459027 0 0 0 -0.2583028,0.538445 3.0230951,3.0459027 0 0 0 -0.1471288,0.593509 c -1.62781462,5.480582 1.2442342,11.42494 6.6447273,13.397205 0.1086967,0.03969 0.2185465,0.06566 0.3277104,0.101602 L 8.9731452,59.354905 c -3.2853699,0.768429 -6.164532,3.067818 -7.5640235,6.371294 a 3.0230951,3.0459027 0 0 0 -0.2583026,0.538445 3.0230951,3.0459027 0 0 0 -0.1471207,0.593512 c -1.62782284,5.480579 1.2442257,11.424937 6.6447199,13.397202 4.1108907,1.501302 8.5768407,0.298282 11.4642177,-2.677982 l 12.541652,8.761976 a 3.0230951,3.0459027 0 0 0 -0.0059,0.04125 c -1.627848,5.480575 1.244202,11.424932 6.644695,13.397201 z m 2.060369,-5.727187 c -2.522717,-0.921299 -3.788067,-3.645864 -2.873666,-6.187614 0.9144,-2.541751 3.618564,-3.816646 6.141281,-2.895347 2.522719,0.921299 3.788067,3.645864 2.873667,6.187614 -0.914401,2.541751 -3.618564,3.816646 -6.141282,2.895347 z M 9.7087861,74.52817 C 7.1860688,73.606872 5.9207195,70.882306 6.8351202,68.340556 c 0.9143999,-2.541751 3.6185638,-3.816645 6.1412818,-2.895347 2.522718,0.9213 3.788067,3.645865 2.873666,6.187615 -0.9144,2.54175 -3.618563,3.816646 -6.1412819,2.895346 z M 34.978463,81.249077 21.954498,72.151862 c 1.037442,-5.196691 -1.833735,-10.577161 -6.917728,-12.43384 -0.0091,-0.0033 -0.01842,-0.005 -0.02754,-0.0082 l 0.588849,-19.308833 c 2.161137,-0.56234 4.124766,-1.791606 5.591356,-3.526469 L 60.2825,58.236597 c -0.451392,2.4109 -0.07291,4.851911 0.976411,6.957353 L 46.568859,79.616962 C 46.279858,79.48089 45.98673,79.351938 45.681498,79.240467 41.904047,77.860939 37.845075,78.777431 34.978463,81.249077 Z M 69.250929,64.8005 c -2.522718,-0.921299 -3.788067,-3.645864 -2.873667,-6.187614 0.9144,-2.541751 3.618564,-3.816646 6.141282,-2.895348 2.522718,0.9213 3.788067,3.645865 2.873667,6.187615 -0.914401,2.541751 -3.618565,3.816646 -6.141282,2.895347 z M 11.291069,34.37688 c -2.5227177,-0.9213 -3.7880667,-3.645865 -2.873666,-6.187615 0.9143997,-2.541751 3.618563,-3.816646 6.141281,-2.895347 2.522718,0.921299 3.788067,3.645864 2.873667,6.187615 -0.914401,2.541751 -3.618565,3.816645 -6.141282,2.895347 z" />
</svg>
