<?xml version="1.0" encoding="UTF-8" standalone="no"?>
<!-- Created with Inkscape (http://www.inkscape.org/) -->

<svg
   xmlns:dc="http://purl.org/dc/elements/1.1/"
   xmlns:cc="http://creativecommons.org/ns#"
   xmlns:rdf="http://www.w3.org/1999/02/22-rdf-syntax-ns#"
   xmlns:svg="http://www.w3.org/2000/svg"
   xmlns="http://www.w3.org/2000/svg"
   xmlns:sodipodi="http://sodipodi.sourceforge.net/DTD/sodipodi-0.dtd"
   xmlns:inkscape="http://www.inkscape.org/namespaces/inkscape"
   width="32"
   height="32"
   viewBox="0 0 8.4666665 8.4666669"
   version="1.1"
   id="svg8"
   inkscape:version="0.92.4 (5da689c313, 2019-01-14)"
   sodipodi:docname="btn_panoramax.svg">
  <defs
     id="defs2" />
  <sodipodi:namedview
     id="base"
     pagecolor="#ffffff"
     bordercolor="#666666"
     borderopacity="1.0"
     inkscape:pageopacity="0.0"
     inkscape:pageshadow="2"
     inkscape:zoom="31.678384"
     inkscape:cx="11.954375"
     inkscape:cy="22.61662"
     inkscape:document-units="mm"
     inkscape:current-layer="layer1"
     showgrid="false"
     inkscape:window-width="2560"
     inkscape:window-height="1361"
     inkscape:window-x="-9"
     inkscape:window-y="-9"
     inkscape:window-maximized="1"
     units="px" />
  <metadata
     id="metadata5">
    <rdf:RDF>
      <cc:Work
         rdf:about="">
        <dc:format>image/svg+xml</dc:format>
        <dc:type
           rdf:resource="http://purl.org/dc/dcmitype/StillImage" />
        <dc:title></dc:title>
      </cc:Work>
    </rdf:RDF>
  </metadata>
  <g
     inkscape:label="Calque 1"
     inkscape:groupmode="layer"
     id="layer1"
     transform="translate(0,-288.53332)">
    <g
       id="g1610"
       transform="matrix(0.08010825,0,0,0.08010825,-2.7325631,285.38573)">
      <g
         style="fill:#c8c8c8;fill-opacity:1;stroke:none"
         transform="matrix(0.03527778,0,0,-0.03527778,34.019439,145.05908)"
         id="g873">
        <path
           style="fill:#c8c8c8;fill-opacity:1"
           inkscape:connector-curvature="0"
           d="M 1356,2989 C 838,2934 391,2626 161,2163 75,1990 31,1834 9,1618 -17,1375 37,1089 155,846 285,575 511,336 774,191 1032,49 1347,-19 1623,8 c 432,43 800,243 1057,573 175,226 270,462 307,763 54,438 -106,885 -432,1211 -254,255 -557,397 -925,435 -108,11 -162,11 -274,-1 z m -312,-619 c 38,-39 38,-89 1,-125 -24,-25 -25,-25 -225,-25 H 620 v -170 c 0,-168 0,-171 -25,-195 -16,-17 -35,-25 -60,-25 -25,0 -44,8 -60,25 l -25,24 v 234 c 0,229 0,234 23,254 12,11 29,23 37,26 8,3 126,5 262,4 l 248,-2 z m 1480,1 26,-24 v -234 -234 l -25,-24 c -30,-31 -83,-33 -116,-6 -23,19 -24,25 -29,193 l -5,173 -200,5 c -110,3 -206,9 -214,14 -23,15 -42,73 -32,98 9,25 36,52 61,61 8,3 126,5 262,4 246,-2 246,-2 272,-26 z m 186,-872 V 850 h -55 c -41,0 -55,4 -55,14 0,10 13,16 38,18 l 37,3 3,608 c 1,334 -1,607 -5,607 -5,-1 -19,-7 -33,-15 -36,-20 -42,-18 -38,11 2,21 13,30 48,44 25,10 48,16 53,13 4,-2 7,-296 7,-654 z M 363,2129 c 29,-9 37,-17 37,-36 0,-27 -2,-28 -40,-8 l -30,16 V 1490 880 h 36 c 28,0 35,-3 32,-17 -3,-14 -14,-18 -53,-18 h -50 l -3,640 c -1,352 0,646 3,653 3,8 11,11 18,8 6,-2 29,-10 50,-17 z m 504,-211 172,-103 1,-50 1,-50 127,-75 127,-76 3,-41 c 3,-40 6,-43 73,-83 l 69,-41 v -91 c 0,-89 0,-90 23,-83 29,9 37,9 70,0 l 27,-7 v 90 91 l 69,41 c 67,40 70,43 73,83 l 3,41 127,76 127,75 3,50 3,50 125,77 c 132,82 200,118 225,118 12,0 14,-75 15,-579 0,-328 -4,-582 -9,-585 -4,-3 -189,73 -409,169 -220,96 -406,175 -413,175 -6,0 -186,-76 -399,-170 C 887,927 706,848 696,844 c -15,-6 -16,38 -16,560 0,446 3,566 13,567 10,0 10,2 0,6 -14,5 -18,43 -6,43 4,0 85,-46 180,-102 z M 591,1151 c 23,-19 24,-25 29,-193 l 5,-173 200,-5 c 110,-3 206,-9 213,-14 20,-13 40,-64 34,-91 -2,-13 -15,-34 -29,-47 -24,-23 -26,-23 -283,-23 H 502 l -26,24 -26,24 v 234 234 l 25,24 c 30,31 83,33 116,6 z m 1934,-6 25,-24 V 891 c 0,-229 0,-230 -24,-258 l -24,-28 h -260 c -259,0 -261,0 -285,23 -14,13 -27,34 -29,47 -6,27 14,78 34,91 7,5 103,11 213,14 l 200,5 5,173 c 5,168 6,174 29,193 33,27 86,25 116,-6 z"
           id="path815" />
        <path
           style="fill:#c8c8c8;fill-opacity:1"
           inkscape:connector-curvature="0"
           d="m 2255,1950 c -3,-6 1,-7 9,-4 18,7 21,14 7,14 -6,0 -13,-4 -16,-10 z"
           id="path817" />
        <path
           style="fill:#c8c8c8;fill-opacity:1"
           inkscape:connector-curvature="0"
           d="m 710,1411 c 0,-355 3,-511 11,-511 6,0 19,5 30,10 18,10 19,23 19,220 v 210 h 28 c 48,0 147,-21 154,-33 4,-7 8,-76 8,-155 0,-131 1,-143 18,-140 15,3 17,22 20,202 2,163 0,197 -11,188 -9,-8 -26,-8 -62,2 l -50,12 -3,67 c -2,51 0,69 11,73 19,7 100,-15 109,-30 4,-6 8,52 8,129 v 140 l -136,60 c -75,33 -140,62 -145,63 -5,2 -9,-212 -9,-507 z m 97,383 43,-17 v -68 c 0,-77 0,-76 -70,-55 l -45,13 -3,58 c -5,92 1,97 75,69 z m 151,-50 c 32,-13 32,-14 32,-80 v -67 l -41,7 c -73,12 -79,19 -79,90 0,34 3,66 7,69 7,8 28,3 81,-19 z M 841,1569 c 15,-8 19,-21 19,-68 0,-73 -9,-81 -75,-67 l -50,11 -3,59 c -4,83 0,90 49,82 23,-4 50,-11 60,-17 z"
           id="path819" />
        <path
           style="fill:#c8c8c8;fill-opacity:1"
           inkscape:connector-curvature="0"
           d="m 772,1733 c 2,-31 7,-39 26,-41 19,-3 22,1 22,27 0,20 -7,34 -19,41 -30,15 -32,13 -29,-27 z"
           id="path821" />
        <path
           style="fill:#c8c8c8;fill-opacity:1"
           inkscape:connector-curvature="0"
           d="m 910,1686 c 0,-32 13,-46 41,-46 16,0 10,67 -7,74 -28,11 -34,6 -34,-28 z"
           id="path823" />
        <path
           style="fill:#c8c8c8;fill-opacity:1"
           inkscape:connector-curvature="0"
           d="m 772,1514 c 2,-32 7,-40 26,-42 19,-3 22,1 22,32 0,20 -4,36 -9,36 -5,0 -17,3 -26,6 -14,6 -16,0 -13,-32 z"
           id="path825" />
        <path
           style="fill:#c8c8c8;fill-opacity:1"
           inkscape:connector-curvature="0"
           d="m 2145,1856 -140,-64 -3,-385 c -2,-378 -2,-386 18,-397 20,-11 20,-8 20,145 0,152 1,156 23,165 31,13 148,31 158,24 5,-3 9,-99 9,-214 V 921 l 30,-16 30,-16 v 516 c 0,283 -1,515 -2,515 -2,-1 -66,-29 -143,-64 z m 123,-118 -3,-72 -45,-13 c -64,-19 -70,-14 -70,61 v 64 l 43,15 c 77,28 78,27 75,-55 z m -138,-43 v -74 l -41,-11 c -68,-19 -74,-14 -74,59 v 63 l 45,19 c 70,28 70,28 70,-56 z m 138,-177 -3,-72 -49,-12 c -28,-7 -53,-11 -58,-8 -4,3 -8,36 -8,74 v 68 l 38,10 c 82,22 83,21 80,-60 z m -134,26 c 7,-20 8,-82 0,-110 -4,-15 -19,-24 -57,-33 -29,-6 -54,-8 -59,-3 -5,5 -8,38 -6,73 l 3,63 40,12 c 55,17 72,17 79,-2 z"
           id="path827" />
        <path
           style="fill:#c8c8c8;fill-opacity:1"
           inkscape:connector-curvature="0"
           d="m 2208,1759 c -12,-6 -18,-22 -18,-44 0,-28 3,-32 20,-28 16,4 20,14 20,44 0,22 -1,39 -2,39 -2,0 -11,-5 -20,-11 z"
           id="path829" />
        <path
           style="fill:#c8c8c8;fill-opacity:1"
           inkscape:connector-curvature="0"
           d="m 2063,1713 c -7,-2 -13,-21 -13,-40 0,-28 3,-34 16,-29 9,3 20,6 25,6 5,0 9,16 9,35 0,34 -8,40 -37,28 z"
           id="path831" />
        <path
           style="fill:#c8c8c8;fill-opacity:1"
           inkscape:connector-curvature="0"
           d="m 2203,1543 c -7,-2 -13,-20 -13,-39 0,-27 4,-34 20,-34 17,0 20,7 20,40 0,40 -3,43 -27,33 z"
           id="path833" />
        <path
           style="fill:#c8c8c8;fill-opacity:1"
           inkscape:connector-curvature="0"
           d="m 2050,1470 c 0,-37 2,-39 23,-31 15,6 23,18 25,40 3,27 0,31 -22,31 -24,0 -26,-4 -26,-40 z"
           id="path835" />
        <path
           style="fill:#c8c8c8;fill-opacity:1"
           inkscape:connector-curvature="0"
           d="m 1935,1660 c -3,-6 1,-7 9,-4 18,7 21,14 7,14 -6,0 -13,-4 -16,-10 z"
           id="path837" />
        <path
           style="fill:#c8c8c8;fill-opacity:1"
           inkscape:connector-curvature="0"
           d="m 1040,1330 v -290 l 25,12 c 24,11 24,15 27,122 l 3,111 25,-2 c 14,-2 40,-5 58,-8 l 32,-6 v -74 c 0,-74 3,-81 34,-69 14,5 16,33 16,204 v 197 l -104,47 c -57,25 -106,46 -110,46 -3,0 -6,-130 -6,-290 z m 108,219 c 42,-18 43,-20 40,-61 -3,-39 -5,-43 -29,-41 -14,1 -43,10 -65,20 -32,15 -40,24 -42,51 -7,68 2,71 96,31 z m 60,-150 42,-12 v -49 -49 l -37,7 c -85,16 -88,18 -91,58 -4,50 4,69 25,62 10,-2 37,-10 61,-17 z"
           id="path839" />
        <path
           style="fill:#c8c8c8;fill-opacity:1"
           inkscape:connector-curvature="0"
           d="m 1090,1520 c 0,-11 11,-22 30,-29 26,-9 30,-8 30,9 0,11 -11,22 -30,29 -26,9 -30,8 -30,-9 z"
           id="path841" />
        <path
           style="fill:#c8c8c8;fill-opacity:1"
           inkscape:connector-curvature="0"
           d="m 1160,1361 c 0,-12 3,-21 8,-21 4,0 17,-3 30,-6 18,-5 22,-2 22,15 0,11 -6,21 -14,21 -8,0 -21,3 -30,6 -12,4 -16,0 -16,-15 z"
           id="path843" />
        <path
           style="fill:#c8c8c8;fill-opacity:1"
           inkscape:connector-curvature="0"
           d="m 1850,1575 -95,-42 -3,-76 -3,-75 57,19 c 31,11 61,19 66,19 5,0 8,-23 6,-52 l -3,-52 -50,-13 c -27,-7 -56,-11 -62,-8 -20,7 -18,-161 1,-168 15,-6 22,22 28,113 3,33 5,35 48,42 25,5 51,6 58,3 8,-3 12,-35 12,-113 0,-106 1,-109 25,-120 l 25,-12 v 290 c 0,160 -3,290 -7,289 -5,0 -51,-20 -103,-44 z m 98,-47 -3,-51 -50,-18 c -74,-26 -75,-25 -75,30 v 48 l 53,21 c 77,31 79,30 75,-30 z"
           id="path845" />
        <path
           style="fill:#c8c8c8;fill-opacity:1"
           inkscape:connector-curvature="0"
           d="m 1883,1528 c -21,-7 -33,-17 -33,-29 0,-15 4,-16 35,-6 23,7 35,16 35,29 0,10 -1,18 -2,17 -2,-1 -18,-6 -35,-11 z"
           id="path847" />
        <path
           style="fill:#c8c8c8;fill-opacity:1"
           inkscape:connector-curvature="0"
           d="m 910,1481 c 0,-37 2,-41 25,-41 22,0 25,4 25,35 0,19 -4,35 -9,35 -5,0 -16,3 -25,6 -13,5 -16,-2 -16,-35 z"
           id="path849" />
        <path
           style="fill:#c8c8c8;fill-opacity:1"
           inkscape:connector-curvature="0"
           d="m 1300,1274 c 0,-81 4,-123 10,-119 6,3 10,28 10,54 0,26 2,50 5,53 3,2 18,3 35,0 25,-4 30,-9 30,-33 0,-16 5,-29 10,-29 7,0 10,30 8,82 l -3,81 -52,18 -53,18 z m 90,66 c 15,-28 -4,-60 -35,-60 -18,0 -26,7 -31,25 -12,48 44,77 66,35 z"
           id="path851" />
        <path
           style="fill:#c8c8c8;fill-opacity:1"
           inkscape:connector-curvature="0"
           d="m 1350,1314 c 0,-8 5,-12 10,-9 6,3 10,10 10,16 0,5 -4,9 -10,9 -5,0 -10,-7 -10,-16 z"
           id="path853" />
        <path
           style="fill:#c8c8c8;fill-opacity:1"
           inkscape:connector-curvature="0"
           d="m 1648,1382 -48,-16 2,-85 c 0,-47 3,-72 5,-55 3,26 9,33 34,36 16,3 31,2 34,0 3,-3 5,-27 5,-53 0,-32 5,-49 15,-53 13,-5 15,13 15,119 0,69 -3,125 -7,124 -5,0 -29,-8 -55,-17 z m 34,-47 c 14,-30 -3,-55 -38,-55 -17,0 -25,7 -30,25 -13,51 46,77 68,30 z"
           id="path855" />
        <path
           style="fill:#c8c8c8;fill-opacity:1"
           inkscape:connector-curvature="0"
           d="m 1640,1320 c 0,-5 5,-10 10,-10 6,0 10,5 10,10 0,6 -4,10 -10,10 -5,0 -10,-4 -10,-10 z"
           id="path857" />
        <path
           style="fill:#c8c8c8;fill-opacity:1"
           inkscape:connector-curvature="0"
           d="m 1813,1370 c -21,-9 -33,-40 -15,-40 28,1 52,15 52,31 0,21 -4,22 -37,9 z"
           id="path859" />
        <path
           style="fill:#c8c8c8;fill-opacity:1"
           inkscape:connector-curvature="0"
           d="m 2165,1305 c -5,-2 -27,-6 -47,-10 l -38,-6 V 1136 983 l 47,-19 c 27,-11 51,-20 55,-22 5,-2 8,80 8,182 0,102 -3,186 -7,185 -5,0 -12,-2 -18,-4 z"
           id="path861" />
        <path
           style="fill:#c8c8c8;fill-opacity:1"
           inkscape:connector-curvature="0"
           d="m 810,1119 c 0,-141 3,-180 13,-176 6,3 31,13 55,22 l 42,17 v 153 152 l -37,7 c -79,13 -73,27 -73,-175 z"
           id="path863" />
        <path
           style="fill:#c8c8c8;fill-opacity:1"
           inkscape:connector-curvature="0"
           d="m 1120,1165 c 0,-47 2,-85 4,-85 3,0 16,4 30,10 24,9 26,14 26,79 0,54 -4,70 -16,75 -40,16 -44,9 -44,-79 z"
           id="path865" />
        <path
           style="fill:#c8c8c8;fill-opacity:1"
           inkscape:connector-curvature="0"
           d="m 1820,1177 c 0,-69 2,-74 25,-85 14,-7 28,-12 30,-12 3,0 5,38 5,85 v 85 h -30 -30 z"
           id="path867" />
        <path
           style="fill:#c8c8c8;fill-opacity:1"
           inkscape:connector-curvature="0"
           d="m 1640,1210 c 0,-16 5,-30 10,-30 6,0 10,14 10,30 0,17 -4,30 -10,30 -5,0 -10,-13 -10,-30 z"
           id="path869" />
        <path
           style="fill:#c8c8c8;fill-opacity:1"
           inkscape:connector-curvature="0"
           d="m 1350,1205 c 0,-14 5,-25 10,-25 6,0 10,11 10,25 0,14 -4,25 -10,25 -5,0 -10,-11 -10,-25 z"
           id="path871" />
      </g>
      <path
         transform="scale(0.26458333)"
         inkscape:connector-curvature="0"
         id="path913"
         d="m 194.76923,302.88202 c -0.97227,-0.52088 -2.75118,-1.95776 -3.95314,-3.19306 l -2.18537,-2.246 0.18434,-29.99338 c 0.14039,-22.8409 0.33797,-30.35472 0.82855,-31.50862 0.87224,-2.0516 2.89633,-4.11037 5.6307,-5.72717 l 2.27284,-1.3439 33.58757,0.0894 33.58758,0.0894 2.16611,2.43601 c 3.23053,3.63304 4.34457,6.00505 4.34649,9.25454 0.002,4.04004 -2.8341,8.69651 -6.26006,10.27672 -0.87849,0.4052 -9.25419,0.65926 -27.52666,0.83495 l -26.26397,0.25254 -0.25735,22.22336 c -0.17326,14.96162 -0.44473,22.64234 -0.83081,23.50559 -0.70559,1.57769 -4.32204,4.90483 -6.04219,5.55884 -2.15948,0.82103 -7.33107,0.53742 -9.28463,-0.50917 z"
         style="fill:#7d7d7d;fill-opacity:1;stroke:none;stroke-width:0.50507629;stroke-opacity:1" />
      <path
         transform="scale(0.26458333)"
         inkscape:connector-curvature="0"
         id="path915"
         d="m 452.10559,302.91911 c -2.73657,-1.26302 -4.12799,-2.90033 -4.76867,-5.61138 -0.29541,-1.25007 -0.77272,-9.65958 -1.06069,-18.68782 -0.28796,-9.02824 -0.64791,-18.49561 -0.79988,-21.03859 l -0.27631,-4.62361 -6.14367,-0.27483 c -3.37902,-0.15116 -13.87134,-0.527 -23.31627,-0.83519 -9.44492,-0.3082 -19.10451,-0.76399 -21.46574,-1.01288 -3.82234,-0.4029 -4.41818,-0.6074 -5.43331,-1.86481 -1.6697,-2.06821 -3.15299,-6.39758 -3.15299,-9.20283 0,-3.11015 2.25043,-6.67165 5.65223,-8.94516 l 2.36923,-1.58341 13.28813,-0.35625 c 16.36265,-0.43867 52.54901,0.36491 54.68116,1.21429 0.8206,0.3269 2.69569,1.62272 4.16688,2.87959 l 2.67488,2.28523 v 31.20655 31.20657 l -2.53607,2.37219 c -1.39484,1.30471 -3.31945,2.69952 -4.27693,3.09957 -2.43485,1.01735 -7.14694,0.90584 -9.60198,-0.22723 z"
         style="fill:#7d7d7d;fill-opacity:1;stroke:none;stroke-width:0.50507629;stroke-opacity:1" />
      <path
         transform="scale(0.26458333)"
         inkscape:connector-curvature="0"
         id="path917"
         d="m 397.47347,467.02311 c -6.03135,-0.447 -8.17996,-1.79424 -10.84551,-6.80048 -0.84711,-1.59098 -1.00394,-2.54434 -0.77826,-4.73096 0.28608,-2.77187 2.287,-7.56973 3.61737,-8.67384 1.42263,-1.18068 13.87677,-1.97572 44.28648,-2.82712 l 11.44746,-0.3205 0.27583,-4.61714 c 0.1517,-2.53942 0.51343,-12.00387 0.80385,-21.03211 0.29041,-9.02824 0.77176,-17.49219 1.06966,-18.80878 0.70399,-3.11131 3.52772,-5.64716 7.15434,-6.42493 4.49295,-0.96356 8.17537,0.32597 11.91755,4.17336 l 2.19481,2.25653 -0.22249,29.22615 c -0.24916,32.72776 -0.13307,31.6525 -3.9146,36.25801 l -2.27284,2.76808 -30.05204,-0.0516 c -16.52862,-0.0284 -32.13534,-0.20598 -34.68161,-0.3947 z"
         style="fill:#7d7d7d;fill-opacity:1;stroke:none;stroke-width:0.50507629;stroke-opacity:1" />
      <path
         transform="scale(0.26458333)"
         inkscape:connector-curvature="0"
         id="path919"
         d="m 192.11758,464.33479 -3.40926,-3.19402 V 430.0917 399.04262 l 2.39911,-2.3258 c 3.30061,-3.19977 5.31227,-4.12491 8.9651,-4.12297 5.3322,0.003 8.97986,2.66145 9.8345,7.16793 0.42343,2.23278 1.01075,15.76645 1.6735,38.56325 0.0783,2.69458 0.2485,5.00364 0.37813,5.13124 0.12964,0.1276 8.98615,0.48693 19.68114,0.79851 18.61763,0.54239 31.55323,1.22992 34.424,1.82962 1.78548,0.37299 3.78033,3.46353 4.83764,7.49473 0.69746,2.65924 0.73602,3.54384 0.22834,5.23832 -0.81856,2.73213 -4.70805,6.99547 -7.0727,7.75251 -1.32561,0.4244 -11.43957,0.64774 -35.1952,0.77719 l -33.33503,0.18165 z"
         style="fill:#7d7d7d;fill-opacity:1;stroke:none;stroke-width:0.50507629;stroke-opacity:1" />
    </g>
  </g>
</svg>
