<?xml version="1.0" encoding="UTF-8" standalone="no"?>
<svg
   version="1.1"
   width="256"
   height="256"
   viewBox="0 0 256 256"
   xml:space="preserve"
   id="svg6"
   sodipodi:docname="btn_icon_delete.svg"
   inkscape:version="1.3.1 (9b9bdc1480, 2023-11-25, custom)"
   xmlns:inkscape="http://www.inkscape.org/namespaces/inkscape"
   xmlns:sodipodi="http://sodipodi.sourceforge.net/DTD/sodipodi-0.dtd"
   xmlns="http://www.w3.org/2000/svg"
   xmlns:svg="http://www.w3.org/2000/svg"><sodipodi:namedview
   id="namedview6"
   pagecolor="#ffffff"
   bordercolor="#000000"
   borderopacity="0.25"
   inkscape:showpageshadow="2"
   inkscape:pageopacity="0.0"
   inkscape:pagecheckerboard="0"
   inkscape:deskcolor="#d1d1d1"
   inkscape:zoom="7.3242188"
   inkscape:cx="128"
   inkscape:cy="128"
   inkscape:window-width="3840"
   inkscape:window-height="2075"
   inkscape:window-x="0"
   inkscape:window-y="0"
   inkscape:window-maximized="1"
   inkscape:current-layer="svg6" />

<defs
   id="defs1">
</defs>
<g
   style="stroke:none;stroke-width:0;stroke-dasharray:none;stroke-linecap:butt;stroke-linejoin:miter;stroke-miterlimit:10;fill:#000080;fill-rule:nonzero;opacity:1;fill-opacity:1"
   transform="translate(1.4065934065934016 1.4065934065934016) scale(2.81 2.81)"
   id="g6">
	<path
   d="M 67.692 90 H 22.308 c -3.042 0 -5.518 -2.476 -5.518 -5.518 v -61 c 0 -1.104 0.896 -2 2 -2 h 52.42 c 1.104 0 2 0.896 2 2 v 61 C 73.21 87.524 70.734 90 67.692 90 z M 20.79 25.482 v 59 c 0 0.837 0.681 1.518 1.518 1.518 h 45.385 c 0.837 0 1.518 -0.681 1.518 -1.518 v -59 H 20.79 z"
   style="stroke:none;stroke-width:1;stroke-dasharray:none;stroke-linecap:butt;stroke-linejoin:miter;stroke-miterlimit:10;fill:#000080;fill-rule:nonzero;opacity:1;fill-opacity:1"
   transform=" matrix(1 0 0 1 0 0) "
   stroke-linecap="round"
   id="path1" />
	<path
   d="M 73.196 25.482 H 16.804 c -3.042 0 -5.518 -2.475 -5.518 -5.518 v -4.335 c 0 -3.042 2.475 -5.518 5.518 -5.518 h 56.393 c 3.042 0 5.518 2.475 5.518 5.518 v 4.335 C 78.714 23.007 76.238 25.482 73.196 25.482 z M 16.804 14.112 c -0.837 0 -1.518 0.681 -1.518 1.518 v 4.335 c 0 0.837 0.681 1.518 1.518 1.518 h 56.393 c 0.837 0 1.518 -0.681 1.518 -1.518 v -4.335 c 0 -0.837 -0.681 -1.518 -1.518 -1.518 H 16.804 z"
   style="stroke:none;stroke-width:1;stroke-dasharray:none;stroke-linecap:butt;stroke-linejoin:miter;stroke-miterlimit:10;fill:#000080;fill-rule:nonzero;opacity:1;fill-opacity:1"
   transform=" matrix(1 0 0 1 0 0) "
   stroke-linecap="round"
   id="path2" />
	<path
   d="M 57.197 14.112 H 32.803 c -1.104 0 -2 -0.896 -2 -2 V 5.518 C 30.803 2.476 33.278 0 36.321 0 h 17.358 c 3.043 0 5.519 2.476 5.519 5.518 v 6.594 C 59.197 13.216 58.302 14.112 57.197 14.112 z M 34.803 10.112 h 20.395 V 5.518 C 55.197 4.681 54.516 4 53.679 4 H 36.321 c -0.837 0 -1.518 0.681 -1.518 1.518 V 10.112 z"
   style="stroke:none;stroke-width:1;stroke-dasharray:none;stroke-linecap:butt;stroke-linejoin:miter;stroke-miterlimit:10;fill:#000080;fill-rule:nonzero;opacity:1;fill-opacity:1"
   transform=" matrix(1 0 0 1 0 0) "
   stroke-linecap="round"
   id="path3" />
	<path
   d="M 45 78.624 c -1.104 0 -2 -0.896 -2 -2 V 34.856 c 0 -1.104 0.896 -2 2 -2 s 2 0.896 2 2 v 41.768 C 47 77.729 46.104 78.624 45 78.624 z"
   style="stroke:none;stroke-width:1;stroke-dasharray:none;stroke-linecap:butt;stroke-linejoin:miter;stroke-miterlimit:10;fill:#000080;fill-rule:nonzero;opacity:1;fill-opacity:1"
   transform=" matrix(1 0 0 1 0 0) "
   stroke-linecap="round"
   id="path4" />
	<path
   d="M 58.222 78.624 c -1.104 0 -2 -0.896 -2 -2 V 34.856 c 0 -1.104 0.896 -2 2 -2 s 2 0.896 2 2 v 41.768 C 60.222 77.729 59.326 78.624 58.222 78.624 z"
   style="stroke:none;stroke-width:1;stroke-dasharray:none;stroke-linecap:butt;stroke-linejoin:miter;stroke-miterlimit:10;fill:#000080;fill-rule:nonzero;opacity:1;fill-opacity:1"
   transform=" matrix(1 0 0 1 0 0) "
   stroke-linecap="round"
   id="path5" />
	<path
   d="M 31.779 78.624 c -1.104 0 -2 -0.896 -2 -2 V 34.856 c 0 -1.104 0.896 -2 2 -2 s 2 0.896 2 2 v 41.768 C 33.779 77.729 32.883 78.624 31.779 78.624 z"
   style="stroke:none;stroke-width:1;stroke-dasharray:none;stroke-linecap:butt;stroke-linejoin:miter;stroke-miterlimit:10;fill:#000080;fill-rule:nonzero;opacity:1;fill-opacity:1"
   transform=" matrix(1 0 0 1 0 0) "
   stroke-linecap="round"
   id="path6" />
</g>
</svg>
