<?xml version="1.0" encoding="UTF-8" standalone="no"?>
<!-- Created with Inkscape (http://www.inkscape.org/) -->
<svg xmlns:rdf="http://www.w3.org/1999/02/22-rdf-syntax-ns#" xmlns="http://www.w3.org/2000/svg" height="32" width="32" version="1.1" xmlns:cc="http://creativecommons.org/ns#" xmlns:dc="http://purl.org/dc/elements/1.1/" viewBox="0 0 8.4666664 8.4666664">
 <metadata>
  <rdf:RDF>
   <cc:Work rdf:about="">
    <dc:format>image/svg+xml</dc:format>
    <dc:type rdf:resource="http://purl.org/dc/dcmitype/StillImage"/>
    <dc:title/>
   </cc:Work>
  </rdf:RDF>
 </metadata>
 <g transform="translate(-85.99 -126.19)">
  <g transform="matrix(.68196 0 0 .68196 15.018 44.044)">
   <g transform="matrix(1.5855 0 0 1.5855 75.912 98.676)">
    <rect style="color-rendering:auto;color:#000000;isolation:auto;mix-blend-mode:normal;paint-order:markers stroke fill;shape-rendering:auto;solid-color:#000000;image-rendering:auto" fill-rule="evenodd" height="7.8306" width="7.8306" y="13.74" x="17.76" fill="#fff"/>
    <path d="m21.504 21.255c-0.77605-0.04115-1.4946-0.31392-2.0883-0.79287-0.14275-0.11502-0.32847-0.29232-0.43962-0.41985-0.42803-0.48986-0.70358-1.0427-0.83196-1.6687-0.10704-0.52168-0.0926-1.0947 0.0406-1.6137 0.25927-1.0097 0.94503-1.859 1.8791-2.3272 0.76263-0.38232 1.6498-0.48029 2.4809-0.27389 0.80171 0.19911 1.5111 0.66873 2.0094 1.3302 0.74192 0.98494 0.92707 2.274 0.49379 3.4374-0.05969 0.16025-0.16994 0.39211-0.2572 0.54098-0.21807 0.37195-0.49277 0.69505-0.82428 0.96956-0.13273 0.10991-0.32503 0.24404-0.47952 0.33447-0.14698 0.08603-0.3807 0.19693-0.54325 0.25775-0.32701 0.12238-0.66609 0.19599-1.02 0.22142-0.09305 0.0067-0.33183 0.0094-0.41948 0.0047zm1.169-0.748c0.17148-0.009 0.34408-0.0282 0.51527-0.05738l0.0935-0.01594 0.05777-0.03516c0.22627-0.1377 0.43587-0.30276 0.62166-0.48959 0.06811-0.06848 0.1785-0.18999 0.17542-0.19308-0.000727-0.000727-0.04034 0.0087-0.08798 0.02111-0.21772 0.05644-0.42192 0.09227-0.64446 0.11308-0.06651 0.0062-0.12982 0.0079-0.29339 0.0077-0.88906-0.0011-1.7156-0.15439-2.5236-0.4681-0.21711-0.08428-0.37559-0.15322-0.72022-0.31328-0.47458-0.22042-0.60656-0.27-0.76932-0.28896-0.13199-0.01537-0.27975 0.01862-0.37029 0.08519l-0.0215 0.0158 0.01623 0.03798c0.02474 0.05787 0.09948 0.21061 0.13078 0.2672 0.15696 0.28389 0.33815 0.52177 0.57274 0.75188 0.20282 0.19897 0.41175 0.35765 0.65732 0.4992l0.06877 0.03965 0.0035-0.03335c0.0097-0.09108 0.02934-0.14294 0.06955-0.18376 0.07826-0.07944 0.21842-0.09549 0.46788-0.05358 0.09772 0.01642 0.18392 0.03647 0.4316 0.1004 0.34802 0.08983 0.51341 0.12469 0.74045 0.15608 0.25141 0.03477 0.57069 0.04932 0.80842 0.03689zm2.0714-1.8853c0.02912-0.0937 0.0545-0.2027 0.07824-0.33581 0.01435-0.08051 0.0316-0.19522 0.02954-0.19653-0.000864-0.000523-0.02425-0.0078-0.05199-0.01604-0.39489-0.11794-0.91909-0.46172-1.6114-1.0568-0.34545-0.29692-0.43408-0.37884-0.88331-0.81653-0.191-0.1861-0.2896-0.27918-0.40953-0.38666-0.57026-0.511-1.0207-0.75772-1.4876-0.81485-0.15245-0.01866-0.53346-0.0027-0.57501 0.02404-0.0065 0.0042-0.03552 0.02516-0.06452 0.0466-0.35238 0.2607-0.65339 0.59508-0.87363 0.9704-0.0412 0.0702-0.13067 0.24368-0.15678 0.30394l-0.01449 0.03345 0.01932-0.01682c0.13853-0.12067 0.238-0.18908 0.3662-0.25186 0.10588-0.05186 0.21695-0.08587 0.33851-0.10368 0.05844-0.0085 0.20244-0.0073 0.26589 0.0023 0.18682 0.02833 0.359 0.08854 0.59826 0.20927 0.30301 0.15289 0.56903 0.32478 1.2263 0.79248 0.55948 0.39812 0.77675 0.54753 1.0705 0.73631 0.68819 0.44233 1.215 0.70144 1.6956 0.83396 0.13282 0.03662 0.34222 0.07753 0.40925 0.07997l0.01894 0.000704zm0.03904-1.6777c0.01094-0.0028 0.02099-0.0079 0.02231-0.01131 0.0052-0.01355-0.05196-0.21878-0.09464-0.33988-0.21202-0.60147-0.5974-1.1258-1.1097-1.5099-0.46836-0.35111-1.0234-0.56683-1.6076-0.62479-0.15992-0.01587-0.3629-0.02025-0.38427-0.0083-0.0046 0.0026 0.0088 0.0059 0.04001 0.0097 0.0259 0.0032 0.0873 0.0138 0.13647 0.02372 0.494 0.09952 0.93078 0.3486 1.3546 0.77248 0.20839 0.2084 0.39182 0.43078 0.67869 0.82283 0.23838 0.32576 0.30999 0.42007 0.39627 0.52202 0.18904 0.22336 0.34426 0.33442 0.48736 0.3487 0.03552 0.0035 0.0493 0.0026 0.08054-0.0052z" stroke-width=".22731" fill="#4e7ad6"/>
   </g>
  </g>
 </g>
</svg>
