<?xml version="1.0" encoding="UTF-8" standalone="no"?>
<svg
   class="svg-icon"
   style="width: 1em; height: 1em;vertical-align: middle;fill: currentColor;overflow: hidden;"
   viewBox="0 0 1024 1024"
   version="1.1"
   id="svg3"
   sodipodi:docname="btn_pdf.svg"
   inkscape:version="1.3.1 (9b9bdc1480, 2023-11-25, custom)"
   xmlns:inkscape="http://www.inkscape.org/namespaces/inkscape"
   xmlns:sodipodi="http://sodipodi.sourceforge.net/DTD/sodipodi-0.dtd"
   xmlns="http://www.w3.org/2000/svg"
   xmlns:svg="http://www.w3.org/2000/svg">
  <defs
     id="defs3" />
  <sodipodi:namedview
     id="namedview3"
     pagecolor="#ffffff"
     bordercolor="#000000"
     borderopacity="0.25"
     inkscape:showpageshadow="2"
     inkscape:pageopacity="0.0"
     inkscape:pagecheckerboard="0"
     inkscape:deskcolor="#d1d1d1"
     inkscape:zoom="1.8310547"
     inkscape:cx="512"
     inkscape:cy="555.69066"
     inkscape:window-width="3840"
     inkscape:window-height="2075"
     inkscape:window-x="0"
     inkscape:window-y="0"
     inkscape:window-maximized="1"
     inkscape:current-layer="svg3" />
  <path
     d="M 961.84302,1023.605 H 247.67551 c -33.7553,0 -61.18855,-27.74187 -61.18855,-61.8769 V 63.257416 c 0,-34.135036 27.43325,-61.876888 61.18855,-61.876888 h 554.64828 c 11.2894,0 20.43381,9.247284 20.43381,20.663684 V 176.8506 h 179.8402 c 11.2894,0 20.4338,9.24728 20.4338,20.66368 V 961.7281 c 0,34.02087 -27.43327,61.8769 -61.18858,61.8769 z M 247.67551,42.707896 c -11.2894,0 -20.43381,9.247284 -20.43381,20.663684 V 961.7281 c 0,11.4164 9.14441,20.66368 20.43381,20.66368 h 714.16751 c 11.2894,0 20.43382,-9.24728 20.43382,-20.66368 V 218.0638 H 802.21089 c -11.2894,0 -20.43381,-9.24728 -20.43381,-20.66368 V 42.707896 Z"
     fill="#E00C3C"
     id="path1"
     style="fill:#000080;stroke-width:1.13527;fill-opacity:1" />
  <path
     d="M 1003.0493,218.17796 H 802.66247 c -11.2894,0 -20.43382,-9.24728 -20.43382,-20.66368 V 22.044212 c 0,-8.105644 4.62866,-15.41214 11.96677,-18.722896 7.22521,-3.310756 15.80516,-2.169116 21.78854,3.196592 l 22.80459,19.864536 c 0.22579,0.114164 0.33868,0.342492 0.56447,0.456656 l 177.13068,155.03471 c 6.435,5.59404 8.6929,14.72716 5.7576,22.8328 -3.0481,8.10565 -10.612,13.47135 -19.192,13.47135 z M 823.09628,176.8506 H 948.40863 L 823.09628,67.138992 Z M 683.67218,821.5347 H 23.129329 c -12.869917,0 -23.36906013,-10.61725 -23.36906013,-23.63194 V 489.43163 c 0,-13.0147 10.49914313,-23.63195 23.36906013,-23.63195 H 683.78508 c 12.86991,0 23.36906,10.61725 23.36906,23.63195 v 308.47113 c -0.1129,13.01469 -10.61204,23.63194 -23.48196,23.63194 z"
     fill="#E00C3C"
     id="path2"
     style="fill:#000080;stroke-width:1.13527;fill-opacity:1" />
  <path
     d="m 62.077762,524.93663 h 77.106608 c 52.04414,0 92.00862,18.26624 92.00862,74.43493 0,54.2279 -40.30316,78.54483 -90.76678,78.54483 h -31.38454 v 84.3672 H 62.077762 Z M 137.26517,640.4706 c 32.40058,0 47.86706,-13.81384 47.86706,-41.09904 0,-27.62769 -17.15989,-36.87497 -49.44757,-36.87497 H 109.04167 V 640.4706 Z M 273.64114,524.93663 h 64.34958 c 71.6877,0 116.05505,37.55996 116.05505,117.70309 0,79.9148 -44.36735,119.64387 -113.57138,119.64387 H 273.52824 V 524.93663 Z m 61.52723,199.21618 c 43.80288,0 71.01033,-23.74611 71.01033,-81.51309 0,-58.10948 -27.32035,-79.9148 -71.01033,-79.9148 h -14.56332 v 161.31373 h 14.56332 z M 500.10652,524.93663 h 144.61723 v 39.50075 h -97.65332 v 61.87688 h 83.42867 v 39.72908 h -83.42867 v 96.24025 h -46.96391 z"
     fill="#ffffff"
     id="path3"
     style="stroke-width:1.13527" />
</svg>
