<?xml version="1.0" encoding="UTF-8"?>
<svg width="32" height="32" version="1.1" viewBox="0 0 8.4667 8.4667" xmlns="http://www.w3.org/2000/svg" xmlns:cc="http://creativecommons.org/ns#" xmlns:dc="http://purl.org/dc/elements/1.1/" xmlns:rdf="http://www.w3.org/1999/02/22-rdf-syntax-ns#">
 <metadata>
  <rdf:RDF>
   <cc:Work rdf:about="">
    <dc:format>image/svg+xml</dc:format>
    <dc:type rdf:resource="http://purl.org/dc/dcmitype/StillImage"/>
    <dc:title/>
   </cc:Work>
  </rdf:RDF>
 </metadata>
 <path d="M0 0h8.467v8.467H0z" fill="#fff" fill-rule="evenodd" overflow="visible" style="isolation:auto;mix-blend-mode:normal" paint-order="markers stroke fill"/>
 <g transform="translate(-.025368 -.3171)">
  <g transform="translate(-.20294 .32978)">
   <path transform="translate(.025368 .3171)" d="m1.2276 2.7477v-2.4699h6.0816v4.9398h-6.0816zm2.0312 1.899v-0.3185h-1.7788v0.637h1.7788zm1.899 0v-0.3185h-1.7788v0.637h1.7788zm1.899 0v-0.3185h-1.7788v0.637h1.7788zm-3.798-0.75719v-0.3185h-1.7788v0.63701h1.7788zm1.899 0v-0.3185h-1.7788v0.63701h1.7788zm1.899 0v-0.3185h-1.7788v0.63701h1.7788zm-3.798-0.7632v-0.31249h-1.7788v0.62499h1.7788zm1.899 0v-0.31249h-1.7788v0.62499h1.7788zm1.899 0v-0.31249h-1.7788v0.62499h1.7788zm-3.798-0.75719v-0.31249h-1.7788v0.62499h1.7788zm1.899 0v-0.31249h-1.7788v0.62499h1.7788zm1.899 0v-0.31249h-1.7788v0.62499h1.7788zm-3.798-0.7632v-0.3185h-1.7788v0.637h1.7788zm1.899 0v-0.3185h-1.7788v0.637h1.7788zm1.899 0v-0.3185h-1.7788v0.637h1.7788z" fill="#3d94c2" stroke-width=".012019"/>
   <rect x="1.3274" y="5.3634" width="5.9195" height="2.4126" fill="#fff" style="paint-order:fill markers stroke"/>
   <path d="m1.2527 7.6422v0.27557h6.0816v-2.6186h-6.0816zm2.0312-1.899v0.3185h-1.7788v-0.637h1.7788zm1.899 0v0.3185h-1.7788v-0.637h1.7788zm1.899 0v0.3185h-1.7788v-0.637h1.7788zm-3.798 0.75719v0.3185h-1.7788v-0.63701h1.7788zm1.899 0v0.3185h-1.7788v-0.63701h1.7788zm1.899 0v0.3185h-1.7788v-0.63701h1.7788zm-3.798 0.7632v0.31249h-1.7788v-0.62499h1.7788zm1.899 0v0.31249h-1.7788v-0.62499h1.7788zm1.899 0v0.31249h-1.7788v-0.62499h1.7788z" fill="#3d94c2" stroke-width=".012019"/>
  </g>
  <path d="m2.0856 6.8643c-0.024444-0.0061111 1.2603-1.5827 2.9758-1.6595 1.6195-0.072443 3.0804 1.5655 3.0477 1.6435v1.7711s-4.1014-0.33769-4.213-0.33567c-0.5417 0.00977-1.9372-1.372-1.8105-1.4195z" fill="#fff"/>
  <g transform="matrix(.041 0 0 .041 7.4897 8.1905)" stroke-width=".26458">
   <path d="m-62.12 3.9955c-16.432-1.1777-33.778-8.9332-48.999-21.907-3.5274-3.0067-9.3918-8.9573-11.896-12.071l-2.0249-2.5176 2.0249-2.5176c2.5044-3.1137 8.3688-9.0644 11.896-12.071 20.054-17.094 43.141-24.75 64.161-21.276 15.232 2.5171 29.966 9.7193 43.524 21.276 3.5274 3.0067 9.3918 8.9573 11.896 12.071l2.0249 2.5176-2.0249 2.5176c-2.5044 3.1137-8.3688 9.0644-11.896 12.071-15.481 13.196-32.405 20.686-49.53 21.921-4.0155 0.28954-4.9459 0.28815-9.1563-0.0136zm9.1445-11.224c13.979-2.4377 23.389-15.707 20.971-29.572-2.8593-16.396-19.947-25.688-35.406-19.252-2.0116 0.83744-4.8858 2.621-6.5181 4.0448l-0.90932 0.79318-0.65308-0.76292c-0.35919-0.4196-1.2298-1.4116-1.9346-2.2044l-1.2815-1.4415-1.3894 0.49123c-3.844 1.359-10.707 4.9971-15.668 8.306-4.8466 3.2323-11.043 8.3476-15.083 12.452l-1.845 1.8743 1.845 1.8743c7.3644 7.4812 17.245 14.57 26.19 18.789 2.2849 1.0778 5.3451 2.3548 5.644 2.3553 0.05001 7.14e-5 -0.68994-0.84326-1.6443-1.8741-5.3672-5.7971-8.1502-13.06-8.1417-21.248 3e-3 -2.9136 0.42965-6.6534 0.8096-7.0967 0.17296-0.20179 5.3297 0.55405 5.6158 0.82312 0.09342 0.08788 0.01045 1.1123-0.18442 2.2764-2.578 15.403 9.3611 29.579 25.049 29.742 1.2542 0.01307 3.2945-0.15309 4.5338-0.36921zm-6.4174-8.331c-2.2973-0.31813-3.6792-0.76938-5.9531-1.9439-4.0238-2.0784-7.2853-6.2209-8.4742-10.763-0.53585-2.0472-0.60051-5.9542-0.13094-7.9116 0.30948-1.29 0.37496-1.3689 1.0283-1.2388 2.9362 0.58465 11.765 2.0082 11.86 1.9124 0.09987-0.09986-4.7041-5.6504-7.3822-8.5295l-0.76144-0.81858 1.4009-1.0805c3.1235-2.4091 6.5377-3.5652 10.529-3.5652 4.6804 0 8.7754 1.6841 12.045 4.9536s4.9536 7.3645 4.9536 12.045c0 3.0848-0.53276 5.2345-1.9999 8.0698-3.129 6.0468-10.378 9.8038-17.115 8.8708zm25.387 5.5298c9.536-3.6244 21.8-11.961 30.301-20.596l1.845-1.8743-1.845-1.8743c-7.3644-7.4812-17.245-14.57-26.19-18.789-2.2849-1.0778-5.3451-2.3548-5.644-2.3553-0.05001-7.1e-5 0.68994 0.84326 1.6443 1.8741 5.3355 5.7628 8.1477 13.061 8.1477 21.145s-2.8123 15.382-8.1477 21.145c-0.95438 1.0308-1.6943 1.8742-1.6443 1.8741 0.05-7.41e-5 0.73979-0.24676 1.5329-0.54818z" fill="#8c8c8c"/>
   <path d="m-63.097 3.8609c-0.3638-0.061352-1.733-0.24111-3.0427-0.39947-13.811-1.67-29.074-8.66-42.598-19.509-5.2265-4.1928-16.007-15.273-16.007-16.452s10.781-12.259 16.007-16.452c13.332-10.695 27.052-17.072 41.878-19.464 4.0129-0.64748 15.154-0.64748 19.167 0 14.826 2.3921 28.546 8.7691 41.878 19.464 5.2265 4.1928 16.007 15.273 16.007 16.452s-10.781 12.259-16.007 16.452c-13.234 10.616-27.004 17.045-41.596 19.42-2.4557 0.39961-14.069 0.76148-15.686 0.48878zm12.434-11.479c4.6624-1.3585 8.2208-3.441 11.524-6.7443 3.3401-3.3401 5.4097-6.9004 6.7825-11.668 0.5218-1.8122 0.60575-2.7087 0.60575-6.4694 0-4.8089-0.35028-6.6102-2.0298-10.438-2.4567-5.5994-7.4583-10.601-13.058-13.058-3.8978-1.7101-5.6132-2.0381-10.57-2.0207-4.1293 0.01445-4.6923 0.07532-6.8697 0.74287-3.1878 0.97732-6.2824 2.5485-8.626 4.3796l-1.9361 1.5127-3.9064-4.3788-1.3695 0.53844c-10.48 4.1206-21.557 11.572-30.204 20.319l-2.3757 2.4032 2.3757 2.4032c6.503 6.5782 14.241 12.354 22.219 16.584 3.2219 1.7083 8.3686 4.0319 8.9305 4.0319 0.16931 0-0.17185-0.50602-0.75814-1.1245-4.1192-4.3453-6.898-9.5472-8.1658-15.287-0.82048-3.7143-0.80673-9.8848 0.0298-13.379 0.14206-0.59338 0.08249-0.59676 5.0234 0.28552l0.82639 0.14757-0.38416 1.7802c-0.55958 2.5931-0.32449 8.5309 0.44232 11.172 1.3512 4.6535 3.4373 8.2191 6.7423 11.524 3.3407 3.3407 7.0714 5.509 11.536 6.7047 2.924 0.78316 2.9711 0.78769 7.2631 0.69922 3.1198-0.064304 4.3929-0.20541 5.9518-0.65964zm-10.711-8.3754c-2.9546-0.71425-5.3454-2.1181-7.8179-4.5906-3.4666-3.4665-5.0052-7.0968-5.0138-11.829-0.0054-2.9856 0.44316-4.8498 1.166-4.8458 0.30243 0.0016 3.199 0.46209 6.4368 1.0231 3.2378 0.56104 5.887 0.96864 5.887 0.9058 0-0.06284-1.8626-2.2149-4.1391-4.7824l-4.1391-4.6682 1.1625-1.0031c2.6159-2.2571 6.6285-3.6414 10.555-3.6414 4.8125 0 8.4244 1.5186 11.916 5.0098 3.4913 3.4913 5.0098 7.1031 5.0098 11.916s-1.5186 8.4244-5.0098 11.916c-2.5128 2.5128-4.8808 3.8852-7.9469 4.6057-2.1307 0.50068-5.9626 0.49349-8.0666-0.01513zm29.023 5.3382c9.9386-4.2845 20.037-11.267 28.118-19.441l2.3757-2.4032-2.3757-2.4032c-6.503-6.5782-14.241-12.354-22.219-16.584-3.2219-1.7083-8.3686-4.0319-8.9305-4.0319-0.16931 0 0.17185 0.50602 0.75814 1.1245 3.23 3.4072 5.8959 7.8162 7.3373 12.135 1.8802 5.6332 1.8802 13.885 0 19.519-1.4414 4.3187-4.1073 8.7277-7.3373 12.135-0.58629 0.61846-0.92746 1.1245-0.75814 1.1245s1.5336-0.52841 3.0317-1.1742z" fill="#333"/>
  </g>
 </g>
</svg>
