<?xml version="1.0" encoding="UTF-8"?>
<!-- Created with Inkscape (http://www.inkscape.org/) -->
<svg width="32" height="32" version="1.1" viewBox="0 0 8.4667 8.4667" xmlns="http://www.w3.org/2000/svg" xmlns:cc="http://creativecommons.org/ns#" xmlns:dc="http://purl.org/dc/elements/1.1/" xmlns:rdf="http://www.w3.org/1999/02/22-rdf-syntax-ns#">
 <metadata>
  <rdf:RDF>
   <cc:Work rdf:about="">
    <dc:format>image/svg+xml</dc:format>
    <dc:type rdf:resource="http://purl.org/dc/dcmitype/StillImage"/>
    <dc:title/>
   </cc:Work>
  </rdf:RDF>
 </metadata>
 <g transform="translate(-85.99 -126.19)">
  <g transform="matrix(1.104 0 0 1.104 89.967 113.56)">
   <g transform="matrix(1.6 0 0 1.6 -3.8083 -11.506)">
    <g transform="matrix(.14978 0 0 .14978 -14.227 -13.836)">
     <g transform="matrix(.88479 0 0 .88479 -19.746 -52.713)" fill="#fff">
      <path d="m134.48 302.43 29.054 0.28278" fill="none" stroke="#333" stroke-linejoin="round" stroke-width="1.4428"/>
      <path d="m166.48 301.7a3.6608 3.6505 76.183 0 1-2.6706 4.4267 3.6608 3.6505 76.183 0 1-4.4192-2.683 3.6608 3.6505 76.183 0 1 2.6706-4.4267 3.6608 3.6505 76.183 0 1 4.4192 2.683z" color="#000000" color-rendering="auto" fill="#999" image-rendering="auto" shape-rendering="auto" solid-color="#000000" style="isolation:auto;mix-blend-mode:normal"/>
      <path d="m148.87 276.26-0.28278 26.257" fill="none" stroke="#333" stroke-linejoin="round" stroke-width="1.4428"/>
      <path d="m152.27 275.54a3.6608 3.6505 76.183 0 1-2.6706 4.4267 3.6608 3.6505 76.183 0 1-4.4192-2.683 3.6608 3.6505 76.183 0 1 2.6706-4.4267 3.6608 3.6505 76.183 0 1 4.4192 2.683z" color="#000000" color-rendering="auto" fill="#999" image-rendering="auto" shape-rendering="auto" solid-color="#000000" style="isolation:auto;mix-blend-mode:normal"/>
      <circle cx="136.12" cy="302.67" r="5.4126" color="#000000" color-rendering="auto" fill="#999" fill-rule="evenodd" image-rendering="auto" shape-rendering="auto" solid-color="#000000" style="isolation:auto;mix-blend-mode:normal;paint-order:markers stroke fill"/>
      <g transform="matrix(.43982 .0063706 .0063706 -.43982 84.843 426.34)" fill="#808080" aria-label="x">
       <path d="m119.08 275.61-5.1947 6.9904 5.4641 7.3752h-2.7833l-4.1814-5.6436-4.1814 5.6436h-2.7834l5.5795-7.5163-5.1049-6.8493h2.7833l3.8095 5.1178 3.8095-5.1178z" fill="#333" stroke-width="1.2313px"/>
      </g>
      <circle cx="148.92" cy="290.49" r="5.4126" color="#000000" color-rendering="auto" fill="#999" fill-rule="evenodd" image-rendering="auto" shape-rendering="auto" solid-color="#000000" style="isolation:auto;mix-blend-mode:normal;paint-order:markers stroke fill"/>
      <g transform="scale(1.0382 .96318)" fill="#808080" aria-label="Y">
       <path d="m140.48 298.64h0.97509l1.8603 2.759 1.8468-2.759h0.97509l-2.3726 3.5139v3.1949h-0.91218v-3.1949z" fill="#333" stroke-width=".43137px"/>
      </g>
     </g>
    </g>
   </g>
  </g>
 </g>
</svg>
