<?xml version="1.0" encoding="UTF-8" standalone="no"?>
<!-- Uploaded to: SVG Repo, www.svgrepo.com, Generator: SVG Repo Mixer Tools -->

<svg
   fill="#000000"
   height="800px"
   width="800px"
   version="1.1"
   id="Capa_1"
   viewBox="0 0 488.3 488.3"
   xml:space="preserve"
   sodipodi:docname="preview.svg"
   inkscape:version="1.3.1 (9b9bdc1480, 2023-11-25, custom)"
   xmlns:inkscape="http://www.inkscape.org/namespaces/inkscape"
   xmlns:sodipodi="http://sodipodi.sourceforge.net/DTD/sodipodi-0.dtd"
   xmlns="http://www.w3.org/2000/svg"
   xmlns:svg="http://www.w3.org/2000/svg"><defs
   id="defs3" /><sodipodi:namedview
   id="namedview3"
   pagecolor="#ffffff"
   bordercolor="#000000"
   borderopacity="0.25"
   inkscape:showpageshadow="2"
   inkscape:pageopacity="0.0"
   inkscape:pagecheckerboard="0"
   inkscape:deskcolor="#d1d1d1"
   inkscape:zoom="1.171875"
   inkscape:cx="201.38667"
   inkscape:cy="573.01333"
   inkscape:window-width="3840"
   inkscape:window-height="2075"
   inkscape:window-x="0"
   inkscape:window-y="0"
   inkscape:window-maximized="1"
   inkscape:current-layer="Capa_1" />
<g
   id="g3"
   transform="matrix(0.67382663,0,0,0.70677291,-32.0339,0.69277562)">
	<g
   id="g2">
		<path
   d="m 314.25,85.4 h -227 c -21.3,0 -38.6,17.3 -38.6,38.6 v 325.7 c 0,21.3 17.3,38.6 38.6,38.6 h 227 c 21.3,0 38.6,-17.3 38.6,-38.6 V 124 c -0.1,-21.3 -17.4,-38.6 -38.6,-38.6 z m 11.5,364.2 c 0,6.4 -5.2,11.6 -11.6,11.6 h -227 c -6.4,0 -11.6,-5.2 -11.6,-11.6 V 124 c 0,-6.4 5.2,-11.6 11.6,-11.6 h 227 c 6.4,0 11.6,5.2 11.6,11.6 z"
   id="path1" />
		<path
   d="m 401.05,0 h -227 c -21.3,0 -38.6,17.3 -38.6,38.6 0,7.5 6,13.5 13.5,13.5 7.5,0 13.5,-6 13.5,-13.5 0,-6.4 5.2,-11.6 11.6,-11.6 h 227 c 6.4,0 11.6,5.2 11.6,11.6 v 325.7 c 0,6.4 -5.2,11.6 -11.6,11.6 -7.5,0 -13.5,6 -13.5,13.5 0,7.5 6,13.5 13.5,13.5 21.3,0 38.6,-17.3 38.6,-38.6 V 38.6 C 439.65,17.3 422.35,0 401.05,0 Z"
   id="path2" />
	</g>
</g>
<path
   d="M 447.91387,290.70976 H 434.92841 V 225.01678 H 279.1015 v 65.69298 h -12.98568 c -21.47814,0 -38.95663,17.68443 -38.95663,39.41563 v 91.97014 c 0,14.49176 11.64815,26.27715 25.97115,26.27715 h 25.97116 v 39.41562 h 155.82691 v -39.41562 h 25.97115 c 14.323,0 25.97115,-11.78539 25.97115,-26.27715 v -91.97014 c 0,-21.7312 -17.47848,-39.41563 -38.95684,-39.41563 z M 305.07265,251.29392 h 103.88462 v 39.41584 H 305.07265 Z M 408.95727,461.51114 H 305.07265 v -52.5543 h 103.88462 z m 51.94229,-39.41561 H 434.92841 V 382.67969 H 279.1015 v 39.41584 h -25.97116 v -91.97014 c 0,-7.23943 5.83056,-13.13847 12.98548,-13.13847 h 181.79805 c 7.1681,0 12.98569,5.89904 12.98569,13.13847 z"
   id="path1-6"
   style="stroke-width:13.0618" /></svg>
