<?xml version="1.0" encoding="UTF-8"?>
<!-- Created with Inkscape (http://www.inkscape.org/) -->
<svg width="32" height="32" version="1.1" viewBox="0 0 8.4667 8.4667" xmlns="http://www.w3.org/2000/svg" xmlns:cc="http://creativecommons.org/ns#" xmlns:dc="http://purl.org/dc/elements/1.1/" xmlns:rdf="http://www.w3.org/1999/02/22-rdf-syntax-ns#">
 <metadata>
  <rdf:RDF>
   <cc:Work rdf:about="">
    <dc:format>image/svg+xml</dc:format>
    <dc:type rdf:resource="http://purl.org/dc/dcmitype/StillImage"/>
    <dc:title/>
   </cc:Work>
  </rdf:RDF>
 </metadata>
 <g transform="translate(-85.99 -126.19)">
  <g transform="matrix(1.104 0 0 1.104 89.967 113.56)">
   <g transform="matrix(1.6 0 0 1.6 -3.8083 -11.506)">
    <g transform="matrix(.14978 0 0 .14978 -14.227 -13.836)">
     <g transform="matrix(.88479 0 0 .88479 -19.746 -52.713)" fill="#fff">
      <path d="m134.08 305.2 20.688-1.6688 8.0895-16.158-13.11-10.411-15.21-0.56409z" fill="none" stroke="#333" stroke-linejoin="round" stroke-width="1.4428"/>
      <g shape-rendering="auto">
       <g fill="#777767">
        <path d="m138.03 303.7a3.6608 3.6505 76.183 0 1-2.6706 4.4267 3.6608 3.6505 76.183 0 1-4.4192-2.683 3.6608 3.6505 76.183 0 1 2.6706-4.4267 3.6608 3.6505 76.183 0 1 4.4192 2.683z" color="#000000" color-rendering="auto" image-rendering="auto" solid-color="#000000" style="isolation:auto;mix-blend-mode:normal"/>
        <path d="m138.05 275.23a3.6608 3.6505 76.183 0 1-2.6706 4.4267 3.6608 3.6505 76.183 0 1-4.4192-2.683 3.6608 3.6505 76.183 0 1 2.6706-4.4267 3.6608 3.6505 76.183 0 1 4.4192 2.683z" color="#000000" color-rendering="auto" image-rendering="auto" solid-color="#000000" style="isolation:auto;mix-blend-mode:normal"/>
        <path d="m165.95 286.52a3.6608 3.6505 76.183 0 1-2.6706 4.4267 3.6608 3.6505 76.183 0 1-4.4192-2.683 3.6608 3.6505 76.183 0 1 2.6706-4.4267 3.6608 3.6505 76.183 0 1 4.4192 2.683z" color="#000000" color-rendering="auto" image-rendering="auto" solid-color="#000000" style="isolation:auto;mix-blend-mode:normal"/>
       </g>
       <path d="m152.69 276.52a3.1539 3.1451 76.183 0 1-2.3008 3.8138 3.1539 3.1451 76.183 0 1-3.8073-2.3115 3.1539 3.1451 76.183 0 1 2.3008-3.8138 3.1539 3.1451 76.183 0 1 3.8073 2.3115z" color="#000000" color-rendering="auto" fill="none" image-rendering="auto" solid-color="#000000" stroke="#777767" stroke-width=".93831px" style="isolation:auto;mix-blend-mode:normal"/>
       <path d="m157.15 302.45a3.1539 3.1451 76.183 0 1-2.3008 3.8138 3.1539 3.1451 76.183 0 1-3.8073-2.3115 3.1539 3.1451 76.183 0 1 2.3008-3.8138 3.1539 3.1451 76.183 0 1 3.8073 2.3115z" color="#000000" color-rendering="auto" fill="none" image-rendering="auto" solid-color="#000000" stroke="#777767" stroke-width=".93831px" style="isolation:auto;mix-blend-mode:normal"/>
      </g>
     </g>
    </g>
   </g>
  </g>
 </g>
</svg>
