<?xml version="1.0" encoding="UTF-8" standalone="no"?>
<!-- Created with Inkscape (http://www.inkscape.org/) -->

<svg
   width="30"
   height="30"
   version="1.1"
   viewBox="0 0 7.9375 7.9375"
   id="svg7"
   sodipodi:docname="btn_clipboard.svg"
   inkscape:version="1.4 (1:1.4+202410161351+e7c3feb100)"
   xmlns:inkscape="http://www.inkscape.org/namespaces/inkscape"
   xmlns:sodipodi="http://sodipodi.sourceforge.net/DTD/sodipodi-0.dtd"
   xmlns="http://www.w3.org/2000/svg"
   xmlns:svg="http://www.w3.org/2000/svg">
  <defs
     id="defs7" />
  <sodipodi:namedview
     id="namedview7"
     pagecolor="#ffffff"
     bordercolor="#000000"
     borderopacity="0.25"
     inkscape:showpageshadow="2"
     inkscape:pageopacity="0.0"
     inkscape:pagecheckerboard="0"
     inkscape:deskcolor="#d1d1d1"
     inkscape:zoom="62.333333"
     inkscape:cx="14.991979"
     inkscape:cy="15"
     inkscape:window-width="3840"
     inkscape:window-height="2075"
     inkscape:window-x="0"
     inkscape:window-y="0"
     inkscape:window-maximized="1"
     inkscape:current-layer="svg7" />
  <path
     d="m1.0639 7.8583c-0.26326-0.06874-0.46975-0.27207-0.5392-0.53095-0.035083-0.13076-0.035083-5.5339 0-5.6646 0.070351-0.26222 0.27727-0.46377 0.54589-0.5317 0.071185-0.018001 0.18439-0.023155 0.5088-0.023155h0.41724v-0.16316c0-0.26228 0.058789-0.42232 0.21268-0.57896 0.095055-0.096755 0.2208-0.16819 0.35644-0.20249 0.13346-0.03375 3.2095-0.035116 3.2747-0.001469 0.050806 0.026213 1.5968 1.5294 1.6213 1.5764 0.012318 0.023655 0.017197 0.67165 0.017197 2.2839 0 2.4771 0.00553 2.3317-0.095773 2.5163-0.058158 0.10594-0.19605 0.23726-0.30585 0.29128-0.15449 0.076006-0.2246 0.084798-0.6763 0.084798h-0.41724v0.16316c0 0.26228-0.058789 0.42232-0.21268 0.57896-0.095055 0.096755-0.2208 0.16819-0.35644 0.20249-0.13403 0.033892-4.2207 0.033195-4.3507-7.618e-4zm4.3064-0.49872c0.023647-0.017147 0.05746-0.049966 0.075123-0.072933 0.032028-0.041646 0.032125-0.047398 0.03617-2.1425l0.00407-2.1007h-0.4174c-0.45187 0-0.52196-0.00879-0.67646-0.084798-0.10984-0.05402-0.24773-0.18534-0.30589-0.29128-0.086413-0.15741-0.095777-0.22298-0.095777-0.6707v-0.40533l-1.4162 0.00403c-1.4028 0.00397-1.4166 0.0043-1.4592 0.035192-0.023657 0.017147-0.05746 0.049966-0.075113 0.072933l-0.032115 0.041755-0.00446 2.7094c-0.00242 1.4902-4.132e-4 2.7313 0.00456 2.7581 0.011154 0.060591 0.076597 0.13785 0.13934 0.1645 0.038934 0.016538 0.41975 0.019585 2.1139 0.016896 2.0601-0.00327 2.0665-0.00337 2.1094-0.034452zm1.4952-0.96776c0.023638-0.017147 0.057421-0.049966 0.075084-0.072932 0.032028-0.041646 0.032125-0.047398 0.036169-2.1425l0.00407-2.1007h-0.4174c-0.45187 0-0.52196-0.00879-0.67646-0.084798-0.1098-0.05402-0.24769-0.18534-0.30585-0.29128-0.086413-0.15741-0.095773-0.22298-0.095773-0.6707v-0.40533l-1.4162 0.004027c-1.4028 0.003972-1.4166 0.004299-1.4592 0.035192-0.093271 0.06762-0.1068 0.10128-0.1125 0.27986l-0.00524 0.16528h0.90548c0.75676 0 0.91239 0.00354 0.94754 0.021702 0.050806 0.026213 1.5968 1.5294 1.6213 1.5764 0.01227 0.023563 0.017197 0.56231 0.017197 1.8795v1.8465l0.41941-0.00446c0.39542-0.00425 0.42187-0.00626 0.46238-0.035649zm-2.05-4.1425-0.31914-0.31017-0.0046558 0.19298c-0.00563 0.23298 0.00145 0.27629 0.055103 0.33819 0.066607 0.076857 0.11184 0.087921 0.36212 0.088577l0.22569 5.987e-4zm1.4952-0.96776-0.31914-0.31017-0.0046557 0.19298c-0.00563 0.23298 0.00145 0.27629 0.055103 0.33819 0.066607 0.076857 0.11184 0.08792 0.36212 0.088576l0.22569 5.985e-4z"
     stroke-width=".015346"
     id="path1"
     style="stroke:none" />
  <g
     transform="matrix(.35158 0 0 .37056 -38.427 -41.065)"
     fill="#006782"
     stroke-width=".062371"
     id="g7"
     style="fill:#000000">
    <path
       d="m120.47 125.17c0.27817-0.4895 0.38029-1.1762 0.21954-1.476-0.0993-0.18512-0.4808-0.30102-0.69658-0.21166-0.22474 0.093-0.33672 0.27286-0.36345 0.5833-0.0109 0.1312-0.0537 0.31267-0.0945 0.4032-0.0955 0.21249-0.41234 0.52847-0.6294 0.62833-0.22404 0.10262-4.025 0.11099-4.3462 0.01-0.7672-0.24196-1.0261-1.2208-0.49031-1.8535 0.27092-0.31991 0.56581-0.42038 1.2143-0.41364l0.4761 5e-3 0.14077-0.26209c0.0773-0.14413 0.28117-0.4025 0.4528-0.57411l0.31205-0.31205-1.0594-2e-3c-1.1464-2e-3 -1.5018 0.074-2.0281 0.43654-0.77422 0.53326-1.1404 1.6068-0.85909 2.5184 0.2252 0.72991 0.62145 1.1781 1.3357 1.5106 0.29451 0.13714 0.57134 0.15519 2.5117 0.16367 1.1994 5e-3 2.3145-0.0249 2.478-0.0668 0.59484-0.15259 1.1252-0.55658 1.4264-1.0864z"
       id="path6"
       style="fill:#000000" />
    <path
       d="m123.93 125.26c0.4929-0.82737 0.46985-1.7618-0.0634-2.5728-0.22983-0.3494-0.53429-0.59521-1.014-0.81863-0.29451-0.13713-0.57133-0.15517-2.5116-0.16367-1.1994-5e-3 -2.3145 0.0249-2.478 0.0667-0.3551 0.0911-0.81823 0.34995-1.0617 0.59341-0.51592 0.51593-0.8178 1.5334-0.58419 1.9691 0.0993 0.18511 0.48077 0.301 0.69657 0.21163 0.22474-0.093 0.33669-0.27286 0.36344-0.58329 0.0109-0.13121 0.0537-0.31268 0.0945-0.40321 0.0955-0.21248 0.41235-0.52847 0.62941-0.62829 0.23004-0.10529 4.0294-0.10978 4.3605-6e-3 0.56686 0.17907 0.90648 0.87581 0.70679 1.4502-0.20331 0.5848-0.62314 0.82086-1.4451 0.8123l-0.47611-5e-3 -0.14078 0.2621c-0.0774 0.14413-0.28109 0.40319-0.45273 0.57557l-0.31217 0.31329 1.1389-8e-3c0.95035-7e-3 1.1952-0.0336 1.4787-0.16313 0.44451-0.20324 0.86399-0.55752 1.0704-0.90418z"
       id="path7"
       style="fill:#000000" />
  </g>
</svg>
