<?xml version="1.0" encoding="UTF-8" standalone="no"?>
<!-- Created with Inkscape (http://www.inkscape.org/) -->

<svg
   xmlns:dc="http://purl.org/dc/elements/1.1/"
   xmlns:cc="http://creativecommons.org/ns#"
   xmlns:rdf="http://www.w3.org/1999/02/22-rdf-syntax-ns#"
   xmlns:svg="http://www.w3.org/2000/svg"
   xmlns="http://www.w3.org/2000/svg"
   xmlns:sodipodi="http://sodipodi.sourceforge.net/DTD/sodipodi-0.dtd"
   xmlns:inkscape="http://www.inkscape.org/namespaces/inkscape"
   width="32"
   height="32"
   viewBox="0 0 8.4666665 8.4666669"
   version="1.1"
   id="svg8"
   inkscape:version="0.92.4 (5da689c313, 2019-01-14)"
   sodipodi:docname="btn_cesium.svg">
  <defs
     id="defs2" />
  <sodipodi:namedview
     id="base"
     pagecolor="#ffffff"
     bordercolor="#666666"
     borderopacity="1.0"
     inkscape:pageopacity="0.0"
     inkscape:pageshadow="2"
     inkscape:zoom="7.919596"
     inkscape:cx="-35.026884"
     inkscape:cy="39.182435"
     inkscape:document-units="mm"
     inkscape:current-layer="layer1"
     showgrid="false"
     inkscape:window-width="2560"
     inkscape:window-height="1361"
     inkscape:window-x="-9"
     inkscape:window-y="-9"
     inkscape:window-maximized="1"
     units="px" />
  <metadata
     id="metadata5">
    <rdf:RDF>
      <cc:Work
         rdf:about="">
        <dc:format>image/svg+xml</dc:format>
        <dc:type
           rdf:resource="http://purl.org/dc/dcmitype/StillImage" />
        <dc:title></dc:title>
      </cc:Work>
    </rdf:RDF>
  </metadata>
  <g
     inkscape:label="Calque 1"
     inkscape:groupmode="layer"
     id="layer1"
     transform="translate(0,-288.53332)">
    <path
       style="fill:#a8a8a8;stroke-width:0.02357825"
       d="m 0.3023187,293.85687 c -0.0389042,-0.0206 -0.0726822,-0.0389 -0.0750669,-0.0407 -0.00234,-0.002 -0.0263113,-0.11099 -0.0531687,-0.24284 -0.17808357,-0.87387 -0.0591309,-1.8127 0.33140145,-2.61556 0.64694375,-1.32998 1.95445725,-2.21411 3.42587765,-2.31656 1.6711771,-0.11636 3.2275305,0.76231 3.9871719,2.25105 0.097578,0.19124 0.247124,0.55497 0.247124,0.60109 0,0.0118 -0.056434,0.0215 -0.1254008,0.0215 -0.1348075,0 -0.3302314,0.0498 -0.4652874,0.1186 -0.1738779,0.0885 -0.3441695,0.28482 -1.0074627,1.16119 -0.6793477,0.89759 -0.8213363,1.06302 -0.9373194,1.09213 -0.1146875,0.0287 -0.269306,-0.005 -0.3605208,-0.0788 -0.047664,-0.0385 -0.3858508,-0.46683 -0.7515317,-0.95172 -0.3656798,-0.48489 -0.7223873,-0.94135 -0.7926836,-1.01437 -0.2602662,-0.27036 -0.645846,-0.3865 -0.9721723,-0.29284 -0.2831952,0.0813 -0.4605479,0.22332 -0.7375079,0.59066 -1.11355501,1.47688 -1.25214035,1.6527 -1.34283152,1.70368 -0.11134129,0.0626 -0.26739286,0.0681 -0.37062672,0.0135 z m 5.4890067,-2.63947 c 0.1755438,-0.0886 0.2590326,-0.2172 0.2590326,-0.39868 0,-0.13147 -0.027962,-0.20094 -0.1216149,-0.30212 -0.090145,-0.0974 -0.1737296,-0.13348 -0.3092992,-0.13348 -0.277387,0 -0.4726459,0.21494 -0.4420274,0.48659 0.032184,0.28556 0.3644416,0.47373 0.6139089,0.34769 z"
       id="path924"
       inkscape:connector-curvature="0" />
    <path
       style="fill:#707070;stroke-width:0.02357825"
       d="m 4.0276809,296.89857 c -0.9873741,-0.0607 -1.8647744,-0.42502 -2.5700277,-1.06747 -0.3402233,-0.30992 -0.70422034,-0.77664 -0.88499741,-1.13476 -0.0768389,-0.15224 -0.0821547,-0.14329 0.10369635,-0.17475 0.14455967,-0.0245 0.33908306,-0.12814 0.47706776,-0.25423 0.070019,-0.064 0.4211065,-0.50524 0.7801901,-0.98054 0.3590846,-0.47529 0.6800641,-0.89901 0.7132881,-0.94158 0.033221,-0.0426 0.1160162,-0.10475 0.1839821,-0.13824 0.1442355,-0.071 0.2473299,-0.0636 0.387226,0.0276 0.056111,0.0365 0.3392391,0.39084 0.8076157,1.01048 0.3966725,0.52479 0.7662886,0.99273 0.8213695,1.03987 0.4087432,0.3499 0.9576383,0.34289 1.3517046,-0.0172 0.072771,-0.0666 0.4491249,-0.54045 0.8411273,-1.05924 0.6523152,-0.86328 0.7189638,-0.94362 0.8279024,-0.99791 0.1322229,-0.0659 0.1562487,-0.069 0.2742642,-0.0351 0.1694012,0.0486 0.1946303,0.0879 0.2136523,0.33279 0.021964,0.28267 -0.012035,0.78636 -0.073395,1.08744 -0.328243,1.61072 -1.612366,2.89484 -3.2230804,3.22309 -0.1916506,0.0389 -0.8575139,0.10632 -0.9019032,0.091 -0.00646,-0.002 -0.064837,-0.008 -0.129681,-0.0113 z"
       id="path920"
       inkscape:connector-curvature="0" />
  </g>
</svg>
