<svg xmlns="http://www.w3.org/2000/svg" width="32" height="32" viewBox="0 0 8.4666664 8.4666667"><g transform="translate(-30.583 -63.723) scale(.2341)" fill="#fff"><path d="M134.58 304.504l28.454-28.487" fill="none" stroke="#999" stroke-width="1.443" stroke-linejoin="round"/><path d="M137.931 303.597a3.66 3.65 76.183 0 1-2.67 4.426 3.66 3.65 76.183 0 1-4.42-2.683 3.66 3.65 76.183 0 1 2.671-4.426 3.66 3.65 76.183 0 1 4.42 2.683zM166.543 275.338a3.66 3.65 76.183 0 1-2.67 4.427 3.66 3.65 76.183 0 1-4.42-2.683 3.66 3.65 76.183 0 1 2.671-4.427 3.66 3.65 76.183 0 1 4.42 2.683z" style="isolation:auto;mix-blend-mode:normal" color="#000" overflow="visible" fill="#b3b3b3"/><circle style="isolation:auto;mix-blend-mode:normal;marker:none" cx="148.725" cy="290.285" r="7.361" color="#000" overflow="visible" fill="#b3b3b3" fill-rule="evenodd" paint-order="markers stroke fill"/><path d="M152.605 294.64l-3.047-4.226 3.332-4.363-1.664-.025-2.55 3.34-2.452-3.412-1.665-.024 3.272 4.544-3.113 4.052 1.665.024 2.323-3.028 2.234 3.094z" style="line-height:30.78354645px" font-size="26.269" stroke-width="1.231" font-weight="400" font-family="sans-serif" letter-spacing="0" word-spacing="0"/></g></svg>