<?xml version="1.0" encoding="UTF-8" standalone="no"?>
<!-- Created with Inkscape (http://www.inkscape.org/) -->

<svg
   width="32"
   height="32"
   version="1.1"
   viewBox="0 0 8.4667 8.4667"
   id="svg5"
   sodipodi:docname="btn_logout.svg"
   inkscape:version="1.4 (e7c3feb100, 2024-10-09)"
   xmlns:inkscape="http://www.inkscape.org/namespaces/inkscape"
   xmlns:sodipodi="http://sodipodi.sourceforge.net/DTD/sodipodi-0.dtd"
   xmlns="http://www.w3.org/2000/svg"
   xmlns:svg="http://www.w3.org/2000/svg"
   xmlns:rdf="http://www.w3.org/1999/02/22-rdf-syntax-ns#"
   xmlns:cc="http://creativecommons.org/ns#"
   xmlns:dc="http://purl.org/dc/elements/1.1/">
  <sodipodi:namedview
     id="namedview5"
     pagecolor="#ffffff"
     bordercolor="#000000"
     borderopacity="0.25"
     inkscape:showpageshadow="2"
     inkscape:pageopacity="0.0"
     inkscape:pagecheckerboard="0"
     inkscape:deskcolor="#d1d1d1"
     inkscape:zoom="37.1875"
     inkscape:cx="15.986555"
     inkscape:cy="16"
     inkscape:window-width="2560"
     inkscape:window-height="1403"
     inkscape:window-x="2560"
     inkscape:window-y="0"
     inkscape:window-maximized="1"
     inkscape:current-layer="g5" />
  <defs
     id="defs2">
    <linearGradient
       id="linearGradient882"
       x1="90.129"
       x2="90.129"
       y1="127.6"
       y2="132.11"
       gradientUnits="userSpaceOnUse">
      <stop
         stop-color="#abddff"
         offset="0"
         id="stop1" />
      <stop
         stop-color="#abddff"
         stop-opacity="0"
         offset="1"
         id="stop2" />
    </linearGradient>
  </defs>
  <metadata
     id="metadata2">
    <rdf:RDF>
      <cc:Work
         rdf:about="">
        <dc:format>image/svg+xml</dc:format>
        <dc:type
           rdf:resource="http://purl.org/dc/dcmitype/StillImage" />
      </cc:Work>
    </rdf:RDF>
  </metadata>
  <g
     transform="translate(-85.99 -126.19)"
     id="g5">
    <rect
       x="85.99"
       y="126.19"
       width="8.4667"
       height="8.4667"
       color="#000000"
       color-rendering="auto"
       fill="#fff"
       fill-rule="evenodd"
       image-rendering="auto"
       shape-rendering="auto"
       solid-color="#000000"
       style="isolation:auto;mix-blend-mode:normal;paint-order:markers stroke fill"
       id="rect2" />
    <path
       id="path3"
       style="fill:#000000"
       d="M 86.476277 126.49334 L 86.397212 126.53313 C 86.339252 126.56232 86.307406 126.59387 86.278356 126.65147 L 86.238565 126.73054 L 86.238565 132.78291 L 86.278872 132.85939 C 86.308822 132.91606 86.344375 132.94914 86.415815 132.98754 C 86.468715 133.01599 87.021743 133.32816 87.645203 133.68156 C 88.268663 134.03496 88.796276 134.33092 88.817746 134.33992 L 88.818262 134.34096 C 88.917112 134.38074 89.062309 134.33055 89.131939 134.23295 L 89.174314 134.17352 L 89.18465 133.01958 L 90.36081 133.01442 C 91.51116 133.00962 91.538692 133.00899 91.598982 132.97359 C 91.632892 132.95369 91.678418 132.91091 91.700268 132.87851 L 91.740059 132.8196 L 91.740059 130.90239 L 91.19332 130.90239 L 91.19332 132.45424 L 89.183099 132.45424 L 89.183099 130.25437 L 89.182583 128.05501 L 89.142792 127.98421 C 89.106462 127.92003 89.039471 127.87797 88.398131 127.51396 C 88.010501 127.29395 87.673587 127.10149 87.649337 127.08659 C 87.609537 127.06199 87.777308 127.05963 89.399108 127.0592 L 91.19332 127.05868 L 91.19332 129.05134 L 91.740059 129.05134 L 91.740059 126.69333 L 91.700268 126.63545 C 91.678438 126.60335 91.638248 126.56015 91.610868 126.53985 L 91.561258 126.50316 L 86.476277 126.49334 z M 86.568778 126.70315 L 89.052874 128.15991 L 89.052874 134.1234 L 88.870456 134.13167 L 86.486096 132.74621 L 86.366206 132.62994 L 86.366206 126.868 L 86.433902 126.75534 L 86.568778 126.70315 z M 92.481619 128.69528 C 92.453134 128.69295 92.432887 128.70324 92.407205 128.71699 C 92.334855 128.75572 92.321938 128.83239 92.321938 129.21722 L 92.321938 129.57947 L 91.576761 129.57999 C 91.133201 129.58029 90.799759 129.58779 90.752519 129.59859 C 90.565669 129.64114 90.447076 129.78653 90.446076 129.97428 C 90.445226 130.13375 90.514227 130.2502 90.655367 130.3262 C 90.724147 130.3633 90.745767 130.36409 91.523017 130.36909 L 92.319871 130.37426 L 92.325556 130.76855 C 92.330506 131.13376 92.333193 131.16582 92.365863 131.20212 C 92.385253 131.22372 92.41726 131.24838 92.43666 131.25638 C 92.45606 131.26438 92.493536 131.2681 92.520376 131.2631 C 92.576476 131.2539 94.163165 130.10713 94.190565 130.05593 C 94.214515 130.01113 94.212351 129.94988 94.184881 129.90038 C 94.172521 129.8781 93.802469 129.5983 93.362189 129.27871 C 92.730366 128.82008 92.567074 128.70229 92.481619 128.69528 z " />
    <path
       d="m92.437 131.26c-0.0194-8e-3 -0.05114-0.0327-0.07053-0.0543-0.03267-0.0363-0.03566-0.0682-0.04061-0.43341l-0.0053-0.39426-0.79696-5e-3c-0.77725-5e-3 -0.79871-6e-3 -0.86749-0.0431-0.14114-0.076-0.21052-0.19238-0.20967-0.35185 1e-3 -0.18775 0.1198-0.33338 0.30665-0.37593 0.04724-0.0108 0.38078-0.0182 0.82434-0.0185l0.745-4.2e-4v-0.36205c0-0.38483 0.01316-0.46182 0.08551-0.50055 0.10273-0.055 0.11207-0.0495 0.9545 0.56201 0.44028 0.31959 0.81063 0.59929 0.82299 0.62157 0.02747 0.0495 0.02975 0.11091 0.0058 0.15571-0.0274 0.0512-1.614 1.198-1.6701 1.2072-0.02684 5e-3 -0.06467 1e-3 -0.08407-7e-3z"
       fill="#c83737"
       stroke-width=".017633"
       id="path4"
       style="fill:#000000" />
  </g>
</svg>
