<?xml version="1.0" encoding="UTF-8" standalone="no"?>
<svg
   version="1.1"
   width="100"
   height="100"
   id="svg4460"
   inkscape:version="1.4 (1:1.4+202410161351+e7c3feb100)"
   sodipodi:docname="btn_home.svg"
   xml:space="preserve"
   xmlns:inkscape="http://www.inkscape.org/namespaces/inkscape"
   xmlns:sodipodi="http://sodipodi.sourceforge.net/DTD/sodipodi-0.dtd"
   xmlns="http://www.w3.org/2000/svg"
   xmlns:svg="http://www.w3.org/2000/svg"
   xmlns:rdf="http://www.w3.org/1999/02/22-rdf-syntax-ns#"
   xmlns:cc="http://creativecommons.org/ns#"
   xmlns:dc="http://purl.org/dc/elements/1.1/"><sodipodi:namedview
     pagecolor="#ffffff"
     bordercolor="#666666"
     borderopacity="1"
     objecttolerance="10"
     gridtolerance="10"
     guidetolerance="10"
     inkscape:pageopacity="0"
     inkscape:pageshadow="2"
     inkscape:window-width="2073"
     inkscape:window-height="1362"
     id="namedview11"
     showgrid="false"
     inkscape:zoom="3.4766084"
     inkscape:cx="-29.338938"
     inkscape:cy="110.30866"
     inkscape:window-x="1066"
     inkscape:window-y="943"
     inkscape:window-maximized="0"
     inkscape:current-layer="svg4460"
     inkscape:document-rotation="0"
     inkscape:showpageshadow="2"
     inkscape:pagecheckerboard="0"
     inkscape:deskcolor="#d1d1d1" /><defs
     id="defs4462" /><metadata
     id="metadata4465"><rdf:RDF><cc:Work
         rdf:about=""><dc:format>image/svg+xml</dc:format><dc:type
           rdf:resource="http://purl.org/dc/dcmitype/StillImage" /></cc:Work></rdf:RDF></metadata><path
     id="path5"
     style="fill:#000000;stroke-width:0.340952"
     d="m 14.745665,67.510164 -0.08768,-22.29727 -4.261891,3.003421 -4.26189,3.00342 -2.6423728,-4.046793 C 2.0385216,44.947206 0.84944995,42.978554 0.84944995,42.798159 c 0,-0.180395 11.12484005,-8.094897 24.72186705,-17.587786 L 50.293172,7.9505762 75.094488,25.014566 c 13.640728,9.385191 24.942312,17.274692 25.114632,17.532224 0.22265,0.33272 -0.418753,1.614422 -2.216175,4.428467 -1.391229,2.178126 -2.682938,3.952544 -2.870459,3.943153 -0.18752,-0.0094 -2.028659,-1.221771 -4.091413,-2.694174 l -3.75047,-2.677099 -0.08769,22.130148 -0.08771,22.130148 H 50.969273 14.833351 Z m 50.20263,12.068731 h 5.966644 5.966651 V 59.156476 38.734059 L 63.85928,29.785753 c -7.162272,-4.92157 -13.228971,-8.964656 -13.481562,-8.984637 -0.252583,-0.01997 -6.123098,3.87609 -13.045573,8.657932 l -12.586332,8.69426 -0.01492,20.712792 -0.01492,20.712795 h 5.966651 5.966651 z"
     sodipodi:nodetypes="ccccssscssssscccccccccccssscccccc" /></svg>
