<?xml version="1.0" encoding="UTF-8" standalone="no"?>
<svg
   version="1.1"
   width="256"
   height="256"
   viewBox="0 0 256 256"
   xml:space="preserve"
   id="svg6"
   sodipodi:docname="btn_icon_delete.svg"
   inkscape:version="1.4 (1:1.4+202410161351+e7c3feb100)"
   xmlns:inkscape="http://www.inkscape.org/namespaces/inkscape"
   xmlns:sodipodi="http://sodipodi.sourceforge.net/DTD/sodipodi-0.dtd"
   xmlns="http://www.w3.org/2000/svg"
   xmlns:svg="http://www.w3.org/2000/svg"><sodipodi:namedview
   id="namedview6"
   pagecolor="#ffffff"
   bordercolor="#000000"
   borderopacity="0.25"
   inkscape:showpageshadow="2"
   inkscape:pageopacity="0.0"
   inkscape:pagecheckerboard="0"
   inkscape:deskcolor="#d1d1d1"
   inkscape:zoom="7.3242188"
   inkscape:cx="128.06827"
   inkscape:cy="128.06827"
   inkscape:window-width="3840"
   inkscape:window-height="2075"
   inkscape:window-x="0"
   inkscape:window-y="0"
   inkscape:window-maximized="1"
   inkscape:current-layer="svg6" />

<defs
   id="defs1">
</defs>
<g
   style="opacity:1;fill:#000000;fill-opacity:1;fill-rule:nonzero;stroke:none;stroke-width:0;stroke-linecap:butt;stroke-linejoin:miter;stroke-miterlimit:10;stroke-dasharray:none"
   transform="matrix(2.81,0,0,2.81,1.4065934,1.4065934)"
   id="g6">
	<path
   d="M 67.692,90 H 22.308 C 19.266,90 16.79,87.524 16.79,84.482 v -61 c 0,-1.104 0.896,-2 2,-2 h 52.42 c 1.104,0 2,0.896 2,2 v 61 C 73.21,87.524 70.734,90 67.692,90 Z M 20.79,25.482 v 59 c 0,0.837 0.681,1.518 1.518,1.518 h 45.385 c 0.837,0 1.518,-0.681 1.518,-1.518 v -59 z"
   style="opacity:1;fill:#000000;fill-opacity:1;fill-rule:nonzero;stroke:none;stroke-width:1;stroke-linecap:butt;stroke-linejoin:miter;stroke-miterlimit:10;stroke-dasharray:none"
   stroke-linecap="round"
   id="path1" />
	<path
   d="M 73.196,25.482 H 16.804 c -3.042,0 -5.518,-2.475 -5.518,-5.518 v -4.335 c 0,-3.042 2.475,-5.518 5.518,-5.518 h 56.393 c 3.042,0 5.518,2.475 5.518,5.518 v 4.335 c -0.001,3.043 -2.477,5.518 -5.519,5.518 z M 16.804,14.112 c -0.837,0 -1.518,0.681 -1.518,1.518 v 4.335 c 0,0.837 0.681,1.518 1.518,1.518 h 56.393 c 0.837,0 1.518,-0.681 1.518,-1.518 V 15.63 c 0,-0.837 -0.681,-1.518 -1.518,-1.518 H 16.804 Z"
   style="opacity:1;fill:#000000;fill-opacity:1;fill-rule:nonzero;stroke:none;stroke-width:1;stroke-linecap:butt;stroke-linejoin:miter;stroke-miterlimit:10;stroke-dasharray:none"
   stroke-linecap="round"
   id="path2" />
	<path
   d="M 57.197,14.112 H 32.803 c -1.104,0 -2,-0.896 -2,-2 V 5.518 C 30.803,2.476 33.278,0 36.321,0 h 17.358 c 3.043,0 5.519,2.476 5.519,5.518 v 6.594 c -10e-4,1.104 -0.896,2 -2.001,2 z m -22.394,-4 H 55.198 V 5.518 C 55.197,4.681 54.516,4 53.679,4 H 36.321 c -0.837,0 -1.518,0.681 -1.518,1.518 z"
   style="opacity:1;fill:#000000;fill-opacity:1;fill-rule:nonzero;stroke:none;stroke-width:1;stroke-linecap:butt;stroke-linejoin:miter;stroke-miterlimit:10;stroke-dasharray:none"
   stroke-linecap="round"
   id="path3" />
	<path
   d="m 45,78.624 c -1.104,0 -2,-0.896 -2,-2 V 34.856 c 0,-1.104 0.896,-2 2,-2 1.104,0 2,0.896 2,2 v 41.768 c 0,1.105 -0.896,2 -2,2 z"
   style="opacity:1;fill:#000000;fill-opacity:1;fill-rule:nonzero;stroke:none;stroke-width:1;stroke-linecap:butt;stroke-linejoin:miter;stroke-miterlimit:10;stroke-dasharray:none"
   stroke-linecap="round"
   id="path4" />
	<path
   d="m 58.222,78.624 c -1.104,0 -2,-0.896 -2,-2 V 34.856 c 0,-1.104 0.896,-2 2,-2 1.104,0 2,0.896 2,2 v 41.768 c 0,1.105 -0.896,2 -2,2 z"
   style="opacity:1;fill:#000000;fill-opacity:1;fill-rule:nonzero;stroke:none;stroke-width:1;stroke-linecap:butt;stroke-linejoin:miter;stroke-miterlimit:10;stroke-dasharray:none"
   stroke-linecap="round"
   id="path5" />
	<path
   d="m 31.779,78.624 c -1.104,0 -2,-0.896 -2,-2 V 34.856 c 0,-1.104 0.896,-2 2,-2 1.104,0 2,0.896 2,2 v 41.768 c 0,1.105 -0.896,2 -2,2 z"
   style="opacity:1;fill:#000000;fill-opacity:1;fill-rule:nonzero;stroke:none;stroke-width:1;stroke-linecap:butt;stroke-linejoin:miter;stroke-miterlimit:10;stroke-dasharray:none"
   stroke-linecap="round"
   id="path6" />
</g>
</svg>
