<?xml version="1.0" encoding="UTF-8" standalone="no"?>
<svg
   sodipodi:docname="btn_rl_line.svg"
   inkscape:version="1.4 (1:1.4+202410161351+e7c3feb100)"
   id="svg4460"
   height="100"
   width="100"
   version="1.1"
   xmlns:inkscape="http://www.inkscape.org/namespaces/inkscape"
   xmlns:sodipodi="http://sodipodi.sourceforge.net/DTD/sodipodi-0.dtd"
   xmlns="http://www.w3.org/2000/svg"
   xmlns:svg="http://www.w3.org/2000/svg"
   xmlns:rdf="http://www.w3.org/1999/02/22-rdf-syntax-ns#"
   xmlns:cc="http://creativecommons.org/ns#"
   xmlns:dc="http://purl.org/dc/elements/1.1/">
  <sodipodi:namedview
     inkscape:document-rotation="0"
     inkscape:current-layer="svg4460"
     inkscape:window-maximized="1"
     inkscape:window-y="0"
     inkscape:window-x="0"
     inkscape:cy="19.271656"
     inkscape:cx="36.745583"
     inkscape:zoom="6.9532167"
     showgrid="false"
     id="namedview11"
     inkscape:window-height="2075"
     inkscape:window-width="3840"
     inkscape:pageshadow="2"
     inkscape:pageopacity="0"
     guidetolerance="10"
     gridtolerance="10"
     objecttolerance="10"
     borderopacity="1"
     bordercolor="#666666"
     pagecolor="#ffffff"
     inkscape:showpageshadow="2"
     inkscape:pagecheckerboard="0"
     inkscape:deskcolor="#d1d1d1" />
  <defs
     id="defs4462" />
  <metadata
     id="metadata4465">
    <rdf:RDF>
      <cc:Work
         rdf:about="">
        <dc:format>image/svg+xml</dc:format>
        <dc:type
           rdf:resource="http://purl.org/dc/dcmitype/StillImage" />
      </cc:Work>
    </rdf:RDF>
  </metadata>
  <path
     style="color:#000000;font-style:normal;font-variant:normal;font-weight:normal;font-stretch:normal;font-size:medium;line-height:normal;font-family:sans-serif;font-variant-ligatures:normal;font-variant-position:normal;font-variant-caps:normal;font-variant-numeric:normal;font-variant-alternates:normal;font-feature-settings:normal;text-indent:0;text-align:start;text-decoration:none;text-decoration-line:none;text-decoration-style:solid;text-decoration-color:#000000;letter-spacing:normal;word-spacing:normal;text-transform:none;writing-mode:lr-tb;direction:ltr;text-orientation:mixed;dominant-baseline:auto;baseline-shift:baseline;text-anchor:start;white-space:normal;shape-padding:0;clip-rule:nonzero;display:inline;overflow:visible;visibility:visible;opacity:1;isolation:auto;mix-blend-mode:normal;color-interpolation:sRGB;color-interpolation-filters:linearRGB;solid-color:#000000;solid-opacity:1;vector-effect:none;fill:#000000;fill-opacity:1;fill-rule:nonzero;stroke:none;stroke-width:7.0057;stroke-linecap:round;stroke-linejoin:round;stroke-miterlimit:4;stroke-dasharray:none;stroke-dashoffset:4;stroke-opacity:1;paint-order:normal;color-rendering:auto;image-rendering:auto;shape-rendering:auto;text-rendering:auto;enable-background:accumulate"
     d="m 88.332524,0.97673282 c -1.387303,-1.3487517 -3.636271,-1.3487517 -5.023575,0 L 41.764375,41.374886 c -0.346758,0.337256 -0.605671,0.727194 -0.779046,1.143003 l -5.675072,19.291736 c -0.259978,0.79717 0.139346,1.137639 1.024339,0.873947 l 19.741081,-5.491753 c 0.427608,-0.168593 0.828613,-0.42036 1.175437,-0.757549 L 98.79569,16.036116 c 1.38703,-1.349019 1.38703,-3.535928 0,-4.884949 z m -9.042435,13.67785818 5.43959,5.289485 -29.990354,29.16277 -5.439588,-5.289485 z"
     id="rect812"
     inkscape:connector-curvature="0" />
  <path
     id="path916"
     style="color:#000000;font-style:normal;font-variant:normal;font-weight:normal;font-stretch:normal;font-size:medium;line-height:normal;font-family:sans-serif;font-variant-ligatures:normal;font-variant-position:normal;font-variant-caps:normal;font-variant-numeric:normal;font-variant-alternates:normal;font-variant-east-asian:normal;font-feature-settings:normal;font-variation-settings:normal;text-indent:0;text-align:start;text-decoration:none;text-decoration-line:none;text-decoration-style:solid;text-decoration-color:#000000;letter-spacing:normal;word-spacing:normal;text-transform:none;writing-mode:lr-tb;direction:ltr;text-orientation:mixed;dominant-baseline:auto;baseline-shift:baseline;text-anchor:start;white-space:normal;shape-padding:0;shape-margin:0;inline-size:0;clip-rule:nonzero;display:inline;overflow:visible;visibility:visible;isolation:auto;mix-blend-mode:normal;color-interpolation:sRGB;color-interpolation-filters:linearRGB;solid-color:#000000;solid-opacity:1;vector-effect:none;fill:#000000;fill-opacity:1;fill-rule:nonzero;stroke:none;stroke-width:5.92283;stroke-linecap:round;stroke-linejoin:round;stroke-miterlimit:4;stroke-dasharray:none;stroke-dashoffset:0;stroke-opacity:1;color-rendering:auto;image-rendering:auto;shape-rendering:auto;text-rendering:auto;enable-background:accumulate;stop-color:#000000"
     d="m 36.626358,99.802893 c 5.448313,2.182417 11.773002,-0.409197 14.022048,-5.745686 1.268674,-3.010288 0.983606,-6.286455 -0.482702,-8.963639 L 65.005548,72.091641 c 0.466621,0.277261 0.952592,0.531876 1.473327,0.740467 5.448313,2.182417 11.773002,-0.409195 14.022048,-5.745689 2.249047,-5.336497 -0.380332,-11.51305 -5.828644,-13.695467 -5.259562,-2.106812 -11.298707,0.261344 -13.736651,5.226992 a 2.9285394,2.9946625 85.774123 0 0 -0.28321,0.517804 2.9285394,2.9946625 85.774123 0 0 -0.172014,0.562344 c -0.968471,2.726994 -0.708422,5.620269 0.506144,8.064172 L 45.974974,80.914658 C 45.603959,80.711698 45.222398,80.523026 44.81976,80.361742 41.171496,78.900364 37.150857,79.594296 34.214462,81.812518 L 21.669699,72.526122 c 1.169306,-4.82371 -1.315652,-9.927691 -6.041132,-11.987625 l 1.431022,-18.760303 c 3.219486,-0.784583 6.04528,-2.988656 7.396469,-6.194732 C 26.705107,30.246961 24.075728,24.070409 18.627416,21.887991 13.367853,19.78118 7.3287122,22.149338 4.8907615,27.114986 A 2.9285394,2.9946625 85.774123 0 0 4.6075516,27.63279 2.9285394,2.9946625 85.774123 0 0 4.435537,28.195135 c -1.8475723,5.20236 0.7387667,11.027146 5.998475,13.134015 0.211182,0.08459 0.42475,0.149945 0.638275,0.220316 L 9.682381,59.771012 C 6.2710667,60.29702 3.1781387,62.413219 1.5986581,65.630335 a 2.9285394,2.9946625 85.774123 0 0 -0.2832099,0.517803 2.9285394,2.9946625 85.774123 0 0 -0.1720143,0.562344 c -1.84757655,5.202359 0.7387645,11.027146 5.9984712,13.134016 4.0328169,1.615415 8.5412299,0.609429 11.5260929,-2.183527 l 11.989909,8.876709 a 2.9285394,2.9946625 85.774123 0 0 -0.03003,0.131197 c -1.847574,5.20236 0.738768,11.027149 5.998475,13.134016 z m 2.285049,-5.421919 c -2.456692,-0.984071 -3.590097,-3.650815 -2.575983,-6.057087 1.014114,-2.406272 3.742598,-3.524298 6.199289,-2.540227 2.456691,0.98407 3.59228,3.64992 2.578165,6.056192 -1.014114,2.406272 -3.744781,3.525193 -6.201471,2.541122 z M 9.4269535,74.422576 C 6.9702633,73.438505 5.8368564,70.771761 6.8509706,68.36549 7.8650847,65.959217 10.593569,64.841191 13.05026,65.825262 c 2.45669,0.984072 3.59228,3.64992 2.578166,6.056193 -1.014116,2.406272 -3.744781,3.525192 -6.2014725,2.541121 z m 59.3369715,-7.01239 c -2.456692,-0.984071 -3.590098,-3.650814 -2.575984,-6.057086 1.014114,-2.406271 3.742599,-3.524299 6.199289,-2.540227 2.456692,0.984071 3.59228,3.64992 2.578166,6.056192 -1.014114,2.406273 -3.744781,3.525192 -6.201471,2.541121 z M 12.719061,35.907226 c -2.456691,-0.984071 -3.5900967,-3.650815 -2.575983,-6.057087 1.014114,-2.406272 3.742597,-3.524299 6.19929,-2.540227 2.45669,0.984071 3.59228,3.649921 2.578166,6.056193 -1.014115,2.406271 -3.744782,3.525193 -6.201473,2.541121 z" />
</svg>
