<?xml version="1.0" encoding="UTF-8" standalone="no"?>
<!-- Created with Inkscape (http://www.inkscape.org/) -->

<svg
   width="32"
   height="32"
   version="1.1"
   viewBox="0 0 8.4667 8.4667"
   id="svg5"
   sodipodi:docname="btn_login.svg"
   inkscape:version="1.4 (e7c3feb100, 2024-10-09)"
   xmlns:inkscape="http://www.inkscape.org/namespaces/inkscape"
   xmlns:sodipodi="http://sodipodi.sourceforge.net/DTD/sodipodi-0.dtd"
   xmlns="http://www.w3.org/2000/svg"
   xmlns:svg="http://www.w3.org/2000/svg"
   xmlns:rdf="http://www.w3.org/1999/02/22-rdf-syntax-ns#"
   xmlns:cc="http://creativecommons.org/ns#"
   xmlns:dc="http://purl.org/dc/elements/1.1/">
  <sodipodi:namedview
     id="namedview5"
     pagecolor="#ffffff"
     bordercolor="#000000"
     borderopacity="0.25"
     inkscape:showpageshadow="2"
     inkscape:pageopacity="0.0"
     inkscape:pagecheckerboard="0"
     inkscape:deskcolor="#d1d1d1"
     inkscape:zoom="26.295533"
     inkscape:cx="12.872909"
     inkscape:cy="16.086382"
     inkscape:window-width="2560"
     inkscape:window-height="1371"
     inkscape:window-x="0"
     inkscape:window-y="32"
     inkscape:window-maximized="1"
     inkscape:current-layer="g5" />
  <defs
     id="defs2">
    <linearGradient
       id="linearGradient882"
       x1="90.129"
       x2="90.129"
       y1="127.6"
       y2="132.11"
       gradientUnits="userSpaceOnUse">
      <stop
         stop-color="#abddff"
         offset="0"
         id="stop1" />
      <stop
         stop-color="#abddff"
         stop-opacity="0"
         offset="1"
         id="stop2" />
    </linearGradient>
  </defs>
  <metadata
     id="metadata2">
    <rdf:RDF>
      <cc:Work
         rdf:about="">
        <dc:format>image/svg+xml</dc:format>
        <dc:type
           rdf:resource="http://purl.org/dc/dcmitype/StillImage" />
      </cc:Work>
    </rdf:RDF>
  </metadata>
  <g
     transform="translate(-85.99 -126.19)"
     id="g5">
    <path
       id="path3"
       style="fill:#000000"
       d="M 87.216287 126.49334 L 87.137221 126.53313 C 87.079261 126.56232 87.047415 126.59387 87.018365 126.65147 L 86.978574 126.73054 L 86.978574 132.78291 L 87.018882 132.85939 C 87.048832 132.91606 87.083868 132.94914 87.155308 132.98754 C 87.208208 133.01599 87.761752 133.32816 88.385212 133.68156 C 89.008672 134.03496 89.536285 134.33092 89.557755 134.33992 L 89.557755 134.34096 C 89.656605 134.38074 89.802319 134.33055 89.871949 134.23295 L 89.914324 134.17352 L 89.924659 133.01958 L 91.100819 133.01442 C 92.251169 133.00962 92.278701 133.00899 92.338991 132.97359 C 92.372901 132.95369 92.418428 132.91091 92.440278 132.87851 L 92.480069 132.8196 L 92.480069 130.90239 L 91.93333 130.90239 L 91.93333 132.45424 L 89.923109 132.45424 L 89.923109 130.25437 L 89.922592 128.05501 L 89.882801 127.98421 C 89.846471 127.92003 89.779481 127.87797 89.138141 127.51396 C 88.750511 127.29395 88.413596 127.10149 88.389346 127.08659 C 88.349546 127.06199 88.517317 127.05963 90.139117 127.0592 L 91.93333 127.05868 L 91.93333 129.05134 L 92.480069 129.05134 L 92.480069 126.69333 L 92.440278 126.63545 C 92.418448 126.60335 92.378257 126.56015 92.350877 126.53985 L 92.301268 126.50316 L 87.216287 126.49334 z M 87.308788 126.70315 L 89.792884 128.15991 L 89.792884 134.1234 L 89.610465 134.13167 L 87.226105 132.74621 L 87.106215 132.62994 L 87.106215 126.868 L 87.173395 126.75534 L 87.308788 126.70315 z " />
    <path
       d="m 91.611475,131.26 c 0.0194,-0.008 0.05114,-0.0327 0.07053,-0.0543 0.03267,-0.0363 0.03566,-0.0682 0.04061,-0.43341 l 0.0053,-0.39426 0.79696,-0.005 c 0.77725,-0.005 0.79871,-0.006 0.86749,-0.0431 0.14114,-0.076 0.21052,-0.19238 0.20967,-0.35185 -0.001,-0.18775 -0.1198,-0.33338 -0.30665,-0.37593 -0.04724,-0.0108 -0.38078,-0.0182 -0.82434,-0.0185 l -0.745,-4.2e-4 v -0.36205 c 0,-0.38483 -0.01316,-0.46182 -0.08551,-0.50055 -0.10273,-0.055 -0.11207,-0.0495 -0.9545,0.56201 -0.44028,0.31959 -0.81063,0.59929 -0.82299,0.62157 -0.02747,0.0495 -0.02975,0.11091 -0.0058,0.15571 0.0274,0.0512 1.614,1.198 1.6701,1.2072 0.02684,0.005 0.06467,0.001 0.08407,-0.007 z"
       fill="#c83737"
       stroke-width="0.017633"
       id="path4"
       style="fill:#000000" />
  </g>
</svg>
