<?xml version="1.0" encoding="UTF-8"?>
<!-- Created with Inkscape (http://www.inkscape.org/) -->
<svg width="39.173" height="39.374" version="1.1" viewBox="0 0 10.365 10.418" xml:space="preserve" xmlns="http://www.w3.org/2000/svg"><g transform="translate(-109.55 -119.34)"><g fill="#09f" stroke="#fff" stroke-linecap="round" stroke-linejoin="round" stroke-width=".26458"><circle cx="114.73" cy="124.55" r="1.4252" style="paint-order:stroke fill markers"/><path d="m114.74 119.47a0.23815 0.23815 0 0 0-0.19336 0.0937l-1.1758 1.5586a0.23812 0.23812 0 0 0 0.0449 0.33399 0.23812 0.23812 0 0 0 0.33399-0.0469l0.98633-1.3047 0.96875 1.3203a0.23812 0.23812 0 0 0 0.33398 0.0508 0.23812 0.23812 0 0 0 0.0508-0.33203l-1.1602-1.5781a0.23815 0.23815 0 0 0-0.18946-0.0957z" color="#000000" style="paint-order:stroke fill markers"/><path d="m114.74 129.63a0.23815 0.23815 0 0 1-0.19336-0.0937l-1.1758-1.5586a0.23812 0.23812 0 0 1 0.0449-0.33399 0.23812 0.23812 0 0 1 0.33399 0.0469l0.98633 1.3047 0.96875-1.3203a0.23812 0.23812 0 0 1 0.33398-0.0508 0.23812 0.23812 0 0 1 0.0508 0.33203l-1.1602 1.5781a0.23815 0.23815 0 0 1-0.18946 0.0957z" color="#000000" style="paint-order:stroke fill markers"/><path d="m109.68 124.56a0.23815 0.23815 0 0 1 0.0937-0.19336l1.5586-1.1758a0.23812 0.23812 0 0 1 0.33399 0.0449 0.23812 0.23812 0 0 1-0.0469 0.33399l-1.3047 0.98633 1.3203 0.96875a0.23812 0.23812 0 0 1 0.0508 0.33398 0.23812 0.23812 0 0 1-0.33203 0.0508l-1.5781-1.1602a0.23815 0.23815 0 0 1-0.0957-0.18946z" color="#000000" style="paint-order:stroke fill markers"/><path d="m119.78 124.56a0.23815 0.23815 0 0 0-0.0937-0.19336l-1.5586-1.1758a0.23812 0.23812 0 0 0-0.33399 0.0449 0.23812 0.23812 0 0 0 0.0469 0.33399l1.3047 0.98633-1.3203 0.96875a0.23812 0.23812 0 0 0-0.0508 0.33398 0.23812 0.23812 0 0 0 0.33203 0.0508l1.5781-1.1602a0.23815 0.23815 0 0 0 0.0957-0.18946z" color="#000000" style="paint-order:stroke fill markers"/></g></g></svg>
