<?xml version="1.0" encoding="UTF-8"?>
<!-- Created with Inkscape (http://www.inkscape.org/) -->
<svg width="24" height="24" version="1.1" viewBox="0 0 24 24" xmlns="http://www.w3.org/2000/svg" xmlns:cc="http://creativecommons.org/ns#" xmlns:dc="http://purl.org/dc/elements/1.1/" xmlns:rdf="http://www.w3.org/1999/02/22-rdf-syntax-ns#">
 <defs>
  <linearGradient id="linearGradient14183" x1="4.9426" x2="30.151" y1="20.047" y2="-6.2656" gradientUnits="userSpaceOnUse">
   <stop offset="0"/>
   <stop stop-opacity="0" offset="1"/>
  </linearGradient>
 </defs>
 <metadata>
  <rdf:RDF>
   <cc:Work rdf:about="">
    <dc:format>image/svg+xml</dc:format>
    <dc:type rdf:resource="http://purl.org/dc/dcmitype/StillImage"/>
    <dc:title/>
   </cc:Work>
  </rdf:RDF>
 </metadata>
 <path d="M 23.932,12 A 11.932,11.932 0 0 1 12,23.932 11.932,11.932 0 0 1 0.068,12 11.932,11.932 0 0 1 12,0.068 11.932,11.932 0 0 1 23.932,12 Z" color="#000000" color-rendering="auto" fill="#fc0" fill-rule="evenodd" image-rendering="auto" shape-rendering="auto" solid-color="#000000" style="isolation:auto;mix-blend-mode:normal"/>
 <path d="m12.047 0.0058594c-6.6103-1e-7 -11.979 5.3682-11.979 11.979 0 6.6103 5.3682 11.979 11.979 11.979 6.6103 0 11.979-5.3682 11.979-11.979 0-6.6103-5.3682-11.979-11.979-11.979zm0 0.96289c6.0895 0 11.016 4.9261 11.016 11.016 0 6.0899-4.9261 11.016-11.016 11.016s-11.016-4.9261-11.016-11.016c-1e-7 -6.0895 4.9261-11.016 11.016-11.016z" color="#000000" color-rendering="auto" fill="url(#linearGradient14183)" fill-rule="evenodd" image-rendering="auto" opacity=".096" shape-rendering="auto" solid-color="#000000" style="isolation:auto;mix-blend-mode:normal;text-decoration-color:#000000;text-decoration-line:none;text-decoration-style:solid;text-indent:0;text-transform:none;white-space:normal"/>
 <path d="m3.8637 21.496c-0.033797-0.0338-0.06145-1.7303-0.06145-3.77v-3.7086l8.1459-8.0481 8.1689 8.1673v3.5998c0 2.6769-0.02836 3.6281-0.11061 3.7104-0.08433 0.08433-2.008 0.11061-8.0959 0.11061-4.3919 0-8.013-0.02765-8.0468-0.06145z"/>
 <path d="m2.1862 13.262c-0.61733-0.30558-0.91839-1.1182-0.62771-1.6944 0.1845-0.36571 10.171-10.381 10.352-10.381 0.14608 0 9.3177 9.103 10.07 9.9947 0.43669 0.51757 0.45922 0.57012 0.41993 0.97909-0.05447 0.56687-0.34281 0.95658-0.85152 1.1509-0.85025 0.32471-0.6545 0.47838-5.3489-4.1988l-4.24-4.2244-4.1939 4.1452c-2.3067 2.2799-4.3274 4.2054-4.4905 4.2788-0.39903 0.17972-0.64708 0.16821-1.089-0.050549z"/>
 <g fill="#fff">
  <path d="m13.605 11.859c-1.6445-0.0065-3.4805-0.0035-4.3945 0.01367-1.0141 0.01905-1.9395 0.04351-2.0566 0.05469l-0.21289 0.02149 0.16602 0.16992c0.53715 0.55109 3.6074 3.0991 4.5391 3.7676 0.13555 0.09726 0.26218 0.17773 0.2832 0.17773 0.05491 0 0.50097-0.32277 1.0039-0.72656 0.95345-0.76549 3.2554-2.6963 3.7891-3.1777l0.26367-0.23633-0.13867-0.02148c-0.14552-0.02135-1.5977-0.03649-3.2422-0.04297zm-7.2168 0.48633-0.017578 0.14844c-0.039247 0.30991-0.058592 4.5167-0.023438 5.1641 0.019133 0.35234 0.044251 0.67072 0.054688 0.70898 0.022585 0.0828 0.03596 0.07833 0.32422-0.13281 0.52117-0.38175 2.5272-2.0672 3.1699-2.6641l0.15234-0.14258-0.25586-0.24414c-0.56508-0.53626-2.8041-2.4114-3.3047-2.7676z" style="paint-order:markers stroke fill"/>
  <path d="m17.215 18.27c-1.0431-0.80991-3.0113-2.4794-3.0847-2.6165-0.04762-0.08898 0.0271-0.19854 0.35106-0.51474 0.33958-0.33144 0.54893-0.51471 1.464-1.2816 1.2085-1.0129 1.6593-1.3646 1.6987-1.3252 0.02616 0.02616 0.03567 0.74108 0.03567 2.6825 0 2.6376-0.01833 3.3188-0.08931 3.3188-0.02003 0-0.18896-0.11844-0.3754-0.2632z" style="paint-order:markers stroke fill"/>
  <path d="m7.5405 19.252-0.70187-0.016529 0.40499-0.34473c0.76091-0.64768 2.4555-2.0407 3.0053-2.4705 0.34566-0.27021 0.28761-0.27622 0.76095 0.07883 0.16226 0.12172 0.3721 0.25958 0.4663 0.30636 0.21773 0.10812 0.52017 0.13156 0.74288 0.05759 0.14736-0.04894 0.23134-0.10024 0.81443-0.49746 0.19776-0.13472 0.27242-0.17016 0.3125-0.14832 0.14482 0.0789 2.7827 2.2398 3.4719 2.8441l0.10676 0.09361-0.0894 0.03399c-0.04917 0.0187-0.4558 0.04699-0.90363 0.06288-0.83584 0.02965-7.1339 0.0298-8.3911 1.88e-4z" style="paint-order:markers stroke fill"/>
 </g>
</svg>
