<?xml version="1.0" encoding="UTF-8" standalone="no"?>
<!-- Generator: Adobe Illustrator 25.0.1, SVG Export Plug-In . SVG Version: 6.00 Build 0)  -->

<svg
   xmlns:dc="http://purl.org/dc/elements/1.1/"
   xmlns:cc="http://creativecommons.org/ns#"
   xmlns:rdf="http://www.w3.org/1999/02/22-rdf-syntax-ns#"
   xmlns:svg="http://www.w3.org/2000/svg"
   xmlns="http://www.w3.org/2000/svg"
   xmlns:sodipodi="http://sodipodi.sourceforge.net/DTD/sodipodi-0.dtd"
   xmlns:inkscape="http://www.inkscape.org/namespaces/inkscape"
   version="1.1"
   id="Layer_1"
   x="0px"
   y="0px"
   viewBox="0 0 340 340"
   style="enable-background:new 0 0 340 340;"
   xml:space="preserve"
   sodipodi:docname="ladestelle.svg"
   inkscape:version="0.92.5 (2060ec1f9f, 2020-04-08)"><metadata
   id="metadata13"><rdf:RDF><cc:Work
       rdf:about=""><dc:format>image/svg+xml</dc:format><dc:type
         rdf:resource="http://purl.org/dc/dcmitype/StillImage" /><dc:title></dc:title></cc:Work></rdf:RDF></metadata><defs
   id="defs11" /><sodipodi:namedview
   pagecolor="#ffffff"
   bordercolor="#666666"
   borderopacity="1"
   objecttolerance="10"
   gridtolerance="10"
   guidetolerance="10"
   inkscape:pageopacity="0"
   inkscape:pageshadow="2"
   inkscape:window-width="3424"
   inkscape:window-height="1339"
   id="namedview9"
   showgrid="false"
   inkscape:zoom="0.69411765"
   inkscape:cx="170"
   inkscape:cy="167.11864"
   inkscape:window-x="8"
   inkscape:window-y="8"
   inkscape:window-maximized="0"
   inkscape:current-layer="Layer_1" />
<style
   type="text/css"
   id="style2">
	.st0{fill:#0092DA;}
	.st1{fill:#FFFFFF;}
</style>
<rect
   class="st0"
   width="340"
   height="340"
   id="rect4"
   style="fill:#808080" />
<path
   class="st1"
   d="M286.5,34.7H153.2c-1.9,0-3.5,1.6-3.5,3.5v118.1c-13.5,0.2-27.7,4.1-41.1,11.3V136l13.3-0.1l14-42.9V76.8h-9.5  V41.2c0-1.9-1.6-3.5-3.5-3.5h-3.1c-1.9,0-3.5,1.6-3.5,3.5v35.7H88V41.6c0-1.9-1.6-3.5-3.5-3.5h-3.1c-1.9,0-3.5,1.6-3.5,3.5v35.2  H67.4v15.1l14.3,44.3l12.6-0.1l0,40.7C69.2,196,50,228.1,50,269.8c0,17.2,11.6,35.5,29.3,35.5c17.7,0,29.3-19.1,29.3-36.3v-85.5  c12.6-8.2,26.8-12.8,41.1-13v128.4c0,1.9,1.6,3.5,3.5,3.5h133.3c1.9,0,3.5-1.6,3.5-3.5V38.2C290,36.3,288.4,34.7,286.5,34.7z   M79.7,291.3c-9.4,0-15.8-11.5-15.8-21.5c0-30.9,12.3-57.2,30.6-75l0,74.5C94.4,279,88.1,291.3,79.7,291.3z M272,148.2  c0,2.3-1.9,4.2-4.2,4.2H172c-2.3,0-4.2-1.9-4.2-4.2V73.1c0-2.3,1.9-4.2,4.2-4.2h95.7c2.3,0,4.2,1.9,4.2,4.2V148.2z"
   id="path6" />
</svg>