<svg xmlns="http://www.w3.org/2000/svg" xmlns:xlink="http://www.w3.org/1999/xlink" width="24" height="24" viewBox="0 0 24 24"><defs><radialGradient xlink:href="#a" id="c" cx="6.393" cy="15.165" fx="6.393" fy="15.165" r="11.932" gradientUnits="userSpaceOnUse" gradientTransform="matrix(1.4121 -1.10457 1.0703 1.3683 -14.652 5.117)"/><linearGradient id="a"><stop offset="0" stop-color="#1f58b6"/><stop offset="1" stop-color="#7aa4e8"/></linearGradient><linearGradient xlink:href="#b" id="d" x1="4.943" y1="20.047" x2="30.151" y2="-6.266" gradientUnits="userSpaceOnUse"/><linearGradient id="b"><stop offset="0"/><stop offset="1" stop-opacity="0"/></linearGradient></defs><g color="#000" fill-rule="evenodd"><path d="M23.932 12A11.932 11.932 0 0 1 12 23.932 11.932 11.932 0 0 1 .068 12 11.932 11.932 0 0 1 12 .068 11.932 11.932 0 0 1 23.932 12z" style="isolation:auto;mix-blend-mode:normal" overflow="visible" fill="url(#c)" transform="translate(-.046 .016)"/><path d="M12.047.006C5.437.006.067 5.374.067 11.984c0 6.61 5.37 11.98 11.98 11.98s11.978-5.37 11.978-11.98S18.657.006 12.047.006zm0 .963c6.09 0 11.015 4.925 11.015 11.014 0 6.09-4.926 11.016-11.015 11.016A11.008 11.008 0 0 1 1.03 11.984C1.03 5.894 5.958.97 12.048.97z" style="line-height:normal;text-indent:0;text-align:start;text-decoration-line:none;text-decoration-style:solid;text-decoration-color:#000;text-transform:none;block-progression:tb;isolation:auto;mix-blend-mode:normal" font-weight="400" font-family="sans-serif" white-space="normal" overflow="visible" opacity=".096" fill="url(#d)" transform="translate(-.046 .016)"/></g><path d="M16.126 20.92c-.106-.1-.29-.288-.412-.413-.4-.417-.81-.806-.857-.817-.026-.01-.467.446-.98 1.006a33.13 33.13 0 0 1-.982 1.05c-.028.017-.123-.084-.21-.225-.14-.23-.143-.284-.027-.54.07-.156.272-.614.448-1.018.175-.403.4-.904.497-1.113l.178-.38-.458-.514c-.3-.337-.847-1.097-1.587-2.207-.62-.932-1.14-1.697-1.155-1.7-.06-.018-.827.754-1.376 1.384-.674.773-1.132 1.35-1.44 1.81a52.78 52.78 0 0 1-.687.987c-.264.37-.707 1.03-.986 1.47-.278.44-.523.794-.543.79-.032-.01-.104-.204-.376-1.012-.025-.076.022-.3.105-.497.084-.196.17-.43.19-.52.02-.087.14-.452.266-.81l.23-.65-.244-.398c-.272-.445-.265-.483.135-.727.188-.114.258-.124.34-.045.134.13.145.118.265-.264.056-.178.206-.638.334-1.02l.23-.698-.243-.398c-.287-.47-.273-.58.104-.775.197-.102.3-.114.403-.05.13.082.16.017.54-1.1l.403-1.188-.29-.507C7.263 8.665 6.438 7.067 6.25 6.572c-.41-1.083-.467-2.05-.133-2.255.075-.046.27-.044.45.01.83.225 2.07 1.623 3.48 3.912l.422.688 1.266.186c.696.102 1.257.15 1.246.107-.056-.236.367-.63.615-.57.065.016.215.194.356.425l.243.397.627.084c1.555.207 1.47.205 1.51.038.02-.084.125-.207.233-.273.356-.217.403-.2.666.23l.24.39 1.234.17c.68.092 1.272.202 1.318.242.144.128.758.79.753.814-.002.012-.766.11-1.697.22-1.93.228-3.382.47-4.532.756-.74.184-1.787.523-1.796.582-.003.014.43.797.958 1.74.552.982 1.087 2.013 1.254 2.415.248.595.308.7.402.696.06 0 .478.02.928.048.45.03 1.08.065 1.403.082.577.03.587.033.745.29.088.144.14.275.115.29-.025.015-.648.194-1.385.398-1.002.277-1.34.396-1.34.47 0 .054.055.23.123.39s.12.37.113.462a.807.807 0 0 0 .12.382c.15.244.253.647.178.693-.028.018-.137-.052-.242-.154z" fill="#133671"/><path d="M16.57 19.275c-.106-.102-.292-.29-.413-.415-.4-.417-.808-.805-.857-.817-.026-.01-.466.447-.978 1.007a33.13 33.13 0 0 1-.983 1.05c-.03.017-.124-.084-.21-.225-.142-.23-.145-.285-.03-.54.072-.157.274-.616.45-1.02.174-.402.398-.903.496-1.112l.18-.38-.46-.513c-.3-.337-.848-1.097-1.588-2.207-.62-.93-1.14-1.696-1.154-1.7-.06-.017-.828.755-1.377 1.385-.673.773-1.13 1.35-1.438 1.81-.117.173-.427.617-.69.987-.263.37-.706 1.03-.985 1.47-.28.438-.524.793-.544.788-.03-.01-.104-.203-.376-1.01-.025-.077.022-.3.105-.498.082-.197.167-.43.188-.52.02-.088.14-.454.267-.812l.228-.65-.243-.398c-.272-.444-.265-.482.135-.727.186-.114.257-.123.338-.045.135.13.145.12.265-.263.056-.18.207-.638.334-1.022l.232-.696-.243-.398c-.287-.47-.272-.58.104-.776.196-.1.3-.113.402-.05.13.082.16.017.54-1.1L8.67 8.69l-.292-.506c-.67-1.166-1.495-2.763-1.683-3.258-.41-1.083-.466-2.05-.133-2.255.076-.045.27-.043.453.01.827.226 2.07 1.623 3.477 3.913l.424.69 1.265.185c.697.102 1.258.15 1.248.107-.057-.238.367-.63.615-.57.066.015.215.193.356.423l.243.398.628.084c1.555.207 1.47.205 1.51.038.02-.084.126-.207.234-.273.356-.218.402-.202.666.227l.24.39 1.233.17c.68.093 1.272.204 1.32.244.143.127.757.79.75.813 0 .01-.765.11-1.696.22-1.932.228-3.383.47-4.532.756-.74.184-1.788.523-1.798.582-.002.014.43.797.96 1.74.55.982 1.086 2.013 1.253 2.415.247.595.307.7.4.696.062 0 .48.02.93.047.45.03 1.08.065 1.403.082.577.028.588.032.746.29.087.144.138.274.113.29-.025.015-.648.194-1.385.398-1.002.277-1.34.396-1.34.47 0 .054.055.23.123.39.07.16.12.37.114.46a.807.807 0 0 0 .12.383c.15.245.253.65.178.695-.028.017-.137-.053-.243-.155z" fill="#ccc"/><path d="M16.557 19.23c-.105-.1-.29-.288-.412-.414-.4-.417-.857-.817-.857-.817l-1.075-1.22-.46-.515c-.3-.336-.847-1.096-1.587-2.206-.62-.932-1.154-1.702-1.154-1.702l-2.354-3.71-.292-.508c-.67-1.166-1.495-2.763-1.683-3.26-.41-1.08-.466-2.05-.133-2.253.076-.046.27-.044.453.01.827.225 2.07 1.622 3.477 3.912l.424.688 2.28 3.796s.43.797.96 1.74c.552.982 1.087 2.013 1.254 2.414.247.596.4.697.4.697l.468 1.578s.055.23.123.392c.067.16.118.367.112.46a.807.807 0 0 0 .12.382c.15.244.253.648.178.694-.028.018-.137-.052-.243-.154z" fill="#fff"/></svg>