<svg xmlns="http://www.w3.org/2000/svg" xmlns:xlink="http://www.w3.org/1999/xlink" width="24" height="24" viewBox="0 0 24 24"><defs><linearGradient id="b"><stop offset="0" stop-color="#1f58b6"/><stop offset="1" stop-color="#7aa4e8"/></linearGradient><radialGradient xlink:href="#b" id="a" gradientUnits="userSpaceOnUse" gradientTransform="matrix(1.4121 -1.10457 1.0703 1.3683 -14.652 5.117)" cx="6.393" cy="15.165" fx="6.393" fy="15.165" r="11.932"/><radialGradient xlink:href="#b" id="c" gradientUnits="userSpaceOnUse" gradientTransform="matrix(1.4121 -1.10457 1.0703 1.3683 -14.652 5.117)" cx="6.393" cy="15.165" fx="6.393" fy="15.165" r="11.932"/></defs><path style="isolation:auto;mix-blend-mode:normal" color="#000" overflow="visible" fill="#022277" d="M3.422.012h17.185V24.03H3.422z"/><path d="M5.02 2.103a.32.32 0 0 0-.32.32V16.19a.32.32 0 0 0 .32.32h13.714a.32.32 0 0 0 .32-.32v-3.927l.047-.066h-.046v-1l.055-.078h-.056v-1.003l.014-.02h-.014V2.423a.32.32 0 0 0-.32-.32H5.02zm.32.64h13.074v7.35l-4.74-.034-.57.804 5.31.038v.213l-5.42-.034-.57.806 5.99.037v.27l-6.12-.034-.57.804 6.69.037v2.87H5.34V2.743zm9.045.4L5.847 15.23h.987l8.538-12.086h-.987zm1.267.04L7.115 15.27h.987L16.64 3.184h-.988zm1.28.027L8.396 15.297h.987L17.92 3.21h-.987z" style="line-height:normal;text-indent:0;text-align:start;text-decoration-line:none;text-decoration-style:solid;text-decoration-color:#000;text-transform:none;block-progression:tb;isolation:auto;mix-blend-mode:normal" color="#000" font-weight="400" font-family="sans-serif" white-space="normal" overflow="visible" fill="#1087cc"/><g style="line-height:125%;-inkscape-font-specification:'sans-serif, Bold';text-align:start" font-weight="700" font-size="53.104" font-family="sans-serif" letter-spacing="0" word-spacing="0" fill="#fff"><path d="M7.735 20.942H6.07l-.263.752h-1.07l1.53-4.13h1.27l1.53 4.13h-1.07l-.262-.752zm-1.4-.767h1.132l-.565-1.644-.567 1.645zM9.612 17.563h1.065v3.326h1.87v.804H9.613v-4.13zM14.286 18.368v2.52h.38q.655 0 .998-.323.346-.324.346-.94 0-.615-.344-.936-.343-.322-1-.322h-.38zm-1.066-.805h1.124q.94 0 1.4.135.462.133.79.454.292.28.433.645.14.365.14.827 0 .468-.14.836-.14.365-.432.645-.332.32-.797.456-.465.134-1.394.134H13.22v-4.13zM17.925 17.563h1.065v4.13h-1.065v-4.13z"/></g><path style="isolation:auto;mix-blend-mode:normal" color="#000" overflow="visible" fill="#fd8b04" d="M-.004.012H2.19V24.03H-.003z"/><path style="isolation:auto;mix-blend-mode:normal" color="#000" overflow="visible" fill="#df0604" d="M2.19.012h1.23V24.03H2.19z"/><path style="isolation:auto;mix-blend-mode:normal" color="#000" overflow="visible" fill="#fd8b04" d="M24.025.012H21.83V24.03h2.195z"/><path style="isolation:auto;mix-blend-mode:normal" color="#000" overflow="visible" fill="#df0604" d="M21.83.012H20.6V24.03h1.23z"/></svg>