<svg xmlns="http://www.w3.org/2000/svg" xmlns:xlink="http://www.w3.org/1999/xlink" width="24" height="24" viewBox="0 0 24 24"><defs><linearGradient id="a"><stop offset="0" stop-color="#7c05fc" stop-opacity=".996"/><stop offset="1" stop-color="#e244fe" stop-opacity=".996"/></linearGradient><linearGradient id="b"><stop offset="0"/><stop offset="1" stop-opacity="0"/></linearGradient><linearGradient id="d"><stop offset="0" stop-color="#1f58b6"/><stop offset="1" stop-color="#7aa4e8"/></linearGradient><radialGradient xlink:href="#a" id="f" cx="6.393" cy="15.165" fx="6.393" fy="15.165" r="11.932" gradientUnits="userSpaceOnUse" gradientTransform="matrix(1.4121 -1.10457 1.0703 1.3683 -14.652 5.117)"/><linearGradient xlink:href="#b" id="g" x1="4.943" y1="20.047" x2="30.151" y2="-6.266" gradientUnits="userSpaceOnUse"/><radialGradient xlink:href="#d" id="c" gradientUnits="userSpaceOnUse" gradientTransform="matrix(1.4121 -1.10457 1.0703 1.3683 -14.652 5.117)" cx="6.393" cy="15.165" fx="6.393" fy="15.165" r="11.932"/><radialGradient xlink:href="#d" id="e" gradientUnits="userSpaceOnUse" gradientTransform="matrix(1.4121 -1.10457 1.0703 1.3683 -14.652 5.117)" cx="6.393" cy="15.165" fx="6.393" fy="15.165" r="11.932"/></defs><g color="#000" fill-rule="evenodd"><path d="M23.932 12A11.932 11.932 0 0 1 12 23.932 11.932 11.932 0 0 1 .068 12 11.932 11.932 0 0 1 12 .068 11.932 11.932 0 0 1 23.932 12z" style="isolation:auto;mix-blend-mode:normal" overflow="visible" fill="url(#f)"/><path d="M12.047.006C5.437.006.067 5.374.067 11.984c0 6.61 5.37 11.98 11.98 11.98s11.978-5.37 11.978-11.98S18.657.006 12.047.006zm0 .963c6.09 0 11.015 4.925 11.015 11.014 0 6.09-4.926 11.016-11.015 11.016A11.008 11.008 0 0 1 1.03 11.984C1.03 5.894 5.958.97 12.048.97z" style="line-height:normal;text-indent:0;text-align:start;text-decoration-line:none;text-decoration-style:solid;text-decoration-color:#000;text-transform:none;block-progression:tb;isolation:auto;mix-blend-mode:normal" font-weight="400" font-family="sans-serif" white-space="normal" overflow="visible" opacity=".096" fill="url(#g)"/></g><g fill="#405"><path d="M6.813 10.476v7.346h5.902zm-2.13-6.23v15.818H17.39z" fill-rule="evenodd"/><path d="M18.494 17.264c-1.123-.584-2.04-1.07-2.04-1.08-.002-.026 2.69-2.348 2.734-2.36.027-.007 1.376 4.472 1.353 4.495-.003.004-.924-.472-2.046-1.056zm-5.723-5.29c-1.778-2.05-3.233-3.742-3.233-3.757 0-.016.087-.104.194-.196l.195-.168.074.077c.075.078 6.3 7.265 6.387 7.373.044.054.033.072-.144.23a1.455 1.455 0 0 1-.214.172c-.014 0-1.48-1.678-3.26-3.73zm.877-.58c-1.74-2.004-3.207-3.69-3.258-3.748l-.094-.106.136-.116c.074-.064.224-.204.334-.31.11-.11.31-.29.448-.4l.25-.205.088.09c.05.052 1.433 1.643 3.077 3.535a2669.98 2669.98 0 0 0 3.18 3.66l.194.22-.176.157c-.096.085-.193.156-.214.156-.02 0-.2.16-.395.354-.197.193-.37.352-.383.352-.013 0-1.45-1.64-3.19-3.64zm1.458-1.437A409.498 409.498 0 0 1 11.858 6.2c0-.014.093-.105.207-.205l.208-.18.068.07c.23.243 6.45 7.42 6.447 7.442-.002.026-.362.34-.41.355-.013.005-1.486-1.672-3.272-3.725zM8.46 7.007l-.758-.873a1.707 1.707 0 0 1-.358-1.498c.092-.39.298-.69.697-1.017.447-.365.78-.484 1.273-.454.318.02.56.102.826.28.16.107.884.902 1.656 1.82l.073.087-1.362 1.183c-.75.65-1.374 1.187-1.387 1.192-.013.005-.31-.32-.66-.72z"/></g><path d="M6.797 9.65v7.345H12.7zm-2.13-6.23v15.817h12.708z" fill="#fff" fill-rule="evenodd"/><path d="M18.654 16.658c-1.122-.584-2.04-1.07-2.04-1.08-.002-.026 2.692-2.348 2.734-2.36.028-.01 1.376 4.472 1.353 4.495-.003.01-.924-.47-2.046-1.055z" fill="#fff"/><path d="M12.932 11.37c-1.78-2.053-3.235-3.744-3.235-3.76 0-.014.088-.103.194-.195l.196-.17.074.078c.075.08 6.302 7.266 6.388 7.374.043.055.032.073-.144.23a1.468 1.468 0 0 1-.215.172c-.014 0-1.48-1.68-3.258-3.73zM13.807 10.787c-1.74-2.003-3.207-3.69-3.258-3.747l-.093-.106.135-.116c.075-.064.225-.204.334-.31.11-.11.31-.29.448-.4l.25-.205.09.092c.047.05 1.432 1.64 3.075 3.534 1.642 1.892 3.074 3.54 3.18 3.66l.194.22-.175.155c-.098.086-.194.156-.216.157-.02 0-.2.16-.395.353-.197.194-.368.352-.382.352-.014 0-1.45-1.638-3.19-3.64zM15.265 9.35a409.184 409.184 0 0 1-3.247-3.757c0-.013.094-.104.208-.204l.207-.182.068.072c.23.242 6.45 7.42 6.448 7.44-.002.027-.362.34-.41.356-.014.01-1.487-1.67-3.273-3.725z" fill="#fc0"/><path d="M8.622 6.402l-.76-.874a1.707 1.707 0 0 1-.357-1.498c.092-.39.297-.69.697-1.017.445-.364.78-.483 1.27-.453.32.02.56.102.828.28.16.107.884.902 1.656 1.82l.074.087-1.362 1.183A92.21 92.21 0 0 1 9.28 7.122c-.013.01-.31-.32-.658-.72z" fill="#e6e6e6"/><path d="M18.728 16.702l1.355-1.1.646 2.135z" fill-rule="evenodd"/></svg>