<svg xmlns="http://www.w3.org/2000/svg" xmlns:xlink="http://www.w3.org/1999/xlink" width="24" height="24" viewBox="0 0 24 24"><defs><linearGradient id="a"><stop offset="0" stop-color="#b30101" stop-opacity=".996"/><stop offset="1" stop-color="#fa4667" stop-opacity=".996"/></linearGradient><linearGradient id="b"><stop offset="0"/><stop offset="1" stop-opacity="0"/></linearGradient><linearGradient id="d"><stop offset="0" stop-color="#1f58b6"/><stop offset="1" stop-color="#7aa4e8"/></linearGradient><radialGradient xlink:href="#a" id="f" cx="6.393" cy="15.165" fx="6.393" fy="15.165" r="11.932" gradientUnits="userSpaceOnUse" gradientTransform="matrix(1.4121 -1.10457 1.0703 1.3683 -14.652 5.117)"/><linearGradient xlink:href="#b" id="g" x1="4.943" y1="20.047" x2="30.151" y2="-6.266" gradientUnits="userSpaceOnUse"/><radialGradient xlink:href="#d" id="c" gradientUnits="userSpaceOnUse" gradientTransform="matrix(1.4121 -1.10457 1.0703 1.3683 -14.652 5.117)" cx="6.393" cy="15.165" fx="6.393" fy="15.165" r="11.932"/><radialGradient xlink:href="#d" id="e" gradientUnits="userSpaceOnUse" gradientTransform="matrix(1.4121 -1.10457 1.0703 1.3683 -14.652 5.117)" cx="6.393" cy="15.165" fx="6.393" fy="15.165" r="11.932"/><clipPath id="h"><path style="isolation:auto;mix-blend-mode:normal" d="M22.982 12A10.982 10.982 0 0 1 12 22.982 10.982 10.982 0 0 1 1.018 12 10.982 10.982 0 0 1 12 1.018 10.982 10.982 0 0 1 22.982 12z" color="#000" overflow="visible" fill="url(#radialGradient14170)" fill-rule="evenodd" stroke-width="2" stroke-linecap="square" stroke-dashoffset=".85"/></clipPath><clipPath id="i"><path style="isolation:auto;mix-blend-mode:normal" d="M22.982 12A10.982 10.982 0 0 1 12 22.982 10.982 10.982 0 0 1 1.018 12 10.982 10.982 0 0 1 12 1.018 10.982 10.982 0 0 1 22.982 12z" color="#000" overflow="visible" fill="url(#radialGradient14164)" fill-rule="evenodd" stroke-width="2" stroke-linecap="square" stroke-dashoffset=".85"/></clipPath></defs><g color="#000" fill-rule="evenodd"><path d="M23.932 12A11.932 11.932 0 0 1 12 23.932 11.932 11.932 0 0 1 .068 12 11.932 11.932 0 0 1 12 .068 11.932 11.932 0 0 1 23.932 12z" style="isolation:auto;mix-blend-mode:normal" overflow="visible" fill="url(#f)"/><path d="M12.047.006C5.437.006.067 5.374.067 11.984c0 6.61 5.37 11.98 11.98 11.98s11.978-5.37 11.978-11.98S18.657.006 12.047.006zm0 .963c6.09 0 11.015 4.925 11.015 11.014 0 6.09-4.926 11.016-11.015 11.016A11.008 11.008 0 0 1 1.03 11.984C1.03 5.894 5.958.97 12.048.97z" style="line-height:normal;text-indent:0;text-align:start;text-decoration-line:none;text-decoration-style:solid;text-decoration-color:#000;text-transform:none;block-progression:tb;isolation:auto;mix-blend-mode:normal" font-weight="400" font-family="sans-serif" white-space="normal" overflow="visible" opacity=".096" fill="url(#g)"/></g><g transform="translate(0 -1028.362)"><g fill-rule="evenodd"><path transform="rotate(28.748 -1994.26 526.275)" d="M.016 18.08l24-17.8.062 23.814-24.094-.08z" clip-path="url(#h)"/><path transform="rotate(28.748 -1994.26 526.275)" d="M0 19.856l24-12.45.063 16.657-24.094-.057z" clip-path="url(#i)" fill="#999" fill-opacity=".996"/></g><path d="M8.484 1049.974c-.23-.035-.548-.275-.682-.513-.218-.388-.216-.397.62-3.542.41-1.54.754-2.828.765-2.86.014-.04.06 0 .142.105.2.274.504.535 1.067.92.295.2.537.383.537.404 0 .134-1.29 4.89-1.355 4.998a1.07 1.07 0 0 1-.59.454.888.888 0 0 1-.506.034zm6.64-.01c-.325-.085-.656-.388-.737-.677a66.027 66.027 0 0 1-.337-1.918c-.162-.975-.304-1.812-.316-1.863-.014-.065-.523-.433-1.737-1.256-1.028-.697-1.795-1.247-1.913-1.37-.345-.363-.54-.912-.48-1.36.055-.41 1.41-5.636 1.5-5.78.223-.363.653-.61 1.06-.61.308 0 1.715.203 1.912.276.326.12.487.316 1.427 1.744l.917 1.393h2.176c.32.01.86.11.933.66-.04.878-.108 1.18-.108 1.18l-.442.216s-.59-.018-.59-.022c0 0-.62-.014-1.38-.02-1.325-.014-1.386-.018-1.55-.106-.243-.13-.34-.253-1.005-1.267-.323-.492-.59-.89-.597-.884-.017.018-.86 3.942-.86 4.004 0 .03.533.435 1.185.897.65.462 1.227.892 1.28.955.053.063.126.195.163.295.113.308.79 4.47.76 4.666-.046.277-.26.587-.502.72-.226.127-.552.182-.76.128zm-7.643-8.853c-.5-.118-.906-.238-.968-.285a.603.603 0 0 1-.164-.23c-.054-.142-.03-.263.436-2.228.502-2.113.59-2.417.83-2.865.443-.834 1.27-1.16 2.27-.898.258.068.403.192.464.397.04.135-.033.463-.692 3.093-.497 1.985-.762 2.97-.814 3.028-.088.1-.312.205-.424.2-.04 0-.463-.096-.937-.21zm5.94-6.638c-1.025-.197-1.69-.97-1.7-1.975-.01-.893.497-1.618 1.345-1.92.352-.127.953-.128 1.3 0 .838.303 1.347 1.022 1.347 1.9 0 .88-.52 1.612-1.348 1.897-.25.085-.744.137-.945.1z" fill="#fff"/><path d="M11.946 1031.685s-.85-.733-2.088-.58c-1.237.153-2.115 1.006-2.39 1.378-.276.372-.366 1.27-.344 1.58.022.308.124.912.442 1.233.32.32.392.357.392.357s-.36-.55-.27-.91c.09-.36.618-1.19 1.024-1.468s1.28-.76 1.9-.947c.62-.188 1.334-.643 1.334-.643z" fill="#fea" fill-rule="evenodd"/><path d="M12.065 1031.637s-.356-1.05-1.498-1.502c-1.14-.453-2.332-.118-2.76.08-.426.196-.96.944-1.1 1.227-.14.283-.36.863-.25 1.297.11.434.153.5.153.5s-.028-.657.233-.93c.26-.273 1.14-.755 1.63-.807.49-.053 1.49-.06 2.117.068.63.13 1.475.067 1.475.067z" fill="#fea" fill-rule="evenodd"/><circle style="isolation:auto;mix-blend-mode:normal" cx="13.484" cy="1038.94" r="1.203" color="#000" overflow="visible" fill="#fff" fill-opacity=".996"/><ellipse style="isolation:auto;mix-blend-mode:normal" cx="10.531" cy="1041.737" rx="1.438" ry="1.344" color="#000" overflow="visible" fill="#fff" fill-opacity=".996"/><path d="M12.12 1033.467s.698-.266 1.235-.782c.536-.515 1.024-1.625 1.024-1.625l1.023.03s.162-.343-.52-.56c-.683-.22-1.886-.314-2.26-.08-.374.235-.83.673-.943 1.313-.113.64-.097 1.39-.097 1.39s.162.298-.098.485c-.26.188.082.203.082.203z" fill="#fea" fill-rule="evenodd"/></g></svg>