<svg xmlns="http://www.w3.org/2000/svg" xmlns:xlink="http://www.w3.org/1999/xlink" width="24" height="24" viewBox="0 0 24 24"><defs><linearGradient id="a"><stop offset="0" stop-color="#e35f00" stop-opacity=".996"/><stop offset="1" stop-color="#ff950d" stop-opacity=".996"/></linearGradient><linearGradient id="b"><stop offset="0"/><stop offset="1" stop-opacity="0"/></linearGradient><linearGradient id="d"><stop offset="0" stop-color="#1f58b6"/><stop offset="1" stop-color="#7aa4e8"/></linearGradient><radialGradient gradientTransform="matrix(1.4121 -1.10457 1.0703 1.3683 -14.652 5.117)" gradientUnits="userSpaceOnUse" r="11.932" fy="15.165" fx="6.393" cy="15.165" cx="6.393" id="f" xlink:href="#a"/><linearGradient gradientUnits="userSpaceOnUse" y2="-6.266" x2="30.151" y1="20.047" x1="4.943" id="g" xlink:href="#b"/><radialGradient r="11.932" fy="15.165" fx="6.393" cy="15.165" cx="6.393" gradientTransform="matrix(1.4121 -1.10457 1.0703 1.3683 -14.652 5.117)" gradientUnits="userSpaceOnUse" id="c" xlink:href="#d"/><radialGradient r="11.932" fy="15.165" fx="6.393" cy="15.165" cx="6.393" gradientTransform="matrix(1.4121 -1.10457 1.0703 1.3683 -14.652 5.117)" gradientUnits="userSpaceOnUse" id="e" xlink:href="#d"/></defs><g color="#000" fill-rule="evenodd"><path style="isolation:auto;mix-blend-mode:normal" d="M23.932 12A11.932 11.932 0 0 1 12 23.932 11.932 11.932 0 0 1 .068 12 11.932 11.932 0 0 1 12 .068 11.932 11.932 0 0 1 23.932 12z" overflow="visible" fill="url(#f)"/><path style="line-height:normal;text-indent:0;text-align:start;text-decoration-line:none;text-decoration-style:solid;text-decoration-color:#000;text-transform:none;block-progression:tb;isolation:auto;mix-blend-mode:normal" d="M12.047.006C5.437.006.067 5.374.067 11.984c0 6.61 5.37 11.98 11.98 11.98s11.978-5.37 11.978-11.98S18.657.006 12.047.006zm0 .963c6.09 0 11.015 4.925 11.015 11.014 0 6.09-4.926 11.016-11.015 11.016A11.008 11.008 0 0 1 1.03 11.984C1.03 5.894 5.958.97 12.048.97z" font-weight="400" font-family="sans-serif" white-space="normal" overflow="visible" opacity=".096" fill="url(#g)"/></g><g fill-opacity=".996"><path d="M5.497 16.698c-.017-.89-.083-2.73-.092-4.095l-.06-2.478-.147-.117c-.938-.76-1.142-1.494-.618-2.23.633-.89 2.146-1.594 3.975-1.852 3.15-.443 10.77.522 11.56 2.092.114.225.125.286.11.612-.014.32-.033.39-.162.588a3.498 3.498 0 0 1-.643.73l-.17.145-.082 3.58a505.48 505.48 0 0 0-.083 4.11l-.002.53H5.527l-.03-1.615z" style="isolation:auto;mix-blend-mode:normal" color="#000" overflow="visible" fill="#803300"/><path d="M5.173 17.79l-.096-3.94-.082-3.414-.19-.16c-1.29-1.074-1.158-2.38.338-3.368 1.958-1.294 5.642-1.64 8.472-.8 1.34.4 2.34 1.037 2.77 1.767.168.284.234.52.235.84 0 .24-.008.297-.075.488-.04.12-.13.303-.196.41a3.6 3.6 0 0 1-.644.696l-.097.074-.095 3.837c-.052 2.11-.094 3.897-.095 3.968v.13H5.187l-.015-.527zm9.8-.148c0-.113.038-1.793.085-3.734.048-1.94.087-3.58.087-3.644 0-.11.005-.12.143-.222.38-.285.718-.687.818-.974a1.3 1.3 0 0 0-.01-.727c-.124-.33-.486-.734-.925-1.027-1.462-.978-4.037-1.41-6.51-1.095-1.585.202-2.994.75-3.72 1.445-.24.23-.38.423-.476.65-.055.13-.065.19-.065.4 0 .21.008.273.06.4.134.317.404.633.782.913.11.08.202.15.205.152.008.01.18 7.082.18 7.407v.262h9.344v-.205z" fill="#fff6d5"/><path d="M6.39 14.246c-.013-.605-.047-1.86-.075-2.79l-.05-1.687-.123-.082c-.782-.518-.952-1.018-.515-1.52.527-.605 1.79-1.085 3.313-1.26 2.626-.303 5.44.355 6.1 1.425.095.153.104.195.092.417-.012.217-.028.265-.135.4-.14.176-.33.35-.536.497l-.142.1-.067 2.438c-.037 1.34-.068 5.126-.07 5.325v.362H6.417l-.026-3.626z" style="isolation:auto;mix-blend-mode:normal" color="#000" overflow="visible" fill="#fff"/></g></svg>