<svg xmlns="http://www.w3.org/2000/svg" xmlns:xlink="http://www.w3.org/1999/xlink" width="24" height="24" viewBox="0 0 24 24"><defs><linearGradient id="f"><stop offset="0" stop-color="#fefee9"/><stop offset="1" stop-color="#c10e15" stop-opacity=".996"/></linearGradient><linearGradient id="a"><stop offset="0" stop-color="#b30101" stop-opacity=".996"/><stop offset="1" stop-color="#fa4667" stop-opacity=".996"/></linearGradient><linearGradient id="b"><stop offset="0"/><stop offset="1" stop-opacity="0"/></linearGradient><linearGradient id="d"><stop offset="0" stop-color="#1f58b6"/><stop offset="1" stop-color="#7aa4e8"/></linearGradient><radialGradient xlink:href="#a" id="g" cx="6.393" cy="15.165" fx="6.393" fy="15.165" r="11.932" gradientUnits="userSpaceOnUse" gradientTransform="matrix(1.4121 -1.10457 1.0703 1.3683 -14.652 5.117)"/><linearGradient xlink:href="#b" id="h" x1="4.943" y1="20.047" x2="30.151" y2="-6.266" gradientUnits="userSpaceOnUse"/><radialGradient xlink:href="#d" id="c" gradientUnits="userSpaceOnUse" gradientTransform="matrix(1.4121 -1.10457 1.0703 1.3683 -14.652 5.117)" cx="6.393" cy="15.165" fx="6.393" fy="15.165" r="11.932"/><radialGradient xlink:href="#d" id="e" gradientUnits="userSpaceOnUse" gradientTransform="matrix(1.4121 -1.10457 1.0703 1.3683 -14.652 5.117)" cx="6.393" cy="15.165" fx="6.393" fy="15.165" r="11.932"/><linearGradient xlink:href="#f" id="j" x1="-13.313" y1="1026.909" x2="-13.313" y2="1036.175" gradientUnits="userSpaceOnUse" gradientTransform="matrix(.98565 0 0 1 -.185 0)"/><clipPath id="i"><circle style="isolation:auto;mix-blend-mode:normal" cx="-13.347" cy="1035.404" r="17.607" color="#000" overflow="visible" fill="#ff0" stroke-width="1.603"/></clipPath></defs><g color="#000" fill-rule="evenodd"><path d="M23.932 12A11.932 11.932 0 0 1 12 23.932 11.932 11.932 0 0 1 .068 12 11.932 11.932 0 0 1 12 .068 11.932 11.932 0 0 1 23.932 12z" style="isolation:auto;mix-blend-mode:normal" overflow="visible" fill="url(#g)"/><path d="M12.047.006C5.437.006.067 5.374.067 11.984c0 6.61 5.37 11.98 11.98 11.98s11.978-5.37 11.978-11.98S18.657.006 12.047.006zm0 .963c6.09 0 11.015 4.925 11.015 11.014 0 6.09-4.926 11.016-11.015 11.016A11.008 11.008 0 0 1 1.03 11.984C1.03 5.894 5.958.97 12.048.97z" style="line-height:normal;text-indent:0;text-align:start;text-decoration-line:none;text-decoration-style:solid;text-decoration-color:#000;text-transform:none;block-progression:tb;isolation:auto;mix-blend-mode:normal" font-weight="400" font-family="sans-serif" white-space="normal" overflow="visible" opacity=".096" fill="url(#h)"/></g><g transform="translate(20.346 -633.836) scale(.62373)"><path style="isolation:auto;mix-blend-mode:normal" d="M-23.313 1023.88a4.07 3.87 0 0 0-4.07 3.87 4.07 3.87 0 0 0 4.07 3.87 4.07 3.87 0 0 0 2.897-1.158l3.17 2.834 5.24 4.716v12.748l-1.554 1.014-2.588 1.673h10.325l-2.588-1.673-1.552-1.01v-12.755l5.235-4.714 6.292-5.627-12.55.01-8.262-.01a4.07 3.87 0 0 0-4.066-3.793z" clip-path="url(#i)" color="#000" overflow="visible" fill="#500"/><g transform="matrix(.92185 0 0 .92185 1.76 70.342)" color="#000"><circle style="isolation:auto;mix-blend-mode:normal" cx="-28.675" cy="1037.659" r="4.198" overflow="visible" fill="#668000"/><path style="isolation:auto;mix-blend-mode:normal" d="M-27.79 1034.75c0 .748-.217 1.71-.932 2.494a3.748 3.748 0 0 1-.933-2.494c0-.748.538-.783.933-.783s.933.035.933.783zM-27.785 1040.478c0-.748-.218-1.71-.933-2.494a3.748 3.748 0 0 0-.933 2.494c0 .748.537.783.932.783s.933-.034.933-.782zM-25.805 1036.882c-.633.4-1.563.727-2.607.54a3.748 3.748 0 0 1 1.613-2.12c.634-.398.95.04 1.16.373.21.334.47.808-.165 1.207zM-31.638 1038.27c.633-.4 1.563-.728 2.608-.54a3.748 3.748 0 0 1-1.614 2.12c-.633.397-.95-.04-1.16-.374-.21-.334-.467-.808.166-1.207zM-31.638 1036.88c.633.4 1.563.727 2.608.54a3.748 3.748 0 0 0-1.614-2.12c-.633-.398-.95.04-1.16.374-.21.333-.467.808.166 1.206z" overflow="visible" fill="#cf0"/></g><g fill="#fff" color="#000"><path style="isolation:auto;mix-blend-mode:normal" d="M-1.01 1026.824l-11.94.01-11.936-.01 5.984 5.625 5.953 5.635 5.955-5.636zM-8.04 1052.6l-4.91-.002-4.91.003 2.462-1.673 2.45-1.676 2.448 1.677z" overflow="visible"/><path style="isolation:auto;mix-blend-mode:normal" overflow="visible" d="M-13.922 1032.873h1.945v17.28h-1.945z"/></g><path d="M-22.057 1027.8H-3.71l-8.718 8.39h-.878z" fill="url(#j)" fill-rule="evenodd"/><path d="M-16.66 1052.58h7.423l-3.57-2.374h-.274z" fill="gray" fill-rule="evenodd"/><circle r="1.477" cy="1032.935" cx="-11.871" style="isolation:auto;mix-blend-mode:normal" color="#000" overflow="visible" fill="#cf0"/></g></svg>