<svg xmlns="http://www.w3.org/2000/svg" xmlns:xlink="http://www.w3.org/1999/xlink" width="24" height="24" viewBox="0 0 24 24"><defs><linearGradient id="f"><stop offset="0" stop-color="#173814"/><stop offset="1" stop-color="#173814" stop-opacity="0"/></linearGradient><linearGradient id="a"><stop offset="0" stop-color="#177217" stop-opacity=".996"/><stop offset="1" stop-color="#4eab46" stop-opacity=".996"/></linearGradient><linearGradient id="b"><stop offset="0"/><stop offset="1" stop-opacity="0"/></linearGradient><linearGradient id="d"><stop offset="0" stop-color="#1f58b6"/><stop offset="1" stop-color="#7aa4e8"/></linearGradient><radialGradient xlink:href="#a" id="g" cx="6.393" cy="15.165" fx="6.393" fy="15.165" r="11.932" gradientUnits="userSpaceOnUse" gradientTransform="matrix(1.4121 -1.10457 1.0703 1.3683 -14.652 5.117)"/><linearGradient xlink:href="#b" id="h" x1="4.943" y1="20.047" x2="30.151" y2="-6.266" gradientUnits="userSpaceOnUse"/><radialGradient xlink:href="#d" id="c" gradientUnits="userSpaceOnUse" gradientTransform="matrix(1.4121 -1.10457 1.0703 1.3683 -14.652 5.117)" cx="6.393" cy="15.165" fx="6.393" fy="15.165" r="11.932"/><radialGradient xlink:href="#d" id="e" gradientUnits="userSpaceOnUse" gradientTransform="matrix(1.4121 -1.10457 1.0703 1.3683 -14.652 5.117)" cx="6.393" cy="15.165" fx="6.393" fy="15.165" r="11.932"/><clipPath id="i"><circle style="isolation:auto;mix-blend-mode:normal" cx="11.999" cy="1040.408" r="10.982" color="#000" overflow="visible" fill="red" fill-opacity=".996" stroke-opacity=".428"/></clipPath><linearGradient xlink:href="#f" id="j" x1="12.065" y1="1043.744" x2="12.065" y2="1050.02" gradientUnits="userSpaceOnUse"/></defs><g color="#000" fill-rule="evenodd"><path d="M23.932 12A11.932 11.932 0 0 1 12 23.932 11.932 11.932 0 0 1 .068 12 11.932 11.932 0 0 1 12 .068 11.932 11.932 0 0 1 23.932 12z" style="isolation:auto;mix-blend-mode:normal" overflow="visible" fill="url(#g)"/><path d="M12.047.006C5.437.006.067 5.374.067 11.984c0 6.61 5.37 11.98 11.98 11.98s11.978-5.37 11.978-11.98S18.657.006 12.047.006zm0 .963c6.09 0 11.015 4.925 11.015 11.014 0 6.09-4.926 11.016-11.015 11.016A11.008 11.008 0 0 1 1.03 11.984C1.03 5.894 5.958.97 12.048.97z" style="line-height:normal;text-indent:0;text-align:start;text-decoration-line:none;text-decoration-style:solid;text-decoration-color:#000;text-transform:none;block-progression:tb;isolation:auto;mix-blend-mode:normal" font-weight="400" font-family="sans-serif" white-space="normal" overflow="visible" opacity=".096" fill="url(#h)"/></g><path style="isolation:auto;mix-blend-mode:normal" d="M.088 1044.893s5.847-1.812 11.756-1.812c6.307 0 12.02 1.813 12.02 1.813v7.47H.09z" clip-path="url(#i)" color="#000" overflow="visible" fill="url(#j)" transform="translate(0 -1028.362)"/><path d="M4.478 17.23v-2.056H3.77v-2.058h16.46v2.058h-.708v4.117h-1.35v-4.116h-.708V17.94h-1.351v-2.766H7.886V17.94H6.537v-2.766h-.708v4.117h-1.35v-2.06zm1.35-5.142v-.32h-1.35v-1.415h1.35V9.71h-1.35V8.296h1.35v-.642h-1.35V6.237h1.35v-.643h1.35v.642h9.644v-.642h1.35v.642h1.35v1.416h-1.35v.643h1.35V9.71h-1.35v.643h1.35v1.414h-1.35v.643h-1.35v-.642H7.178v.642h-1.35v-.322zm10.994-2.057v-.32H7.178v.643h9.644v-.322zm0-2.056v-.32H7.178v.642h9.644v-.322z" fill="#173814" fill-opacity=".996"/><path d="M4.478 16.524v-2.057H3.77V12.41h16.46v2.057h-.708v4.115h-1.35v-4.115h-.708v2.764h-1.351v-2.766H7.886v2.764H6.537v-2.766h-.708v4.115h-1.35v-2.058zm1.35-5.143v-.32h-1.35V9.646h1.35v-.642h-1.35V7.588h1.35v-.643h-1.35V5.528h1.35V4.89h1.35v.642h9.644V4.89h1.35v.642h1.35v1.416h-1.35v.643h1.35V9.002h-1.35v.643h1.35v1.414h-1.35v.643h-1.35v-.642H7.178v.643h-1.35v-.322zm10.994-2.056v-.32H7.178v.642h9.644v-.322zm0-2.057v-.32H7.178v.642h9.644v-.323z" fill="#fff"/></svg>