<svg xmlns="http://www.w3.org/2000/svg" xmlns:xlink="http://www.w3.org/1999/xlink" width="24" height="24" viewBox="0 0 24 24"><defs><linearGradient id="f"><stop offset="0" stop-color="#173814"/><stop offset="1" stop-color="#173814" stop-opacity="0"/></linearGradient><linearGradient id="a"><stop offset="0" stop-color="#177217" stop-opacity=".996"/><stop offset="1" stop-color="#4eab46" stop-opacity=".996"/></linearGradient><linearGradient id="b"><stop offset="0"/><stop offset="1" stop-opacity="0"/></linearGradient><linearGradient id="d"><stop offset="0" stop-color="#1f58b6"/><stop offset="1" stop-color="#7aa4e8"/></linearGradient><radialGradient xlink:href="#a" id="g" cx="6.393" cy="15.165" fx="6.393" fy="15.165" r="11.932" gradientUnits="userSpaceOnUse" gradientTransform="matrix(1.4121 -1.10457 1.0703 1.3683 -14.652 5.117)"/><linearGradient xlink:href="#b" id="h" x1="4.943" y1="20.047" x2="30.151" y2="-6.266" gradientUnits="userSpaceOnUse"/><radialGradient xlink:href="#d" id="c" gradientUnits="userSpaceOnUse" gradientTransform="matrix(1.4121 -1.10457 1.0703 1.3683 -14.652 5.117)" cx="6.393" cy="15.165" fx="6.393" fy="15.165" r="11.932"/><radialGradient xlink:href="#d" id="e" gradientUnits="userSpaceOnUse" gradientTransform="matrix(1.4121 -1.10457 1.0703 1.3683 -14.652 5.117)" cx="6.393" cy="15.165" fx="6.393" fy="15.165" r="11.932"/><clipPath id="i"><circle style="isolation:auto;mix-blend-mode:normal" cx="11.999" cy="1040.408" r="10.982" color="#000" overflow="visible" fill="red" fill-opacity=".996" stroke-opacity=".428"/></clipPath><linearGradient xlink:href="#f" id="j" x1="12.065" y1="1043.744" x2="12.065" y2="1050.02" gradientUnits="userSpaceOnUse"/></defs><g color="#000" fill-rule="evenodd"><path d="M23.932 12A11.932 11.932 0 0 1 12 23.932 11.932 11.932 0 0 1 .068 12 11.932 11.932 0 0 1 12 .068 11.932 11.932 0 0 1 23.932 12z" style="isolation:auto;mix-blend-mode:normal" overflow="visible" fill="url(#g)"/><path d="M12.047.006C5.437.006.067 5.374.067 11.984c0 6.61 5.37 11.98 11.98 11.98s11.978-5.37 11.978-11.98S18.657.006 12.047.006zm0 .963c6.09 0 11.015 4.925 11.015 11.014 0 6.09-4.926 11.016-11.015 11.016A11.008 11.008 0 0 1 1.03 11.984C1.03 5.894 5.958.97 12.048.97z" style="line-height:normal;text-indent:0;text-align:start;text-decoration-line:none;text-decoration-style:solid;text-decoration-color:#000;text-transform:none;block-progression:tb;isolation:auto;mix-blend-mode:normal" font-weight="400" font-family="sans-serif" white-space="normal" overflow="visible" opacity=".096" fill="url(#h)"/></g><path style="isolation:auto;mix-blend-mode:normal" d="M.088 1044.893s5.847-1.812 11.756-1.812c6.307 0 12.02 1.813 12.02 1.813v7.47H.09z" clip-path="url(#i)" color="#000" overflow="visible" fill="url(#j)" transform="translate(0 -1028.362)"/><path d="M5.887 18.537c-.873-.12-1.61-.49-2.2-1.103a3.663 3.663 0 0 1-.98-1.91 4.39 4.39 0 0 1 0-1.253 3.663 3.663 0 0 1 3.347-3.022c.248-.018.71 0 .864.035l.07.015.34-1.12c.48-1.597.638-2.062.815-2.424.227-.463.42-.64.82-.75.114-.03.34-.046.91-.06.418-.012.766-.018.773-.014.007.01.01.168.005.364l-.007.357-.397.002c-.63 0-1.004.038-1.16.113-.137.067-.23.177-.3.354-.04.104-.267.892-.267.928 0 .01 1.442.018 3.206.014l3.207-.01.123-.34c.067-.187.113-.347.103-.357-.012-.01-.277-.07-.59-.137-.71-.15-.875-.2-.967-.294-.072-.07-.072-.074-.034-.165a.93.93 0 0 0 .038-.103c0-.01.727-.01 1.617-.01h1.617l.018.343c.01.19.012.35.003.36-.008.01-.204.02-.435.03l-.42.014-.124.338-.123.34.51 1.128c.28.622.51 1.134.516 1.14.004.01.13-.02.282-.057a3.594 3.594 0 0 1 1.604-.04 3.504 3.504 0 0 1 1.873 1.01 3.592 3.592 0 0 1 1.026 1.952c.06.328.06.917 0 1.252a3.663 3.663 0 0 1-3.345 3.023 3.648 3.648 0 0 1-3.318-1.634c-.24-.37-.377-.69-.53-1.244-.006-.024-.178-.032-.75-.032-.407 0-.815-.012-.906-.026-.388-.062-.562-.214-1.553-1.365a89.375 89.375 0 0 0-1.86-2.115c-.553-.605-1.278-1.38-1.285-1.372-.007.01-.262.804-.262.818 0 .01.094.057.208.115a3.696 3.696 0 0 1 1.958 2.642c.06.335.06.924 0 1.252A3.592 3.592 0 0 1 8.9 17.47a3.52 3.52 0 0 1-1.862 1.01c-.29.06-.89.086-1.152.05zm.824-.812c.412-.057.835-.218 1.202-.457.207-.135.616-.54.758-.753.76-1.13.65-2.568-.276-3.58-.228-.248-.835-.667-.885-.61-.01.012-.15.438-.306.946-.325 1.05-.51 1.605-.583 1.747-.072.143-.16.204-.3.204-.232 0-.382-.16-.383-.41 0-.17.064-.397.47-1.678.164-.515.302-.966.308-1.003l.012-.067-.224-.017c-.967-.075-1.94.393-2.522 1.212-.682.962-.69 2.256-.016 3.258.142.212.55.617.758.752.6.392 1.302.553 1.99.457zm11.798-.086c1.544-.296 2.575-1.845 2.25-3.382a2.76 2.76 0 0 0-.794-1.444 2.757 2.757 0 0 0-1.64-.81c-.407-.054-1.2.032-1.177.128.004.02.262.6.574 1.29.76 1.682.756 1.675.742 1.846-.01.11-.025.15-.08.197-.14.12-.182.124-1.73.115-.797-.01-1.45 0-1.45.01s.03.096.067.198a2.864 2.864 0 0 0 1.974 1.817c.402.104.852.118 1.264.04zm-1.027-2.806c0-.036-1.067-2.36-1.086-2.368-.04-.014-.302.2-.498.407a2.83 2.83 0 0 0-.783 1.746l-.017.194.25.01c.34.01 2.135.02 2.135.01zm-3.176-.214c.08-.932.412-1.683 1.03-2.324.137-.142.357-.336.49-.43.133-.094.237-.184.23-.2-.013-.033-.603-1.337-.65-1.44-.024-.05-.04-.06-.052-.038-.014.025-1.38 3.6-1.708 4.47l-.06.158h.702l.018-.196zm-.596-2.358c.488-1.31.887-2.394.887-2.404 0-.016-6.06-.013-6.212.01-.034.01.58.688 2.177 2.428 1.487 1.62 2.23 2.413 2.242 2.39.01-.017.418-1.105.906-2.417z" fill="#173814"/><path d="M5.81 17.704c-.873-.12-1.61-.49-2.2-1.102a3.663 3.663 0 0 1-.98-1.912 4.39 4.39 0 0 1 0-1.25 3.663 3.663 0 0 1 3.347-3.024c.25-.018.71 0 .865.035l.07.016.338-1.12c.483-1.598.64-2.062.816-2.424.227-.464.42-.64.82-.75.114-.03.34-.047.91-.062.42-.01.766-.017.773-.013.006.01.008.17.004.365l-.008.357h-.397c-.632 0-1.005.037-1.16.113-.138.067-.23.177-.3.354-.04.105-.268.893-.268.93 0 .01 1.444.017 3.207.013l3.206-.01.123-.34c.066-.187.113-.348.102-.357-.01-.01-.276-.07-.59-.138-.71-.15-.873-.2-.966-.293-.07-.07-.072-.074-.034-.165a.93.93 0 0 0 .04-.102c0-.01.727-.01 1.616-.01h1.617l.018.343c.01.19.012.35.003.358-.008.01-.204.022-.435.03l-.42.015-.123.34-.123.338.51 1.13c.278.62.51 1.134.515 1.14.003.01.13-.02.28-.057a3.594 3.594 0 0 1 1.605-.04 3.504 3.504 0 0 1 1.873 1.01 3.592 3.592 0 0 1 1.027 1.953c.06.328.06.917 0 1.252a3.663 3.663 0 0 1-3.347 3.023 3.648 3.648 0 0 1-3.318-1.634c-.24-.37-.377-.69-.53-1.244-.006-.024-.178-.032-.75-.032-.407 0-.815-.012-.905-.026-.39-.062-.564-.215-1.554-1.366a89.375 89.375 0 0 0-1.86-2.114c-.552-.604-1.278-1.38-1.285-1.37-.007.01-.262.803-.262.817 0 .01.094.055.208.112a3.696 3.696 0 0 1 1.96 2.643c.06.334.06.923 0 1.25a3.592 3.592 0 0 1-1.027 1.955 3.52 3.52 0 0 1-1.862 1.01c-.288.06-.89.086-1.15.05zm.824-.81c.41-.058.834-.22 1.2-.46.208-.133.617-.54.76-.75.76-1.13.648-2.57-.277-3.58-.228-.25-.835-.67-.885-.61-.01.01-.148.437-.305.945-.325 1.048-.51 1.603-.582 1.745-.074.143-.163.203-.302.203-.232 0-.382-.16-.382-.41 0-.17.064-.398.47-1.678.164-.515.302-.967.31-1.003l.01-.066-.224-.016c-.966-.075-1.938.393-2.52 1.212-.685.96-.692 2.256-.02 3.257.144.212.552.618.76.753.6.39 1.302.553 1.988.457zm11.797-.087c1.545-.296 2.576-1.844 2.252-3.38a2.76 2.76 0 0 0-.795-1.445 2.757 2.757 0 0 0-1.64-.81c-.407-.055-1.2.03-1.177.128.004.02.263.6.574 1.29.758 1.682.756 1.675.74 1.846-.008.11-.024.15-.078.197-.14.12-.183.123-1.73.114-.798-.01-1.45 0-1.45.01s.03.096.066.2a2.864 2.864 0 0 0 1.975 1.816c.402.104.853.118 1.264.04zM17.405 14c0-.035-1.067-2.36-1.087-2.366-.04-.014-.3.2-.498.406a2.83 2.83 0 0 0-.783 1.746l-.018.196.25.01c.34.01 2.134.02 2.134.01zm-3.177-.213c.08-.93.413-1.682 1.03-2.323.137-.143.358-.336.49-.43.133-.094.237-.184.23-.2-.013-.033-.602-1.337-.65-1.44-.023-.05-.04-.06-.052-.038-.014.025-1.38 3.6-1.707 4.47l-.06.158h.702l.017-.197zm-.596-2.357c.49-1.312.888-2.394.888-2.405 0-.016-6.06-.013-6.21.01-.036.01.578.69 2.175 2.43 1.487 1.62 2.23 2.41 2.242 2.39.01-.02.418-1.107.906-2.42z" fill="#fff"/></svg>