<?xml version="1.0" encoding="UTF-8"?>
<svg width="24" height="24" version="1.1" viewBox="0 0 24 24" xmlns="http://www.w3.org/2000/svg" xmlns:cc="http://creativecommons.org/ns#" xmlns:dc="http://purl.org/dc/elements/1.1/" xmlns:rdf="http://www.w3.org/1999/02/22-rdf-syntax-ns#" xmlns:xlink="http://www.w3.org/1999/xlink">
 <defs>
  <linearGradient id="linearGradient3061" x1="12.141" x2="12.141" y1="17.998" y2="23.256" gradientUnits="userSpaceOnUse">
   <stop stop-color="#9c9c9c" offset="0"/>
   <stop stop-color="#090909" offset="1"/>
  </linearGradient>
  <linearGradient id="linearGradient233" x1="11.827" x2="11.827" y1=".60943" y2="17.639" gradientUnits="userSpaceOnUse">
   <stop stop-color="#d8edef" offset="0"/>
   <stop stop-color="#fff" offset="1"/>
  </linearGradient>
 </defs>
 <metadata>
  <rdf:RDF>
   <cc:Work rdf:about="">
    <dc:format>image/svg+xml</dc:format>
    <dc:type rdf:resource="http://purl.org/dc/dcmitype/StillImage"/>
   </cc:Work>
  </rdf:RDF>
 </metadata>
 <circle cx="12" cy="12" r="11.932" color="#000000" color-rendering="auto" fill="url(#linearGradient233)" fill-rule="evenodd" image-rendering="auto" shape-rendering="auto" solid-color="#000000" style="isolation:auto;mix-blend-mode:normal"/>
 <path d="m22.484 17.703c-2.0231 3.7113-5.9595 6.2296-10.484 6.2296-4.526 0-8.4635-2.5199-10.486-6.2333z" color="#000000" color-rendering="auto" fill="url(#linearGradient3061)" fill-rule="evenodd" image-rendering="auto" shape-rendering="auto" solid-color="#000000" style="isolation:auto;mix-blend-mode:normal"/>
 <g transform="matrix(.29771 0 0 .29771 35.887 6.5046)">
  <path d="m-56.474 8.8714a14.397 14.397 0 0 0-14.334 14.397 14.397 14.397 0 0 0 14.397 14.397 14.397 14.397 0 0 0 14.397-14.397 14.397 14.397 0 0 0-14.397-14.397 14.397 14.397 0 0 0-0.0629 0zm0.0414 3.8322a10.565 10.565 0 0 1 0.0216 0 10.565 10.565 0 0 1 10.565 10.565 10.565 10.565 0 0 1-10.565 10.565 10.565 10.565 0 0 1-10.566-10.565 10.565 10.565 0 0 1 10.544-10.565z" fill="#333" stop-color="#000000" style="paint-order:stroke fill markers"/>
  <path d="m-104.17 8.8458a14.397 14.397 0 0 0-14.334 14.397 14.397 14.397 0 0 0 14.397 14.397 14.397 14.397 0 0 0 14.397-14.397 14.397 14.397 0 0 0-14.397-14.397 14.397 14.397 0 0 0-0.0626 0zm0.0414 3.8319a10.565 10.565 0 0 1 0.0213 0 10.565 10.565 0 0 1 10.566 10.565 10.565 10.565 0 0 1-10.566 10.566 10.565 10.565 0 0 1-10.565-10.566 10.565 10.565 0 0 1 10.544-10.565z" fill="#333" stop-color="#000000" style="paint-order:stroke fill markers"/>
  <path d="m-66.168-6.1618-3.9557 4.2197s-0.79511 0.78914-0.74154 1.4231c0.0536 0.63393 0.581 1.9516 0.581 1.9516l1.1084 2.7952-19.095 0.10547-1.8954-4.0073-3.2182-1.5833-1.6894 2.7433 2.3735 4.7989-11.496 14.768 1.7922 4.0084 23.314 5.2745 11.917-19.515 2.1096 5.3275s1.2692 2.1616 2.0603 3.0586c0.79115 0.897 4.0588 3.5868 4.0588 3.5868l2.6908 0.6859-0.10722-2.532-3.5848-4.6416-6.4365-17.721 4.1165-4.5358zm-25.424 14.715 7.8045 16.72-17.616-2.6897-0.52739-0.47523zm5.4344 0.36946 14.397 0.10548-7.8581 13.977z" fill="#ff2a2a"/>
  <g fill="#333">
   <path d="m-99.599-5.3704h15.127s0.53156 0.0521 0.42442 0.68492c-0.10714 0.63277-2.5836 2.7488-2.5836 2.7488l-3.4819 2.2091-5.1178 1.5298s-0.20603 0.21208-1.4216-0.15761-4.3266-2.3213-4.8005-3.7978c-0.23884-0.74418-0.35322-1.45 0.0127-2.1772 0.42433-0.77537 0.96829-0.93114 1.8415-1.0399z"/>
   <circle cx="-80.069" cy="28.185" r="4.8484" stop-color="#000000" style="paint-order:stroke fill markers"/>
   <rect x="-76.633" y="-9.4599" width="16.262" height="3.4919" ry="1.2818" stop-color="#000000" style="paint-order:stroke fill markers"/>
  </g>
  <circle cx="-56.411" cy="23.269" r="3.1248" fill="#ff2a2a" stop-color="#000000" style="paint-order:stroke fill markers"/>
  <circle cx="-104.11" cy="23.243" r="3.1248" fill="#ff2a2a" stop-color="#000000" style="paint-order:stroke fill markers"/>
 </g>
</svg>
