<svg xmlns="http://www.w3.org/2000/svg" xmlns:xlink="http://www.w3.org/1999/xlink" width="24" height="24" viewBox="0 0 24 24"><defs><linearGradient id="a"><stop offset="0" stop-color="#177217" stop-opacity=".996"/><stop offset="1" stop-color="#4eab46" stop-opacity=".996"/></linearGradient><linearGradient id="b"><stop offset="0"/><stop offset="1" stop-opacity="0"/></linearGradient><linearGradient id="d"><stop offset="0" stop-color="#1f58b6"/><stop offset="1" stop-color="#7aa4e8"/></linearGradient><radialGradient xlink:href="#a" id="f" cx="6.393" cy="15.165" fx="6.393" fy="15.165" r="11.932" gradientUnits="userSpaceOnUse" gradientTransform="matrix(1.4121 -1.10457 1.0703 1.3683 -14.652 5.117)"/><linearGradient xlink:href="#b" id="g" x1="4.943" y1="20.047" x2="30.151" y2="-6.266" gradientUnits="userSpaceOnUse"/><radialGradient xlink:href="#d" id="c" gradientUnits="userSpaceOnUse" gradientTransform="matrix(1.4121 -1.10457 1.0703 1.3683 -14.652 5.117)" cx="6.393" cy="15.165" fx="6.393" fy="15.165" r="11.932"/><radialGradient xlink:href="#d" id="e" gradientUnits="userSpaceOnUse" gradientTransform="matrix(1.4121 -1.10457 1.0703 1.3683 -14.652 5.117)" cx="6.393" cy="15.165" fx="6.393" fy="15.165" r="11.932"/><clipPath id="h"><circle style="isolation:auto;mix-blend-mode:normal" cx="11.999" cy="12.001" r="10.96" color="#000" overflow="visible" fill="maroon" stroke-opacity=".428"/></clipPath></defs><g color="#000" fill-rule="evenodd"><path d="M23.932 12A11.932 11.932 0 0 1 12 23.932 11.932 11.932 0 0 1 .068 12 11.932 11.932 0 0 1 12 .068 11.932 11.932 0 0 1 23.932 12z" style="isolation:auto;mix-blend-mode:normal" overflow="visible" fill="url(#f)"/><path d="M12.047.006C5.437.006.067 5.374.067 11.984c0 6.61 5.37 11.98 11.98 11.98s11.978-5.37 11.978-11.98S18.657.006 12.047.006zm0 .963c6.09 0 11.015 4.925 11.015 11.014 0 6.09-4.926 11.016-11.015 11.016A11.008 11.008 0 0 1 1.03 11.984C1.03 5.894 5.958.97 12.048.97z" style="line-height:normal;text-indent:0;text-align:start;text-decoration-line:none;text-decoration-style:solid;text-decoration-color:#000;text-transform:none;block-progression:tb;isolation:auto;mix-blend-mode:normal" font-weight="400" font-family="sans-serif" white-space="normal" overflow="visible" opacity=".096" fill="url(#g)"/></g><g transform="matrix(.5966 0 0 .5966 -12.14 -610.173)"><path transform="matrix(1.67612 0 0 1.67612 20.568 1022.78)" style="isolation:auto;mix-blend-mode:normal" d="M3.756 17.37a.66.66 0 0 0-.662.663c0 .01.005.02.006.03h-.006v6H21.03v-6c.002-.01.007-.02.007-.03a.662.662 0 0 0-.664-.662H3.756z" clip-path="url(#h)" color="#000" overflow="visible" fill="#250"/><path d="M23.166 1047.727c.175-.33.483-.6.848-.746.093-.036 1.277-.33 2.63-.65l2.462-.58.036-.206c.3-1.708.82-4.327.89-4.475.24-.502.632-.922 1.123-1.2.272-.154.833-.33 3.057-.967 1.498-.43 2.727-.79 2.73-.803.014-.015-.6-.41-1.344-.88-1.32-.836-1.595-1.038-1.694-1.24-.028-.054-.04-1.185-.03-2.58.014-1.542 0-2.575-.033-2.728-.114-.482.162-1.066.6-1.3.434-.232 1.01-.18 1.366.127.35.298.338.192.296 2.89-.034 2.15-.028 2.454.044 2.51.045.036 1.22.74 2.612 1.563 1.392.824 2.617 1.572 2.723 1.663.108.09.27.263.36.382.418.535 5.888 7.952 5.995 8.126a1.2 1.2 0 0 1 .155.83c-.068.54-.595 1.008-1.15 1.022-.364.01-.676-.11-.893-.343-.092-.097-1.075-1.407-2.186-2.912-1.11-1.503-2.04-2.75-2.064-2.767-.043-.032-5.857 1.527-5.865 1.572-.012.014.678.907 1.51 1.988.865 1.123 1.547 2.05 1.592 2.164.137.346.158.687.035 1.1-.112.414-2.006 6.235-2.133 6.555-.534 1.35-2.475 1.305-2.946-.065-.183-.536-.204-.447.858-3.754.886-2.757.94-2.94.888-3.024-.175-.292-3.103-4.083-3.126-4.047-.016.023-.14.637-.276 1.364-.136.726-.28 1.387-.318 1.468-.11.23-.358.484-.614.628-.172.097-.97.308-3.036.8-1.54.368-3.01.71-3.263.76-.444.09-.474.088-.85-.01-.326-.087-.42-.13-.594-.276-.564-.472-.74-1.325-.404-1.956zm18.268-13.094c.346-.61 1.01-1.098 1.68-1.232 1.14-.226 2.178.235 2.744 1.22.367.638.443 1.205.257 1.917-.186.715-.532 1.165-1.196 1.555-.454.266-.836.367-1.344.354-1.316-.035-2.4-1.106-2.465-2.433-.02-.43.117-1.016.323-1.38z" fill="#193e00"/><circle cx="50.628" cy="1053.222" r="2.436" fill="#fff"/><path d="M23.202 1045.983c.175-.328.483-.6.85-.746.092-.037 1.275-.33 2.63-.65l2.46-.58.036-.206c.3-1.707.822-4.327.892-4.475.238-.5.63-.92 1.12-1.2.273-.152.835-.33 3.058-.966 1.498-.43 2.727-.79 2.73-.804.015-.015-.6-.41-1.343-.88-1.32-.836-1.595-1.038-1.695-1.24-.027-.054-.04-1.185-.028-2.58.013-1.542 0-2.575-.034-2.728-.116-.482.16-1.066.597-1.3.435-.232 1.01-.18 1.368.127.348.3.337.193.296 2.89-.035 2.152-.03 2.455.042 2.512.046.035 1.22.738 2.613 1.562 1.392.823 2.617 1.57 2.723 1.662.106.09.268.263.36.382.417.535 5.887 7.952 5.994 8.127a1.2 1.2 0 0 1 .155.83c-.07.54-.596 1.008-1.15 1.022-.364.01-.676-.11-.894-.343-.09-.098-1.074-1.408-2.185-2.913-1.11-1.504-2.04-2.75-2.065-2.768-.043-.033-5.857 1.526-5.865 1.57-.013.015.677.908 1.51 1.99.864 1.122 1.546 2.05 1.59 2.163.137.346.158.687.036 1.1-.113.414-2.007 6.236-2.134 6.555-.533 1.35-2.474 1.305-2.945-.065-.184-.535-.204-.447.858-3.754.885-2.758.94-2.94.888-3.025-.174-.29-3.102-4.08-3.125-4.046-.016.022-.14.636-.276 1.363-.138.726-.28 1.387-.32 1.468-.108.23-.357.485-.613.63-.173.096-.97.307-3.036.8-1.54.367-3.01.71-3.262.76-.445.088-.476.087-.85-.01-.328-.088-.42-.13-.596-.277-.563-.472-.738-1.324-.403-1.956zm18.268-13.093c.346-.612 1.01-1.1 1.68-1.233 1.14-.227 2.178.234 2.745 1.22.366.637.442 1.204.257 1.916-.187.715-.533 1.165-1.196 1.555-.454.267-.835.367-1.343.354-1.317-.035-2.4-1.105-2.465-2.433-.02-.43.116-1.016.322-1.38z" fill="#fff"/></g></svg>