<svg xmlns="http://www.w3.org/2000/svg" xmlns:xlink="http://www.w3.org/1999/xlink" width="24" height="24" viewBox="0 0 24 24"><defs><linearGradient id="g"><stop offset="0"/><stop offset=".3"/><stop offset=".5" stop-color="#ff1212"/><stop offset=".698"/><stop offset="1"/></linearGradient><linearGradient id="f"><stop offset="0" stop-color="#c1f0ff"/><stop offset="1" stop-color="#fff"/></linearGradient><linearGradient id="a"><stop offset="0" stop-color="#e35f00" stop-opacity=".996"/><stop offset="1" stop-color="#ff950d" stop-opacity=".996"/></linearGradient><linearGradient id="b"><stop offset="0"/><stop offset="1" stop-opacity="0"/></linearGradient><linearGradient id="d"><stop offset="0" stop-color="#1f58b6"/><stop offset="1" stop-color="#7aa4e8"/></linearGradient><radialGradient xlink:href="#a" id="h" cx="6.393" cy="15.165" fx="6.393" fy="15.165" r="11.932" gradientUnits="userSpaceOnUse" gradientTransform="matrix(1.4121 -1.10457 1.0703 1.3683 -14.652 5.117)"/><linearGradient xlink:href="#b" id="i" x1="4.943" y1="20.047" x2="30.151" y2="-6.266" gradientUnits="userSpaceOnUse"/><radialGradient xlink:href="#d" id="c" gradientUnits="userSpaceOnUse" gradientTransform="matrix(1.4121 -1.10457 1.0703 1.3683 -14.652 5.117)" cx="6.393" cy="15.165" fx="6.393" fy="15.165" r="11.932"/><radialGradient xlink:href="#d" id="e" gradientUnits="userSpaceOnUse" gradientTransform="matrix(1.4121 -1.10457 1.0703 1.3683 -14.652 5.117)" cx="6.393" cy="15.165" fx="6.393" fy="15.165" r="11.932"/><linearGradient xlink:href="#f" id="k" x1="41.852" y1="1027.879" x2="41.852" y2="1031.679" gradientUnits="userSpaceOnUse" gradientTransform="matrix(.952 0 0 1.00844 -25.185 .886)"/><linearGradient xlink:href="#g" id="l" x1="40.968" y1="1025.05" x2="40.968" y2="1026.951" gradientUnits="userSpaceOnUse" gradientTransform="translate(-27.187 9.585)"/><clipPath id="j"><circle style="isolation:auto;mix-blend-mode:normal" cx="12" cy="1040.362" r="11.081" color="#000" overflow="visible" fill="red" fill-rule="evenodd" stroke-linecap="square" stroke-dashoffset=".85"/></clipPath></defs><g color="#000" fill-rule="evenodd"><path d="M23.932 12A11.932 11.932 0 0 1 12 23.932 11.932 11.932 0 0 1 .068 12 11.932 11.932 0 0 1 12 .068 11.932 11.932 0 0 1 23.932 12z" style="isolation:auto;mix-blend-mode:normal" overflow="visible" fill="url(#h)"/><path d="M12.047.006C5.437.006.067 5.374.067 11.984c0 6.61 5.37 11.98 11.98 11.98s11.978-5.37 11.978-11.98S18.657.006 12.047.006zm0 .963c6.09 0 11.015 4.925 11.015 11.014 0 6.09-4.926 11.016-11.015 11.016A11.008 11.008 0 0 1 1.03 11.984C1.03 5.894 5.958.97 12.048.97z" style="line-height:normal;text-indent:0;text-align:start;text-decoration-line:none;text-decoration-style:solid;text-decoration-color:#000;text-transform:none;block-progression:tb;isolation:auto;mix-blend-mode:normal" font-weight="400" font-family="sans-serif" white-space="normal" overflow="visible" opacity=".096" fill="url(#i)"/></g><g transform="translate(0 -1028.362)"><path style="isolation:auto;mix-blend-mode:normal" color="#000" overflow="visible" fill="none" d="M34.72 1021.018h15.718v16.28h-15.72z"/><ellipse transform="translate(-.03 -.08)" style="isolation:auto;mix-blend-mode:normal" cx="12.226" cy="1055.095" rx="14.844" ry="12.969" clip-path="url(#j)" color="#000" overflow="visible" fill="#803300" fill-opacity=".996" fill-rule="evenodd"/><g transform="translate(-5.01 -178.773) scale(1.17093)"><path d="M10.412 1048.907c-.37-.096-.68-.4-.8-.788-.025-.08-.035-.192-.04-.5l-.01-.396-.268-.01c-.21-.01-.293-.018-.376-.048a1.126 1.126 0 0 1-.635-.56c-.14-.288-.13.15-.125-5.517.005-4.76.007-5.082.037-5.19a1.72 1.72 0 0 1 .42-.765c.233-.246.47-.39.818-.5l.16-.05 1.52-.01 1.518-.01v-.068c.002-.2.11-.49.255-.683.155-.205.413-.374.674-.44.13-.035.205-.038.97-.038s.84 0 .97.037c.338.086.627.31.78.602.084.163.15.386.15.512v.08h1.463c.936 0 1.506.01 1.582.02a1.72 1.72 0 0 1 1.38 1.276l.042.163v10.258l-.038.113c-.11.317-.318.556-.602.693-.21.1-.306.12-.582.12h-.22v.344c0 .41-.022.537-.13.755-.14.286-.415.51-.723.588a1.144 1.144 0 0 1-1.36-.71c-.048-.12-.05-.144-.06-.547l-.01-.42-2.666-.012-2.665-.01v.366c0 .41-.014.502-.102.694-.113.245-.294.43-.545.557-.22.11-.524.138-.783.07zm-.252-3.056a.978.978 0 0 0 .462-.272.96.96 0 0 0 .302-.707.98.98 0 0 0-.285-.694.97.97 0 0 0-.734-.315 1.01 1.01 0 0 0-.884 1.497c.12.226.39.436.64.496.136.034.365.03.498 0zm9.21.01c.346-.07.653-.363.758-.722.045-.154.04-.404-.008-.56a1.04 1.04 0 0 0-.75-.698 1.27 1.27 0 0 0-.564.038c-.407.154-.67.528-.67.954 0 .45.302.848.743.975.126.037.35.043.49.014zm.07-3.752a.858.858 0 0 0 .395-.235.847.847 0 0 0 .237-.41c.04-.155.04-2.716 0-2.873a.896.896 0 0 0-.643-.645c-.097-.025-.655-.027-4.882-.027-4.226 0-4.785 0-4.88.027a.897.897 0 0 0-.643.645c-.04.157-.04 2.718 0 2.874.074.285.274.51.54.614.057.022.12.042.14.047.02.01 2.195.01 4.835.01 4.365 0 4.81 0 4.9-.027zm-.01-4.853a.95.95 0 0 0 .644-.648 1.5 1.5 0 0 0-.003-.552.93.93 0 0 0-.45-.57c-.208-.106.1-.1-5.08-.1-5.316 0-4.88-.01-5.11.13-.28.167-.432.45-.432.808 0 .27.06.462.202.638.082.103.28.235.414.278.105.034.25.035 4.925.036 3.39 0 4.838-.01 4.89-.02z" fill="#301300"/><path d="M10.416 1048.15c-.37-.097-.68-.402-.8-.79-.026-.077-.035-.19-.04-.497l-.01-.397-.27-.01c-.208-.01-.29-.018-.374-.048a1.126 1.126 0 0 1-.636-.558c-.14-.29-.13.15-.125-5.518.007-4.76.01-5.08.04-5.19a1.72 1.72 0 0 1 .42-.765c.23-.246.468-.39.816-.5l.16-.05 1.52-.01 1.518-.01v-.068c.002-.2.11-.49.255-.683.153-.206.41-.374.673-.44.13-.035.206-.038.97-.038.765 0 .84 0 .97.036.338.086.628.31.78.6.085.164.15.387.15.513v.08h1.463c.937 0 1.507.01 1.583.02a1.72 1.72 0 0 1 1.38 1.275l.04.163v10.258l-.038.113c-.11.316-.316.556-.6.692-.21.1-.306.12-.582.12h-.22v.344c0 .41-.022.537-.13.755-.14.29-.415.512-.723.59a1.144 1.144 0 0 1-1.36-.71c-.05-.12-.05-.143-.06-.547l-.01-.422-2.666-.01-2.665-.01v.367c0 .408-.013.5-.1.693-.114.245-.295.43-.546.558-.22.11-.525.138-.784.07zm-.252-3.057a.978.978 0 0 0 .462-.273.96.96 0 0 0 .3-.707.98.98 0 0 0-.283-.695.97.97 0 0 0-.734-.314 1.01 1.01 0 0 0-.884 1.495c.12.225.39.435.64.496.136.034.365.03.498 0zm9.21.01c.346-.07.653-.364.758-.723.045-.153.04-.404-.008-.56a1.04 1.04 0 0 0-.75-.698 1.27 1.27 0 0 0-.565.038c-.408.154-.67.53-.67.954 0 .452.302.848.743.975.127.036.35.042.49.013zm.07-3.753a.858.858 0 0 0 .395-.234.847.847 0 0 0 .236-.41c.04-.156.04-2.717 0-2.873a.896.896 0 0 0-.644-.646c-.095-.025-.654-.027-4.88-.027s-4.785 0-4.88.027a.897.897 0 0 0-.644.646c-.04.156-.04 2.717 0 2.874.074.284.274.51.542.614.055.023.117.043.138.048.02.01 2.196.01 4.836.01 4.365 0 4.81 0 4.9-.027zm-.01-4.853a.95.95 0 0 0 .643-.647 1.5 1.5 0 0 0-.002-.552.93.93 0 0 0-.45-.57c-.21-.107.098-.1-5.082-.1-5.315 0-4.88-.01-5.11.128-.28.17-.432.453-.432.81 0 .268.063.46.204.637.082.102.28.235.413.277.106.034.25.035 4.926.036 3.392 0 4.84-.01 4.89-.02z" fill="#f9f9f9"/><path d="M9.427 1046.453l.01.42c.006.34.017.464.044.55.136.43.48.768.888.874v-.023a1.3 1.3 0 0 0 .866-.077c.28-.14.48-.347.603-.618.098-.214.113-.317.113-.77v-.355H9.427z" fill="gray"/><rect style="isolation:auto;mix-blend-mode:normal" width="11.476" height="3.977" x="8.763" y="1042.101" ry=".854" color="#000" overflow="visible" fill="gray" fill-opacity=".996"/><path d="M10.877 1044.723a.978.978 0 0 0 .462-.273.96.96 0 0 0 .3-.708.98.98 0 0 0-.283-.695.97.97 0 0 0-.734-.314 1.01 1.01 0 0 0-.884 1.496c.12.225.39.434.64.495.136.034.364.03.497 0zM18.755 1044.744c.348-.07.655-.364.76-.723.044-.153.04-.403-.01-.56a1.04 1.04 0 0 0-.75-.697 1.27 1.27 0 0 0-.563.038c-.407.155-.67.53-.67.955 0 .45.302.848.743.975.128.037.35.043.49.014z" fill="#ff0"/><path d="M19.578 1041.846a.867.867 0 0 0 .407-.292c.127-.153.2-.306.245-.508.042-.194-.186-3.374-.227-3.57-.082-.394-.323-.698-.637-.8-.094-.03-.648-.034-4.835-.034-4.186 0-4.74 0-4.834.034-.313.103-.555.406-.637.8-.04.195-.27 3.376-.227 3.57.076.353.282.634.558.763.06.026.123.05.143.056.02.013 2.267.013 4.99.013 4.503 0 4.96 0 5.055-.035z" fill="#535353"/><path d="M19.197 1041.362a.806.806 0 0 0 .376-.237.867.867 0 0 0 .225-.412c.04-.158-.172-2.74-.21-2.898-.075-.322-.297-.568-.587-.65-.086-.026-.597-.028-4.46-.028-3.864 0-4.375 0-4.462.027a.867.867 0 0 0-.588.65c-.037.158-.247 2.74-.208 2.9.07.285.26.514.515.618.053.022.112.042.13.047.02.01 2.092.01 4.606.01 4.155 0 4.578 0 4.664-.028z" fill="url(#k)"/><path d="M19.422 1036.5a.95.95 0 0 0 .644-.648 1.5 1.5 0 0 0-.002-.552.93.93 0 0 0-.45-.57c-.21-.106.098-.1-5.082-.1-5.315 0-4.88-.01-5.11.13-.28.167-.432.45-.432.808 0 .27.06.462.203.638.08.102.28.234.413.277.106.034.25.035 4.926.036 3.392 0 4.838-.012 4.89-.02z" fill="url(#l)"/><circle r="1.016" cy="1040.378" cx="17.234" style="isolation:auto;mix-blend-mode:normal" color="#000" overflow="visible" fill="#717171"/><path d="M17.083 1046.468l.01.42c.006.34.017.464.044.55.135.43.477.768.886.874v-.023a1.3 1.3 0 0 0 .867-.078c.278-.14.48-.347.603-.618.098-.213.113-.316.113-.768v-.356h-2.523z" fill="gray"/></g></g></svg>