<?xml version="1.0" encoding="UTF-8"?>
<!-- Created with Inkscape (http://www.inkscape.org/) -->
<svg width="24" height="24" version="1.1" viewBox="0 0 24 24" xmlns="http://www.w3.org/2000/svg" xmlns:cc="http://creativecommons.org/ns#" xmlns:dc="http://purl.org/dc/elements/1.1/" xmlns:rdf="http://www.w3.org/1999/02/22-rdf-syntax-ns#" xmlns:xlink="http://www.w3.org/1999/xlink">
 <defs>
  <radialGradient id="radialGradient14151" cx="6.3932" cy="15.165" r="11.932" gradientTransform="matrix(1.4121 -1.1046 1.0703 1.3683 -14.652 5.1167)" gradientUnits="userSpaceOnUse">
   <stop stop-color="#0081e3" stop-opacity=".99608" offset="0"/>
   <stop stop-color="#92c5e6" stop-opacity=".99608" offset="1"/>
  </radialGradient>
  <linearGradient id="linearGradient14183" x1="4.9426" x2="30.151" y1="20.047" y2="-6.2656" gradientUnits="userSpaceOnUse">
   <stop offset="0"/>
   <stop stop-opacity="0" offset="1"/>
  </linearGradient>
  <linearGradient id="linearGradient925" x1="38.325" x2="43.739" y1="1053.1" y2="1047.7" gradientUnits="userSpaceOnUse">
   <stop stop-color="#f3f3f3" offset="0"/>
   <stop stop-color="#e6e6e6" stop-opacity=".97881" offset=".03896"/>
   <stop stop-color="#e6e6e6" offset=".22743"/>
   <stop stop-color="#c4c4c4" offset=".38791"/>
   <stop stop-color="#fbfbfb" offset=".62864"/>
   <stop stop-color="#e6e6e6" offset=".85145"/>
   <stop stop-color="#b0b0b0" stop-opacity=".97458" offset="1"/>
  </linearGradient>
 </defs>
 <metadata>
  <rdf:RDF>
   <cc:Work rdf:about="">
    <dc:format>image/svg+xml</dc:format>
    <dc:type rdf:resource="http://purl.org/dc/dcmitype/StillImage"/>
    <dc:title/>
   </cc:Work>
  </rdf:RDF>
 </metadata>
 <g>
  <g fill-rule="evenodd" shape-rendering="auto">
   <path d="m23.932 12a11.932 11.932 0 0 1-11.932 11.932 11.932 11.932 0 0 1-11.932-11.932 11.932 11.932 0 0 1 11.932-11.932 11.932 11.932 0 0 1 11.932 11.932z" color="#000000" color-rendering="auto" fill="url(#radialGradient14151)" image-rendering="auto" solid-color="#000000" style="isolation:auto;mix-blend-mode:normal"/>
   <path d="m12.047 0.0058594c-6.6103-1e-7 -11.979 5.3682-11.979 11.979 0 6.6103 5.3682 11.979 11.979 11.979 6.6103 0 11.979-5.3682 11.979-11.979 0-6.6103-5.3682-11.979-11.979-11.979zm0 0.96289c6.0895 0 11.016 4.9261 11.016 11.016s-4.9261 11.016-11.016 11.016-11.016-4.9261-11.016-11.016c-1e-7 -6.0895 4.9261-11.016 11.016-11.016z" color="#000000" color-rendering="auto" fill="url(#linearGradient14183)" image-rendering="auto" opacity=".096" solid-color="#000000" style="block-progression:tb;isolation:auto;mix-blend-mode:normal;text-decoration-color:#000000;text-decoration-line:none;text-decoration-style:solid;text-indent:0;text-transform:none;white-space:normal"/>
  </g>
 </g>
 <g transform="translate(0 -1028.4)">
  <g transform="translate(-.48614)">
   <g transform="translate(-.088388)">
    <g transform="matrix(.7584 0 0 .7584 -19.426 248.55)">
     <path d="m34.65 1042.5c-3.2967-1e-4 -5.9693 2.6724-5.9692 5.9691-1.02e-4 3.2968 2.6724 5.9693 5.9692 5.9692l0.87816-0.01h10.622c1.5049 0 2.7164-1.2115 2.7164-2.7164s-1.2115-2.7164-2.7164-2.7164c-1.8937 0-2.2773-0.1378-2.4097-0.1476-1.6951-0.3062-2.734-1.242-3.5759-2.6626-0.92355-2.231-3.1002-3.6859-5.5149-3.686z" fill="#ff2a2a" style="paint-order:stroke fill markers"/>
     <circle cx="34.545" cy="1048.4" r="2.7349" fill="#faa" style="paint-order:stroke fill markers"/>
     <circle cx="34.559" cy="1048.4" r="1.5227" fill="#f9f9f9" style="paint-order:stroke fill markers"/>
    </g>
    <g transform="matrix(1.0163 0 0 1.0163 -27.449 -20.298)">
     <g transform="translate(1.7236 -5.1265)">
      <g transform="matrix(.9472 -.07537 .07537 .9472 -76.503 57.426)">
       <path transform="translate(-1.7236 5.1265)" d="m37.306 1043.1 0.45312-0.4844 6.5781 7.0469-0.5 0.625-5-4.875z" fill="#fff"/>
       <path d="m39.942 1043.8-1.959 1.9589-1.959 1.959 0.2207 0.3125c1.3547 1.9225 3.7177 4.4754 5.7832 6.2481 0.3025 0.2595 0.55545 0.484 0.56055 0.498 0.0054 0.014-0.08364 0.1179-0.19727 0.2305l-0.20508 0.2031-0.24023-0.2031c-2.1083-1.7952-4.3103-4.1138-5.8086-6.1152-0.29286-0.3913-0.54189-0.711-0.55469-0.711-0.0124 0-0.19833 0.178-0.41406 0.3945l-0.39258 0.3926 0.22656 0.3379c0.77158 1.1475 1.4938 2.0046 3.0508 3.6211 1.6446 1.7078 2.7202 2.6485 4.4082 3.8535 0.21023 0.1497 0.3921 0.2754 0.40234 0.2754 0.01084 0 1.0285-1.01 2.2617-2.2461 2.1447-2.1496 2.2461-2.2568 2.3262-2.4746 0.10953-0.2978 0.09649-0.6753-0.0332-0.9492-0.07243-0.1531-0.80356-0.9027-3.7832-3.8867zm5.623 7.5058c0.55107 0.1042 0.69924 0.7609 0.24805 1.0977-0.12553 0.094-0.42656 0.1198-0.58008 0.051-0.15775-0.072-0.31304-0.2645-0.34375-0.4278-0.02978-0.1586 0.0291-0.3808 0.13672-0.5176 0.10142-0.1302 0.37808-0.2341 0.53906-0.2031z" fill="url(#linearGradient925)" stroke-width=".037932"/>
       <path d="m37.409 1045.6c-0.29109-0.2976-0.32929-0.3523-0.32929-0.4737 0-0.1114 0.0357-0.1767 0.19155-0.3488 0.2843-0.314 0.32312-0.4701 0.18981-0.7638-0.15042-0.3314-0.47736-0.6133-1.159-0.9991-0.6117-0.3466-0.91592-0.5677-1.2656-0.9207-0.3975-0.4013-0.71927-0.8299-0.93388-1.2442-0.09303-0.1795-0.19093-0.3437-0.2176-0.3648-0.02662-0.02-0.15677-0.047-0.28909-0.059-0.48548-0.043-0.80647-0.3742-0.83414-0.8639-0.01152-0.2136 0.0013-0.2926 0.07946-0.4629 0.10902-0.2383 0.2955-0.4384 0.50584-0.5426 0.1121-0.055 0.22644-0.072 0.47048-0.072 0.29096 7e-4 0.35091 0.014 0.61437 0.1389 1.2847 0.6069 2.7811 1.8499 4.0327 3.3499 0.40223 0.4821 1.0871 1.3507 1.3178 1.6712l0.13815 0.192-1.0508 1.0504c-0.57794 0.5777-1.0689 1.0504-1.0911 1.0504-0.02213 0-0.18849-0.1515-0.3696-0.3366z" fill="#c87137" stroke-width=".037932"/>
      </g>
     </g>
    </g>
   </g>
  </g>
 </g>
</svg>
