<svg xmlns="http://www.w3.org/2000/svg" xmlns:xlink="http://www.w3.org/1999/xlink" width="24" height="24" viewBox="0 0 24 24"><defs><linearGradient id="a"><stop offset="0" stop-color="#177217" stop-opacity=".996"/><stop offset="1" stop-color="#4eab46" stop-opacity=".996"/></linearGradient><linearGradient id="b"><stop offset="0"/><stop offset="1" stop-opacity="0"/></linearGradient><linearGradient id="d"><stop offset="0" stop-color="#1f58b6"/><stop offset="1" stop-color="#7aa4e8"/></linearGradient><radialGradient xlink:href="#a" id="f" cx="6.393" cy="15.165" fx="6.393" fy="15.165" r="11.932" gradientUnits="userSpaceOnUse" gradientTransform="matrix(1.4121 -1.10457 1.0703 1.3683 -14.652 5.117)"/><linearGradient xlink:href="#b" id="g" x1="4.943" y1="20.047" x2="30.151" y2="-6.266" gradientUnits="userSpaceOnUse"/><radialGradient xlink:href="#d" id="c" gradientUnits="userSpaceOnUse" gradientTransform="matrix(1.4121 -1.10457 1.0703 1.3683 -14.652 5.117)" cx="6.393" cy="15.165" fx="6.393" fy="15.165" r="11.932"/><radialGradient xlink:href="#d" id="e" gradientUnits="userSpaceOnUse" gradientTransform="matrix(1.4121 -1.10457 1.0703 1.3683 -14.652 5.117)" cx="6.393" cy="15.165" fx="6.393" fy="15.165" r="11.932"/><clipPath id="h"><path style="isolation:auto;mix-blend-mode:normal" d="M22.982 12A10.982 10.982 0 0 1 12 22.982 10.982 10.982 0 0 1 1.018 12 10.982 10.982 0 0 1 12 1.018 10.982 10.982 0 0 1 22.982 12z" color="#000" overflow="visible" fill="url(#radialGradient14170)" fill-rule="evenodd" stroke-width="2" stroke-linecap="square" stroke-dashoffset=".85"/></clipPath><clipPath id="i"><path style="isolation:auto;mix-blend-mode:normal" d="M22.982 12A10.982 10.982 0 0 1 12 22.982 10.982 10.982 0 0 1 1.018 12 10.982 10.982 0 0 1 12 1.018 10.982 10.982 0 0 1 22.982 12z" color="#000" overflow="visible" fill="url(#radialGradient14164)" fill-rule="evenodd" stroke-width="2" stroke-linecap="square" stroke-dashoffset=".85"/></clipPath></defs><g color="#000" fill-rule="evenodd"><path d="M23.932 12A11.932 11.932 0 0 1 12 23.932 11.932 11.932 0 0 1 .068 12 11.932 11.932 0 0 1 12 .068 11.932 11.932 0 0 1 23.932 12z" style="isolation:auto;mix-blend-mode:normal" overflow="visible" fill="url(#f)"/><path d="M12.047.006C5.437.006.067 5.374.067 11.984c0 6.61 5.37 11.98 11.98 11.98s11.978-5.37 11.978-11.98S18.657.006 12.047.006zm0 .963c6.09 0 11.015 4.925 11.015 11.014 0 6.09-4.926 11.016-11.015 11.016A11.008 11.008 0 0 1 1.03 11.984C1.03 5.894 5.958.97 12.048.97z" style="line-height:normal;text-indent:0;text-align:start;text-decoration-line:none;text-decoration-style:solid;text-decoration-color:#000;text-transform:none;block-progression:tb;isolation:auto;mix-blend-mode:normal" font-weight="400" font-family="sans-serif" white-space="normal" overflow="visible" opacity=".096" fill="url(#g)"/></g><g transform="translate(0 -1028.362)"><g fill-rule="evenodd"><path transform="translate(.03 1028.33)" d="M.016 18.08l24-17.8.062 23.814-24.094-.08z" clip-path="url(#h)" fill="#216e20"/><path transform="translate(.03 1028.33)" d="M0 19.856l24-12.45.063 16.657-24.094-.057z" clip-path="url(#i)" fill="#144312" fill-opacity=".996"/></g><path d="M7.735 1046.755c-1.685-2.247-1.685-5.952 0-8.198l.32-.426h8.367l.32.427c1.684 2.247 1.684 5.95 0 8.198l-.32.426H8.054zm3.848-5.673v-1.64H8.585l-.333.69c-.326.675-.663 2.257-.527 2.477.038.06.922.11 1.963.11h1.895zm5.17 1.527c.135-.22-.202-1.803-.528-2.48l-.333-.688h-2.998v3.28h1.894c1.042 0 1.926-.05 1.964-.113zm-7.112-5.758l.04-.623 1.116-.038c1.25-.04 1.442-.163 1.442-.915 0-.49-.248-1.583-.378-1.663-.046-.028-1.5.297-3.23.724-1.73.426-6.634 1.642-6.685 1.642l.688-1.428c.04-.04 3.558-.91 4.83-1.222 1.272-.31 2.34-.592 2.374-.625.034-.033-.004-.183-.083-.332-.312-.584.2-1.326.917-1.326.41 0 .875.46.935.928.04.312.075.33.472.225.37-.097.41-.147.295-.362a1.327 1.327 0 0 1-.134-.526c0-.384.574-.92.984-.92.43 0 .984.543.984.962v.32l2.49-.627.944-.21.624.374.633.526c-.682.182-.846.253-2.56.677-1.713.424-3.133.785-3.156.803-.02.018.046.468.15.998.106.53.162 1.183.127 1.45l-.065.484.702.04.702.04.04.623.04.624H9.6l.04-.623z" fill="#fff"/><circle style="isolation:auto;mix-blend-mode:normal" cx="10.613" cy="1031.927" r="1.052" color="#000" overflow="visible" fill="#ccc"/><circle style="isolation:auto;mix-blend-mode:normal" cx="13.219" cy="1031.378" r="1.008" color="#000" overflow="visible" fill="#ccc"/><path d="M6.552 1043.787s3.806.274 5.712.26c1.893-.014 5.668-.342 5.668-.342s-.15.86-.276 1.277c-.33 1.092-1.2 2.303-1.227 2.21H8.042s-1.06-1.404-1.26-2.254c-.198-.85-.23-1.15-.23-1.15z" fill="#b3b3b3" fill-rule="evenodd"/></g></svg>