<svg xmlns="http://www.w3.org/2000/svg" xmlns:xlink="http://www.w3.org/1999/xlink" width="24" height="24" viewBox="0 0 24 24"><defs><linearGradient id="f"><stop offset="0" stop-color="#d8d8d8"/><stop offset=".128" stop-color="#fff"/><stop offset=".474" stop-color="#fff"/><stop offset=".86" stop-color="#fff"/><stop offset="1" stop-color="#e4e4e4"/></linearGradient><linearGradient id="a"><stop offset="0" stop-color="#e35f00" stop-opacity=".996"/><stop offset="1" stop-color="#ff950d" stop-opacity=".996"/></linearGradient><linearGradient id="b"><stop offset="0"/><stop offset="1" stop-opacity="0"/></linearGradient><linearGradient id="d"><stop offset="0" stop-color="#1f58b6"/><stop offset="1" stop-color="#7aa4e8"/></linearGradient><radialGradient xlink:href="#a" id="g" cx="6.393" cy="15.165" fx="6.393" fy="15.165" r="11.932" gradientUnits="userSpaceOnUse" gradientTransform="matrix(1.4121 -1.10457 1.0703 1.3683 -14.652 5.117)"/><linearGradient xlink:href="#b" id="h" x1="4.943" y1="20.047" x2="30.151" y2="-6.266" gradientUnits="userSpaceOnUse"/><radialGradient xlink:href="#d" id="c" gradientUnits="userSpaceOnUse" gradientTransform="matrix(1.4121 -1.10457 1.0703 1.3683 -14.652 5.117)" cx="6.393" cy="15.165" fx="6.393" fy="15.165" r="11.932"/><radialGradient xlink:href="#d" id="e" gradientUnits="userSpaceOnUse" gradientTransform="matrix(1.4121 -1.10457 1.0703 1.3683 -14.652 5.117)" cx="6.393" cy="15.165" fx="6.393" fy="15.165" r="11.932"/><linearGradient xlink:href="#f" id="i" x1="-27.909" y1="1042.905" x2="-17.037" y2="1042.861" gradientUnits="userSpaceOnUse"/></defs><g color="#000" fill-rule="evenodd"><path d="M23.932 12A11.932 11.932 0 0 1 12 23.932 11.932 11.932 0 0 1 .068 12 11.932 11.932 0 0 1 12 .068 11.932 11.932 0 0 1 23.932 12z" style="isolation:auto;mix-blend-mode:normal" overflow="visible" fill="url(#g)"/><path d="M12.047.006C5.437.006.067 5.374.067 11.984c0 6.61 5.37 11.98 11.98 11.98s11.978-5.37 11.978-11.98S18.657.006 12.047.006zm0 .963c6.09 0 11.015 4.925 11.015 11.014 0 6.09-4.926 11.016-11.015 11.016A11.008 11.008 0 0 1 1.03 11.984C1.03 5.894 5.958.97 12.048.97z" style="line-height:normal;text-indent:0;text-align:start;text-decoration-line:none;text-decoration-style:solid;text-decoration-color:#000;text-transform:none;block-progression:tb;isolation:auto;mix-blend-mode:normal" font-weight="400" font-family="sans-serif" white-space="normal" overflow="visible" opacity=".096" fill="url(#h)"/></g><path d="M4.572 20.577c-.232-.198-.517-.495-.623-.65-.246-.356-.252-.713-.017-.892l.08-.06h15.671l.086.088c.108.11.136.185.136.36 0 .254-.05.348-.515.96l-.268.355H4.76l-.188-.16zm4.264-2.08a1.916 1.916 0 0 1-.292-.133c-.192-.115-.604-.527-.83-.83-.753-1.016-1.585-2.914-2.216-5.057-.172-.584-.28-1.004-.265-1.028.017-.03 13.14-.023 13.157.01.008.012-.023.165-.07.34-.476 1.814-1.226 3.765-1.9 4.942-.353.62-.622.986-.97 1.322-.258.248-.44.37-.665.443-.15.05-.17.05-2.973.05l-2.822-.002-.154-.052zm9.836-2.265a2.086 2.086 0 0 1-.496-.147c-.23-.105-.518-.314-.62-.45-.045-.063-.046-.07-.01-.14.02-.038.105-.242.19-.452.084-.21.156-.383.158-.385.003 0 .052.027.11.065.257.17.68.222.986.117.187-.064.434-.226.53-.346.075-.092.43-.688.535-.893a.86.86 0 0 0 0-.806 1.053 1.053 0 0 0-.677-.532 1.536 1.536 0 0 0-.56-.01c-.05.014-.097.02-.104.012-.007-.01.035-.196.095-.42.058-.222.12-.47.134-.55l.028-.147.18-.06c.355-.116.76-.134 1.095-.047.656.17 1.224.74 1.374 1.38.096.406.085.768-.034 1.144-.03.1-.143.332-.248.52-.106.187-.293.52-.415.74-.295.527-.4.68-.576.85-.294.28-.612.454-.97.528-.196.04-.52.053-.705.028zm-.293-4.9v-.066H11.8c-6.246 0-6.58 0-6.588.04-.015.074-.065-.26-.064-.44 0-.216.03-.328.11-.425.126-.148-.374-.137 6.558-.137h6.34l.105.053c.196.098.273.38.213.766-.03.2-.092.336-.094.21zm-5.765-1.834c.71-.896 1.108-1.534 1.275-2.04.065-.196.086-.46.048-.594-.038-.138-.102-.203-.437-.45-.852-.63-1.394-1.163-1.64-1.61-.22-.404-.268-.78-.147-1.135.177-.52.55-1.048 1.213-1.71.356-.356.886-.823.935-.823.015 0-.062.132-.17.292-.486.73-.728 1.412-.647 1.827.063.323.252.56.894 1.112.822.708 1.09 1.052 1.19 1.52.125.592-.294 1.362-1.397 2.564-.302.33-1.076 1.073-1.116 1.073-.013 0-.013-.012 0-.03zm-.557-.16c.308-.75.396-1.505.197-1.692-.03-.028-.248-.122-.484-.21-.613-.225-.86-.355-1.11-.587-.213-.2-.298-.387-.297-.657 0-.41.224-.998.64-1.68.143-.237.205-.29.147-.128-.12.337-.187.8-.15 1.053.05.36.175.48.763.73.885.373 1.14.62 1.14 1.098 0 .364-.17.873-.52 1.58-.14.278-.274.54-.3.582-.084.13-.097.083-.025-.09z" fill="#500"/><path d="M4.63 19.833c-.233-.198-.518-.495-.624-.65-.244-.355-.25-.712-.016-.892l.08-.06H19.74l.086.09c.108.11.135.184.135.358 0 .256-.05.35-.515.962l-.27.354H4.82l-.19-.16z" fill="#ccc"/><path d="M-25.512 1046.735a1.916 1.916 0 0 1-.292-.134c-.192-.113-.604-.526-.83-.83-.753-1.015-1.585-2.913-2.216-5.056-.172-.584-.28-1.004-.265-1.028.017-.028 13.14-.022 13.157.01.008.013-.023.166-.07.34-.476 1.815-1.226 3.766-1.9 4.943-.353.618-.622.985-.97 1.32-.258.25-.44.37-.665.444-.15.05-.17.05-2.973.05h-2.822l-.154-.053z" fill="url(#i)" transform="translate(34.405 -1028.98)"/><path d="M18.73 15.49a2.086 2.086 0 0 1-.497-.148c-.23-.104-.518-.314-.62-.45-.045-.063-.046-.07-.01-.14.02-.038.105-.242.19-.452.084-.21.156-.383.158-.385.004 0 .053.027.11.065.257.17.682.222.987.117.187-.064.434-.225.53-.346.075-.09.43-.687.535-.892a.86.86 0 0 0 0-.807 1.053 1.053 0 0 0-.678-.53 1.536 1.536 0 0 0-.56-.01c-.05.013-.096.018-.103.01-.006-.01.036-.195.096-.418.06-.223.12-.47.135-.552l.03-.145.178-.06c.356-.117.76-.135 1.096-.047.656.17 1.224.74 1.374 1.38.095.405.084.767-.035 1.143-.03.1-.143.333-.248.52-.106.188-.293.52-.415.74-.295.528-.4.682-.576.85-.294.28-.612.455-.97.53-.196.04-.52.052-.705.027z" fill="#e6e6e6"/><path d="M18.436 10.588v-.065h-6.58c-6.245 0-6.578 0-6.587.04-.017.074-.066-.26-.066-.44 0-.215.03-.328.112-.425.125-.15-.375-.138 6.557-.138h6.34l.105.053c.195.098.272.38.212.767-.03.2-.092.335-.094.208z" fill="#ececec"/><path d="M12.672 8.755c.71-.896 1.108-1.534 1.275-2.038.065-.198.086-.46.048-.596-.04-.136-.102-.202-.437-.45-.853-.63-1.395-1.162-1.64-1.61-.22-.403-.27-.778-.148-1.134.177-.52.55-1.046 1.213-1.71.356-.355.886-.82.935-.82.014 0-.063.13-.17.29-.487.73-.73 1.413-.648 1.828.062.323.252.56.894 1.112.822.71 1.09 1.053 1.19 1.52.125.594-.294 1.363-1.397 2.565-.302.33-1.076 1.075-1.116 1.075-.012 0-.012-.012.002-.03z" fill="#f2f2f2"/><path d="M12.115 8.594c.308-.748.396-1.504.197-1.69-.03-.03-.248-.123-.484-.21-.614-.225-.86-.356-1.11-.588-.214-.2-.3-.386-.3-.655.003-.41.226-.998.64-1.68.145-.237.207-.29.15-.128-.12.337-.188.8-.152 1.053.05.36.176.48.764.73.885.373 1.14.62 1.14 1.1 0 .362-.17.87-.52 1.578-.14.278-.274.54-.3.582-.084.132-.097.083-.025-.09z" fill="#f2f2f2"/></svg>