<svg xmlns="http://www.w3.org/2000/svg" xmlns:xlink="http://www.w3.org/1999/xlink" width="24" height="24" viewBox="0 0 24 24"><defs><linearGradient id="a"><stop offset="0" stop-color="#177217" stop-opacity=".996"/><stop offset="1" stop-color="#4eab46" stop-opacity=".996"/></linearGradient><linearGradient id="b"><stop offset="0"/><stop offset="1" stop-opacity="0"/></linearGradient><linearGradient id="d"><stop offset="0" stop-color="#1f58b6"/><stop offset="1" stop-color="#7aa4e8"/></linearGradient><radialGradient xlink:href="#a" id="f" cx="6.393" cy="15.165" fx="6.393" fy="15.165" r="11.932" gradientUnits="userSpaceOnUse" gradientTransform="matrix(1.4121 -1.10457 1.0703 1.3683 -14.652 5.117)"/><linearGradient xlink:href="#b" id="g" x1="4.943" y1="20.047" x2="30.151" y2="-6.266" gradientUnits="userSpaceOnUse"/><radialGradient xlink:href="#d" id="c" gradientUnits="userSpaceOnUse" gradientTransform="matrix(1.4121 -1.10457 1.0703 1.3683 -14.652 5.117)" cx="6.393" cy="15.165" fx="6.393" fy="15.165" r="11.932"/><radialGradient xlink:href="#d" id="e" gradientUnits="userSpaceOnUse" gradientTransform="matrix(1.4121 -1.10457 1.0703 1.3683 -14.652 5.117)" cx="6.393" cy="15.165" fx="6.393" fy="15.165" r="11.932"/><clipPath id="h"><circle style="isolation:auto;mix-blend-mode:normal" cx="11.999" cy="12.001" r="10.96" color="#000" overflow="visible" fill="maroon" stroke-opacity=".428"/></clipPath></defs><g color="#000" fill-rule="evenodd"><path d="M23.932 12A11.932 11.932 0 0 1 12 23.932 11.932 11.932 0 0 1 .068 12 11.932 11.932 0 0 1 12 .068 11.932 11.932 0 0 1 23.932 12z" style="isolation:auto;mix-blend-mode:normal" overflow="visible" fill="url(#f)"/><path d="M12.047.006C5.437.006.067 5.374.067 11.984c0 6.61 5.37 11.98 11.98 11.98s11.978-5.37 11.978-11.98S18.657.006 12.047.006zm0 .963c6.09 0 11.015 4.925 11.015 11.014 0 6.09-4.926 11.016-11.015 11.016A11.008 11.008 0 0 1 1.03 11.984C1.03 5.894 5.958.97 12.048.97z" style="line-height:normal;text-indent:0;text-align:start;text-decoration-line:none;text-decoration-style:solid;text-decoration-color:#000;text-transform:none;block-progression:tb;isolation:auto;mix-blend-mode:normal" font-weight="400" font-family="sans-serif" white-space="normal" overflow="visible" opacity=".096" fill="url(#g)"/></g><path transform="matrix(1 0 0 1 .132 .033)" style="isolation:auto;mix-blend-mode:normal" d="M3.756 17.37a.66.66 0 0 0-.662.663c0 .01.005.02.006.03h-.006v6H21.03v-6c.002-.01.007-.02.007-.03a.662.662 0 0 0-.664-.662H3.756z" clip-path="url(#h)" color="#000" overflow="visible" fill="#250"/><g transform="translate(-46.77 -781.605) scale(.75757)"><circle r="11.315" cy="1047.526" cx="77.551" fill="#fff"/><path d="M75.846 1058.838c-2.53-.425-4.614-1.492-6.367-3.26-1.573-1.587-2.605-3.522-3.088-5.787-.225-1.054-.225-3.395 0-4.45.49-2.295 1.524-4.22 3.135-5.83 1.61-1.61 3.535-2.646 5.83-3.135 1.055-.225 3.396-.225 4.45 0 2.296.49 4.22 1.524 5.83 3.135 1.612 1.61 2.647 3.535 3.136 5.83.118.556.16 1.145.16 2.225s-.042 1.67-.16 2.226c-.487 2.287-1.53 4.226-3.135 5.83-1.586 1.587-3.52 2.638-5.74 3.118-.916.198-3.14.253-4.052.1zm3.373-1.1l.434-.066.61-1.068c.573-1.003.6-1.076.456-1.208-.085-.078-.756-.584-1.49-1.124l-1.336-.983-2.215.205c-1.22.113-2.224.218-2.234.232-.063.09-.76 2.16-.76 2.26 0 .11.31.377 1.756 1.5.798.62 1.187.683 2.962.478.76-.088 1.576-.19 1.815-.227zm2.37-.297c1.314-.502 2.995-1.68 3.89-2.726.646-.755 1.096-1.37 1.096-1.5 0-.075-.22-.133-.665-.175l-.664-.063-1.806 1.347-1.806 1.348-.557.976c-.306.536-.556 1.02-.556 1.073 0 .114.132.08 1.07-.28zm-9.157-.68c-.307-.43-.59-.64-1.04-.776-.24-.072-.45-.118-.466-.1-.03.03 1.55 1.1 1.653 1.116.015 0-.05-.106-.147-.24zm3.413-3.996c.98-.082 1.828-.193 1.887-.247.12-.112 1.633-3.588 1.65-3.794.008-.073-.598-.957-1.344-1.963l-1.358-1.83-1.932.257c-1.062.142-1.964.29-2.004.326-.076.072-1.664 3.878-1.664 3.988 0 .036.51.838 1.135 1.784l1.136 1.72.356-.046c.195-.025 1.156-.112 2.136-.194zm11.518-.952c.924-2.217 1.15-4.653.582-6.253-.265-.75-.253-.742-1.23-.777l-.614-.022-.718 1.762-.72 1.762.4 1.978.4 1.978.622.1c1.05.17.975.2 1.278-.527zm-17.003-2.606c.022-.02.414-.948.872-2.06l.832-2.02-.544-1.634-.545-1.634-.37.055c-.203.03-.73.102-1.17.16l-.802.105-.816 2.004c-.454 1.115-.82 2.142-.823 2.316-.004.172.13.813.296 1.424.166.612.347 1.278.4 1.48l.1.37 1.266-.264c.697-.145 1.285-.28 1.305-.302zm11.983-1.154c.928-.075 1.692-.145 1.7-.156.07-.11 1.375-3.473 1.375-3.545 0-.067-2.175-3.367-2.442-3.705-.033-.042-4.154.13-4.2.175-.064.065-1.365 3.258-1.427 3.505-.038.15.26.614 1.305 2.03 1.33 1.802 1.36 1.834 1.677 1.834.178 0 1.083-.063 2.01-.138zm-12.15-6.812l.845-.108 1.78-1.336 1.78-1.336.19-.612c.105-.337.162-.612.128-.612-.12 0-1.3.426-1.786.644-1.248.562-2.677 1.64-3.578 2.695-.334.392-.607.747-.607.79 0 .04.09.054.2.03.11-.027.58-.096 1.047-.155zm11.805-1.298l.9-.05.147-.467c.203-.645.193-.702-.192-1.05-.622-.56-2.497-1.212-4.06-1.41-.834-.104-2.51-.072-2.842.055-.117.045-.22.294-.556 1.358-.025.078.51.382 1.588.904l1.624.786 1.247-.038c.686-.02 1.65-.06 2.145-.088z"/></g></svg>