<svg xmlns="http://www.w3.org/2000/svg" xmlns:xlink="http://www.w3.org/1999/xlink" width="24" height="24" viewBox="0 0 24 24"><defs><linearGradient id="a"><stop offset="0" stop-color="#177217" stop-opacity=".996"/><stop offset="1" stop-color="#4eab46" stop-opacity=".996"/></linearGradient><linearGradient id="b"><stop offset="0"/><stop offset="1" stop-opacity="0"/></linearGradient><linearGradient id="d"><stop offset="0" stop-color="#1f58b6"/><stop offset="1" stop-color="#7aa4e8"/></linearGradient><radialGradient xlink:href="#a" id="f" cx="6.393" cy="15.165" fx="6.393" fy="15.165" r="11.932" gradientUnits="userSpaceOnUse" gradientTransform="matrix(1.4121 -1.10457 1.0703 1.3683 -14.652 5.117)"/><linearGradient xlink:href="#b" id="g" x1="4.943" y1="20.047" x2="30.151" y2="-6.266" gradientUnits="userSpaceOnUse"/><radialGradient xlink:href="#d" id="c" gradientUnits="userSpaceOnUse" gradientTransform="matrix(1.4121 -1.10457 1.0703 1.3683 -14.652 5.117)" cx="6.393" cy="15.165" fx="6.393" fy="15.165" r="11.932"/><radialGradient xlink:href="#d" id="e" gradientUnits="userSpaceOnUse" gradientTransform="matrix(1.4121 -1.10457 1.0703 1.3683 -14.652 5.117)" cx="6.393" cy="15.165" fx="6.393" fy="15.165" r="11.932"/><clipPath id="h"><path style="isolation:auto;mix-blend-mode:normal" d="M22.982 12A10.982 10.982 0 0 1 12 22.982 10.982 10.982 0 0 1 1.018 12 10.982 10.982 0 0 1 12 1.018 10.982 10.982 0 0 1 22.982 12z" color="#000" overflow="visible" fill="url(#radialGradient14170)" fill-rule="evenodd" stroke-width="2" stroke-linecap="square" stroke-dashoffset=".85"/></clipPath><clipPath id="i"><path style="isolation:auto;mix-blend-mode:normal" d="M22.982 12A10.982 10.982 0 0 1 12 22.982 10.982 10.982 0 0 1 1.018 12 10.982 10.982 0 0 1 12 1.018 10.982 10.982 0 0 1 22.982 12z" color="#000" overflow="visible" fill="url(#radialGradient14164)" fill-rule="evenodd" stroke-width="2" stroke-linecap="square" stroke-dashoffset=".85"/></clipPath></defs><g color="#000" fill-rule="evenodd"><path d="M23.932 12A11.932 11.932 0 0 1 12 23.932 11.932 11.932 0 0 1 .068 12 11.932 11.932 0 0 1 12 .068 11.932 11.932 0 0 1 23.932 12z" style="isolation:auto;mix-blend-mode:normal" overflow="visible" fill="url(#f)"/><path d="M12.047.006C5.437.006.067 5.374.067 11.984c0 6.61 5.37 11.98 11.98 11.98s11.978-5.37 11.978-11.98S18.657.006 12.047.006zm0 .963c6.09 0 11.015 4.925 11.015 11.014 0 6.09-4.926 11.016-11.015 11.016A11.008 11.008 0 0 1 1.03 11.984C1.03 5.894 5.958.97 12.048.97z" style="line-height:normal;text-indent:0;text-align:start;text-decoration-line:none;text-decoration-style:solid;text-decoration-color:#000;text-transform:none;block-progression:tb;isolation:auto;mix-blend-mode:normal" font-weight="400" font-family="sans-serif" white-space="normal" overflow="visible" opacity=".096" fill="url(#g)"/></g><g fill-rule="evenodd"><path transform="rotate(30 12.074 12.043)" d="M.016 18.08l24-17.8.062 23.814-24.094-.08z" clip-path="url(#h)" fill="#216e20"/><path transform="rotate(30 12.074 12.043)" d="M0 19.856l24-12.45.063 16.657-24.094-.057z" clip-path="url(#i)" fill="#144312" fill-opacity=".996"/></g><g transform="translate(10.653 -209.57) scale(.2019)"><rect style="isolation:auto;mix-blend-mode:normal" width="4.104" height="12.859" x="-611.641" y="933.443" ry="2.052" transform="rotate(-31.13)" color="#000" overflow="visible" fill="#999"/><path d="M-34.3 1125.346c-.4-.442-.306-1.02.368-2.265a729.3 729.3 0 0 0 2.128-3.95c.37-.692 1.362-2.51 2.207-4.044 1.71-3.107 1.94-3.687 1.766-4.463-.243-1.072-2.07-4.245-3.61-6.27-.84-1.104-2.672-3.228-3.906-4.53-.545-.576-1.027-1.183-1.07-1.35-.183-.685.008-.826 3.47-2.545 4.124-2.048 6.214-3.144 10.9-5.716l6.2-3.403c2.792-1.533 3.45-2.066 4.198-3.407.244-.438.615-1.078.824-1.423.21-.345 1.62-2.823 3.135-5.506 3.133-5.544 3.353-5.908 3.635-6.017.442-.17.522-.042 5.15 8.247.17.307.827 1.467 1.458 2.58 1.503 2.65 1.566 2.76 3.032 5.366l1.532 2.718c.152.268.86 1.523 1.572 2.788.712 1.265 1.42 2.52 1.574 2.788.274.48 2.4 4.245 2.97 5.264.16.286.842 1.493 1.516 2.68.673 1.19 1.95 3.448 2.834 5.02 2.758 4.892 4.38 7.768 6.096 10.802 3.494 6.183 3.405 5.978 2.888 6.61l-.244.3-15.403-.04c-14.746-.037-15.427-.05-16.005-.303a2.24 2.24 0 0 1-.975-.836l-.373-.572-.038-15.82c-.036-14.543-.057-15.785-.26-15.403-.122.23-.74 1.546-1.376 2.926-.636 1.38-1.485 3.2-1.887 4.043-.402.844-1.155 2.443-1.672 3.555-1.66 3.567-3.395 7.267-4.928 10.503-.43.91-.783 1.674-.783 1.7 0 .026-.43.944-.954 2.042-.525 1.097-1.415 3-1.98 4.226-1.096 2.39-1.588 3.224-2.172 3.683-.358.283-.51.29-5.973.29-5.33 0-5.617-.013-5.844-.264z" fill="#fff"/><path d="M-24.39 1112.702c5.086-9.226 9.24-17.184 14.286-26.432.91-1.685-1.653-1.2-2.367-.953-4.198 2.277-7.66 4.466-11.935 6.587-3.62 1.78-7.672 3.935-11.268 5.76-1.71.85 1.07 2.196 1.476 3.182 3.608 4.044 6.396 8.476 7.913 13.626.387 1.85 1.47-1.397 1.893-1.77z" fill="#999"/><rect style="isolation:auto;mix-blend-mode:normal" width="4.104" height="12.859" x="-619.803" y="920.491" ry="2.052" transform="rotate(-148.87)" color="#000" overflow="visible" fill="#999"/><path d="M29.415 1124.473c-.154-.08-.41-.376-.573-.66-.16-.284-.655-1.144-1.098-1.91a756.66 756.66 0 0 1-1.123-1.953c-.174-.306-.663-1.153-1.086-1.88-.422-.73-1.108-1.922-1.524-2.65-.416-.728-1.12-1.95-1.562-2.718-.443-.767-.948-1.645-1.122-1.952-.174-.306-.645-1.122-1.047-1.812-.403-.69-1.39-2.415-2.195-3.833-.805-1.418-1.603-2.798-1.774-3.067-.17-.268-.936-1.585-1.7-2.927a816.444 816.444 0 0 0-2.2-3.832c-.444-.767-.914-1.582-1.045-1.812-.13-.23-.98-1.705-1.884-3.276a24781.275 24781.275 0 0 1-7.668-13.312c-3.07-5.325-3.83-6.714-3.83-6.982 0-.17.098-.345.22-.39.395-.153 17.79-.095 18.35.06.756.21 1.258.697 2.088 2.027.406.65.958 1.526 1.226 1.945.268.418 1.373 2.157 2.455 3.863 1.083 1.706 2.776 4.372 3.764 5.923 4.19 6.58 8.242 12.958 10.3 16.216.384.606 1.42 2.235 2.3 3.618.882 1.384 1.76 2.765 1.952 3.07.192.304 1.132 1.784 2.09 3.288a1861.28 1861.28 0 0 1 2.3 3.618c.307.485 1.06 1.67 1.673 2.63.613.963 1.2 1.91 1.3 2.107.268.51.097 1.005-.433 1.254-.362.17-9.14 2.994-11.67 3.753-.346.104-1.63.51-2.856.903-2.39.768-3.185.92-3.625.693z" fill="#ececec"/><rect style="isolation:auto;mix-blend-mode:normal" width="4.104" height="12.859" x="-608.057" y="934.808" ry="2.052" transform="rotate(-148.87)" color="#000" overflow="visible" fill="#999"/></g></svg>