<?xml version="1.0" encoding="UTF-8"?>
<svg width="24" height="24" version="1.1" viewBox="0 0 24 24" xmlns="http://www.w3.org/2000/svg" xmlns:cc="http://creativecommons.org/ns#" xmlns:dc="http://purl.org/dc/elements/1.1/" xmlns:rdf="http://www.w3.org/1999/02/22-rdf-syntax-ns#">
 <defs>
  <linearGradient id="linearGradient3061" x1="12.141" x2="12.141" y1="17.998" y2="23.256" gradientUnits="userSpaceOnUse">
   <stop stop-color="#9c9c9c" offset="0"/>
   <stop stop-color="#090909" offset="1"/>
  </linearGradient>
  <linearGradient id="linearGradient233" x1="11.827" x2="11.827" y1=".60943" y2="17.639" gradientUnits="userSpaceOnUse">
   <stop stop-color="#d8edef" offset="0"/>
   <stop stop-color="#fff" offset="1"/>
  </linearGradient>
 </defs>
 <metadata>
  <rdf:RDF>
   <cc:Work rdf:about="">
    <dc:format>image/svg+xml</dc:format>
    <dc:type rdf:resource="http://purl.org/dc/dcmitype/StillImage"/>
   </cc:Work>
  </rdf:RDF>
 </metadata>
 <circle cx="12" cy="12" r="11.932" color="#000000" color-rendering="auto" fill="url(#linearGradient233)" fill-rule="evenodd" image-rendering="auto" shape-rendering="auto" solid-color="#000000" style="isolation:auto;mix-blend-mode:normal"/>
 <path d="m22.484 17.703c-2.0231 3.7113-5.9595 6.2296-10.484 6.2296-4.526 0-8.4635-2.5199-10.486-6.2333z" color="#000000" color-rendering="auto" fill="url(#linearGradient3061)" fill-rule="evenodd" image-rendering="auto" shape-rendering="auto" solid-color="#000000" style="isolation:auto;mix-blend-mode:normal"/>
 <g transform="translate(0 -1.1246)">
  <path d="m4.7755 11.143 1.4217-2.5654 1.7-0.86556 5.75 0.061705 3.5238 3.6475z" fill="#5fbcd3"/>
  <g transform="matrix(-.019471 0 0 .019471 -2.2542 13.679)">
   <path d="m-1005.2-131.91-222.38 30.457c-50.891 6.97-92.721 41.352-92.721 92.719v77.602c0 47.719 2.7244 115.54 66.475 124.5-3.3439-12.27-5.164-25.171-5.164-38.501 0-80.697 65.418-146.11 146.11-146.11 0.2124-4.66e-4 0.6385 0 0.6385 0v0s144.34-2.4235 145.47 146.11c0.1045 13.741-1.9383 27.024-5.4845 39.631l455.52-1.7768c-3.4866-12.38-5.482-25.387-5.482-38.882 1e-5 -79.152 64.166-143.32 143.32-143.32 0.2083-4.57e-4 0.41803-4.57e-4 0.62633 0 78.907 0.34531 142.69 64.41 142.69 143.32 0 12.889-1.8588 25.317-5.0493 37.199 60.792-9.8483 72.005-66.172 72.005-120.76v-91.621c0-60.647-48.824-109.38-109.47-109.47z" fill="#800000" stop-color="#000000" stroke-linecap="round" stroke-width="3.0772" style="paint-order:fill markers stroke"/>
   <path d="m-1009.4-132.22 162.26-172.08s12.623-8.3882 26.596-16.782c13.973-8.3937 53.155-8.3937 53.155-8.3937l286.77 1.4099s71.357 11.181 124.51 58.739c53.155 47.559 64.346 139.89 64.346 139.89h-103.53s4.2242-53.138-44.755-103.51c-48.98-50.373-103.53-61.554-103.53-61.554l-230.83-4.1968s-22.378-4.2242-46.149 11.181-155.29 159.49-155.29 159.49z" stroke="#000" stroke-width="1px"/>
   <g transform="matrix(-9.1297 0 0 9.1297 -2147.6 391.62)">
    <ellipse transform="matrix(-5.7733 0 0 5.7733 -81.095 -126.1)" cx="19.492" cy="17.192" rx="1.4766" ry="1.4223" fill="#fff" stop-color="#000000" style="paint-order:fill markers stroke"/>
    <g transform="translate(-89.412 .37646)">
     <path d="m-104.39-40.101c-7.0839 0.031-12.81 5.7824-12.81 12.866 0 7.1059 5.7605 12.866 12.866 12.866 7.1059 1e-6 12.866-5.7605 12.866-12.866-1e-6 -7.1059-5.7605-12.866-12.866-12.866-0.0187-4.1e-5 -0.0375-4.1e-5 -0.0562 0zm0.0402 5.0414c5e-3 0 0.0106-5e-6 0.0159 0 4.3218-1e-6 7.8252 3.5035 7.8252 7.8252s-3.5035 7.8252-7.8252 7.8252c-4.322 4.04e-4 -7.826-3.5032-7.826-7.8252-1e-5 -4.3157 3.494-7.8252 7.8097-7.8252z" fill="#333" stop-color="#000000" stroke-width=".89369" style="paint-order:stroke fill markers"/>
     <circle cx="-104.27" cy="-27.172" r="4.3523" fill="#800000" stop-color="#000000" style="paint-order:fill markers stroke"/>
    </g>
   </g>
   <g transform="matrix(-9.1297 0 0 9.1297 -2881 392.11)">
    <ellipse transform="matrix(-5.7733 0 0 5.7733 -81.095 -126.1)" cx="19.492" cy="17.192" rx="1.4766" ry="1.4223" fill="#fff" stop-color="#000000" style="paint-order:fill markers stroke"/>
    <g transform="translate(-89.412 .37646)">
     <path d="m-104.39-40.101c-7.0839 0.031-12.81 5.7824-12.81 12.866 0 7.1059 5.7605 12.866 12.866 12.866 7.1059 1e-6 12.866-5.7605 12.866-12.866-1e-6 -7.1059-5.7605-12.866-12.866-12.866-0.0187-4.1e-5 -0.0375-4.1e-5 -0.0562 0zm0.0402 5.0414c5e-3 0 0.0106-5e-6 0.0159 0 4.3218-1e-6 7.8252 3.5035 7.8252 7.8252s-3.5035 7.8252-7.8252 7.8252c-4.322 4.04e-4 -7.826-3.5032-7.826-7.8252-1e-5 -4.3157 3.494-7.8252 7.8097-7.8252z" fill="#333" stop-color="#000000" stroke-width=".89369" style="paint-order:stroke fill markers"/>
     <circle cx="-104.27" cy="-27.172" r="4.3523" fill="#800000" stop-color="#000000" style="paint-order:fill markers stroke"/>
    </g>
   </g>
  </g>
  <path d="m17.333 11.089 4.3301 0.59304c0.99093 0.13572 1.8054 0.80519 1.8054 1.8054l-6.1813-0.06771c-1.5233-0.10669-1.5122-0.1165-1.5458 1.3326l-0.05626 2.4224-7.0841-0.0056 0.011125-2.7259c0.10806-1.2476-0.058284-1.1191-1.2169-1.1318l-6.3518-0.06958c0-1.1809 0.95068-2.1298 2.1316-2.1316z" fill="#f00" stop-color="#000000" stroke-linecap="round" stroke-width="3.0772" style="paint-order:fill markers stroke"/>
 </g>
 <rect x="21.445" y="11.648" width="2.0155" height="1.9999" ry=".54703" fill="#fc0" stop-color="#000000" style="paint-order:fill markers stroke"/>
 <rect x="1.0081" y="12.406" width="1.4529" height="1.4684" ry=".40165" fill="#fc0" stop-color="#000000" style="paint-order:fill markers stroke"/>
</svg>
