<svg xmlns="http://www.w3.org/2000/svg" xmlns:xlink="http://www.w3.org/1999/xlink" width="24" height="24" viewBox="0 0 24 24"><defs><linearGradient id="a"><stop offset="0" stop-color="#b30101" stop-opacity=".996"/><stop offset="1" stop-color="#fa4667" stop-opacity=".996"/></linearGradient><linearGradient id="b"><stop offset="0"/><stop offset="1" stop-opacity="0"/></linearGradient><linearGradient id="d"><stop offset="0" stop-color="#1f58b6"/><stop offset="1" stop-color="#7aa4e8"/></linearGradient><radialGradient xlink:href="#a" id="f" cx="6.393" cy="15.165" fx="6.393" fy="15.165" r="11.932" gradientUnits="userSpaceOnUse" gradientTransform="matrix(1.4121 -1.10457 1.0703 1.3683 -14.652 5.117)"/><linearGradient xlink:href="#b" id="g" x1="4.943" y1="20.047" x2="30.151" y2="-6.266" gradientUnits="userSpaceOnUse"/><radialGradient xlink:href="#d" id="c" gradientUnits="userSpaceOnUse" gradientTransform="matrix(1.4121 -1.10457 1.0703 1.3683 -14.652 5.117)" cx="6.393" cy="15.165" fx="6.393" fy="15.165" r="11.932"/><radialGradient xlink:href="#d" id="e" gradientUnits="userSpaceOnUse" gradientTransform="matrix(1.4121 -1.10457 1.0703 1.3683 -14.652 5.117)" cx="6.393" cy="15.165" fx="6.393" fy="15.165" r="11.932"/></defs><g color="#000" fill-rule="evenodd"><path d="M23.932 12A11.932 11.932 0 0 1 12 23.932 11.932 11.932 0 0 1 .068 12 11.932 11.932 0 0 1 12 .068 11.932 11.932 0 0 1 23.932 12z" style="isolation:auto;mix-blend-mode:normal" overflow="visible" fill="url(#f)"/><path d="M12.047.006C5.437.006.067 5.374.067 11.984c0 6.61 5.37 11.98 11.98 11.98s11.978-5.37 11.978-11.98S18.657.006 12.047.006zm0 .963c6.09 0 11.015 4.925 11.015 11.014 0 6.09-4.926 11.016-11.015 11.016A11.008 11.008 0 0 1 1.03 11.984C1.03 5.894 5.958.97 12.048.97z" style="line-height:normal;text-indent:0;text-align:start;text-decoration-line:none;text-decoration-style:solid;text-decoration-color:#000;text-transform:none;block-progression:tb;isolation:auto;mix-blend-mode:normal" font-weight="400" font-family="sans-serif" white-space="normal" overflow="visible" opacity=".096" fill="url(#g)"/></g><g transform="translate(0 -1028.362)"><path style="line-height:normal;text-indent:0;text-align:start;text-decoration-line:none;text-decoration-style:solid;text-decoration-color:#000;text-transform:none;block-progression:tb;isolation:auto;mix-blend-mode:normal" d="M11.813 1042.14a.283.283 0 0 0-.153.044c-1.308.822-2.08 2.358-2.553 3.938-.47 1.58-.636 3.218-.668 4.297a.283.283 0 0 0 .283.29h5.615a.283.283 0 0 0 .283-.277c.088-3.564 1.42-6.437 3.026-7.793a.283.283 0 0 0-.183-.5h-5.65z" color="#000" font-weight="400" font-family="sans-serif" white-space="normal" overflow="visible" fill="#500" fill-rule="evenodd"/><rect style="isolation:auto;mix-blend-mode:normal" width="19.513" height="13.126" x="2.088" y="1034.994" ry="3.719" color="#000" overflow="visible" fill="#500"/><rect style="isolation:auto;mix-blend-mode:normal" width="19.513" height="13.126" x="2.11" y="1033.156" ry="3.719" color="#000" overflow="visible" fill="#ccc"/><rect style="isolation:auto;mix-blend-mode:normal" width="17.809" height="6.075" x="3.033" y="1036.825" rx="1.658" ry="2.911" color="#000" overflow="visible" fill="gray"/><rect style="isolation:auto;mix-blend-mode:normal" width="15.247" height="2.765" x="4.419" y="1038.517" rx="1.42" ry="1.325" color="#000" overflow="visible" fill="#333"/><g color="#000"><path style="line-height:normal;text-indent:0;text-align:start;text-decoration-line:none;text-decoration-style:solid;text-decoration-color:#000;text-transform:none;block-progression:tb;isolation:auto;mix-blend-mode:normal" d="M10.377 1041.243a.283.283 0 0 0-.152.044c-1.308.82-2.08 2.358-2.552 3.938-.47 1.58-.638 3.218-.67 4.297a.283.283 0 0 0 .284.29h5.615a.283.283 0 0 0 .283-.276c.088-3.563 1.422-6.438 3.027-7.794a.283.283 0 0 0-.184-.5h-5.65zm.11.566h4.916c-1.505 1.563-2.614 4.2-2.753 7.437H7.596c.047-1.034.203-2.465.62-3.86.444-1.49 1.178-2.866 2.27-3.578z" font-weight="400" font-family="sans-serif" white-space="normal" overflow="visible" fill="#aad400" fill-rule="evenodd"/><path style="isolation:auto;mix-blend-mode:normal" d="M7.602 1049.216c.003-.016.01-.104.013-.197.03-.68.15-1.63.3-2.377.384-1.932 1.058-3.416 1.963-4.32.19-.192.35-.328.52-.444l.092-.064h4.9l-.12.128c-.67.723-1.313 1.792-1.736 2.892-.482 1.25-.763 2.552-.866 4.008-.01.148-.02.298-.02.334v.066H7.597l.006-.028z" overflow="visible" fill="#447821"/><path style="line-height:normal;text-indent:0;text-align:start;text-decoration-line:none;text-decoration-style:solid;text-decoration-color:#000;text-transform:none;block-progression:tb;isolation:auto;mix-blend-mode:normal" d="M9.945 1040.092a.272.295 46.17 0 0-.155.045c-1.375.82-2.274 2.358-2.874 3.938-.6 1.58-.9 3.217-1.02 4.297a.272.295 46.17 0 0 .26.29h5.614a.272.295 46.17 0 0 .306-.276c.378-3.563 1.947-6.438 3.663-7.794a.272.295 46.17 0 0-.143-.5H9.945zm.064.566h4.915c-1.633 1.565-2.958 4.202-3.36 7.438H6.51c.132-1.033.405-2.464.935-3.86.567-1.49 1.413-2.865 2.564-3.578z" font-weight="400" font-family="sans-serif" white-space="normal" overflow="visible" fill="#aad400" fill-rule="evenodd"/><path style="isolation:auto;mix-blend-mode:normal" d="M6.518 1048.066c.005-.016.018-.105.03-.197.086-.68.283-1.63.493-2.378.543-1.932 1.34-3.415 2.318-4.32.207-.19.377-.327.555-.443l.098-.065h4.9l-.13.128c-.73.724-1.458 1.793-1.972 2.892a14.442 14.442 0 0 0-1.24 4.343l-.005.066H6.51l.008-.03z" overflow="visible" fill="#549429"/><path style="line-height:normal;text-indent:0;text-align:start;text-decoration-line:none;text-decoration-style:solid;text-decoration-color:#000;text-transform:none;block-progression:tb;isolation:auto;mix-blend-mode:normal" d="M9.607 1038.98a.258.31 47.668 0 0-.16.044c-1.46.82-2.52 2.358-3.287 3.938a19.902 19.902 0 0 0-1.472 4.297.258.31 47.668 0 0 .23.29h5.614a.258.31 47.668 0 0 .335-.277c.753-3.563 2.623-6.438 4.482-7.794a.258.31 47.668 0 0-.09-.5H9.606zm.005.565h4.916c-1.798 1.565-3.4 4.202-4.142 7.438H5.33c.242-1.033.665-2.464 1.342-3.86.723-1.49 1.714-2.865 2.94-3.578z" font-weight="400" font-family="sans-serif" white-space="normal" overflow="visible" fill="#aad400" fill-rule="evenodd"/><path style="isolation:auto;mix-blend-mode:normal" d="M5.343 1046.953c.006-.016.03-.105.05-.197.157-.68.454-1.63.743-2.377.745-1.933 1.697-3.416 2.77-4.322.228-.19.412-.326.602-.442l.105-.064h4.9l-.143.13c-.806.722-1.648 1.79-2.277 2.89a15.924 15.924 0 0 0-1.696 4.343l-.012.066H5.332l.01-.028z" overflow="visible" fill="#fff"/></g></g></svg>