<svg xmlns="http://www.w3.org/2000/svg" xmlns:xlink="http://www.w3.org/1999/xlink" width="24" height="24" viewBox="0 0 24 24"><defs><linearGradient id="a"><stop offset="0" stop-color="#e35f00" stop-opacity=".996"/><stop offset="1" stop-color="#ff950d" stop-opacity=".996"/></linearGradient><linearGradient id="b"><stop offset="0"/><stop offset="1" stop-opacity="0"/></linearGradient><linearGradient id="d"><stop offset="0" stop-color="#1f58b6"/><stop offset="1" stop-color="#7aa4e8"/></linearGradient><radialGradient gradientTransform="matrix(1.4121 -1.10457 1.0703 1.3683 -14.652 5.117)" gradientUnits="userSpaceOnUse" r="11.932" fy="15.165" fx="6.393" cy="15.165" cx="6.393" id="f" xlink:href="#a"/><linearGradient gradientUnits="userSpaceOnUse" y2="-6.266" x2="30.151" y1="20.047" x1="4.943" id="g" xlink:href="#b"/><radialGradient r="11.932" fy="15.165" fx="6.393" cy="15.165" cx="6.393" gradientTransform="matrix(1.4121 -1.10457 1.0703 1.3683 -14.652 5.117)" gradientUnits="userSpaceOnUse" id="c" xlink:href="#d"/><radialGradient r="11.932" fy="15.165" fx="6.393" cy="15.165" cx="6.393" gradientTransform="matrix(1.4121 -1.10457 1.0703 1.3683 -14.652 5.117)" gradientUnits="userSpaceOnUse" id="e" xlink:href="#d"/><clipPath id="h"><circle style="isolation:auto;mix-blend-mode:normal" cx="12" cy="1040.362" r="11.081" color="#000" overflow="visible" fill="red" fill-rule="evenodd" stroke-linecap="square" stroke-dashoffset=".85"/></clipPath></defs><g color="#000" fill-rule="evenodd"><path style="isolation:auto;mix-blend-mode:normal" d="M23.932 12A11.932 11.932 0 0 1 12 23.932 11.932 11.932 0 0 1 .068 12 11.932 11.932 0 0 1 12 .068 11.932 11.932 0 0 1 23.932 12z" overflow="visible" fill="url(#f)"/><path style="line-height:normal;text-indent:0;text-align:start;text-decoration-line:none;text-decoration-style:solid;text-decoration-color:#000;text-transform:none;block-progression:tb;isolation:auto;mix-blend-mode:normal" d="M12.047.006C5.437.006.067 5.374.067 11.984c0 6.61 5.37 11.98 11.98 11.98s11.978-5.37 11.978-11.98S18.657.006 12.047.006zm0 .963c6.09 0 11.015 4.925 11.015 11.014 0 6.09-4.926 11.016-11.015 11.016A11.008 11.008 0 0 1 1.03 11.984C1.03 5.894 5.958.97 12.048.97z" font-weight="400" font-family="sans-serif" white-space="normal" overflow="visible" opacity=".096" fill="url(#g)"/></g><g transform="translate(-.486 -1028.362)"><ellipse transform="translate(.595 .01)" style="isolation:auto;mix-blend-mode:normal" cx="12.226" cy="1055.095" rx="14.844" ry="12.969" clip-path="url(#h)" color="#000" overflow="visible" fill="#803300" fill-opacity=".996" fill-rule="evenodd"/><path d="M5.338 1042.38v-5.595l-.51-.523-.51-.523v-3.08h1.02v1.02h1.02v-1.02H7.38v1.02h1.022v-1.02h1.02v3.098l-.51.507-.51.508v4.058h1.02v-1.022h2.042v1.02h2.042v-1.02h2.044v1.02h1.02v-4.043l-.51-.523-.51-.523v-3.08h1.02v1.02h1.022v-1.02h1.02v1.02h1.022v-1.02h1.02v3.098l-.51.507-.51.508v11.202h-5.098l-.02-1.29c-.018-1.22-.028-1.312-.174-1.608-.207-.42-.58-.78-1.017-.982-.47-.218-1.164-.23-1.62-.025a2.32 2.32 0 0 0-1.05 1.025c-.172.35-.177.398-.2 1.62l-.023 1.26H5.338v-5.595zm2.043-2.376c0-.453-.017-.87-.04-.928-.044-.116-.346-.29-.504-.29-.057 0-.187.084-.29.187l-.187.186v1.669h1.02v-.826zm11.233 0c0-.453-.018-.87-.04-.928-.044-.116-.347-.29-.504-.29-.058 0-.19.084-.292.187l-.186.186v1.669h1.02v-.826z" fill="#fff"/><path d="M4.36 1035.737h5.08l-1.032 1.03-3.047.002zM15.556 1035.8h5.08l-1.033 1.03h-3.047z" fill="#b3b3b3" fill-opacity=".996" fill-rule="evenodd"/><path style="isolation:auto;mix-blend-mode:normal" d="M12.502 1043.862a2.063 1.906 0 0 0-2.063 1.89h-.032v2.22h4.188v-2.22h-.032a2.063 1.906 0 0 0-2.062-1.89z" color="#000" overflow="visible" fill="gray" fill-opacity=".996"/><path style="isolation:auto;mix-blend-mode:normal" color="#000" overflow="visible" fill="#b3b3b3" fill-opacity=".996" d="M5.346 1046.863h4.167v1.105H5.346zM15.495 1046.876h4.135v1.105h-4.135z"/></g></svg>