<svg xmlns="http://www.w3.org/2000/svg" xmlns:xlink="http://www.w3.org/1999/xlink" width="24" height="24" viewBox="0 0 24 24"><defs><linearGradient id="a"><stop offset="0" stop-color="#e35f00" stop-opacity=".996"/><stop offset="1" stop-color="#ff950d" stop-opacity=".996"/></linearGradient><linearGradient id="b"><stop offset="0"/><stop offset="1" stop-opacity="0"/></linearGradient><linearGradient id="d"><stop offset="0" stop-color="#1f58b6"/><stop offset="1" stop-color="#7aa4e8"/></linearGradient><radialGradient xlink:href="#a" id="f" cx="6.393" cy="15.165" fx="6.393" fy="15.165" r="11.932" gradientUnits="userSpaceOnUse" gradientTransform="matrix(1.4121 -1.10457 1.0703 1.3683 -14.652 5.117)"/><linearGradient xlink:href="#b" id="g" x1="4.943" y1="20.047" x2="30.151" y2="-6.266" gradientUnits="userSpaceOnUse"/><radialGradient xlink:href="#d" id="c" gradientUnits="userSpaceOnUse" gradientTransform="matrix(1.4121 -1.10457 1.0703 1.3683 -14.652 5.117)" cx="6.393" cy="15.165" fx="6.393" fy="15.165" r="11.932"/><radialGradient xlink:href="#d" id="e" gradientUnits="userSpaceOnUse" gradientTransform="matrix(1.4121 -1.10457 1.0703 1.3683 -14.652 5.117)" cx="6.393" cy="15.165" fx="6.393" fy="15.165" r="11.932"/><clipPath id="h"><circle style="isolation:auto;mix-blend-mode:normal" cx="12" cy="1040.362" r="11.009" color="#000" overflow="visible" fill="#0f0"/></clipPath></defs><g color="#000" fill-rule="evenodd"><path d="M23.932 12A11.932 11.932 0 0 1 12 23.932 11.932 11.932 0 0 1 .068 12 11.932 11.932 0 0 1 12 .068 11.932 11.932 0 0 1 23.932 12z" style="isolation:auto;mix-blend-mode:normal" overflow="visible" fill="url(#f)"/><path d="M12.047.006C5.437.006.067 5.374.067 11.984c0 6.61 5.37 11.98 11.98 11.98s11.978-5.37 11.978-11.98S18.657.006 12.047.006zm0 .963c6.09 0 11.015 4.925 11.015 11.014 0 6.09-4.926 11.016-11.015 11.016A11.008 11.008 0 0 1 1.03 11.984C1.03 5.894 5.958.97 12.048.97z" style="line-height:normal;text-indent:0;text-align:start;text-decoration-line:none;text-decoration-style:solid;text-decoration-color:#000;text-transform:none;block-progression:tb;isolation:auto;mix-blend-mode:normal" font-weight="400" font-family="sans-serif" white-space="normal" overflow="visible" opacity=".096" fill="url(#g)"/></g><g transform="translate(0 -1028.362)" color="#000"><path style="isolation:auto;mix-blend-mode:normal" d="M12.03 1029.425A10.913 10.415 0 0 0 1.12 1039.84a10.913 10.415 0 0 0 .712 3.692 10.913 10.415 0 0 1 10.2-6.746 10.913 10.415 0 0 1 10.202 6.722 10.913 10.415 0 0 0 .713-3.67 10.913 10.415 0 0 0-10.914-10.413z" overflow="visible"/><circle style="isolation:auto;mix-blend-mode:normal" cx="12" cy="1045.362" r="11.938" clip-path="url(#h)" overflow="visible" fill="#520"/><g transform="translate(9.6 421.264) scale(.5777)" fill="#fff"><path d="M-3.102 1068.426c-.46-.287-.762-.762-1.108-1.17-.207-.29-.557-.62-.416-1.01.264-.536.794-.866 1.224-1.257 1.283-1.053 2.558-2.114 3.877-3.12.26-.223.67-.47.92-.082.495.504 1.004 1.02 1.342 1.646.227.405-.18.754-.458.99a147.347 147.347 0 0 1-4.803 3.895c-.158.134-.384.21-.58.106z" style="isolation:auto;mix-blend-mode:normal" overflow="visible" fill="#e6e6e6" stroke="red" stroke-width=".028"/><path d="M15.73 1072.35c-1.116-1.617-2.146-3.28-3.193-4.933-.41-.682-.863-1.35-1.207-2.06-.093-.407.473-.49.79-.347 1.57.394 3.118.874 4.674 1.32.773.24 1.563.434 2.32.72.477.177.512.72.484 1.11-.074.753-.323 1.476-.633 2.16-.32.543-.808.977-1.272 1.41-.457.402-.99.783-1.657.83-.163.056-.22-.117-.305-.21z" style="isolation:auto;mix-blend-mode:normal" overflow="visible" fill="#fd5" stroke="red" stroke-width=".026"/><path d="M3.15 1084.974c-1.01-.1-1.405-1.157-1.288-2.05-.03-1.51-.02-3.02-.023-4.532-.947-.914-1.845-1.884-2.855-2.73-.6.376-.5 1.887-.838 2.685-.07 1.07-.72 1.87-1.498 2.544-1.27 1.25-2.504 2.543-3.89 3.66-1.07.732-2.596-.504-2.185-1.715.586-1.02 1.556-1.763 2.35-2.62.7-.736 1.5-1.413 2.157-2.17.538-2.267.978-4.56 1.63-6.798.423-1.002 1.455-1.537 2.21-2.266 1.245-1.025 2.47-2.08 3.782-3.02 1.202-.58 2.816-.286 3.56.877.79 1.513 1.163 3.207 1.81 4.782 1.105.888 2.33 1.653 3.295 2.7.707.913-.697 2.33-1.595 1.556-1.283-.877-2.556-1.78-3.734-2.793-.49-.777-.64-1.79-1.09-2.54a41.072 41.072 0 0 0-3.553 2.936c1.064 1.282 2.38 2.353 3.39 3.686.198 1.653.084 3.335.118 5-.016.99.124 2.398-1.084 2.743a1.44 1.44 0 0 1-.67.064z" style="isolation:auto;mix-blend-mode:normal" overflow="visible" stroke="red" stroke-width=".028"/><circle r="2.53" cy="1063.964" cx="7.743" style="isolation:auto;mix-blend-mode:normal" overflow="visible"/></g></g></svg>