<svg xmlns="http://www.w3.org/2000/svg" xmlns:xlink="http://www.w3.org/1999/xlink" width="24" height="24" viewBox="0 0 24 24"><defs><linearGradient id="i"><stop offset="0" stop-color="#1d3153"/><stop offset="1" stop-color="#1d3153" stop-opacity="0"/></linearGradient><linearGradient id="h"><stop offset="0" stop-color="#1d3153"/><stop offset="1" stop-color="#fafafa"/></linearGradient><linearGradient id="g"><stop offset="0" stop-color="#626262"/><stop offset="1" stop-color="#cfcfcf"/></linearGradient><linearGradient id="f"><stop offset="0" stop-color="#666"/><stop offset="1" stop-color="#f2f2f2"/></linearGradient><linearGradient id="a"><stop offset="0" stop-color="#7c05fc" stop-opacity=".996"/><stop offset="1" stop-color="#e244fe" stop-opacity=".996"/></linearGradient><linearGradient id="b"><stop offset="0"/><stop offset="1" stop-opacity="0"/></linearGradient><linearGradient id="d"><stop offset="0" stop-color="#1f58b6"/><stop offset="1" stop-color="#7aa4e8"/></linearGradient><radialGradient xlink:href="#a" id="j" cx="6.393" cy="15.165" fx="6.393" fy="15.165" r="11.932" gradientUnits="userSpaceOnUse" gradientTransform="matrix(1.4121 -1.10457 1.0703 1.3683 -14.652 5.117)"/><linearGradient xlink:href="#b" id="k" x1="4.943" y1="20.047" x2="30.151" y2="-6.266" gradientUnits="userSpaceOnUse"/><radialGradient xlink:href="#d" id="c" gradientUnits="userSpaceOnUse" gradientTransform="matrix(1.4121 -1.10457 1.0703 1.3683 -14.652 5.117)" cx="6.393" cy="15.165" fx="6.393" fy="15.165" r="11.932"/><radialGradient xlink:href="#d" id="e" gradientUnits="userSpaceOnUse" gradientTransform="matrix(1.4121 -1.10457 1.0703 1.3683 -14.652 5.117)" cx="6.393" cy="15.165" fx="6.393" fy="15.165" r="11.932"/><clipPath id="q"><circle r="11.026" cy="1040.362" cx="12" style="isolation:auto;mix-blend-mode:normal" color="#000" overflow="visible" fill="#ac9393" stroke-opacity=".428"/></clipPath><linearGradient xlink:href="#f" id="o" x1="190.757" y1="980.72" x2="190.757" y2="970.984" gradientUnits="userSpaceOnUse"/><linearGradient xlink:href="#g" id="p" x1="205.922" y1="966.865" x2="204.986" y2="868.01" gradientUnits="userSpaceOnUse"/><linearGradient xlink:href="#h" id="n" x1="190.008" y1="994.949" x2="190.008" y2="983.715" gradientUnits="userSpaceOnUse"/><clipPath id="l"><circle r="11.026" cy="1040.362" cx="12" style="isolation:auto;mix-blend-mode:normal" color="#000" overflow="visible" fill="#ac9393" stroke-opacity=".428"/></clipPath><linearGradient xlink:href="#i" id="m" x1="12.094" y1="1050.875" x2="12.094" y2="1047.719" gradientUnits="userSpaceOnUse"/></defs><g color="#000" fill-rule="evenodd"><path d="M23.932 12A11.932 11.932 0 0 1 12 23.932 11.932 11.932 0 0 1 .068 12 11.932 11.932 0 0 1 12 .068 11.932 11.932 0 0 1 23.932 12z" style="isolation:auto;mix-blend-mode:normal" overflow="visible" fill="url(#j)"/><path d="M12.047.006C5.437.006.067 5.374.067 11.984c0 6.61 5.37 11.98 11.98 11.98s11.978-5.37 11.978-11.98S18.657.006 12.047.006zm0 .963c6.09 0 11.015 4.925 11.015 11.014 0 6.09-4.926 11.016-11.015 11.016A11.008 11.008 0 0 1 1.03 11.984C1.03 5.894 5.958.97 12.048.97z" style="line-height:normal;text-indent:0;text-align:start;text-decoration-line:none;text-decoration-style:solid;text-decoration-color:#000;text-transform:none;block-progression:tb;isolation:auto;mix-blend-mode:normal" font-weight="400" font-family="sans-serif" white-space="normal" overflow="visible" opacity=".096" fill="url(#k)"/></g><path transform="matrix(1 0 0 -1 -.03 1052.22)" style="isolation:auto;mix-blend-mode:normal" clip-path="url(#l)" color="#000" overflow="visible" fill="url(#m)" d="M2.906 1047.612h18.438v4.75H2.906z"/><g transform="matrix(.11802 0 0 .11802 -10.626 -98.29)"><rect width="129.25" height="13.5" x="127.079" y="981.855" ry=".521" fill="url(#n)"/><rect width="101.75" height="12.625" x="140.954" y="969.355" ry=".521" fill="url(#o)"/><path d="M189.6 867.23h4.208c29.254 0 35.77 15.954 35.77 35.77v30.21l.01 35.77h-75.832l.073-35.77V903c0-19.816 6.14-35.77 35.77-35.77z" fill="url(#p)"/><path d="M184.862 878.63v17.902H165.21v12.727h19.652v54.4h12.726v-54.4h19.653V896.53H197.59V878.63h-12.726z"/><path d="M184.91 876.11v17.9h-19.653v12.728h19.652v54.402h12.726v-54.402h19.652V894.01h-19.652v-17.9H184.91z" fill="#fff"/></g><path transform="translate(.017 -1028.395)" style="isolation:auto;mix-blend-mode:normal" clip-path="url(#q)" color="#000" overflow="visible" fill="#1d3153" d="M2.906 1047.612h18.438v4.75H2.906z"/></svg>