<svg xmlns="http://www.w3.org/2000/svg" xmlns:xlink="http://www.w3.org/1999/xlink" width="24" height="24" viewBox="0 0 24 24"><defs><linearGradient id="a"><stop offset="0" stop-color="#7c05fc" stop-opacity=".996"/><stop offset="1" stop-color="#e244fe" stop-opacity=".996"/></linearGradient><linearGradient id="b"><stop offset="0"/><stop offset="1" stop-opacity="0"/></linearGradient><linearGradient id="d"><stop offset="0" stop-color="#1f58b6"/><stop offset="1" stop-color="#7aa4e8"/></linearGradient><radialGradient xlink:href="#a" id="f" cx="6.393" cy="15.165" fx="6.393" fy="15.165" r="11.932" gradientUnits="userSpaceOnUse" gradientTransform="matrix(1.4121 -1.10457 1.0703 1.3683 -14.652 5.117)"/><linearGradient xlink:href="#b" id="g" x1="4.943" y1="20.047" x2="30.151" y2="-6.266" gradientUnits="userSpaceOnUse"/><radialGradient xlink:href="#d" id="c" gradientUnits="userSpaceOnUse" gradientTransform="matrix(1.4121 -1.10457 1.0703 1.3683 -14.652 5.117)" cx="6.393" cy="15.165" fx="6.393" fy="15.165" r="11.932"/><radialGradient xlink:href="#d" id="e" gradientUnits="userSpaceOnUse" gradientTransform="matrix(1.4121 -1.10457 1.0703 1.3683 -14.652 5.117)" cx="6.393" cy="15.165" fx="6.393" fy="15.165" r="11.932"/></defs><g color="#000" fill-rule="evenodd"><path d="M23.932 12A11.932 11.932 0 0 1 12 23.932 11.932 11.932 0 0 1 .068 12 11.932 11.932 0 0 1 12 .068 11.932 11.932 0 0 1 23.932 12z" style="isolation:auto;mix-blend-mode:normal" overflow="visible" fill="url(#f)"/><path d="M12.047.006C5.437.006.067 5.374.067 11.984c0 6.61 5.37 11.98 11.98 11.98s11.978-5.37 11.978-11.98S18.657.006 12.047.006zm0 .963c6.09 0 11.015 4.925 11.015 11.014 0 6.09-4.926 11.016-11.015 11.016A11.008 11.008 0 0 1 1.03 11.984C1.03 5.894 5.958.97 12.048.97z" style="line-height:normal;text-indent:0;text-align:start;text-decoration-line:none;text-decoration-style:solid;text-decoration-color:#000;text-transform:none;block-progression:tb;isolation:auto;mix-blend-mode:normal" font-weight="400" font-family="sans-serif" white-space="normal" overflow="visible" opacity=".096" fill="url(#g)"/></g><g color="#000"><path style="isolation:auto;mix-blend-mode:normal" d="M11.998 3.152a.663.662 0 0 0-.66.613.663.662 0 0 0-.29-.07.663.662 0 0 0-.663.665.663.662 0 0 0 .662.66.663.662 0 0 0 .252-.05.663.662 0 0 0 .64.498.663.662 0 0 0 .663-.662.663.662 0 0 0-.197-.472.663.662 0 0 0 .256-.52.663.662 0 0 0-.664-.662zm-2.85 1.413a.663.662 0 0 0-.236.064.663.662 0 0 0-.312.88.663.662 0 0 0 .154.205.663.662 0 0 0-.174.792.663.662 0 0 0 .88.314.663.662 0 0 0 .345-.38.663.662 0 0 0 .58.007.663.662 0 0 0 .312-.882.663.662 0 0 0-.838-.334.663.662 0 0 0-.063-.29.663.662 0 0 0-.65-.376zm4.596.154a.663.662 0 0 0-.66.61.663.662 0 0 0-.29-.067.663.662 0 0 0-.663.663.663.662 0 0 0 .663.66.663.662 0 0 0 .252-.05.663.662 0 0 0 .613.498.663.662 0 0 0 .3.302.663.662 0 0 0 .08.728.663.662 0 0 0-.104.045.663.662 0 0 0-.194-.538.663.662 0 0 0-.476-.19.663.662 0 0 0-.194-.547.663.662 0 0 0-.85-.062.663.662 0 0 0 0-.047.663.662 0 0 0-.663-.66.663.662 0 0 0-.66.61.663.662 0 0 0-.292-.067.663.662 0 0 0-.66.635.663.662 0 0 0-.11.095.663.662 0 0 0-.19-.232.663.662 0 0 0-.928.117.663.662 0 0 0 .115.93.663.662 0 0 0 .23.114.663.662 0 0 0-.03.432h-.587a.663.662 0 0 0 .016-.135.663.662 0 0 0-.196-.472.663.662 0 0 0 .255-.52.663.662 0 0 0-.665-.662.663.662 0 0 0-.66.613.663.662 0 0 0-.29-.07.663.662 0 0 0-.663.665.663.662 0 0 0 .344.582h-.95a.53.53 0 0 0 0 1.06H6l.77 4.804.974 6.207H11.357v.012h.994v-.012h3.947L18.023 9.76h.383a.53.53 0 0 0 0-1.058h-.9a.663.662 0 0 0 .357-.585.663.662 0 0 0-.197-.472.663.662 0 0 0 .256-.52.663.662 0 0 0-.664-.662.663.662 0 0 0-.66.612.663.662 0 0 0-.29-.068.663.662 0 0 0-.5.228.663.662 0 0 0 0-.045.663.662 0 0 0-.197-.472.663.662 0 0 0 .257-.52.663.662 0 0 0-.664-.662.663.662 0 0 0-.66.612.663.662 0 0 0-.262-.068.663.662 0 0 0-.128-.18.663.662 0 0 0 .256-.52.663.662 0 0 0-.664-.66zm1.902 2.9a.663.662 0 0 0-.002.05.663.662 0 0 0 .663.66.663.662 0 0 0 .252-.05.663.662 0 0 0 .334.422H15.78a.663.662 0 0 0-.108-.77.663.662 0 0 0-.23-.153.663.662 0 0 0 .204-.16zm-4.716.438a.663.662 0 0 0 .57.322.663.662 0 0 0 .168-.023.663.662 0 0 0 .09.345H10.31a.663.662 0 0 0 .016-.255.663.662 0 0 0 .524-.256.663.662 0 0 0 .08-.132zm2.013.56a.663.662 0 0 0 .25.084H12.9a.663.662 0 0 0 .043-.084zm.64.012a.663.662 0 0 0-.003.072h-.238a.663.662 0 0 0 .242-.072z" overflow="visible" fill="#405"/><g transform="matrix(.40772 0 0 .40772 8.523 -415.593)"><path d="M-6.27 1040.008h29.645l-4.335 27.694H-1.934zM-1.665 1033.667a1.626 1.626 0 0 0-1.62 1.505 1.626 1.626 0 0 0-.713-.168 1.626 1.626 0 0 0-1.624 1.63 1.626 1.626 0 0 0 1.624 1.623 1.626 1.626 0 0 0 .618-.125 1.626 1.626 0 0 0 1.576 1.222 1.626 1.626 0 0 0 1.624-1.624 1.626 1.626 0 0 0-.484-1.16 1.626 1.626 0 0 0 .627-1.28 1.626 1.626 0 0 0-1.628-1.623z" style="isolation:auto;mix-blend-mode:normal" overflow="visible" fill="#fff"/><path d="M7.414 1031.583a1.626 1.626 0 0 0-1.62 1.504 1.626 1.626 0 0 0-.713-.168 1.626 1.626 0 0 0-1.623 1.628 1.626 1.626 0 0 0 1.624 1.624 1.626 1.626 0 0 0 .62-.125 1.626 1.626 0 0 0 1.575 1.222 1.626 1.626 0 0 0 1.624-1.625 1.626 1.626 0 0 0-.485-1.16 1.626 1.626 0 0 0 .627-1.278 1.626 1.626 0 0 0-1.628-1.624z" style="isolation:auto;mix-blend-mode:normal" overflow="visible" fill="#e6e6e6"/><path d="M8.828 1033.5a1.626 1.626 0 0 0-.06 2.21 1.626 1.626 0 0 0-.62.392 1.626 1.626 0 0 0 .027 2.3 1.626 1.626 0 0 0 2.297-.023 1.626 1.626 0 0 0 .343-.53 1.626 1.626 0 0 0 1.976-.27 1.626 1.626 0 0 0-.022-2.296 1.626 1.626 0 0 0-1.166-.466 1.626 1.626 0 0 0-.474-1.344 1.626 1.626 0 0 0-2.3.026zM5.392 1034.523a1.626 1.626 0 0 0-2.202.192 1.626 1.626 0 0 0-.46-.57 1.626 1.626 0 0 0-2.282.287 1.626 1.626 0 0 0 .284 2.28 1.626 1.626 0 0 0 .564.28 1.626 1.626 0 0 0 .493 1.933 1.626 1.626 0 0 0 2.278-.284 1.626 1.626 0 0 0 .33-1.21 1.626 1.626 0 0 0 1.28-.625 1.626 1.626 0 0 0-.286-2.282zM16.356 1030.282a1.626 1.626 0 0 0-1.62 1.504 1.626 1.626 0 0 0-.713-.168 1.626 1.626 0 0 0-1.624 1.63 1.626 1.626 0 0 0 1.623 1.623 1.626 1.626 0 0 0 .618-.124 1.626 1.626 0 0 0 1.577 1.222 1.626 1.626 0 0 0 1.624-1.624 1.626 1.626 0 0 0-.483-1.16 1.626 1.626 0 0 0 .628-1.278 1.626 1.626 0 0 0-1.63-1.624z" style="isolation:auto;mix-blend-mode:normal" overflow="visible" fill="#fff"/><path d="M13.617 1034.283a1.626 1.626 0 0 0-.117 2.207 1.626 1.626 0 0 0-.63.376 1.626 1.626 0 0 0-.033 2.3 1.626 1.626 0 0 0 2.296.037 1.626 1.626 0 0 0 .358-.52 1.626 1.626 0 0 0 1.982-.218 1.626 1.626 0 0 0 .037-2.296 1.626 1.626 0 0 0-1.155-.498 1.626 1.626 0 0 0-.44-1.355 1.626 1.626 0 0 0-2.298-.034zM5.306 1030.353a1.626 1.626 0 0 0-2.053-.816 1.626 1.626 0 0 0-.156-.716 1.626 1.626 0 0 0-2.168-.766 1.626 1.626 0 0 0-.77 2.164 1.626 1.626 0 0 0 .378.505 1.626 1.626 0 0 0-.426 1.948 1.626 1.626 0 0 0 2.164.77 1.626 1.626 0 0 0 .84-.935 1.626 1.626 0 0 0 1.424.017 1.626 1.626 0 0 0 .766-2.17zM12.78 1028.277a1.626 1.626 0 0 0-1.62 1.504 1.626 1.626 0 0 0-.714-.167 1.626 1.626 0 0 0-1.624 1.63 1.626 1.626 0 0 0 1.624 1.623 1.626 1.626 0 0 0 .618-.125 1.626 1.626 0 0 0 1.576 1.223 1.626 1.626 0 0 0 1.624-1.624 1.626 1.626 0 0 0-.484-1.16 1.626 1.626 0 0 0 .628-1.28 1.626 1.626 0 0 0-1.63-1.623z" style="isolation:auto;mix-blend-mode:normal" overflow="visible" fill="#fff"/><path d="M21.396 1032.558a1.626 1.626 0 0 0-1.62 1.504 1.626 1.626 0 0 0-.713-.167 1.626 1.626 0 0 0-1.624 1.628 1.626 1.626 0 0 0 1.623 1.624 1.626 1.626 0 0 0 .618-.124 1.626 1.626 0 0 0 1.577 1.22 1.626 1.626 0 0 0 1.624-1.623 1.626 1.626 0 0 0-.483-1.16 1.626 1.626 0 0 0 .628-1.278 1.626 1.626 0 0 0-1.63-1.624zM8.497 1024.43a1.626 1.626 0 0 0-1.62 1.503 1.626 1.626 0 0 0-.712-.168 1.626 1.626 0 0 0-1.624 1.63 1.626 1.626 0 0 0 1.625 1.623 1.626 1.626 0 0 0 .618-.125 1.626 1.626 0 0 0 1.576 1.222 1.626 1.626 0 0 0 1.622-1.624 1.626 1.626 0 0 0-.483-1.158 1.626 1.626 0 0 0 .626-1.28 1.626 1.626 0 0 0-1.63-1.623z" style="isolation:auto;mix-blend-mode:normal" overflow="visible" fill="#fff"/><rect ry="1.301" y="1038.057" x="-8.411" height="2.601" width="33.927" style="isolation:auto;mix-blend-mode:normal" overflow="visible" fill="#e6e6e6"/><path style="isolation:auto;mix-blend-mode:normal" d="M12.56 1040.685h4.968l-1.418 27.044h-4.968zM-.968 1040.688H4l1.916 27.044H.948z" overflow="visible" fill="red"/></g></g></svg>