<svg xmlns="http://www.w3.org/2000/svg" xmlns:xlink="http://www.w3.org/1999/xlink" width="24" height="24" viewBox="0 0 24 24"><defs><linearGradient id="a"><stop offset="0" stop-color="#e35f00" stop-opacity=".996"/><stop offset="1" stop-color="#ff950d" stop-opacity=".996"/></linearGradient><linearGradient id="b"><stop offset="0"/><stop offset="1" stop-opacity="0"/></linearGradient><linearGradient id="d"><stop offset="0" stop-color="#1f58b6"/><stop offset="1" stop-color="#7aa4e8"/></linearGradient><radialGradient xlink:href="#a" id="f" cx="6.393" cy="15.165" fx="6.393" fy="15.165" r="11.932" gradientUnits="userSpaceOnUse" gradientTransform="matrix(1.4121 -1.10457 1.0703 1.3683 -14.652 5.117)"/><linearGradient xlink:href="#b" id="g" x1="4.943" y1="20.047" x2="30.151" y2="-6.266" gradientUnits="userSpaceOnUse"/><radialGradient xlink:href="#d" id="c" gradientUnits="userSpaceOnUse" gradientTransform="matrix(1.4121 -1.10457 1.0703 1.3683 -14.652 5.117)" cx="6.393" cy="15.165" fx="6.393" fy="15.165" r="11.932"/><radialGradient xlink:href="#d" id="e" gradientUnits="userSpaceOnUse" gradientTransform="matrix(1.4121 -1.10457 1.0703 1.3683 -14.652 5.117)" cx="6.393" cy="15.165" fx="6.393" fy="15.165" r="11.932"/><clipPath id="i"><path style="isolation:auto;mix-blend-mode:normal" d="M22.982 12A10.982 10.982 0 0 1 12 22.982 10.982 10.982 0 0 1 1.018 12 10.982 10.982 0 0 1 12 1.018 10.982 10.982 0 0 1 22.982 12z" color="#000" overflow="visible" fill="url(#radialGradient14164)" fill-rule="evenodd" stroke-width="2" stroke-linecap="square" stroke-dashoffset=".85"/></clipPath><clipPath id="h"><path style="isolation:auto;mix-blend-mode:normal" d="M22.982 12A10.982 10.982 0 0 1 12 22.982 10.982 10.982 0 0 1 1.018 12 10.982 10.982 0 0 1 12 1.018 10.982 10.982 0 0 1 22.982 12z" color="#000" overflow="visible" fill="url(#radialGradient14170)" fill-rule="evenodd" stroke-width="2" stroke-linecap="square" stroke-dashoffset=".85"/></clipPath></defs><g color="#000" fill-rule="evenodd"><path d="M23.932 12A11.932 11.932 0 0 1 12 23.932 11.932 11.932 0 0 1 .068 12 11.932 11.932 0 0 1 12 .068 11.932 11.932 0 0 1 23.932 12z" style="isolation:auto;mix-blend-mode:normal" overflow="visible" fill="url(#f)"/><path d="M12.047.006C5.437.006.067 5.374.067 11.984c0 6.61 5.37 11.98 11.98 11.98s11.978-5.37 11.978-11.98S18.657.006 12.047.006zm0 .963c6.09 0 11.015 4.925 11.015 11.014 0 6.09-4.926 11.016-11.015 11.016A11.008 11.008 0 0 1 1.03 11.984C1.03 5.894 5.958.97 12.048.97z" style="line-height:normal;text-indent:0;text-align:start;text-decoration-line:none;text-decoration-style:solid;text-decoration-color:#000;text-transform:none;block-progression:tb;isolation:auto;mix-blend-mode:normal" font-weight="400" font-family="sans-serif" white-space="normal" overflow="visible" opacity=".096" fill="url(#g)"/></g><path transform="rotate(-7.693 11.49 12.36)" d="M.016 18.08l24-17.8.062 23.814-24.094-.08z" clip-path="url(#h)" fill="#a40" fill-rule="evenodd"/><path transform="rotate(-7.693 11.49 12.36)" d="M0 19.856l24-12.45.063 16.657-24.094-.057z" clip-path="url(#i)" fill="maroon" fill-rule="evenodd"/><g fill="#2b0000"><path d="M12.997 22.505c-.027-.026-.048-1.43-.048-3.118v-3.07l.253-.12c.14-.068.286-.123.324-.123.044 0 .07 1.204.07 3.24v3.24h-.277c-.15 0-.297-.022-.323-.05z"/><path d="M7.616 21.598c-.347-.234-.57-.597-.57-.926 0-.202.395-1.185 1.457-3.625L9.96 13.7h3.636v-.575l-1.817-.02-1.82-.018-.02-1.422c-.01-.782-.042-1.422-.07-1.422-.03 0-.507.18-1.06.402-1.056.42-1.43.485-1.716.297-.094-.062-.63-.815-1.19-1.675-1.095-1.68-1.144-1.804-.877-2.24a.72.72 0 0 1 .44-.32c.506-.153.698.007 1.547 1.29.4.606.764 1.136.806 1.178.054.054.495-.09 1.505-.49l1.428-.566.984-.024.985-.023 1.415-2.265c.78-1.245 1.485-2.31 1.57-2.364.15-.096.37-.137.65-.12.07.005.225.103.34.22.243.24.286.658.104 1.01-.057.112-.802 1.316-1.654 2.673l-1.55 2.468v1.678c0 .923.025 1.678.054 1.678.03 0 .485-.196 1.01-.438 1.094-.504 1.307-.518 1.71-.113.207.208.267.39.718 2.207.54 2.176.552 2.337.19 2.724-.292.314-.67.368-1.072.154-.173-.092-.357-.25-.408-.352-.05-.102-.215-.688-.365-1.302-.15-.613-.292-1.137-.317-1.164-.024-.026-.627.23-1.34.57l-1.295.62-.618.005-.62.006-1.18 2.726c-.884 2.04-1.232 2.77-1.384 2.897-.272.23-.728.233-1.062.008z"/><path d="M14.174 11.88c.002-.292.02-.317.438-.593.93-.614 2.112-2.784 2.885-4.297.694-1.357.43-1.9.69-3.094l.123-.558h.274c.223 0 .27.023.248.126-.284 1.37.116.713-.24 2.208-.64 2.673-2.434 5.342-4.042 6.29l-.378.22zM11.067 7.685c-.637-.2-1.068-.898-.968-1.568.177-1.184 1.736-1.62 2.51-.702.92 1.094-.17 2.7-1.543 2.27z"/></g><g fill="#fff"><path d="M12.952 20.697c-.026-.026-.048-1.43-.048-3.118v-3.07l.255-.123c.14-.066.284-.12.323-.12.043 0 .07 1.203.07 3.24v3.238h-.277c-.152 0-.297-.022-.324-.048z"/><path d="M7.57 19.79c-.345-.234-.57-.597-.57-.927 0-.202.396-1.184 1.46-3.625l1.457-3.347h3.635v-.573l-1.818-.02-1.817-.02-.02-1.42c-.01-.782-.043-1.422-.072-1.422-.03 0-.506.18-1.06.402-1.055.42-1.43.484-1.715.297-.094-.062-.63-.816-1.19-1.675-1.095-1.68-1.144-1.806-.878-2.243a.72.72 0 0 1 .44-.32c.507-.15.7.01 1.548 1.292.4.604.764 1.134.806 1.176.054.054.495-.09 1.504-.49l1.43-.565.983-.022.985-.024L14.093 4c.778-1.246 1.485-2.31 1.57-2.365.15-.096.37-.136.648-.12.074.005.228.103.343.22.243.242.286.66.104 1.01-.058.113-.803 1.316-1.655 2.674l-1.55 2.467v1.678c0 .922.025 1.678.054 1.678.03 0 .484-.198 1.01-.44 1.094-.503 1.306-.517 1.71-.113.207.21.267.393.717 2.208.54 2.177.552 2.338.19 2.725-.29.313-.67.367-1.07.153-.175-.092-.358-.25-.41-.353-.05-.102-.215-.687-.364-1.3-.15-.615-.293-1.14-.318-1.165-.024-.027-.627.23-1.34.57l-1.296.62-.618.004-.62.006-1.18 2.725c-.884 2.04-1.232 2.77-1.385 2.898-.27.23-.728.234-1.062.01z"/><path d="M14.13 10.07c.002-.29.02-.315.438-.59.93-.616 1.596-1.52 2.37-3.033.693-1.357.912-1.698 1.174-2.89l.123-.56h.274c.222 0 .268.025.247.127-.33 1.448-.572 2.01-1.35 3.442-1.313 2.415-1.294 2.64-2.9 3.586l-.38.223zM11.023 5.876c-.637-.2-1.068-.897-.968-1.567.178-1.186 1.737-1.622 2.51-.703.92 1.094-.17 2.698-1.542 2.27z"/></g></svg>