<?xml version="1.0" encoding="UTF-8"?>
<!-- Created with Inkscape (http://www.inkscape.org/) -->
<svg width="24" height="24" version="1.1" viewBox="0 0 24 24" xmlns="http://www.w3.org/2000/svg" xmlns:cc="http://creativecommons.org/ns#" xmlns:dc="http://purl.org/dc/elements/1.1/" xmlns:rdf="http://www.w3.org/1999/02/22-rdf-syntax-ns#" xmlns:xlink="http://www.w3.org/1999/xlink">
 <defs>
  <radialGradient id="radialGradient14151" cx="6.3932" cy="15.165" r="11.932" gradientTransform="matrix(1.4121 -1.1046 1.0703 1.3683 -14.652 5.1167)" gradientUnits="userSpaceOnUse">
   <stop stop-color="#0081e3" stop-opacity=".99608" offset="0"/>
   <stop stop-color="#92c5e6" stop-opacity=".99608" offset="1"/>
  </radialGradient>
  <linearGradient id="linearGradient14183" x1="4.9426" x2="30.151" y1="20.047" y2="-6.2656" gradientUnits="userSpaceOnUse">
   <stop offset="0"/>
   <stop stop-opacity="0" offset="1"/>
  </linearGradient>
  <linearGradient id="linearGradient1116" x1="-18.91" x2="-18.91" y1="1043.5" y2="1054.3" gradientUnits="userSpaceOnUse">
   <stop stop-color="#a2a2a2" offset="0"/>
   <stop stop-color="#e7e7e7" offset=".2"/>
   <stop stop-color="#e7e7e7" offset="1"/>
  </linearGradient>
 </defs>
 <metadata>
  <rdf:RDF>
   <cc:Work rdf:about="">
    <dc:format>image/svg+xml</dc:format>
    <dc:type rdf:resource="http://purl.org/dc/dcmitype/StillImage"/>
    <dc:title/>
   </cc:Work>
  </rdf:RDF>
 </metadata>
 <g>
  <g fill-rule="evenodd" shape-rendering="auto">
   <path d="m23.932 12a11.932 11.932 0 0 1-11.932 11.932 11.932 11.932 0 0 1-11.932-11.932 11.932 11.932 0 0 1 11.932-11.932 11.932 11.932 0 0 1 11.932 11.932z" color="#000000" color-rendering="auto" fill="url(#radialGradient14151)" image-rendering="auto" solid-color="#000000" style="isolation:auto;mix-blend-mode:normal"/>
   <path d="m12.047 0.0058594c-6.6103-1e-7 -11.979 5.3682-11.979 11.979 0 6.6103 5.3682 11.979 11.979 11.979 6.6103 0 11.979-5.3682 11.979-11.979 0-6.6103-5.3682-11.979-11.979-11.979zm0 0.96289c6.0895 0 11.016 4.9261 11.016 11.016s-4.9261 11.016-11.016 11.016-11.016-4.9261-11.016-11.016c-1e-7 -6.0895 4.9261-11.016 11.016-11.016z" color="#000000" color-rendering="auto" fill="url(#linearGradient14183)" image-rendering="auto" opacity=".096" solid-color="#000000" style="block-progression:tb;isolation:auto;mix-blend-mode:normal;text-decoration-color:#000000;text-decoration-line:none;text-decoration-style:solid;text-indent:0;text-transform:none;white-space:normal"/>
  </g>
 </g>
 <g transform="translate(0 -1028.4)">
  <g transform="translate(-.48614)">
   <g transform="translate(-.088388)">
    <g transform="matrix(.76093 0 0 .76093 25.963 247.96)">
     <ellipse transform="scale(-1,1)" cx="17.3" cy="1042.1" rx="2.9375" ry="4.0938" fill="#d45500" fill-opacity=".97881" style="paint-order:stroke fill markers"/>
     <path d="m-22.896 1028.5-0.7832 0.3633c-0.0731 0.1968-0.15037 0.3913-0.21875 0.5898-0.33403 0.9694-0.5623 1.9713-0.73828 2.9805-0.03782 0.258-0.08026 0.5148-0.11328 0.7734-0.04728 0.3702-0.07548 0.7415-0.09766 1.1133-0.06559-0.1117-0.12998-0.2241-0.19531-0.3359-0.09535-0.1545-0.19859-0.3041-0.29687-0.4571l0.18359-0.098c-0.164-0.8503-0.2538-1.7104-0.32812-2.5723-0.04721-0.5446-0.01773-1.089 0.01758-1.6328l-0.7832 0.3926c-0.02697 0.5462-0.05039 1.0943-0.0039 1.6406 0.03137 0.3726 0.08102 0.7433 0.11914 1.1152-0.14998-0.205-0.29499-0.4147-0.45312-0.6132-0.14548-0.1826-0.29928-0.3582-0.44922-0.5372l-0.73242 0.4395c0.14853 0.1783 0.30088 0.3537 0.44531 0.5352 0.55977 0.7037 1.069 1.4491 1.5332 2.2187 0.10345 0.1804 0.21139 0.3583 0.31055 0.541 0.10486 0.1933 0.19076 0.3961 0.28711 0.5938-0.07709-0.088-0.14894-0.1801-0.22852-0.2657-0.12401-0.1332-0.25363-0.2604-0.38086-0.3906-0.49576-0.4643-0.24486-0.2431-0.75195-0.6679l-0.74609 0.4667c0.50747 0.417 0.25731 0.1992 0.75391 0.6563 0.12236 0.125 0.24784 0.247 0.36719 0.375-0.2075-0.1757-0.41063-0.3558-0.62305-0.5254l-0.73242 0.4609c0.16025 0.1213 0.32414 0.237 0.48047 0.3633 0.58979 0.4765 1.1459 0.9994 1.6367 1.5782 0.13503 0.1765 0.27552 0.3481 0.4043 0.5292 0.02355 0.033 0.04138 0.07 0.06445 0.1036-0.27768-0.088-0.55668-0.1676-0.83789-0.2422-0.43058-0.1212-0.87035-0.2088-1.3184-0.2188-0.26732 0.015-0.5366 0.053-0.78711 0.1524-0.13465 0.053-0.24065 0.1127-0.36914 0.1797-1.0103 0.582-0.6451 0.352-1.1113 0.6503l0.85352-0.332c0.35382-0.2189 0.20675-0.1265-0.45312 0.252 0.174-0.094 0.34962-0.1968 0.53906-0.2578 0.19056-0.062 0.39156-0.088 0.58984-0.1075 0.06712-0.01 0.13407-0.01 0.20117-0.01 0.3761 0.013 0.74574 0.1122 1.1094 0.1992 0.54471 0.1384 1.0862 0.3005 1.6074 0.5117 0.13912 0.063 0.29283 0.1269 0.42188 0.2109 0.07224 0.047 0.12809 0.1116 0.1875 0.1719 0.06748 0.1578 0.14735 0.3108 0.19922 0.4746l0.11133-0.061c0.0016 0 0.0043 0 0.0059 0.01 0.17932 0.372 0.30231 0.7693 0.34375 1.1816v0.01l0.32227-0.168c0.08365 0.3448 0.15936 0.6917 0.22461 1.041 0.15897 0.8819 0.31544 1.7737 0.27148 2.6739l0.82422-0.42c0.0018-0.8973-0.16874-1.7798-0.3418-2.6562-0.24333-1.2681-0.62843-2.4996-1.0312-3.7246-0.01434-0.6937 0.04136-1.3891 0.14844-2.0742 0.03059-0.1958 0.07008-0.3911 0.10547-0.586 0.15775-0.7257 0.39697-1.4276 0.7168-2.0976 0.16256-0.3405 0.21637-0.4235 0.39844-0.7383 0.05804-0.091 0.11579-0.1805 0.17383-0.2715l-0.82226 0.3633c-0.0551 0.091-0.11092 0.1805-0.16602 0.2715-0.50015 0.9072-0.87257 1.8315-1.0801 2.8515-0.03421 0.1882-0.07276 0.3758-0.10352 0.5645-0.09933-0.2394-0.21426-0.4705-0.32422-0.7051l0.26367-0.1348c-0.02332-0.7897-6.03e-4 -1.582 0.0918-2.3671 0.03016-0.2563 0.06973-0.5101 0.10547-0.7657 0.17113-1.0082 0.40892-2.0071 0.75391-2.9707 0.07112-0.1986 0.15225-0.3931 0.22852-0.5898zm-1.5996 8.6543c0.06145 0.1607 0.13108 0.3188 0.18945 0.4805-0.10351-0.1373-0.21283-0.27-0.32031-0.4043z" fill="#cf0" fill-opacity=".97881" style="paint-order:stroke fill markers"/>
     <circle transform="scale(-1,1)" cx="22.488" cy="1042.9" r="3.5625" fill="#dac800" fill-opacity=".97881" style="paint-order:stroke fill markers"/>
     <g fill-opacity=".97881">
      <circle transform="scale(-1,1)" cx="10.988" cy="1043" r="2.0312" fill="#f00" style="paint-order:stroke fill markers"/>
      <circle transform="scale(-1,1)" cx="14.144" cy="1042.6" r="2.0312" fill="#782121" style="paint-order:stroke fill markers"/>
      <circle transform="scale(-1,1)" cx="12.675" cy="1041.5" r="2.0312" fill="#f55" style="paint-order:stroke fill markers"/>
     </g>
     <rect x="-18.877" y="1029.7" width="2.3125" height="14.938" ry="1.1562" fill="#e7e7e7" fill-opacity=".98039" style="paint-order:stroke fill markers"/>
     <path d="m-28.752 1043.3h22.062l-3.9917 10.849h-14.079z" fill="url(#linearGradient1116)" style="paint-order:stroke fill markers"/>
    </g>
   </g>
  </g>
 </g>
</svg>
