<svg xmlns="http://www.w3.org/2000/svg" xmlns:xlink="http://www.w3.org/1999/xlink" width="24" height="24" viewBox="0 0 24 24"><defs><linearGradient id="b"><stop offset="0" stop-color="#1f58b6"/><stop offset="1" stop-color="#7aa4e8"/></linearGradient><radialGradient xlink:href="#b" id="a" gradientUnits="userSpaceOnUse" gradientTransform="matrix(1.4121 -1.10457 1.0703 1.3683 -14.652 5.117)" cx="6.393" cy="15.165" fx="6.393" fy="15.165" r="11.932"/><radialGradient xlink:href="#b" id="c" gradientUnits="userSpaceOnUse" gradientTransform="matrix(1.4121 -1.10457 1.0703 1.3683 -14.652 5.117)" cx="6.393" cy="15.165" fx="6.393" fy="15.165" r="11.932"/></defs><path style="isolation:auto;mix-blend-mode:normal" color="#000" overflow="visible" fill="#fff" d="M.022.003h23.975V24H.022z"/><path d="M17.083 15.565c-.036-.036-.05-.362-.05-1.206 0-.795-.014-1.158-.044-1.158a.908.908 0 0 0-.233.13c-.733.503-1.975.777-3.04.67-.667-.067-1.12-.186-1.617-.426l-.42-.203-.37.184c-1.51.748-3.656.595-4.9-.35l-.285-.216-.173.16c-.663.612-1.51.936-2.44.935-1.45-.002-2.58-.59-3.078-1.603a2.793 2.793 0 0 1-.016-2.442c.23-.472.746-.97 1.268-1.22a4.553 4.553 0 0 1 3.542-.146c.247.095.323.143.323.204 0 .093-.62 1.11-.695 1.14-.028.01-.16-.032-.29-.093-.21-.1-.294-.113-.658-.113-.388 0-.436.01-.695.136-.304.15-.51.36-.663.67-.08.16-.096.26-.096.608 0 .487.07.69.352.994.59.64 1.807.597 2.534-.09l.207-.197-.037-.208a2.924 2.924 0 0 1 .02-1.04c.202-.95.906-1.647 2.018-1.995 1.232-.387 2.795-.275 3.82.272l.305.163.257-.143c1.37-.764 3.676-.665 4.906.21.11.078.206.14.217.14.01 0 .024-.144.03-.322l.013-.322.85-.01c.927-.014.916-.016.917.228 0 .162.02.165.256.034.1-.055.33-.153.514-.217.32-.112.364-.117 1.102-.116.72.002.794.01 1.143.117.565.174.91.373 1.27.733.5.5.705 1.02.705 1.79 0 .5-.08.84-.295 1.253-.337.648-1.065 1.18-1.93 1.414-.484.13-1.328.132-1.78.003a3.096 3.096 0 0 1-.872-.39l-.114-.08v1.04c0 .988-.004 1.044-.08 1.085-.12.063-1.637.057-1.7-.007zm3.793-2.92c.297-.145.616-.494.738-.806.13-.333.13-.852.002-1.182-.13-.33-.37-.587-.705-.752-.247-.122-.314-.136-.632-.136s-.385.014-.633.137c-.318.156-.53.376-.693.716-.095.2-.11.28-.108.644 0 .36.015.448.108.647.19.407.492.674.922.814.274.09.726.052 1.002-.083zm-11.15-.086c.292-.14.552-.4.69-.69.09-.196.106-.284.106-.623 0-.35-.014-.42-.116-.615a1.526 1.526 0 0 0-.69-.67c-.195-.09-.292-.11-.587-.11-.298 0-.393.02-.592.112-.29.135-.562.4-.7.68-.088.178-.102.266-.102.623 0 .443.048.593.3.924.13.172.468.39.713.458.28.08.7.04.975-.09zm5.007.01c.332-.123.673-.466.8-.804.078-.207.09-.31.077-.603-.033-.67-.396-1.124-1.048-1.312-.63-.18-1.382.185-1.657.805-.186.42-.133.975.132 1.393.333.524 1.08.754 1.696.523z" fill="#fde6d2"/><path d="M17.103 15.546c-.016-.016-.028-.557-.028-1.204 0-.647-.015-1.186-.033-1.197-.018-.01-.16.062-.314.16-1.28.825-3.285.914-4.69.21l-.372-.187-.262.145c-.544.3-1.218.468-2.01.506-1.2.055-2.188-.21-2.963-.803l-.302-.23-.175.16a3.635 3.635 0 0 1-2.917.928C1.518 13.853.568 13.122.26 11.9c-.07-.28-.083-.422-.065-.798.035-.744.274-1.266.808-1.767.87-.817 2.377-1.125 3.77-.77.382.096.713.24.728.318.013.066-.47.89-.61 1.042-.064.068-.083.066-.338-.04-.228-.095-.332-.113-.665-.113-.342 0-.428.014-.632.11a1.45 1.45 0 0 0-.724.71c-.1.22-.117.315-.12.613 0 .464.09.723.355 1.013.29.317.607.454 1.11.477.592.027 1.1-.162 1.52-.566l.155-.15-.025-.523c-.043-.885.142-1.41.69-1.96.65-.65 1.663-.996 2.914-.996.873 0 1.612.166 2.238.503l.305.164.257-.144c1.38-.77 3.693-.67 4.905.214.108.08.216.132.24.117.023-.014.042-.166.042-.336v-.31l.842.01.842.012.012.2c.007.11.026.194.042.187.016-.007.17-.083.34-.17.485-.24.885-.33 1.498-.332 1.046-.002 1.857.285 2.435.863.48.48.683 1.01.684 1.783 0 .766-.204 1.274-.727 1.8-.274.276-.407.372-.73.53-1.087.537-2.31.53-3.216-.015a2.693 2.693 0 0 0-.295-.165c-.012 0-.023.475-.023 1.056 0 .925-.008 1.06-.065 1.082-.09.035-1.62.032-1.654-.002zm3.78-2.86c.437-.2.757-.648.852-1.196.117-.67-.217-1.34-.807-1.62-.768-.365-1.65-.04-2.015.745-.096.205-.11.29-.108.632.002.476.1.766.356 1.057a1.48 1.48 0 0 0 1.722.383zM9.627 12.64c.805-.266 1.185-1.24.794-2.035a1.423 1.423 0 0 0-.71-.682c-.33-.154-.835-.154-1.17.002a1.42 1.42 0 0 0-.713.694c-.124.25-.137.31-.137.652 0 .34.013.402.137.654.33.667 1.062.96 1.798.716zm5.21-.074c.274-.134.587-.455.708-.726.103-.233.144-.744.08-.987-.12-.438-.514-.86-.943-1.005-.99-.336-2.018.477-1.92 1.518.056.6.42 1.06 1.02 1.284.25.094.78.053 1.055-.083z" fill="#fdcea5"/><path d="M17.103 15.504c-.016-.015-.028-.567-.028-1.227 0-.66-.01-1.2-.02-1.2s-.154.087-.318.194a4.69 4.69 0 0 1-1.35.565c-.328.083-.47.094-1.224.092-.79-.002-.884-.01-1.266-.113a5.445 5.445 0 0 1-.8-.3 4.37 4.37 0 0 0-.416-.187c-.016 0-.2.084-.406.187-1.502.745-3.748.562-4.9-.4-.106-.088-.215-.162-.242-.162-.027 0-.153.095-.28.21-.316.29-.787.557-1.258.716-.38.127-.42.132-1.082.133-.574 0-.747-.014-1.06-.093C1.323 13.635.548 12.93.283 11.95.19 11.598.187 10.9.28 10.55c.31-1.168 1.388-1.945 2.903-2.087a5.087 5.087 0 0 1 1.576.118c.36.095.685.225.727.292.015.025-.12.28-.297.568-.362.58-.304.548-.74.39-.203-.072-.32-.086-.625-.074-.612.024-1.005.255-1.273.75-.137.253-.142.278-.142.72 0 .417.01.478.117.695.288.588 1.008.914 1.745.79.38-.063.817-.275 1.105-.535l.222-.2-.047-.365c-.172-1.36.574-2.423 2.016-2.87.515-.162.904-.215 1.56-.215.9 0 1.556.144 2.216.485l.325.168.342-.17c.69-.343 1.318-.478 2.213-.476.668 0 1.202.09 1.766.298.36.13.86.405.958.52.12.146.165.077.177-.277l.012-.343h1.622l.013.18c.007.102.037.187.07.2.03.012.138-.025.237-.082.5-.287 1.177-.43 1.857-.388 1.46.087 2.436.748 2.78 1.88.103.343.103 1.11 0 1.453a2.66 2.66 0 0 1-1.082 1.437c-1.054.69-2.636.727-3.59.084-.103-.07-.204-.116-.226-.103-.023.015-.04.477-.04 1.083v1.06h-.824c-.454 0-.838-.014-.853-.03zm3.767-2.79c.295-.13.618-.46.773-.79.1-.214.112-.29.112-.678 0-.41-.008-.455-.136-.716a1.548 1.548 0 0 0-.71-.706c-.166-.082-.26-.096-.632-.096-.417 0-.448.006-.697.142-1.29.7-.975 2.732.46 2.95.307.047.554.015.83-.106zm-11.11-.11c.308-.147.623-.49.743-.806.127-.34.103-.896-.052-1.196a1.65 1.65 0 0 0-.697-.678c-.2-.098-.28-.113-.624-.113-.34 0-.43.017-.625.11a1.516 1.516 0 0 0-.72.737c-.11.237-.13.323-.13.61 0 .275.02.377.116.583.114.247.315.49.538.652.374.27 1.008.314 1.453.102zm5.05 0a1.506 1.506 0 0 0 .584-2.268c-.406-.552-1.21-.748-1.83-.446-.296.145-.617.495-.73.797-.108.29-.114.785-.01 1.067.29.8 1.223 1.198 1.985.85z" fill="#fcb391"/><path d="M17.145 15.505c-.016-.016-.028-.56-.028-1.21 0-.93-.012-1.183-.055-1.2-.03-.01-.182.064-.34.167-1.252.823-3.205.918-4.63.227l-.43-.208-.22.126c-.942.54-2.422.69-3.675.376-.426-.107-1.11-.45-1.374-.685a1.345 1.345 0 0 0-.24-.19c-.016 0-.14.096-.274.213a3.585 3.585 0 0 1-2.79.874c-1.87-.202-2.935-1.29-2.854-2.913C.294 9.934.976 9.1 2.2 8.68c.76-.257 1.736-.287 2.56-.078.376.096.708.234.708.295 0 .03-.143.284-.318.56-.247.394-.332.5-.384.476-.45-.19-.494-.2-.88-.202-.347 0-.425.013-.644.115-.427.2-.72.542-.833.974-.08.3-.08.513 0 .824.18.69.76 1.1 1.556 1.1.518 0 .952-.162 1.39-.52l.238-.193-.026-.547c-.02-.43-.012-.61.04-.83.132-.558.463-1.058.915-1.38.68-.486 1.553-.73 2.606-.73.857 0 1.558.153 2.193.48l.355.182.255-.14c1.382-.773 3.64-.675 4.88.21.323.23.344.216.345-.223V8.75h1.623v.185c0 .102.016.195.035.206.02.013.183-.05.364-.14.516-.258.897-.342 1.535-.34 1.315.002 2.322.497 2.777 1.366.207.395.28.716.28 1.22 0 .507-.073.825-.283 1.228-.72 1.377-2.93 1.915-4.35 1.06a1.733 1.733 0 0 0-.315-.166c-.028 0-.047.366-.054 1.072l-.01 1.07-.793.012c-.436.006-.806 0-.822-.017zm3.782-2.8c.43-.213.724-.61.832-1.128.154-.745-.185-1.442-.857-1.76-.24-.115-.313-.13-.625-.128-.43 0-.72.117-1.04.416-.904.846-.502 2.418.697 2.72.28.07.706.02.992-.122zM9.69 12.657c.31-.116.616-.406.78-.736.123-.253.136-.313.136-.655 0-.34-.013-.402-.136-.65a1.57 1.57 0 0 0-.752-.736c-.196-.09-.294-.108-.59-.108-.295 0-.392.018-.59.11a1.714 1.714 0 0 0-.764.73c-.11.215-.122.28-.122.635 0 .34.015.427.11.63.35.747 1.152 1.07 1.928.78zm5.147-.048c.3-.138.59-.427.733-.73.097-.208.11-.29.11-.654 0-.395-.006-.43-.14-.68-.287-.526-.753-.808-1.336-.808-.697 0-1.263.445-1.438 1.134-.156.612.083 1.244.617 1.63.37.267 1.004.314 1.454.108z" fill="#fca25e"/><path d="M17.158 14.29c0-.924-.012-1.213-.053-1.247-.04-.032-.136.01-.375.164-1.304.84-3.214.94-4.635.24l-.424-.208-.303.164c-.992.54-2.56.662-3.76.294-.4-.122-.954-.416-1.21-.64-.118-.104-.234-.19-.256-.19-.022 0-.122.076-.222.168-.245.227-.683.52-.97.646-.495.22-.83.286-1.436.286-1.093 0-1.89-.284-2.5-.89-.32-.316-.473-.56-.63-.998-.117-.332-.148-1.097-.057-1.457.312-1.24 1.45-2.032 3.03-2.11.3-.015.637-.004.874.028.437.06 1.15.272 1.18.353.018.05-.408.778-.553.944-.053.062-.08.058-.317-.04-.215-.09-.325-.108-.653-.11-.36 0-.42.012-.672.13-1.277.605-1.17 2.464.166 2.886.683.215 1.463.026 2.056-.498l.197-.174-.025-.547c-.02-.427-.01-.61.042-.83.076-.32.248-.683.44-.925.34-.427 1-.813 1.728-1.007.39-.104.472-.11 1.31-.11.84 0 .92.006 1.31.11.23.063.602.205.828.318l.41.204.36-.18c.653-.327 1.337-.477 2.17-.478 1.042 0 2.15.328 2.68.794.25.22.314.16.314-.298v-.288h1.54v.19c0 .245.064.266.34.108.75-.43 1.824-.517 2.81-.23.512.147.82.322 1.16.66.485.478.68.975.68 1.727 0 .73-.21 1.274-.676 1.743-1.01 1.016-2.833 1.216-4.005.438-.124-.082-.244-.137-.268-.123-.028.017-.043.41-.043 1.106v1.08h-1.582v-1.2zm3.76-1.54c.936-.46 1.218-1.715.57-2.536a1.534 1.534 0 0 0-1.86-.426c-.833.39-1.164 1.406-.738 2.258.377.75 1.29 1.068 2.028.704zM9.7 12.694c.31-.114.643-.432.81-.774.125-.25.137-.31.136-.652 0-.323-.017-.41-.12-.634-.29-.636-1-1.016-1.656-.887-.143.028-.333.09-.424.135-.272.14-.585.467-.716.752-.104.225-.12.31-.12.633 0 .32.017.41.112.613.36.77 1.18 1.108 1.98.814zm5.136-.042c.896-.41 1.194-1.557.608-2.337-.182-.242-.54-.5-.795-.572a1.84 1.84 0 0 0-.997.045c-.29.11-.638.417-.79.697-.196.36-.23.965-.075 1.362.138.357.53.72.938.866.304.11.797.082 1.11-.06z" fill="#fd8605"/><path d="M3.114 13.95a3.73 3.73 0 0 1-1.386-.38c-.773-.372-1.237-.962-1.4-1.78-.122-.605-.05-1.18.216-1.736.173-.362.694-.867 1.117-1.083 1.02-.52 2.218-.606 3.35-.237.172.056.338.118.37.138.045.03-.007.14-.244.52a6.63 6.63 0 0 1-.317.484c-.01 0-.162-.05-.34-.11a1.445 1.445 0 0 0-.677-.09c-.617.03-1.078.326-1.34.86-.126.254-.136.305-.136.69 0 .373.013.446.12.677.5 1.085 2.112 1.216 3.055.25l.18-.185-.045-.242c-.06-.33-.055-.69.018-1.038.26-1.237 1.452-2.008 3.224-2.087.926-.04 1.636.092 2.364.444.236.114.458.208.493.208.105 0 .564.5.706.77.204.387.258.642.26 1.227 0 .584-.054.837-.26 1.223-.136.26-.608.774-.707.774-.033 0-.253.092-.49.204-1.56.737-3.66.566-4.84-.395-.124-.1-.25-.184-.283-.184-.032 0-.112.057-.18.128-.188.2-.597.478-.937.64-.568.268-1.206.374-1.892.313zm6.62-1.263c.322-.148.494-.292.68-.568.112-.17.176-.326.212-.52.16-.84-.263-1.57-1.05-1.816a1.546 1.546 0 0 0-1.904.953c-.132.353-.107.854.06 1.194.204.417.605.742 1.053.855.254.064.694.018.948-.098z" fill="#fd5405"/><path d="M11.277 12.91c-.475-.502-.61-.87-.61-1.663 0-.586.052-.824.263-1.222.172-.324.574-.734.72-.734.17 0 .6.466.78.84.18.38.235.644.235 1.117 0 .47-.056.736-.233 1.11-.17.36-.62.845-.78.845-.07 0-.183-.087-.375-.29z" fill="#db2f01"/></svg>