<?xml version="1.0" encoding="UTF-8" standalone="no"?>
<!-- Created with Inkscape (http://www.inkscape.org/) -->

<svg
   xmlns:dc="http://purl.org/dc/elements/1.1/"
   xmlns:cc="http://creativecommons.org/ns#"
   xmlns:rdf="http://www.w3.org/1999/02/22-rdf-syntax-ns#"
   xmlns:svg="http://www.w3.org/2000/svg"
   xmlns="http://www.w3.org/2000/svg"
   xmlns:xlink="http://www.w3.org/1999/xlink"
   xmlns:sodipodi="http://sodipodi.sourceforge.net/DTD/sodipodi-0.dtd"
   xmlns:inkscape="http://www.inkscape.org/namespaces/inkscape"
   width="24"
   height="24"
   viewBox="0 0 24 24"
   id="svg16505"
   version="1.1"
   inkscape:version="0.91 r"
   sodipodi:docname="cross-country.svg">
  <defs
     id="defs16507">
    <linearGradient
       inkscape:collect="always"
       id="linearGradient14177">
      <stop
         style="stop-color:#000000;stop-opacity:1;"
         offset="0"
         id="stop14179" />
      <stop
         style="stop-color:#000000;stop-opacity:0;"
         offset="1"
         id="stop14181" />
    </linearGradient>
    <linearGradient
       inkscape:collect="always"
       id="linearGradient14145">
      <stop
         style="stop-color:#1f58b6;stop-opacity:1"
         offset="0"
         id="stop14147" />
      <stop
         style="stop-color:#7aa4e8;stop-opacity:1"
         offset="1"
         id="stop14149" />
    </linearGradient>
    <radialGradient
       inkscape:collect="always"
       xlink:href="#linearGradient14145"
       id="radialGradient14151"
       cx="6.393167"
       cy="15.165454"
       fx="6.393167"
       fy="15.165454"
       r="11.932427"
       gradientUnits="userSpaceOnUse"
       gradientTransform="matrix(1.4121007,-1.1045678,1.0703037,1.3682968,-14.651552,5.1167479)" />
    <linearGradient
       inkscape:collect="always"
       xlink:href="#linearGradient14177"
       id="linearGradient14183"
       x1="4.9425726"
       y1="20.046875"
       x2="30.151178"
       y2="-6.265625"
       gradientUnits="userSpaceOnUse" />
    <clipPath
       clipPathUnits="userSpaceOnUse"
       id="clipPath14940">
      <path
         inkscape:connector-curvature="0"
         id="path14942"
         d="M 23.932427,12 A 11.932427,11.932427 0 0 1 12,23.932427 11.932427,11.932427 0 0 1 0.067573,12 11.932427,11.932427 0 0 1 12,0.06757298 11.932427,11.932427 0 0 1 23.932427,12 Z"
         style="color:#000000;clip-rule:nonzero;display:inline;overflow:visible;visibility:visible;opacity:1;isolation:auto;mix-blend-mode:normal;color-interpolation:sRGB;color-interpolation-filters:linearRGB;solid-color:#000000;solid-opacity:1;fill:url(#radialGradient14944);fill-opacity:1;fill-rule:evenodd;stroke:none;stroke-width:2;stroke-linecap:square;stroke-linejoin:miter;stroke-miterlimit:4;stroke-dasharray:none;stroke-dashoffset:0.85000002;stroke-opacity:1;color-rendering:auto;image-rendering:auto;shape-rendering:auto;text-rendering:auto;enable-background:accumulate" />
    </clipPath>
    <radialGradient
       inkscape:collect="always"
       xlink:href="#linearGradient14145"
       id="radialGradient14944"
       gradientUnits="userSpaceOnUse"
       gradientTransform="matrix(1.4121007,-1.1045678,1.0703037,1.3682968,-14.651552,5.1167483)"
       cx="6.393167"
       cy="15.165454"
       fx="6.393167"
       fy="15.165454"
       r="11.932427" />
    <clipPath
       clipPathUnits="userSpaceOnUse"
       id="clipPath14946">
      <path
         inkscape:connector-curvature="0"
         id="path14948"
         d="M 23.932427,12 A 11.932427,11.932427 0 0 1 12,23.932427 11.932427,11.932427 0 0 1 0.067573,12 11.932427,11.932427 0 0 1 12,0.06757298 11.932427,11.932427 0 0 1 23.932427,12 Z"
         style="color:#000000;clip-rule:nonzero;display:inline;overflow:visible;visibility:visible;opacity:1;isolation:auto;mix-blend-mode:normal;color-interpolation:sRGB;color-interpolation-filters:linearRGB;solid-color:#000000;solid-opacity:1;fill:url(#radialGradient14950);fill-opacity:1;fill-rule:evenodd;stroke:none;stroke-width:2;stroke-linecap:square;stroke-linejoin:miter;stroke-miterlimit:4;stroke-dasharray:none;stroke-dashoffset:0.85000002;stroke-opacity:1;color-rendering:auto;image-rendering:auto;shape-rendering:auto;text-rendering:auto;enable-background:accumulate" />
    </clipPath>
    <radialGradient
       inkscape:collect="always"
       xlink:href="#linearGradient14145"
       id="radialGradient14950"
       gradientUnits="userSpaceOnUse"
       gradientTransform="matrix(1.4121007,-1.1045678,1.0703037,1.3682968,-14.651552,5.1167483)"
       cx="6.393167"
       cy="15.165454"
       fx="6.393167"
       fy="15.165454"
       r="11.932427" />
    <clipPath
       clipPathUnits="userSpaceOnUse"
       id="clipPath16663">
      <circle
         style="color:#000000;clip-rule:nonzero;display:inline;overflow:visible;visibility:visible;opacity:1;isolation:auto;mix-blend-mode:normal;color-interpolation:sRGB;color-interpolation-filters:linearRGB;solid-color:#000000;solid-opacity:1;fill:#e6e6e6;fill-opacity:1;fill-rule:nonzero;stroke:none;stroke-width:1;stroke-linecap:butt;stroke-linejoin:miter;stroke-miterlimit:4;stroke-dasharray:none;stroke-dashoffset:0;stroke-opacity:0.4281609;color-rendering:auto;image-rendering:auto;shape-rendering:auto;text-rendering:auto;enable-background:accumulate"
         id="circle16665"
         cx="11.998718"
         cy="1040.3856"
         r="11.092737" />
    </clipPath>
    <clipPath
       clipPathUnits="userSpaceOnUse"
       id="clipPath16987">
      <circle
         r="11.026446"
         cy="1040.3622"
         cx="12"
         id="circle16989"
         style="color:#000000;clip-rule:nonzero;display:inline;overflow:visible;visibility:visible;opacity:1;isolation:auto;mix-blend-mode:normal;color-interpolation:sRGB;color-interpolation-filters:linearRGB;solid-color:#000000;solid-opacity:1;fill:#ac9393;fill-opacity:1;fill-rule:nonzero;stroke:none;stroke-width:1;stroke-linecap:butt;stroke-linejoin:miter;stroke-miterlimit:4;stroke-dasharray:none;stroke-dashoffset:0;stroke-opacity:0.4281609;color-rendering:auto;image-rendering:auto;shape-rendering:auto;text-rendering:auto;enable-background:accumulate" />
    </clipPath>
    <clipPath
       clipPathUnits="userSpaceOnUse"
       id="clipPath16991">
      <circle
         r="11.026446"
         cy="1040.3622"
         cx="12"
         id="circle16993"
         style="color:#000000;clip-rule:nonzero;display:inline;overflow:visible;visibility:visible;opacity:1;isolation:auto;mix-blend-mode:normal;color-interpolation:sRGB;color-interpolation-filters:linearRGB;solid-color:#000000;solid-opacity:1;fill:#ac9393;fill-opacity:1;fill-rule:nonzero;stroke:none;stroke-width:1;stroke-linecap:butt;stroke-linejoin:miter;stroke-miterlimit:4;stroke-dasharray:none;stroke-dashoffset:0;stroke-opacity:0.4281609;color-rendering:auto;image-rendering:auto;shape-rendering:auto;text-rendering:auto;enable-background:accumulate" />
    </clipPath>
    <clipPath
       clipPathUnits="userSpaceOnUse"
       id="clipPath16995">
      <circle
         r="11.026446"
         cy="1048.4559"
         cx="30.03125"
         id="circle16997"
         style="color:#000000;clip-rule:nonzero;display:inline;overflow:visible;visibility:visible;opacity:1;isolation:auto;mix-blend-mode:normal;color-interpolation:sRGB;color-interpolation-filters:linearRGB;solid-color:#000000;solid-opacity:1;fill:#ac9393;fill-opacity:1;fill-rule:nonzero;stroke:none;stroke-width:1;stroke-linecap:butt;stroke-linejoin:miter;stroke-miterlimit:4;stroke-dasharray:none;stroke-dashoffset:0;stroke-opacity:0.4281609;color-rendering:auto;image-rendering:auto;shape-rendering:auto;text-rendering:auto;enable-background:accumulate" />
    </clipPath>
    <clipPath
       clipPathUnits="userSpaceOnUse"
       id="clipPath14166">
      <path
         style="color:#000000;clip-rule:nonzero;display:inline;overflow:visible;visibility:visible;opacity:1;isolation:auto;mix-blend-mode:normal;color-interpolation:sRGB;color-interpolation-filters:linearRGB;solid-color:#000000;solid-opacity:1;fill:url(#radialGradient14170);fill-opacity:1;fill-rule:evenodd;stroke:none;stroke-width:2;stroke-linecap:square;stroke-linejoin:miter;stroke-miterlimit:4;stroke-dasharray:none;stroke-dashoffset:0.85000002;stroke-opacity:1;color-rendering:auto;image-rendering:auto;shape-rendering:auto;text-rendering:auto;enable-background:accumulate"
         d="M 22.982252,12 A 10.982252,10.982252 0 0 1 12,22.982252 10.982252,10.982252 0 0 1 1.0177478,12 10.982252,10.982252 0 0 1 12,1.0177478 10.982252,10.982252 0 0 1 22.982252,12 Z"
         id="path14168"
         inkscape:connector-curvature="0" />
    </clipPath>
    <clipPath
       clipPathUnits="userSpaceOnUse"
       id="clipPath14160">
      <path
         style="color:#000000;clip-rule:nonzero;display:inline;overflow:visible;visibility:visible;opacity:1;isolation:auto;mix-blend-mode:normal;color-interpolation:sRGB;color-interpolation-filters:linearRGB;solid-color:#000000;solid-opacity:1;fill:url(#radialGradient14164);fill-opacity:1;fill-rule:evenodd;stroke:none;stroke-width:2;stroke-linecap:square;stroke-linejoin:miter;stroke-miterlimit:4;stroke-dasharray:none;stroke-dashoffset:0.85000002;stroke-opacity:1;color-rendering:auto;image-rendering:auto;shape-rendering:auto;text-rendering:auto;enable-background:accumulate"
         d="M 22.982252,12 A 10.982252,10.982252 0 0 1 12,22.982252 10.982252,10.982252 0 0 1 1.0177478,12 10.982252,10.982252 0 0 1 12,1.0177478 10.982252,10.982252 0 0 1 22.982252,12 Z"
         id="path14162"
         inkscape:connector-curvature="0" />
    </clipPath>
  </defs>
  <sodipodi:namedview
     id="base"
     pagecolor="#ffffff"
     bordercolor="#666666"
     borderopacity="1.0"
     inkscape:pageopacity="0.0"
     inkscape:pageshadow="2"
     inkscape:zoom="1"
     inkscape:cx="19.337344"
     inkscape:cy="11.712328"
     inkscape:document-units="px"
     inkscape:current-layer="layer1"
     showgrid="true"
     units="px"
     showguides="true"
     inkscape:snap-global="false"
     inkscape:window-width="2511"
     inkscape:window-height="1416"
     inkscape:window-x="49"
     inkscape:window-y="24"
     inkscape:window-maximized="1">
    <inkscape:grid
       type="xygrid"
       id="grid17061"
       color="#808080"
       opacity="0.1254902"
       empcolor="#808080"
       empopacity="0.25098039"
       dotted="false" />
  </sodipodi:namedview>
  <metadata
     id="metadata16510">
    <rdf:RDF>
      <cc:Work
         rdf:about="">
        <dc:format>image/svg+xml</dc:format>
        <dc:type
           rdf:resource="http://purl.org/dc/dcmitype/StillImage" />
        <dc:title></dc:title>
      </cc:Work>
    </rdf:RDF>
  </metadata>
  <g
     inkscape:groupmode="layer"
     id="layer2"
     inkscape:label="base"
     style="display:inline"
     sodipodi:insensitive="true">
    <g
       id="g14189">
      <path
         id="path17688"
         d="M 23.932427,12 A 11.932427,11.932427 0 0 1 12,23.932427 11.932427,11.932427 0 0 1 0.06757259,12 11.932427,11.932427 0 0 1 12,0.06757259 11.932427,11.932427 0 0 1 23.932427,12 Z"
         style="color:#000000;clip-rule:nonzero;display:inline;overflow:visible;visibility:visible;opacity:1;isolation:auto;mix-blend-mode:normal;color-interpolation:sRGB;color-interpolation-filters:linearRGB;solid-color:#000000;solid-opacity:1;fill:url(#radialGradient14151);fill-opacity:1;fill-rule:evenodd;stroke:none;stroke-width:2;stroke-linecap:square;stroke-linejoin:miter;stroke-miterlimit:4;stroke-dasharray:none;stroke-dashoffset:0.85000002;stroke-opacity:1;color-rendering:auto;image-rendering:auto;shape-rendering:auto;text-rendering:auto;enable-background:accumulate"
         inkscape:connector-curvature="0" />
      <path
         inkscape:connector-curvature="0"
         id="path17688-3"
         d="M 12.046875,0.00585938 C 5.4365953,0.00585928 0.06835928,5.3740953 0.06835937,11.984375 c 0,6.61028 5.36823593,11.978516 11.97851563,11.978516 6.61028,0 11.978516,-5.368236 11.978516,-11.978516 0,-6.6102797 -5.368236,-11.97851562 -11.978516,-11.97851562 z m 0,0.96289062 c 6.089537,0 11.015625,4.926088 11.015625,11.015625 C 23.0625,18.073912 18.136412,23 12.046875,23 5.957338,23 1.03125,18.073912 1.03125,11.984375 1.0312499,5.8948379 5.9573379,0.96874991 12.046875,0.96875 Z"
         style="color:#000000;font-style:normal;font-variant:normal;font-weight:normal;font-stretch:normal;font-size:medium;line-height:normal;font-family:sans-serif;text-indent:0;text-align:start;text-decoration:none;text-decoration-line:none;text-decoration-style:solid;text-decoration-color:#000000;letter-spacing:normal;word-spacing:normal;text-transform:none;direction:ltr;block-progression:tb;writing-mode:lr-tb;baseline-shift:baseline;text-anchor:start;white-space:normal;clip-rule:nonzero;display:inline;overflow:visible;visibility:visible;opacity:0.09599998;isolation:auto;mix-blend-mode:normal;color-interpolation:sRGB;color-interpolation-filters:linearRGB;solid-color:#000000;solid-opacity:1;fill:url(#linearGradient14183);fill-opacity:1;fill-rule:evenodd;stroke:none;stroke-width:0.96355295;stroke-linecap:square;stroke-linejoin:miter;stroke-miterlimit:4;stroke-dasharray:none;stroke-dashoffset:0.85000002;stroke-opacity:1;color-rendering:auto;image-rendering:auto;shape-rendering:auto;text-rendering:auto;enable-background:accumulate" />
    </g>
  </g>
  <g
     inkscape:label="icon"
     inkscape:groupmode="layer"
     id="layer1"
     transform="translate(0,-1028.3622)"
     style="display:inline">
    <g
       transform="matrix(0.12841162,0.06771156,-0.06771156,0.12841162,73.815065,894.58651)"
       id="g18418">
      <path
         transform="matrix(6.8884642,0,0,6.8884642,9.0576313,1004.1968)"
         style="fill:#205abb;fill-opacity:1;fill-rule:evenodd;stroke:none;stroke-width:1px;stroke-linecap:butt;stroke-linejoin:miter;stroke-opacity:1"
         d="M 0.01562496,18.080492 24.015625,0.28124999 24.078125,24.09375 -0.01562504,24.013573 Z"
         id="path14899-0"
         inkscape:connector-curvature="0"
         sodipodi:nodetypes="ccccc"
         clip-path="url(#clipPath14166)" />
      <path
         transform="matrix(6.8884642,0,0,6.8884642,9.0576313,1004.1968)"
         style="fill:#174186;fill-opacity:1;fill-rule:evenodd;stroke:none;stroke-width:1px;stroke-linecap:butt;stroke-linejoin:miter;stroke-opacity:1"
         d="M 0,19.856376 24,7.40625 24.0625,24.0625 -0.03125,24.006418 Z"
         id="path14899"
         inkscape:connector-curvature="0"
         sodipodi:nodetypes="ccccc"
         clip-path="url(#clipPath14160)" />
    </g>
    <path
       style="fill:#174186;fill-opacity:1"
       d="M 15.019531 4.3613281 C 14.602285 4.3183027 14.166815 4.4887687 13.896484 4.9570312 C 13.58107 5.5032312 13.654561 6.00005 14.121094 6.46875 C 14.372382 6.72175 14.870502 6.8584375 15.232422 6.7734375 C 15.595994 6.6880375 16.008922 6.3100031 16.107422 5.9707031 C 16.360179 5.0997656 15.714942 4.4330371 15.019531 4.3613281 z M 11.636719 5.6855469 C 11.370006 5.6887719 11.059648 5.9342313 10.476562 6.4257812 C 9.7249229 7.0595573 9.4732144 7.3705351 9.5371094 7.6660156 L 3.2578125 13.173828 L 3.5878906 13.548828 L 9.8339844 8.0722656 C 10.072172 8.2091568 10.381796 8.0922149 10.867188 7.6777344 C 11.176177 7.4133344 11.473934 7.2050781 11.527344 7.2050781 C 11.573166 7.2089482 11.926259 7.5901032 12.330078 8.0566406 L 11.339844 9.7734375 L 9.640625 12.714844 L 7.9238281 13.585938 C 6.9790423 14.065237 6.1688519 14.521563 6.1230469 14.601562 C 5.9606677 14.882962 6.0307435 15.173766 6.4355469 15.884766 C 6.7329768 16.407366 6.8043725 16.609047 6.6953125 16.623047 C 6.6127641 16.633847 5.7784324 16.644766 4.8398438 16.634766 C 3.9012547 16.624566 3.115242 16.623047 3.09375 16.623047 C 3.072398 16.625147 3.050905 16.729116 3.046875 16.853516 C 3.042887 16.977816 3.070987 17.099094 3.109375 17.121094 C 3.1477633 17.143094 5.2976698 17.161609 7.8847656 17.162109 L 12.587891 17.162109 L 12.955078 17.576172 L 13.322266 17.992188 L 10.734375 17.992188 C 9.3106613 17.990188 8.12182 18.026219 8.09375 18.074219 C 8.065337 18.122019 8.0541475 18.246109 8.0703125 18.349609 C 8.0959753 18.514109 8.8427485 18.535156 13.898438 18.535156 C 17.087941 18.533156 19.865631 18.477109 20.070312 18.412109 C 20.452049 18.290309 20.804836 17.855184 20.791016 17.521484 C 20.780037 17.254484 20.318904 17.300272 20.240234 17.576172 C 20.210625 17.680036 20.134724 17.75241 20.033203 17.814453 L 17.009766 10.787109 C 17.451035 10.595489 17.573718 10.401766 17.501953 10.068359 C 17.41193 9.6499594 17.077427 9.56895 16.304688 9.78125 C 15.912634 9.88945 15.554142 9.9547344 15.507812 9.9277344 C 15.461487 9.9010344 15.261657 9.2817812 15.064453 8.5507812 C 14.708711 7.2319812 14.702189 7.2195219 14.269531 6.9199219 C 13.866347 6.6412219 13.803314 6.6256094 13.435547 6.7246094 L 13.039062 6.8300781 L 12.982422 6.9296875 L 12.533203 6.4003906 C 12.125847 5.9209406 11.903431 5.6823219 11.636719 5.6855469 z M 14.013672 9.3476562 L 14.253906 10.228516 C 14.584281 11.442616 14.653656 11.474878 16.126953 11.080078 C 16.294657 11.035128 16.402204 10.995942 16.535156 10.955078 L 19.537109 17.923828 C 19.106581 17.964871 18.195162 17.996094 17.056641 17.996094 C 14.414846 17.990794 14.130646 17.9791 14.324219 17.875 C 14.388625 17.8403 14.450197 17.668087 14.460938 17.492188 L 14.480469 17.171875 L 15.550781 17.171875 C 17.23709 17.168675 17.460218 17.143687 17.771484 16.929688 C 18.039648 16.745388 18.381879 16.115016 18.253906 16.041016 C 18.056447 15.927016 17.772564 16.035344 17.632812 16.277344 C 17.433377 16.623244 17.365142 16.638672 15.546875 16.638672 C 14.217642 16.641372 13.798031 16.580006 13.744141 16.378906 C 13.735216 16.345406 14.001939 15.594584 14.337891 14.708984 C 14.816033 13.448684 14.933926 13.041037 14.878906 12.835938 C 14.818293 12.610237 14.672864 12.488491 13.832031 11.962891 L 12.857422 11.353516 L 13.435547 10.351562 L 14.013672 9.3476562 z M 11.53125 12.212891 L 12.425781 12.767578 C 12.917646 13.072678 13.324325 13.331703 13.328125 13.345703 C 13.340385 13.385203 12.124083 16.630859 12.095703 16.630859 C 12.081321 16.630659 11.109733 16.631659 9.9375 16.630859 L 9.9375 16.634766 C 8.7653118 16.633766 7.7956411 16.629141 7.7832031 16.619141 C 7.7707654 16.611941 7.8291564 16.48755 7.9121094 16.34375 C 8.0563956 16.09385 8.0145391 15.810744 7.7714844 15.402344 C 7.6992483 15.281044 7.9207888 15.140278 9.0644531 14.580078 L 10.443359 13.904297 L 10.988281 13.058594 L 11.53125 12.212891 z "
       transform="translate(0,1028.3622)"
       id="path14188" />
    <path
       inkscape:connector-curvature="0"
       style="display:inline;fill:#ffffff"
       d="m 15.694327,1032.5598 c -0.417246,-0.043 -0.852716,0.1275 -1.123047,0.5957 -0.315414,0.5462 -0.241923,1.043 0.22461,1.5117 0.251288,0.253 0.749408,0.3897 1.111328,0.3047 0.363572,-0.085 0.7765,-0.4634 0.875,-0.8027 0.252757,-0.8709 -0.39248,-1.5377 -1.087891,-1.6094 z m -3.382812,1.3242 c -0.266713,0 -0.577071,0.2487 -1.160157,0.7403 -0.751639,0.6337 -1.003347,0.9447 -0.939452,1.2402 l -6.2792971,5.5078 0.3300781,0.375 6.246094,-5.4765 c 0.238187,0.1368 0.547811,0.02 1.033203,-0.3946 0.308989,-0.2644 0.606746,-0.4726 0.660156,-0.4726 0.04582,0 0.398915,0.385 0.802734,0.8515 l -0.990234,1.7168 -1.699219,2.9414 -1.7167966,0.8711 c -0.9447858,0.4793 -1.7549762,0.9357 -1.8007812,1.0157 -0.1623792,0.2814 -0.092303,0.5722 0.3125,1.2832 0.2974299,0.5226 0.3688256,0.7242 0.2597656,0.7382 -0.082548,0.011 -0.9168801,0.022 -1.8554687,0.012 -0.938589,-0.01 -1.7246017,-0.012 -1.7460937,-0.012 -0.021352,0 -0.042845,0.1061 -0.046875,0.2305 -0.00399,0.1243 0.024112,0.2456 0.0625,0.2676 0.038388,0.022 2.1882947,0.04 4.7753905,0.041 l 4.7031251,0 0.367187,0.4141 0.367188,0.416 -2.587891,0 c -1.423713,0 -2.6125547,0.034 -2.6406247,0.082 -0.028413,0.048 -0.039603,0.1719 -0.023437,0.2754 0.025663,0.1645 0.772436,0.1856 5.8281257,0.1856 3.189502,0 5.967192,-0.058 6.171873,-0.1231 0.381737,-0.1218 0.734524,-0.5569 0.720705,-0.8906 -0.01098,-0.267 -0.472112,-0.2212 -0.550783,0.055 -0.02961,0.1038 -0.10551,0.1762 -0.207031,0.2383 l -3.023437,-7.0274 c 0.441269,-0.1916 0.563952,-0.3853 0.492187,-0.7187 -0.09002,-0.4184 -0.424526,-0.4995 -1.197265,-0.2872 -0.392054,0.1082 -0.750546,0.1735 -0.796876,0.1465 -0.04632,-0.027 -0.246155,-0.6459 -0.443359,-1.3769 -0.355742,-1.3188 -0.362264,-1.3313 -0.794922,-1.6309 -0.403184,-0.2787 -0.466217,-0.2943 -0.833984,-0.1953 l -0.396485,0.1055 -0.05664,0.1 -0.449219,-0.5293 c -0.407356,-0.4795 -0.629772,-0.7181 -0.896484,-0.7149 z m 2.376953,3.6621 0.240234,0.8809 c 0.330375,1.2141 0.39975,1.2464 1.873047,0.8516 0.167704,-0.045 0.275251,-0.084 0.408203,-0.125 l 3.001953,6.9687 c -0.430528,0.041 -1.341947,0.072 -2.480468,0.072 -2.641795,-0.01 -2.925995,-0.017 -2.732422,-0.1211 0.06441,-0.035 0.125978,-0.2069 0.136719,-0.3828 l 0.01953,-0.3203 1.070312,0 c 1.686309,0 1.909437,-0.028 2.220703,-0.2422 0.268164,-0.1843 0.610395,-0.8147 0.482422,-0.8887 -0.197459,-0.114 -0.481342,-0.01 -0.621094,0.2363 -0.199435,0.3459 -0.26767,0.3614 -2.085937,0.3614 -1.329233,0 -1.748844,-0.059 -1.802734,-0.2598 -0.0089,-0.034 0.257798,-0.7843 0.59375,-1.6699 0.478142,-1.2603 0.596035,-1.668 0.541015,-1.8731 -0.06061,-0.2257 -0.206042,-0.3474 -1.046875,-0.873 l -0.974609,-0.6094 0.578125,-1.0019 0.578125,-1.0039 z m -2.482422,2.8653 0.894531,0.5547 c 0.491865,0.3051 0.898544,0.5641 0.902344,0.5781 0.01226,0.039 -1.204042,3.2852 -1.232422,3.2852 -0.01438,-2e-4 -0.98597,8e-4 -2.158203,0 l 0,0 c -1.1721879,-10e-4 -2.1418586,-0.01 -2.1542966,-0.016 -0.012438,-0.01 0.045953,-0.1316 0.1289063,-0.2754 0.1442862,-0.2499 0.1024297,-0.533 -0.140625,-0.9414 -0.072236,-0.1213 0.1493044,-0.262 1.2929683,-0.8222 l 1.378906,-0.6758 0.544922,-0.8457 0.542969,-0.8457 z"
       id="path14188-3" />
  </g>
</svg>
