<svg xmlns="http://www.w3.org/2000/svg" xmlns:xlink="http://www.w3.org/1999/xlink" width="24" height="24" viewBox="0 0 24 24"><defs><radialGradient xlink:href="#a" id="c" cx="6.393" cy="15.165" fx="6.393" fy="15.165" r="11.932" gradientUnits="userSpaceOnUse" gradientTransform="matrix(1.4121 -1.10457 1.0703 1.3683 -14.652 5.117)"/><linearGradient id="a"><stop offset="0" stop-color="#1f58b6"/><stop offset="1" stop-color="#7aa4e8"/></linearGradient><linearGradient xlink:href="#b" id="d" x1="4.943" y1="20.047" x2="30.151" y2="-6.266" gradientUnits="userSpaceOnUse"/><linearGradient id="b"><stop offset="0"/><stop offset="1" stop-opacity="0"/></linearGradient></defs><g color="#000" fill-rule="evenodd"><path d="M23.932 12A11.932 11.932 0 0 1 12 23.932 11.932 11.932 0 0 1 .068 12 11.932 11.932 0 0 1 12 .068 11.932 11.932 0 0 1 23.932 12z" style="isolation:auto;mix-blend-mode:normal" overflow="visible" fill="url(#c)" transform="translate(-.046 .016)"/><path d="M12.047.006C5.437.006.067 5.374.067 11.984c0 6.61 5.37 11.98 11.98 11.98s11.978-5.37 11.978-11.98S18.657.006 12.047.006zm0 .963c6.09 0 11.015 4.925 11.015 11.014 0 6.09-4.926 11.016-11.015 11.016A11.008 11.008 0 0 1 1.03 11.984C1.03 5.894 5.958.97 12.048.97z" style="line-height:normal;text-indent:0;text-align:start;text-decoration-line:none;text-decoration-style:solid;text-decoration-color:#000;text-transform:none;block-progression:tb;isolation:auto;mix-blend-mode:normal" font-weight="400" font-family="sans-serif" white-space="normal" overflow="visible" opacity=".096" fill="url(#d)" transform="translate(-.046 .016)"/></g><path d="M7.77 17.94v-3.964H16.176v7.93h-1.388V14.89h-.913V21.905H12.448V14.89h-.913V21.905H10.11V14.89h-.914V21.905H7.77V17.94zm0-4.914v-.475H16.176v.951H7.77v-.474zm0-1.49L7.773 11l.207-.128c.282-.175.694-.595.86-.88.076-.128.182-.366.236-.526.086-.258.097-.35.098-.786 0-.443-.01-.522-.098-.777-.212-.605-.54-.954-1.082-1.145a2.006 2.006 0 0 0-1.055-.03c-.26.076-.62.328-.785.547-.184.243-.255.472-.254.81.002.235.02.313.116.508.13.266.388.514.57.548.224.043.417-.14.417-.394 0-.084-.035-.147-.14-.245-.185-.173-.225-.256-.225-.47 0-.47.584-.763 1.145-.572.38.13.635.538.67 1.074.04.584-.15 1.075-.57 1.47-.292.278-.588.434-1.023.544-.41.103-1.068.085-1.428-.038-1.015-.347-1.577-1.202-1.577-2.397 0-.326.02-.51.076-.73.284-1.08 1.107-1.904 2.217-2.22l.29-.08h5.518c5.244 0 5.53 0 5.81.067a3.09 3.09 0 0 1 2.29 2.17c.12.41.12 1.182 0 1.59-.313 1.09-1.138 1.708-2.275 1.708-1.412 0-2.398-.98-2.224-2.21.09-.636.465-1.004 1.024-1.005.18 0 .28.02.4.083.44.233.53.724.18.982-.27.2-.192.612.13.673.15.028.28-.04.482-.247.193-.198.307-.455.33-.742.045-.56-.284-1.074-.86-1.344-.333-.156-.792-.182-1.17-.067-.8.243-1.26.95-1.26 1.94 0 .46.066.74.274 1.163.174.357.564.794.883.994l.204.128v1.113H7.772v-.54z" fill="#12336a"/><path d="M7.77 17.017v-3.965H16.176v7.929h-1.388v-7.014h-.913V20.98H12.448v-7.014h-.913V20.98H10.11v-7.014h-.914V20.98H7.77v-3.963z" fill="#fff"/><path d="M7.77 12.102v-.475H16.176v.95H7.77v-.475z" fill="#ccc"/><path d="M7.77 10.613l.002-.54.207-.127c.282-.175.694-.595.86-.88.076-.128.182-.366.236-.526.086-.258.097-.35.098-.786 0-.443-.01-.522-.098-.777-.212-.606-.54-.955-1.082-1.146A2.006 2.006 0 0 0 6.94 5.8c-.26.077-.62.33-.785.547-.184.244-.255.473-.254.81.002.236.02.314.116.51.13.265.388.513.57.547.224.043.417-.14.417-.394 0-.084-.035-.147-.14-.245-.185-.172-.225-.255-.225-.468 0-.472.584-.764 1.145-.573.38.13.635.538.67 1.074.04.584-.15 1.075-.57 1.47-.292.278-.588.434-1.023.544-.41.103-1.068.085-1.428-.038-1.015-.347-1.577-1.202-1.577-2.396 0-.328.02-.513.076-.73.284-1.08 1.107-1.906 2.217-2.22l.29-.083h5.518c5.244 0 5.53 0 5.81.068a3.09 3.09 0 0 1 2.29 2.168c.12.41.12 1.184 0 1.594-.313 1.088-1.138 1.707-2.275 1.707-1.412 0-2.398-.98-2.224-2.208.09-.637.465-1.006 1.024-1.006.18 0 .28.02.4.083.44.232.53.723.18.98-.27.202-.192.613.13.674.15.027.28-.04.482-.247.193-.2.307-.456.33-.743.045-.56-.284-1.074-.86-1.344-.333-.156-.792-.182-1.17-.067-.8.243-1.26.95-1.26 1.94 0 .462.066.74.274 1.164.174.356.564.793.883.993l.204.128v1.114H7.772v-.54z" fill="#fff"/><path d="M8.454 13.998h.226v6.968h-.453V14h.227zM10.797 13.998h.226v6.968h-.453V14h.227zM13.156 13.998h.227v6.968h-.453V14h.226zM15.47 13.998h.225v6.968h-.454V14h.227z" fill="#ccc"/></svg>