<svg xmlns="http://www.w3.org/2000/svg" xmlns:xlink="http://www.w3.org/1999/xlink" width="24" height="24" viewBox="0 0 24 24"><defs><linearGradient id="a"><stop offset="0" stop-color="#b30101" stop-opacity=".996"/><stop offset="1" stop-color="#fa4667" stop-opacity=".996"/></linearGradient><linearGradient id="b"><stop offset="0"/><stop offset="1" stop-opacity="0"/></linearGradient><linearGradient id="d"><stop offset="0" stop-color="#1f58b6"/><stop offset="1" stop-color="#7aa4e8"/></linearGradient><radialGradient xlink:href="#a" id="f" cx="6.393" cy="15.165" fx="6.393" fy="15.165" r="11.932" gradientUnits="userSpaceOnUse" gradientTransform="matrix(1.4121 -1.10457 1.0703 1.3683 -14.652 5.117)"/><linearGradient xlink:href="#b" id="g" x1="4.943" y1="20.047" x2="30.151" y2="-6.266" gradientUnits="userSpaceOnUse"/><radialGradient xlink:href="#d" id="c" gradientUnits="userSpaceOnUse" gradientTransform="matrix(1.4121 -1.10457 1.0703 1.3683 -14.652 5.117)" cx="6.393" cy="15.165" fx="6.393" fy="15.165" r="11.932"/><radialGradient xlink:href="#d" id="e" gradientUnits="userSpaceOnUse" gradientTransform="matrix(1.4121 -1.10457 1.0703 1.3683 -14.652 5.117)" cx="6.393" cy="15.165" fx="6.393" fy="15.165" r="11.932"/></defs><g color="#000" fill-rule="evenodd"><path d="M23.932 12A11.932 11.932 0 0 1 12 23.932 11.932 11.932 0 0 1 .068 12 11.932 11.932 0 0 1 12 .068 11.932 11.932 0 0 1 23.932 12z" style="isolation:auto;mix-blend-mode:normal" overflow="visible" fill="url(#f)"/><path d="M12.047.006C5.437.006.067 5.374.067 11.984c0 6.61 5.37 11.98 11.98 11.98s11.978-5.37 11.978-11.98S18.657.006 12.047.006zm0 .963c6.09 0 11.015 4.925 11.015 11.014 0 6.09-4.926 11.016-11.015 11.016A11.008 11.008 0 0 1 1.03 11.984C1.03 5.894 5.958.97 12.048.97z" style="line-height:normal;text-indent:0;text-align:start;text-decoration-line:none;text-decoration-style:solid;text-decoration-color:#000;text-transform:none;block-progression:tb;isolation:auto;mix-blend-mode:normal" font-weight="400" font-family="sans-serif" white-space="normal" overflow="visible" opacity=".096" fill="url(#g)"/></g><path d="M10.758 21.982c-.07-.07-.082-.254-.08-1.213 0-.623.022-1.166.05-1.21.042-.067.454-.08 3.01-.103l2.962-.026V18.336l-2.334-.014c-1.55-.01-2.334-.03-2.334-.065 0-.06 5.304-7.2 5.393-7.26.09-.06.248-.047.556.044.218.062.348.147.555.36.46.47.434.128.434 5.714 0 1.637.013 2.724.008 3.456l-1.126.786-1.313.706H14.82c-3.55 0-3.99-.01-4.064-.082zm-.05-4.022c-.017-.02-.032-1.073-.032-2.344 0-1.828-.014-2.305-.065-2.284-.035.015-.58.72-1.212 1.565-1.07 1.435-1.166 1.547-1.423 1.674-.333.164-.672.147-1.028-.052-.385-.216-3.63-2.81-3.762-3.008-.337-.51-.106-1.25.476-1.518.25-.115.627-.126.868-.025.097.04.74.522 1.428 1.07.688.546 1.278.994 1.31.994.034 0 .463-.536.956-1.194.924-1.234 1.198-1.537 1.558-1.72.377-.192.804-.217 3.556-.202 2.452.013 2.634.02 2.634.104 0 .074-5.09 6.89-5.194 6.954a.05.05 0 0 1-.067-.013zm-5.325-5.973c-.15-.087-2.34-1.82-2.386-1.887-.02-.032-.033-1.09-.026-2.352l.013-2.295 1.752-.013c2.484-.02 2.3-.22 2.278 2.465C7 9.557 6.988 9.802 6.91 9.945c-.098.18-.257.256-.628.306l-.248.034v.584c-.002.32-.024.677-.05.792-.078.334-.342.478-.6.328zm7.926-1.96c-.83-.287-1.424-.992-1.527-1.814l-.038-.31-.508-.014c-.356-.012-.51-.035-.508-.08 0-.035.19-.304.424-.598l.426-.534h2.36c2.1 0 2.36.01 2.39.082.05.13.035 1.058-.023 1.43-.135.857-.72 1.54-1.557 1.823-.403.136-1.068.14-1.44.012zM11.475 6.04c-.168-.19-1.01-1.435-1.01-1.497 0-.04.858-.053 2.91-.043l2.907.014V6.13l-2.35.014-2.35.014-.107-.118z" fill="#782121"/><path d="M10.778 20.943c-.07-.07-.082-.253-.08-1.212 0-.62.022-1.165.05-1.208.042-.068.454-.082 3.01-.104l2.962-.026V17.297l-2.334-.014c-1.55-.01-2.334-.032-2.334-.067 0-.06 5.304-7.2 5.393-7.26.09-.058.248-.046.556.045.218.064.348.15.555.36.46.473.433.13.433 5.716 0 4.408-.008 4.89-.082 4.92-.045.017-1.874.03-4.064.03-3.55 0-3.99-.01-4.064-.08zm-.05-4.022c-.017-.018-.032-1.072-.032-2.343 0-1.828-.014-2.304-.065-2.283-.035.015-.58.72-1.212 1.565-1.07 1.433-1.166 1.546-1.423 1.672-.333.164-.672.146-1.028-.053-.385-.216-3.63-2.81-3.762-3.008-.337-.51-.106-1.25.476-1.518.25-.115.627-.126.868-.025.097.04.74.52 1.428 1.068.688.547 1.278.995 1.31.995.034 0 .463-.538.956-1.196.924-1.233 1.198-1.536 1.558-1.72.377-.192.804-.216 3.556-.2 2.452.012 2.634.02 2.634.103 0 .074-5.09 6.89-5.194 6.953a.05.05 0 0 1-.067-.013zm-5.325-5.97c-.15-.088-2.34-1.82-2.386-1.89-.02-.03-.033-1.09-.026-2.35l.013-2.296L4.755 4.4c2.484-.02 2.3-.22 2.278 2.466-.012 1.653-.025 1.897-.103 2.04-.098.18-.257.257-.628.307l-.248.033v.583c-.002.32-.024.677-.05.79-.078.335-.342.48-.6.33zm7.926-1.962c-.83-.287-1.424-.992-1.527-1.814l-.038-.308-.508-.015c-.356-.01-.51-.033-.508-.078 0-.035.19-.304.424-.598l.426-.535h2.36c2.1 0 2.36.01 2.39.08.05.133.035 1.06-.023 1.43-.135.858-.72 1.542-1.557 1.825-.403.135-1.068.14-1.44.012zm-1.834-3.986c-.168-.19-1.01-1.435-1.01-1.497 0-.04.858-.053 2.91-.043l2.907.014v1.618l-2.35.012-2.35.014-.107-.118z" fill="#fff"/></svg>