<svg xmlns="http://www.w3.org/2000/svg" xmlns:xlink="http://www.w3.org/1999/xlink" width="24" height="24" viewBox="0 0 24 24"><defs><linearGradient id="b"><stop offset="0" stop-color="#1f58b6"/><stop offset="1" stop-color="#7aa4e8"/></linearGradient><radialGradient xlink:href="#b" id="a" gradientUnits="userSpaceOnUse" gradientTransform="matrix(1.4121 -1.10457 1.0703 1.3683 -14.652 5.117)" cx="6.393" cy="15.165" fx="6.393" fy="15.165" r="11.932"/><radialGradient xlink:href="#b" id="c" gradientUnits="userSpaceOnUse" gradientTransform="matrix(1.4121 -1.10457 1.0703 1.3683 -14.652 5.117)" cx="6.393" cy="15.165" fx="6.393" fy="15.165" r="11.932"/></defs><g color="#000"><path style="isolation:auto;mix-blend-mode:normal" overflow="visible" fill="#fc0001" d="M.022.003h23.975V24H.022z"/><path style="isolation:auto;mix-blend-mode:normal" d="M3.45 19.49c-.136-.093.25-1.693 1.73-7.204C6.23 8.39 7.153 5.03 7.233 4.82l.145-.384 3.917.06c3.826.056 3.94.066 4.983.425 1.973.682 3.062 1.598 3.818 3.215.366.782.422 1.065.47 2.392.1 2.71-.552 4.486-2.28 6.21-1.205 1.2-2.65 1.99-4.506 2.464-1.046.267-1.602.302-5.658.352-2.474.03-4.576.002-4.672-.063zm9.585-4.925c1.457-.643 2.193-1.86 2.08-3.435-.066-.898-.373-1.436-.997-1.74-.414-.204-2.62-.508-2.748-.38-.156.157-1.544 5.617-1.474 5.8.115.3 2.288.13 3.14-.245z" overflow="visible" fill="#fff"/></g></svg>