<?xml version="1.0" encoding="UTF-8"?>
<!-- Created with Inkscape (http://www.inkscape.org/) -->
<svg width="24" height="24" version="1.1" viewBox="0 0 24 24" xmlns="http://www.w3.org/2000/svg" xmlns:cc="http://creativecommons.org/ns#" xmlns:dc="http://purl.org/dc/elements/1.1/" xmlns:rdf="http://www.w3.org/1999/02/22-rdf-syntax-ns#">
 <defs>
  <linearGradient id="linearGradient14183" x1="4.9426" x2="30.151" y1="20.047" y2="-6.2656" gradientUnits="userSpaceOnUse">
   <stop offset="0"/>
   <stop stop-opacity="0" offset="1"/>
  </linearGradient>
 </defs>
 <metadata>
  <rdf:RDF>
   <cc:Work rdf:about="">
    <dc:format>image/svg+xml</dc:format>
    <dc:type rdf:resource="http://purl.org/dc/dcmitype/StillImage"/>
    <dc:title/>
   </cc:Work>
  </rdf:RDF>
 </metadata>
 <g fill-rule="evenodd" shape-rendering="auto">
  <path d="m23.932 12a11.932 11.932 0 0 1-11.932 11.932 11.932 11.932 0 0 1-11.932-11.932 11.932 11.932 0 0 1 11.932-11.932 11.932 11.932 0 0 1 11.932 11.932z" color="#000000" color-rendering="auto" fill="#fc0" image-rendering="auto" solid-color="#000000" style="isolation:auto;mix-blend-mode:normal"/>
  <path d="m12.047 0.0058594c-6.6103-1e-7 -11.979 5.3682-11.979 11.979 0 6.6103 5.3682 11.979 11.979 11.979 6.6103 0 11.979-5.3682 11.979-11.979 0-6.6103-5.3682-11.979-11.979-11.979zm0 0.96289c6.0895 0 11.016 4.9261 11.016 11.016s-4.9261 11.016-11.016 11.016-11.016-4.9261-11.016-11.016c-1e-7 -6.0895 4.9261-11.016 11.016-11.016z" color="#000000" color-rendering="auto" fill="url(#linearGradient14183)" image-rendering="auto" opacity=".096" solid-color="#000000" style="block-progression:tb;isolation:auto;mix-blend-mode:normal;text-decoration-color:#000000;text-decoration-line:none;text-decoration-style:solid;text-indent:0;text-transform:none;white-space:normal"/>
  <g transform="matrix(.069988 0 0 .069988 -9.0297 12.108)" stroke-width="14.288">
   <path d="m280.8 93.702c0.0399-3.0833 2.3856-13.505 3.4144-15.169 0.44658-0.72259 8.1137-1.0809 23.13-1.0809 22.349 0 22.467-0.0114 23.403-2.25 0.51738-1.2375 3.4487-13.933 6.514-28.213s6.1199-26.31 6.7879-26.735c0.66801-0.42449 14.322-0.7787 30.342-0.78712 22.103-0.0116 29.362-0.31678 30.098-1.2653 1.2262-1.5789 8.3093-34.884 7.6468-35.956-0.26994-0.43678-13.753-0.79414-29.963-0.79414-24.702 0-29.562-0.23261-30.024-1.4371-0.53082-1.3833 0.58922-7.2469 8.0335-42.057 2.4258-11.343 3.1173-16.359 2.3781-17.25-1.5684-1.8898-37.129-1.7816-39.029 0.11879-0.75607 0.75607-4.0122 13.694-7.2358 28.75s-6.226 28.388-6.672 29.625c-0.76365 2.1191-1.365 2.25-10.336 2.25h-9.5248l-5e-3 -2.75c-6e-3 -3.2238 14.638-72.69 16.022-76l0.94053-2.25h40.462c22.254 0 40.704 0.39113 41 0.86917 0.29545 0.47805-2.1499 13.416-5.434 28.75-3.2842 15.334-5.9743 28.62-5.9782 29.524-4e-3 0.90366 0.70486 1.9162 1.5748 2.25 0.86998 0.33385 14.37 0.60699 30 0.60699h28.418v2.4346c0 1.339-0.65369 5.5016-1.4526 9.25-8.731 40.963-13.755 62.861-14.678 63.973-0.88664 1.0683-7.2012 1.3424-30.924 1.3424-27.531 0-29.849 0.13377-30.316 1.75-0.27801 0.9625-2.8198 12.775-5.6485 26.25s-5.5469 25.512-6.0405 26.75l-0.89741 2.25h-66.043l0.0356-2.75z" fill="#f61202"/>
   <path d="m190.18 64.199c-0.82681-2.1546 20.322-99.781 21.822-100.73 1.8049-1.1452 26.879-1.0102 35.178 0.18942 17.883 2.585 27.608 12.913 27.608 29.32 0 15.974-9.1506 30.312-23.753 37.22-5.4788 2.5919-16.72 4.4017-27.43 4.416-4.5507 6e-3 -5.7823 0.35617-6.1829 1.7576-0.27516 0.9625-1.7147 7.375-3.1989 14.25s-3.1445 13.062-3.6895 13.75c-1.4934 1.8838-19.624 1.7317-20.354-0.17072zm52.536-51.84c10.553-5.4183 13.356-22.575 4.6233-28.297-3.5985-2.3578-15.647-3.2051-17.61-1.2383-1.7776 1.7812-7.4638 28.994-6.5538 31.366 0.96457 2.5136 13.337 1.3549 19.54-1.8301z" fill="#0e0b04"/>
   <path d="m171.45 95.954c-3.6805-0.15221-6.9065-0.4965-7.1688-0.7651-1.1428-1.1702 8.6902-45.689 10.32-46.724 0.33575-0.21319 1.4895-0.41432 2.5639-0.44696 2.4784-0.07529 15.586-0.02396 15.709 0.09347-0.81411 5.6287-2.0161 10.495-2.6864 16.088 1.5972 1.5972 18.71 1.9082 20.344 0.27371 0.39799-0.39799 1.2119-3.6529 2.1781-7.4105l1.6271-8.025 2.3851-0.7609c2.0027-0.63889 2.8418-0.45565 25.639-0.37655 13.027 0.04521 24.345 0.2796 25.151 0.52087 1.2832 0.38422 1.4836 0.69024 1.6144 2.465 0.23868 3.2381-8.0486 43.119-9.1993 44.269-0.9843 0.9843-69.116 1.5993-88.477 0.79866z" fill="#fff" style="paint-order:markers stroke fill"/>
  </g>
 </g>
</svg>
