<?xml version="1.0" encoding="UTF-8"?>
<!-- Created with Inkscape (http://www.inkscape.org/) -->
<svg width="24" height="24" version="1.1" viewBox="0 0 24 24" xmlns="http://www.w3.org/2000/svg" xmlns:cc="http://creativecommons.org/ns#" xmlns:dc="http://purl.org/dc/elements/1.1/" xmlns:rdf="http://www.w3.org/1999/02/22-rdf-syntax-ns#">
 <defs>
  <linearGradient id="linearGradient14183" x1="4.9426" x2="30.151" y1="20.047" y2="-6.2656" gradientUnits="userSpaceOnUse">
   <stop offset="0"/>
   <stop stop-opacity="0" offset="1"/>
  </linearGradient>
 </defs>
 <metadata>
  <rdf:RDF>
   <cc:Work rdf:about="">
    <dc:format>image/svg+xml</dc:format>
    <dc:type rdf:resource="http://purl.org/dc/dcmitype/StillImage"/>
    <dc:title/>
   </cc:Work>
  </rdf:RDF>
 </metadata>
 <path d="M 23.932,12 A 11.932,11.932 0 0 1 12,23.932 11.932,11.932 0 0 1 0.068,12 11.932,11.932 0 0 1 12,0.068 11.932,11.932 0 0 1 23.932,12 Z" color="#000000" color-rendering="auto" fill="#fc0" fill-rule="evenodd" image-rendering="auto" shape-rendering="auto" solid-color="#000000" style="isolation:auto;mix-blend-mode:normal"/>
 <path d="m12.047 0.0058594c-6.6103-1e-7 -11.979 5.3682-11.979 11.979 0 6.6103 5.3682 11.979 11.979 11.979 6.6103 0 11.979-5.3682 11.979-11.979 0-6.6103-5.3682-11.979-11.979-11.979zm0 0.96289c6.0895 0 11.016 4.9261 11.016 11.016s-4.9261 11.016-11.016 11.016-11.016-4.9261-11.016-11.016c-1e-7 -6.0895 4.9261-11.016 11.016-11.016z" color="#000000" color-rendering="auto" fill="url(#linearGradient14183)" fill-rule="evenodd" image-rendering="auto" opacity=".096" shape-rendering="auto" solid-color="#000000" style="isolation:auto;mix-blend-mode:normal;text-decoration-color:#000000;text-decoration-line:none;text-decoration-style:solid;text-indent:0;text-transform:none;white-space:normal"/>
 <path d="m3.8637 21.496c-0.033797-0.0338-0.06145-1.7303-0.06145-3.77v-3.7086l8.1459-8.0481 8.1689 8.1673v3.5998c0 2.6769-0.02836 3.6281-0.11061 3.7104-0.08433 0.08433-2.008 0.11061-8.0959 0.11061-4.3919 0-8.013-0.02765-8.0468-0.06145z"/>
 <path d="m2.1862 13.262c-0.61733-0.30558-0.91839-1.1182-0.62771-1.6944 0.1845-0.36571 10.171-10.381 10.352-10.381 0.14608 0 9.3177 9.103 10.07 9.9947 0.43669 0.51757 0.45922 0.57012 0.41993 0.97909-0.05447 0.56687-0.34281 0.95658-0.85152 1.1509-0.85025 0.32471-0.6545 0.47838-5.3489-4.1988l-4.24-4.2244-4.1939 4.1452c-2.3067 2.2799-4.3274 4.2054-4.4905 4.2788-0.39903 0.17972-0.64708 0.16821-1.089-0.050549z"/>
 <g transform="matrix(1.1996 0 0 1.0145 -2.3416 .97816)" fill="#fff">
  <path d="m13.605 11.859c-1.6445-0.0065-3.4805-0.0035-4.3945 0.01367-1.0141 0.01905-1.5686 0.09363-1.6857 0.10481l-0.21289 0.02149 0.16602 0.16992c2.3743 2.1518 2.8025 2.7709 4.4514 3.8952 0.05491 0 0.50097-0.32277 1.0039-0.72656 0.95345-0.76549 3.2554-2.6963 3.7891-3.1777l0.26367-0.23633-0.13867-0.02148c-0.14552-0.02135-1.5977-0.03649-3.2422-0.04297zm-7.2168 0.48633-0.017578 0.14844c-0.039247 0.30991-0.058592 4.5167-0.023438 5.1641 0.019133 0.35234 0.044251 0.67072 0.054688 0.70898 0.022585 0.0828 0.03596 0.07833 0.32422-0.13281 0.52117-0.38175 2.5272-2.0672 3.1699-2.6641l0.15234-0.14258-0.25586-0.24414c-0.56508-0.53626-2.8041-2.4114-3.3047-2.7676z" style="paint-order:markers stroke fill"/>
  <path d="m17.215 18.27c-1.0431-0.80991-3.0113-2.4794-3.0847-2.6165-0.04762-0.08898 0.0271-0.19854 0.35106-0.51474 0.33958-0.33144 0.54893-0.51471 1.464-1.2816 1.2085-1.0129 1.6593-1.3646 1.6987-1.3252 0.02616 0.02616 0.03567 0.74108 0.03567 2.6825 0 2.6376-0.01833 3.3188-0.08931 3.3188-0.02003 0-0.18896-0.11844-0.3754-0.2632z" style="paint-order:markers stroke fill"/>
  <path d="m7.5405 19.252-0.70187-0.01653 0.40499-0.34473c0.76091-0.64768 2.4555-2.0407 3.0053-2.4705 0.34566-0.27021 0.28761-0.27622 0.76095 0.07883 0.16226 0.12172 0.3721 0.25958 0.4663 0.30636 0.21773 0.10812 0.52017 0.13156 0.74288 0.05759 0.14736-0.04894 0.23134-0.10024 0.81443-0.49746 0.19776-0.13472 0.27242-0.17016 0.3125-0.14832 0.14482 0.0789 2.7827 2.2398 3.4719 2.8441l0.10676 0.09361-0.0894 0.03399c-0.04917 0.0187-0.4558 0.04699-0.90363 0.06288-0.83584 0.02965-7.1339 0.0298-8.3911 1.88e-4z" style="paint-order:markers stroke fill"/>
 </g>
 <g transform="translate(-85.729 -34.373)">
  <g transform="matrix(.052365 0 0 .052365 .52299 7.4916)" stroke-width="19.097">
   <path d="m-9.9873 86.096v-229.16h458.32v458.32h-458.32z" fill="#fdca00" stroke-width="19.097"/>
   <g transform="translate(2.3871,-29.839)">
    <path d="m280.8 93.702c0.0399-3.0833 2.3856-13.505 3.4144-15.169 0.44658-0.72259 8.1137-1.0809 23.13-1.0809 22.349 0 22.467-0.0114 23.403-2.25 0.51738-1.2375 3.4487-13.933 6.514-28.213s6.1199-26.31 6.7879-26.735c0.66801-0.42449 14.322-0.7787 30.342-0.78712 22.103-0.0116 29.362-0.31678 30.098-1.2653 1.2262-1.5789 8.3093-34.884 7.6468-35.956-0.26994-0.43678-13.753-0.79414-29.963-0.79414-24.702 0-29.562-0.23261-30.024-1.4371-0.53082-1.3833 0.58922-7.2469 8.0335-42.057 2.4258-11.343 3.1173-16.359 2.3781-17.25-1.5684-1.8898-37.129-1.7816-39.029 0.11879-0.75607 0.75607-4.0122 13.694-7.2358 28.75s-6.226 28.388-6.672 29.625c-0.76365 2.1191-1.365 2.25-10.336 2.25h-9.5248l-5e-3 -2.75c-6e-3 -3.2238 14.638-72.69 16.022-76l0.94053-2.25h40.462c22.254 0 40.704 0.39113 41 0.86917 0.29545 0.47805-2.1499 13.416-5.434 28.75-3.2842 15.334-5.9743 28.62-5.9782 29.524-4e-3 0.90366 0.70486 1.9162 1.5748 2.25 0.86998 0.33385 14.37 0.60699 30 0.60699h28.418v2.4346c0 1.339-0.65369 5.5016-1.4526 9.25-8.731 40.963-13.755 62.861-14.678 63.973-0.88664 1.0683-7.2012 1.3424-30.924 1.3424-27.531 0-29.849 0.13377-30.316 1.75-0.27801 0.9625-2.8198 12.775-5.6485 26.25s-5.5469 25.512-6.0405 26.75l-0.89741 2.25h-66.043l0.0356-2.75z" fill="#f61202" stroke-width="19.097"/>
    <path d="m190.18 64.199c-0.82681-2.1546 20.322-99.781 21.822-100.73 1.8049-1.1452 26.879-1.0102 35.178 0.18942 17.883 2.585 27.608 12.913 27.608 29.32 0 15.974-9.1506 30.312-23.753 37.22-5.4788 2.5919-16.72 4.4017-27.43 4.416-4.5507 6e-3 -5.7823 0.35617-6.1829 1.7576-0.27516 0.9625-1.7147 7.375-3.1989 14.25s-3.1445 13.062-3.6895 13.75c-1.4934 1.8838-19.624 1.7317-20.354-0.17072zm52.536-51.84c10.553-5.4183 13.356-22.575 4.6233-28.297-3.5985-2.3578-15.647-3.2051-17.61-1.2383-1.7776 1.7812-7.4638 28.994-6.5538 31.366 0.96457 2.5136 13.337 1.3549 19.54-1.8301z" fill="#0e0b04" stroke-width="19.097"/>
    <path d="m171.45 95.954c-3.6805-0.15221-6.9065-0.4965-7.1688-0.7651-1.1428-1.1702 8.6902-45.689 10.32-46.724 0.33575-0.21319 1.4895-0.41432 2.5639-0.44696 2.4784-0.07529 15.586-0.02396 15.709 0.09347-0.81411 5.6287-2.0161 10.495-2.6864 16.088 1.5972 1.5972 18.71 1.9082 20.344 0.27371 0.39799-0.39799 1.2119-3.6529 2.1781-7.4105l1.6271-8.025 2.3851-0.7609c2.0027-0.63889 2.8418-0.45565 25.639-0.37655 13.027 0.04521 24.345 0.2796 25.151 0.52087 1.2832 0.38422 1.4836 0.69024 1.6144 2.465 0.23868 3.2381-8.0486 43.119-9.1993 44.269-0.9843 0.9843-69.116 1.5993-88.477 0.79866z" fill="#fff" style="paint-order:markers stroke fill"/>
   </g>
  </g>
  <g transform="matrix(1.0742,0,0,1.0742,21.405,-2.2991)" stroke-width=".9309">
   <g stroke-width=".9309">
    <path d="m-16.439 22.55c0-0.81499-0.0103-1.4818-0.0229-1.4817-0.0126 3e-5 -0.06945 0.13408-0.12632 0.29789-0.19997 0.57599-0.45203 1.0041-0.65517 1.1128-0.39722 0.21259-0.89104-0.11388-0.88621-0.58587 0.0021-0.19005 0.04015-0.29194 0.52992-1.4133 0.36099-0.82648 0.51286-1.0622 0.79407-1.2327 0.3307-0.20042 0.3773-0.20558 1.9774-0.21856 1.6082-0.01306 1.7631-3.06e-4 2.1347 0.17714 0.25519 0.12179 0.59452 0.43977 0.80718 0.75638 0.23134 0.34444 0.91633 1.756 0.91633 1.8883 0 0.3216-0.27871 0.59131-0.61105 0.59131-0.36978 0-0.68003-0.31559-1.0574-1.0756-0.08135-0.16384-0.15856-0.29789-0.17157-0.29789s-0.02366 0.66681-0.02366 1.4818v1.4818h-3.6052z"/>
    <path d="m-7.9144 22.55c0-0.81499-0.0104-1.4818-0.02307-1.4818-0.0127 0-0.05543 0.08593-0.095 0.19095-0.13196 0.35034-0.39834 0.86142-0.52605 1.0093-0.2453 0.284-0.54483 0.35239-0.81381 0.18579-0.18978-0.11754-0.28357-0.29548-0.28357-0.53797 0-0.15821 0.02951-0.24939 0.23336-0.72082 0.63598-1.4708 1.0015-1.9405 1.6749-2.1524 0.21012-0.06611 0.25072-0.06768 1.7428-0.06768 1.3688 0 1.5483 0.0056 1.7262 0.05429 0.55853 0.15267 0.74986 0.34897 1.1507 1.1805 0.46674 0.96828 0.58978 1.3101 0.59042 1.6402 6.84e-4 0.42382-0.21187 0.6914-0.54958 0.6914-0.33879 0-0.57878-0.25902-0.96842-1.0452l-0.21988-0.44366-0.0034 2.9788h-3.6358z"/>
    <path d="m-18.791 23.283v-0.22914h1.8637v0.45829h-1.8637z"/>
    <path d="m-12.406 23.283v-0.22914h4.0329v0.45829h-4.0329z"/>
    <path d="m-3.8509 23.283v-0.22914h1.9248v0.45829h-1.9248z"/>
    <path d="m-15.011 18.653c-0.29824-0.07517-0.63647-0.31691-0.81276-0.5809-0.49115-0.73551-0.22915-1.6907 0.56753-2.069 0.21146-0.10042 0.26906-0.11397 0.52796-0.12422 0.23879-0.0095 0.32572 3.42e-4 0.48754 0.05502 0.45301 0.15303 0.76633 0.46716 0.92017 0.92255 0.05336 0.15794 0.06321 0.24658 0.05381 0.48396-0.01023 0.2589-0.0238 0.3165-0.12423 0.52796-0.14928 0.31434-0.37068 0.53648-0.68209 0.68437-0.20976 0.09962-0.26245 0.11159-0.52796 0.11997-0.16222 0.0051-0.34671-0.0038-0.40999-0.01969z"/>
    <path d="m-6.5151 18.628c-0.75184-0.24865-1.1708-1.0404-0.94204-1.7805 0.28305-0.91586 1.3647-1.2925 2.1691-0.75534 0.18489 0.12346 0.36899 0.33461 0.47597 0.5459 0.21641 0.4274 0.17224 1.0088-0.10858 1.4294-0.15011 0.2248-0.3309 0.37619-0.59912 0.50171-0.17897 0.08375-0.24385 0.09718-0.51301 0.10618-0.2408 8e-3 -0.34619-0.0023-0.48234-0.0473z"/>
    <path d="m-17.456 12.571c-0.36809-0.08662-0.70523-0.36068-0.87899-0.71453-0.1009-0.20547-0.10476-0.2263-0.10476-0.56522 0-0.33169 0.0055-0.3636 0.09668-0.55597 0.16431-0.34682 0.44648-0.5981 0.79993-0.71238 0.12374-0.040007 0.23487-0.049761 0.45829-0.040223 0.25717 0.010979 0.32209 0.025666 0.50694 0.11468 0.80387 0.38712 0.99847 1.4418 0.38559 2.0899-0.3187 0.33697-0.81808 0.48863-1.2637 0.38376z"/>
    <path d="m-18.815 17.776 0.0094-3.4142 0.06869-0.24386c0.15243-0.54115 0.43037-0.81842 0.9715-0.96915 0.23699-0.06601 0.28506-0.06756 2.4218-0.07826l2.18-0.01092 0.48179-0.30134c1.3244-0.82834 1.692-0.98106 1.9705-0.81877 0.06672 0.03887 0.15384 0.11858 0.1936 0.17714 0.06188 0.09114 0.07071 0.13555 0.06124 0.30844-0.01919 0.35149-0.0166 0.34923-1.2968 1.1287l-1.1263 0.68579-2.7804 0.03054-0.0164 1.4696-0.20764 0.21231c-0.35868 0.36675-0.51978 0.72241-0.54591 1.2053-0.02677 0.4945 0.1229 0.92368 0.45014 1.2908 0.16861 0.18918 0.16156 0.20584-0.08758 0.20677-0.34704 0.0014-0.7877 0.14688-1.0561 0.34895-0.37388 0.28143-0.58679 0.63673-0.96687 1.6135l-0.22291 0.57288h-0.51119z"/>
   </g>
   <path d="m-9.8337 11.772 0.0091-0.27705 0.875-0.46333c1.1996-0.63523 2.5182-1.3016 2.5938-1.3108 0.21643-0.026327-0.02605 0.1755-0.83433 0.69447-0.63096 0.40512-2.5493 1.5941-2.6088 1.6169-0.03587 0.01376-0.04211-0.0331-0.03466-0.26026z" fill="#4d4d4d" style="paint-order:markers stroke fill"/>
  </g>
 </g>
 <path d="m10.711 11.888c8.39e-4 -0.06184 0.04785-0.27088 0.06848-0.30426 9e-3 -0.0145 0.16274-0.02168 0.46394-0.02168 0.44827 0 0.45064-2.3e-4 0.46941-0.04513 0.01038-0.02482 0.06918-0.27946 0.13066-0.56589 0.06148-0.28642 0.12275-0.52772 0.13615-0.53624 0.0134-0.0085 0.28727-0.01562 0.60859-0.01578 0.44334-2.33e-4 0.58894-0.0063 0.6037-0.02538 0.0246-0.03167 0.16666-0.6997 0.15338-0.7212-0.0055-0.00876-0.27585-0.015933-0.60099-0.015933-0.49547 0-0.59295-0.00467-0.60221-0.028828-0.01065-0.027746 0.01182-0.14536 0.16113-0.84357 0.04866-0.22752 0.06253-0.32812 0.0477-0.346-0.03146-0.037906-0.74472-0.035735-0.78283 0.00237-0.01517 0.015164-0.08048 0.27467-0.14513 0.57666-0.06466 0.30199-0.12488 0.5694-0.13382 0.59421-0.01532 0.042502-0.02738 0.045133-0.20732 0.045133h-0.19105l-1.01e-4 -0.055163c-1.2e-4 -0.064649 0.29361-1.458 0.32137-1.5244l0.01887-0.04513h0.81158c0.44636 0 0.81643 0.00784 0.82237 0.017434 6e-3 0.00959-0.04312 0.26909-0.10899 0.57666-0.06588 0.30757-0.11983 0.57405-0.11991 0.59218-7.9e-5 0.018125 0.01414 0.038435 0.03159 0.045129 0.01745 0.0067 0.28823 0.012173 0.60173 0.012173h0.57v0.048836c0 0.026858-0.0131 0.11035-0.02914 0.18553-0.17512 0.82163-0.2759 1.2608-0.29441 1.2832-0.01778 0.02142-0.14444 0.02692-0.62027 0.02692-0.55221 0-0.5987 0.0027-0.60807 0.0351-0.0055 0.0193-0.05656 0.25624-0.1133 0.52652-0.05674 0.27028-0.11126 0.51171-0.12116 0.53654l-0.018 0.04513h-1.3247l7.13e-4 -0.05515z" fill="#f61202" stroke-width=".38304"/>
</svg>
