<?xml version="1.0" encoding="UTF-8"?>
<!-- Created with Inkscape (http://www.inkscape.org/) -->
<svg width="24" height="24" version="1.1" viewBox="0 0 24 24" xmlns="http://www.w3.org/2000/svg" xmlns:cc="http://creativecommons.org/ns#" xmlns:dc="http://purl.org/dc/elements/1.1/" xmlns:rdf="http://www.w3.org/1999/02/22-rdf-syntax-ns#">
 <defs>
  <linearGradient id="linearGradient14183" x1="4.9426" x2="30.151" y1="20.047" y2="-6.2656" gradientUnits="userSpaceOnUse">
   <stop offset="0"/>
   <stop stop-opacity="0" offset="1"/>
  </linearGradient>
 </defs>
 <metadata>
  <rdf:RDF>
   <cc:Work rdf:about="">
    <dc:format>image/svg+xml</dc:format>
    <dc:type rdf:resource="http://purl.org/dc/dcmitype/StillImage"/>
    <dc:title/>
   </cc:Work>
  </rdf:RDF>
 </metadata>
 <path d="M 23.932,12 A 11.932,11.932 0 0 1 12,23.932 11.932,11.932 0 0 1 0.068,12 11.932,11.932 0 0 1 12,0.068 11.932,11.932 0 0 1 23.932,12 Z" color="#000000" color-rendering="auto" fill="#fc0" fill-rule="evenodd" image-rendering="auto" shape-rendering="auto" solid-color="#000000" style="isolation:auto;mix-blend-mode:normal"/>
 <path d="m12.047 0.0058594c-6.6103-1e-7 -11.979 5.3682-11.979 11.979 0 6.6103 5.3682 11.979 11.979 11.979 6.6103 0 11.979-5.3682 11.979-11.979 0-6.6103-5.3682-11.979-11.979-11.979zm0 0.96289c6.0895 0 11.016 4.9261 11.016 11.016 0 6.0899-4.9261 11.016-11.016 11.016s-11.016-4.9261-11.016-11.016c-1e-7 -6.0895 4.9261-11.016 11.016-11.016z" color="#000000" color-rendering="auto" fill="url(#linearGradient14183)" fill-rule="evenodd" image-rendering="auto" opacity=".096" shape-rendering="auto" solid-color="#000000" style="isolation:auto;mix-blend-mode:normal;text-decoration-color:#000000;text-decoration-line:none;text-decoration-style:solid;text-indent:0;text-transform:none;white-space:normal"/>
 <g aria-label="$">
  <path d="m17.943 7.4753-3.8385 0.60879q-0.28892-0.73261-0.52624-1.0112-0.22701-0.28892-0.76357-0.57784v2.9821q3.1368 0.8358 4.1893 1.7645 1.393 1.2485 1.393 3.1678 0 1.1247-0.50561 2.0637-0.49529 0.93898-1.2795 1.5684-0.77389 0.62943-1.651 0.91835-0.87707 0.2786-2.1463 0.33019v1.9502h-1.5065v-1.9502q-1.5168-0.13414-2.4661-0.48497-0.93899-0.36115-1.6303-0.99058-0.68102-0.62943-1.0525-1.3517-0.37147-0.73262-0.5572-1.7645l4.1687-0.48497q0.18573 1.0215 0.49529 1.4755 0.31987 0.45402 1.0422 0.80484v-3.6424q-2.0843-0.57784-2.9614-1.0009-0.86676-0.42306-1.5065-1.3517-0.63975-0.93899-0.63975-2.2804 0-1.8367 1.2795-3.0646 1.2898-1.2382 3.8282-1.3724v-1.0215h1.5065v1.0215q2.3113 0.14446 3.5289 1.0938 1.2279 0.9493 1.5994 2.6003zm-6.6348-1.0319q-0.66038 0.21669-0.91835 0.53656t-0.25796 0.75325q0 0.45401 0.25796 0.79453 0.26828 0.33019 0.91835 0.5572zm1.5065 10.153q0.87707-0.19605 1.2795-0.63975 0.41274-0.45402 0.41274-1.0112 0-0.48497-0.35083-0.88739-0.34051-0.41274-1.3414-0.76357z" style="font-feature-settings:normal;font-variant-caps:normal;font-variant-ligatures:normal;font-variant-numeric:normal"/>
 </g>
</svg>
