<?xml version="1.0" encoding="UTF-8"?>
<!-- Created with Inkscape (http://www.inkscape.org/) -->
<svg width="24" height="24" version="1.1" viewBox="0 0 24 24" xmlns="http://www.w3.org/2000/svg" xmlns:cc="http://creativecommons.org/ns#" xmlns:dc="http://purl.org/dc/elements/1.1/" xmlns:rdf="http://www.w3.org/1999/02/22-rdf-syntax-ns#">
 <defs>
  <linearGradient id="linearGradient14183" x1="4.9426" x2="30.151" y1="20.047" y2="-6.2656" gradientUnits="userSpaceOnUse">
   <stop offset="0"/>
   <stop stop-opacity="0" offset="1"/>
  </linearGradient>
 </defs>
 <metadata>
  <rdf:RDF>
   <cc:Work rdf:about="">
    <dc:format>image/svg+xml</dc:format>
    <dc:type rdf:resource="http://purl.org/dc/dcmitype/StillImage"/>
    <dc:title/>
   </cc:Work>
  </rdf:RDF>
 </metadata>
 <path d="M 23.932,12 A 11.932,11.932 0 0 1 12,23.932 11.932,11.932 0 0 1 0.068,12 11.932,11.932 0 0 1 12,0.068 11.932,11.932 0 0 1 23.932,12 Z" color="#000000" color-rendering="auto" fill="#fc0" fill-rule="evenodd" image-rendering="auto" shape-rendering="auto" solid-color="#000000" style="isolation:auto;mix-blend-mode:normal"/>
 <path d="m12.047 0.0058594c-6.6103-1e-7 -11.979 5.3682-11.979 11.979 0 6.6103 5.3682 11.979 11.979 11.979 6.6103 0 11.979-5.3682 11.979-11.979 0-6.6103-5.3682-11.979-11.979-11.979zm0 0.96289c6.0895 0 11.016 4.9261 11.016 11.016 0 6.0899-4.9261 11.016-11.016 11.016s-11.016-4.9261-11.016-11.016c-1e-7 -6.0895 4.9261-11.016 11.016-11.016z" color="#000000" color-rendering="auto" fill="url(#linearGradient14183)" fill-rule="evenodd" image-rendering="auto" opacity=".096" shape-rendering="auto" solid-color="#000000" style="isolation:auto;mix-blend-mode:normal;text-decoration-color:#000000;text-decoration-line:none;text-decoration-style:solid;text-indent:0;text-transform:none;white-space:normal"/>
 <g transform="translate(0 .5625)">
  <path d="m5.7116 22.302c-0.09345-0.09346-0.1457-0.57134-0.1457-1.3325 0-1.1821-0.0013-1.1875-0.34624-1.3659-0.44833-0.23184-1.0911-0.96736-1.3268-1.5183-0.1029-0.2405-0.18405-0.77471-0.18211-1.1989 0.0033-0.73272 0.07186-0.90463 1.6211-4.0676 0.88971-1.8164 1.7571-3.4597 1.9276-3.6518 0.6747-0.76027 0.91019-0.79895 4.8632-0.79895 3.2261 0 3.6302 0.022273 4.0676 0.22416 0.26713 0.12329 0.60605 0.35509 0.75317 0.51511 0.38546 0.41929 3.2973 6.3416 3.4993 7.1171 0.34035 1.3067-0.28442 2.7857-1.4294 3.3838-0.33158 0.17319-0.33391 0.1832-0.33391 1.4332 0 1.0359-0.03401 1.2719-0.19207 1.3325-0.10563 0.04053-2.9906 0.07371-6.4111 0.07371-4.6751 0-6.2552-0.03617-6.3647-0.14571zm11.389-0.79374c0-0.04922-0.74866-0.83958-1.6637-1.7564l-1.6637-1.6669-0.75426 0.72427c-0.41484 0.39835-0.81835 0.72427-0.89669 0.72427-0.07835 0-0.48185-0.32592-0.8967-0.72427l-0.75425-0.72427-1.6637 1.6669c-0.91502 0.91678-1.6637 1.7071-1.6637 1.7564 0 0.04922 2.2402 0.0895 4.9783 0.0895 2.7381 0 4.9783-0.04027 4.9783-0.0895zm-8.8668-5.7283c-0.89118-0.94068-1.6649-1.7103-1.7193-1.7103-0.05446 0-0.09898 0.44389-0.09898 0.98642v0.98642l0.52995 0.46647c0.64077 0.56403 0.85907 1.0438 0.7716 1.6959-0.0831 0.61957-0.35816 1.0389-0.8855 1.3501-0.37887 0.22354-0.41604 0.29588-0.41604 0.8097v0.56423l3.4386-3.4386zm9.5927 4.5126c-0.0026-0.52725-0.03567-0.59239-0.38721-0.75889-0.51074-0.24188-0.82723-0.69886-0.90967-1.3135-0.08968-0.66863 0.12337-1.1424 0.76956-1.7112l0.52994-0.46647v-2.0325l-3.4584 3.4584 1.6972 1.7005c0.93346 0.93525 1.7116 1.7005 1.7292 1.7005 0.0176 0 0.03077-0.25954 0.02938-0.57676zm-3.1543-4.4623 2.4869-2.4892h-10.074l2.4869 2.4892c1.3678 1.369 2.5152 2.4892 2.5499 2.4892 0.03461 0 1.182-1.1201 2.5499-2.4892zm-4.0153-8.2226c-0.78726-0.34194-1.2485-0.75093-1.6641-1.4755-0.36232-0.63173-0.40362-0.82527-0.40477-1.8966l-0.0015-1.1931h6.8237l1.1219 0.56127c0.61704 0.3087 1.1508 0.58815 1.1861 0.62101 0.17786 0.16544-0.44361 0.31367-1.3229 0.31553-0.9639 0.00206-0.98782 0.010466-1.069 0.37706-0.29324 1.3244-0.79858 2.0166-1.8577 2.5443-0.81951 0.40838-2.0597 0.47277-2.812 0.14601zm-2.0701-5.637c0-0.37326 0.07513-0.72514 0.17044-0.79834 0.24322-0.18677 7.2163-1.0243 7.3569-0.88363 0.06457 0.064571-0.08511 0.59852-0.33542 1.1965l-0.45202 1.0799-6.7399 0.072941z" fill-rule="evenodd" shape-rendering="auto"/>
  <g fill="#fff">
   <path d="m11.791 18.002c-0.34904-0.33461-2.0788-2.054-3.6971-3.6749l-0.98299-0.98459 5.0157 6e-4 5.0157 6.01e-4 -2.2873 2.2809c-1.258 1.2545-2.3883 2.3733-2.5119 2.4862l-0.2246 0.20527z" style="paint-order:markers stroke fill"/>
   <path d="m6.4365 20.457c6.78e-5 -0.23696 0.010554-0.4684 0.023302-0.51431 0.034106-0.12282 0.13544-0.22452 0.38431-0.3857 0.47438-0.30724 0.70385-0.60706 0.83322-1.0887 0.041428-0.15423 0.050532-0.24514 0.050899-0.50823 4.117e-4 -0.29505-0.00446-0.3344-0.061591-0.49718-0.12775-0.36402-0.38449-0.67903-0.95796-1.1754l-0.27593-0.23883 0.0096428-0.89493c0.00959-0.88977 0.02389-1.0607 0.088777-1.0607 0.040835 0 1.3758 1.3523 2.2578 2.287 0.43575 0.46183 0.85022 0.8995 0.92104 0.9726l0.12877 0.1329-1.7012 1.7011-1.7012 1.7011z" style="paint-order:markers stroke fill"/>
   <path d="m8.6061 21.561c-0.95453-0.01784-1.4405-0.03962-1.4405-0.06455 0-0.03673 0.53813-0.60559 1.3594-1.437 0.4742-0.48006 1.1046-1.1187 1.4009-1.4192l0.53876-0.54632 0.37307 0.3585c0.65286 0.62736 1.0688 0.99004 1.2188 1.0627 0.05721 0.02771 0.07628 0.02818 0.12486 0.0031 0.17301-0.08947 0.51632-0.38637 1.1589-1.0023 0.23012-0.22056 0.42477-0.40103 0.43255-0.40103 0.0078 0 0.61034 0.59911 1.339 1.3313 1.2098 1.2157 1.9047 1.9374 1.9544 2.0299 0.01691 0.03144-0.01106 0.03732-0.23962 0.05042-0.90698 0.05197-6.1153 0.0738-8.2206 0.03444z" style="paint-order:markers stroke fill"/>
   <path d="m16.082 19.168-1.7015-1.6921 1.718-1.7191 1.718-1.7191-0.0018 1.0054-0.0018 1.0054-0.38327 0.33693c-0.42773 0.37602-0.6313 0.61035-0.76312 0.87841-0.1202 0.24442-0.15492 0.39712-0.15576 0.68501-9.55e-4 0.32449 0.05906 0.59626 0.19202 0.86958 0.0849 0.17453 0.13282 0.23994 0.29278 0.39967 0.15516 0.15494 0.23447 0.21375 0.42017 0.3116 0.2663 0.14032 0.3427 0.21622 0.37656 0.37408 0.02543 0.11858 0.02924 0.78308 0.0051 0.89275-0.01339 0.06085-0.08379-6e-3 -1.7154-1.6286z" style="paint-order:markers stroke fill"/>
  </g>
 </g>
</svg>
