<?xml version="1.0" encoding="UTF-8"?>
<!-- Created with Inkscape (http://www.inkscape.org/) -->
<svg width="24" height="24" version="1.1" viewBox="0 0 24 24" xmlns="http://www.w3.org/2000/svg" xmlns:cc="http://creativecommons.org/ns#" xmlns:dc="http://purl.org/dc/elements/1.1/" xmlns:rdf="http://www.w3.org/1999/02/22-rdf-syntax-ns#">
 <defs>
  <linearGradient id="linearGradient14183" x1="4.9426" x2="30.151" y1="20.047" y2="-6.2656" gradientUnits="userSpaceOnUse">
   <stop offset="0"/>
   <stop stop-opacity="0" offset="1"/>
  </linearGradient>
 </defs>
 <metadata>
  <rdf:RDF>
   <cc:Work rdf:about="">
    <dc:format>image/svg+xml</dc:format>
    <dc:type rdf:resource="http://purl.org/dc/dcmitype/StillImage"/>
    <dc:title/>
   </cc:Work>
  </rdf:RDF>
 </metadata>
 <g fill-rule="evenodd" shape-rendering="auto">
  <path d="m23.932 12a11.932 11.932 0 0 1-11.932 11.932 11.932 11.932 0 0 1-11.932-11.932 11.932 11.932 0 0 1 11.932-11.932 11.932 11.932 0 0 1 11.932 11.932z" color="#000000" color-rendering="auto" fill="#fc0" image-rendering="auto" solid-color="#000000" style="isolation:auto;mix-blend-mode:normal"/>
  <path d="m12.047 0.0058594c-6.6103-1e-7 -11.979 5.3682-11.979 11.979 0 6.6103 5.3682 11.979 11.979 11.979 6.6103 0 11.979-5.3682 11.979-11.979 0-6.6103-5.3682-11.979-11.979-11.979zm0 0.96289c6.0895 0 11.016 4.9261 11.016 11.016s-4.9261 11.016-11.016 11.016-11.016-4.9261-11.016-11.016c-1e-7 -6.0895 4.9261-11.016 11.016-11.016z" color="#000000" color-rendering="auto" fill="url(#linearGradient14183)" image-rendering="auto" opacity=".096" solid-color="#000000" style="block-progression:tb;isolation:auto;mix-blend-mode:normal;text-decoration-color:#000000;text-decoration-line:none;text-decoration-style:solid;text-indent:0;text-transform:none;white-space:normal"/>
 </g>
 <g transform="translate(-19.451 .21894)">
  <path d="m23.255 9.6005 8.1829 5.9932 8.33-5.9925v10.774h-16.58z" fill="#fff"/>
  <path d="m23.173 9.492 8.296-6.1795 8.2992 6.2887v10.774h-16.612z" fill="#fff" stroke="#1a1a1a" stroke-width="1px"/>
  <g>
   <path d="m25.976 5.8729h10.564c0.43287 0 0.78135 0.44222 0.78135 0.99153v8.5085c0 0.5493-0.34848 0.99152-0.78135 0.99152h-10.564c-0.43287 0-0.78135-0.44222-0.78135-0.99152v-8.5085c0-0.54931 0.34848-0.99153 0.78135-0.99153z" fill="#fdcc0b" stroke="#000" stroke-linecap="round" stroke-width="1.4" style="paint-order:markers stroke fill"/>
   <rect x="28.007" y="8.4079" width="6.6018" height="3.0179" rx=".23577" ry=".27993" fill="#1a1a1a" style="paint-order:markers stroke fill"/>
   <path d="m28.898 9.08h5.7164l-0.0062 2.3458-5.9459-0.0013v-2.0646c0-0.15508 0.10515-0.27993 0.23577-0.27993z" fill="#fff" style="paint-order:markers stroke fill"/>
  </g>
  <path d="m23.255 9.6005 8.0891 5.4932 8.4242-5.4925-0.020805 10.772-16.56 0.002098z" fill="#fff"/>
  <g fill="none" stroke-width="1px">
   <path d="m39.747 9.5991v10.774h-16.612l0.01653-10.883" stroke="#1a1a1a"/>
   <g stroke="#000">
    <path d="m23.188 20.375 4.625-4.375"/>
    <path d="m39.747 20.373-4.7159-4.6542"/>
    <path d="m23.255 9.6005 8.0891 5.4932 8.4242-5.4925"/>
   </g>
  </g>
 </g>
</svg>
