<?xml version="1.0" encoding="UTF-8"?>
<!-- Created with Inkscape (http://www.inkscape.org/) -->
<svg width="24" height="24" version="1.1" viewBox="0 0 24 24" xmlns="http://www.w3.org/2000/svg" xmlns:cc="http://creativecommons.org/ns#" xmlns:dc="http://purl.org/dc/elements/1.1/" xmlns:rdf="http://www.w3.org/1999/02/22-rdf-syntax-ns#">
 <defs>
  <linearGradient id="linearGradient14183" x1="4.9426" x2="30.151" y1="20.047" y2="-6.2656" gradientUnits="userSpaceOnUse">
   <stop offset="0"/>
   <stop stop-opacity="0" offset="1"/>
  </linearGradient>
  <linearGradient id="linearGradient6242" x1="-1763.5" x2="-1763.5" y1="-37.889" y2="121.67" gradientUnits="userSpaceOnUse">
   <stop stop-color="#e6b800" offset="0"/>
   <stop stop-color="#fea" offset="1"/>
  </linearGradient>
 </defs>
 <metadata>
  <rdf:RDF>
   <cc:Work rdf:about="">
    <dc:format>image/svg+xml</dc:format>
    <dc:type rdf:resource="http://purl.org/dc/dcmitype/StillImage"/>
    <dc:title/>
   </cc:Work>
  </rdf:RDF>
 </metadata>
 <path d="M 23.932,12 A 11.932,11.932 0 0 1 12,23.932 11.932,11.932 0 0 1 0.068,12 11.932,11.932 0 0 1 12,0.068 11.932,11.932 0 0 1 23.932,12 Z" color="#000000" color-rendering="auto" fill="#fc0" fill-rule="evenodd" image-rendering="auto" shape-rendering="auto" solid-color="#000000" style="isolation:auto;mix-blend-mode:normal"/>
 <path d="m12.047 0.0058594c-6.6103-1e-7 -11.979 5.3682-11.979 11.979 0 6.6103 5.3682 11.979 11.979 11.979 6.6103 0 11.979-5.3682 11.979-11.979 0-6.6103-5.3682-11.979-11.979-11.979zm0 0.96289c6.0895 0 11.016 4.9261 11.016 11.016s-4.9261 11.016-11.016 11.016-11.016-4.9261-11.016-11.016c-1e-7 -6.0895 4.9261-11.016 11.016-11.016z" color="#000000" color-rendering="auto" fill="url(#linearGradient14183)" fill-rule="evenodd" image-rendering="auto" opacity=".096" shape-rendering="auto" solid-color="#000000" style="isolation:auto;mix-blend-mode:normal;text-decoration-color:#000000;text-decoration-line:none;text-decoration-style:solid;text-indent:0;text-transform:none;white-space:normal"/>
 <g transform="matrix(.028594 0 0 .028594 58.207 10.146)">
  <rect x="-1920.2" y="-169.04" width="614.63" height="238.29" rx="56.569" ry="56.569" fill="#fff" stroke="#000" stroke-linecap="round" stroke-width="65.885" style="paint-order:markers stroke fill"/>
  <rect x="-1879" y="-92.673" width="532.13" height="84.853" style="paint-order:markers stroke fill"/>
  <path d="m-1753.6-58.156h277.89l33.234 0.70711v443.33c0 18.412-14.822 33.234-33.234 33.234h-277.89c-18.412 0-33.234-14.822-33.234-33.234v-443.33z" fill="url(#linearGradient6242)" stroke="#000" stroke-linecap="round" stroke-width="65.885" style="paint-order:markers stroke fill"/>
  <rect x="-1731.7" y="-60.305" width="65.054" height="480.84" rx="0" ry="0" style="paint-order:markers stroke fill"/>
  <rect x="-1597" y="11.854" width="96.553" height="100.67" rx="20.456" ry="22.898" style="paint-order:markers stroke fill"/>
 </g>
</svg>
