<?xml version="1.0" encoding="UTF-8"?>
<svg width="24" height="24" version="1.1" viewBox="0 0 24 24" xmlns="http://www.w3.org/2000/svg" xmlns:cc="http://creativecommons.org/ns#" xmlns:dc="http://purl.org/dc/elements/1.1/" xmlns:rdf="http://www.w3.org/1999/02/22-rdf-syntax-ns#">
 <defs>
  <linearGradient id="linearGradient3061" x1="12.141" x2="12.141" y1="17.998" y2="23.256" gradientUnits="userSpaceOnUse">
   <stop stop-color="#9c9c9c" offset="0"/>
   <stop stop-color="#090909" offset="1"/>
  </linearGradient>
  <linearGradient id="linearGradient233" x1="11.827" x2="11.827" y1=".60943" y2="17.639" gradientUnits="userSpaceOnUse">
   <stop stop-color="#d8edef" offset="0"/>
   <stop stop-color="#fff" offset="1"/>
  </linearGradient>
 </defs>
 <metadata>
  <rdf:RDF>
   <cc:Work rdf:about="">
    <dc:format>image/svg+xml</dc:format>
    <dc:type rdf:resource="http://purl.org/dc/dcmitype/StillImage"/>
   </cc:Work>
  </rdf:RDF>
 </metadata>
 <circle cx="12" cy="12" r="11.932" color="#000000" color-rendering="auto" fill="url(#linearGradient233)" fill-rule="evenodd" image-rendering="auto" shape-rendering="auto" solid-color="#000000" style="isolation:auto;mix-blend-mode:normal"/>
 <path d="m22.484 17.703c-2.0231 3.7113-5.9595 6.2296-10.484 6.2296-4.526 0-8.4635-2.5199-10.486-6.2333z" color="#000000" color-rendering="auto" fill="url(#linearGradient3061)" fill-rule="evenodd" image-rendering="auto" shape-rendering="auto" solid-color="#000000" style="isolation:auto;mix-blend-mode:normal"/>
 <g transform="matrix(.29771 0 0 .29771 35.887 6.5046)">
  <path d="m-56.474 8.8714a14.397 14.397 0 0 0-14.334 14.397 14.397 14.397 0 0 0 14.397 14.397 14.397 14.397 0 0 0 14.397-14.397 14.397 14.397 0 0 0-14.397-14.397 14.397 14.397 0 0 0-0.0629 0zm0.0414 3.8322a10.565 10.565 0 0 1 0.0216 0 10.565 10.565 0 0 1 10.565 10.565 10.565 10.565 0 0 1-10.565 10.565 10.565 10.565 0 0 1-10.566-10.565 10.565 10.565 0 0 1 10.544-10.565z" fill="#333" stop-color="#000000" style="paint-order:stroke fill markers"/>
  <path d="m-104.17 8.8458a14.397 14.397 0 0 0-14.334 14.397 14.397 14.397 0 0 0 14.397 14.397 14.397 14.397 0 0 0 14.397-14.397 14.397 14.397 0 0 0-14.397-14.397 14.397 14.397 0 0 0-0.0626 0zm0.0414 3.8319a10.565 10.565 0 0 1 0.0213 0 10.565 10.565 0 0 1 10.566 10.565 10.565 10.565 0 0 1-10.566 10.566 10.565 10.565 0 0 1-10.565-10.566 10.565 10.565 0 0 1 10.544-10.565z" fill="#333" stop-color="#000000" style="paint-order:stroke fill markers"/>
  <path d="m-66.168-6.1618-3.9557 4.2197s-0.79511 0.78914-0.74154 1.4231c0.0536 0.63393 0.581 1.9516 0.581 1.9516l1.1084 2.7952-19.095 0.10547-1.8954-4.0073-3.2182-1.5833-1.6894 2.7433 2.3735 4.7989-11.496 14.768 1.7922 4.0084 23.314 5.2745 11.917-19.515 2.1096 5.3275s1.2692 2.1616 2.0603 3.0586c0.79115 0.897 4.0588 3.5868 4.0588 3.5868l2.6908 0.6859-0.10722-2.532-3.5848-4.6416-6.4365-17.721 4.1165-4.5358zm-25.424 14.715 7.8045 16.72-17.616-2.6897-0.52739-0.47523zm5.4344 0.36946 14.397 0.10548-7.8581 13.977z" fill="#4a0"/>
  <g fill="#333">
   <path d="m-99.599-5.3704h15.127s0.53156 0.0521 0.42442 0.68492c-0.10714 0.63277-2.5836 2.7488-2.5836 2.7488l-3.4819 2.2091-5.1178 1.5298s-0.20603 0.21208-1.4216-0.15761-4.3266-2.3213-4.8005-3.7978c-0.23884-0.74418-0.35322-1.45 0.0127-2.1772 0.42433-0.77537 0.96829-0.93114 1.8415-1.0399z"/>
   <circle cx="-80.069" cy="28.185" r="4.8484" stop-color="#000000" style="paint-order:stroke fill markers"/>
   <rect x="-76.633" y="-9.4599" width="16.262" height="3.4919" ry="1.2818" stop-color="#000000" style="paint-order:stroke fill markers"/>
  </g>
  <circle cx="-56.411" cy="23.269" r="3.1248" fill="#338000" stop-color="#000000" style="paint-order:stroke fill markers"/>
  <circle cx="-104.11" cy="23.243" r="3.1248" fill="#338000" stop-color="#000000" style="paint-order:stroke fill markers"/>
 </g>
 <g transform="matrix(1.0881 0 0 1.0881 -28.017 -17.158)">
  <ellipse cx="36.777" cy="30.595" rx="4.729" ry="4.664" fill="#fff" stop-color="#000000" style="paint-order:stroke fill markers"/>
  <g stroke-width=".022126">
   <path d="m33.878 33.685c-0.52226-0.49187-0.88666-1.0546-1.1179-1.7264-0.17568-0.51033-0.23669-0.93476-0.21891-1.523 0.01153-0.38626 0.04242-0.60712 0.12956-0.93032 0.39443-1.4632 1.5335-2.6148 2.9843-3.017 0.39509-0.10953 0.61654-0.13606 1.1284-0.1352 0.53104 8.87e-4 0.71766 0.02327 1.1108 0.13341 0.24275 0.06799 0.57077 0.1861 0.57077 0.20552 0 0.0081-0.16372 0.17825-0.36381 0.37807l-0.36382 0.36331-0.20769-0.04771c-0.49847-0.1145-1.0284-0.11163-1.5234 0.0081-1.1074 0.26813-1.9961 1.0935-2.3529 2.1852-0.11315 0.34614-0.15299 0.61238-0.15287 1.0214 1.56e-4 0.51133 0.08733 0.91407 0.29934 1.3827 0.14459 0.31962 0.4742 0.77319 0.73029 1.0049 0.07357 0.06654 0.13025 0.13075 0.12593 0.14261-0.01388 0.03811-0.51628 0.77655-0.52876 0.77712-0.0067 2.99e-4 -0.11881-0.10001-0.24928-0.2229z"/>
   <path d="m36.197 34.804c-0.31176-0.05006-0.55422-0.11066-0.82627-0.20657-0.13806-0.04861-0.25709-0.09459-0.26456-0.10205-0.0074-0.0071 0.15215-0.17928 0.35468-0.38182l0.36824-0.36824 0.21714 0.04989c0.61982 0.14241 1.2861 0.0998 1.8801-0.12021 1.0947-0.40546 1.8952-1.3664 2.1005-2.5215 0.05334-0.30011 0.05323-0.82935-2.21e-4 -1.1285-0.12507-0.70007-0.4925-1.3799-0.99444-1.84l-0.14099-0.12924 0.14139-0.19913c0.07778-0.10953 0.19844-0.2861 0.26816-0.3924 0.06972-0.10629 0.13464-0.19341 0.14428-0.1936 0.03174-6.35e-4 0.55949 0.53836 0.69074 0.70544 0.69223 0.88115 1.0121 2.0549 0.86372 3.1694-0.24201 1.8179-1.6364 3.2864-3.4444 3.6274-0.33023 0.06228-1.0597 0.07904-1.3581 0.03114z"/>
   <path d="m34.372 34.115c0.18301-0.26853 0.42366-0.62153 0.74874-1.0983 0.2799-0.41053 0.69987-1.0275 0.93327-1.3711l0.42436-0.62466-1.8841-0.02202 2.9146-2.8986c0.46167-0.45913 0.89962-0.89464 1.2894-1.2822l0.3587 0.25856c-0.07885 0.11563-0.16215 0.23777-0.2501 0.36672-0.22982 0.33696-0.55979 0.82175-0.73325 1.0773-0.17346 0.25556-0.4788 0.70362-0.67854 0.99569l-0.36316 0.53104 1.921 0.02202-2.1984 2.1876c-0.73725 0.73363-1.5237 1.516-2.1228 2.1118z" fill="#217821"/>
  </g>
 </g>
</svg>
