<?xml version="1.0" encoding="UTF-8" standalone="no"?>
<svg
   width="24"
   height="24"
   version="1.1"
   viewBox="0 0 24 24"
   id="svg40"
   sodipodi:docname="E-CargoBike0.svg"
   inkscape:version="1.1 (1:1.1+rc+202105241046+c4e8f9ed74)"
   xmlns:inkscape="http://www.inkscape.org/namespaces/inkscape"
   xmlns:sodipodi="http://sodipodi.sourceforge.net/DTD/sodipodi-0.dtd"
   xmlns="http://www.w3.org/2000/svg"
   xmlns:svg="http://www.w3.org/2000/svg"
   xmlns:rdf="http://www.w3.org/1999/02/22-rdf-syntax-ns#"
   xmlns:cc="http://creativecommons.org/ns#"
   xmlns:dc="http://purl.org/dc/elements/1.1/">
  <sodipodi:namedview
     id="namedview42"
     pagecolor="#ffffff"
     bordercolor="#666666"
     borderopacity="1.0"
     inkscape:pageshadow="2"
     inkscape:pageopacity="0.0"
     inkscape:pagecheckerboard="0"
     showgrid="false"
     inkscape:snap-global="false"
     inkscape:zoom="16"
     inkscape:cx="6.65625"
     inkscape:cy="8.3125"
     inkscape:window-width="1920"
     inkscape:window-height="968"
     inkscape:window-x="0"
     inkscape:window-y="0"
     inkscape:window-maximized="1"
     inkscape:current-layer="g3022" />
  <defs
     id="defs12">
    <linearGradient
       id="linearGradient3061"
       x1="12.141"
       x2="12.141"
       y1="17.998"
       y2="23.256"
       gradientUnits="userSpaceOnUse">
      <stop
         stop-color="#9c9c9c"
         offset="0"
         id="stop2" />
      <stop
         stop-color="#090909"
         offset="1"
         id="stop4" />
    </linearGradient>
    <linearGradient
       id="linearGradient233"
       x1="11.827"
       x2="11.827"
       y1=".60943"
       y2="17.639"
       gradientUnits="userSpaceOnUse">
      <stop
         stop-color="#d8edef"
         offset="0"
         id="stop7" />
      <stop
         stop-color="#fff"
         offset="1"
         id="stop9" />
    </linearGradient>
    <inkscape:path-effect
       effect="fill_between_many"
       method="originald"
       linkedpaths="#path325,0,1|"
       id="path-effect621"
       join="true"
       close="true"
       autoreverse="true" />
    <linearGradient
       id="linearGradient3061-3"
       x1="12.141"
       x2="12.141"
       y1="17.998"
       y2="23.256"
       gradientUnits="userSpaceOnUse">
      <stop
         stop-color="#c2c2c2"
         offset="0"
         id="stop1310" />
      <stop
         stop-color="#5c5c5c"
         offset="1"
         id="stop1312" />
    </linearGradient>
    <linearGradient
       id="linearGradient233-6"
       x1="11.827"
       x2="11.827"
       y1=".60943"
       y2="17.639"
       gradientUnits="userSpaceOnUse">
      <stop
         stop-color="#e3e3e3"
         offset="0"
         id="stop1315" />
      <stop
         stop-color="#fff"
         offset="1"
         id="stop1317" />
    </linearGradient>
  </defs>
  <metadata
     id="metadata14">
    <rdf:RDF>
      <cc:Work
         rdf:about="">
        <dc:format>image/svg+xml</dc:format>
        <dc:type
           rdf:resource="http://purl.org/dc/dcmitype/StillImage" />
      </cc:Work>
    </rdf:RDF>
  </metadata>
  <circle
     cx="12"
     cy="12"
     r="11.932"
     color="#000000"
     color-rendering="auto"
     fill="url(#linearGradient233)"
     fill-rule="evenodd"
     image-rendering="auto"
     shape-rendering="auto"
     solid-color="#000000"
     style="isolation:auto;mix-blend-mode:normal;font-variation-settings:normal;opacity:1;vector-effect:none;fill:url(#linearGradient233-6);fill-opacity:1;stroke-width:1;stroke-linecap:butt;stroke-linejoin:miter;stroke-miterlimit:4;stroke-dasharray:none;stroke-dashoffset:0;stroke-opacity:1;-inkscape-stroke:none;stop-color:#000000;stop-opacity:1"
     id="circle16" />
  <path
     d="m22.484 17.703c-2.0231 3.7113-5.9595 6.2296-10.484 6.2296-4.526 0-8.4635-2.5199-10.486-6.2333z"
     color="#000000"
     color-rendering="auto"
     fill="url(#linearGradient3061)"
     fill-rule="evenodd"
     image-rendering="auto"
     shape-rendering="auto"
     solid-color="#000000"
     style="isolation:auto;mix-blend-mode:normal;font-variation-settings:normal;opacity:1;vector-effect:none;fill:url(#linearGradient3061-3);fill-opacity:1;stroke-width:1;stroke-linecap:butt;stroke-linejoin:miter;stroke-miterlimit:4;stroke-dasharray:none;stroke-dashoffset:0;stroke-opacity:1;-inkscape-stroke:none;stop-color:#000000;stop-opacity:1"
     id="path18" />
  <g
     id="g3022"
     transform="translate(30.358574,-8.9882515)">
    <path
       id="path1118"
       style="fill:#999999;stroke:none;stroke-width:1px;stroke-linecap:butt;stroke-linejoin:miter;stroke-opacity:1;fill-opacity:1"
       d="m -18.700195,10.739257 -0.94922,0.386719 2.806642,10.550782 h -1.326172 l -4.828126,-7.015625 -0.80664,-0.375 -0.796875,0.375 0.685547,1.005859 -2.292969,6.939453 7.535156,0.595703 1.111329,-0.02148 2.113281,-0.03516 c -0.04084,-0.237612 -0.0625,-0.483153 -0.0625,-0.732422 -2.3e-5,-2.35986 1.907741,-4.274829 4.267578,-4.285156 0.0062,-1.4e-5 0.01333,-1.4e-5 0.01953,0 2.3149893,0 4.1992197,1.835891 4.2812503,4.130859 0.080622,-0.137996 0.1425781,-0.25 0.1425781,-0.25 l 0.021484,-3.423828 c 1e-7,0 0.033557,-0.398299 -0.1875,-0.619141 -0.2210567,-0.220842 -0.5859374,-0.24414 -0.5859374,-0.24414 l -9.357422,-2.13086 -1.017578,-3.767578 z m -4.441407,6.150391 3.125,4.84375 -4.828125,0.140625 z" />
    <circle
       cx="-18.687744"
       cy="22.453247"
       r="1.4434172"
       stop-color="#000000"
       style="fill:#666666;stroke-width:0.29771;paint-order:stroke fill markers;fill-opacity:1"
       id="circle946-2" />
    <circle
       style="fill:#999999;stroke:none;-inkscape-stroke:none;paint-order:fill markers stroke;stop-color:#000000;fill-opacity:1"
       id="path1757"
       cx="-25.758911"
       cy="22.444092"
       r="0.87493896" />
    <circle
       style="fill:#999999;stroke:none;-inkscape-stroke:none;paint-order:fill markers stroke;stop-color:#000000;fill-opacity:1"
       id="path1757-3"
       cx="-11.269912"
       cy="22.434942"
       r="0.87493896" />
    <path
       d="m -25.804555,18.170741 c -2.359837,0.01033 -4.267398,1.926272 -4.267375,4.286131 0,2.367165 1.918966,4.286131 4.286131,4.286131 2.367165,0 4.286131,-1.918966 4.286131,-4.286131 0,-2.367165 -1.918966,-4.286131 -4.286131,-4.286131 -0.0062,-1.3e-5 -0.01243,-1.3e-5 -0.01864,0 z m 0.01364,1.781783 c 0.0017,-2e-6 0.0033,-2e-6 0.005,0 1.383206,-1.31e-4 2.504586,1.121143 2.504585,2.504349 1.3e-4,1.383298 -1.121287,2.50465 -2.504585,2.504585 -1.383206,-6.5e-5 -2.504479,-1.121379 -2.504349,-2.504585 -3e-6,-1.381172 1.118202,-2.501604 2.499371,-2.504349 z"
       fill="#333333"
       stop-color="#000000"
       style="stroke-width:0.29771;paint-order:stroke fill markers;fill:#666666;fill-opacity:1"
       id="path940-6"
       sodipodi:nodetypes="scsscsscccsccc" />
    <path
       d="m -25.485032,13.135534 h 4.662984 c 0,0 0.163854,0.01606 0.130826,0.211131 -0.03303,0.195055 -0.796407,0.847332 -0.796407,0.847332 l -1.073319,0.680968 -1.577589,0.471569 c 0,0 -0.06347,0.06538 -0.438212,-0.04858 -0.374709,-0.11396 -1.333696,-0.715553 -1.479785,-1.170693 -0.07362,-0.229398 -0.108873,-0.446971 0.0041,-0.671133 0.130805,-0.239013 0.298481,-0.28703 0.567662,-0.320556 z"
       id="path944-5"
       style="fill:#666666;stroke-width:0.308255;fill-opacity:1" />
    <rect
       x="-19.794214"
       y="10.729725"
       width="4.8413596"
       height="1.0395736"
       ry="0.3816047"
       stop-color="#000000"
       style="fill:#666666;stroke-width:0.29771;paint-order:stroke fill markers;fill-opacity:1"
       id="rect948-6" />
    <path
       inkscape:original-d="M 0,0"
       inkscape:path-effect="#path-effect621"
       d="m -16.936037,15.591544 9.3574212,2.130861 c 0,0 0.364881,0.0233 0.585937,0.24414 0.22106,0.220842 0.1875,0.619141 0.1875,0.619141 l -0.02148,3.423828 c 0,0 -0.061958,0.112003 -0.142578,0.25 -0.08203,-2.294969 -1.966261,-4.130859 -4.2812492,-4.130859 -0.0062,-1.4e-5 -0.01333,-1.4e-5 -0.01953,0 0,0 -1.04492,-0.08344 -2.316712,0.713463 -1.161941,0.728074 -1.719549,2.218887 -1.719549,2.218887 l -0.836603,-2.645153 z"
       id="path623" />
    <path
       id="path325"
       style="fill:#b3b3b3;stroke:none;stroke-width:1px;stroke-linecap:butt;stroke-linejoin:miter;stroke-opacity:1;fill-opacity:1"
       d="m -16.936037,15.591544 9.3574212,2.130861 c 0,0 0.364881,0.0233 0.585937,0.24414 0.22106,0.220842 0.1875,0.619141 0.1875,0.619141 l -0.02148,3.423828 c 0,0 -0.061958,0.112003 -0.142578,0.25 -0.08203,-2.294969 -1.966261,-4.130859 -4.2812492,-4.130859 -0.0062,-1.4e-5 -0.01333,-1.4e-5 -0.01953,0 0,0 -1.04492,-0.08344 -2.316712,0.713463 -1.161941,0.728074 -1.719549,2.218887 -1.719549,2.218887 l -0.836603,-2.645153 z"
       sodipodi:nodetypes="ccscccccsccc" />
    <path
       d="m -11.257113,18.123866 c -2.359837,0.01033 -4.267398,1.926272 -4.267375,4.286131 0,2.367165 1.918966,4.286131 4.286131,4.286131 2.3671657,0 4.2861317,-1.918966 4.2861317,-4.286131 0,-2.367165 -1.918966,-4.286131 -4.2861317,-4.286131 -0.0062,-1.3e-5 -0.01243,-1.3e-5 -0.01864,0 z m 0.01364,1.781783 c 0.0017,-2e-6 0.0033,-2e-6 0.005,0 1.3832067,-1.31e-4 2.5045867,1.121143 2.5045857,2.504349 1.3e-4,1.383298 -1.121287,2.50465 -2.5045857,2.504585 -1.383206,-6.5e-5 -2.504479,-1.121379 -2.504349,-2.504585 -3e-6,-1.381172 1.118202,-2.501604 2.499371,-2.504349 z"
       fill="#333333"
       stop-color="#000000"
       style="stroke-width:0.29771;paint-order:stroke fill markers;fill:#666666;fill-opacity:1"
       id="path940-6-5"
       sodipodi:nodetypes="scsscsscccsccc" />
  </g>
</svg>
