<?xml version="1.0" encoding="UTF-8"?>
<svg width="24" height="24" version="1.1" viewBox="0 0 24 24" xmlns="http://www.w3.org/2000/svg" xmlns:cc="http://creativecommons.org/ns#" xmlns:dc="http://purl.org/dc/elements/1.1/" xmlns:rdf="http://www.w3.org/1999/02/22-rdf-syntax-ns#">
 <defs>
  <linearGradient id="linearGradient3061" x1="12.141" x2="12.141" y1="17.998" y2="23.256" gradientUnits="userSpaceOnUse">
   <stop stop-color="#9c9c9c" offset="0"/>
   <stop stop-color="#090909" offset="1"/>
  </linearGradient>
  <linearGradient id="linearGradient233-2" x1="11.827" x2="11.827" y1=".60943" y2="17.639" gradientTransform="translate(-24.251 1.2493)" gradientUnits="userSpaceOnUse">
   <stop stop-color="#e3e3e3" offset="0"/>
   <stop stop-color="#fff" offset="1"/>
  </linearGradient>
 </defs>
 <metadata>
  <rdf:RDF>
   <cc:Work rdf:about="">
    <dc:format>image/svg+xml</dc:format>
    <dc:type rdf:resource="http://purl.org/dc/dcmitype/StillImage"/>
   </cc:Work>
  </rdf:RDF>
 </metadata>
 <circle cx="12" cy="12" r="11.932" color="#000000" color-rendering="auto" fill="url(#linearGradient233-2)" fill-rule="evenodd" image-rendering="auto" shape-rendering="auto" solid-color="#000000" stop-color="#000000" style="-inkscape-stroke:none;font-variation-settings:normal;isolation:auto;mix-blend-mode:normal"/>
 <path d="m22.484 17.703c-2.0231 3.7113-5.9595 6.2296-10.484 6.2296-4.526 0-8.4635-2.5199-10.486-6.2333z" color="#000000" color-rendering="auto" fill="url(#linearGradient3061)" fill-rule="evenodd" image-rendering="auto" shape-rendering="auto" solid-color="#000000" style="isolation:auto;mix-blend-mode:normal"/>
 <g transform="translate(0 -1.1246)">
  <path d="m4.7755 11.143 1.4217-2.5654 1.7-0.86556 5.75 0.061705 3.5238 3.6475z" fill="#f1f1f1"/>
  <g transform="matrix(-.019471 0 0 .019471 -2.2542 13.679)">
   <path d="m-1005.2-131.91-222.38 30.457c-50.891 6.97-92.721 41.352-92.721 92.719v77.602c0 47.719 2.7244 115.54 66.475 124.5-3.3439-12.27-5.164-25.171-5.164-38.501 0-80.697 65.418-146.11 146.11-146.11 0.2124-4.66e-4 0.6385 0 0.6385 0v0s144.34-2.4235 145.47 146.11c0.1045 13.741-1.9383 27.024-5.4845 39.631l455.52-1.7768c-3.4866-12.38-5.482-25.387-5.482-38.882 1e-5 -79.152 64.166-143.32 143.32-143.32 0.2083-4.57e-4 0.41803-4.57e-4 0.62633 0 78.907 0.34531 142.69 64.41 142.69 143.32 0 12.889-1.8588 25.317-5.0493 37.199 60.792-9.8483 72.005-66.172 72.005-120.76v-91.621c0-60.647-48.824-109.38-109.47-109.47z" fill="#1e1e1e" stop-color="#000000" stroke-linecap="round" stroke-width="3.0772" style="paint-order:fill markers stroke"/>
   <path d="m-1009.4-132.22 162.26-172.08s12.623-8.3882 26.596-16.782c13.973-8.3937 53.155-8.3937 53.155-8.3937l286.77 1.4099s71.357 11.181 124.51 58.739c53.155 47.559 64.346 139.89 64.346 139.89h-103.53s4.2242-53.138-44.755-103.51c-48.98-50.373-103.53-61.554-103.53-61.554l-230.83-4.1968s-22.378-4.2242-46.149 11.181-155.29 159.49-155.29 159.49z" fill="#1e1e1e" stroke="#000" stroke-width="1px"/>
   <g transform="matrix(-9.1297 0 0 9.1297 -2147.6 391.62)">
    <ellipse transform="matrix(-5.7733 0 0 5.7733 -81.095 -126.1)" cx="19.492" cy="17.192" rx="1.4766" ry="1.4223" fill="#fff" stop-color="#000000" style="paint-order:fill markers stroke"/>
    <g transform="translate(-89.412 .37646)">
     <path d="m-104.39-40.101c-7.0839 0.031-12.81 5.7824-12.81 12.866 0 7.1059 5.7605 12.866 12.866 12.866 7.1059 1e-6 12.866-5.7605 12.866-12.866-1e-6 -7.1059-5.7605-12.866-12.866-12.866-0.0187-4.1e-5 -0.0375-4.1e-5 -0.0562 0zm0.0402 5.0414c5e-3 0 0.0106-5e-6 0.0159 0 4.3218-1e-6 7.8252 3.5035 7.8252 7.8252s-3.5035 7.8252-7.8252 7.8252c-4.322 4.04e-4 -7.826-3.5032-7.826-7.8252-1e-5 -4.3157 3.494-7.8252 7.8097-7.8252z" fill="#333" stop-color="#000000" stroke-width=".89369" style="paint-order:stroke fill markers"/>
     <circle cx="-104.27" cy="-27.172" r="4.3523" fill="#1e1e1e" stop-color="#000000" style="paint-order:fill markers stroke"/>
    </g>
   </g>
   <g transform="matrix(-9.1297 0 0 9.1297 -2881 392.11)">
    <ellipse transform="matrix(-5.7733 0 0 5.7733 -81.095 -126.1)" cx="19.492" cy="17.192" rx="1.4766" ry="1.4223" fill="#fff" stop-color="#000000" style="paint-order:fill markers stroke"/>
    <g transform="translate(-89.412 .37646)">
     <path d="m-104.39-40.101c-7.0839 0.031-12.81 5.7824-12.81 12.866 0 7.1059 5.7605 12.866 12.866 12.866 7.1059 1e-6 12.866-5.7605 12.866-12.866-1e-6 -7.1059-5.7605-12.866-12.866-12.866-0.0187-4.1e-5 -0.0375-4.1e-5 -0.0562 0zm0.0402 5.0414c5e-3 0 0.0106-5e-6 0.0159 0 4.3218-1e-6 7.8252 3.5035 7.8252 7.8252s-3.5035 7.8252-7.8252 7.8252c-4.322 4.04e-4 -7.826-3.5032-7.826-7.8252-1e-5 -4.3157 3.494-7.8252 7.8097-7.8252z" fill="#333" stop-color="#000000" stroke-width=".89369" style="paint-order:stroke fill markers"/>
     <circle cx="-104.27" cy="-27.172" r="4.3523" fill="#1e1e1e" stop-color="#000000" style="paint-order:fill markers stroke"/>
    </g>
   </g>
  </g>
  <path d="m17.333 11.089 4.3301 0.59304c0.99093 0.13572 1.8054 0.80519 1.8054 1.8054l-6.1813-0.06771c-1.5233-0.10669-1.5122-0.1165-1.5458 1.3326l-0.05626 2.4224-7.0841-0.0056 0.011125-2.7259c0.10806-1.2476-0.058284-1.1191-1.2169-1.1318l-6.3518-0.06958c0-1.1809 0.95068-2.1298 2.1316-2.1316z" fill="#999" stop-color="#000000" stroke-linecap="round" stroke-width="3.0772" style="paint-order:fill markers stroke"/>
 </g>
 <rect x="21.445" y="11.648" width="2.0155" height="1.9999" ry=".54703" fill="#fff" stop-color="#000000" style="paint-order:fill markers stroke"/>
 <rect x="1.0081" y="12.406" width="1.4529" height="1.4684" ry=".40165" fill="#fff" stop-color="#000000" style="paint-order:fill markers stroke"/>
 <g transform="matrix(1.0881 0 0 1.0881 -28.017 -17.163)">
  <ellipse cx="36.777" cy="30.595" rx="4.729" ry="4.664" fill="#fff" stop-color="#000000" style="paint-order:stroke fill markers"/>
  <g stroke-width=".022126">
   <path d="m33.878 33.685c-0.52226-0.49187-0.88666-1.0546-1.1179-1.7264-0.17568-0.51033-0.23669-0.93476-0.21891-1.523 0.01153-0.38626 0.04242-0.60712 0.12956-0.93032 0.39443-1.4632 1.5335-2.6148 2.9843-3.017 0.39509-0.10953 0.61654-0.13606 1.1284-0.1352 0.53104 8.87e-4 0.71766 0.02327 1.1108 0.13341 0.24275 0.06799 0.57077 0.1861 0.57077 0.20552 0 0.0081-0.16372 0.17825-0.36381 0.37807l-0.36382 0.36331-0.20769-0.04771c-0.49847-0.1145-1.0284-0.11163-1.5234 0.0081-1.1074 0.26813-1.9961 1.0935-2.3529 2.1852-0.11315 0.34614-0.15299 0.61238-0.15287 1.0214 1.56e-4 0.51133 0.08733 0.91407 0.29934 1.3827 0.14459 0.31962 0.4742 0.77319 0.73029 1.0049 0.07357 0.06654 0.13025 0.13075 0.12593 0.14261-0.01388 0.03811-0.51628 0.77655-0.52876 0.77712-0.0067 2.99e-4 -0.11881-0.10001-0.24928-0.2229z"/>
   <path d="m36.197 34.804c-0.31176-0.05006-0.55422-0.11066-0.82627-0.20657-0.13806-0.04861-0.25709-0.09459-0.26456-0.10205-0.0074-0.0071 0.15215-0.17928 0.35468-0.38182l0.36824-0.36824 0.21714 0.04989c0.61982 0.14241 1.2861 0.0998 1.8801-0.12021 1.0947-0.40546 1.8952-1.3664 2.1005-2.5215 0.05334-0.30011 0.05323-0.82935-2.21e-4 -1.1285-0.12507-0.70007-0.4925-1.3799-0.99444-1.84l-0.14099-0.12924 0.14139-0.19913c0.07778-0.10953 0.19844-0.2861 0.26816-0.3924 0.06972-0.10629 0.13464-0.19341 0.14428-0.1936 0.03174-6.35e-4 0.55949 0.53836 0.69074 0.70544 0.69223 0.88115 1.0121 2.0549 0.86372 3.1694-0.24201 1.8179-1.6364 3.2864-3.4444 3.6274-0.33023 0.06228-1.0597 0.07904-1.3581 0.03114z"/>
   <path d="m34.372 34.115c0.18301-0.26853 0.42366-0.62153 0.74874-1.0983 0.2799-0.41053 0.69987-1.0275 0.93327-1.3711l0.42436-0.62466-1.8841-0.02202 2.9146-2.8986c0.46167-0.45913 0.89962-0.89464 1.2894-1.2822l0.3587 0.25856c-0.07885 0.11563-0.16215 0.23777-0.2501 0.36672-0.22982 0.33696-0.55979 0.82175-0.73325 1.0773-0.17346 0.25556-0.4788 0.70362-0.67854 0.99569l-0.36316 0.53104 1.921 0.02202-2.1984 2.1876c-0.73725 0.73363-1.5237 1.516-2.1228 2.1118z" fill="#999"/>
  </g>
 </g>
</svg>
