<?xml version="1.0" encoding="UTF-8"?>
<svg width="24" height="24" version="1.1" viewBox="0 0 24 24" xmlns="http://www.w3.org/2000/svg" xmlns:cc="http://creativecommons.org/ns#" xmlns:dc="http://purl.org/dc/elements/1.1/" xmlns:rdf="http://www.w3.org/1999/02/22-rdf-syntax-ns#">
 <defs>
  <linearGradient id="linearGradient3061" x1="12.141" x2="12.141" y1="17.998" y2="23.256" gradientUnits="userSpaceOnUse">
   <stop stop-color="#9c9c9c" offset="0"/>
   <stop stop-color="#090909" offset="1"/>
  </linearGradient>
  <linearGradient id="linearGradient233" x1="11.827" x2="11.827" y1=".60943" y2="17.639" gradientUnits="userSpaceOnUse">
   <stop stop-color="#d8edef" offset="0"/>
   <stop stop-color="#fff" offset="1"/>
  </linearGradient>
 </defs>
 <metadata>
  <rdf:RDF>
   <cc:Work rdf:about="">
    <dc:format>image/svg+xml</dc:format>
    <dc:type rdf:resource="http://purl.org/dc/dcmitype/StillImage"/>
   </cc:Work>
  </rdf:RDF>
 </metadata>
 <circle cx="12" cy="12" r="11.932" color="#000000" color-rendering="auto" fill="url(#linearGradient233)" fill-rule="evenodd" image-rendering="auto" shape-rendering="auto" solid-color="#000000" style="isolation:auto;mix-blend-mode:normal"/>
 <path d="m22.484 17.703c-2.0231 3.7113-5.9595 6.2296-10.484 6.2296-4.526 0-8.4635-2.5199-10.486-6.2333z" color="#000000" color-rendering="auto" fill="url(#linearGradient3061)" fill-rule="evenodd" image-rendering="auto" shape-rendering="auto" solid-color="#000000" style="isolation:auto;mix-blend-mode:normal"/>
 <g transform="matrix(-.1506 0 0 .1506 -10.677 19.722)">
  <g transform="translate(-1.9467 14.411)" fill="#333" stroke-linecap="round">
   <path d="m-170.94-120.7h12.926c0.85891 0 1.5504 0.69147 1.5504 1.5504s-0.69146 1.5504-1.5504 1.5504h-12.926c-0.85891 0-1.5504-0.69146-1.5504-1.5504s0.69147-1.5504 1.5504-1.5504z" color="#000000" stroke-width="2.8003" style="-inkscape-stroke:none;paint-order:fill markers stroke"/>
   <path d="m-170.94-122.1c-1.6104 0-2.9492 1.3408-2.9492 2.9512s1.3388 2.9512 2.9492 2.9512h12.928c1.6104 0 2.9492-1.3408 2.9492-2.9512s-1.3389-2.9512-2.9492-2.9512zm0 2.8008h12.928c0.10745 0 0.15039 0.0429 0.15039 0.1504 0 0.10745-0.0429 0.15039-0.15039 0.15039h-12.928c-0.10745 0-0.15039-0.0429-0.15039-0.15039 0-0.10746 0.0429-0.1504 0.15039-0.1504z" color="#000000" style="-inkscape-stroke:none;paint-order:fill markers stroke"/>
  </g>
  <path transform="rotate(10.592)" d="m-194.39-72.489c1.088 0 1.9763 0.87597 1.9639 1.9639l-0.47678 41.883c-0.0124 1.0879-0.8759 1.9639-1.9639 1.9639s-1.9763-0.87597-1.9639-1.9639l0.47678-41.883c0.0124-1.0879 0.8759-1.9639 1.9639-1.9639z" fill="#333" stop-color="#000000" style="paint-order:fill markers stroke"/>
  <path d="m-105.72-45.908c-3.2275 0.11209-7.2588 0.80644-10.189 3.5605-5.4632 5.1341-7.4316 13.156-7.4316 13.156a1.5 1.5 0 0 0 1.0781 1.8262 1.5 1.5 0 0 0 1.8281-1.0781s2.0191-7.4344 6.5781-11.719c2.0804-1.9551 5.3849-2.6489 8.2402-2.748 2.8554-0.09917 5.1113 0.34961 5.1113 0.34961a1.5 1.5 0 0 0 1.7637-1.1777 1.5 1.5 0 0 0-1.1758-1.7637s-2.5753-0.51834-5.8027-0.40625z" color="#000000" fill="#800000" stroke-linecap="round" style="-inkscape-stroke:none"/>
  <path d="m-187.22-65.633c-1.2943 0.0065-2.443 0.91727-2.7051 2.2383l-3.8125 19.219c-0.29952 1.5097 0.67386 2.9661 2.1836 3.2656l1.1016 0.21875c1.5097 0.29952 2.9661-0.67582 3.2656-2.1855l1.248-6.2949c4.5895 9.1641 10.424 20.811 11.236 22.436 0.81676 1.6335 2.2335 2.3719 3.4141 2.791 1.1806 0.41913 2.3201 0.57325 3.3691 0.6543 1.8827 0.14545 3.3665 0.0148 3.6895-0.01563l45.299-0.01758-4e-3 -6.1016-45.51 0.01953-0.15039 0.01367s-1.4098 0.13107-2.8535 0.01953c-0.72189-0.05577-1.4289-0.1883-1.8008-0.32031-0.12103-0.04297-0.11734-0.04902-0.14258-0.06445-1.2909-2.581-12.133-24.225-14.611-29.172l0.62891-3.166c0.29951-1.5097-0.67582-2.9661-2.1856-3.2656l-1.0996-0.2168c-0.18872-0.03744-0.37565-0.05561-0.56055-0.05469z" color="#000000" fill="#f00" style="-inkscape-stroke:none"/>
  <circle cx="-178.08" cy="-105.09" r="4.5288" fill="#f00" stop-color="#000000" stroke="#f00" stroke-linecap="round" stroke-width="3" style="paint-order:fill markers stroke"/>
  <g transform="translate(0 .37646)">
   <path d="m-104.39-40.101c-7.0839 0.031-12.81 5.7824-12.81 12.866 0 7.1059 5.7605 12.866 12.866 12.866 7.1059 1e-6 12.866-5.7605 12.866-12.866-1e-6 -7.1059-5.7605-12.866-12.866-12.866-0.0187-4.1e-5 -0.0375-4.1e-5 -0.0562 0zm0.0402 5.0414c5e-3 0 0.0106-5e-6 0.0159 0 4.3218-1e-6 7.8252 3.5035 7.8252 7.8252s-3.5035 7.8252-7.8252 7.8252c-4.322 4.04e-4 -7.826-3.5032-7.826-7.8252-1e-5 -4.3157 3.494-7.8252 7.8097-7.8252z" fill="#333" stop-color="#000000" stroke-width=".89369" style="paint-order:stroke fill markers"/>
   <circle cx="-104.27" cy="-27.172" r="4.3523" fill="#800000" stop-color="#000000" style="paint-order:fill markers stroke"/>
  </g>
  <g transform="translate(-89.412 .37646)">
   <path d="m-104.39-40.101c-7.0839 0.031-12.81 5.7824-12.81 12.866 0 7.1059 5.7605 12.866 12.866 12.866 7.1059 1e-6 12.866-5.7605 12.866-12.866-1e-6 -7.1059-5.7605-12.866-12.866-12.866-0.0187-4.1e-5 -0.0375-4.1e-5 -0.0562 0zm0.0402 5.0414c5e-3 0 0.0106-5e-6 0.0159 0 4.3218-1e-6 7.8252 3.5035 7.8252 7.8252s-3.5035 7.8252-7.8252 7.8252c-4.322 4.04e-4 -7.826-3.5032-7.826-7.8252-1e-5 -4.3157 3.494-7.8252 7.8097-7.8252z" fill="#333" stop-color="#000000" stroke-width=".89369" style="paint-order:stroke fill markers"/>
   <circle cx="-104.27" cy="-27.172" r="4.3523" fill="#800000" stop-color="#000000" style="paint-order:fill markers stroke"/>
  </g>
 </g>
</svg>
