<?xml version="1.0" encoding="UTF-8"?>
<!-- Created with Inkscape (http://www.inkscape.org/) -->
<svg width="24" height="24" version="1.1" viewBox="0 0 24 24" xmlns="http://www.w3.org/2000/svg" xmlns:cc="http://creativecommons.org/ns#" xmlns:dc="http://purl.org/dc/elements/1.1/" xmlns:rdf="http://www.w3.org/1999/02/22-rdf-syntax-ns#">
 <defs>
  <radialGradient id="radialGradient14151" cx="6.3932" cy="15.165" r="11.932" gradientTransform="matrix(1.4121 -1.1046 1.0703 1.3683 -14.652 5.1167)" gradientUnits="userSpaceOnUse">
   <stop stop-color="#fed501" stop-opacity=".99608" offset="0"/>
   <stop stop-color="#fee666" stop-opacity=".99608" offset="1"/>
  </radialGradient>
  <linearGradient id="linearGradient14183" x1="4.9426" x2="30.151" y1="20.047" y2="-6.2656" gradientUnits="userSpaceOnUse">
   <stop offset="0"/>
   <stop stop-opacity="0" offset="1"/>
  </linearGradient>
 </defs>
 <metadata>
  <rdf:RDF>
   <cc:Work rdf:about="">
    <dc:format>image/svg+xml</dc:format>
    <dc:type rdf:resource="http://purl.org/dc/dcmitype/StillImage"/>
    <dc:title/>
   </cc:Work>
  </rdf:RDF>
 </metadata>
 <g fill-rule="evenodd" shape-rendering="auto">
  <path d="m23.932 12a11.932 11.932 0 0 1-11.932 11.932 11.932 11.932 0 0 1-11.932-11.932 11.932 11.932 0 0 1 11.932-11.932 11.932 11.932 0 0 1 11.932 11.932z" color="#000000" color-rendering="auto" fill="url(#radialGradient14151)" image-rendering="auto" solid-color="#000000" style="isolation:auto;mix-blend-mode:normal"/>
  <path d="m12.047 0.0058594c-6.6103-1e-7 -11.979 5.3682-11.979 11.979 0 6.6103 5.3682 11.979 11.979 11.979 6.6103 0 11.979-5.3682 11.979-11.979 0-6.6103-5.3682-11.979-11.979-11.979zm0 0.96289c6.0895 0 11.016 4.9261 11.016 11.016s-4.9261 11.016-11.016 11.016-11.016-4.9261-11.016-11.016c-1e-7 -6.0895 4.9261-11.016 11.016-11.016z" color="#000000" color-rendering="auto" fill="url(#linearGradient14183)" image-rendering="auto" opacity=".096" solid-color="#000000" style="block-progression:tb;isolation:auto;mix-blend-mode:normal;text-decoration-color:#000000;text-decoration-line:none;text-decoration-style:solid;text-indent:0;text-transform:none;white-space:normal"/>
 </g>
 <g transform="matrix(.11815 0 0 .12474 -1.2848 5.5307)">
  <path d="m124.13 96.25h13.774c12.825 0 14.133-0.17899 18.985-2.5967 3.8686-1.9278 5.9154-3.7953 7.9463-7.25 2.6917-4.5788 2.7407-4.9675 3.0589-24.264l0.32339-19.61-3.9025-0.62403c-5.2531-0.84-10.236-4.3707-12.963-9.1846-1.9421-3.429-2.251-5.4363-2.2652-14.72l-0.0165-10.75h8v-6.8c0-7.4369 0.95823-9.2 5-9.2s5 1.7631 5 9.2v6.8h10.774l0.39885-7.0587c0.42645-7.5471 1.3163-8.8986 5.8768-8.926 3.9855-0.02393 4.95 1.7657 4.95 9.1847v6.8h8v10.184c0 8.1991-0.3967 11.004-2.0352 14.388-2.2293 4.6052-7.6772 8.8692-12.646 9.8975l-3.1807 0.65834-0.31927 21.686c-0.29985 20.367-0.45878 21.947-2.6126 25.981-3.6911 6.9129-8.7089 11.707-15.445 14.755-5.7971 2.6236-7.3936 2.8658-21.512 3.2634l-15.25 0.42954"/>
  <g transform="matrix(1.5135 0 0 1.2584 -324.3 -129.44)">
   <path d="m248.59 204.03c-1.5137-0.38373-3.0263-2.1165-3.4102-3.9065-0.18273-0.85199-0.23635-13.985-0.1854-45.414l0.0717-44.215 0.59915-1.1642c0.36243-0.70425 0.99558-1.443 1.6026-1.87l1.0034-0.70574 12.508-0.23453 0.11789-3.4007c0.13071-3.7709 0.3015-4.3181 1.7425-5.5834 1.3297-1.1675 1.9922-1.2557 8.8286-1.1746l6.2328 0.07386 0.96603 0.63971c0.53131 0.35184 1.2621 1.1434 1.6239 1.759 0.62327 1.0603 0.66217 1.2948 0.73832 4.4504l0.0804 3.3311 12.113 0.1392 1.0035 0.70574c0.60715 0.42697 1.2402 1.1656 1.6027 1.8699l0.59914 1.1642 0.061 44.44c0.0675 49.167 0.16242 46.016-1.4354 47.662-1.6694 1.719 0.0197 1.6089-24.225 1.5786-11.977-0.015-21.984-0.08-22.239-0.14461zm42.738-48.669-0.0593-43.681h-41.043l-0.0593 43.681-0.0592 43.681h41.28zm-36.004 30.724 0.0618-7.7982h30.724l0.0618 7.7982 0.0618 7.7982h-30.971zm-0.0555-20.228v-7.8568h30.958v15.714h-30.958zm0-20.404v-7.8568h30.958v15.714h-30.958zm0-20.404v-7.8568h30.958v15.714h-30.958zm20.639-20.991v-2.5798h-10.085v2.4235c0 1.3329 0.0704 2.4938 0.15635 2.5798 0.086 0.086 2.3551 0.15636 5.0424 0.15636h4.8861z" stroke-width=".23453"/>
   <path d="m249.84 193.42c0.0654-3.4247 0.11891-23.35 0.11891-44.279v-38.053h41.436l0.11936 14.041c0.0656 7.7225 0.11938 27.648 0.11938 44.279v30.238h-41.912zm36.703-3.9518c-0.0653-2.8318-0.11872-6.4289-0.11872-7.9936v-2.8449h-31.436v15.987h31.673zm0.0609-23.413v-8.0834h-31.615v16.167h31.615zm0-20.748v-7.9936h-31.615v15.987h31.615zm0-20.747v-8.0834h-31.615v16.167h31.615z" fill="#4d4d4d" style="paint-order:fill markers stroke"/>
   <rect x="254.57" y="178.55" width="32.322" height="16.333" fill="#f60" style="paint-order:fill markers stroke"/>
   <rect x="254.29" y="157.8" width="32.322" height="16.333" fill="#fc0" style="paint-order:fill markers stroke"/>
   <rect x="254.48" y="136.99" width="32.322" height="16.333" fill="#d4ff2a" style="paint-order:fill markers stroke"/>
   <rect x="254.66" y="115.91" width="32.322" height="16.896" fill="#0f0" style="paint-order:fill markers stroke"/>
   <path d="m267.47 106.95c-2.1379-0.0429-2.207-0.0539-2.2912-0.36808-0.0478-0.17814-0.0877-1.4869-0.0888-2.9083l-2e-3 -2.5844h11.648v5.9696l-3.5308-0.0323c-1.9419-0.0178-4.5228-0.0522-5.7352-0.0765z" fill="#4d4d4d" style="paint-order:fill markers stroke"/>
  </g>
  <path d="m168.31 42.6-3.9025-0.62403c-5.2531-0.84001-10.236-4.3707-12.963-9.1846-1.9421-3.429-2.251-5.4363-2.2652-14.72l-0.0165-10.75h48v10.184c0 8.1991-0.39669 11.004-2.0352 14.388-2.2293 4.6052-7.6772 8.8692-12.646 9.8975l-3.1807 0.65835" fill="#800000"/>
 </g>
</svg>
