<svg xmlns="http://www.w3.org/2000/svg" xmlns:xlink="http://www.w3.org/1999/xlink" width="24" height="24" viewBox="0 0 24 24"><defs><linearGradient id="a"><stop offset="0" stop-color="#7c05fc" stop-opacity=".996"/><stop offset="1" stop-color="#e244fe" stop-opacity=".996"/></linearGradient><linearGradient id="b"><stop offset="0"/><stop offset="1" stop-opacity="0"/></linearGradient><linearGradient id="d"><stop offset="0" stop-color="#1f58b6"/><stop offset="1" stop-color="#7aa4e8"/></linearGradient><radialGradient xlink:href="#a" id="g" cx="6.393" cy="15.165" fx="6.393" fy="15.165" r="11.932" gradientUnits="userSpaceOnUse" gradientTransform="matrix(1.4121 -1.10457 1.0703 1.3683 -14.652 5.117)"/><linearGradient xlink:href="#b" id="h" x1="4.943" y1="20.047" x2="30.151" y2="-6.266" gradientUnits="userSpaceOnUse"/><radialGradient xlink:href="#d" id="c" gradientUnits="userSpaceOnUse" gradientTransform="matrix(1.4121 -1.10457 1.0703 1.3683 -14.652 5.117)" cx="6.393" cy="15.165" fx="6.393" fy="15.165" r="11.932"/><radialGradient xlink:href="#d" id="e" gradientUnits="userSpaceOnUse" gradientTransform="matrix(1.4121 -1.10457 1.0703 1.3683 -14.652 5.117)" cx="6.393" cy="15.165" fx="6.393" fy="15.165" r="11.932"/><linearGradient gradientTransform="matrix(.92964 0 0 .92964 .788 74.95)" xlink:href="#f" id="j" x1="11.595" y1="1038.905" x2="11.595" y2="1034.246" gradientUnits="userSpaceOnUse"/><linearGradient id="f"><stop offset="0" stop-color="#ccc"/><stop offset="1" stop-color="#f9f9f9"/></linearGradient><clipPath id="k"><circle style="isolation:auto;mix-blend-mode:normal" cx="12" cy="1040.362" r="11.093" color="#000" overflow="visible" fill="#0f0" stroke-width="3" stroke-linejoin="round"/></clipPath><clipPath id="i"><circle style="isolation:auto;mix-blend-mode:normal" cx="12.085" cy="1037.59" r="11.932" color="#000" overflow="visible" fill="#0f0" stroke-width="3" stroke-linejoin="round"/></clipPath></defs><g color="#000" fill-rule="evenodd"><path d="M23.932 12A11.932 11.932 0 0 1 12 23.932 11.932 11.932 0 0 1 .068 12 11.932 11.932 0 0 1 12 .068 11.932 11.932 0 0 1 23.932 12z" style="isolation:auto;mix-blend-mode:normal" overflow="visible" fill="url(#g)"/><path d="M12.047.006C5.437.006.067 5.374.067 11.984c0 6.61 5.37 11.98 11.98 11.98s11.978-5.37 11.978-11.98S18.657.006 12.047.006zm0 .963c6.09 0 11.015 4.925 11.015 11.014 0 6.09-4.926 11.016-11.015 11.016A11.008 11.008 0 0 1 1.03 11.984C1.03 5.894 5.958.97 12.048.97z" style="line-height:normal;text-indent:0;text-align:start;text-decoration-line:none;text-decoration-style:solid;text-decoration-color:#000;text-transform:none;block-progression:tb;isolation:auto;mix-blend-mode:normal" font-weight="400" font-family="sans-serif" white-space="normal" overflow="visible" opacity=".096" fill="url(#h)"/></g><g color="#000"><g transform="matrix(.92964 0 0 .92964 .765 -952.583)" clip-path="url(#i)" fill="#133671" fill-rule="evenodd"><path d="M7.674 1035.918c.792-.86 2.047-1.514 3.01-1.806.03 0 .095-.273.095-.273l.003-1.7 2.435-.01.017 1.752.056.216.263.068c1.125.27 1.938 1 2.77 1.69.17.14.29.29.443.49.612.873.93 1.823 1.134 2.777H6.1c.34-1.2.77-2.328 1.574-3.205zM10.784 1031.508s.155-.43.334-.606c.095-.094.206-.207.405-.305l.256-.126v-1.567l.446.01.018 1.57.166.072c.176.077.318.17.363.226.24.19.347.46.443.74zM5.208 1045.79h1.15l.01-4.912-1.16.012v-.87h13.584v.87H17.68l.015 4.876 1.097.02v.84H5.208zm4.4-.016v-4.867l-1.473-.014.003 4.877zm3.16.013v-4.88H11.3v4.884h1.465zm3.143 0l.025-4.88h-1.47v4.886h1.446zM4.45 1047.59h15.1v1.958H4.45z" style="isolation:auto;mix-blend-mode:normal" overflow="visible"/></g><path d="M7.923 1037.98c.736-.8 1.903-1.408 2.797-1.68.03 0 .09-.253.09-.253l.003-1.58 2.264-.01.015 1.63.052.2.244.063c1.303.38 2.23 1.092 2.987 2.026.585.722.865 1.696 1.054 2.583H6.46c.317-1.118.714-2.165 1.463-2.98z" style="isolation:auto;mix-blend-mode:normal" overflow="visible" fill="url(#j)" fill-rule="evenodd" transform="translate(0 -1028.362)"/><path d="M10.814 5.518s.144-.4.31-.564c.09-.087.192-.192.377-.283l.24-.116V1.24l.414.01.017 3.314.155.067c.164.073.296.16.338.212.222.175.322.426.412.688zM5.63 18.794h1.068l.01-4.566-1.078.01v-.807h12.63v.81h-1.036l.015 4.533 1.02.02v.78H5.63zm4.09-.014v-4.524l-1.37-.013.004 4.533zm2.937.012v-4.538h-1.362v4.542h1.362zm2.923 0l.022-4.536h-1.367v4.542h1.345z" style="isolation:auto;mix-blend-mode:normal" overflow="visible" fill="#fff" fill-rule="evenodd"/><path d="M4.926 1048.83h14.037v1.82H4.925z" style="isolation:auto;mix-blend-mode:normal" clip-path="url(#k)" overflow="visible" fill="#fff" fill-rule="evenodd" transform="translate(0 -1028.362)"/><path style="isolation:auto;mix-blend-mode:normal" overflow="visible" fill="#fff" fill-rule="evenodd" d="M10.772 6.08h2.375v1.796h-2.375z"/><path style="isolation:auto;mix-blend-mode:normal" d="M12.11 1.426c.604-.315 1.116-.172 1.624 0 .63.26 1.222.082 1.822 0v1.637c-.58.255-1.187.305-1.835 0a1.957 1.957 0 0 0-1.61 0z" overflow="visible" fill="#fff"/></g></svg>