<?xml version="1.0" encoding="UTF-8" standalone="no"?>
<!-- Created with Inkscape (http://www.inkscape.org/) -->

<svg
   xmlns:dc="http://purl.org/dc/elements/1.1/"
   xmlns:cc="http://creativecommons.org/ns#"
   xmlns:rdf="http://www.w3.org/1999/02/22-rdf-syntax-ns#"
   xmlns:svg="http://www.w3.org/2000/svg"
   xmlns="http://www.w3.org/2000/svg"
   xmlns:xlink="http://www.w3.org/1999/xlink"
   xmlns:sodipodi="http://sodipodi.sourceforge.net/DTD/sodipodi-0.dtd"
   xmlns:inkscape="http://www.inkscape.org/namespaces/inkscape"
   width="24"
   height="24"
   viewBox="0 0 24 24"
   id="svg16505"
   version="1.1"
   inkscape:version="0.91 r"
   sodipodi:docname="farmacies.svg">
  <defs
     id="defs16507">
    <linearGradient
       id="linearGradient19745"
       inkscape:collect="always">
      <stop
         id="stop19747"
         offset="0"
         style="stop-color:#177217;stop-opacity:0.99607843" />
      <stop
         id="stop19749"
         offset="1"
         style="stop-color:#4eab46;stop-opacity:0.99607843" />
    </linearGradient>
    <linearGradient
       inkscape:collect="always"
       id="linearGradient14177">
      <stop
         style="stop-color:#000000;stop-opacity:1;"
         offset="0"
         id="stop14179" />
      <stop
         style="stop-color:#000000;stop-opacity:0;"
         offset="1"
         id="stop14181" />
    </linearGradient>
    <linearGradient
       inkscape:collect="always"
       id="linearGradient14145">
      <stop
         style="stop-color:#1f58b6;stop-opacity:1"
         offset="0"
         id="stop14147" />
      <stop
         style="stop-color:#7aa4e8;stop-opacity:1"
         offset="1"
         id="stop14149" />
    </linearGradient>
    <radialGradient
       inkscape:collect="always"
       xlink:href="#linearGradient19745"
       id="radialGradient14151"
       cx="6.393167"
       cy="15.165454"
       fx="6.393167"
       fy="15.165454"
       r="11.932427"
       gradientUnits="userSpaceOnUse"
       gradientTransform="matrix(1.4121007,-1.1045678,1.0703037,1.3682968,-14.651552,5.1167479)" />
    <linearGradient
       inkscape:collect="always"
       xlink:href="#linearGradient14177"
       id="linearGradient14183"
       x1="4.9425726"
       y1="20.046875"
       x2="30.151178"
       y2="-6.265625"
       gradientUnits="userSpaceOnUse" />
    <clipPath
       clipPathUnits="userSpaceOnUse"
       id="clipPath14940">
      <path
         inkscape:connector-curvature="0"
         id="path14942"
         d="M 23.932427,12 A 11.932427,11.932427 0 0 1 12,23.932427 11.932427,11.932427 0 0 1 0.067573,12 11.932427,11.932427 0 0 1 12,0.06757298 11.932427,11.932427 0 0 1 23.932427,12 Z"
         style="color:#000000;clip-rule:nonzero;display:inline;overflow:visible;visibility:visible;opacity:1;isolation:auto;mix-blend-mode:normal;color-interpolation:sRGB;color-interpolation-filters:linearRGB;solid-color:#000000;solid-opacity:1;fill:url(#radialGradient14944);fill-opacity:1;fill-rule:evenodd;stroke:none;stroke-width:2;stroke-linecap:square;stroke-linejoin:miter;stroke-miterlimit:4;stroke-dasharray:none;stroke-dashoffset:0.85000002;stroke-opacity:1;color-rendering:auto;image-rendering:auto;shape-rendering:auto;text-rendering:auto;enable-background:accumulate" />
    </clipPath>
    <radialGradient
       inkscape:collect="always"
       xlink:href="#linearGradient14145"
       id="radialGradient14944"
       gradientUnits="userSpaceOnUse"
       gradientTransform="matrix(1.4121007,-1.1045678,1.0703037,1.3682968,-14.651552,5.1167483)"
       cx="6.393167"
       cy="15.165454"
       fx="6.393167"
       fy="15.165454"
       r="11.932427" />
    <clipPath
       clipPathUnits="userSpaceOnUse"
       id="clipPath14946">
      <path
         inkscape:connector-curvature="0"
         id="path14948"
         d="M 23.932427,12 A 11.932427,11.932427 0 0 1 12,23.932427 11.932427,11.932427 0 0 1 0.067573,12 11.932427,11.932427 0 0 1 12,0.06757298 11.932427,11.932427 0 0 1 23.932427,12 Z"
         style="color:#000000;clip-rule:nonzero;display:inline;overflow:visible;visibility:visible;opacity:1;isolation:auto;mix-blend-mode:normal;color-interpolation:sRGB;color-interpolation-filters:linearRGB;solid-color:#000000;solid-opacity:1;fill:url(#radialGradient14950);fill-opacity:1;fill-rule:evenodd;stroke:none;stroke-width:2;stroke-linecap:square;stroke-linejoin:miter;stroke-miterlimit:4;stroke-dasharray:none;stroke-dashoffset:0.85000002;stroke-opacity:1;color-rendering:auto;image-rendering:auto;shape-rendering:auto;text-rendering:auto;enable-background:accumulate" />
    </clipPath>
    <radialGradient
       inkscape:collect="always"
       xlink:href="#linearGradient14145"
       id="radialGradient14950"
       gradientUnits="userSpaceOnUse"
       gradientTransform="matrix(1.4121007,-1.1045678,1.0703037,1.3682968,-14.651552,5.1167483)"
       cx="6.393167"
       cy="15.165454"
       fx="6.393167"
       fy="15.165454"
       r="11.932427" />
  </defs>
  <sodipodi:namedview
     id="base"
     pagecolor="#ffffff"
     bordercolor="#666666"
     borderopacity="1.0"
     inkscape:pageopacity="0.0"
     inkscape:pageshadow="2"
     inkscape:zoom="8"
     inkscape:cx="-0.48633344"
     inkscape:cy="22.871183"
     inkscape:document-units="px"
     inkscape:current-layer="layer1"
     showgrid="true"
     units="px"
     showguides="true"
     inkscape:snap-global="false"
     inkscape:window-width="2511"
     inkscape:window-height="1416"
     inkscape:window-x="49"
     inkscape:window-y="24"
     inkscape:window-maximized="1">
    <inkscape:grid
       type="xygrid"
       id="grid17061"
       color="#808080"
       opacity="0.1254902"
       empcolor="#808080"
       empopacity="0.25098039"
       dotted="false" />
  </sodipodi:namedview>
  <metadata
     id="metadata16510">
    <rdf:RDF>
      <cc:Work
         rdf:about="">
        <dc:format>image/svg+xml</dc:format>
        <dc:type
           rdf:resource="http://purl.org/dc/dcmitype/StillImage" />
        <dc:title></dc:title>
      </cc:Work>
    </rdf:RDF>
  </metadata>
  <g
     inkscape:groupmode="layer"
     id="layer2"
     inkscape:label="base"
     style="display:inline">
    <g
       id="g14189">
      <path
         id="path17688"
         d="M 23.932427,12 A 11.932427,11.932427 0 0 1 12,23.932427 11.932427,11.932427 0 0 1 0.06757259,12 11.932427,11.932427 0 0 1 12,0.06757259 11.932427,11.932427 0 0 1 23.932427,12 Z"
         style="color:#000000;clip-rule:nonzero;display:inline;overflow:visible;visibility:visible;opacity:1;isolation:auto;mix-blend-mode:normal;color-interpolation:sRGB;color-interpolation-filters:linearRGB;solid-color:#000000;solid-opacity:1;fill:url(#radialGradient14151);fill-opacity:1;fill-rule:evenodd;stroke:none;stroke-width:2;stroke-linecap:square;stroke-linejoin:miter;stroke-miterlimit:4;stroke-dasharray:none;stroke-dashoffset:0.85000002;stroke-opacity:1;color-rendering:auto;image-rendering:auto;shape-rendering:auto;text-rendering:auto;enable-background:accumulate"
         inkscape:connector-curvature="0" />
      <path
         inkscape:connector-curvature="0"
         id="path17688-3"
         d="M 12.046875,0.00585938 C 5.4365953,0.00585928 0.06835928,5.3740953 0.06835937,11.984375 c 0,6.61028 5.36823593,11.978516 11.97851563,11.978516 6.61028,0 11.978516,-5.368236 11.978516,-11.978516 0,-6.6102797 -5.368236,-11.97851562 -11.978516,-11.97851562 z m 0,0.96289062 c 6.089537,0 11.015625,4.926088 11.015625,11.015625 C 23.0625,18.073912 18.136412,23 12.046875,23 5.957338,23 1.03125,18.073912 1.03125,11.984375 1.0312499,5.8948379 5.9573379,0.96874991 12.046875,0.96875 Z"
         style="color:#000000;font-style:normal;font-variant:normal;font-weight:normal;font-stretch:normal;font-size:medium;line-height:normal;font-family:sans-serif;text-indent:0;text-align:start;text-decoration:none;text-decoration-line:none;text-decoration-style:solid;text-decoration-color:#000000;letter-spacing:normal;word-spacing:normal;text-transform:none;direction:ltr;block-progression:tb;writing-mode:lr-tb;baseline-shift:baseline;text-anchor:start;white-space:normal;clip-rule:nonzero;display:inline;overflow:visible;visibility:visible;opacity:0.09599998;isolation:auto;mix-blend-mode:normal;color-interpolation:sRGB;color-interpolation-filters:linearRGB;solid-color:#000000;solid-opacity:1;fill:url(#linearGradient14183);fill-opacity:1;fill-rule:evenodd;stroke:none;stroke-width:0.96355295;stroke-linecap:square;stroke-linejoin:miter;stroke-miterlimit:4;stroke-dasharray:none;stroke-dashoffset:0.85000002;stroke-opacity:1;color-rendering:auto;image-rendering:auto;shape-rendering:auto;text-rendering:auto;enable-background:accumulate" />
    </g>
  </g>
  <g
     inkscape:label="icon"
     inkscape:groupmode="layer"
     id="layer1"
     transform="translate(0,-1028.3622)"
     style="display:inline">
    <path
       style="display:inline;fill:#225500"
       d="m 7.6968393,1050.6118 c -0.07569,-0.1156 -0.0755,-0.1391 0.0028,-0.3442 0.105299,-0.2757 0.332448,-0.4655 0.784337,-0.6552 0.346703,-0.1455 0.990005,-0.304 1.234027,-0.304 l 0.12513,0 0,-2.4823 c 0,-2.3211 0.0055,-2.4842 0.08614,-2.5091 0.04738,-0.014 0.3519317,-0.084 0.6767927,-0.1527 0.324861,-0.069 0.629418,-0.1378 0.676793,-0.1522 0.08129,-0.025 0.08614,0.1231 0.08614,2.6293 l 0,2.6557 0.273385,0.034 c 0.731584,0.091 1.560167,0.4463 1.772985,0.7596 0.128914,0.1897 0.159487,0.4867 0.06031,0.5859 -0.04456,0.044 -0.751194,0.059 -2.878315,0.059 l -2.8192487,0 -0.08128,-0.1241 z m 0.325114,-2.8285 c -0.890984,-0.1932 -1.473789,-0.4832 -1.974539,-0.9819 -0.819294,-0.8162 -1.007017,-2.0264 -0.480596,-3.0984 0.190217,-0.3872 0.726662,-0.9632 1.170311,-1.2563 0.936084,-0.6184 1.524448,-0.803 4.4103807,-1.3841 3.246612,-0.6536 4.338588,-1.0429 5.223753,-1.8624 0.758224,-0.702 1.288671,-1.7431 1.375327,-2.6994 0.137449,-1.5168 -0.938008,-2.7037 -2.561371,-2.8266 -0.31696,-0.024 -0.570959,2e-4 -1.281312,0.1221 -1.349777,0.2316 -1.564488,0.2557 -2.290108,0.2567 -1.190176,0 -1.9108817,-0.233 -2.4265357,-0.79 -0.403715,-0.4361 -0.414442,-0.6508 -0.05391,-1.0793 0.294457,-0.3499 1.1698447,-0.8635 1.8418747,-1.0805 0.949798,-0.3068 2.297748,-0.217 4.367574,0.2912 1.505346,0.3696 2.456747,0.8186 3.228034,1.5236 0.994053,0.9085 1.472382,2.3201 1.316039,3.8841 -0.14723,1.4727 -0.643496,2.5079 -1.725327,3.5992 -0.680068,0.686 -1.206962,1.0681 -2.065427,1.4978 -1.062873,0.5322 -1.88863,0.7787 -4.456405,1.3308 -1.8027667,0.3875 -2.5664927,0.584 -3.0759877,0.7909 -0.622025,0.2528 -0.886332,0.4947 -0.886332,0.8113 0,0.3537 0.403338,0.6442 0.986436,0.7108 0.147789,0.016 0.318545,0.041 0.379457,0.053 l 0.110748,0.023 0,1.1312 0,1.1312 -0.356855,0 c -0.19627,0 -0.545127,-0.044 -0.775237,-0.093 z m 3.5488097,-15.4109 c 0.244968,-0.063 0.508965,-0.2497 0.526938,-0.3735 0.02262,-0.1561 -0.205575,-0.3118 -0.456792,-0.3118 -0.428685,0 -1.010223,0.2804 -1.010223,0.4871 0,0.1034 0.129633,0.2302 0.270718,0.2661 0.112236,0.028 0.409043,0 0.669359,-0.067 z m 0.487342,14.0095 0,-1.056 0.18458,-0.031 c 0.101521,-0.017 0.638648,-0.1329 1.19362,-0.2571 1.214059,-0.2723 1.394176,-0.2916 1.623564,-0.1736 0.341338,0.1757 0.491364,0.6671 0.299602,0.9816 -0.160037,0.2625 -0.841348,0.6588 -1.858748,1.0814 -0.354316,0.1472 -1.37082,0.511 -1.427678,0.511 -0.0081,0 -0.01494,-0.4752 -0.01494,-1.0561 z m -2.2149607,-6.4255 c 0,-0.3519 -0.01662,-0.64 -0.03691,-0.6401 -0.02029,0 -0.247338,-0.033 -0.50452,-0.075 -1.376189,-0.22 -2.545199,-0.7739 -3.257186,-1.5427 -0.505261,-0.5459 -0.763618,-1.1644 -0.557699,-1.3353 0.05752,-0.047 1.177721,-0.061 5.1267037,-0.063 4.848689,0 5.055777,0 5.119251,0.089 0.104813,0.1433 0.0788,0.3039 -0.106311,0.6562 -0.607778,1.1566 -2.076228,1.9756 -4.023659,2.2442 l -0.233801,0.033 0,0.4883 c 0,0.4657 -0.005,0.4894 -0.110748,0.5143 -0.21651,0.05 -1.3309177,0.2711 -1.3726617,0.2711 -0.02334,0 -0.04246,-0.2879 -0.04246,-0.6398 z m -2.671948,-4.3126 c -0.01672,-0.016 0.06993,-0.2303 0.19257,-0.4744 0.122634,-0.2443 0.193534,-0.4334 0.157556,-0.4206 -0.03598,0.012 -0.238147,0.086 -0.449263,0.1618 -0.523842,0.189 -0.594655,0.1135 -0.174186,-0.1856 0.436435,-0.3104 1.196255,-0.7675 1.498014,-0.901 l 0.253843,-0.1122 0.141409,0.1479 c 0.07777,0.081 0.212672,0.1919 0.299772,0.2458 l 0.158362,0.099 -0.328151,0.1741 c -0.504161,0.2674 -0.880199,0.5391 -1.294607,0.935 -0.389523,0.3721 -0.40388,0.3825 -0.455319,0.3312 z"
       id="path15809-7"
       inkscape:connector-curvature="0" />
    <path
       style="fill:#ffffff"
       d="m 7.6583603,1049.9376 c -0.075694,-0.1156 -0.075501,-0.1391 0.00285,-0.3442 0.105299,-0.2757 0.3324478,-0.4655 0.784337,-0.6552 0.3467025,-0.1455 0.990005,-0.304 1.234027,-0.304 l 0.12513,0 0,-2.4823 c 0,-2.3211 0.0055,-2.4842 0.08614,-2.5091 0.04738,-0.014 0.3519317,-0.084 0.6767927,-0.1527 0.324861,-0.069 0.629418,-0.1378 0.676793,-0.1522 0.08129,-0.025 0.08614,0.1231 0.08614,2.6293 l 0,2.6557 0.273385,0.034 c 0.731584,0.091 1.560167,0.4463 1.772985,0.7596 0.128914,0.1897 0.159487,0.4867 0.06031,0.5859 -0.04456,0.044 -0.751194,0.059 -2.878315,0.059 l -2.8192487,0 -0.081276,-0.1241 z m 0.3251134,-2.8285 c -0.8909839,-0.1932 -1.4737883,-0.4832 -1.974539,-0.9819 -0.8192942,-0.8162 -1.007017,-2.0264 -0.4805959,-3.0984 0.1902175,-0.3872 0.7266617,-0.9632 1.1703114,-1.2563 0.9360837,-0.6184 1.5244475,-0.803 4.4103808,-1.3841 3.246612,-0.6536 4.338588,-1.0429 5.223753,-1.8624 0.758224,-0.702 1.288671,-1.7431 1.375327,-2.6994 0.137449,-1.5168 -0.938008,-2.7037 -2.561371,-2.8266 -0.31696,-0.024 -0.570959,2e-4 -1.281312,0.1221 -1.349777,0.2316 -1.564488,0.2557 -2.290108,0.2567 -1.190176,0 -1.9108825,-0.233 -2.4265365,-0.79 -0.4037147,-0.4361 -0.4144417,-0.6508 -0.053908,-1.0793 0.2944573,-0.3499 1.1698455,-0.8635 1.8418755,-1.0805 0.949798,-0.3068 2.297748,-0.217 4.367574,0.2912 1.505346,0.3696 2.456747,0.8186 3.228034,1.5236 0.994053,0.9085 1.472382,2.3201 1.316039,3.8841 -0.14723,1.4727 -0.643496,2.5079 -1.725327,3.5992 -0.680068,0.686 -1.206962,1.0681 -2.065427,1.4978 -1.062873,0.5322 -1.88863,0.7787 -4.456405,1.3308 -1.8027672,0.3875 -2.5664932,0.584 -3.0759878,0.7909 -0.6220256,0.2528 -0.8863323,0.4947 -0.8863323,0.8113 0,0.3537 0.4033378,0.6442 0.9864357,0.7108 0.1477896,0.016 0.3185457,0.041 0.3794571,0.053 l 0.1107483,0.023 0,1.1312 0,1.1312 -0.3568555,0 c -0.1962696,0 -0.5451264,-0.044 -0.7752362,-0.093 z m 3.5488103,-15.4109 c 0.244968,-0.063 0.508965,-0.2497 0.526938,-0.3735 0.02262,-0.1561 -0.205575,-0.3118 -0.456792,-0.3118 -0.428685,0 -1.010223,0.2804 -1.010223,0.4871 0,0.1034 0.129633,0.2302 0.270718,0.2661 0.112236,0.028 0.409043,0 0.669359,-0.067 z m 0.487342,14.0095 0,-1.056 0.18458,-0.031 c 0.101521,-0.017 0.638648,-0.1329 1.19362,-0.2571 1.214059,-0.2723 1.394176,-0.2916 1.623564,-0.1736 0.341338,0.1757 0.491364,0.6671 0.299602,0.9816 -0.160037,0.2625 -0.841348,0.6588 -1.858748,1.0814 -0.354316,0.1472 -1.37082,0.511 -1.427678,0.511 -0.0081,0 -0.01494,-0.4752 -0.01494,-1.0561 z m -2.2149615,-6.4255 c 0,-0.3519 -0.01662,-0.64 -0.03691,-0.6401 -0.02029,0 -0.247338,-0.033 -0.5045191,-0.075 -1.3761892,-0.22 -2.5451993,-0.7739 -3.2571864,-1.5427 -0.5052611,-0.5459 -0.7636181,-1.1644 -0.5576987,-1.3353 0.057524,-0.047 1.1777211,-0.061 5.1267037,-0.063 4.848689,0 5.055777,0 5.119251,0.089 0.104813,0.1433 0.0788,0.3039 -0.106311,0.6562 -0.607778,1.1566 -2.076228,1.9756 -4.023659,2.2442 l -0.233801,0.033 0,0.4883 c 0,0.4657 -0.005,0.4894 -0.110748,0.5143 -0.21651,0.05 -1.3309185,0.2711 -1.3726625,0.2711 -0.02334,0 -0.04246,-0.2879 -0.04246,-0.6398 z m -2.6719473,-4.3126 c -0.016723,-0.016 0.069934,-0.2303 0.1925701,-0.4744 0.1226338,-0.2443 0.1935338,-0.4334 0.1575553,-0.4206 -0.035978,0.012 -0.2381465,0.086 -0.4492624,0.1618 -0.5238422,0.189 -0.5946552,0.1135 -0.1741864,-0.1856 0.4364354,-0.3104 1.1962551,-0.7675 1.4980138,-0.901 l 0.2538431,-0.1122 0.1414091,0.1479 c 0.077771,0.081 0.2126723,0.1919 0.2997718,0.2458 l 0.1583623,0.099 -0.3281507,0.1741 c -0.5041608,0.2674 -0.880199,0.5391 -1.294607,0.935 -0.389523,0.3721 -0.4038801,0.3825 -0.455319,0.3312 z"
       id="path15809"
       inkscape:connector-curvature="0" />
    <path
       style="display:inline;fill:#cccccc"
       d="m 7.6542353,1049.9454 c -0.07569,-0.1156 -0.0755,-0.1391 0.0028,-0.3442 0.105299,-0.2757 0.332448,-0.4655 0.784337,-0.6552 0.346702,-0.1455 0.990005,-0.304 1.234027,-0.304 l 0.12513,0 0,-2.4823 c 0,-2.3211 0.0055,-2.4842 0.08614,-2.5091 0.04738,-0.014 0.3519307,-0.084 0.6767917,-0.1527 0.324861,-0.069 0.629418,-0.1378 0.676793,-0.1522 0.08129,-0.025 0.08614,0.1231 0.08614,2.6293 l 0,2.6557 0.273385,0.034 c 0.731584,0.091 1.560167,0.4463 1.772985,0.7596 0.128914,0.1897 0.159487,0.4867 0.06031,0.5859 -0.04456,0.044 -0.751194,0.059 -2.878315,0.059 l -2.8192477,0 -0.08128,-0.1241 z"
       id="path15851"
       inkscape:connector-curvature="0" />
    <path
       style="display:inline;fill:#ff0000"
       d="m 11.54506,1031.7037 c 0.244968,-0.063 0.508965,-0.2497 0.526938,-0.3735 0.02262,-0.1561 -0.205575,-0.3118 -0.456792,-0.3118 -0.428685,0 -1.010223,0.2804 -1.010223,0.4871 0,0.1034 0.129633,0.2302 0.270718,0.2661 0.112236,0.028 0.409043,0 0.669359,-0.067 z"
       id="path15847"
       inkscape:connector-curvature="0" />
    <path
       style="display:inline;fill:#cccccc"
       d="m 9.8005393,1039.29 c 0,-0.3519 -0.01662,-0.64 -0.03691,-0.6401 -0.02029,0 -0.247338,-0.033 -0.504519,-0.075 -1.376189,-0.22 -2.545199,-0.7739 -3.257187,-1.5427 -0.505261,-0.5459 -0.763618,-1.1644 -0.557698,-1.3353 0.05752,-0.047 1.177721,-0.061 5.1267027,-0.063 4.848689,0 5.055777,0 5.119251,0.089 0.104813,0.1433 0.0788,0.3039 -0.106311,0.6562 -0.607778,1.1566 -2.076228,1.9756 -4.023659,2.2442 l -0.233801,0.033 0,0.4883 c 0,0.4657 -0.005,0.4894 -0.110748,0.5143 -0.21651,0.05 -1.3309177,0.2711 -1.3726617,0.2711 -0.02334,0 -0.04246,-0.2879 -0.04246,-0.6398 z"
       id="path15843"
       inkscape:connector-curvature="0" />
    <path
       style="display:inline;fill:#ff0000"
       d="m 7.1454935,1034.9751 c -0.01672,-0.016 0.06993,-0.2303 0.19257,-0.4744 0.122634,-0.2443 0.193534,-0.4334 0.157555,-0.4206 -0.03598,0.012 -0.238146,0.086 -0.449262,0.1618 -0.523843,0.189 -0.594656,0.1135 -0.174187,-0.1856 0.436436,-0.3104 1.196255,-0.7675 1.498014,-0.901 l 0.253843,-0.1122 0.141409,0.1479 c 0.07777,0.081 0.212673,0.1919 0.299772,0.2458 l 0.158362,0.099 -0.32815,0.1741 c -0.504161,0.2674 -0.880199,0.5391 -1.294607,0.935 -0.389523,0.3721 -0.40388,0.3825 -0.455319,0.3312 z"
       id="path15809-0"
       inkscape:connector-curvature="0" />
  </g>
</svg>
