<?xml version="1.0" encoding="UTF-8"?>
<!-- Created with Inkscape (http://www.inkscape.org/) -->
<svg width="24" height="24" version="1.1" viewBox="0 0 24 24" xmlns="http://www.w3.org/2000/svg" xmlns:cc="http://creativecommons.org/ns#" xmlns:dc="http://purl.org/dc/elements/1.1/" xmlns:rdf="http://www.w3.org/1999/02/22-rdf-syntax-ns#" xmlns:xlink="http://www.w3.org/1999/xlink">
 <defs>
  <radialGradient id="radialGradient14151" cx="6.3932" cy="15.165" r="11.932" gradientTransform="matrix(1.4121 -1.1046 1.0703 1.3683 -14.652 5.1167)" gradientUnits="userSpaceOnUse">
   <stop stop-color="#1f58b6" offset="0"/>
   <stop stop-color="#7aa4e8" offset="1"/>
  </radialGradient>
  <linearGradient id="linearGradient14183" x1="4.9426" x2="30.151" y1="20.047" y2="-6.2656" gradientUnits="userSpaceOnUse">
   <stop offset="0"/>
   <stop stop-opacity="0" offset="1"/>
  </linearGradient>
 </defs>
 <metadata>
  <rdf:RDF>
   <cc:Work rdf:about="">
    <dc:format>image/svg+xml</dc:format>
    <dc:type rdf:resource="http://purl.org/dc/dcmitype/StillImage"/>
    <dc:title/>
   </cc:Work>
  </rdf:RDF>
 </metadata>
 <g>
  <g fill-rule="evenodd" shape-rendering="auto">
   <path d="m23.932 12a11.932 11.932 0 0 1-11.932 11.932 11.932 11.932 0 0 1-11.932-11.932 11.932 11.932 0 0 1 11.932-11.932 11.932 11.932 0 0 1 11.932 11.932z" color="#000000" color-rendering="auto" fill="url(#radialGradient14151)" image-rendering="auto" solid-color="#000000" style="isolation:auto;mix-blend-mode:normal"/>
   <path d="m12.047 0.0058594c-6.6103-1e-7 -11.979 5.3682-11.979 11.979 0 6.6103 5.3682 11.979 11.979 11.979 6.6103 0 11.979-5.3682 11.979-11.979 0-6.6103-5.3682-11.979-11.979-11.979zm0 0.96289c6.0895 0 11.016 4.9261 11.016 11.016s-4.9261 11.016-11.016 11.016-11.016-4.9261-11.016-11.016c-1e-7 -6.0895 4.9261-11.016 11.016-11.016z" color="#000000" color-rendering="auto" fill="url(#linearGradient14183)" image-rendering="auto" opacity=".096" solid-color="#000000" style="isolation:auto;mix-blend-mode:normal;text-decoration-color:#000000;text-decoration-line:none;text-decoration-style:solid;text-indent:0;text-transform:none;white-space:normal"/>
  </g>
 </g>
 <g transform="translate(0 -1028.4)">
  <rect x="3.1523" y="1041.7" width="17.589" height="1.8114" ry=".55176" fill="#e93f11" style="paint-order:stroke fill markers"/>
  <rect x="3.1119" y="1037.2" width="17.589" height="3.2698" ry=".996" fill="#693b1d" style="paint-order:stroke fill markers"/>
  <path d="m2.4675 1036.7c0.036029 0.4685 0.17531 0.5068 0.48993 0.5358h17.986c0.66094 0.034 0.62949-0.3358 0.54461-0.632-0.61166-4.3685-5.3521-5.9622-9.739-5.9712-4.0036-0.022-8.5512 1.7498-9.2813 6.0674z" fill="#ffae30" style="paint-order:stroke fill markers"/>
  <ellipse id="path1044" transform="rotate(-35.86)" cx="-601.07" cy="841.53" rx="1.0938" ry=".525" fill="#fff" style="paint-order:stroke fill markers"/>
  <use id="use1048" transform="rotate(13.237 14.179 1047.8)" width="100%" height="100%" xlink:href="#path1044"/>
  <use id="use1050" transform="rotate(25.51 11.839 1040.2)" width="100%" height="100%" xlink:href="#use1048"/>
  <use id="use1052" transform="rotate(14.14 10.453 1048.1)" width="100%" height="100%" xlink:href="#use1050"/>
  <use transform="rotate(21.839 13.095 1041.8)" width="100%" height="100%" xlink:href="#use1052"/>
  <use id="use1056" transform="rotate(-17.683 18.933 1040.9)" width="100%" height="100%" xlink:href="#use1050"/>
  <use transform="translate(3.5797 .48614)" width="100%" height="100%" xlink:href="#use1056"/>
  <path d="m2.4675 1044c0.036029-0.4685 0.17531-0.5068 0.48993-0.5358h17.986c0.66094-0.034 0.62949 0.3358 0.54461 0.632-0.61166 4.3685-5.3521 5.9622-9.739 5.9712-4.0036 0.022-8.5512-1.7498-9.2813-6.0674z" fill="#ffae30" style="paint-order:stroke fill markers"/>
  <g transform="matrix(1 0 0 -1 -.18658 2080.8)">
   <ellipse id="path1044-0" transform="rotate(-35.86)" cx="-601.07" cy="841.53" rx="1.0938" ry=".525" fill="#fff" style="paint-order:stroke fill markers"/>
   <use id="use1048-4" transform="rotate(13.237 14.179 1047.8)" width="100%" height="100%" xlink:href="#path1044-0"/>
   <use id="use1050-2" transform="rotate(25.51 11.839 1040.2)" width="100%" height="100%" xlink:href="#use1048-4"/>
   <use id="use1052-9" transform="rotate(14.14 10.453 1048.1)" width="100%" height="100%" xlink:href="#use1050-2"/>
   <use transform="rotate(21.839 13.095 1041.8)" width="100%" height="100%" xlink:href="#use1052-9"/>
   <use id="use1056-1" transform="rotate(-17.683 18.933 1040.9)" width="100%" height="100%" xlink:href="#use1050-2"/>
   <use transform="translate(3.5797 .48614)" width="100%" height="100%" xlink:href="#use1056-1"/>
  </g>
  <ellipse id="path1105" cx="4.3101" cy="1041.2" rx="2.0771" ry=".97227" fill="#6cd800" style="paint-order:stroke fill markers"/>
  <use id="use1107" transform="translate(3.125)" width="100%" height="100%" fill="#6cd800" xlink:href="#path1105"/>
  <use id="use1109" transform="translate(3.0312)" width="100%" height="100%" fill="#6cd800" xlink:href="#use1107"/>
  <use id="use1111" transform="translate(2.7969)" width="100%" height="100%" fill="#6cd800" xlink:href="#use1109"/>
  <use id="use1113" transform="translate(3.2969 -.046875)" width="100%" height="100%" fill="#6cd800" xlink:href="#use1111"/>
  <use transform="translate(2.7656 .03125)" width="100%" height="100%" fill="#6cd800" xlink:href="#use1113"/>
 </g>
</svg>
