<svg xmlns="http://www.w3.org/2000/svg" xmlns:xlink="http://www.w3.org/1999/xlink" width="24" height="24" viewBox="0 0 24 24"><defs><linearGradient id="f"><stop offset="0" stop-color="#999"/><stop offset="1" stop-color="#e7e7e7"/></linearGradient><linearGradient id="a"><stop offset="0" stop-color="#b30101" stop-opacity=".996"/><stop offset="1" stop-color="#fa4667" stop-opacity=".996"/></linearGradient><linearGradient id="b"><stop offset="0"/><stop offset="1" stop-opacity="0"/></linearGradient><linearGradient id="d"><stop offset="0" stop-color="#1f58b6"/><stop offset="1" stop-color="#7aa4e8"/></linearGradient><radialGradient xlink:href="#a" id="g" cx="6.393" cy="15.165" fx="6.393" fy="15.165" r="11.932" gradientUnits="userSpaceOnUse" gradientTransform="matrix(1.4121 -1.10457 1.0703 1.3683 -14.652 5.117)"/><linearGradient xlink:href="#b" id="h" x1="4.943" y1="20.047" x2="30.151" y2="-6.266" gradientUnits="userSpaceOnUse"/><radialGradient xlink:href="#d" id="c" gradientUnits="userSpaceOnUse" gradientTransform="matrix(1.4121 -1.10457 1.0703 1.3683 -14.652 5.117)" cx="6.393" cy="15.165" fx="6.393" fy="15.165" r="11.932"/><radialGradient xlink:href="#d" id="e" gradientUnits="userSpaceOnUse" gradientTransform="matrix(1.4121 -1.10457 1.0703 1.3683 -14.652 5.117)" cx="6.393" cy="15.165" fx="6.393" fy="15.165" r="11.932"/><clipPath id="l"><circle style="isolation:auto;mix-blend-mode:normal" cx="3.296" cy="1056.003" r="66.283" color="#000" overflow="visible" fill="#87decd" stroke-width=".8" stroke-linejoin="round"/></clipPath><clipPath id="k"><circle style="isolation:auto;mix-blend-mode:normal" cx="3.296" cy="1072.009" r="66.283" color="#000" overflow="visible" fill="#87decd" stroke-width=".8" stroke-linejoin="round"/></clipPath><clipPath id="i"><circle style="isolation:auto;mix-blend-mode:normal" cx="3.296" cy="1084.304" r="66.283" color="#000" overflow="visible" fill="#87decd" stroke-width=".8" stroke-linejoin="round"/></clipPath><linearGradient xlink:href="#f" id="j" x1="9.546" y1="1044.208" x2="9.546" y2="1039.789" gradientUnits="userSpaceOnUse"/></defs><g color="#000" fill-rule="evenodd"><path d="M23.932 12A11.932 11.932 0 0 1 12 23.932 11.932 11.932 0 0 1 .068 12 11.932 11.932 0 0 1 12 .068 11.932 11.932 0 0 1 23.932 12z" style="isolation:auto;mix-blend-mode:normal" overflow="visible" fill="url(#g)"/><path d="M12.047.006C5.437.006.067 5.374.067 11.984c0 6.61 5.37 11.98 11.98 11.98s11.978-5.37 11.978-11.98S18.657.006 12.047.006zm0 .963c6.09 0 11.015 4.925 11.015 11.014 0 6.09-4.926 11.016-11.015 11.016A11.008 11.008 0 0 1 1.03 11.984C1.03 5.894 5.958.97 12.048.97z" style="line-height:normal;text-indent:0;text-align:start;text-decoration-line:none;text-decoration-style:solid;text-decoration-color:#000;text-transform:none;block-progression:tb;isolation:auto;mix-blend-mode:normal" font-weight="400" font-family="sans-serif" white-space="normal" overflow="visible" opacity=".096" fill="url(#h)"/></g><path d="M5.12 16.398l-.368-.586a493.168 493.168 0 0 1-1.91-3.043c0-.01.797-.01 1.772-.01h1.774l.202-.407.203-.406h1.593l.225-.403.227-.403h-.822c-.45 0-.82-.01-.82-.01 0-.01.17-.35.378-.773l.378-.766.88-.01.882-.01.92-1.642.922-1.644h.216c.188 0 .215 0 .21.013-.003.01-.057.175-.118.37a44.18 44.18 0 0 1-.12.37c-.004.014.04.015.332.015h.336l-.003.287-.003.285-.425.01-.427.01-.307.974c-.17.535-.305.98-.303.986.003.01.152.17.332.363l.327.35h4.93l.57-1.016.57-1.014h1.618v2.04h.9l.212.408.212.408-5.082.01-5.083.01-.126.396c-.07.217-.126.4-.126.403 0 .01 2.44.01 5.42.01h5.423l.213.406.212.407h.756v1.438l-.004 1.438-.11.078a4.082 4.082 0 0 1-1.57.653 4.058 4.058 0 0 1-1.506-.01 4.022 4.022 0 0 1-1.533-.642l-.123-.082-.04.03a4.07 4.07 0 0 1-1.922.745 6.442 6.442 0 0 1-.867.01c-.706-.077-1.402-.338-1.932-.724l-.075-.055-.123.083c-.477.325-.968.53-1.533.642a4.282 4.282 0 0 1-1.506.01 4.075 4.075 0 0 1-1.572-.654l-.11-.077-.096.068a4.083 4.083 0 0 1-1.332.618 3.042 3.042 0 0 1-.873.113h-.248l-.024-.038z" fill="#500"/><path style="isolation:auto;mix-blend-mode:normal" d="M6.673 10.077h12.894l.744 1.467H5.967z" color="#000" overflow="visible" fill="#37c8ab"/><path d="M4.337 15.754c-.014-.02-.18-.285-.37-.586a493.168 493.168 0 0 1-1.91-3.043c0-.01.798-.01 1.773-.01h1.773l.203-.406.203-.407H7.6l.225-.403.225-.403h-.82c-.453 0-.822-.01-.82-.01 0-.01.17-.352.377-.774l.377-.766.88-.01.88-.01.922-1.643.92-1.644h.215c.19 0 .216 0 .21.013l-.118.37a44.18 44.18 0 0 1-.118.37c-.006.014.037.015.33.015h.335l-.002.287-.003.286-.425.01-.426.01-.308.975c-.17.536-.306.98-.303.987 0 .01.15.17.33.363l.328.35h4.93l.57-1.015.568-1.014h1.62v2.04h.9l.212.407.21.41-5.08.01-5.083.01-.126.395c-.07.217-.126.4-.126.403 0 .01 2.44.01 5.42.01h5.423l.212.407.21.406h.757l-.003 1.438-.002 1.44-.11.077a4.082 4.082 0 0 1-1.57.652 4.058 4.058 0 0 1-1.506-.01 4.022 4.022 0 0 1-1.533-.643l-.123-.083-.04.03a4.07 4.07 0 0 1-1.922.745 6.442 6.442 0 0 1-.867.01c-.706-.08-1.4-.34-1.93-.726l-.077-.055-.122.082c-.476.325-.967.53-1.532.642a4.282 4.282 0 0 1-1.507.01 4.075 4.075 0 0 1-1.57-.654l-.11-.077-.096.068a4.083 4.083 0 0 1-1.333.618 3.042 3.042 0 0 1-.872.114H4.36l-.023-.038z" fill="#f9f9f9"/><g transform="matrix(.16596 0 0 .16596 11.453 -167.946)" clip-path="url(#i)" stroke="#fff" stroke-width="3.013"><path d="M-85.32 1109.05c4.205 2.368 9.49 4.507 14.625 4.5 5.136-.01 10.042-2.253 14.448-4.462 4.027 2.406 9.312 4.545 14.447 4.538 5.136-.01 10.042-2.253 14.43-4.518 4.013 2.35 9.297 4.488 14.432 4.48 5.136-.01 10.042-2.252 14.46-4.48 4.04 2.386 9.324 4.525 14.46 4.518 5.135-.01 10.04-2.253 14.42-4.515 4.003 2.353 9.288 4.492 14.423 4.485 5.136-.01 10.042-2.253 14.344-4.515 3.923 2.352 9.207 4.49 14.343 4.484 5.135-.01 10.04-2.254 14.625-4.5" fill="none" stroke-width="4.821"/></g><path d="M5.61 1040.6H3.837c-.975 0-1.773 0-1.773.01s.396.637 1.91 3.043l.37.586.024.037h.248c.33 0 .527-.025.872-.113.47-.12.945-.34 1.333-.618l.096-.068.11.077a4.073 4.073 0 0 0 1.572.655c.493.09 1.034.088 1.507-.01a4.034 4.034 0 0 0 1.533-.643l.122-.083.076.054c.53.386 1.225.647 1.932.725.184.02.683.017.867-.01a4.07 4.07 0 0 0 1.922-.745l.04-.03.123.083c.478.327.967.532 1.533.644a4.282 4.282 0 0 0 1.507.01 4.08 4.08 0 0 0 1.568-.653l.11-.076.003-1.438.004-1.438H5.61z" fill="url(#j)" transform="translate(0 -1028.362)"/><g transform="matrix(.16596 0 0 .16596 11.453 -165.905)" clip-path="url(#k)" stroke="#fff" stroke-width="3.013"><path d="M-85.32 1109.05c4.205 2.368 9.49 4.507 14.625 4.5 5.136-.01 10.042-2.253 14.448-4.462 4.027 2.406 9.312 4.545 14.447 4.538 5.136-.01 10.042-2.253 14.43-4.518 4.013 2.35 9.297 4.488 14.432 4.48 5.136-.01 10.042-2.252 14.46-4.48 4.04 2.386 9.324 4.525 14.46 4.518 5.135-.01 10.04-2.253 14.42-4.515 4.003 2.353 9.288 4.492 14.423 4.485 5.136-.01 10.042-2.253 14.344-4.515 3.923 2.352 9.207 4.49 14.343 4.484 5.135-.01 10.04-2.254 14.625-4.5" fill="none" stroke-width="4.821"/></g><g transform="matrix(.16596 0 0 .16596 11.453 -163.25)" clip-path="url(#l)" stroke="#fff" stroke-width="3.013"><path d="M-85.32 1109.05c4.205 2.368 9.49 4.507 14.625 4.5 5.136-.01 10.042-2.253 14.448-4.462 4.027 2.406 9.312 4.545 14.447 4.538 5.136-.01 10.042-2.253 14.43-4.518 4.013 2.35 9.297 4.488 14.432 4.48 5.136-.01 10.042-2.252 14.46-4.48 4.04 2.386 9.324 4.525 14.46 4.518 5.135-.01 10.04-2.253 14.42-4.515 4.003 2.353 9.288 4.492 14.423 4.485 5.136-.01 10.042-2.253 14.344-4.515 3.923 2.352 9.207 4.49 14.343 4.484 5.135-.01 10.04-2.254 14.625-4.5" fill="none" stroke-width="4.821"/></g><path d="M10.79 5.64l-.923 1.645-.918 1.64h1.24c.007-.038.128-.432.29-.946l.31-.974.425-.012.424-.01.003-.285.002-.288h-.336c-.294 0-.336 0-.33-.014.002-.01.054-.176.116-.37.062-.197.116-.363.12-.373.004-.013-.024-.014-.212-.014h-.215zm6.116 2.007l-.57 1.015-.553.987h2.74V7.647h-1.618z" fill="#b3b3b3"/></svg>