<svg xmlns="http://www.w3.org/2000/svg" xmlns:xlink="http://www.w3.org/1999/xlink" width="24" height="24" viewBox="0 0 24 24"><defs><linearGradient id="f"><stop offset="0" stop-color="#ff7215"/><stop offset="1" stop-color="#fdff81"/></linearGradient><linearGradient id="a"><stop offset="0" stop-color="#b30101" stop-opacity=".996"/><stop offset="1" stop-color="#fa4667" stop-opacity=".996"/></linearGradient><linearGradient id="b"><stop offset="0"/><stop offset="1" stop-opacity="0"/></linearGradient><linearGradient id="d"><stop offset="0" stop-color="#1f58b6"/><stop offset="1" stop-color="#7aa4e8"/></linearGradient><radialGradient xlink:href="#a" id="g" cx="6.393" cy="15.165" fx="6.393" fy="15.165" r="11.932" gradientUnits="userSpaceOnUse" gradientTransform="matrix(1.4121 -1.10457 1.0703 1.3683 -14.652 5.117)"/><linearGradient xlink:href="#b" id="h" x1="4.943" y1="20.047" x2="30.151" y2="-6.266" gradientUnits="userSpaceOnUse"/><radialGradient xlink:href="#d" id="c" gradientUnits="userSpaceOnUse" gradientTransform="matrix(1.4121 -1.10457 1.0703 1.3683 -14.652 5.117)" cx="6.393" cy="15.165" fx="6.393" fy="15.165" r="11.932"/><radialGradient xlink:href="#d" id="e" gradientUnits="userSpaceOnUse" gradientTransform="matrix(1.4121 -1.10457 1.0703 1.3683 -14.652 5.117)" cx="6.393" cy="15.165" fx="6.393" fy="15.165" r="11.932"/><clipPath id="i"><circle style="isolation:auto;mix-blend-mode:normal" cx="12" cy="1040.362" r="11.081" color="#000" overflow="visible" fill="red" fill-rule="evenodd" stroke-linecap="square" stroke-dashoffset=".85"/></clipPath><linearGradient xlink:href="#f" id="j" x1="-203.319" y1="1016.848" x2="-203.319" y2="967.584" gradientUnits="userSpaceOnUse"/><linearGradient xlink:href="#f" id="k" x1="-181.774" y1="1016.618" x2="-181.669" y2="997.167" gradientUnits="userSpaceOnUse"/></defs><g color="#000" fill-rule="evenodd"><path d="M23.932 12A11.932 11.932 0 0 1 12 23.932 11.932 11.932 0 0 1 .068 12 11.932 11.932 0 0 1 12 .068 11.932 11.932 0 0 1 23.932 12z" style="isolation:auto;mix-blend-mode:normal" overflow="visible" fill="url(#g)"/><path d="M12.047.006C5.437.006.067 5.374.067 11.984c0 6.61 5.37 11.98 11.98 11.98s11.978-5.37 11.978-11.98S18.657.006 12.047.006zm0 .963c6.09 0 11.015 4.925 11.015 11.014 0 6.09-4.926 11.016-11.015 11.016A11.008 11.008 0 0 1 1.03 11.984C1.03 5.894 5.958.97 12.048.97z" style="line-height:normal;text-indent:0;text-align:start;text-decoration-line:none;text-decoration-style:solid;text-decoration-color:#000;text-transform:none;block-progression:tb;isolation:auto;mix-blend-mode:normal" font-weight="400" font-family="sans-serif" white-space="normal" overflow="visible" opacity=".096" fill="url(#h)"/><ellipse transform="translate(-.067 -1028.41)" style="isolation:auto;mix-blend-mode:normal" cx="12.226" cy="1055.095" rx="14.844" ry="12.969" clip-path="url(#i)" overflow="visible" fill="#500" fill-opacity=".996"/></g><g fill="#2b0000"><path d="M4.864 19.913c-.65-.396-.765-.775-.765-2.49v-1.526H5.436v1.25c0 .933.047 1.317.188 1.52l.19.27h6.173c5.827 0 6.185-.014 6.375-.224.16-.177.2-.483.2-1.52v-1.296h1.338v1.624c0 1.465-.024 1.658-.253 1.95-.55.698-.364.68-7.67.68-6.454 0-6.74-.01-7.113-.237z"/><path d="M7.26 16.77v-1.097l.352-.078c.248-.054.81.073 1.885.424.842.275 1.53.52 1.53.543 0 .024-.78.302-1.732.618-.952.317-1.8.6-1.884.632-.113.042-.15-.215-.15-1.042zM11.97 16.08l-4.71-1.577v-1.075c0-.8.038-1.064.15-1.035.538.14 9.167 3.066 9.245 3.136.052.046.08.545.06 1.107l-.035 1.022-4.71-1.58zM14.592 14.034c-.815-.28-1.51-.537-1.545-.573-.034-.034.782-.344 1.815-.687l1.88-.623v1.086c0 1.055-.01 1.09-.313 1.205-.173.066-.323.115-.335.11a375.3 375.3 0 0 0-1.503-.516zM10.384 12.634c-1.062-.366-1.337-.632-1.875-1.806-.592-1.29-.402-2.47.574-3.562 1.422-1.592 1.884-2.47 1.794-3.413l-.057-.593.484.27c.725.408 1.615 1.446 1.854 2.165.326.982.213 2.04-.337 3.152-.247.5-.642 1.176-.876 1.5-.55.76-.737 1.436-.582 2.116.065.284.085.512.044.507-.04-.005-.5-.157-1.022-.336zM12.196 12.462c-.126-.672.12-1.292.948-2.39.302-.4.62-1.035.81-1.62l.313-.962.38.434c.47.535.682 1.274.574 2.008-.093.64-.678 1.94-.997 2.218-.187.162-1.626.708-1.868.708-.047 0-.118-.178-.16-.396z"/></g><path d="M4.864 18.95c-.65-.395-.765-.775-.765-2.49v-1.526H5.436v1.25c0 .933.047 1.317.188 1.52l.19.27h6.173c5.827 0 6.185-.013 6.375-.223.16-.177.2-.482.2-1.52v-1.296h1.338v1.625c0 1.462-.024 1.655-.253 1.946-.55.7-.364.683-7.67.682-6.454 0-6.74-.01-7.113-.238z" fill="#b3b3b3"/><path d="M7.26 15.808V14.71l.352-.077c.248-.055.81.072 1.885.424.842.275 1.53.52 1.53.544 0 .024-.78.302-1.732.618-.952.317-1.8.6-1.884.63-.113.043-.15-.214-.15-1.04z" fill="#b3b3b3"/><path d="M11.97 15.118L7.26 13.54v-1.074c0-.8.038-1.065.15-1.035.538.14 9.167 3.067 9.245 3.136.052.048.08.546.06 1.11l-.035 1.02-4.71-1.578z" fill="#e6e6e6"/><path d="M14.592 13.07c-.815-.278-1.51-.535-1.545-.57-.034-.037.782-.347 1.815-.69l1.88-.623v1.087c0 1.054-.01 1.09-.313 1.204-.173.066-.323.115-.335.11a375.3 375.3 0 0 0-1.503-.517z" fill="#b3b3b3"/><path d="M-205.328 1020.858c-8.74-3.013-11.007-5.196-15.428-14.853-4.865-10.625-3.3-20.317 4.726-29.304 11.702-13.1 15.503-20.33 14.76-28.076l-.47-4.883 3.976 2.23c5.968 3.35 13.287 11.893 15.25 17.803 2.683 8.077 1.753 16.78-2.77 25.928-2.04 4.126-5.286 9.678-7.216 12.34-4.53 6.248-6.062 11.817-4.785 17.41.533 2.34.695 4.216.358 4.173-.336-.043-4.116-1.287-8.4-2.765z" fill="url(#j)" transform="translate(35.343 -112.42) scale(.12156)"/><path d="M-190.426 1019.444c-1.037-5.527.986-10.625 7.802-19.66 2.485-3.296 5.096-8.52 6.662-13.33l2.576-7.913 3.132 3.568c3.87 4.41 5.605 10.483 4.718 16.522-.775 5.274-5.586 15.963-8.21 18.244-1.544 1.34-13.382 5.827-15.375 5.827-.383 0-.97-1.464-1.306-3.256z" fill="url(#k)" transform="translate(35.343 -112.42) scale(.12156)"/></svg>