<svg xmlns="http://www.w3.org/2000/svg" xmlns:xlink="http://www.w3.org/1999/xlink" width="24" height="24" viewBox="0 0 24 24"><defs><linearGradient id="f"><stop offset="0" stop-color="#fff900"/><stop offset="1" stop-color="#efa"/></linearGradient><linearGradient id="a"><stop offset="0" stop-color="#e35f00" stop-opacity=".996"/><stop offset="1" stop-color="#ff950d" stop-opacity=".996"/></linearGradient><linearGradient id="b"><stop offset="0"/><stop offset="1" stop-opacity="0"/></linearGradient><linearGradient id="d"><stop offset="0" stop-color="#1f58b6"/><stop offset="1" stop-color="#7aa4e8"/></linearGradient><radialGradient xlink:href="#a" id="g" cx="6.393" cy="15.165" fx="6.393" fy="15.165" r="11.932" gradientUnits="userSpaceOnUse" gradientTransform="matrix(1.4121 -1.10457 1.0703 1.3683 -14.652 5.117)"/><linearGradient xlink:href="#b" id="h" x1="4.943" y1="20.047" x2="30.151" y2="-6.266" gradientUnits="userSpaceOnUse"/><radialGradient xlink:href="#d" id="c" gradientUnits="userSpaceOnUse" gradientTransform="matrix(1.4121 -1.10457 1.0703 1.3683 -14.652 5.117)" cx="6.393" cy="15.165" fx="6.393" fy="15.165" r="11.932"/><radialGradient xlink:href="#d" id="e" gradientUnits="userSpaceOnUse" gradientTransform="matrix(1.4121 -1.10457 1.0703 1.3683 -14.652 5.117)" cx="6.393" cy="15.165" fx="6.393" fy="15.165" r="11.932"/><linearGradient xlink:href="#f" id="j" x1="-203.319" y1="1016.848" x2="-203.319" y2="967.584" gradientUnits="userSpaceOnUse"/><linearGradient xlink:href="#f" id="k" x1="-181.774" y1="1016.618" x2="-181.669" y2="997.167" gradientUnits="userSpaceOnUse"/><clipPath id="i"><circle style="isolation:auto;mix-blend-mode:normal" cx="12" cy="1040.362" r="11.081" color="#000" overflow="visible" fill="red" fill-rule="evenodd" stroke-linecap="square" stroke-dashoffset=".85"/></clipPath></defs><g color="#000" fill-rule="evenodd"><path d="M23.932 12A11.932 11.932 0 0 1 12 23.932 11.932 11.932 0 0 1 .068 12 11.932 11.932 0 0 1 12 .068 11.932 11.932 0 0 1 23.932 12z" style="isolation:auto;mix-blend-mode:normal" overflow="visible" fill="url(#g)"/><path d="M12.047.006C5.437.006.067 5.374.067 11.984c0 6.61 5.37 11.98 11.98 11.98s11.978-5.37 11.978-11.98S18.657.006 12.047.006zm0 .963c6.09 0 11.015 4.925 11.015 11.014 0 6.09-4.926 11.016-11.015 11.016A11.008 11.008 0 0 1 1.03 11.984C1.03 5.894 5.958.97 12.048.97z" style="line-height:normal;text-indent:0;text-align:start;text-decoration-line:none;text-decoration-style:solid;text-decoration-color:#000;text-transform:none;block-progression:tb;isolation:auto;mix-blend-mode:normal" font-weight="400" font-family="sans-serif" white-space="normal" overflow="visible" opacity=".096" fill="url(#h)"/></g><g transform="translate(0 -1028.362)"><ellipse transform="translate(.12 -.15)" style="isolation:auto;mix-blend-mode:normal" cx="12.226" cy="1055.095" rx="14.844" ry="12.969" clip-path="url(#i)" color="#000" overflow="visible" fill="#500" fill-opacity=".996" fill-rule="evenodd"/><g fill="#2b0000"><path d="M5.052 1048.174c-.65-.396-.766-.775-.766-2.49v-1.526h1.338v1.25c0 .933.047 1.317.188 1.52l.19.27h6.173c5.827 0 6.185-.014 6.375-.224.16-.177.2-.483.2-1.52v-1.296h1.338v1.624c0 1.464-.025 1.657-.254 1.948-.55.7-.364.682-7.67.682-6.454 0-6.74-.01-7.112-.238z"/><path d="M7.446 1045.03v-1.096l.353-.078c.247-.054.81.073 1.884.424.842.276 1.53.52 1.53.544 0 .024-.78.302-1.732.618s-1.8.6-1.884.63c-.114.043-.152-.214-.152-1.04zM12.157 1044.342l-4.71-1.578v-1.075c0-.8.038-1.065.15-1.036.538.14 9.167 3.066 9.245 3.136.052.047.08.546.06 1.108l-.035 1.022-4.71-1.578zM14.78 1042.294c-.816-.278-1.51-.536-1.545-.572-.035-.035.78-.345 1.814-.688l1.878-.623v1.087c0 1.054-.01 1.09-.312 1.205-.172.065-.322.114-.334.11a375.3 375.3 0 0 0-1.503-.518zM10.572 1040.895c-1.063-.366-1.338-.632-1.876-1.806-.59-1.292-.4-2.47.575-3.563 1.423-1.592 1.885-2.47 1.795-3.413l-.057-.593.483.272c.726.407 1.616 1.445 1.855 2.164.326.982.213 2.04-.337 3.152-.248.5-.643 1.176-.877 1.5-.55.76-.736 1.436-.58 2.116.064.284.084.512.043.507-.04-.004-.5-.156-1.02-.335zM12.383 1040.723c-.126-.672.12-1.292.948-2.39.303-.4.62-1.035.81-1.62l.314-.962.38.435c.472.535.682 1.274.574 2.008-.094.64-.68 1.94-.998 2.217-.187.163-1.626.71-1.868.71-.047 0-.118-.18-.16-.397z"/></g><path d="M5.052 1047.21c-.65-.394-.766-.774-.766-2.49v-1.525h1.338v1.25c0 .933.047 1.317.188 1.52l.19.27h6.173c5.827 0 6.185-.013 6.375-.223.16-.178.2-.483.2-1.52v-1.297h1.338v1.625c0 1.463-.025 1.656-.254 1.947-.55.7-.364.683-7.67.682-6.454 0-6.74-.01-7.112-.24z" fill="#b3b3b3"/><path d="M7.446 1044.07v-1.1l.353-.076c.247-.055.81.072 1.884.424.842.275 1.53.52 1.53.544 0 .023-.78.3-1.732.617-.952.315-1.8.6-1.884.63-.114.042-.152-.215-.152-1.04z" fill="#b3b3b3"/><path d="M12.157 1043.38l-4.71-1.58v-1.073c0-.8.038-1.065.15-1.036.538.14 9.167 3.068 9.245 3.137.052.048.08.546.06 1.11l-.035 1.02-4.71-1.578z" fill="#e6e6e6"/><path d="M14.78 1041.332c-.816-.28-1.51-.537-1.545-.572-.035-.036.78-.346 1.814-.69l1.878-.622v1.086c0 1.055-.01 1.09-.312 1.205-.172.065-.322.114-.334.108a375.3 375.3 0 0 0-1.503-.516z" fill="#b3b3b3"/><path d="M-205.328 1020.858c-8.74-3.013-11.007-5.196-15.428-14.853-4.865-10.625-3.3-20.317 4.726-29.304 11.702-13.1 15.503-20.33 14.76-28.076l-.47-4.883 3.976 2.23c5.968 3.35 13.287 11.893 15.25 17.803 2.683 8.077 1.753 16.78-2.77 25.928-2.04 4.126-5.286 9.678-7.216 12.34-4.53 6.248-6.062 11.817-4.785 17.41.533 2.34.695 4.216.358 4.173-.336-.043-4.116-1.287-8.4-2.765z" fill="url(#j)" transform="translate(35.53 915.84) scale(.12156)"/><path d="M-190.426 1019.444c-1.037-5.527.986-10.625 7.802-19.66 2.485-3.296 5.096-8.52 6.662-13.33l2.576-7.913 3.132 3.568c3.87 4.41 5.605 10.483 4.718 16.522-.775 5.274-5.586 15.963-8.21 18.244-1.544 1.34-13.382 5.827-15.375 5.827-.383 0-.97-1.464-1.306-3.256z" fill="url(#k)" transform="translate(35.53 915.84) scale(.12156)"/></g></svg>