<svg xmlns="http://www.w3.org/2000/svg" xmlns:xlink="http://www.w3.org/1999/xlink" width="24" height="24" viewBox="0 0 24 24"><defs><linearGradient id="b"><stop offset="0"/><stop offset="1" stop-opacity="0"/></linearGradient><linearGradient id="a"><stop offset="0" stop-color="#1f58b6"/><stop offset="1" stop-color="#7aa4e8"/></linearGradient><radialGradient xlink:href="#a" id="e" cx="6.393" cy="15.165" fx="6.393" fy="15.165" r="11.932" gradientUnits="userSpaceOnUse" gradientTransform="matrix(1.4121 -1.10457 1.0703 1.3683 -14.652 5.117)"/><linearGradient xlink:href="#b" id="f" x1="4.943" y1="20.047" x2="30.151" y2="-6.266" gradientUnits="userSpaceOnUse"/><radialGradient xlink:href="#a" id="c" gradientUnits="userSpaceOnUse" gradientTransform="matrix(1.4121 -1.10457 1.0703 1.3683 -14.652 5.117)" cx="6.393" cy="15.165" fx="6.393" fy="15.165" r="11.932"/><radialGradient xlink:href="#a" id="d" gradientUnits="userSpaceOnUse" gradientTransform="matrix(1.4121 -1.10457 1.0703 1.3683 -14.652 5.117)" cx="6.393" cy="15.165" fx="6.393" fy="15.165" r="11.932"/><clipPath id="g"><circle style="isolation:auto;mix-blend-mode:normal" cx="12" cy="1040.362" r="11.081" color="#000" overflow="visible" fill="red" fill-rule="evenodd" stroke-linecap="square" stroke-dashoffset=".85"/></clipPath></defs><g color="#000" fill-rule="evenodd"><path d="M23.932 12A11.932 11.932 0 0 1 12 23.932 11.932 11.932 0 0 1 .068 12 11.932 11.932 0 0 1 12 .068 11.932 11.932 0 0 1 23.932 12z" style="isolation:auto;mix-blend-mode:normal" overflow="visible" fill="url(#e)"/><path d="M12.047.006C5.437.006.067 5.374.067 11.984c0 6.61 5.37 11.98 11.98 11.98s11.978-5.37 11.978-11.98S18.657.006 12.047.006zm0 .963c6.09 0 11.015 4.925 11.015 11.014 0 6.09-4.926 11.016-11.015 11.016A11.008 11.008 0 0 1 1.03 11.984C1.03 5.894 5.958.97 12.048.97z" style="line-height:normal;text-indent:0;text-align:start;text-decoration-line:none;text-decoration-style:solid;text-decoration-color:#000;text-transform:none;block-progression:tb;isolation:auto;mix-blend-mode:normal" font-weight="400" font-family="sans-serif" white-space="normal" overflow="visible" opacity=".096" fill="url(#f)"/></g><g transform="translate(0 -1028.362)"><path d="M1867.018 1415.92c-4.91-1.234-11.752-5.037-11.33-6.3.175-.525 2.446-1.496 5.046-2.157 5.31-1.348 9.237-4.533 11.093-8.995.687-1.65 2.016-7.217 2.955-12.372.94-5.154 2.62-11.16 3.736-13.35 3.097-6.07 9.4-12.322 14.74-14.62 5.888-2.532 16.04-3.605 22.35-2.36l4.703.926 1.475-4.325c4.827-14.167 18.99-23.365 34.11-22.152 7.94.638 14.246 3.49 20.37 9.22 6.793 6.353 9.57 12.892 9.61 22.634.027 6.745-.364 8.371-3.47 14.46-10.528 20.64-38.17 24.068-54.042 6.702-2.727-2.984-4.958-5.85-4.958-6.37 0-1.71-5.846 2.037-8.4 5.385-1.376 1.805-3.92 6.643-5.656 10.75-3.055 7.233-6.723 13.077-9.904 15.78-.848.72-4.334 2.666-7.747 4.324-6.912 3.358-17.65 4.584-24.682 2.82z"/><ellipse style="isolation:auto;mix-blend-mode:normal" cx="12.226" cy="1055.095" rx="14.844" ry="12.969" clip-path="url(#g)" color="#000" overflow="visible" fill="#2c4b7e" fill-rule="evenodd"/><g transform="matrix(.02415 .00897 -.00897 .02415 -7.1 999.878)" fill="#1b3766"><path d="M1397.243 1603.842c6.07 0-10.247-6.245-28.838-30.118-16.487-21.17-17.645-22.423-20-21.63-1.375.465-15.716 4.9-31.87 9.86-25.45 7.812-30.32 9.01-36.5 8.99-8.25-.027-16.29-2.483-22.564-7.923l-4.075-3.228-4.942 4.443c-10.1 9.08-23.843 8.998-34.327-.207-4.27-3.75-5.654-7.023-17.138-40.56-8-23.363-9.584-28.993-9.564-34 .042-10.017 5.5-18.558 14.46-22.63 4.32-1.962 15.387-2.547 18.337-.968 1.518.812 1.69.044 1.724-7.75.034-7.434.444-9.487 2.912-14.59 11.41-23.59 43.617-28.068 60.882-8.463l4.167 4.732 16.5-11.454c20.797-14.435 22.598-15.382 29.21-15.36 15.042.046 23.738 15.842 15.48 28.12-1.4 2.082-11.198 9.53-25.725 19.556-14.7 10.146-23.413 16.775-23.326 17.75.13 1.47 10.39 37.773 10.827 38.31.114.138 9.766-2.675 21.45-6.25 11.788-3.61 23.1-6.5 25.414-6.494 5.08.012 13.24 3.714 16.786 7.614 6.982 7.678 46.348 59.185 47.98 62.776 7.503 16.523-9.177 34.56-27.257 29.474zM1152.15 1459.487l-110-78.715-20-14.868c-152.256-113.19-166.47-125.48-172.097-128.983-8.74-5.442-17.652-14.98-22.226-23.786-9.333-17.97-10.437-37.58-3.554-63.148 12.378-45.978 53.563-106.818 97.045-143.358 46.333-38.935 130.51-91.825 206.83-129.958 40.058-20.013 55.793-26.372 80-32.33 95.177-23.423 213.84-1.154 281.862 52.896 30.605 24.32 56.033 58.36 73.06 97.81 6.628 15.355 15.618 42.875 14.006 42.875-.2 0-3.287-5.858-6.863-13.02-36.926-73.963-91.643-122.326-164.458-145.36-43.155-13.653-93.608-15.792-140.567-5.96-49.112 10.283-91.03 32.436-140.54 74.27-15.37 12.988-42.384 39.32-57.59 56.14-12.566 13.897-29.36 33.77-30.1 35.62l-8.09 10.584c-1.8-.57-42.722 56.984-41.942 58.987l-7.454 9.928c-5.81 8.732-14.848 24.803-17.56 31.223-1.882 4.45-5.604 15.992-8.272 25.648-5.633 20.382-7.256 24.85-11.195 30.81l-2.59 4.126-3.395 3.615-3.69 3.158-4.524 3.708c-6.974 5.715-14.62 4.69-26.818 9.496l-11.003 4.337 15.69 11.626c25.687 19.034 155.19 115.454 155.19 115.454l108.418 71.918z"/><path d="M1374.832 1431.358l140.576-246.302c-12.567 3.514-11.136 10.053-25.26 10.67l-11.758-3.506-6.69-7c-3.68-3.85-13.342-14.315-21.473-23.256-15.413-16.95-39.868-40.99-40.25-39.566l-6.328-4.646-24.634-21.23-28.08-18.802-8.633-5.732-10.077-5.595-43.347-20.585-10.536-4.088-9.695-1.992-14.25-5.818-57.453-12.82-14.89-2.553c-5.077-1.358-41.413-4.714-58.825-5.433-14.34-.592-16.83-.484-16.35.71l-15.35-1.263c-1.92-.277.58-3.023 15.667-17.223 40.374-37.998 73.162-61.45 107.017-76.54 101.307-45.158 218.218-22.214 295.932 58.077 24.055 24.854 40.802 48.635 56.83 80.702l8.17 16.346-.027 15.154c-.024 13.844-.314 16.28-3.35 28.154-4.568 17.864-29.134 69-29.134 69l-139.15 252.638-28.85-5.75.193-1.75z"/><circle r="35" cy="1380.362" cx="1244" style="isolation:auto;mix-blend-mode:normal" color="#000" overflow="visible"/></g><g transform="matrix(.02415 .00897 -.00897 .02415 -6.68 998.89)" fill="#fff"><path d="M1397.243 1603.842c6.07 0-10.247-6.245-28.838-30.118-16.487-21.17-17.645-22.423-20-21.63-1.375.465-15.716 4.9-31.87 9.86-25.45 7.812-30.32 9.01-36.5 8.99-8.25-.027-16.29-2.483-22.564-7.923l-4.075-3.228-4.942 4.443c-10.1 9.08-23.843 8.998-34.327-.207-4.27-3.75-5.654-7.023-17.138-40.56-8-23.363-9.584-28.993-9.564-34 .042-10.017 5.5-18.558 14.46-22.63 4.32-1.962 15.387-2.547 18.337-.968 1.518.812 1.69.044 1.724-7.75.034-7.434.444-9.487 2.912-14.59 11.41-23.59 43.617-28.068 60.882-8.463l4.167 4.732 16.5-11.454c20.797-14.435 22.598-15.382 29.21-15.36 15.042.046 23.738 15.842 15.48 28.12-1.4 2.082-11.198 9.53-25.725 19.556-14.7 10.146-23.413 16.775-23.326 17.75.13 1.47 10.39 37.773 10.827 38.31.114.138 9.766-2.675 21.45-6.25 11.788-3.61 23.1-6.5 25.414-6.494 5.08.012 13.24 3.714 16.786 7.614 6.982 7.678 46.348 59.185 47.98 62.776 7.503 16.523-9.177 34.56-27.257 29.474zM1152.15 1459.487l-110-78.715-20-14.868c-152.256-113.19-166.47-125.48-172.097-128.983-8.74-5.442-17.652-14.98-22.226-23.786-9.333-17.97-10.437-37.58-3.554-63.148 12.378-45.978 53.563-106.818 97.045-143.358 46.333-38.935 130.51-91.825 206.83-129.958 40.058-20.013 55.793-26.372 80-32.33 95.177-23.423 213.84-1.154 281.862 52.896 30.605 24.32 56.033 58.36 73.06 97.81 6.628 15.355 15.618 42.875 14.006 42.875-.2 0-3.287-5.858-6.863-13.02-36.926-73.963-91.643-122.326-164.458-145.36-43.155-13.653-93.608-15.792-140.567-5.96-49.112 10.283-91.03 32.436-140.54 74.27-15.37 12.988-42.384 39.32-57.59 56.14-12.566 13.897-29.36 33.77-30.1 35.62l-8.09 10.584c-1.8-.57-42.722 56.984-41.942 58.987l-7.454 9.928c-5.81 8.732-14.848 24.803-17.56 31.223-1.882 4.45-5.604 15.992-8.272 25.648-5.633 20.382-7.256 24.85-11.195 30.81l-2.59 4.126-3.395 3.615-3.69 3.158-4.524 3.708c-6.974 5.715-14.62 4.69-26.818 9.496l-11.003 4.337 15.69 11.626c25.687 19.034 155.19 115.454 155.19 115.454l108.418 71.918z"/><path d="M1374.832 1431.358l140.576-246.302c-12.567 3.514-11.136 10.053-25.26 10.67l-11.758-3.506-6.69-7c-3.68-3.85-13.342-14.315-21.473-23.256-15.413-16.95-39.868-40.99-40.25-39.566l-6.328-4.646-24.634-21.23-28.08-18.802-8.633-5.732-10.077-5.595-43.347-20.585-10.536-4.088-9.695-1.992-14.25-5.818-57.453-12.82-14.89-2.553c-5.077-1.358-41.413-4.714-58.825-5.433-14.34-.592-16.83-.484-16.35.71l-15.35-1.263c-1.92-.277.58-3.023 15.667-17.223 40.374-37.998 73.162-61.45 107.017-76.54 101.307-45.158 218.218-22.214 295.932 58.077 24.055 24.854 40.802 48.635 56.83 80.702l8.17 16.346-.027 15.154c-.024 13.844-.314 16.28-3.35 28.154-4.568 17.864-29.134 69-29.134 69l-139.15 252.638-28.85-5.75.193-1.75z" fill="#ccc"/><circle r="35" cy="1380.362" cx="1244" style="isolation:auto;mix-blend-mode:normal" color="#000" overflow="visible"/><path d="M1372.695 1433.776l29.586 7.29 145.358-265.418-33.874 11.578z" fill-rule="evenodd"/></g></g></svg>