<svg xmlns="http://www.w3.org/2000/svg" xmlns:xlink="http://www.w3.org/1999/xlink" width="24" height="24" viewBox="0 0 24 24"><defs><linearGradient id="g"><stop offset="0" stop-color="#00fffb"/><stop offset="1" stop-color="#e3feff" stop-opacity="0"/></linearGradient><linearGradient id="f"><stop offset="0" stop-color="#b3f9f7"/><stop offset="1" stop-color="#196181"/></linearGradient><linearGradient id="a"><stop offset="0" stop-color="#7c05fc" stop-opacity=".996"/><stop offset="1" stop-color="#e244fe" stop-opacity=".996"/></linearGradient><linearGradient id="b"><stop offset="0"/><stop offset="1" stop-opacity="0"/></linearGradient><linearGradient id="d"><stop offset="0" stop-color="#1f58b6"/><stop offset="1" stop-color="#7aa4e8"/></linearGradient><radialGradient xlink:href="#a" id="h" cx="6.393" cy="15.165" fx="6.393" fy="15.165" r="11.932" gradientUnits="userSpaceOnUse" gradientTransform="matrix(1.4121 -1.10457 1.0703 1.3683 -14.652 5.117)"/><linearGradient xlink:href="#b" id="i" x1="4.943" y1="20.047" x2="30.151" y2="-6.266" gradientUnits="userSpaceOnUse"/><radialGradient xlink:href="#d" id="c" gradientUnits="userSpaceOnUse" gradientTransform="matrix(1.4121 -1.10457 1.0703 1.3683 -14.652 5.117)" cx="6.393" cy="15.165" fx="6.393" fy="15.165" r="11.932"/><radialGradient xlink:href="#d" id="e" gradientUnits="userSpaceOnUse" gradientTransform="matrix(1.4121 -1.10457 1.0703 1.3683 -14.652 5.117)" cx="6.393" cy="15.165" fx="6.393" fy="15.165" r="11.932"/><clipPath id="j"><circle r="11.026" cy="1040.362" cx="12" style="isolation:auto;mix-blend-mode:normal" color="#000" overflow="visible" fill="#ac9393" stroke-opacity=".428"/></clipPath><linearGradient xlink:href="#f" id="k" x1="11.891" y1="14.172" x2="11.922" y2="15.828" gradientUnits="userSpaceOnUse" gradientTransform="matrix(1.06303 0 0 1.06303 -.758 1027.438)"/><linearGradient xlink:href="#g" id="l" x1="11.999" y1="1039.413" x2="11.988" y2="1032.42" gradientUnits="userSpaceOnUse" gradientTransform="translate(0 -.22)"/></defs><g color="#000" fill-rule="evenodd"><path d="M23.932 12A11.932 11.932 0 0 1 12 23.932 11.932 11.932 0 0 1 .068 12 11.932 11.932 0 0 1 12 .068 11.932 11.932 0 0 1 23.932 12z" style="isolation:auto;mix-blend-mode:normal" overflow="visible" fill="url(#h)"/><path d="M12.047.006C5.437.006.067 5.374.067 11.984c0 6.61 5.37 11.98 11.98 11.98s11.978-5.37 11.978-11.98S18.657.006 12.047.006zm0 .963c6.09 0 11.015 4.925 11.015 11.014 0 6.09-4.926 11.016-11.015 11.016A11.008 11.008 0 0 1 1.03 11.984C1.03 5.894 5.958.97 12.048.97z" style="line-height:normal;text-indent:0;text-align:start;text-decoration-line:none;text-decoration-style:solid;text-decoration-color:#000;text-transform:none;block-progression:tb;isolation:auto;mix-blend-mode:normal" font-weight="400" font-family="sans-serif" white-space="normal" overflow="visible" opacity=".096" fill="url(#i)"/></g><path transform="translate(.09 -1028.387)" style="isolation:auto;mix-blend-mode:normal" clip-path="url(#j)" color="#000" overflow="visible" fill="#1d3153" d="M2.906 1047.612h18.438v4.75H2.906z"/><path d="M9.23 3.62A3.41 3.41 0 0 0 6.1 5.64c-.293.637-.434 1.492-.348 2.098.054.384.09.46.288.626.175.148.446.167.693.05.26-.124.322-.27.367-.858.11-1.447.675-2.3 1.657-2.51.675-.142 1.39.026 1.86.438.263.23.53.672.666 1.104.066.21.114.388.107.396-.008.01-.132-.028-.277-.077-.322-.11-.834-.12-1.21-.022-1.07.278-1.67 1.153-1.68 2.443-.005.56.07.782.314.935.124.078.215.096.417.08.225-.016.28-.043.417-.19.198-.216.272-.485.232-.84-.06-.522.158-.93.582-1.09.184-.07.25-.075.47-.026.287.065.456.21.586.508.07.158.087.38.103 1.257l.012.49v1.715l-1.655.01-3.077-.043c-2.1.01-2.35.014-2.5.087-.212.105-.287.256-.288.573 0 .21.022.276.143.413.163.186.422.27.827.27.337 0 .91.15 1.263.328.464.234.845.547 1.782 1.462 1.26 1.23 1.862 1.604 2.86 1.778.233.04.44.09.46.11.02.02.07.173.114.34.125.49.033.872-.27 1.127-.22.187-.424.26-1.034.366-.916.162-1.117.292-1.117.726 0 .186.1.515.157.52.005 0 .097.03.202.068.278.1 5.36.106 5.597.01.243-.102.365-.29.365-.565 0-.505-.2-.652-.962-.714-.925-.073-1.406-.36-1.53-.91-.054-.244-.05-.303.045-.613.118-.388.078-.36.794-.552.614-.165 1.288-.484 1.746-.828.2-.15.696-.61 1.104-1.022 1.124-1.137 1.592-1.403 2.86-1.627.296-.052.594-.12.662-.15.17-.077.26-.275.26-.56 0-.29-.155-.506-.42-.58-.106-.03-1.094-.053-2.44-.06l-2.263-.013-2.363.045V10.9c.014-.13.017-.374.017-.836 0-1.114.05-1.386.307-1.642.326-.326.933-.322 1.222.01.163.186.225.378.292.908.026.203.07.45.095.55.098.366.44.55.816.437.365-.11.505-.453.46-1.13-.077-1.178-.67-2.038-1.586-2.302-.227-.065-.388-.075-.79-.05a8.756 8.756 0 0 0-.66.058l-.158.03.126-.352c.29-.81.7-1.254 1.365-1.48.255-.085.39-.1.786-.085.416.016.52.038.802.17.825.388 1.252 1.16 1.243 2.248-.004.46.01.563.1.742.126.25.264.326.592.327.297 0 .504-.144.593-.415.09-.268.03-1.395-.092-1.806-.385-1.282-1.17-2.11-2.353-2.478-.305-.095-.457-.112-1.006-.11-.578 0-.69.017-1.03.135-.485.167-.97.468-1.407.872l-.342.316-.386-.365c-.437-.41-.885-.693-1.32-.833a3.7 3.7 0 0 0-1.135-.182zm2.82 9.85c3.58 0 3.997.01 3.96.073-.022.04-.276.324-.564.63-.86.916-1.452 1.327-2.234 1.55-.39.11-1.46.166-1.884.097-.908-.146-1.564-.5-2.363-1.27-.406-.394-.916-.978-.916-1.05 0-.017 1.8-.03 4-.03z" fill="#fff"/><path d="M11.382 1044.262c-.774-.097-1.446-.392-2.118-.93a13.267 13.267 0 0 1-1.08-1.054c-.16-.182-.373-.452-.373-.473 0-.028 1.405-.036 4.76-.03 3.217.01 3.636.014 3.672.05.023.023-.596.698-1 1.092-.68.665-1.246 1.02-1.934 1.22-.15.042-.39.08-.68.11-.243.023-1.095.034-1.246.015z" fill="url(#k)" transform="translate(0 -1028.362)"/><path d="M9.23 1031.28a3.41 3.41 0 0 0-3.13 2.018c-.293.638-.433 1.49-.347 2.097.055.385.088.46.287.627.175.148.446.167.694.05.26-.124.322-.27.367-.858.112-1.447.675-2.3 1.657-2.508.674-.143 1.39.025 1.86.438.264.23.53.67.667 1.103.067.21.114.387.106.395-.008.01-.13-.027-.275-.076-.322-.11-.836-.12-1.213-.02-1.068.277-1.668 1.15-1.678 2.44-.004.56.07.783.312.936.124.078.216.096.418.08.225-.016.28-.042.416-.19.198-.215.273-.485.233-.84-.06-.522.158-.93.582-1.09.184-.07.25-.075.47-.026.286.065.457.21.587.507.068.158.087.38.103 1.258.004.197.007.357.012.49h-.002v2.42h1.322v-1.97c.013-.13.018-.375.018-.837 0-1.115.05-1.387.306-1.643.327-.325.933-.32 1.222.012.163.186.226.378.293.908.026.203.07.45.096.55.1.366.44.55.817.437.365-.11.503-.453.46-1.13-.078-1.18-.67-2.04-1.585-2.302-.227-.065-.39-.075-.79-.05a8.78 8.78 0 0 0-.663.058l-.157.03.127-.352c.29-.81.697-1.255 1.363-1.48.255-.086.39-.1.787-.086.417.016.52.037.803.17.825.388 1.25 1.16 1.242 2.248-.004.46.01.563.1.742.128.25.265.325.593.326.297 0 .503-.143.592-.414.09-.268.03-1.394-.092-1.804-.385-1.284-1.17-2.112-2.353-2.48-.305-.096-.455-.112-1.004-.11-.576 0-.69.017-1.03.135-.485.167-.97.466-1.407.87l-.34.32-.388-.366c-.437-.41-.885-.692-1.32-.833a3.708 3.708 0 0 0-1.135-.184v-.012z" fill="url(#l)" transform="translate(0 -1028.362)"/></svg>