<svg xmlns="http://www.w3.org/2000/svg" xmlns:xlink="http://www.w3.org/1999/xlink" width="24" height="24" viewBox="0 0 24 24"><defs><linearGradient id="a"><stop offset="0" stop-color="#b30101" stop-opacity=".996"/><stop offset="1" stop-color="#fa4667" stop-opacity=".996"/></linearGradient><linearGradient id="b"><stop offset="0"/><stop offset="1" stop-opacity="0"/></linearGradient><linearGradient id="d"><stop offset="0" stop-color="#1f58b6"/><stop offset="1" stop-color="#7aa4e8"/></linearGradient><radialGradient xlink:href="#a" id="f" cx="6.393" cy="15.165" fx="6.393" fy="15.165" r="11.932" gradientUnits="userSpaceOnUse" gradientTransform="matrix(1.4121 -1.10457 1.0703 1.3683 -14.652 5.117)"/><linearGradient xlink:href="#b" id="g" x1="4.943" y1="20.047" x2="30.151" y2="-6.266" gradientUnits="userSpaceOnUse"/><radialGradient xlink:href="#d" id="c" gradientUnits="userSpaceOnUse" gradientTransform="matrix(1.4121 -1.10457 1.0703 1.3683 -14.652 5.117)" cx="6.393" cy="15.165" fx="6.393" fy="15.165" r="11.932"/><radialGradient xlink:href="#d" id="e" gradientUnits="userSpaceOnUse" gradientTransform="matrix(1.4121 -1.10457 1.0703 1.3683 -14.652 5.117)" cx="6.393" cy="15.165" fx="6.393" fy="15.165" r="11.932"/></defs><g color="#000" fill-rule="evenodd"><path d="M23.932 12A11.932 11.932 0 0 1 12 23.932 11.932 11.932 0 0 1 .068 12 11.932 11.932 0 0 1 12 .068 11.932 11.932 0 0 1 23.932 12z" style="isolation:auto;mix-blend-mode:normal" overflow="visible" fill="url(#f)"/><path d="M12.047.006C5.437.006.067 5.374.067 11.984c0 6.61 5.37 11.98 11.98 11.98s11.978-5.37 11.978-11.98S18.657.006 12.047.006zm0 .963c6.09 0 11.015 4.925 11.015 11.014 0 6.09-4.926 11.016-11.015 11.016A11.008 11.008 0 0 1 1.03 11.984C1.03 5.894 5.958.97 12.048.97z" style="line-height:normal;text-indent:0;text-align:start;text-decoration-line:none;text-decoration-style:solid;text-decoration-color:#000;text-transform:none;block-progression:tb;isolation:auto;mix-blend-mode:normal" font-weight="400" font-family="sans-serif" white-space="normal" overflow="visible" opacity=".096" fill="url(#g)"/></g><path d="M4.97 19.34c.208.15.674-.334.696-.723.027-.48-.555-.805-1-.558-.428.238-.485.93-.09 1.085.15.058.325.146.393.195zm-1.144.127c-.554-.712-.25-1.73.65-2.173.474-.233 1.277-.084 1.59.297.182.22 1.01.26 5.216.256 2.75-.01 5.17-.07 5.376-.146.207-.077.652-.31.988-.52 1.003-.62 1.986-.42 2.644.543.138.202.22.41.183.46-.037.05-.38.036-.765-.03-.764-.134-.996-.01-1.15.61-.117.473.11.7.892.892.5.122.506.128.32.38-.442.598-1.593.59-2.423-.02a3.177 3.177 0 0 0-1.19-.506c-1.102-.207-9.826-.124-9.993.095-.213.28-.893.586-1.19.537a1.83 1.83 0 0 1-1.148-.675zM17.516 7.578c0-.175-.725-2.388-.92-2.805l-.22-.474H7.71l-.16.25c-.086.138-.34.828-.563 1.533-.223.705-.427 1.345-.453 1.422-.038.11 1.104.14 5.468.14 3.034 0 5.516-.03 5.516-.067zm2.176 2.696c.205-.134.278-.28.278-.556 0-.55-.21-.663-1.094-.6-1.29.092-2.475.883-1.943 1.297.278.216 2.378.11 2.76-.14zm-12.61.202c.518-.2-.132-.932-1.077-1.212-.685-.204-1.55-.222-1.736-.037-.176.174-.174.944 0 1.052.344.21 2.396.354 2.81.195zm-3.545.22c-.115-.836-.083-1.48.09-1.814.156-.3.688-.814 1.132-1.092.176-.11.09-.134-.528-.14-.45 0-.78-.06-.848-.145-.15-.193-.365-1.107-.29-1.23.07-.112 1.51 0 1.905.154.202.076.25.18.25.542 0 .247.038.45.084.448.046 0 .326-.753.622-1.674.424-1.318.616-1.756.905-2.062l.368-.39h4.74c4.643 0 4.744 0 5.035.235.39.307.752 1.04 1.118 2.274.395 1.326.518 1.627.636 1.553.054-.034.1-.254.1-.49 0-.485 0-.486 1.308-.622.83-.086.902 0 .675.805l-.152.538-.75.056-.752.056.523.39c.286.215.618.58.736.81.188.366.203.532.12 1.338l-.095.92-8.43.028-8.432.03-.07-.52zm10.68 2.01c.098-.037.177-.188.177-.335v-.265H9.712v.27c0 .147.06.294.138.325.2.08 4.158.087 4.368.01zM4.5 15.693c-.537-.076-.66-.44-.734-2.16-.037-.878-.1-1.71-.14-1.847l-.075-.25h16.896l-.08.64a29.35 29.35 0 0 0-.128 1.91c-.026.695-.078 1.315-.116 1.376-.134.218-.775.4-1.267.358-.786-.065-1.004-.392-1.004-1.503v-.886H6.143v.95c0 .798-.035.982-.223 1.17-.123.123-.312.227-.42.232-.106.01-.32.017-.473.028-.153.01-.39 0-.527-.016z" fill="#500"/><path d="M3.52 10.13c-.114-.835-.08-1.478.092-1.813.155-.3.687-.814 1.13-1.092.18-.11.092-.133-.526-.14-.45 0-.78-.06-.848-.145-.15-.192-.365-1.107-.29-1.23.07-.112 1.51 0 1.905.154.203.077.25.18.25.544 0 .247.04.448.085.448.046 0 .326-.754.622-1.674.424-1.318.616-1.756.905-2.063l.367-.39h4.74c4.643 0 4.744 0 5.035.235.39.307.752 1.04 1.118 2.275.394 1.325.517 1.626.635 1.553.054-.034.1-.255.1-.492 0-.483 0-.483 1.308-.62.83-.086.903 0 .676.806l-.152.538-.75.056-.752.055.523.39c.287.215.62.58.737.81.188.366.203.532.12 1.338l-.094.92-8.432.028-8.432.03-.07-.518z" fill="#80ffe6"/><path d="M17.5 7.013c0-.174-.725-2.387-.92-2.805l-.22-.474H7.694l-.16.25c-.087.14-.34.83-.564 1.534a181.19 181.19 0 0 1-.454 1.422c-.038.11 1.104.14 5.468.14 3.034 0 5.516-.03 5.516-.067z" fill="#e22f44" fill-opacity=".996"/><path d="M3.51 8.415c-.147.35-.173.954-.065 1.74l.072.517 8.475-.028 8.476-.028.096-.92c.08-.76.064-.955-.096-1.282H3.51z" fill="#2ca089"/><path d="M19.676 9.845c.205-.134.278-.28.278-.556 0-.55-.208-.665-1.094-.6-1.29.09-2.475.882-1.943 1.295.28.217 2.378.11 2.76-.14zM7.065 10.046c.52-.2-.13-.93-1.076-1.212-.686-.203-1.552-.22-1.737-.036-.175.174-.173.944.002 1.052.343.212 2.395.355 2.81.196z" fill="#fff"/><path d="M4.484 15.13c-.537-.077-.66-.443-.734-2.162-.037-.877-.1-1.708-.14-1.846l-.074-.25H20.43l-.08.64c-.044.353-.1 1.21-.127 1.908-.027.697-.08 1.317-.117 1.378-.134.218-.775.398-1.267.357-.787-.065-1.005-.39-1.005-1.502v-.886H6.127v.948c0 .8-.035.982-.223 1.17-.122.123-.31.228-.418.233-.107.01-.32.017-.474.027-.152.01-.39 0-.526-.016z" fill="#164f44"/><path d="M14.202 12.14c.097-.036.176-.186.176-.333v-.267H9.696v.27c0 .148.06.294.138.325.2.08 4.158.087 4.368.01z" fill="#fff"/><path d="M3.73 12.75c.003.08.01.09.013.173.075 1.784.205 2.164.762 2.243.14.017.388.027.547.016.16-.01.38-.017.49-.027.113-.01.308-.114.436-.242.195-.195.23-.384.23-1.214v-.948h-2.48zM17.805 12.765v.865c0 1.133.22 1.467 1.015 1.533.5.043 1.147-.143 1.284-.365.038-.062.09-.693.117-1.403.01-.23.03-.388.043-.63h-2.458z" fill="#b3b3b3"/><path d="M4.938 18.907c.21.15.675-.333.697-.723.027-.48-.555-.805-1-.558-.428.24-.485.932-.09 1.087.15.058.325.145.393.194zm-1.143.128c-.554-.712-.25-1.73.65-2.173.474-.234 1.278-.084 1.59.296.182.22 1.01.26 5.216.255 2.75-.01 5.17-.07 5.377-.146.207-.077.652-.31.99-.52 1-.62 1.984-.42 2.642.543.137.202.22.41.182.46-.037.05-.38.037-.765-.03-.764-.134-.996-.01-1.15.61-.117.474.11.7.892.892.5.123.505.128.32.38-.442.598-1.594.59-2.424-.02a3.177 3.177 0 0 0-1.19-.505c-1.102-.207-9.826-.123-9.993.096-.213.28-.892.585-1.19.536a1.83 1.83 0 0 1-1.148-.675z" fill="#f9f9f9"/></svg>