<svg xmlns="http://www.w3.org/2000/svg" xmlns:xlink="http://www.w3.org/1999/xlink" width="24" height="24" viewBox="0 0 24 24"><defs><linearGradient id="a"><stop offset="0" stop-color="#177217" stop-opacity=".996"/><stop offset="1" stop-color="#4eab46" stop-opacity=".996"/></linearGradient><linearGradient id="b"><stop offset="0"/><stop offset="1" stop-opacity="0"/></linearGradient><linearGradient id="d"><stop offset="0" stop-color="#1f58b6"/><stop offset="1" stop-color="#7aa4e8"/></linearGradient><radialGradient xlink:href="#a" id="f" cx="6.393" cy="15.165" fx="6.393" fy="15.165" r="11.932" gradientUnits="userSpaceOnUse" gradientTransform="matrix(1.4121 -1.10457 1.0703 1.3683 -14.652 5.117)"/><linearGradient xlink:href="#b" id="g" x1="4.943" y1="20.047" x2="30.151" y2="-6.266" gradientUnits="userSpaceOnUse"/><radialGradient xlink:href="#d" id="c" gradientUnits="userSpaceOnUse" gradientTransform="matrix(1.4121 -1.10457 1.0703 1.3683 -14.652 5.117)" cx="6.393" cy="15.165" fx="6.393" fy="15.165" r="11.932"/><radialGradient xlink:href="#d" id="e" gradientUnits="userSpaceOnUse" gradientTransform="matrix(1.4121 -1.10457 1.0703 1.3683 -14.652 5.117)" cx="6.393" cy="15.165" fx="6.393" fy="15.165" r="11.932"/><clipPath id="h"><circle style="isolation:auto;mix-blend-mode:normal" cx="11.999" cy="12.001" r="10.96" color="#000" overflow="visible" fill="maroon" stroke-opacity=".428"/></clipPath></defs><g color="#000" fill-rule="evenodd"><path d="M23.932 12A11.932 11.932 0 0 1 12 23.932 11.932 11.932 0 0 1 .068 12 11.932 11.932 0 0 1 12 .068 11.932 11.932 0 0 1 23.932 12z" style="isolation:auto;mix-blend-mode:normal" overflow="visible" fill="url(#f)"/><path d="M12.047.006C5.437.006.067 5.374.067 11.984c0 6.61 5.37 11.98 11.98 11.98s11.978-5.37 11.978-11.98S18.657.006 12.047.006zm0 .963c6.09 0 11.015 4.925 11.015 11.014 0 6.09-4.926 11.016-11.015 11.016A11.008 11.008 0 0 1 1.03 11.984C1.03 5.894 5.958.97 12.048.97z" style="line-height:normal;text-indent:0;text-align:start;text-decoration-line:none;text-decoration-style:solid;text-decoration-color:#000;text-transform:none;block-progression:tb;isolation:auto;mix-blend-mode:normal" font-weight="400" font-family="sans-serif" white-space="normal" overflow="visible" opacity=".096" fill="url(#g)"/></g><path style="isolation:auto;mix-blend-mode:normal" d="M3.756 17.37a.66.66 0 0 0-.662.663c0 .01.005.02.006.03h-.006v6H21.03v-6c.002-.01.007-.02.007-.03a.662.662 0 0 0-.664-.662H3.756z" clip-path="url(#h)" color="#000" overflow="visible" fill="#250"/><path d="M7.158 19.588a.403.403 0 0 1-.095-.185c-.015-.084-.542-4.848-1.13-10.203a10.94 10.94 0 0 1-.053-.583c-.002-.148.078-.272.206-.316.14-.048 11.695-.048 11.835 0 .133.047.2.16.2.33 0 .077-.05.596-.11 1.152l-.58 5.262c-.257 2.338-.476 4.3-.486 4.36a.4.4 0 0 1-.095.184l-.078.077H7.235l-.077-.077zm2.104-1.847a.87.87 0 0 0 .147-.15c.066-.087.066-.102.066-3.625 0-3.522 0-3.537-.067-3.626-.172-.23-.392-.29-.624-.168-.28.147-.26-.163-.26 3.793 0 3.32.003 3.5.06 3.607.12.232.473.32.676.17zm2.95.025c.086-.04.16-.11.204-.19l.07-.125V10.465l-.072-.106c-.118-.174-.234-.242-.41-.242-.177 0-.294.07-.41.24l-.074.107V17.45l.07.125c.075.132.272.254.41.254a.65.65 0 0 0 .213-.065zm2.98.01a.62.62 0 0 0 .184-.166l.073-.107V10.44l-.074-.106c-.21-.306-.622-.288-.813.036-.063.108-.064.176-.073 3.533-.005 2.257.003 3.467.025 3.547.087.323.4.475.677.33zM5.474 7.145a.84.84 0 0 1-.505-.438.695.695 0 0 1-.095-.4c0-.12.024-.265.053-.332.077-.18.295-.396.483-.482l.17-.076L7.49 5.4l1.913-.016.123-.285a2.715 2.715 0 0 1 1.738-1.572c.21-.066.306-.075.74-.075.433 0 .53.01.74.075.81.254 1.4.79 1.737 1.57l.124.286 1.912.017c1.91.017 1.91.017 2.072.09.426.197.627.645.498 1.11-.05.18-.218.376-.417.488l-.178.1-6.424.01c-6.16.01-6.43.01-6.594-.052zm8.294-1.84c.013-.117-.198-.427-.448-.66-.362-.338-.787-.5-1.31-.5-.364 0-.62.06-.924.22-.4.21-.888.766-.84.96l.02.077 1.746-.01 1.746-.01.01-.082z"/><path d="M7.158 18.86a.403.403 0 0 1-.095-.186c-.015-.084-.542-4.848-1.13-10.202-.03-.257-.052-.52-.053-.584-.002-.147.078-.272.206-.316.14-.05 11.695-.05 11.835 0 .133.046.2.158.2.33 0 .076-.05.595-.11 1.152l-.58 5.26c-.257 2.34-.476 4.3-.486 4.36a.4.4 0 0 1-.095.185l-.078.076H7.235l-.077-.077zm2.104-1.848a.87.87 0 0 0 .147-.15c.066-.087.066-.103.066-3.625 0-3.523 0-3.538-.067-3.626-.172-.23-.392-.288-.624-.167-.28.147-.26-.163-.26 3.794 0 3.32.003 3.5.06 3.607.12.232.473.32.676.168zm2.95.024c.086-.04.16-.11.204-.19l.07-.124V9.736l-.072-.107c-.118-.172-.234-.24-.41-.24-.177 0-.294.068-.41.24l-.074.107v6.984l.07.124c.075.133.272.255.41.255a.65.65 0 0 0 .213-.063zm2.98.01a.62.62 0 0 0 .184-.165l.073-.105V9.71l-.074-.106c-.21-.307-.622-.29-.813.036-.063.107-.064.175-.073 3.533-.005 2.255.003 3.465.025 3.546.087.322.4.474.677.327zM5.474 6.416a.84.84 0 0 1-.505-.437.695.695 0 0 1-.095-.4c0-.123.024-.266.053-.334.077-.18.295-.396.483-.48l.17-.077 1.91-.017 1.913-.017.123-.286a2.715 2.715 0 0 1 1.738-1.57c.21-.067.306-.076.74-.076.433 0 .53.01.74.075.81.254 1.4.788 1.737 1.57l.124.286 1.912.017c1.91.016 1.91.016 2.072.09.426.196.627.643.498 1.108-.05.18-.218.377-.417.49l-.178.1-6.424.01c-6.16.01-6.43.01-6.594-.052zm8.294-1.84c.013-.116-.198-.427-.448-.66-.362-.337-.787-.5-1.31-.5-.364 0-.62.062-.924.22-.4.21-.888.766-.84.96l.02.077 1.746-.01 1.746-.01.01-.082z" fill="#fff"/></svg>