<svg xmlns="http://www.w3.org/2000/svg" xmlns:xlink="http://www.w3.org/1999/xlink" width="24" height="24" viewBox="0 0 24 24"><defs><linearGradient id="f"><stop offset="0" stop-color="#626262"/><stop offset="1" stop-color="silver"/></linearGradient><linearGradient id="a"><stop offset="0" stop-color="#b30101" stop-opacity=".996"/><stop offset="1" stop-color="#fa4667" stop-opacity=".996"/></linearGradient><linearGradient id="b"><stop offset="0"/><stop offset="1" stop-opacity="0"/></linearGradient><linearGradient id="d"><stop offset="0" stop-color="#1f58b6"/><stop offset="1" stop-color="#7aa4e8"/></linearGradient><radialGradient xlink:href="#a" id="g" cx="6.393" cy="15.165" fx="6.393" fy="15.165" r="11.932" gradientUnits="userSpaceOnUse" gradientTransform="matrix(1.4121 -1.10457 1.0703 1.3683 -14.652 5.117)"/><linearGradient xlink:href="#b" id="h" x1="4.943" y1="20.047" x2="30.151" y2="-6.266" gradientUnits="userSpaceOnUse"/><radialGradient xlink:href="#d" id="c" gradientUnits="userSpaceOnUse" gradientTransform="matrix(1.4121 -1.10457 1.0703 1.3683 -14.652 5.117)" cx="6.393" cy="15.165" fx="6.393" fy="15.165" r="11.932"/><radialGradient xlink:href="#d" id="e" gradientUnits="userSpaceOnUse" gradientTransform="matrix(1.4121 -1.10457 1.0703 1.3683 -14.652 5.117)" cx="6.393" cy="15.165" fx="6.393" fy="15.165" r="11.932"/><linearGradient xlink:href="#f" id="i" x1="37.035" y1="1037.049" x2="37.035" y2="1041.115" gradientUnits="userSpaceOnUse"/></defs><g color="#000" fill-rule="evenodd"><path d="M23.932 12A11.932 11.932 0 0 1 12 23.932 11.932 11.932 0 0 1 .068 12 11.932 11.932 0 0 1 12 .068 11.932 11.932 0 0 1 23.932 12z" style="isolation:auto;mix-blend-mode:normal" overflow="visible" fill="url(#g)"/><path d="M12.047.006C5.437.006.067 5.374.067 11.984c0 6.61 5.37 11.98 11.98 11.98s11.978-5.37 11.978-11.98S18.657.006 12.047.006zm0 .963c6.09 0 11.015 4.925 11.015 11.014 0 6.09-4.926 11.016-11.015 11.016A11.008 11.008 0 0 1 1.03 11.984C1.03 5.894 5.958.97 12.048.97z" style="line-height:normal;text-indent:0;text-align:start;text-decoration-line:none;text-decoration-style:solid;text-decoration-color:#000;text-transform:none;block-progression:tb;isolation:auto;mix-blend-mode:normal" font-weight="400" font-family="sans-serif" white-space="normal" overflow="visible" opacity=".096" fill="url(#h)"/></g><path d="M5.046 20.753c0-.528.055-.678.31-.848.15-.1.18-.106.562-.118l.403-.012.002-7.342c0-6.307.007-7.377.048-7.588.117-.602.518-1.15 1.033-1.415.15-.076.352-.158.448-.18.12-.025 1.18-.037 3.33-.037 3.51 0 3.34-.012 3.787.238.262.148.61.498.752.76.05.093.13.275.176.403l.084.232.01 3.677.008 3.678h.275c.32 0 .712.05.966.13.674.205 1.096.743 1.26 1.608.03.148.06.654.08 1.28.016.57.045 1.186.063 1.37.14 1.39.436 1.91 1.023 1.807.19-.034.406-.276.505-.562.246-.716.304-1.413.305-3.648v-1.647l-.745-.81c-.763-.83-.92-1.038-1.056-1.406-.076-.205-.078-.243-.088-1.422l-.01-1.21-.943-1.02c-.933-1.007-.943-1.02-.983-1.214a.705.705 0 0 1 .197-.677c.23-.225.518-.247.79-.062.15.103 2.314 2.458 2.95 3.212.69.816.982 1.27 1.116 1.72l.08.27v3.01c0 3.202-.02 3.745-.164 4.544-.238 1.316-.802 2.096-1.66 2.29-.784.18-1.534-.125-1.987-.807-.46-.694-.7-1.936-.7-3.65-.002-.31-.016-.693-.033-.85-.077-.725-.157-.802-.876-.843l-.367-.022v6.189h.335c.51.002.722.094.87.385.07.132.082.214.095.587l.016.433H5.046v-.433zm9.32-10.74a.786.786 0 0 0 .23-.227l.077-.132.01-2.247.008-2.246-.073-.155a.965.965 0 0 0-.2-.264l-.126-.105-3.085-.012c-3.016-.012-3.09-.012-3.213.06a.69.69 0 0 0-.33.415c-.02.083-.033.914-.033 2.292v2.16l.08.174c.09.194.25.33.435.37.067.013 1.46.022 3.096.02l2.975-.012.153-.095z" fill="#500"/><path d="M5.067 19.428c0-.528.055-.678.31-.848.15-.1.18-.105.562-.118l.402-.012v-7.342c0-6.307.008-7.377.05-7.588.116-.602.516-1.15 1.032-1.415.15-.076.352-.158.448-.18.118-.025 1.18-.037 3.33-.037 3.507 0 3.338-.012 3.786.24.262.145.61.496.75.757.053.094.132.275.18.403L16 3.52l.01 3.678.01 3.677h.274c.32 0 .712.05.966.13.675.205 1.097.743 1.262 1.608.028.15.06.654.077 1.28.017.57.046 1.187.064 1.37.14 1.39.436 1.91 1.023 1.807.19-.034.406-.275.504-.562.247-.715.305-1.412.305-3.647v-1.647l-.744-.81c-.762-.828-.92-1.038-1.055-1.406-.076-.205-.078-.242-.09-1.422l-.01-1.21-.94-1.02c-.934-1.007-.944-1.02-.984-1.214a.705.705 0 0 1 .197-.676c.23-.223.52-.245.79-.06.152.102 2.315 2.457 2.95 3.21.69.818.983 1.27 1.117 1.722l.08.27v3.008c0 3.203-.02 3.746-.164 4.546-.237 1.315-.802 2.095-1.66 2.29-.783.18-1.533-.126-1.986-.808-.46-.693-.7-1.936-.702-3.65 0-.31-.014-.692-.03-.85-.08-.724-.158-.8-.877-.843l-.368-.023v6.189h.335c.512 0 .722.094.872.385.068.133.08.214.094.587l.016.434H5.067v-.433zm9.32-10.74a.786.786 0 0 0 .23-.227l.076-.13.01-2.247.01-2.247-.076-.156a.965.965 0 0 0-.2-.263l-.125-.107-3.087-.012c-3.015-.012-3.09-.012-3.212.06a.69.69 0 0 0-.33.415c-.02.083-.033.914-.033 2.292v2.16l.08.174c.09.193.252.33.436.368.066.014 1.46.023 3.095.02l2.976-.01.152-.096z" fill="#fff"/><path d="M33.754 1041.77c-.123-.046-.285-.218-.383-.41-.092-.18-.093-.223-.063-2.496.03-2.207.035-2.32.123-2.464.192-.31.06-.3 3.625-.3h3.217l.117.128c.288.313.27.133.27 2.765v2.408l-.21.2-.21.202h-3.208c-1.765 0-3.24-.015-3.278-.03z" style="isolation:auto;mix-blend-mode:normal" color="#000" overflow="visible" fill="url(#i)" transform="translate(-25.81 -1032.914)"/><path d="M17.246 3.27a.61.61 0 0 0-.38.183.707.707 0 0 0-.196.678c.04.196.052.208.984 1.216l.942 1.018.01 1.21c.01 1.18.014 1.217.09 1.422.135.37.292.578 1.054 1.407l.746.81-.002 1.647c0 2.235-.057 2.933-.302 3.648-.1.287-.317.53-.506.563-.587.104-.88-.417-1.022-1.806-.018-.183-.047-.8-.064-1.37-.02-.626-.05-1.132-.078-1.28-.165-.865-.587-1.404-1.262-1.61a3.654 3.654 0 0 0-.967-.13h-.25v1.396l.342.02c.718.04.797.118.875.84.017.16.033.542.033.85.002 1.716.24 2.96.7 3.653.454.682 1.204.985 1.988.807.858-.195 1.422-.975 1.66-2.29.142-.8.163-1.343.163-4.546V8.596l-.08-.27c-.134-.45-.427-.904-1.115-1.72-.637-.754-2.798-3.11-2.95-3.213a.645.645 0 0 0-.412-.123z" fill="#e6e6e6"/><path d="M18.443 6.344l.06.062.012 1.216c.01 1.185.015 1.222.097 1.428.147.37.316.58 1.14 1.413l.782.79h1.438V8.645l-.086-.27c-.145-.454-.462-.91-1.206-1.73-.056-.06-.216-.22-.292-.3h-1.945z" fill="#55d400"/><path d="M5.53 18.465a.55.55 0 0 0-.154.077c-.255.186-.31.355-.31.933v.474h12.268l-.015-.477c-.014-.41-.026-.5-.094-.644a.62.62 0 0 0-.418-.365H5.53z" fill="#999"/></svg>