<svg xmlns="http://www.w3.org/2000/svg" xmlns:xlink="http://www.w3.org/1999/xlink" width="24" height="24" viewBox="0 0 24 24"><defs><radialGradient xlink:href="#a" id="c" cx="6.393" cy="15.165" fx="6.393" fy="15.165" r="11.932" gradientUnits="userSpaceOnUse" gradientTransform="matrix(1.4121 -1.10457 1.0703 1.3683 -14.652 5.117)"/><linearGradient id="a"><stop offset="0" stop-color="#1f58b6"/><stop offset="1" stop-color="#7aa4e8"/></linearGradient><linearGradient xlink:href="#b" id="d" x1="4.943" y1="20.047" x2="30.151" y2="-6.266" gradientUnits="userSpaceOnUse"/><linearGradient id="b"><stop offset="0"/><stop offset="1" stop-opacity="0"/></linearGradient></defs><circle style="isolation:auto;mix-blend-mode:normal" cx="12" cy="12" r="11.932" color="#000" overflow="visible" fill="#4f86e1" fill-rule="evenodd"/><g color="#000" fill-rule="evenodd"><path d="M23.932 12A11.932 11.932 0 0 1 12 23.932 11.932 11.932 0 0 1 .068 12 11.932 11.932 0 0 1 12 .068 11.932 11.932 0 0 1 23.932 12z" style="isolation:auto;mix-blend-mode:normal" overflow="visible" fill="url(#c)" transform="translate(-.046 .016)"/><path d="M12.047.006C5.437.006.067 5.374.067 11.984c0 6.61 5.37 11.98 11.98 11.98s11.978-5.37 11.978-11.98S18.657.006 12.047.006zm0 .963c6.09 0 11.015 4.925 11.015 11.014 0 6.09-4.926 11.016-11.015 11.016A11.008 11.008 0 0 1 1.03 11.984C1.03 5.894 5.958.97 12.048.97z" style="line-height:normal;text-indent:0;text-align:start;text-decoration-line:none;text-decoration-style:solid;text-decoration-color:#000;text-transform:none;block-progression:tb;isolation:auto;mix-blend-mode:normal" font-weight="400" font-family="sans-serif" white-space="normal" overflow="visible" opacity=".096" fill="url(#d)" transform="translate(-.046 .016)"/></g><path d="M11.586 22.673l-.395-.258v-1.227c0-.675-.007-1.227-.017-1.227-.01 0-.28.148-.597.328-.84.475-.717.45-1.13.22l-.35-.198.01-.438.01-.437.985-.56a29.245 29.245 0 0 0 1.022-.594c.02-.02.03-.372.024-.83l-.01-.797-.717.46-.717.46-.01-.846c-.006-.465-.02-.845-.033-.845-.013 0-.335.177-.715.395l-.69.395-.003 1.18v1.178l-.373.228c-.205.125-.385.23-.4.236-.015.01-.17-.083-.345-.195l-.317-.203v-.78c0-.44-.015-.782-.033-.782-.018 0-.502.265-1.075.588-.573.323-1.06.588-1.08.588-.022 0-.23-.08-.46-.18l-.42-.182-.01-.507-.008-.507.596-.322c.33-.177.836-.452 1.127-.612l.53-.29-.705-.353-.706-.353.01-.468.01-.467.392-.213.39-.213.27.163c1.045.626 1.724 1.017 1.766 1.016.062 0 1.366-.754 1.38-.796.004-.017-.314-.213-.707-.435-.393-.223-.714-.414-.715-.424 0-.01.307-.206.683-.436.55-.337.673-.427.633-.463-.027-.025-.34-.213-.697-.42l-.65-.374-.913.54c-.502.296-.966.563-1.03.594-.114.054-.126.05-.478-.124l-.362-.18-.01-.46-.01-.46.63-.348c.347-.192.655-.367.686-.39.044-.03-.164-.157-1.033-.624l-1.088-.584.01-.514.007-.514.405-.21.405-.21.458.268c1.015.59 1.69.978 1.707.978.01 0 .02-.36.02-.8v-.8l.278-.182c.152-.1.297-.198.32-.215.028-.02.19.053.44.198l.395.228v2.4l.725.413.726.414.01-.828c.005-.456.017-.828.028-.828.01 0 .344.174.74.386.398.212.728.386.735.386.007 0 .008-.368.003-.817l-.01-.817-1.02-.583-1.02-.583v-.43L9.1 6.75l.352-.198c.3-.167.365-.19.437-.16.046.022.35.19.675.373.325.183.6.333.61.333.01 0 .02-.552.02-1.226V4.646l.4-.26.403-.258.407.26.406.258v1.226c0 .674.01 1.226.023 1.226s.335-.174.716-.387l.693-.385.368.245.368.245v.757l-1.02.577c-.56.316-1.04.595-1.066.618-.035.033-.044.233-.037.842l.01.798.694-.424c.382-.233.7-.423.708-.423.007 0 .013.39.013.867 0 .695.01.864.048.854.027-.01.365-.183.753-.393l.704-.383.01-1.286.01-1.287.353-.16.354-.164.372.16.372.16v.82c0 .768.005.82.065.798.035-.013.502-.262 1.037-.553.536-.29 1.018-.546 1.07-.57.09-.04.13-.025.47.184l.37.23v.943l-1.055.6c-.58.332-1.052.62-1.045.637.006.02.295.195.643.39l.63.356.01.453.01.453-.347.19-.348.193-1.022-.606c-.56-.332-1.044-.605-1.072-.605-.047 0-1.288.767-1.39.86-.035.032.112.14.633.463.373.232.678.43.68.44 0 .01-.316.198-.7.418-.387.22-.688.413-.672.43.018.014.35.195.738.4l.707.37 1.05-.586 1.05-.586.328.228.33.227-.01.44-.008.44-.556.313c-.306.173-.592.34-.635.37-.074.052-.03.082.95.66l1.028.607v.5l.002.502-.424.19c-.232.107-.448.183-.48.172-.03-.012-.49-.27-1.023-.573a30.455 30.455 0 0 0-.99-.552c-.012 0-.022.347-.022.77v.77l-.248.144c-.505.293-.428.287-.822.065l-.345-.193-.018-1.187-.02-1.186-.728-.418c-.402-.23-.745-.418-.763-.418-.017 0-.032.348-.032.79 0 .435-.006.79-.014.79-.007 0-.325-.19-.707-.423l-.694-.423-.01.798c-.005.457.005.81.025.83.018.02.478.287 1.02.595l.986.56.01.462.01.463-.344.168a3.15 3.15 0 0 1-.38.168c-.022 0-.33-.166-.687-.368a16.29 16.29 0 0 0-.666-.367c-.01 0-.02.553-.02 1.228v1.227l-.405.26c-.223.145-.41.26-.413.26-.005 0-.186-.12-.404-.262zm1.507-8.554l.308-.532-.082-.15-.326-.57-.243-.423-.715-.01-.715-.01-.33.56c-.183.307-.332.576-.332.598 0 .02.157.274.35.56l.348.522.715-.01.715-.01.308-.532z" fill="#133671"/><path d="M11.586 21.142l-.395-.258v-1.227c0-.675-.007-1.227-.017-1.227-.01 0-.28.147-.597.327-.84.475-.716.45-1.13.22l-.35-.198.01-.44.01-.437.985-.56a29.245 29.245 0 0 0 1.022-.593c.02-.02.03-.374.024-.83l-.01-.798-.717.46-.717.46-.01-.846c-.005-.465-.02-.846-.033-.846-.013 0-.334.178-.715.395l-.69.395-.003 1.18v1.18l-.373.227c-.205.125-.385.23-.4.235-.015.01-.17-.083-.345-.194l-.317-.202v-.78c0-.44-.015-.782-.033-.782-.018 0-.502.264-1.075.588-.573.323-1.06.588-1.08.588-.022 0-.23-.08-.46-.18l-.42-.183-.01-.508-.008-.508.597-.323 1.125-.613.53-.29-.705-.353-.706-.353.01-.467.01-.468.392-.212.39-.213.27.162c1.045.626 1.724 1.017 1.766 1.016.062 0 1.367-.753 1.38-.795.004-.017-.314-.213-.707-.435-.393-.223-.714-.413-.715-.423 0-.01.307-.206.683-.436.55-.338.673-.428.633-.464-.027-.025-.34-.213-.697-.42l-.65-.375-.913.54c-.502.297-.966.565-1.03.596-.114.054-.126.05-.478-.125l-.362-.18-.01-.458-.01-.46.63-.348c.347-.193.655-.368.686-.39.044-.032-.164-.157-1.033-.624l-1.088-.585.01-.514.007-.514.405-.21.405-.21.458.268c1.015.592 1.69.98 1.707.98.01 0 .02-.36.02-.8v-.8l.278-.184c.152-.1.297-.197.32-.214.03-.02.19.053.44.198l.395.228v2.4l.725.413.726.413.01-.828c.005-.455.018-.827.028-.827.01 0 .344.173.74.386.398.21.728.384.735.384.007 0 .008-.367.003-.816l-.01-.816-1.02-.583-1.02-.584v-.43L9.1 5.22l.352-.197c.3-.166.365-.19.437-.158.046.02.35.188.675.372.325.183.6.333.61.333.01 0 .02-.552.02-1.226V3.115l.4-.258.403-.26.407.26.406.26V4.34c0 .675.01 1.227.023 1.227s.335-.174.716-.387l.694-.386.368.245.368.244v.757l-1.02.578c-.56.317-1.04.595-1.066.62-.035.032-.044.232-.037.84l.01.8.694-.425c.382-.233.7-.424.708-.424.007 0 .013.39.013.866 0 .695.01.864.048.854.027-.01.366-.184.753-.394l.704-.383.01-1.286.01-1.287.353-.162.354-.163.372.16.372.16v.82c0 .768.005.82.065.798.035-.013.502-.263 1.037-.553.536-.29 1.018-.547 1.07-.57.09-.04.13-.026.47.183l.37.228v.945l-1.055.602c-.58.33-1.052.617-1.045.636.006.02.295.195.643.39l.63.356.01.452.01.453-.347.19-.348.193-1.022-.605c-.56-.333-1.044-.605-1.072-.605-.047 0-1.288.768-1.39.86-.035.033.112.14.633.464.373.232.68.43.68.44 0 .01-.316.198-.7.418-.387.22-.688.412-.672.428.018.015.35.196.74.4l.705.372 1.05-.587 1.05-.586.328.227.33.228-.01.44-.008.44-.556.313c-.306.173-.592.34-.635.37-.074.052-.03.082.95.66l1.028.607v.5l.002.502-.424.19c-.232.107-.448.183-.48.17-.03-.01-.49-.268-1.023-.57a30.455 30.455 0 0 0-.99-.553c-.012 0-.022.347-.022.77v.77l-.248.145c-.505.293-.428.286-.82.065l-.347-.194-.018-1.187-.02-1.187-.728-.418c-.402-.23-.745-.418-.763-.418-.017 0-.032.348-.032.79 0 .435-.006.79-.013.79-.008 0-.326-.19-.708-.423l-.694-.423-.01.798c-.005.458.005.812.025.832.02.02.478.286 1.02.594l.987.56.01.462.01.463-.345.167a3.15 3.15 0 0 1-.38.167c-.022 0-.33-.165-.686-.367a16.29 16.29 0 0 0-.667-.368c-.01 0-.02.552-.02 1.227v1.227l-.405.26c-.223.145-.41.26-.413.26-.005 0-.186-.12-.404-.262zm1.507-8.554l.308-.53-.082-.15c-.046-.08-.193-.34-.326-.57l-.242-.424-.715-.01-.715-.01-.33.56c-.183.307-.332.576-.332.598 0 .02.157.274.35.56l.35.522.713-.01.715-.01.308-.532z" fill="#fff"/><path d="M20.19 7.254l-7.167 4.14c.122.21.254.44.295.514l.082.15-.306.53v-.01l-.31.53-.714.01-.713.01-.35-.518-.027-.043-7.232 4.175.002.07.42.182c.23.1.438.182.46.182.02 0 .506-.265 1.08-.588A23.87 23.87 0 0 1 6.784 16c.02 0 .033.342.033.78v.782l.317.202c.174.11.33.205.345.195.015 0 .194-.112.4-.237l.372-.227v-1.18l.002-1.18.69-.394c.382-.217.703-.396.716-.396.013 0 .028.38.033.845l.01.847.717-.46.717-.46.01.797c.005.458-.006.812-.026.832-.018.02-.476.286-1.018.594l-.987.56-.01.438-.01.437.352.198c.413.23.29.256 1.13-.22.318-.18.585-.327.595-.327.01 0 .02.55.02 1.226v1.23l.394.257c.217.14.398.26.402.26.005 0 .19-.116.414-.26l.407-.26v-1.228c0-.675.006-1.226.016-1.226s.312.165.668.367c.357.202.663.367.684.367.02 0 .193-.076.383-.168l.344-.166-.01-.463-.01-.465-.986-.558a29.817 29.817 0 0 1-1.02-.594c-.02-.02-.03-.374-.025-.832l.01-.797.694.424c.38.234.7.423.707.423.007 0 .013-.355.013-.79 0-.442.015-.79.034-.79.02 0 .363.188.764.418l.73.42.018 1.186.018 1.186.346.195c.393.222.315.226.82-.066l.248-.142v-.77c0-.425.01-.77.023-.77s.458.247.99.55c.533.304.993.562 1.024.574.032.012.248-.064.48-.17l.425-.19-.002-.503v-.5l-1.027-.608c-.98-.58-1.026-.61-.95-.662.042-.03.328-.195.634-.368l.554-.314.01-.44.008-.44-.33-.227-.328-.226-1.05.586-1.05.586-.705-.37a18.85 18.85 0 0 1-.74-.402c-.016-.016.285-.208.67-.427.386-.22.702-.408.702-.418 0-.01-.307-.21-.68-.44-.52-.324-.668-.434-.633-.466.1-.093 1.342-.86 1.39-.86.028 0 .512.274 1.074.607l1.022.604.347-.19.348-.193-.01-.452-.01-.453-.63-.356c-.347-.196-.638-.372-.644-.39-.006-.02.464-.305 1.045-.636l1.057-.6v-.947l-.076-.047z" fill="#e6e6e6"/></svg>