<svg xmlns="http://www.w3.org/2000/svg" xmlns:xlink="http://www.w3.org/1999/xlink" width="24" height="24" viewBox="0 0 24 24"><defs><linearGradient id="a"><stop offset="0" stop-color="#b30101" stop-opacity=".996"/><stop offset="1" stop-color="#fa4667" stop-opacity=".996"/></linearGradient><linearGradient id="b"><stop offset="0"/><stop offset="1" stop-opacity="0"/></linearGradient><linearGradient id="d"><stop offset="0" stop-color="#1f58b6"/><stop offset="1" stop-color="#7aa4e8"/></linearGradient><radialGradient xlink:href="#a" id="f" cx="6.393" cy="15.165" fx="6.393" fy="15.165" r="11.932" gradientUnits="userSpaceOnUse" gradientTransform="matrix(1.4121 -1.10457 1.0703 1.3683 -14.652 5.117)"/><linearGradient xlink:href="#b" id="g" x1="4.943" y1="20.047" x2="30.151" y2="-6.266" gradientUnits="userSpaceOnUse"/><radialGradient xlink:href="#d" id="c" gradientUnits="userSpaceOnUse" gradientTransform="matrix(1.4121 -1.10457 1.0703 1.3683 -14.652 5.117)" cx="6.393" cy="15.165" fx="6.393" fy="15.165" r="11.932"/><radialGradient xlink:href="#d" id="e" gradientUnits="userSpaceOnUse" gradientTransform="matrix(1.4121 -1.10457 1.0703 1.3683 -14.652 5.117)" cx="6.393" cy="15.165" fx="6.393" fy="15.165" r="11.932"/><clipPath id="n"><circle r="10.938" cy="1040.362" cx="12" style="isolation:auto;mix-blend-mode:normal" color="#000" overflow="visible" fill="#cf0" stroke-width=".8" stroke-linejoin="round"/></clipPath><clipPath id="m"><circle r="10.938" cy="1040.362" cx="12" style="isolation:auto;mix-blend-mode:normal" color="#000" overflow="visible" fill="#cf0" stroke-width=".8" stroke-linejoin="round"/></clipPath><clipPath id="l"><circle r="10.938" cy="1040.362" cx="12" style="isolation:auto;mix-blend-mode:normal" color="#000" overflow="visible" fill="#cf0" stroke-width=".8" stroke-linejoin="round"/></clipPath><clipPath id="k"><circle r="10.938" cy="1040.362" cx="12" style="isolation:auto;mix-blend-mode:normal" color="#000" overflow="visible" fill="#cf0" stroke-width=".8" stroke-linejoin="round"/></clipPath><clipPath id="j"><circle r="10.938" cy="1040.362" cx="12" style="isolation:auto;mix-blend-mode:normal" color="#000" overflow="visible" fill="#cf0" stroke-width=".8" stroke-linejoin="round"/></clipPath><clipPath id="i"><circle r="10.938" cy="1040.362" cx="12" style="isolation:auto;mix-blend-mode:normal" color="#000" overflow="visible" fill="#cf0" stroke-width=".8" stroke-linejoin="round"/></clipPath><clipPath id="h"><circle r="10.938" cy="1040.362" cx="12" style="isolation:auto;mix-blend-mode:normal" color="#000" overflow="visible" fill="#cf0" stroke-width=".8" stroke-linejoin="round"/></clipPath></defs><g color="#000" fill-rule="evenodd"><path d="M23.932 12A11.932 11.932 0 0 1 12 23.932 11.932 11.932 0 0 1 .068 12 11.932 11.932 0 0 1 12 .068 11.932 11.932 0 0 1 23.932 12z" style="isolation:auto;mix-blend-mode:normal" overflow="visible" fill="url(#f)"/><path d="M12.047.006C5.437.006.067 5.374.067 11.984c0 6.61 5.37 11.98 11.98 11.98s11.978-5.37 11.978-11.98S18.657.006 12.047.006zm0 .963c6.09 0 11.015 4.925 11.015 11.014 0 6.09-4.926 11.016-11.015 11.016A11.008 11.008 0 0 1 1.03 11.984C1.03 5.894 5.958.97 12.048.97z" style="line-height:normal;text-indent:0;text-align:start;text-decoration-line:none;text-decoration-style:solid;text-decoration-color:#000;text-transform:none;block-progression:tb;isolation:auto;mix-blend-mode:normal" font-weight="400" font-family="sans-serif" white-space="normal" overflow="visible" opacity=".096" fill="url(#g)"/></g><path clip-path="url(#h)" d="M20.333 1029.324c-.012.015-.54 1.136-1.18 2.49-.72 1.535-1.17 2.47-1.19 2.48-.02.01-.57.1-1.22.205l-1.18.19-1.464 2.225a186.26 186.26 0 0 0-1.464 2.25c-.002.012.264.933.592 2.048l.597 2.027-.406.662-.408.662-1.424.094.002-.02-1.984.156c-.473.034-1.24.084-1.244.09-.002 0-.096.264-.152.42l-.232.172-1.673.27-.73.802c-.603.01-.656.013-1.453.027-2.005.036-3.655.07-3.667.076-.02.01-.148.88-.143.982v.042l2.064 1c7.772.927 8.942 1.536 15.815-1.76l2.27-2.917 1.11-3.12.53-2.426.424-8.265-.055-.025c-.032-.016-.52-.213-1.086-.444-.91-.37-1.03-.417-1.05-.393z" fill="#828282" transform="translate(0 -1028.362)"/><path d="M18.77 1047.11c.022-.096.06-.973.042-.988-.01-.01-1.712-.06-3.592-.763l-2.364-.884-.136-.846-.137-.86-1.883-1.706.333-.96-.64-.878.127-1.703-1.066-1.172L7.22 1034l-1.02-2.46-1.126-.41-1.158-.428-.708-2.658c-.385-1.448-2.908-1.978-2.917-1.995-.013-.028-.14-.01-1.104.19-.6.12-1.205.357-1.15.23l-.06.014 1.09 7.526.066 2.483.507 3.274 1.682 3.288c6.14 4.526 7.406 4.148 15.222 4.694l2.215-.597.01-.042z" clip-path="url(#i)" fill="#6b6b6b" transform="translate(0 -1028.362)"/><path d="M20.014 1052.033c.01-.097-.07-.975-.09-.99-.012-.01-1.748-.06-3.754-.762l-2.522-.882-.254-.846-.255-.86-2.146-1.706.208-.96-.77-.88-.1-1.7-1.242-1.173-2.588-2.35-1.37-2.462-1.2-.408-1.236-.428-1.08-2.66c-.587-1.446-3.222-1.976-3.234-1.993-.018-.026-.145-.01-1.098.19-.593.12-1.176.36-1.137.233l-.06.013 2.128 7.526.402 2.482.958 3.275 2.156 3.287c6.854 4.526 8.09 4.148 16.11 4.694l2.17-.595.004-.042z" clip-path="url(#j)" fill="#a9a9a9" transform="translate(0 -1028.362)"/><path clip-path="url(#k)" d="M22.11 1030.542c-.01.017-.498 1.217-1.085 2.668-.664 1.642-1.08 2.645-1.1 2.658-.02.01-.57.205-1.222.43l-1.185.408-1.384 2.46a221.2 221.2 0 0 0-1.384 2.485c0 .013.306.868.684 1.9l.69 1.88-.384.727-.383.726-1.434.36v-.02l-1.997.525c-.476.122-1.25.315-1.252.32-.002 0-.086.28-.136.442l-.227.213-1.678.578-.703.927-1.467.298c-2.024.41-3.69.754-3.7.762-.022.014-.113.89-.105.99l.004.04 2.125.597c7.89-.546 9.097-.167 15.9-4.693l2.168-3.288.99-3.274.434-2.482.08-8.2-.057-.013c-.03-.01-.534-.112-1.114-.233-.935-.194-1.06-.216-1.078-.19z" fill="#e2e2e2" transform="translate(0 -1028.362)"/><path d="M3.592 1057.325s-.696-2.23 2.337-5.566c2.747-3.026 5.875-5.014 9.103-6.746 1.416-.76-1.908-1.436-1.908-1.436s-1.408.415-1.84.586c-.37.146 2.7.686.823 1.348-4.415 1.56-9.683 3.724-12.43 5.957-4.746 3.856-5.067 6.876-5.067 6.876" clip-path="url(#l)" fill="#01c4f8" fill-rule="evenodd" transform="translate(0 -1028.362)"/><path d="M8.944 1057.302s-.525-2.23 1.763-5.566c2.073-3.025 4.432-5.013 6.867-6.746 1.068-.76-2.146-1.43-2.146-1.43s-1.062.416-1.388.586c-.28.147 2.743.68 1.328 1.343-3.33 1.56-7.304 3.722-9.376 5.956-3.58 3.857-3.82 6.877-3.82 6.877" clip-path="url(#m)" fill="#01c4f8" fill-rule="evenodd" transform="translate(0 -1028.362)"/><path d="M5.423 1057.258s-.58-2.23 1.944-5.567c2.285-3.023 6.145-5.01 8.83-6.744 1.178-.76-2.007-1.418-2.007-1.418s-1.17.415-1.53.586c-.31.146 2.664.668 1.104 1.33-3.672 1.56-8.053 3.724-10.338 5.958-3.947 3.857-4.214 6.877-4.214 6.877" clip-path="url(#n)" fill="#b3f0ff" fill-rule="evenodd" transform="translate(0 -1028.362)"/></svg>