<svg xmlns="http://www.w3.org/2000/svg" xmlns:xlink="http://www.w3.org/1999/xlink" width="24" height="24" viewBox="0 0 24 24"><defs><linearGradient id="b"><stop offset="0"/><stop offset="1" stop-opacity="0"/></linearGradient><linearGradient id="a"><stop offset="0" stop-color="#1f58b6"/><stop offset="1" stop-color="#7aa4e8"/></linearGradient><radialGradient xlink:href="#a" id="e" cx="6.393" cy="15.165" fx="6.393" fy="15.165" r="11.932" gradientUnits="userSpaceOnUse" gradientTransform="matrix(1.4121 -1.10457 1.0703 1.3683 -14.652 5.117)"/><linearGradient xlink:href="#b" id="f" x1="4.943" y1="20.047" x2="30.151" y2="-6.266" gradientUnits="userSpaceOnUse"/><radialGradient xlink:href="#a" id="c" gradientUnits="userSpaceOnUse" gradientTransform="matrix(1.4121 -1.10457 1.0703 1.3683 -14.652 5.117)" cx="6.393" cy="15.165" fx="6.393" fy="15.165" r="11.932"/><radialGradient xlink:href="#a" id="d" gradientUnits="userSpaceOnUse" gradientTransform="matrix(1.4121 -1.10457 1.0703 1.3683 -14.652 5.117)" cx="6.393" cy="15.165" fx="6.393" fy="15.165" r="11.932"/></defs><g color="#000" fill-rule="evenodd"><path d="M23.932 12A11.932 11.932 0 0 1 12 23.932 11.932 11.932 0 0 1 .068 12 11.932 11.932 0 0 1 12 .068 11.932 11.932 0 0 1 23.932 12z" style="isolation:auto;mix-blend-mode:normal" overflow="visible" fill="url(#e)"/><path d="M12.047.006C5.437.006.067 5.374.067 11.984c0 6.61 5.37 11.98 11.98 11.98s11.978-5.37 11.978-11.98S18.657.006 12.047.006zm0 .963c6.09 0 11.015 4.925 11.015 11.014 0 6.09-4.926 11.016-11.015 11.016A11.008 11.008 0 0 1 1.03 11.984C1.03 5.894 5.958.97 12.048.97z" style="line-height:normal;text-indent:0;text-align:start;text-decoration-line:none;text-decoration-style:solid;text-decoration-color:#000;text-transform:none;block-progression:tb;isolation:auto;mix-blend-mode:normal" font-weight="400" font-family="sans-serif" white-space="normal" overflow="visible" opacity=".096" fill="url(#f)"/></g><text style="line-height:125%;-inkscape-font-specification:'sans-serif, Bold';text-align:start" x="25.323" y="1040.43" font-weight="700" font-size="20" font-family="sans-serif" letter-spacing="0" word-spacing="0" fill="#fff" transform="translate(0 -1028.362)"><tspan x="25.323" y="1040.43">P</tspan></text><path d="M9.02 21.167a6.136 6.136 0 0 1-3.635-1.79 6.137 6.137 0 0 1-1.733-3.296c-.098-.536-.098-1.59 0-2.126a7.55 7.55 0 0 1 .56-1.696 6.44 6.44 0 0 1 2.767-2.77c.177-.09.342-.163.366-.163.028 0 .043.34.043.976v.978l-.262.187c-.327.234-.796.72-1.028 1.063-.238.353-.478.867-.616 1.322-.107.35-.114.427-.115 1.147-.002.802.024.98.227 1.532.306.83.97 1.683 1.68 2.15 2.118 1.4 4.906.795 6.237-1.354l.197-.318.52.584c.285.32.562.636.613.7l.095.118-.248.328c-.333.443-1.036 1.112-1.47 1.4-.7.467-1.473.79-2.282.95-.47.095-1.464.136-1.92.078zm8.684-1.448c-.203-.226-1.24-1.39-2.305-2.587l-1.937-2.178H8.555V7.604l-.26-.255C7.04 6.12 7.693 4.017 9.42 3.73c.8-.135 1.657.25 2.105.942.565.874.396 2.072-.388 2.747l-.204.174V8.86l1.93.014c1.858.013 1.935.016 2.118.1.46.214.708.59.707 1.08 0 .376-.12.647-.396.89-.336.296-.367.3-2.488.3h-1.87v1.376H14.544l1.884 2.12c1.037 1.167 1.91 2.14 1.938 2.165.04.032.157-.033.45-.247.507-.373.62-.422.98-.424.36 0 .61.107.855.374.28.302.378.653.293 1.037-.09.403-.215.527-1.57 1.54-.694.517-1.27.94-1.28.94-.012 0-.187-.182-.39-.406z" fill="#133671"/><path d="M9.736 19.77a6.136 6.136 0 0 1-3.634-1.79 6.137 6.137 0 0 1-1.733-3.296c-.098-.537-.098-1.59 0-2.126a7.55 7.55 0 0 1 .56-1.696 6.44 6.44 0 0 1 2.766-2.77c.18-.09.344-.163.367-.163.028 0 .043.338.043.975v.976l-.26.188c-.327.234-.796.72-1.028 1.063-.24.355-.478.87-.617 1.323-.105.35-.113.427-.114 1.147 0 .803.026.98.23 1.533.304.832.968 1.683 1.677 2.15 2.12 1.4 4.908.796 6.238-1.353l.198-.318.52.583c.285.32.56.637.613.7l.095.118-.247.33c-.334.44-1.036 1.11-1.47 1.4-.7.465-1.474.787-2.283.95-.47.094-1.464.134-1.92.077zm8.685-1.448c-.202-.224-1.24-1.388-2.304-2.585L14.18 13.56H9.274V6.207l-.26-.255c-1.257-1.23-.603-3.332 1.124-3.62.8-.134 1.657.25 2.105.942.565.875.396 2.072-.388 2.747l-.204.176v1.268l1.93.013c1.858.013 1.935.016 2.118.1.46.214.707.59.706 1.078 0 .377-.12.648-.395.89-.34.297-.37.3-2.49.3h-1.87v1.377H15.262l1.886 2.12c1.036 1.168 1.908 2.142 1.937 2.166.04.03.157-.034.45-.25.508-.372.62-.42.98-.422.36 0 .61.107.856.374.277.3.376.653.29 1.036-.09.404-.215.527-1.57 1.54-.693.518-1.27.942-1.28.942-.01 0-.186-.184-.39-.408z" fill="#fff"/></svg>