<svg xmlns="http://www.w3.org/2000/svg" xmlns:xlink="http://www.w3.org/1999/xlink" width="24" height="24" viewBox="0 0 24 24"><defs><linearGradient id="a"><stop offset="0" stop-color="#b30101" stop-opacity=".996"/><stop offset="1" stop-color="#fa4667" stop-opacity=".996"/></linearGradient><linearGradient id="b"><stop offset="0"/><stop offset="1" stop-opacity="0"/></linearGradient><linearGradient id="d"><stop offset="0" stop-color="#1f58b6"/><stop offset="1" stop-color="#7aa4e8"/></linearGradient><radialGradient xlink:href="#a" id="f" cx="6.393" cy="15.165" fx="6.393" fy="15.165" r="11.932" gradientUnits="userSpaceOnUse" gradientTransform="matrix(1.4121 -1.10457 1.0703 1.3683 -14.652 5.117)"/><linearGradient xlink:href="#b" id="g" x1="4.943" y1="20.047" x2="30.151" y2="-6.266" gradientUnits="userSpaceOnUse"/><radialGradient xlink:href="#d" id="c" gradientUnits="userSpaceOnUse" gradientTransform="matrix(1.4121 -1.10457 1.0703 1.3683 -14.652 5.117)" cx="6.393" cy="15.165" fx="6.393" fy="15.165" r="11.932"/><radialGradient xlink:href="#d" id="e" gradientUnits="userSpaceOnUse" gradientTransform="matrix(1.4121 -1.10457 1.0703 1.3683 -14.652 5.117)" cx="6.393" cy="15.165" fx="6.393" fy="15.165" r="11.932"/><clipPath id="h"><path style="isolation:auto;mix-blend-mode:normal" d="M22.982 12A10.982 10.982 0 0 1 12 22.982 10.982 10.982 0 0 1 1.018 12 10.982 10.982 0 0 1 12 1.018 10.982 10.982 0 0 1 22.982 12z" color="#000" overflow="visible" fill="url(#radialGradient14170)" fill-rule="evenodd" stroke-width="2" stroke-linecap="square" stroke-dashoffset=".85"/></clipPath><clipPath id="i"><path style="isolation:auto;mix-blend-mode:normal" d="M22.982 12A10.982 10.982 0 0 1 12 22.982 10.982 10.982 0 0 1 1.018 12 10.982 10.982 0 0 1 12 1.018 10.982 10.982 0 0 1 22.982 12z" color="#000" overflow="visible" fill="url(#radialGradient14164)" fill-rule="evenodd" stroke-width="2" stroke-linecap="square" stroke-dashoffset=".85"/></clipPath></defs><g color="#000" fill-rule="evenodd"><path d="M23.932 12A11.932 11.932 0 0 1 12 23.932 11.932 11.932 0 0 1 .068 12 11.932 11.932 0 0 1 12 .068 11.932 11.932 0 0 1 23.932 12z" style="isolation:auto;mix-blend-mode:normal" overflow="visible" fill="url(#f)"/><path d="M12.047.006C5.437.006.067 5.374.067 11.984c0 6.61 5.37 11.98 11.98 11.98s11.978-5.37 11.978-11.98S18.657.006 12.047.006zm0 .963c6.09 0 11.015 4.925 11.015 11.014 0 6.09-4.926 11.016-11.015 11.016A11.008 11.008 0 0 1 1.03 11.984C1.03 5.894 5.958.97 12.048.97z" style="line-height:normal;text-indent:0;text-align:start;text-decoration-line:none;text-decoration-style:solid;text-decoration-color:#000;text-transform:none;block-progression:tb;isolation:auto;mix-blend-mode:normal" font-weight="400" font-family="sans-serif" white-space="normal" overflow="visible" opacity=".096" fill="url(#g)"/></g><path transform="translate(0 -.02)" d="M.016 18.08l24-17.8.062 23.814-24.094-.08z" clip-path="url(#h)" fill="#a00" fill-rule="evenodd"/><path transform="translate(0 -.02)" d="M0 19.856l24-12.45.063 16.657-24.094-.057z" clip-path="url(#i)" fill="#500" fill-rule="evenodd"/><path d="M7.188 21.07c-.23-.036-.548-.276-.682-.514-.218-.39-.217-.397.62-3.543.41-1.54.754-2.828.765-2.86.015-.04.062 0 .143.105.202.274.505.535 1.068.92.296.2.538.383.538.404 0 .135-1.29 4.89-1.355 4.998a1.07 1.07 0 0 1-.59.454.888.888 0 0 1-.505.035zm6.64-.01c-.325-.086-.656-.39-.737-.678a66.027 66.027 0 0 1-.336-1.918c-.162-.973-.304-1.81-.316-1.862-.014-.065-.523-.433-1.737-1.256-1.027-.698-1.794-1.248-1.912-1.37-.345-.364-.54-.913-.48-1.36.055-.41 1.41-5.637 1.5-5.78.223-.364.653-.61 1.06-.61.308 0 1.715.202 1.912.275.326.12.486.317 1.427 1.746l.917 1.392H17.3l.024-.18c.013-.097.058-.507.1-.908.096-.885.115-.918.517-.906.282.01.442.086.502.245.028.07-.204 1.96-.802 6.538-.463 3.54-.85 6.46-.86 6.487a.38.38 0 0 1-.128.122c-.093.06-.133.064-.278.02-.11-.032-.18-.084-.205-.147-.026-.066.118-1.59.442-4.664l.482-4.573s-.62-.014-1.38-.02c-1.325-.014-1.386-.018-1.552-.107-.24-.13-.34-.253-1.003-1.266-.324-.492-.592-.89-.598-.885-.017.017-.86 3.94-.86 4.004 0 .03.533.434 1.184.896.652.46 1.228.89 1.28.953.054.062.127.195.164.294.113.308.79 4.472.76 4.667-.046.278-.26.588-.502.722-.226.126-.552.18-.76.127zm-7.643-8.854c-.5-.12-.907-.24-.97-.286a.603.603 0 0 1-.163-.23c-.055-.142-.03-.262.436-2.228.502-2.113.59-2.417.83-2.865.443-.834 1.27-1.16 2.27-.898.258.067.403.19.464.396.04.135-.033.462-.692 3.092-.497 1.985-.762 2.97-.814 3.028-.088.1-.312.204-.424.2-.04 0-.463-.097-.937-.21zm5.938-6.64c-1.024-.196-1.69-.97-1.7-1.974-.01-.893.498-1.618 1.346-1.92.35-.127.952-.128 1.298 0 .84.303 1.348 1.022 1.348 1.9 0 .88-.52 1.612-1.348 1.897-.25.084-.744.137-.945.098z" fill="#fff"/></svg>