<?xml version="1.0" encoding="UTF-8" standalone="no"?>
<!-- Created with Inkscape (http://www.inkscape.org/) -->

<svg
   xmlns:dc="http://purl.org/dc/elements/1.1/"
   xmlns:cc="http://creativecommons.org/ns#"
   xmlns:rdf="http://www.w3.org/1999/02/22-rdf-syntax-ns#"
   xmlns:svg="http://www.w3.org/2000/svg"
   xmlns="http://www.w3.org/2000/svg"
   xmlns:xlink="http://www.w3.org/1999/xlink"
   xmlns:sodipodi="http://sodipodi.sourceforge.net/DTD/sodipodi-0.dtd"
   xmlns:inkscape="http://www.inkscape.org/namespaces/inkscape"
   width="24"
   height="24"
   viewBox="0 0 24 24"
   id="svg16505"
   version="1.1"
   inkscape:version="0.91 r"
   sodipodi:docname="horse.svg">
  <defs
     id="defs16507">
    <linearGradient
       id="linearGradient19745"
       inkscape:collect="always">
      <stop
         id="stop19747"
         offset="0"
         style="stop-color:#177217;stop-opacity:0.99607843" />
      <stop
         id="stop19749"
         offset="1"
         style="stop-color:#4eab46;stop-opacity:0.99607843" />
    </linearGradient>
    <linearGradient
       inkscape:collect="always"
       id="linearGradient14177">
      <stop
         style="stop-color:#000000;stop-opacity:1;"
         offset="0"
         id="stop14179" />
      <stop
         style="stop-color:#000000;stop-opacity:0;"
         offset="1"
         id="stop14181" />
    </linearGradient>
    <linearGradient
       inkscape:collect="always"
       id="linearGradient14145">
      <stop
         style="stop-color:#1f58b6;stop-opacity:1"
         offset="0"
         id="stop14147" />
      <stop
         style="stop-color:#7aa4e8;stop-opacity:1"
         offset="1"
         id="stop14149" />
    </linearGradient>
    <radialGradient
       inkscape:collect="always"
       xlink:href="#linearGradient19745"
       id="radialGradient14151"
       cx="6.393167"
       cy="15.165454"
       fx="6.393167"
       fy="15.165454"
       r="11.932427"
       gradientUnits="userSpaceOnUse"
       gradientTransform="matrix(1.4121007,-1.1045678,1.0703037,1.3682968,-14.651552,5.1167479)" />
    <linearGradient
       inkscape:collect="always"
       xlink:href="#linearGradient14177"
       id="linearGradient14183"
       x1="4.9425726"
       y1="20.046875"
       x2="30.151178"
       y2="-6.265625"
       gradientUnits="userSpaceOnUse" />
    <clipPath
       clipPathUnits="userSpaceOnUse"
       id="clipPath14940">
      <path
         inkscape:connector-curvature="0"
         id="path14942"
         d="M 23.932427,12 A 11.932427,11.932427 0 0 1 12,23.932427 11.932427,11.932427 0 0 1 0.067573,12 11.932427,11.932427 0 0 1 12,0.06757298 11.932427,11.932427 0 0 1 23.932427,12 Z"
         style="color:#000000;clip-rule:nonzero;display:inline;overflow:visible;visibility:visible;opacity:1;isolation:auto;mix-blend-mode:normal;color-interpolation:sRGB;color-interpolation-filters:linearRGB;solid-color:#000000;solid-opacity:1;fill:url(#radialGradient14944);fill-opacity:1;fill-rule:evenodd;stroke:none;stroke-width:2;stroke-linecap:square;stroke-linejoin:miter;stroke-miterlimit:4;stroke-dasharray:none;stroke-dashoffset:0.85000002;stroke-opacity:1;color-rendering:auto;image-rendering:auto;shape-rendering:auto;text-rendering:auto;enable-background:accumulate" />
    </clipPath>
    <radialGradient
       inkscape:collect="always"
       xlink:href="#linearGradient14145"
       id="radialGradient14944"
       gradientUnits="userSpaceOnUse"
       gradientTransform="matrix(1.4121007,-1.1045678,1.0703037,1.3682968,-14.651552,5.1167483)"
       cx="6.393167"
       cy="15.165454"
       fx="6.393167"
       fy="15.165454"
       r="11.932427" />
    <clipPath
       clipPathUnits="userSpaceOnUse"
       id="clipPath14946">
      <path
         inkscape:connector-curvature="0"
         id="path14948"
         d="M 23.932427,12 A 11.932427,11.932427 0 0 1 12,23.932427 11.932427,11.932427 0 0 1 0.067573,12 11.932427,11.932427 0 0 1 12,0.06757298 11.932427,11.932427 0 0 1 23.932427,12 Z"
         style="color:#000000;clip-rule:nonzero;display:inline;overflow:visible;visibility:visible;opacity:1;isolation:auto;mix-blend-mode:normal;color-interpolation:sRGB;color-interpolation-filters:linearRGB;solid-color:#000000;solid-opacity:1;fill:url(#radialGradient14950);fill-opacity:1;fill-rule:evenodd;stroke:none;stroke-width:2;stroke-linecap:square;stroke-linejoin:miter;stroke-miterlimit:4;stroke-dasharray:none;stroke-dashoffset:0.85000002;stroke-opacity:1;color-rendering:auto;image-rendering:auto;shape-rendering:auto;text-rendering:auto;enable-background:accumulate" />
    </clipPath>
    <radialGradient
       inkscape:collect="always"
       xlink:href="#linearGradient14145"
       id="radialGradient14950"
       gradientUnits="userSpaceOnUse"
       gradientTransform="matrix(1.4121007,-1.1045678,1.0703037,1.3682968,-14.651552,5.1167483)"
       cx="6.393167"
       cy="15.165454"
       fx="6.393167"
       fy="15.165454"
       r="11.932427" />
    <clipPath
       clipPathUnits="userSpaceOnUse"
       id="clipPath14164">
      <circle
         style="color:#000000;clip-rule:nonzero;display:inline;overflow:visible;visibility:visible;opacity:1;isolation:auto;mix-blend-mode:normal;color-interpolation:sRGB;color-interpolation-filters:linearRGB;solid-color:#000000;solid-opacity:1;fill:#ff0000;fill-opacity:0.99607843;fill-rule:nonzero;stroke:none;stroke-width:1;stroke-linecap:butt;stroke-linejoin:miter;stroke-miterlimit:4;stroke-dasharray:none;stroke-dashoffset:0;stroke-opacity:0.4281609;color-rendering:auto;image-rendering:auto;shape-rendering:auto;text-rendering:auto;enable-background:accumulate"
         id="circle14166"
         cx="11.998718"
         cy="1040.4077"
         r="10.982252" />
    </clipPath>
    <clipPath
       clipPathUnits="userSpaceOnUse"
       id="clipPath14164-4">
      <circle
         style="color:#000000;clip-rule:nonzero;display:inline;overflow:visible;visibility:visible;opacity:1;isolation:auto;mix-blend-mode:normal;color-interpolation:sRGB;color-interpolation-filters:linearRGB;solid-color:#000000;solid-opacity:1;fill:#ff0000;fill-opacity:0.99607843;fill-rule:nonzero;stroke:none;stroke-width:1;stroke-linecap:butt;stroke-linejoin:miter;stroke-miterlimit:4;stroke-dasharray:none;stroke-dashoffset:0;stroke-opacity:0.4281609;color-rendering:auto;image-rendering:auto;shape-rendering:auto;text-rendering:auto;enable-background:accumulate"
         id="circle14166-8"
         cx="11.998718"
         cy="1040.4077"
         r="10.982252" />
    </clipPath>
    <clipPath
       clipPathUnits="userSpaceOnUse"
       id="clipPath14166">
      <path
         style="color:#000000;clip-rule:nonzero;display:inline;overflow:visible;visibility:visible;opacity:1;isolation:auto;mix-blend-mode:normal;color-interpolation:sRGB;color-interpolation-filters:linearRGB;solid-color:#000000;solid-opacity:1;fill:url(#radialGradient14170);fill-opacity:1;fill-rule:evenodd;stroke:none;stroke-width:2;stroke-linecap:square;stroke-linejoin:miter;stroke-miterlimit:4;stroke-dasharray:none;stroke-dashoffset:0.85000002;stroke-opacity:1;color-rendering:auto;image-rendering:auto;shape-rendering:auto;text-rendering:auto;enable-background:accumulate"
         d="M 22.982252,12 A 10.982252,10.982252 0 0 1 12,22.982252 10.982252,10.982252 0 0 1 1.0177478,12 10.982252,10.982252 0 0 1 12,1.0177478 10.982252,10.982252 0 0 1 22.982252,12 Z"
         id="path14168"
         inkscape:connector-curvature="0" />
    </clipPath>
    <clipPath
       clipPathUnits="userSpaceOnUse"
       id="clipPath14160">
      <path
         style="color:#000000;clip-rule:nonzero;display:inline;overflow:visible;visibility:visible;opacity:1;isolation:auto;mix-blend-mode:normal;color-interpolation:sRGB;color-interpolation-filters:linearRGB;solid-color:#000000;solid-opacity:1;fill:url(#radialGradient14164);fill-opacity:1;fill-rule:evenodd;stroke:none;stroke-width:2;stroke-linecap:square;stroke-linejoin:miter;stroke-miterlimit:4;stroke-dasharray:none;stroke-dashoffset:0.85000002;stroke-opacity:1;color-rendering:auto;image-rendering:auto;shape-rendering:auto;text-rendering:auto;enable-background:accumulate"
         d="M 22.982252,12 A 10.982252,10.982252 0 0 1 12,22.982252 10.982252,10.982252 0 0 1 1.0177478,12 10.982252,10.982252 0 0 1 12,1.0177478 10.982252,10.982252 0 0 1 22.982252,12 Z"
         id="path14162"
         inkscape:connector-curvature="0" />
    </clipPath>
  </defs>
  <sodipodi:namedview
     id="base"
     pagecolor="#ffffff"
     bordercolor="#666666"
     borderopacity="1.0"
     inkscape:pageopacity="0.0"
     inkscape:pageshadow="2"
     inkscape:zoom="2"
     inkscape:cx="39.001762"
     inkscape:cy="38.838194"
     inkscape:document-units="px"
     inkscape:current-layer="layer1"
     showgrid="true"
     units="px"
     showguides="true"
     inkscape:snap-global="false"
     inkscape:window-width="2511"
     inkscape:window-height="1416"
     inkscape:window-x="49"
     inkscape:window-y="24"
     inkscape:window-maximized="1">
    <inkscape:grid
       type="xygrid"
       id="grid17061"
       color="#808080"
       opacity="0.1254902"
       empcolor="#808080"
       empopacity="0.25098039"
       dotted="false" />
  </sodipodi:namedview>
  <metadata
     id="metadata16510">
    <rdf:RDF>
      <cc:Work
         rdf:about="">
        <dc:format>image/svg+xml</dc:format>
        <dc:type
           rdf:resource="http://purl.org/dc/dcmitype/StillImage" />
        <dc:title></dc:title>
      </cc:Work>
    </rdf:RDF>
  </metadata>
  <g
     inkscape:groupmode="layer"
     id="layer2"
     inkscape:label="base"
     style="display:inline">
    <g
       id="g14189">
      <path
         id="path17688"
         d="M 23.932427,12 A 11.932427,11.932427 0 0 1 12,23.932427 11.932427,11.932427 0 0 1 0.06757259,12 11.932427,11.932427 0 0 1 12,0.06757259 11.932427,11.932427 0 0 1 23.932427,12 Z"
         style="color:#000000;clip-rule:nonzero;display:inline;overflow:visible;visibility:visible;opacity:1;isolation:auto;mix-blend-mode:normal;color-interpolation:sRGB;color-interpolation-filters:linearRGB;solid-color:#000000;solid-opacity:1;fill:url(#radialGradient14151);fill-opacity:1;fill-rule:evenodd;stroke:none;stroke-width:2;stroke-linecap:square;stroke-linejoin:miter;stroke-miterlimit:4;stroke-dasharray:none;stroke-dashoffset:0.85000002;stroke-opacity:1;color-rendering:auto;image-rendering:auto;shape-rendering:auto;text-rendering:auto;enable-background:accumulate"
         inkscape:connector-curvature="0" />
      <path
         inkscape:connector-curvature="0"
         id="path17688-3"
         d="M 12.046875,0.00585938 C 5.4365953,0.00585928 0.06835928,5.3740953 0.06835937,11.984375 c 0,6.61028 5.36823593,11.978516 11.97851563,11.978516 6.61028,0 11.978516,-5.368236 11.978516,-11.978516 0,-6.6102797 -5.368236,-11.97851562 -11.978516,-11.97851562 z m 0,0.96289062 c 6.089537,0 11.015625,4.926088 11.015625,11.015625 C 23.0625,18.073912 18.136412,23 12.046875,23 5.957338,23 1.03125,18.073912 1.03125,11.984375 1.0312499,5.8948379 5.9573379,0.96874991 12.046875,0.96875 Z"
         style="color:#000000;font-style:normal;font-variant:normal;font-weight:normal;font-stretch:normal;font-size:medium;line-height:normal;font-family:sans-serif;text-indent:0;text-align:start;text-decoration:none;text-decoration-line:none;text-decoration-style:solid;text-decoration-color:#000000;letter-spacing:normal;word-spacing:normal;text-transform:none;direction:ltr;block-progression:tb;writing-mode:lr-tb;baseline-shift:baseline;text-anchor:start;white-space:normal;clip-rule:nonzero;display:inline;overflow:visible;visibility:visible;opacity:0.09599998;isolation:auto;mix-blend-mode:normal;color-interpolation:sRGB;color-interpolation-filters:linearRGB;solid-color:#000000;solid-opacity:1;fill:url(#linearGradient14183);fill-opacity:1;fill-rule:evenodd;stroke:none;stroke-width:0.96355295;stroke-linecap:square;stroke-linejoin:miter;stroke-miterlimit:4;stroke-dasharray:none;stroke-dashoffset:0.85000002;stroke-opacity:1;color-rendering:auto;image-rendering:auto;shape-rendering:auto;text-rendering:auto;enable-background:accumulate" />
    </g>
  </g>
  <g
     inkscape:label="icon"
     inkscape:groupmode="layer"
     id="layer1"
     transform="translate(0,-1028.3622)"
     style="display:inline">
    <g
       style="display:inline"
       transform="matrix(0.12572112,0.07258512,-0.07258512,0.12572112,79.389955,897.03245)"
       id="g18418">
      <path
         transform="matrix(6.8884642,0,0,6.8884642,9.0576313,1004.1968)"
         style="fill:#216e20;fill-opacity:1;fill-rule:evenodd;stroke:none;stroke-width:1px;stroke-linecap:butt;stroke-linejoin:miter;stroke-opacity:1"
         d="M 0.01562496,18.080492 24.015625,0.28124999 24.078125,24.09375 -0.01562504,24.013573 Z"
         id="path14899-0"
         inkscape:connector-curvature="0"
         sodipodi:nodetypes="ccccc"
         clip-path="url(#clipPath14166)" />
      <path
         transform="matrix(6.8884642,0,0,6.8884642,9.0576313,1004.1968)"
         style="fill:#144312;fill-opacity:0.99607843;fill-rule:evenodd;stroke:none;stroke-width:1px;stroke-linecap:butt;stroke-linejoin:miter;stroke-opacity:1"
         d="M 0,19.856376 24,7.40625 24.0625,24.0625 -0.03125,24.006418 Z"
         id="path14899"
         inkscape:connector-curvature="0"
         sodipodi:nodetypes="ccccc"
         clip-path="url(#clipPath14160)" />
    </g>
    <path
       style="display:inline;fill:#0d2b0c;fill-opacity:1"
       d="m 14.130081,1046.9243 c 0,-0.07 -0.314418,-0.6446 -0.474615,-0.8658 -0.0948,-0.1314 -0.172264,-0.3033 -0.172264,-0.3835 0,-0.3324 0.614776,-1.6794 1.307672,-2.8651 0.579474,-0.9917 0.673712,-1.1323 0.825823,-1.2319 0.122544,-0.081 0.167352,-0.074 0.512824,0.065 0.212865,0.086 0.765401,0.2172 1.262479,0.3001 0.486165,0.081 0.920605,0.1812 0.965414,0.223 0.06944,0.065 0.06691,0.1705 -0.01659,0.7127 -0.144265,0.9368 -0.178386,1.0353 -0.390892,1.1288 -0.100505,0.043 -0.211391,0.1435 -0.246509,0.2205 -0.05111,0.1116 -0.108868,0.1402 -0.289644,0.1402 l -0.225782,0 0,0.4967 0,0.4967 0.308735,-0.091 c 0.39449,-0.1155 0.756505,-0.3246 0.942153,-0.5452 0.335594,-0.3989 1.04117,-2.437 1.042178,-3.0105 2.4e-4,-0.1454 -0.0462,-0.2621 -0.147796,-0.3718 -0.210275,-0.2269 -1.164602,-0.6627 -1.806251,-0.825 -0.299668,-0.076 -0.543799,-0.1603 -0.542524,-0.1877 0.0013,-0.028 0.05045,-0.1955 0.109267,-0.3736 0.08059,-0.2437 0.117764,-0.6135 0.150796,-1.4995 0.04394,-1.1777 0.09187,-1.4542 0.333948,-1.9259 0.09493,-0.185 0.09533,-0.1851 0.348765,-0.093 0.172092,0.062 0.202908,0.1142 0.345632,0.5792 0.08616,0.2809 0.172066,0.6597 0.190865,0.8418 0.03293,0.3188 0.04329,0.3354 0.279859,0.45 0.433696,0.2099 0.867618,0.1314 1.038223,-0.1869 0.04168,-0.079 0.08179,-0.7799 0.10847,-1.9041 l 0.04249,-1.7804 0.199415,-0.1661 c 0.109665,-0.092 0.279355,-0.2406 0.377058,-0.3321 l 0.177655,-0.1661 -0.617458,0.043 c -0.711935,0.048 -0.789445,0.048 -1.492045,-0.013 -0.616529,-0.049 -1.02188,0.025 -1.536496,0.2816 -0.277019,0.1379 -0.573951,0.3985 -1.381943,1.2132 -1.09964,1.109 -1.402482,1.3272 -2.09008,1.5063 -0.485223,0.1261 -1.539604,0.1142 -2.656292,-0.031 -2.1004221,-0.2719 -2.5591839,-0.2667 -3.5561829,0.04 -0.3303235,0.1009 -0.7084694,0.1642 -1.1652802,0.193 -0.5563318,0.034 -0.7411831,0.071 -1.0421922,0.2074 -0.4063451,0.183 -0.8643636,0.6197 -1.0673779,1.0177 -0.2893784,0.5673 -0.4757299,1.5005 -0.5564382,2.7868 l -0.024563,0.3904 0.2132234,0.036 c 0.1172324,0.019 0.4414493,0.036 0.7203788,0.036 l 0.5071553,8e-4 0.031597,-1.1911 c 0.033327,-1.2593 0.096389,-1.6321 0.3648169,-2.1578 0.1668614,-0.327 0.3996148,-0.5552 0.6897363,-0.6765 0.330602,-0.1382 0.3662366,-0.1129 0.1795,0.1289 -0.4953523,0.6411 -0.6039553,1.0043 -0.6039553,2.0194 0,1.2881 -0.181041,1.9761 -0.6875058,2.6128 -0.3363115,0.4229 -0.3710169,0.5079 -0.3710169,0.9096 0,0.3538 -0.3119355,1.6535 -0.5845984,2.4358 -0.1512343,0.4337 -0.1521237,0.5765 -0.00398,0.7103 0.070495,0.064 0.1317044,0.2188 0.154593,0.3914 l 0.037834,0.2857 0.4922852,0 c 0.3353823,0 0.4922723,-0.021 0.4922723,-0.069 0,-0.037 -0.1058153,-0.2615 -0.2352226,-0.4971 -0.1293147,-0.2358 -0.2352226,-0.4931 -0.2352226,-0.5719 0,-0.1889 0.2505702,-1.0471 0.4774818,-1.6355 0.2115641,-0.5486 0.6054833,-1.009 1.382301,-1.6157 0.2636485,-0.2057 0.6296593,-0.5366 0.8133426,-0.7349 l 0.3339875,-0.3608 0.2005043,0.1944 c 0.2782131,0.2697 0.405576,0.6787 0.354169,1.1375 -0.022175,0.1977 -0.054836,0.4938 -0.072624,0.6579 l -0.032393,0.2986 0.3929623,0.3126 c 0.5263409,0.4189 1.0322884,1.0321 1.3306284,1.6125 0.1348242,0.2623 0.3099839,0.5467 0.3892459,0.6321 0.08351,0.091 0.157766,0.2569 0.176539,0.397 l 0.03239,0.2417 0.550915,0 c 0.303013,0 0.550915,-0.015 0.550915,-0.031 0,-0.1235 -0.469755,-0.837 -1.372303,-2.0847 -0.4760878,-0.6583 -0.6859128,-1.0501 -0.6859128,-1.2808 0,-0.092 0.075151,-0.3907 0.166941,-0.6638 0.091874,-0.2726 0.2270976,-0.7409 0.3006102,-1.0401 0.07355,-0.2991 0.1637946,-0.5434 0.2005976,-0.5429 0.03678,6e-4 0.305098,0.042 0.596189,0.089 0.730961,0.1222 1.900914,0.1669 2.499254,0.096 0.274907,-0.031 0.504089,-0.055 0.509267,-0.049 0.02403,0.025 -0.279806,1.4954 -0.410846,1.9877 -0.08085,0.3036 -0.177497,0.7239 -0.214857,0.9336 -0.03731,0.2099 -0.175079,0.6158 -0.306054,0.9019 -0.259414,0.5667 -0.259653,0.5608 0.03863,0.9689 0.0786,0.1075 0.16037,0.3125 0.181838,0.4558 l 0.03903,0.2605 0.522584,0 c 0.287413,0 0.522583,-0.015 0.522583,-0.031 z"
       id="path14157"
       inkscape:connector-curvature="0" />
    <path
       style="display:inline;fill:#ffffff;fill-opacity:1"
       d="m 13.75507,1046.8928 c 0,-0.07 -0.314418,-0.6446 -0.474615,-0.8658 -0.0948,-0.1314 -0.172263,-0.3033 -0.172263,-0.3835 0,-0.3324 0.614775,-1.6794 1.307671,-2.8651 0.579474,-0.9917 0.673712,-1.1323 0.825823,-1.2319 0.122544,-0.081 0.167352,-0.074 0.512824,0.065 0.212865,0.086 0.765401,0.2172 1.262479,0.3001 0.486165,0.081 0.920605,0.1812 0.965414,0.223 0.06944,0.065 0.06691,0.1705 -0.01659,0.7127 -0.144265,0.9368 -0.178386,1.0353 -0.390892,1.1288 -0.100505,0.043 -0.211391,0.1435 -0.246509,0.2205 -0.05111,0.1116 -0.108868,0.1402 -0.289644,0.1402 l -0.225782,0 0,0.4967 0,0.4967 0.308735,-0.091 c 0.39449,-0.1155 0.756505,-0.3246 0.942153,-0.5452 0.335594,-0.3989 1.04117,-2.437 1.042178,-3.0105 2.4e-4,-0.1454 -0.0462,-0.2621 -0.147796,-0.3718 -0.210275,-0.2269 -1.164602,-0.6627 -1.806251,-0.825 -0.299668,-0.076 -0.543799,-0.1603 -0.542524,-0.1877 0.0013,-0.028 0.05045,-0.1955 0.109267,-0.3736 0.08059,-0.2437 0.117764,-0.6135 0.150796,-1.4995 0.04394,-1.1777 0.09187,-1.4542 0.333948,-1.9259 0.09493,-0.185 0.09533,-0.1851 0.348765,-0.093 0.172092,0.062 0.202908,0.1142 0.345632,0.5792 0.08616,0.2809 0.172066,0.6597 0.190865,0.8418 0.03293,0.3188 0.04329,0.3354 0.279859,0.45 0.433696,0.2099 0.867618,0.1314 1.038223,-0.1869 0.04168,-0.079 0.08179,-0.7799 0.10847,-1.9041 l 0.04249,-1.7804 0.199415,-0.1661 c 0.109665,-0.092 0.279355,-0.2406 0.377058,-0.3321 l 0.177655,-0.1661 -0.617458,0.043 c -0.711935,0.048 -0.789445,0.048 -1.492045,-0.013 -0.616529,-0.049 -1.02188,0.025 -1.536496,0.2816 -0.277019,0.1379 -0.573951,0.3985 -1.381943,1.2132 -1.09964,1.109 -1.402482,1.3272 -2.09008,1.5063 -0.485222,0.1261 -1.539603,0.1142 -2.656291,-0.031 -2.1004222,-0.2719 -2.559184,-0.2667 -3.556183,0.04 -0.3303235,0.1009 -0.7084694,0.1642 -1.1652802,0.193 -0.5563318,0.034 -0.7411831,0.071 -1.0421922,0.2074 -0.4063451,0.183 -0.8643636,0.6197 -1.0673779,1.0177 -0.2893784,0.5673 -0.4757299,1.5005 -0.5564382,2.7868 l -0.024563,0.3904 0.2132234,0.036 c 0.1172324,0.019 0.4414493,0.036 0.7203788,0.036 l 0.5071553,8e-4 0.031597,-1.1911 c 0.033327,-1.2593 0.096389,-1.6321 0.3648169,-2.1578 0.1668614,-0.327 0.3996148,-0.5552 0.6897363,-0.6765 0.330602,-0.1382 0.3662366,-0.1129 0.1795,0.1289 -0.4953523,0.6411 -0.6039553,1.0043 -0.6039553,2.0194 0,1.2881 -0.181041,1.9761 -0.6875058,2.6128 -0.3363115,0.4229 -0.3710169,0.5079 -0.3710169,0.9096 0,0.3538 -0.3119355,1.6535 -0.5845984,2.4358 -0.1512343,0.4337 -0.1521237,0.5765 -0.00398,0.7103 0.070495,0.064 0.1317044,0.2188 0.154593,0.3914 l 0.037834,0.2857 0.4922852,0 c 0.3353823,0 0.4922723,-0.021 0.4922723,-0.069 0,-0.037 -0.1058153,-0.2615 -0.2352226,-0.4971 -0.1293147,-0.2358 -0.2352226,-0.4931 -0.2352226,-0.5719 0,-0.1889 0.2505702,-1.0471 0.4774818,-1.6355 0.2115641,-0.5486 0.6054833,-1.009 1.382301,-1.6157 0.2636485,-0.2057 0.6296593,-0.5366 0.8133426,-0.7349 l 0.3339875,-0.3608 0.2005043,0.1944 c 0.2782131,0.2697 0.405576,0.6787 0.354169,1.1375 -0.022175,0.1977 -0.054836,0.4938 -0.072624,0.6579 l -0.032393,0.2986 0.3929623,0.3126 c 0.5263409,0.4189 1.0322884,1.0321 1.3306284,1.6125 0.1348242,0.2623 0.3099839,0.5467 0.3892459,0.6321 0.08351,0.091 0.1577661,0.2569 0.1765391,0.397 l 0.03239,0.2417 0.550915,0 c 0.303013,0 0.550915,-0.015 0.550915,-0.031 0,-0.1235 -0.469755,-0.837 -1.3723031,-2.0847 -0.4760878,-0.6583 -0.6859128,-1.0501 -0.6859128,-1.2808 0,-0.092 0.075151,-0.3907 0.166941,-0.6638 0.091874,-0.2726 0.2270976,-0.7409 0.3006102,-1.0401 0.07355,-0.2991 0.1637946,-0.5434 0.2005976,-0.5429 0.03678,6e-4 0.3050981,0.042 0.5961891,0.089 0.730961,0.1222 1.900914,0.1669 2.499254,0.096 0.274906,-0.031 0.504088,-0.055 0.509266,-0.049 0.02403,0.025 -0.279805,1.4954 -0.410845,1.9877 -0.08085,0.3036 -0.177497,0.7239 -0.214857,0.9336 -0.03731,0.2099 -0.175079,0.6158 -0.306054,0.9019 -0.259414,0.5667 -0.259653,0.5608 0.03863,0.9689 0.0786,0.1075 0.16037,0.3125 0.181838,0.4558 l 0.03903,0.2605 0.522583,0 c 0.287413,0 0.522583,-0.015 0.522583,-0.031 z"
       id="path14157-8"
       inkscape:connector-curvature="0" />
  </g>
</svg>
