<svg xmlns="http://www.w3.org/2000/svg" xmlns:xlink="http://www.w3.org/1999/xlink" width="24" height="24" viewBox="0 0 24 24"><defs><linearGradient id="a"><stop offset="0" stop-color="#177217" stop-opacity=".996"/><stop offset="1" stop-color="#4eab46" stop-opacity=".996"/></linearGradient><linearGradient id="b"><stop offset="0"/><stop offset="1" stop-opacity="0"/></linearGradient><linearGradient id="d"><stop offset="0" stop-color="#1f58b6"/><stop offset="1" stop-color="#7aa4e8"/></linearGradient><radialGradient xlink:href="#a" id="f" cx="6.393" cy="15.165" fx="6.393" fy="15.165" r="11.932" gradientUnits="userSpaceOnUse" gradientTransform="matrix(1.4121 -1.10457 1.0703 1.3683 -14.652 5.117)"/><linearGradient xlink:href="#b" id="g" x1="4.943" y1="20.047" x2="30.151" y2="-6.266" gradientUnits="userSpaceOnUse"/><radialGradient xlink:href="#d" id="c" gradientUnits="userSpaceOnUse" gradientTransform="matrix(1.4121 -1.10457 1.0703 1.3683 -14.652 5.117)" cx="6.393" cy="15.165" fx="6.393" fy="15.165" r="11.932"/><radialGradient xlink:href="#d" id="e" gradientUnits="userSpaceOnUse" gradientTransform="matrix(1.4121 -1.10457 1.0703 1.3683 -14.652 5.117)" cx="6.393" cy="15.165" fx="6.393" fy="15.165" r="11.932"/><clipPath id="h"><circle style="isolation:auto;mix-blend-mode:normal" cx="11.999" cy="12.001" r="10.96" color="#000" overflow="visible" fill="maroon" stroke-opacity=".428"/></clipPath></defs><g color="#000" fill-rule="evenodd"><path d="M23.932 12A11.932 11.932 0 0 1 12 23.932 11.932 11.932 0 0 1 .068 12 11.932 11.932 0 0 1 12 .068 11.932 11.932 0 0 1 23.932 12z" style="isolation:auto;mix-blend-mode:normal" overflow="visible" fill="url(#f)"/><path d="M12.047.006C5.437.006.067 5.374.067 11.984c0 6.61 5.37 11.98 11.98 11.98s11.978-5.37 11.978-11.98S18.657.006 12.047.006zm0 .963c6.09 0 11.015 4.925 11.015 11.014 0 6.09-4.926 11.016-11.015 11.016A11.008 11.008 0 0 1 1.03 11.984C1.03 5.894 5.958.97 12.048.97z" style="line-height:normal;text-indent:0;text-align:start;text-decoration-line:none;text-decoration-style:solid;text-decoration-color:#000;text-transform:none;block-progression:tb;isolation:auto;mix-blend-mode:normal" font-weight="400" font-family="sans-serif" white-space="normal" overflow="visible" opacity=".096" fill="url(#g)"/></g><path transform="matrix(1 0 0 1 .132 .033)" style="isolation:auto;mix-blend-mode:normal" d="M3.756 17.37a.66.66 0 0 0-.662.663c0 .01.005.02.006.03h-.006v6H21.03v-6c.002-.01.007-.02.007-.03a.662.662 0 0 0-.664-.662H3.756z" clip-path="url(#h)" color="#000" overflow="visible" fill="#250"/><path d="M5.805 20.852c-.29-.073-.494-.234-.61-.48l-.07-.152v-4.874l.347-.543.348-.542v-1.81c0-.997-.007-1.812-.016-1.812-.01 0-.162.22-.34.492l-.325.492-.016 1.544-.015 1.544-.66.008-.658.008V13.1c0-1.842.005-1.886.216-2.307a1.88 1.88 0 0 1 1.055-.917l.197-.07 2.157-.01 2.157-.008V8.34c0-.846.013-1.515.03-1.61.048-.25.164-.468.347-.65a1.25 1.25 0 0 1 1.78.007c.264.26.36.55.395 1.178l.007.148.983.253c1.083.278 1.133.3 1.268.557.192.37-.1.844-.52.845-.083 0-.496-.08-.92-.18-.425-.1-.784-.183-.8-.183-.014 0-.026.246-.026.545v.545h1.862l2.558-2.646c1.407-1.457 2.562-2.63 2.567-2.61.005.024-.02.296-.053.61-.034.31-.062.6-.062.64 0 .06.2.202 1.343.96.837.554 1.373.93 1.422.993.336.44.22 1.04-.252 1.307-.158.09-.184.094-.476.092l-.31-.007-.063.19c-.17.506-.643 1.035-1.142 1.27a2.416 2.416 0 0 1-1.556.157c-.018-.007-.467.878-.998 1.96l-.965 1.967v5.54l-.072.152c-.084.182-.297.386-.46.442a.975.975 0 0 1-.637-.03.778.778 0 0 1-.41-.412l-.07-.15-.01-2.84-.007-2.838-2.124.008-2.124.007-.373.637-.372.64.837 1.98.837 1.98.002.227c0 .19-.012.252-.08.383-.15.283-.412.434-.757.434a.8.8 0 0 1-.61-.28c-.07-.088-.387-.8-1.02-2.292l-.92-2.165-.016-.692-.016-.69-.392.616-.394.616-.015 2.134-.016 2.135-.07.152a.76.76 0 0 1-.375.396c-.14.07-.407.114-.525.085zm13.2-10.558a1.8 1.8 0 0 0 1.135-.966c.15-.327.198-.29-.558-.437a15.19 15.19 0 0 0-.67-.12c-.014.015-.77 1.536-.77 1.548 0 .056.632.04.863-.024zM10.43 5.297c-.854-.318-1.098-1.415-.456-2.056.794-.793 2.14-.232 2.143.893.002.847-.887 1.46-1.687 1.164z" fill="#102900"/><path d="M5.825 19.798c-.29-.073-.495-.233-.61-.48l-.07-.15V14.29l.347-.542.348-.543v-1.81c0-.997-.008-1.813-.017-1.813-.008 0-.162.222-.34.492l-.325.492-.015 1.544-.015 1.544-.658.01-.66.007.002-1.628c0-1.84.005-1.885.216-2.305a1.88 1.88 0 0 1 1.055-.917l.197-.07 2.157-.01 2.157-.008V7.287c0-.846.012-1.515.03-1.61.048-.25.164-.47.346-.65a1.25 1.25 0 0 1 1.78.006c.264.26.36.552.394 1.178l.008.15.983.253c1.083.278 1.133.3 1.267.556.193.368-.1.843-.52.845-.082 0-.496-.08-.92-.18-.424-.1-.783-.183-.798-.183-.015 0-.027.245-.027.545v.545H14l2.557-2.647c1.407-1.455 2.562-2.628 2.567-2.607.005.022-.018.295-.052.607-.035.313-.063.6-.063.64 0 .062.198.204 1.343.962.836.554 1.373.928 1.422.992.335.44.22 1.04-.253 1.307-.157.09-.183.094-.476.092l-.31-.008-.062.19c-.17.506-.644 1.034-1.142 1.27a2.416 2.416 0 0 1-1.557.156c-.017-.006-.466.88-.997 1.96l-.966 1.968v5.54l-.07.153c-.086.18-.3.384-.462.44a.975.975 0 0 1-.637-.028.778.778 0 0 1-.41-.413l-.07-.153-.01-2.838-.007-2.84-2.124.008-2.125.008-.372.638-.373.638.837 1.98.836 1.982.003.227c0 .19-.013.253-.08.383-.15.284-.412.435-.758.435a.8.8 0 0 1-.608-.282c-.07-.087-.388-.8-1.022-2.29l-.92-2.166-.016-.692-.015-.692-.393.616-.393.617-.015 2.133-.016 2.134-.07.152a.76.76 0 0 1-.375.395c-.14.07-.407.114-.525.084zm13.2-10.557a1.8 1.8 0 0 0 1.135-.966c.15-.326.198-.29-.56-.436a15.19 15.19 0 0 0-.67-.122c-.013.016-.768 1.536-.768 1.548 0 .056.63.04.863-.023zM10.45 4.244c-.855-.317-1.098-1.415-.456-2.056.794-.793 2.14-.232 2.143.892 0 .847-.888 1.46-1.687 1.163z" fill="#fff"/></svg>