<svg xmlns="http://www.w3.org/2000/svg" xmlns:xlink="http://www.w3.org/1999/xlink" width="24" height="24" viewBox="0 0 24 24"><defs><linearGradient id="a"><stop offset="0" stop-color="#b30101" stop-opacity=".996"/><stop offset="1" stop-color="#fa4667" stop-opacity=".996"/></linearGradient><linearGradient id="b"><stop offset="0"/><stop offset="1" stop-opacity="0"/></linearGradient><linearGradient id="d"><stop offset="0" stop-color="#1f58b6"/><stop offset="1" stop-color="#7aa4e8"/></linearGradient><radialGradient xlink:href="#a" id="f" cx="6.393" cy="15.165" fx="6.393" fy="15.165" r="11.932" gradientUnits="userSpaceOnUse" gradientTransform="matrix(1.4121 -1.10457 1.0703 1.3683 -14.652 5.117)"/><linearGradient xlink:href="#b" id="g" x1="4.943" y1="20.047" x2="30.151" y2="-6.266" gradientUnits="userSpaceOnUse"/><radialGradient xlink:href="#d" id="c" gradientUnits="userSpaceOnUse" gradientTransform="matrix(1.4121 -1.10457 1.0703 1.3683 -14.652 5.117)" cx="6.393" cy="15.165" fx="6.393" fy="15.165" r="11.932"/><radialGradient xlink:href="#d" id="e" gradientUnits="userSpaceOnUse" gradientTransform="matrix(1.4121 -1.10457 1.0703 1.3683 -14.652 5.117)" cx="6.393" cy="15.165" fx="6.393" fy="15.165" r="11.932"/></defs><g color="#000" fill-rule="evenodd"><path d="M23.932 12A11.932 11.932 0 0 1 12 23.932 11.932 11.932 0 0 1 .068 12 11.932 11.932 0 0 1 12 .068 11.932 11.932 0 0 1 23.932 12z" style="isolation:auto;mix-blend-mode:normal" overflow="visible" fill="url(#f)"/><path d="M12.047.006C5.437.006.067 5.374.067 11.984c0 6.61 5.37 11.98 11.98 11.98s11.978-5.37 11.978-11.98S18.657.006 12.047.006zm0 .963c6.09 0 11.015 4.925 11.015 11.014 0 6.09-4.926 11.016-11.015 11.016A11.008 11.008 0 0 1 1.03 11.984C1.03 5.894 5.958.97 12.048.97z" style="line-height:normal;text-indent:0;text-align:start;text-decoration-line:none;text-decoration-style:solid;text-decoration-color:#000;text-transform:none;block-progression:tb;isolation:auto;mix-blend-mode:normal" font-weight="400" font-family="sans-serif" white-space="normal" overflow="visible" opacity=".096" fill="url(#g)"/></g><path d="M10.474 18.416l.02-2.26h3.014l.04 4.52h5.265l.48-.35.356-.435c-.012-3.905.04-7.812-.045-11.716.23-1.344-1.265-1.182-2.156-1.163-4.08-.01-8.162-.05-12.242.034-1.14 0-.735 1.466-.843 2.22-.026 3.552-.012 7.105-.014 10.658l.485.473.43.282h5.188l.02-2.26z" fill="#500"/><g fill="maroon" color="#000"><path d="M8.563 6.76l-1.43-.694-1.383.79.22-1.576-1.18-1.07 1.567-.28.653-1.45.75 1.403 1.582.173L8.24 5.203zM13.505 6.76l-1.432-.694-1.38.79.217-1.576-1.178-1.07 1.566-.28.653-1.45.75 1.403 1.583.173-1.103 1.147zM18.446 6.76l-1.432-.694-1.38.79.217-1.576-1.177-1.07 1.567-.28.653-1.45.75 1.403 1.582.173-1.104 1.147z" style="isolation:auto;mix-blend-mode:normal" overflow="visible"/></g><path d="M10.44 17.377c.008-.754.014-1.507.02-2.26h3.027l.042 4.52h6.126c-.017-4.167.044-8.336-.046-12.503.23-1.343-1.27-1.18-2.165-1.162-4.097 0-8.195-.05-12.29.033-1.145 0-.74 1.465-.848 2.218-.028 3.805-.01 7.61-.015 11.414h6.128l.02-2.26z" fill="#f2f2f2"/><path d="M5.872 17.296c-.053-.725-.002-1.453.005-2.18l2.975-.042v2.322c-.964-.015-1.932.04-2.892-.052l-.088-.05zM15.034 16.237v-1.162l2.976.042v2.24c-.992.015-1.984.03-2.976.043v-1.163zM5.838 12.412v-1.12h3.014v2.24H5.838v-1.12zM10.397 12.412v-1.12h3.092v2.24h-3.093v-1.12zM15.034 12.412v-1.12h3.014v2.24h-3.014v-1.12zM5.838 8.625v-1.12h3.014v2.24H5.838v-1.12zM10.397 8.625v-1.12h3.092v2.24h-3.093v-1.12zM15.034 8.625v-1.12h3.014v2.24h-3.014v-1.12z"/><path style="isolation:auto;mix-blend-mode:normal" color="#000" overflow="visible" d="M10.358 15.084h3.228v4.575h-3.228z"/><g fill="#efa" color="#000"><path d="M8.496 5.543L7.064 4.85l-1.38.79L5.9 4.06l-1.178-1.07 1.567-.28.652-1.45.75 1.404 1.582.172L8.17 3.985zM13.437 5.543l-1.432-.694-1.38.79.217-1.578-1.178-1.07 1.566-.28.654-1.45.75 1.404 1.58.172-1.102 1.147zM18.378 5.543l-1.432-.694-1.38.79.217-1.578-1.178-1.07 1.567-.28.653-1.45.75 1.404 1.582.172-1.104 1.147z" style="isolation:auto;mix-blend-mode:normal" overflow="visible"/></g></svg>