<svg xmlns="http://www.w3.org/2000/svg" xmlns:xlink="http://www.w3.org/1999/xlink" width="24" height="24" viewBox="0 0 24 24"><defs><linearGradient id="a"><stop offset="0" stop-color="#e35f00" stop-opacity=".996"/><stop offset="1" stop-color="#ff950d" stop-opacity=".996"/></linearGradient><linearGradient id="b"><stop offset="0"/><stop offset="1" stop-opacity="0"/></linearGradient><linearGradient id="d"><stop offset="0" stop-color="#1f58b6"/><stop offset="1" stop-color="#7aa4e8"/></linearGradient><radialGradient xlink:href="#a" id="f" cx="6.393" cy="15.165" fx="6.393" fy="15.165" r="11.932" gradientUnits="userSpaceOnUse" gradientTransform="matrix(1.4121 -1.10457 1.0703 1.3683 -14.652 5.117)"/><linearGradient xlink:href="#b" id="g" x1="4.943" y1="20.047" x2="30.151" y2="-6.266" gradientUnits="userSpaceOnUse"/><radialGradient xlink:href="#d" id="c" gradientUnits="userSpaceOnUse" gradientTransform="matrix(1.4121 -1.10457 1.0703 1.3683 -14.652 5.117)" cx="6.393" cy="15.165" fx="6.393" fy="15.165" r="11.932"/><radialGradient xlink:href="#d" id="e" gradientUnits="userSpaceOnUse" gradientTransform="matrix(1.4121 -1.10457 1.0703 1.3683 -14.652 5.117)" cx="6.393" cy="15.165" fx="6.393" fy="15.165" r="11.932"/></defs><g color="#000" fill-rule="evenodd"><path d="M23.932 12A11.932 11.932 0 0 1 12 23.932 11.932 11.932 0 0 1 .068 12 11.932 11.932 0 0 1 12 .068 11.932 11.932 0 0 1 23.932 12z" style="isolation:auto;mix-blend-mode:normal" overflow="visible" fill="url(#f)"/><path d="M12.047.006C5.437.006.067 5.374.067 11.984c0 6.61 5.37 11.98 11.98 11.98s11.978-5.37 11.978-11.98S18.657.006 12.047.006zm0 .963c6.09 0 11.015 4.925 11.015 11.014 0 6.09-4.926 11.016-11.015 11.016A11.008 11.008 0 0 1 1.03 11.984C1.03 5.894 5.958.97 12.048.97z" style="line-height:normal;text-indent:0;text-align:start;text-decoration-line:none;text-decoration-style:solid;text-decoration-color:#000;text-transform:none;block-progression:tb;isolation:auto;mix-blend-mode:normal" font-weight="400" font-family="sans-serif" white-space="normal" overflow="visible" opacity=".096" fill="url(#g)"/></g><path d="M4.92 20.773c-.19-.083-.227-.223-.227-.846 0-.407.013-.56.055-.643.114-.22.116-.22 1.872-.22h1.6v-.586H6.64c-1.773 0-1.796-.01-1.894-.236-.077-.185-.076-1.157.002-1.307.113-.22.116-.22 1.87-.22h1.6v-.587H6.64c-1.778 0-1.794 0-1.894-.242a.53.53 0 0 1-.044-.216c.007-.054.25-.292.71-.694l.697-.61H17.422l.68.59c.738.64.756.666.646.93-.1.24-.116.24-1.894.24h-1.58v.588h1.58c1.772 0 1.795.01 1.892.236.076.18.076 1.11 0 1.29-.097.233-.12.236-1.892.236h-1.58v.588h1.6c1.777 0 1.773 0 1.874.24.077.185.073 1.156-.006 1.308-.113.22-.07.216-2.77.216H13.51v-4.523l-.09-.09-.09-.09h-3.167l-.09.09-.09.09v4.522h-2.47c-2.06 0-2.492-.01-2.592-.053zm5.65-1.958c0-1.517.012-2.024.045-2.058.063-.063 2.2-.063 2.263 0 .033.033.044.54.044 2.058v2.013H10.57v-2.013zm1.158-.044v-.275h-.551l-.01.235c-.017.34-.017.34.294.327l.268-.01v-.276zm-7.9-3.87c-.168-.074-.82-.785-.87-.95-.088-.298-.292-.105 4.29-4.08 3.123-2.71 4.26-3.675 4.364-3.707a.356.356 0 0 1 .286.01c.095.035.68.518 1.73 1.43.87.758 1.598 1.384 1.615 1.39.016.01.03-.287.03-.654 0-.742.022-.83.232-.96.107-.064.19-.07.944-.07.763 0 .835.01.947.074.226.138.227.152.23 2.01v1.682l1.42 1.23c1.55 1.342 1.57 1.366 1.486 1.646-.057.187-.732.905-.905.962-.18.06-.36.013-.54-.14-.088-.073-1.767-1.527-3.73-3.23-1.965-1.702-3.59-3.095-3.61-3.095-.023 0-1.694 1.433-3.715 3.186-2.022 1.753-3.737 3.215-3.81 3.25-.163.076-.247.08-.395.013zm2.995-1.142c0-.026 4.848-4.247 4.902-4.267.03-.01 1.044.843 2.432 2.045a409.22 409.22 0 0 1 2.475 2.15l.09.09h-4.95c-2.72 0-4.95-.01-4.95-.017zm5.21-1.07a.722.722 0 0 0 .446-.677c0-.796-1.104-1.02-1.412-.284-.198.476.146 1.014.652 1.018a.98.98 0 0 0 .312-.055zm4.157-6.05c-.176-.09-.33-.324-.328-.504.002-.27.235-.528.518-.575.133-.023.134-.024.1-.15a.87.87 0 0 1 .07-.544.865.865 0 0 1 1.01-.447l.173.052.075-.12c.107-.174.35-.382.547-.472.24-.11.655-.106.904.01.24.108.507.375.61.61.113.255.116.666.005.91-.3.666-1.113.92-1.694.53l-.176-.12-.125.104c-.18.15-.483.232-.68.187l-.156-.035-.022.132a.58.58 0 0 1-.326.445c-.203.092-.307.09-.506-.01z" fill="#2b0000"/><path d="M4.92 19.746c-.19-.083-.228-.223-.228-.846 0-.407.013-.56.056-.643.113-.22.116-.22 1.87-.22h1.6v-.587H6.64c-1.772 0-1.795-.01-1.892-.237-.078-.185-.076-1.157.002-1.308.113-.218.116-.22 1.87-.22h1.6V15.1H6.64c-1.778 0-1.794 0-1.894-.24a.53.53 0 0 1-.045-.217c.007-.053.25-.29.708-.693l.698-.61h11.316l.68.59c.738.64.756.666.646.93-.1.24-.116.24-1.894.24h-1.58v.589h1.58c1.77 0 1.794.01 1.892.236.075.18.075 1.11 0 1.29-.098.234-.12.237-1.892.237h-1.58v.587h1.6c1.777 0 1.773 0 1.873.24.077.185.074 1.156-.005 1.308-.113.22-.07.215-2.77.215H13.51v-4.522l-.09-.09-.09-.09h-3.167l-.09.09-.09.09V19.8h-2.47c-2.06 0-2.492-.01-2.593-.054z" fill="#fff"/><path d="M10.57 17.876c0-1.517.01-2.024.044-2.057.063-.064 2.2-.064 2.263 0 .034.032.044.54.044 2.056v2.013H10.57v-2.014z" fill="#ffd42a"/><path d="M11.727 17.832v-.275h-.551l-.01.235c-.017.34-.017.34.295.327l.267-.012v-.276z" fill="#fff"/><path d="M15.264 7.83c.017.01.03-.287.03-.653 0-.742.022-.83.232-.958.108-.066.19-.072.944-.072.765 0 .836.01.95.074.224.137.226.15.227 2.01v1.68" fill="#ccc"/><path d="M17.604 11.092l1.42 1.23c1.55 1.343 1.57 1.366 1.486 1.646-.057.187-.732.905-.904.962-.18.06-.36.013-.542-.14-.087-.073-1.765-1.527-3.73-3.23-1.964-1.702-3.588-3.095-3.61-3.095-.02 0-1.693 1.434-3.714 3.187-2.02 1.753-3.736 3.216-3.81 3.25-.163.076-.246.08-.395.013-.168-.073-.82-.784-.868-.95-.09-.297-.293-.104 4.287-4.078 3.125-2.71 4.26-3.676 4.365-3.708a.356.356 0 0 1 .285.01c.096.034.68.518 1.73 1.43.87.757 1.598 1.383 1.615 1.39z" fill="#500"/><path d="M17.683 9.51l1.42 1.23c1.55 1.34 1.572 1.364 1.487 1.645-.057.187-.732.905-.905.962-.18.06-.36.013-.54-.14-.088-.074-1.767-1.527-3.73-3.23-1.965-1.702-3.59-3.095-3.61-3.095-.023 0-1.694 1.434-3.715 3.187-2.022 1.752-3.737 3.214-3.81 3.25-.163.075-.247.078-.395.012-.168-.074-.82-.785-.87-.95-.088-.297-.292-.104 4.29-4.078 3.123-2.71 4.26-3.676 4.364-3.708a.356.356 0 0 1 .285.01c.095.035.68.518 1.73 1.43.87.758 1.598 1.383 1.615 1.39z" fill="#fff"/><path d="M6.823 12.73c0-.025 4.847-4.246 4.9-4.267.03-.01 1.046.843 2.434 2.045a409.22 409.22 0 0 1 2.474 2.15l.092.09h-4.95c-2.722 0-4.95-.01-4.95-.017z" fill="#ccc"/><path d="M12.03 11.662a.722.722 0 0 0 .45-.678c0-.797-1.105-1.02-1.412-.285-.2.475.146 1.013.65 1.017a.98.98 0 0 0 .313-.055z" fill="#fa8b0a" fill-opacity=".996"/><path d="M16.146 5.873c-.177-.09-.33-.324-.33-.504.003-.272.236-.53.52-.576.132-.022.133-.023.098-.15a.87.87 0 0 1 .07-.543.865.865 0 0 1 1.01-.446l.175.053.074-.12c.106-.174.348-.382.546-.472.24-.11.655-.106.905.01.24.108.507.375.61.61.114.255.116.666.006.91-.3.666-1.113.92-1.693.53l-.178-.12-.126.104c-.177.148-.482.23-.68.186L17 5.31l-.022.132a.58.58 0 0 1-.327.445c-.202.092-.305.09-.504-.01z" fill="#f9f9f9"/></svg>