<svg xmlns="http://www.w3.org/2000/svg" xmlns:xlink="http://www.w3.org/1999/xlink" width="24" height="24" viewBox="0 0 24 24"><defs><linearGradient id="a"><stop offset="0" stop-color="#b30101" stop-opacity=".996"/><stop offset="1" stop-color="#fa4667" stop-opacity=".996"/></linearGradient><linearGradient id="b"><stop offset="0"/><stop offset="1" stop-opacity="0"/></linearGradient><linearGradient id="d"><stop offset="0" stop-color="#1f58b6"/><stop offset="1" stop-color="#7aa4e8"/></linearGradient><radialGradient xlink:href="#a" id="f" cx="6.393" cy="15.165" fx="6.393" fy="15.165" r="11.932" gradientUnits="userSpaceOnUse" gradientTransform="matrix(1.4121 -1.10457 1.0703 1.3683 -14.652 5.117)"/><linearGradient xlink:href="#b" id="g" x1="4.943" y1="20.047" x2="30.151" y2="-6.266" gradientUnits="userSpaceOnUse"/><radialGradient xlink:href="#d" id="c" gradientUnits="userSpaceOnUse" gradientTransform="matrix(1.4121 -1.10457 1.0703 1.3683 -14.652 5.117)" cx="6.393" cy="15.165" fx="6.393" fy="15.165" r="11.932"/><radialGradient xlink:href="#d" id="e" gradientUnits="userSpaceOnUse" gradientTransform="matrix(1.4121 -1.10457 1.0703 1.3683 -14.652 5.117)" cx="6.393" cy="15.165" fx="6.393" fy="15.165" r="11.932"/></defs><g color="#000" fill-rule="evenodd"><path d="M23.932 12A11.932 11.932 0 0 1 12 23.932 11.932 11.932 0 0 1 .068 12 11.932 11.932 0 0 1 12 .068 11.932 11.932 0 0 1 23.932 12z" style="isolation:auto;mix-blend-mode:normal" overflow="visible" fill="url(#f)"/><path d="M12.047.006C5.437.006.067 5.374.067 11.984c0 6.61 5.37 11.98 11.98 11.98s11.978-5.37 11.978-11.98S18.657.006 12.047.006zm0 .963c6.09 0 11.015 4.925 11.015 11.014 0 6.09-4.926 11.016-11.015 11.016A11.008 11.008 0 0 1 1.03 11.984C1.03 5.894 5.958.97 12.048.97z" style="line-height:normal;text-indent:0;text-align:start;text-decoration-line:none;text-decoration-style:solid;text-decoration-color:#000;text-transform:none;block-progression:tb;isolation:auto;mix-blend-mode:normal" font-weight="400" font-family="sans-serif" white-space="normal" overflow="visible" opacity=".096" fill="url(#g)"/></g><path d="M5.16 20.84c-.19-.082-.228-.222-.228-.845 0-.406.013-.56.055-.643.114-.22.116-.22 1.872-.22h1.598v-.588h-1.58c-1.772 0-1.795-.01-1.893-.236-.077-.187-.076-1.158.002-1.31.113-.218.116-.218 1.87-.218h1.6v-.588h-1.58c-1.778 0-1.794 0-1.894-.242a.53.53 0 0 1-.044-.216c.006-.054.25-.292.708-.694l.698-.61H17.66l.68.59c.74.64.757.666.647.93-.1.24-.116.24-1.894.24h-1.58v.589h1.58c1.772 0 1.795.01 1.892.237.076.18.076 1.11 0 1.29-.097.235-.12.238-1.892.238h-1.58v.587h1.6c1.777 0 1.773 0 1.874.24.077.185.073 1.156-.006 1.308-.112.22-.07.216-2.77.216h-2.46v-4.522l-.092-.09-.09-.09h-3.166l-.09.09-.09.09v4.522h-2.47c-2.06 0-2.492-.01-2.592-.054zm5.65-1.957c0-1.517.01-2.024.044-2.057.063-.063 2.2-.063 2.263 0 .033.033.044.54.044 2.057v2.013h-2.35v-2.013zm1.157-.044v-.276h-.55l-.01.234c-.017.34-.017.34.294.327l.267-.01v-.276zm-7.9-3.873c-.17-.073-.82-.784-.87-.95-.088-.297-.292-.104 4.29-4.078 3.123-2.71 4.26-3.677 4.364-3.71a.356.356 0 0 1 .287.01c.095.036.68.52 1.73 1.432.87.757 1.598 1.383 1.615 1.39.016.01.03-.288.03-.654 0-.742.022-.83.232-.958.107-.065.19-.07.944-.07.764 0 .836.01.948.073.226.137.227.15.23 2.01v1.68l1.42 1.232c1.55 1.342 1.57 1.365 1.486 1.645-.057.187-.732.905-.905.962-.18.06-.36.013-.54-.14-.088-.073-1.767-1.527-3.73-3.23-1.965-1.702-3.59-3.095-3.61-3.095-.023 0-1.694 1.434-3.715 3.187-2.022 1.753-3.737 3.216-3.81 3.25-.163.076-.247.08-.395.013zm2.995-1.14c0-.027 4.848-4.248 4.902-4.268.03-.012 1.044.84 2.432 2.043a409.22 409.22 0 0 1 2.475 2.152l.092.088h-4.95c-2.722 0-4.95-.01-4.95-.016zm5.21-1.07a.722.722 0 0 0 .446-.678c0-.798-1.103-1.022-1.41-.286-.2.476.145 1.014.65 1.02a.98.98 0 0 0 .313-.056zm4.157-6.05c-.177-.09-.33-.325-.33-.504.003-.27.236-.53.52-.576.132-.022.133-.023.098-.15a.87.87 0 0 1 .07-.543.865.865 0 0 1 1.01-.447l.174.053.075-.12c.107-.174.35-.382.547-.472.24-.11.655-.106.904.01.24.108.508.375.61.61.114.255.117.666.006.91-.3.666-1.113.92-1.694.53l-.177-.12-.125.105c-.178.148-.482.23-.68.186l-.155-.037-.022.132a.58.58 0 0 1-.325.445c-.203.092-.307.09-.506-.01z" fill="#2b0000"/><path d="M5.16 19.814c-.19-.083-.23-.223-.23-.846 0-.407.014-.56.057-.643.113-.22.116-.22 1.87-.22h1.6v-.587h-1.58c-1.772 0-1.795-.01-1.892-.236-.078-.186-.076-1.158.002-1.308.113-.22.116-.22 1.87-.22h1.6v-.586h-1.58c-1.778 0-1.794 0-1.894-.242a.53.53 0 0 1-.045-.216c.008-.055.25-.293.71-.695l.697-.61H17.66l.68.59c.74.64.757.666.647.93-.1.24-.116.24-1.894.24h-1.58v.589h1.58c1.77 0 1.794.01 1.892.236.075.18.075 1.11 0 1.29-.098.235-.12.237-1.892.237h-1.58v.589h1.6c1.777 0 1.773 0 1.873.24.077.185.074 1.156-.005 1.308-.112.22-.07.216-2.77.216H13.75v-4.522l-.09-.09-.09-.09h-3.166l-.09.09-.09.09v4.52H7.75c-2.06 0-2.492-.01-2.593-.053z" fill="#fff"/><path d="M10.81 17.944c0-1.517.01-2.024.043-2.057.063-.063 2.2-.063 2.263 0 .034.033.044.54.044 2.057v2.014H10.81v-2.014z" fill="#ffd42a"/><path d="M11.966 17.9v-.275h-.55l-.01.235c-.017.34-.017.34.295.327l.266-.01V17.9z" fill="#fff"/><path d="M15.503 7.9c.017.01.03-.29.03-.655 0-.74.022-.83.232-.958.108-.065.19-.07.944-.07.764 0 .835.01.948.073.225.137.227.15.228 2.01v1.68" fill="#ccc"/><path d="M17.843 11.16l1.42 1.23c1.55 1.343 1.57 1.366 1.486 1.646-.058.187-.733.906-.905.962-.18.06-.36.013-.542-.14-.087-.073-1.765-1.527-3.73-3.23-1.964-1.702-3.588-3.095-3.61-3.095-.02 0-1.693 1.434-3.714 3.187-2.022 1.753-3.737 3.216-3.812 3.25-.162.077-.245.08-.394.014-.168-.074-.82-.785-.868-.95-.09-.298-.293-.105 4.287-4.08 3.125-2.71 4.26-3.674 4.365-3.707a.356.356 0 0 1 .286.01c.096.035.68.52 1.73 1.43.87.758 1.598 1.384 1.615 1.39z" fill="#500"/><path d="M17.922 9.577l1.42 1.23c1.55 1.343 1.572 1.366 1.487 1.646-.058.187-.733.905-.906.962-.18.06-.36.013-.54-.14-.088-.073-1.767-1.527-3.73-3.23-1.965-1.702-3.59-3.095-3.61-3.095-.023 0-1.694 1.434-3.715 3.187-2.023 1.753-3.738 3.216-3.812 3.25-.162.076-.246.08-.394.013-.168-.073-.82-.784-.87-.95-.088-.297-.292-.104 4.29-4.078 3.123-2.71 4.26-3.676 4.364-3.708a.356.356 0 0 1 .286.01c.095.035.68.52 1.73 1.43.87.758 1.598 1.384 1.615 1.39z" fill="#fff"/><path d="M7.062 12.8c0-.027 4.847-4.248 4.9-4.268.03-.01 1.046.842 2.434 2.044a409.22 409.22 0 0 1 2.474 2.15l.09.09h-4.95c-2.72 0-4.948-.01-4.948-.017z" fill="#ccc"/><path d="M12.27 11.73a.722.722 0 0 0 .448-.678c0-.797-1.104-1.02-1.41-.285-.2.476.145 1.014.65 1.018a.98.98 0 0 0 .312-.055z" fill="#fa8b0a" fill-opacity=".996"/><path d="M16.384 5.94c-.176-.088-.33-.323-.328-.503.002-.27.235-.528.52-.575.13-.022.132-.023.097-.15a.87.87 0 0 1 .07-.543.865.865 0 0 1 1.01-.448l.175.053.075-.12c.106-.174.348-.382.546-.472.24-.11.654-.106.904.01.24.108.507.375.61.61.114.255.116.666.006.91-.3.666-1.114.92-1.694.53l-.178-.12-.125.105c-.177.148-.482.23-.68.186l-.155-.036-.02.132a.58.58 0 0 1-.328.445c-.203.092-.306.09-.506-.01z" fill="#f9f9f9"/></svg>