<svg xmlns="http://www.w3.org/2000/svg" xmlns:xlink="http://www.w3.org/1999/xlink" width="24" height="24" viewBox="0 0 24 24"><defs><filter id="c" color-interpolation-filters="sRGB"><feColorMatrix values="0.21 0.72 0.072 -0.05 0 0.21 0.72 0.072 -0.05 0 0.21 0.72 0.072 -0.05 0 0 0 0 1 0"/></filter><radialGradient xlink:href="#a" id="d" cx="6.393" cy="15.165" fx="6.393" fy="15.165" r="11.932" gradientUnits="userSpaceOnUse" gradientTransform="matrix(1.4121 -1.10457 1.0703 1.3683 -14.652 5.117)"/><linearGradient id="a"><stop offset="0" stop-color="#1f58b6"/><stop offset="1" stop-color="#7aa4e8"/></linearGradient><linearGradient xlink:href="#b" id="e" x1="4.943" y1="20.047" x2="30.151" y2="-6.266" gradientUnits="userSpaceOnUse"/><linearGradient id="b"><stop offset="0"/><stop offset="1" stop-opacity="0"/></linearGradient><clipPath id="f"><path style="isolation:auto;mix-blend-mode:normal" d="M325.84 1083.283a14.05 10.552 45 0 1-8.468 12.425 14.05 10.552 45 0 1-15.395-12.425 14.05 10.552 45 0 1 8.47-12.424 14.05 10.552 45 0 1 15.394 12.423z" color="#000" overflow="visible" fill="#ff2a2a" fill-rule="evenodd" stroke-width="2" stroke-linecap="square" stroke-dashoffset=".85" enable-background="accumulate"/></clipPath></defs><circle style="isolation:auto;mix-blend-mode:normal" cx="12" cy="12" r="11.932" color="#000" overflow="visible" fill="#4f86e1" fill-rule="evenodd" enable-background="accumulate"/><g color="#000" fill-rule="evenodd"><path d="M23.932 12A11.932 11.932 0 0 1 12 23.932 11.932 11.932 0 0 1 .068 12 11.932 11.932 0 0 1 12 .068 11.932 11.932 0 0 1 23.932 12z" style="isolation:auto;mix-blend-mode:normal" overflow="visible" fill="url(#d)" enable-background="accumulate" transform="translate(-.046 .016)"/><path d="M12.047.006C5.437.006.067 5.374.067 11.984c0 6.61 5.37 11.98 11.98 11.98s11.978-5.37 11.978-11.98S18.657.006 12.047.006zm0 .963c6.09 0 11.015 4.925 11.015 11.014 0 6.09-4.926 11.016-11.015 11.016A11.008 11.008 0 0 1 1.03 11.984C1.03 5.894 5.958.97 12.048.97z" style="line-height:normal;text-indent:0;text-align:start;text-decoration-line:none;text-decoration-style:solid;text-decoration-color:#000;text-transform:none;block-progression:tb;isolation:auto;mix-blend-mode:normal" font-weight="400" font-family="sans-serif" white-space="normal" overflow="visible" opacity=".096" fill="url(#e)" enable-background="accumulate" transform="translate(-.046 .016)"/></g><path transform="matrix(1 0 -.2787 .96038 0 -1028.362)" style="isolation:auto;mix-blend-mode:normal" clip-path="url(#f)" d="M301.087 1074.953l14.867.012-.054 3.04-1.082 4.44 2.452 2.233.095 6.87h-16.278z" color="#000" overflow="visible" opacity=".5" fill="#133671" fill-rule="evenodd" enable-background="accumulate"/><g fill="#112d5c"><path d="M10.375 19.62c-.134-.118-.144-.292-.024-.422l.086-.093 1.498-.02c1.256-.017 1.538-.032 1.75-.09.407-.112.444-.162.444-.602 0-.345.01-.382.11-.47a.388.388 0 0 1 .25-.098c.087 0 .18.036.248.097.105.092.11.12.11.567 0 .463 0 .47-.145.66-.116.153-.213.22-.482.34a2.978 2.978 0 0 1-.58.187c-.132.02-.896.04-1.697.04h-1.455l-.11-.098zm1.49-.947a1.057 1.057 0 0 1-.543-.437.812.812 0 0 1-.07-.322c0-.107.205-.99.454-1.96l.452-1.765-.24-.205a467.06 467.06 0 0 1-1.096-.94l-.86-.737-.982.967c-.833.818-1.022.983-1.23 1.074l-.248.107-2.313.012c-2.61.012-2.565.016-2.85-.277-.312-.318-.312-.75 0-1.054.29-.283.25-.278 2.25-.278h1.79l2.418-2.46c1.33-1.352 2.416-2.473 2.414-2.49-.002-.018-.27-.033-.597-.033h-.594L8.875 9.04c-.63.637-1.213 1.192-1.293 1.233-.538.276-1.228-.197-1.05-.72.073-.21 2.674-2.84 2.888-2.918.122-.045.52-.056 2.082-.056 1.9 0 1.935 0 2.11.085.1.047.686.53 1.304 1.074.617.542 1.142.986 1.166.986.024 0 .48-.38 1.01-.844 1.043-.91 1.086-.934 1.472-.87.24.04.53.304.573.522.062.327.016.38-1.295 1.54-1.424 1.257-1.518 1.315-1.956 1.22-.18-.04-.3-.125-.96-.696-.466-.404-.768-.637-.793-.614-.022.02-.496.498-1.052 1.062l-1.01 1.024 1.003.886c.553.487 1.038.945 1.078 1.016.168.295.156.367-.467 2.805-.322 1.267-.62 2.37-.66 2.453-.14.283-.525.504-.87.5a1.28 1.28 0 0 1-.285-.057zm-9.31-2.663c-.222-.057-.562-.28-.748-.493-.23-.262-.353-.496-.886-1.685-.32-.718-.447-1.047-.428-1.114.085-.296.525-.342.686-.073.026.044.253.538.504 1.1.252.56.49 1.074.527 1.14.098.167.462.498.548.498.04 0 .224-.053.41-.117.4-.14.533-.147.664-.04.136.11.164.245.08.386-.057.098-.15.147-.538.28-.483.165-.578.18-.82.118zm12.712-9.1c-.924-.106-1.625-.95-1.457-1.753.106-.502.468-.917.992-1.135.262-.11.335-.12.718-.12.384 0 .457.01.72.12 1.187.494 1.376 1.868.353 2.577a1.92 1.92 0 0 1-1.326.31z"/><path d="M10.375 19.62c-.134-.118-.144-.292-.024-.422l.086-.093 1.52-.022c1.62-.023 1.845-.05 2.072-.234.09-.074.1-.12.1-.457 0-.345.01-.382.11-.47a.388.388 0 0 1 .25-.098c.087 0 .18.036.248.097.105.092.11.12.11.565 0 .44-.007.48-.116.623-.142.186-.246.264-.523.39-.416.192-.657.215-2.25.215h-1.472l-.11-.096zm1.54-.94c-.383-.105-.662-.425-.662-.757 0-.1.202-.97.45-1.937.246-.966.448-1.768.448-1.783 0-.014-.492-.446-1.095-.96l-1.096-.932-.947.923c-.52.508-1.013.967-1.094 1.02-.33.22-.445.227-2.923.215l-2.27-.01-.194-.12c-.602-.37-.537-1.142.117-1.403.165-.065.336-.07 1.958-.072h1.778l2.422-2.464c1.332-1.356 2.43-2.482 2.437-2.503.01-.023-.226-.037-.606-.035l-.622.002L8.873 9.03c-.63.64-1.206 1.2-1.28 1.238-.166.09-.517.096-.697.014a.926.926 0 0 1-.255-.202c-.156-.18-.172-.486-.035-.67.05-.065.662-.696 1.362-1.403C8.787 7.18 9.293 6.7 9.39 6.66c.127-.053.43-.063 2.073-.07 1.91-.01 1.925-.01 2.126.077.134.06.578.42 1.346 1.093l1.144 1.005.99-.864c1.065-.928 1.105-.952 1.492-.89.215.037.48.268.554.486.115.337.076.386-1.253 1.557-.658.58-1.264 1.092-1.346 1.137a.907.907 0 0 1-.648.1c-.163-.034-.31-.142-.945-.692-.656-.567-.762-.644-.818-.594-.035.03-.51.51-1.052 1.06l-.99 1.006 1.027.906c.954.84 1.032.92 1.1 1.12.038.117.07.25.07.297 0 .126-1.156 4.624-1.238 4.816-.09.208-.366.42-.626.478-.234.05-.264.05-.483-.01zm-9.31-2.664c-.415-.088-.805-.42-1.09-.93-.142-.25-.935-1.998-1.005-2.213-.103-.316.33-.552.58-.316.052.048.32.588.594 1.2.496 1.1.667 1.387.934 1.563.127.085.188.076.718-.1.26-.086.29-.09.403-.033a.553.553 0 0 1 .188.165c.06.093.06.12-.007.24-.065.122-.125.155-.544.3-.483.164-.537.173-.77.124zm12.38-9.16c-.425-.12-.858-.464-1.042-.83-.645-1.278.87-2.587 2.312-1.996 1.087.446 1.334 1.704.48 2.453-.336.294-.647.408-1.147.42a2.332 2.332 0 0 1-.602-.047z"/><path d="M10.386 19.615c-.156-.138-.157-.29-.003-.426l.12-.104H11.9c1.468 0 1.747-.026 2.07-.192.135-.068.135-.07.148-.466.012-.37.022-.405.13-.5.15-.133.342-.135.488-.006.104.09.11.122.11.533 0 .49-.042.618-.272.82-.167.147-.302.215-.667.335-.233.077-.36.083-1.825.097l-1.574.014-.122-.105zm1.608-.92c-.443-.095-.74-.41-.74-.783 0-.084.2-.943.448-1.91.247-.965.45-1.772.45-1.792 0-.02-.494-.457-1.097-.97l-1.096-.93-1 .97c-.87.846-1.032.984-1.25 1.074l-.253.103H2.726l-.192-.118c-.602-.372-.518-1.173.15-1.417.14-.052.44-.06 1.936-.06h1.77l2.348-2.39c1.292-1.312 2.4-2.437 2.46-2.5l.108-.114h-.644l-.644.002-1.146 1.166c-.63.642-1.206 1.2-1.28 1.24-.316.17-.786.056-.983-.24-.098-.145-.118-.448-.038-.577.11-.176 2.672-2.72 2.805-2.782.132-.063.323-.07 2.097-.07 1.853 0 1.96.005 2.134.08.114.047.618.458 1.328 1.082l1.144 1.004.967-.842c.8-.7 1-.852 1.157-.892.53-.137 1.052.324.907.8-.042.143-.216.315-1.224 1.206-.647.57-1.265 1.09-1.375 1.152a.844.844 0 0 1-.857.002c-.11-.062-.487-.372-.838-.69l-.637-.577-1.06 1.073-1.057 1.073.986.866c.608.534 1.024.934 1.087 1.04a.71.71 0 0 1 .098.414c-.002.155-.213 1.053-.592 2.525-.505 1.958-.607 2.307-.714 2.442a1.013 1.013 0 0 1-.93.337zm-9.446-2.7c-.362-.1-.726-.405-.97-.81-.14-.23-.81-1.677-1.02-2.197-.09-.225-.064-.368.084-.466.123-.082.342-.065.447.035.05.048.297.545.545 1.103.25.558.502 1.1.562 1.202.135.234.446.52.565.52.05 0 .24-.052.428-.117.39-.136.458-.142.6-.055.14.086.192.223.138.36-.053.134-.117.17-.566.322-.454.154-.58.17-.814.104zm12.476-9.138c-.68-.22-1.117-.664-1.208-1.23-.163-1.007.865-1.897 1.982-1.715 1.135.185 1.76 1.202 1.3 2.114-.19.376-.62.71-1.072.83-.262.07-.787.07-1.002 0z"/><path d="M10.46 19.67a.355.355 0 0 1-.153-.156c-.068-.145.007-.32.165-.384.075-.03.556-.044 1.47-.044 1.423 0 1.706-.027 2.028-.192.133-.067.136-.075.16-.46.027-.445.048-.502.205-.564.17-.07.264-.055.393.06.114.098.12.12.12.532 0 .504-.046.622-.315.835-.23.183-.485.286-.89.36-.37.07-3.025.08-3.184.012zm1.31-1.044c-.31-.143-.513-.41-.517-.683-.002-.076.204-.952.457-1.947l.46-1.81-1.098-.936c-.605-.516-1.11-.936-1.122-.935-.012 0-.466.437-1.008.97-.86.845-1.016.98-1.235 1.07l-.25.102H5.12c-2.28 0-2.34-.002-2.514-.082-.533-.244-.637-.943-.195-1.304.25-.202.31-.208 2.212-.208h1.772l2.37-2.413c1.302-1.328 2.41-2.453 2.46-2.502l.09-.09-.648.002h-.648L8.858 9.04c-.753.766-1.21 1.2-1.31 1.24-.56.234-1.172-.212-.997-.727.07-.196 2.63-2.802 2.844-2.892.215-.09 3.94-.088 4.183 0 .106.04.582.426 1.336 1.084l1.17 1.022.92-.81c1-.88 1.168-.988 1.484-.94.54.08.813.592.525.987-.153.21-2.4 2.157-2.58 2.238-.22.098-.552.083-.75-.034-.09-.054-.462-.367-.828-.696l-.664-.6-1.008 1.023c-.555.563-1.037 1.055-1.072 1.094-.06.065.02.145.95.964.558.492 1.048.954 1.09 1.027.045.08.076.225.076.355 0 .137-.223 1.09-.59 2.525-.645 2.524-.645 2.523-1.015 2.707-.216.108-.644.12-.85.024zm-9.194-2.63a1.31 1.31 0 0 1-.34-.133 2.472 2.472 0 0 1-.672-.702c-.2-.332-1.053-2.258-1.057-2.388-.005-.144.17-.304.33-.304.236 0 .324.132.782 1.162.24.542.493 1.083.56 1.203.155.27.457.55.594.55a2.4 2.4 0 0 0 .45-.12c.22-.075.387-.11.457-.094.263.057.35.343.157.506-.117.097-.637.292-.898.336a1.14 1.14 0 0 1-.364-.017zm12.448-9.137c-.45-.152-.748-.355-.97-.664-.18-.25-.25-.517-.234-.876.013-.263.04-.363.163-.58.523-.932 1.943-1.133 2.764-.392.834.754.584 1.972-.498 2.42-.256.107-.362.127-.685.135-.237.006-.442-.01-.54-.044z"/><path d="M10.46 19.67a.355.355 0 0 1-.153-.156c-.068-.145.007-.32.165-.384.075-.03.562-.045 1.49-.045 1.445 0 1.68-.022 1.998-.185l.145-.074.025-.392c.028-.455.048-.506.226-.57.168-.062.367.003.44.143.085.163.062.836-.034 1.022-.167.32-.62.56-1.228.645-.377.054-2.946.05-3.075-.006zm1.286-1.067c-.263-.117-.455-.36-.48-.608-.015-.143.092-.624.433-1.95.248-.97.45-1.787.45-1.82 0-.056-2.125-1.895-2.192-1.895-.02 0-.47.426-1.003.946-.588.574-1.037.978-1.143 1.03-.327.157-.558.17-2.796.17H2.87l-.236-.102c-.32-.14-.47-.34-.49-.66-.02-.308.107-.543.387-.714l.196-.118 1.837-.012 1.838-.01 2.39-2.432a8970.47 8970.47 0 0 0 2.455-2.5c.063-.065.032-.07-.58-.07h-.65l-1.16 1.18c-.742.755-1.213 1.202-1.308 1.24-.318.133-.713.04-.91-.213-.116-.15-.136-.47-.04-.624C6.72 9.25 9.174 6.8 9.345 6.7l.18-.104 1.998.01 2 .013.202.124c.11.068.686.55 1.28 1.073l1.076.948.967-.844c.798-.695.998-.85 1.146-.883a.912.912 0 0 1 .648.104c.265.17.35.552.188.83-.124.21-2.415 2.196-2.62 2.27a.968.968 0 0 1-.604.02c-.07-.022-.464-.336-.877-.697-.413-.36-.758-.648-.767-.638-.008.01-.46.47-1 1.022-.543.553-1.015 1.037-1.05 1.076-.06.066.02.145.953.965.66.58 1.04.945 1.086 1.04.037.08.068.24.068.355 0 .124-.235 1.132-.587 2.512-.646 2.54-.64 2.527-1.025 2.705-.262.12-.59.123-.86.003zM2.38 15.93c-.245-.113-.495-.327-.697-.598-.212-.283-1.166-2.385-1.166-2.57 0-.23.306-.37.52-.238.11.067.12.09.675 1.323.454 1.01.645 1.32.906 1.476l.157.094.23-.08c.594-.208.673-.216.847-.08.107.08.105.33-.004.416-.046.036-.258.127-.47.203-.46.162-.732.177-.997.055zm12.67-9.07c-.5-.144-.857-.414-1.074-.813-.128-.233-.14-.29-.14-.65 0-.344.015-.422.12-.617.612-1.146 2.464-1.173 3.1-.045.43.766.067 1.673-.815 2.035a1.55 1.55 0 0 1-.65.13 2.076 2.076 0 0 1-.54-.04z"/><path d="M10.49 19.667c-.17-.08-.245-.24-.172-.373.11-.2.174-.207 1.68-.208 1.482 0 1.718-.024 2.006-.204.12-.074.124-.092.125-.42 0-.383.052-.513.238-.59.16-.068.354-.006.428.135.064.123.066.734.003.932-.095.294-.462.546-1.01.69-.316.082-3.133.114-3.3.037zm1.253-1.067a1.1 1.1 0 0 1-.333-.26c-.215-.267-.192-.438.307-2.364a50.6 50.6 0 0 0 .434-1.74c0-.068-2.147-1.936-2.203-1.916-.017.005-.47.44-1.006.963-1.034 1.013-1.12 1.076-1.592 1.154-.313.052-4.33.053-4.536.002a1.02 1.02 0 0 1-.545-.352c-.092-.12-.11-.19-.11-.425 0-.25.015-.3.134-.45.075-.092.217-.204.316-.25.17-.078.264-.082 1.998-.1l1.82-.02 2.347-2.384a309.44 309.44 0 0 0 2.442-2.492l.092-.11h-1.292L8.854 9.037c-.767.778-1.21 1.198-1.313 1.24-.328.138-.756.022-.92-.25-.095-.155-.108-.45-.026-.578.064-.1 2.434-2.504 2.622-2.66a.962.962 0 0 1 .254-.147c.083-.026.79-.04 2.022-.04 1.806 0 1.904.004 2.095.08.144.057.53.367 1.35 1.082l1.147 1.002.897-.79c.495-.433.965-.824 1.046-.87.1-.053.22-.08.376-.078.59.004.91.55.583.993-.202.274-2.377 2.143-2.583 2.218a.93.93 0 0 1-.598.022c-.07-.022-.464-.336-.877-.697-.413-.36-.76-.648-.77-.638-.486.48-2.095 2.137-2.095 2.157 0 .015.446.418.992.894.623.544 1.025.925 1.078 1.024.048.09.084.246.085.368 0 .13-.225 1.094-.585 2.5-.647 2.533-.657 2.56-1.027 2.732a1.05 1.05 0 0 1-.862 0zm-9.39-2.686c-.278-.126-.628-.48-.82-.822-.262-.474-1.016-2.206-1.016-2.337 0-.14.17-.287.333-.287.216 0 .28.102.81 1.27.538 1.194.725 1.494 1.005 1.622.113.05.152.045.46-.06.412-.145.615-.154.726-.035.106.114.104.324-.002.408-.046.036-.258.127-.47.203-.472.166-.724.176-1.025.038zM15.02 6.838a1.63 1.63 0 0 1-.744-.404 1.387 1.387 0 0 1-.184-1.863c.64-.848 2.095-.884 2.805-.07.37.428.44 1.05.168 1.547-.373.685-1.235 1.02-2.046.79z"/><path d="M10.49 19.665c-.17-.075-.245-.237-.172-.37.11-.2.173-.208 1.683-.21 1.27 0 1.427-.007 1.69-.078.4-.11.427-.142.445-.6.013-.33.03-.395.114-.47a.377.377 0 0 1 .476 0c.09.08.098.126.098.55 0 .393-.013.48-.092.598-.2.297-.672.512-1.296.588-.507.062-2.803.055-2.947-.008zm1.324-1.027c-.352-.142-.59-.498-.543-.81.016-.103.228-.962.472-1.91l.443-1.725-.882-.757c-.484-.416-.99-.843-1.122-.95l-.24-.195-.118.124c-.066.067-.51.505-.99.974-.957.935-1.043.993-1.567 1.052-.44.05-4.262.046-4.47-.005a1.08 1.08 0 0 1-.332-.167c-.474-.364-.426-.984.098-1.268l.218-.118 1.823-.014 1.824-.013 2.38-2.42c1.31-1.333 2.41-2.457 2.443-2.5.06-.074.047-.076-.59-.076h-.65L8.927 8.95c-.593.602-1.136 1.14-1.207 1.2-.245.202-.502.238-.802.11-.328-.14-.47-.5-.317-.8.076-.144 2.544-2.637 2.736-2.76.123-.08.184-.084 2.044-.095 1.344-.01 1.97 0 2.097.033.147.037.397.234 1.38 1.094l1.203 1.05.932-.812c.512-.446.982-.84 1.043-.875.15-.088.523-.084.72.008.32.15.462.592.273.853-.17.233-2.4 2.18-2.596 2.262a.89.89 0 0 1-.628.04c-.07-.024-.465-.338-.88-.698-.452-.395-.766-.64-.79-.618-.39.378-2.072 2.11-2.072 2.134 0 .017.446.422.992.898.623.544 1.025.925 1.078 1.024.047.088.084.246.085.36 0 .28-1.147 4.755-1.27 4.947-.146.23-.394.36-.722.374a1.14 1.14 0 0 1-.41-.042zM2.368 15.91c-.288-.124-.63-.452-.81-.777-.24-.426-1.04-2.26-1.04-2.38 0-.066.038-.146.09-.188.113-.09.378-.097.472-.014.037.033.28.535.54 1.115.537 1.202.58 1.28.81 1.514.243.248.315.26.697.123.38-.138.588-.15.714-.038.116.1.12.32.01.407-.135.107-.868.34-1.067.34a1.21 1.21 0 0 1-.415-.1zm12.71-9.055c-.762-.188-1.263-.766-1.264-1.46 0-.292.097-.56.304-.837.65-.87 2.172-.86 2.834.017.316.42.364.997.12 1.464-.332.638-1.225 1.004-1.993.815z"/><path d="M10.557 19.688c-.25-.054-.343-.357-.153-.508.088-.07.203-.076 1.628-.096 1.483-.022 1.62-.033 1.928-.158.145-.06.158-.098.18-.56.014-.284.034-.362.107-.427a.392.392 0 0 1 .48-.002c.09.08.097.126.097.548 0 .394-.013.482-.092.6-.208.31-.7.524-1.357.59-.39.04-2.646.048-2.818.012zm1.21-1.094c-.252-.11-.446-.335-.49-.57-.028-.14.12-.763.803-3.407l.11-.43-1.058-.91c-.582-.5-1.09-.923-1.125-.94-.08-.042.002-.114-1.11.978-1.13 1.11-1.096 1.09-2.044 1.128-1.097.044-3.742.04-3.99-.007-.27-.05-.532-.234-.644-.45-.23-.442.074-.976.62-1.087.093-.02.938-.037 1.877-.038l1.707-.002 2.426-2.467a245.778 245.778 0 0 0 2.44-2.5c.01-.02-.278-.034-.637-.034H10L8.865 9.007c-.625.632-1.194 1.186-1.264 1.23-.176.115-.56.115-.735 0-.313-.203-.416-.53-.25-.79.043-.068.658-.708 1.366-1.42.87-.878 1.34-1.32 1.445-1.364.138-.057.376-.065 2.014-.065 1.193 0 1.92.015 2.037.042.15.036.383.22 1.378 1.09l1.2 1.047.93-.8c.513-.44.994-.833 1.07-.874.186-.1.487-.095.7.01.32.158.45.537.28.812-.128.208-2.434 2.216-2.64 2.3-.428.173-.6.094-1.49-.684-.4-.35-.745-.623-.764-.607-.02.017-.503.504-1.075 1.082l-1.04 1.05 1 .886c.55.487 1.034.937 1.078 1 .186.264.164.4-.445 2.78-.693 2.713-.627 2.494-.8 2.667-.29.29-.7.362-1.09.19zm-9.355-2.66c-.27-.107-.632-.446-.825-.77-.2-.336-1.07-2.277-1.07-2.386 0-.325.483-.4.645-.1.037.07.26.552.493 1.075.235.523.47 1.025.524 1.117.112.194.42.5.537.532.045.013.236-.03.424-.097.19-.065.403-.12.476-.12.264 0 .41.288.236.468-.103.108-.86.36-1.076.36-.094 0-.257-.036-.364-.08zM15.17 6.872c-.812-.14-1.406-.836-1.346-1.576.042-.517.426-1.013.964-1.243.357-.153.952-.18 1.32-.057 1.187.392 1.504 1.768.578 2.5-.442.347-.95.474-1.516.376z"/></g><path d="M12.39 19.63a.308.308 0 0 1-.022-.422l.075-.093 1.313-.02c1.102-.017 1.35-.032 1.534-.09.358-.112.39-.162.39-.602 0-.345.008-.382.097-.47a.318.318 0 0 1 .218-.098c.077 0 .158.036.22.097.09.092.095.12.095.567 0 .463 0 .47-.128.66-.102.154-.187.22-.423.34-.163.082-.392.166-.51.187-.115.02-.785.04-1.487.04h-1.277l-.097-.098zm1.306-.947a.96.96 0 0 1-.476-.437.91.91 0 0 1-.06-.322c0-.107.178-.99.396-1.96l.397-1.765-.21-.205-.962-.94-.752-.737-.862.967c-.73.818-.896.983-1.08 1.074l-.216.107-2.028.012c-2.287.012-2.25.016-2.5-.277-.272-.318-.272-.75 0-1.053.257-.283.22-.278 1.974-.278h1.57l2.12-2.46c1.166-1.35 2.12-2.472 2.117-2.49-.002-.018-.237-.032-.524-.032h-.52l-1.007 1.16c-.553.638-1.063 1.193-1.133 1.234-.474.276-1.078-.197-.92-.72.062-.21 2.342-2.84 2.53-2.918.107-.045.456-.056 1.826-.056 1.666 0 1.696 0 1.85.086.088.047.602.53 1.143 1.073.54.542 1 .987 1.022.987.02 0 .42-.38.887-.844.913-.91.95-.935 1.29-.87.21.04.464.303.5.52.056.328.015.383-1.135 1.54-1.248 1.258-1.33 1.317-1.715 1.222-.158-.04-.262-.125-.84-.696-.41-.405-.675-.638-.697-.615-.02.02-.436.498-.923 1.06l-.886 1.025.88.887c.483.487.908.944.944 1.016.147.294.137.367-.41 2.804-.283 1.268-.545 2.372-.58 2.454-.123.283-.46.504-.76.5a.996.996 0 0 1-.252-.056zM5.532 16.02c-.194-.056-.493-.28-.656-.492-.202-.263-.31-.497-.776-1.686-.282-.718-.394-1.047-.377-1.113a.322.322 0 0 1 .602-.074c.023.043.22.538.442 1.1.22.56.428 1.073.462 1.138.086.168.405.5.48.5.035 0 .197-.054.36-.118.35-.138.467-.146.582-.04.12.11.144.245.07.386-.05.1-.132.146-.472.28-.424.165-.507.18-.718.117zm11.147-9.1c-.81-.106-1.426-.95-1.278-1.753.092-.502.41-.917.87-1.135.23-.11.293-.12.63-.12.336 0 .4.01.63.12a1.517 1.517 0 0 1 .31 2.577c-.328.258-.735.367-1.163.31z" fill="#fff"/></svg>