<svg xmlns="http://www.w3.org/2000/svg" xmlns:xlink="http://www.w3.org/1999/xlink" width="24" height="24" viewBox="0 0 24 24"><defs><linearGradient id="b"><stop offset="0"/><stop offset="1" stop-opacity="0"/></linearGradient><linearGradient id="a"><stop offset="0" stop-color="#1f58b6"/><stop offset="1" stop-color="#7aa4e8"/></linearGradient><radialGradient xlink:href="#a" id="e" cx="6.393" cy="15.165" fx="6.393" fy="15.165" r="11.932" gradientUnits="userSpaceOnUse" gradientTransform="matrix(1.4121 -1.10457 1.0703 1.3683 -14.652 5.117)"/><linearGradient xlink:href="#b" id="f" x1="4.943" y1="20.047" x2="30.151" y2="-6.266" gradientUnits="userSpaceOnUse"/><radialGradient xlink:href="#a" id="g" gradientUnits="userSpaceOnUse" gradientTransform="matrix(1.4121 -1.10457 1.0703 1.3683 -14.652 5.117)" cx="6.393" cy="15.165" fx="6.393" fy="15.165" r="11.932"/><clipPath id="i"><path style="isolation:auto;mix-blend-mode:normal" d="M22.982 12A10.982 10.982 0 0 1 12 22.982 10.982 10.982 0 0 1 1.018 12 10.982 10.982 0 0 1 12 1.018 10.982 10.982 0 0 1 22.982 12z" color="#000" overflow="visible" fill="url(#c)" fill-rule="evenodd" stroke-width="2" stroke-linecap="square" stroke-dashoffset=".85"/></clipPath><radialGradient xlink:href="#a" id="c" gradientUnits="userSpaceOnUse" gradientTransform="matrix(1.29966 -1.0166 .98508 1.25934 -12.53 5.665)" cx="6.393" cy="15.165" fx="6.393" fy="15.165" r="11.932"/><clipPath id="h"><path style="isolation:auto;mix-blend-mode:normal" d="M22.982 12A10.982 10.982 0 0 1 12 22.982 10.982 10.982 0 0 1 1.018 12 10.982 10.982 0 0 1 12 1.018 10.982 10.982 0 0 1 22.982 12z" color="#000" overflow="visible" fill="url(#d)" fill-rule="evenodd" stroke-width="2" stroke-linecap="square" stroke-dashoffset=".85"/></clipPath><radialGradient xlink:href="#a" id="d" gradientUnits="userSpaceOnUse" gradientTransform="matrix(1.29966 -1.0166 .98508 1.25934 -12.53 5.665)" cx="6.393" cy="15.165" fx="6.393" fy="15.165" r="11.932"/></defs><g color="#000" fill-rule="evenodd"><path d="M23.932 12A11.932 11.932 0 0 1 12 23.932 11.932 11.932 0 0 1 .068 12 11.932 11.932 0 0 1 12 .068 11.932 11.932 0 0 1 23.932 12z" style="isolation:auto;mix-blend-mode:normal" overflow="visible" fill="url(#e)"/><path d="M12.047.006C5.437.006.067 5.374.067 11.984c0 6.61 5.37 11.98 11.98 11.98s11.978-5.37 11.978-11.98S18.657.006 12.047.006zm0 .963c6.09 0 11.015 4.925 11.015 11.014 0 6.09-4.926 11.016-11.015 11.016A11.008 11.008 0 0 1 1.03 11.984C1.03 5.894 5.958.97 12.048.97z" style="line-height:normal;text-indent:0;text-align:start;text-decoration-line:none;text-decoration-style:solid;text-decoration-color:#000;text-transform:none;block-progression:tb;isolation:auto;mix-blend-mode:normal" font-weight="400" font-family="sans-serif" white-space="normal" overflow="visible" opacity=".096" fill="url(#f)"/></g><path style="isolation:auto;mix-blend-mode:normal" d="M23.932 12A11.932 11.932 0 0 1 12 23.932 11.932 11.932 0 0 1 .068 12 11.932 11.932 0 0 1 12 .068 11.932 11.932 0 0 1 23.932 12z" color="#000" overflow="visible" fill="url(#g)" fill-rule="evenodd"/><path d="M.016 18.08l24-17.8.062 23.814-24.094-.08z" clip-path="url(#h)" fill="#205abb" fill-rule="evenodd"/><path d="M0 19.856l24-12.45.063 16.657-24.094-.057z" clip-path="url(#i)" fill="#174186" fill-rule="evenodd"/><path d="M7.19 21.09c-.23-.035-.55-.275-.683-.513-.218-.39-.216-.398.62-3.543.41-1.54.754-2.828.765-2.86.014-.04.06-.004.142.105.202.273.505.534 1.068.918.295.202.537.384.537.405 0 .134-1.29 4.89-1.355 4.998a1.07 1.07 0 0 1-.59.455.89.89 0 0 1-.505.035zm6.64-.007c-.326-.085-.657-.388-.738-.677a66.105 66.105 0 0 1-.337-1.92c-.162-.972-.304-1.81-.315-1.86-.015-.066-.523-.434-1.737-1.257-1.03-.7-1.796-1.248-1.914-1.372-.346-.363-.54-.912-.48-1.36.054-.408 1.41-5.636 1.498-5.78.224-.362.655-.61 1.062-.61.307 0 1.714.203 1.912.276.325.12.486.316 1.427 1.745l.915 1.39H17.3l.025-.178c.013-.1.06-.508.102-.91.095-.884.113-.916.515-.905.28.01.44.087.502.245.027.072-.205 1.962-.803 6.54-.462 3.54-.848 6.46-.858 6.487a.39.39 0 0 1-.128.12c-.094.062-.134.065-.278.022-.11-.033-.182-.085-.206-.15-.025-.065.12-1.587.444-4.662l.48-4.574c0-.004-.62-.014-1.378-.02-1.326-.013-1.386-.017-1.552-.106-.242-.13-.34-.253-1.004-1.267-.322-.492-.59-.89-.597-.884-.017.016-.86 3.94-.86 4.002 0 .032.533.435 1.185.897.65.46 1.228.89 1.28.953.054.063.127.196.163.295.114.308.79 4.472.76 4.667-.044.277-.26.586-.5.72-.227.127-.553.18-.76.128zM6.187 12.23c-.5-.12-.907-.24-.97-.286a.603.603 0 0 1-.163-.23c-.054-.143-.03-.263.436-2.23.502-2.112.59-2.416.828-2.863.445-.834 1.272-1.16 2.27-.897.26.068.404.19.465.397.04.134-.033.46-.692 3.09-.496 1.987-.76 2.97-.813 3.03-.088.098-.31.203-.424.198-.04 0-.463-.095-.937-.21zm5.94-6.64c-1.026-.197-1.69-.97-1.702-1.974-.01-.894.5-1.62 1.346-1.922.352-.126.953-.127 1.3 0 .838.303 1.348 1.022 1.348 1.9 0 .88-.52 1.612-1.35 1.897-.247.087-.743.14-.943.1z" fill="#fff"/></svg>