<svg xmlns="http://www.w3.org/2000/svg" xmlns:xlink="http://www.w3.org/1999/xlink" width="24" height="24" viewBox="0 0 24 24"><defs><linearGradient id="b"><stop offset="0"/><stop offset="1" stop-opacity="0"/></linearGradient><linearGradient id="a"><stop offset="0" stop-color="#1f58b6"/><stop offset="1" stop-color="#7aa4e8"/></linearGradient><radialGradient xlink:href="#a" id="e" cx="6.393" cy="15.165" fx="6.393" fy="15.165" r="11.932" gradientUnits="userSpaceOnUse" gradientTransform="matrix(1.4121 -1.10457 1.0703 1.3683 -14.652 5.117)"/><linearGradient xlink:href="#b" id="f" x1="4.943" y1="20.047" x2="30.151" y2="-6.266" gradientUnits="userSpaceOnUse"/><radialGradient xlink:href="#a" id="c" gradientUnits="userSpaceOnUse" gradientTransform="matrix(1.4121 -1.10457 1.0703 1.3683 -14.652 5.117)" cx="6.393" cy="15.165" fx="6.393" fy="15.165" r="11.932"/><radialGradient xlink:href="#a" id="d" gradientUnits="userSpaceOnUse" gradientTransform="matrix(1.4121 -1.10457 1.0703 1.3683 -14.652 5.117)" cx="6.393" cy="15.165" fx="6.393" fy="15.165" r="11.932"/><clipPath id="g"><ellipse style="isolation:auto;mix-blend-mode:normal" cx="-178.104" cy="1255.813" rx="114.379" ry="113.786" color="#000" overflow="visible" fill="red" stroke-width="10.403" stroke-opacity=".345" enable-background="accumulate"/></clipPath><filter id="h" x="-.096" width="1.192" y="-.096" height="1.192" color-interpolation-filters="sRGB"><feGaussianBlur stdDeviation="1.308"/></filter></defs><g color="#000" fill-rule="evenodd"><path d="M23.932 12A11.932 11.932 0 0 1 12 23.932 11.932 11.932 0 0 1 .068 12 11.932 11.932 0 0 1 12 .068 11.932 11.932 0 0 1 23.932 12z" style="isolation:auto;mix-blend-mode:normal" overflow="visible" fill="url(#e)" enable-background="accumulate"/><path d="M12.047.006C5.437.006.067 5.374.067 11.984c0 6.61 5.37 11.98 11.98 11.98s11.978-5.37 11.978-11.98S18.657.006 12.047.006zm0 .963c6.09 0 11.015 4.925 11.015 11.014 0 6.09-4.926 11.016-11.015 11.016A11.008 11.008 0 0 1 1.03 11.984C1.03 5.894 5.958.97 12.048.97z" style="line-height:normal;text-indent:0;text-align:start;text-decoration-line:none;text-decoration-style:solid;text-decoration-color:#000;text-transform:none;block-progression:tb;isolation:auto;mix-blend-mode:normal" font-weight="400" font-family="sans-serif" white-space="normal" overflow="visible" opacity=".096" fill="url(#f)" enable-background="accumulate"/></g><g transform="matrix(.09612 0 0 .09612 29.12 -108.713)"><ellipse style="isolation:auto;mix-blend-mode:normal" cx="-180.867" cy="1347.166" rx="130.204" ry="91.679" clip-path="url(#g)" color="#000" overflow="visible" fill="#5aba00" fill-rule="evenodd" enable-background="accumulate"/><path d="M-232.92 1237.55c-9.758-5.15-12.112-18.984-4.727-27.76 10.642-12.648 31.68-5.173 31.68 11.255 0 11.597-6.897 18.534-18.335 18.438-3.11-.026-6.41-.765-8.62-1.932zm27.77 110.285c-3.906-2.182-4.568-5.498-2.956-14.81 1.692-9.786.598-19.403-3.022-26.546-4.286-8.46-6.647-8.476-7.493-.054-.885 8.79-4.82 14.813-12.084 18.49-8.224 4.16-28.646-1.094-31.556-8.12-1.154-2.787-1.095-3.5.546-6.54 2.583-4.782 6.504-5.79 12.547-3.227 6.402 2.715 10.59 3.473 12.13 2.195 2.63-2.184 2.657-8.846.07-17.772-3.026-10.444-5.245-23.782-5.25-31.56 0-5.62-.138-5.948-3.13-7.714-8.207-4.843-14.695-12.735-18.064-21.974-2.677-7.337-2.94-23.483-.448-27.288 1.696-2.59 4.707-3.235 7.326-1.573 1.12.71 1.43 3.04 1.433 10.718 0 12.244 1.808 17.92 7.83 24.618 5.846 6.503 9.802 8.315 22.058 10.102l10.363 1.51 4.762-2.412c9.854-4.993 17.798-16.154 20.316-28.54 1.097-5.402 2.74-7.392 6.095-7.392 2.514 0 4.424 2.874 4.424 6.655 0 4.894-3.89 16.137-7.57 21.87-4.032 6.284-12.02 13.667-18.146 16.77l-5.045 2.558.657 6.67c.892 9.044 4.018 20.805 6.304 23.712 8.265 10.51 11.474 18.99 12.114 32.017.582 11.816-1.042 22.504-3.912 25.762-2.572 2.92-6.986 3.722-10.298 1.872zM-134.768 1233.96c-4.6-1.095-8.973-4.7-10.932-9.013-7.893-17.38 13.88-32.383 26.998-18.606 11.375 11.947.033 31.446-16.066 27.62zm2.878 110.893c-3.822-4.124-11.644-20.962-13.953-30.035-2.036-7.998-2.22-8.315-4.995-8.587-2.585-.252-3.01-.773-4.136-5.052-2.662-10.13.57-37.49 5.934-50.23l1.465-3.48-5.154-2.52c-6.12-2.995-10.384-7.578-13.773-14.805-2.263-4.825-2.482-6.354-2.482-17.355 0-10.525.232-12.32 1.817-14.072 1-1.105 2.772-2.01 3.94-2.01 3.994 0 4.738 2.308 4.738 14.698 0 9.438.324 12.15 1.78 14.88 4.2 7.874 8.1 10.236 18.935 11.47 4.263.488 9.866 1.588 12.452 2.447 5.628 1.87 10.393 1.317 16.848-1.953 7.12-3.608 12.44-11.024 12.47-17.38.01-1.894 2.877-4.124 5.3-4.124 1.386 0 2.905.93 3.835 2.35 3.095 4.724-1.523 17.023-8.787 23.4-3.49 3.066-13.99 8.594-16.322 8.596-3.246 0 1.4 27.276 6.845 40.167.497 1.178-.58 2.056-4.702 3.837l-5.346 2.31 2.206 3.318c2.775 4.175 9.435 7.612 14.75 7.612 5.312 0 8.61 1.59 9.683 4.668 1.124 3.227-.034 6.25-3.186 8.315-2.226 1.46-3.317 1.52-9.6.544-3.9-.605-9.143-2.14-11.65-3.412-5.143-2.606-11.57-9.103-13.615-13.762-1.156-2.634-1.73-3.02-3.75-2.525-1.312.322-2.766.956-3.232 1.41-2.04 1.992 4.717 20.943 10.9 30.58 1.555 2.422 2.827 5.45 2.827 6.732 0 6.54-7.397 8.98-12.04 3.97z" style="isolation:auto;mix-blend-mode:normal" color="#000" overflow="visible" fill="#fff" stroke="#000" stroke-width="9.925" stroke-opacity=".345" enable-background="accumulate"/><path d="M-186.105 1189.987c-5.207-1.368-9.608-5.145-11.818-10.142-1.466-3.313-1.247-9.422.465-12.967 3.833-7.94 13.666-11.53 21.54-7.865 9.82 4.573 12.682 16.286 6.116 25.03-3.354 4.467-11.133 7.303-16.303 5.944z" transform="matrix(1.36585 0 0 1.36585 66.795 -434.036)" fill="#ff0" filter="url(#h)"/><path d="M-233.313 1237.505c-9.757-5.15-12.11-18.985-4.726-27.762 10.643-12.647 31.682-5.17 31.682 11.257 0 11.597-6.898 18.533-18.336 18.437-3.11-.026-6.41-.765-8.62-1.932zm27.77 110.284c-3.905-2.182-4.567-5.5-2.955-14.812 1.692-9.785.598-19.4-3.022-26.545-4.286-8.458-6.647-8.474-7.493-.053-.884 8.79-4.82 14.813-12.083 18.49-8.224 4.16-28.646-1.094-31.556-8.12-1.154-2.787-1.095-3.5.546-6.54 2.583-4.78 6.504-5.79 12.547-3.226 6.403 2.715 10.59 3.473 12.13 2.195 2.63-2.185 2.658-8.847.07-17.773-3.025-10.444-5.245-23.782-5.25-31.56 0-5.62-.137-5.948-3.13-7.714-8.206-4.842-14.694-12.734-18.063-21.973-2.676-7.337-2.94-23.483-.447-27.288 1.696-2.588 4.707-3.235 7.326-1.573 1.12.71 1.43 3.04 1.432 10.718 0 12.243 1.808 17.92 7.83 24.617 5.846 6.503 9.802 8.314 22.058 10.1l10.363 1.512 4.76-2.413c9.854-4.993 17.798-16.154 20.316-28.54 1.097-5.4 2.74-7.392 6.095-7.392 2.515 0 4.425 2.874 4.425 6.655 0 4.895-3.89 16.137-7.57 21.87-4.032 6.284-12.02 13.667-18.146 16.77l-5.047 2.558.657 6.67c.892 9.043 4.018 20.804 6.304 23.71 8.265 10.51 11.474 18.993 12.114 32.018.582 11.817-1.042 22.505-3.912 25.764-2.572 2.92-6.986 3.72-10.298 1.87zM-135.16 1233.913c-4.6-1.093-8.973-4.697-10.932-9.012-7.893-17.377 13.88-32.382 26.998-18.605 11.375 11.946.033 31.445-16.066 27.618zm2.878 110.894c-3.822-4.124-11.645-20.962-13.953-30.035-2.036-7.997-2.22-8.314-4.995-8.587-2.585-.253-3.01-.774-4.136-5.053-2.662-10.13.57-37.49 5.934-50.23l1.465-3.478-5.154-2.522c-6.12-2.995-10.386-7.578-13.775-14.804-2.263-4.825-2.482-6.354-2.482-17.356 0-10.524.232-12.32 1.817-14.072 1-1.105 2.772-2.01 3.938-2.01 3.996 0 4.74 2.31 4.74 14.698 0 9.438.324 12.15 1.78 14.88 4.2 7.874 8.1 10.236 18.935 11.472 4.263.486 9.866 1.586 12.452 2.445 5.628 1.87 10.393 1.317 16.848-1.954 7.12-3.607 12.44-11.023 12.47-17.38.01-1.892 2.877-4.123 5.3-4.123 1.386 0 2.905.93 3.835 2.35 3.095 4.724-1.523 17.023-8.787 23.4-3.49 3.066-13.988 8.594-16.32 8.596-3.248 0 1.4 27.278 6.843 40.168.497 1.18-.58 2.058-4.702 3.838l-5.346 2.31 2.207 3.318c2.776 4.175 9.436 7.612 14.752 7.612 5.31 0 8.608 1.59 9.682 4.668 1.124 3.227-.034 6.25-3.186 8.315-2.226 1.46-3.317 1.522-9.6.545-3.9-.606-9.143-2.142-11.65-3.413-5.143-2.605-11.57-9.102-13.615-13.762-1.157-2.634-1.73-3.02-3.75-2.525-1.312.32-2.766.955-3.232 1.41-2.038 1.99 4.718 20.942 10.9 30.578 1.556 2.423 2.828 5.453 2.828 6.733 0 6.54-7.397 8.98-12.04 3.97z" fill="#fff"/></g></svg>