<svg xmlns="http://www.w3.org/2000/svg" xmlns:xlink="http://www.w3.org/1999/xlink" width="24" height="24" viewBox="0 0 24 24"><defs><radialGradient xlink:href="#a" id="c" cx="6.393" cy="15.165" fx="6.393" fy="15.165" r="11.932" gradientUnits="userSpaceOnUse" gradientTransform="matrix(1.4121 -1.10457 1.0703 1.3683 -14.652 5.117)"/><linearGradient id="a"><stop offset="0" stop-color="#1f58b6"/><stop offset="1" stop-color="#7aa4e8"/></linearGradient><linearGradient xlink:href="#b" id="d" x1="4.943" y1="20.047" x2="30.151" y2="-6.266" gradientUnits="userSpaceOnUse"/><linearGradient id="b"><stop offset="0"/><stop offset="1" stop-opacity="0"/></linearGradient><clipPath id="e"><path d="M23.932 1040.362A11.932 11.932 0 0 1 12 1052.295a11.932 11.932 0 0 1-11.932-11.933A11.932 11.932 0 0 1 12 1028.43a11.932 11.932 0 0 1 11.932 11.932z" style="isolation:auto;mix-blend-mode:normal" color="#000" overflow="visible" fill="red" fill-rule="evenodd" stroke-width="2" stroke-linecap="square" stroke-dashoffset=".85"/></clipPath></defs><g color="#000" fill-rule="evenodd"><path d="M23.932 12A11.932 11.932 0 0 1 12 23.932 11.932 11.932 0 0 1 .068 12 11.932 11.932 0 0 1 12 .068 11.932 11.932 0 0 1 23.932 12z" style="isolation:auto;mix-blend-mode:normal" overflow="visible" fill="url(#c)" transform="translate(-.046 .016)"/><path d="M12.047.006C5.437.006.067 5.374.067 11.984c0 6.61 5.37 11.98 11.98 11.98s11.978-5.37 11.978-11.98S18.657.006 12.047.006zm0 .963c6.09 0 11.015 4.925 11.015 11.014 0 6.09-4.926 11.016-11.015 11.016A11.008 11.008 0 0 1 1.03 11.984C1.03 5.894 5.958.97 12.048.97z" style="line-height:normal;text-indent:0;text-align:start;text-decoration-line:none;text-decoration-style:solid;text-decoration-color:#000;text-transform:none;block-progression:tb;isolation:auto;mix-blend-mode:normal" font-weight="400" font-family="sans-serif" white-space="normal" overflow="visible" opacity=".096" fill="url(#d)" transform="translate(-.046 .016)"/></g><g transform="translate(0 -1028.362)"><ellipse style="isolation:auto;mix-blend-mode:normal" cx="12.281" cy="1047.909" rx="16.938" ry="9.109" clip-path="url(#e)" color="#000" overflow="visible" fill="#338000" fill-opacity=".595" fill-rule="evenodd"/><g stroke="#000" stroke-opacity=".345" fill="#fff"><path d="M16.252 1032.765a2.656 2.656 0 0 0-2.3 1.055c-1.607-.227-2.916 2.28-1.66 3.428.296-.865.558-1.965 1.234-2.598-.23.753-.12 1.597.365 2.313.33.486.955.922 1.517 1.054.433.103 1.03.076 1.478-.062 1.238-.382 2.025-1.663 1.813-2.95-.016-.096-.043-.186-.067-.276.615.643.865 1.69 1.148 2.518 1.238-1.13-.013-3.574-1.588-3.43-.47-.624-1.182-1-1.938-1.052zm-1.513 5.55l-.537.284c-.985.52-1.758 1.517-2.173 2.802-.23.713-.41 1.676-.358 1.918.054.248.305.456.602.496.22.03.29 0 .47-.156.186-.166.223-.255.3-.73.108-.678.38-1.545.59-1.877l.163-.254-.035.26c-.1.71-.492 4.387-.492 4.602 0 .294.102.393.455.44l.264.036v1.365c0 1.53.04 1.726.403 1.948a.842.842 0 0 0 1.166-.28c.115-.19.126-.334.126-1.627v-1.42h.71l.02 1.42c.02 1.208.04 1.45.138 1.63.265.485.947.548 1.336.123l.212-.234v-2.924l.306-.035c.35-.04.48-.167.48-.478 0-.166-.327-3.08-.49-4.37l-.033-.26.172.323c.236.448.4.944.543 1.633.09.43.16.618.266.704.303.245.677.228.95-.047.21-.208.21-.6 0-1.418-.426-1.686-1.234-2.86-2.472-3.595l-.47-.28H14.74z"/><path d="M7.316 1038.077c-1.207-.324-2.002-1.56-1.797-2.797.193-1.17 1.12-2.014 2.29-2.087.803-.05 1.413.182 1.948.74.537.56.738 1.105.697 1.888-.083 1.58-1.602 2.67-3.14 2.257zm-1.08 11.427c-.42-.285-.408-.156-.41-4.657l-.003-4.028-.144.267c-.22.41-.378.922-.532 1.728-.12.63-.164.755-.3.87-.29.252-.88.143-1.03-.19-.1-.215-.09-.467.042-1.145.358-1.845 1.21-3.2 2.388-3.793l.41-.206H9.32l.41.273a5.107 5.107 0 0 1 1.742 1.974c.372.742.72 1.983.72 2.57 0 .243-.03.318-.184.472-.21.208-.532.246-.823.096-.198-.103-.264-.256-.393-.912-.115-.587-.31-1.18-.523-1.59l-.155-.296-.004 3.984c-.003 3.797-.01 3.996-.117 4.236-.15.328-.417.49-.805.49-.39 0-.656-.162-.805-.49-.105-.232-.114-.408-.116-2.258v-2.007h-.598v2.037c0 1.87-.008 2.055-.11 2.245a.927.927 0 0 1-1.324.33z"/></g><g fill="#fff"><path d="M16.244 1032.794a2.656 2.656 0 0 0-2.3 1.054c-1.608-.227-2.916 2.28-1.66 3.428.296-.864.558-1.965 1.233-2.598-.23.753-.12 1.597.365 2.313.33.488.955.923 1.516 1.056.433.102 1.03.076 1.48-.062 1.236-.383 2.024-1.664 1.81-2.952-.015-.095-.04-.185-.065-.275.614.644.864 1.69 1.146 2.52 1.237-1.13-.014-3.575-1.59-3.432-.467-.623-1.18-1-1.936-1.05zm-1.514 5.55l-.535.284c-.986.52-1.758 1.518-2.174 2.802-.23.714-.41 1.677-.356 1.918.054.25.304.456.6.496.22.03.292 0 .472-.156.186-.166.223-.255.3-.728.107-.68.38-1.546.59-1.88l.163-.253-.037.262c-.098.708-.492 4.385-.492 4.6 0 .295.103.393.456.44l.264.036v1.366c0 1.53.04 1.725.404 1.947a.842.842 0 0 0 1.166-.28c.116-.19.127-.335.127-1.63v-1.42h.709l.022 1.42c.018 1.21.038 1.452.136 1.632.265.485.947.547 1.336.123l.213-.235v-2.924l.307-.035c.35-.04.478-.165.478-.477 0-.166-.326-3.08-.488-4.37l-.033-.26.172.323c.234.448.4.944.542 1.633.09.43.16.616.265.702.303.245.677.228.952-.047.207-.208.206-.6 0-1.418-.43-1.685-1.236-2.858-2.474-3.593l-.47-.28h-2.617z"/><path d="M7.307 1038.106c-1.207-.325-2-1.562-1.796-2.798.194-1.17 1.122-2.014 2.292-2.087.803-.05 1.413.183 1.948.74.536.56.737 1.106.696 1.89-.083 1.577-1.6 2.67-3.14 2.256zm-1.08 11.426c-.42-.285-.407-.156-.41-4.657l-.003-4.028-.143.268c-.22.41-.376.923-.53 1.73-.12.627-.164.753-.3.87-.29.25-.88.142-1.03-.19-.1-.216-.09-.47.04-1.147.36-1.845 1.212-3.2 2.39-3.793l.41-.206H9.31l.41.272a5.107 5.107 0 0 1 1.74 1.974c.373.742.72 1.982.72 2.57 0 .243-.03.317-.183.47-.21.21-.533.248-.823.098-.2-.102-.265-.255-.393-.912-.116-.587-.31-1.18-.523-1.59l-.154-.296-.004 3.985c-.003 3.798-.01 3.997-.118 4.236-.15.328-.417.492-.805.492-.39 0-.657-.164-.806-.492-.105-.23-.114-.408-.115-2.258l-.003-2.007h-.594v2.04c0 1.868-.01 2.053-.11 2.243a.927.927 0 0 1-1.326.33z"/></g></g></svg>