<?xml version="1.0" encoding="UTF-8"?>
<!-- Created with Inkscape (http://www.inkscape.org/) -->
<svg width="6.3388mm" height="6.3386mm" version="1.1" viewBox="0 0 6.3388 6.3386" xmlns="http://www.w3.org/2000/svg" xmlns:cc="http://creativecommons.org/ns#" xmlns:dc="http://purl.org/dc/elements/1.1/" xmlns:rdf="http://www.w3.org/1999/02/22-rdf-syntax-ns#" xmlns:xlink="http://www.w3.org/1999/xlink">
 <defs>
  <radialGradient id="radialGradient14151" cx="6.3932" cy="15.165" r="11.932" gradientTransform="matrix(1.4121 -1.1046 1.0703 1.3683 -14.652 5.1167)" gradientUnits="userSpaceOnUse">
   <stop stop-color="#006197" offset="0"/>
   <stop stop-color="#2da4ff" offset="1"/>
  </radialGradient>
  <linearGradient id="linearGradient14183" x1="4.9426" x2="30.151" y1="20.047" y2="-6.2656" gradientUnits="userSpaceOnUse">
   <stop offset="0"/>
   <stop stop-opacity="0" offset="1"/>
  </linearGradient>
  <linearGradient id="linearGradient2622" x1="-618.52" x2="-615.03" y1="81.439" y2="82.438" gradientTransform="matrix(.98686 0 0 1.3786 -8.1224 -31.516)" gradientUnits="userSpaceOnUse">
   <stop stop-color="#39b5f1" offset="0"/>
   <stop stop-color="#34b2f0" stop-opacity=".73333" offset=".26041"/>
   <stop stop-color="#d1eefc" offset=".41067"/>
   <stop stop-color="#6fc9f5" offset=".46498"/>
   <stop stop-color="#dff3fd" offset=".50219"/>
   <stop stop-color="#17a8ef" offset="1"/>
  </linearGradient>
  <clipPath id="clipPath2646">
   <path d="m-605.08 80.047-0.38161-0.35796h-5.8953l-0.49071 0.35438c2.3101 0.0087 4.4573 0.0036 6.7676 0.0036z" fill="#666"/>
  </clipPath>
  <linearGradient id="linearGradient3032" x1="-609.6" x2="-609.6" y1="81.667" y2="82.449" gradientUnits="userSpaceOnUse">
   <stop stop-color="#b3b3b3" offset="0"/>
   <stop stop-color="#b3b3b3" stop-opacity="0" offset="1"/>
  </linearGradient>
  <linearGradient id="linearGradient3040" x1="-607.83" x2="-607.85" y1="81.667" y2="82.442" gradientUnits="userSpaceOnUse">
   <stop stop-color="#b3b3b3" offset="0"/>
   <stop stop-color="#b3b3b3" stop-opacity="0" offset="1"/>
  </linearGradient>
 </defs>
 <metadata>
  <rdf:RDF>
   <cc:Work rdf:about="">
    <dc:format>image/svg+xml</dc:format>
    <dc:type rdf:resource="http://purl.org/dc/dcmitype/StillImage"/>
    <dc:title/>
   </cc:Work>
  </rdf:RDF>
 </metadata>
 <g transform="translate(603.4 -76.872)">
  <g transform="matrix(.26458 0 0 .26458 -603.41 76.871)">
   <g>
    <g fill-rule="evenodd" shape-rendering="auto">
     <path d="m23.932 12a11.932 11.932 0 0 1-11.932 11.932 11.932 11.932 0 0 1-11.932-11.932 11.932 11.932 0 0 1 11.932-11.932 11.932 11.932 0 0 1 11.932 11.932z" color="#000000" color-rendering="auto" fill="url(#radialGradient14151)" image-rendering="auto" solid-color="#000000" style="isolation:auto;mix-blend-mode:normal"/>
     <path d="m12.047 0.0058594c-6.6103-1e-7 -11.979 5.3682-11.979 11.979 0 6.6103 5.3682 11.979 11.979 11.979 6.6103 0 11.979-5.3682 11.979-11.979 0-6.6103-5.3682-11.979-11.979-11.979zm0 0.96289c6.0895 0 11.016 4.9261 11.016 11.016s-4.9261 11.016-11.016 11.016-11.016-4.9261-11.016-11.016c-1e-7 -6.0895 4.9261-11.016 11.016-11.016z" color="#000000" color-rendering="auto" fill="url(#linearGradient14183)" image-rendering="auto" opacity=".096" solid-color="#000000" style="isolation:auto;mix-blend-mode:normal;text-decoration-color:#000000;text-decoration-line:none;text-decoration-style:solid;text-indent:0;text-transform:none;white-space:normal"/>
    </g>
   </g>
  </g>
  <g transform="matrix(.86527 0 0 .91574 -66.529 5.4037)">
   <g transform="matrix(.91848 0 0 .9662 -57.72 3.9835)" fill="#e6e6e6">
    <path d="m-611.02 79.282v3.4658h4.7187v-3.4658h-0.47076v1.6952h-3.8975v-1.6952z" fill="#e6e6e6" style="paint-order:stroke fill markers"/>
    <rect x="-610.78" y="80.977" width="4.1407" height=".31389" ry=".15694" fill="#4d4d4d" style="paint-order:stroke fill markers"/>
    <g transform="matrix(1.1927 0 0 1.1927 117.25 -15.806)">
     <path d="m-610.18 82.432h1.2049c0.0387 0 0.0643-0.03537 0.0698-0.07864l0.0877-0.68494c4e-3 -0.02816-0.0353-0.07864-0.079-0.07864h-1.362c-0.0438 0-0.0845 0.03535-0.0789 0.07864l0.0877 0.68494c5e-3 0.04327 0.0312 0.07864 0.0698 0.07864z" fill="url(#linearGradient3032)" style="paint-order:stroke fill markers"/>
     <path d="m-608.42 82.447h1.2048c0.0387 0 0.0643-0.03537 0.0698-0.07864l0.0877-0.68494c4e-3 -0.02816-0.0353-0.07864-0.079-0.07864h-1.362c-0.0438 0-0.0845 0.03535-0.0789 0.07864l0.0877 0.68494c5e-3 0.04327 0.0312 0.07864 0.0698 0.07864z" fill="url(#linearGradient3040)" style="paint-order:stroke fill markers"/>
    </g>
   </g>
   <rect x="-619.16" y="80.048" width="4.7332" height=".58043" ry=".27362" fill="#999" style="paint-order:stroke fill markers"/>
   <g transform="matrix(.85818 0 0 1.7283 -94.627 -58.317)" clip-path="url(#clipPath2646)">
    <rect x="-611.84" y="79.696" width=".67572" height=".35435" d="m -611.46181,79.695892 c 0.19958,0.0099 0.6,-4.79e-4 0.6,-4.79e-4 -0.10036,0.127961 -0.30286,0.354832 -0.30286,0.354832 -0.22515,0.01007 -0.67572,0 -0.67572,0 0.1262,-0.118117 0.25239,-0.236236 0.37858,-0.354353 z" fill="#c00" style="paint-order:stroke fill markers"/>
    <rect x="-611.16" y="79.696" width=".67572" height=".35435" d="m -610.86181,79.695413 c 0.20172,0.0099 0.60001,-4.78e-4 0.60001,-4.78e-4 -0.0731,0.128175 -0.22715,0.35531 -0.22715,0.35531 -0.22302,0.01009 -0.67572,0 -0.67572,0 0.10096,-0.118277 0.20191,-0.236555 0.30286,-0.354832 z" fill="#fff" style="paint-order:stroke fill markers"/>
    <g transform="translate(1.3514)">
     <rect x="-611.84" y="79.696" width=".67572" height=".35435" d="m -611.61324,79.694935 c 0.20385,0.0099 0.6,-4.79e-4 0.6,-4.79e-4 -0.0458,0.128431 -0.15143,0.355789 -0.15143,0.355789 -0.22088,0.0101 -0.67572,0 -0.67572,0 0.0757,-0.118436 0.15143,-0.236875 0.22715,-0.35531 z" fill="#c00" style="paint-order:stroke fill markers"/>
     <rect x="-611.16" y="79.696" width=".67572" height=".35435" d="m -611.01324,79.694456 c 0.20599,0.0099 0.60001,-4.78e-4 0.60001,-4.78e-4 -0.0185,0.128731 -0.0757,0.356267 -0.0757,0.356267 -0.21874,0.01011 -0.67572,0 -0.67572,0 0.0505,-0.118596 0.10096,-0.237194 0.15143,-0.355789 z" fill="#fff" style="paint-order:stroke fill markers"/>
    </g>
    <g transform="translate(2.7029)">
     <rect x="-611.84" y="79.696" width=".67572" height=".35435" d="m -611.76467,79.693978 c 0.20813,0.01 0.6,-4.79e-4 0.6,-4.79e-4 0.009,0.129056 0,0.356746 0,0.356746 -0.21661,0.01013 -0.67572,0 -0.67572,0 0.0252,-0.118755 0.0505,-0.237513 0.0757,-0.356267 z" fill="#c00" style="paint-order:stroke fill markers"/>
     <rect x="-611.16" y="79.696" width=".67572" height=".35435" d="m -611.16467,79.693499 c 0.21027,0.01 0.6,-4.78e-4 0.6,-4.78e-4 0.0363,0.129365 0.0757,0.357224 0.0757,0.357224 -0.21447,0.01014 -0.67572,0 -0.67572,0 0,-0.118914 0,-0.237832 0,-0.356746 z" fill="#fff" style="paint-order:stroke fill markers"/>
    </g>
    <g transform="translate(4.0543)">
     <rect x="-611.84" y="79.696" width=".67572" height=".35435" d="m -611.91611,79.693021 c 0.2124,0.01 0.6,-4.78e-4 0.6,-4.78e-4 0.0638,0.129632 0.15144,0.357702 0.15144,0.357702 -0.21233,0.01016 -0.67572,0 -0.67572,0 -0.0252,-0.119074 -0.0505,-0.238151 -0.0757,-0.357224 z" fill="#c00" style="paint-order:stroke fill markers"/>
     <rect x="-611.16" y="79.696" width=".67572" height=".35435" d="m -611.31611,79.692543 c 0.21454,0.01 0.6,-4.79e-4 0.6,-4.79e-4 0.0913,0.129854 0.22716,0.358181 0.22716,0.358181 -0.2102,0.01017 -0.67572,0 -0.67572,0 -0.0505,-0.119233 -0.10096,-0.23847 -0.15144,-0.357702 z" fill="#fff" style="paint-order:stroke fill markers"/>
    </g>
    <g transform="translate(5.4058)">
     <rect x="-611.84" y="79.696" width=".67572" height=".35435" d="m -612.06755,79.692064 c 0.21668,0.01 0.60001,-4.78e-4 0.60001,-4.78e-4 0.11871,0.130042 0.30286,0.358659 0.30286,0.358659 -0.20805,0.01019 -0.67571,0 -0.67571,0 -0.0757,-0.119393 -0.15144,-0.238788 -0.22716,-0.358181 z" fill="#c00" style="paint-order:stroke fill markers"/>
     <rect x="-611.16" y="79.696" width=".67572" height=".35435" d="m -611.46754,79.691586 c 0.21881,0.01002 0.6,-4.78e-4 0.6,-4.78e-4 0.14617,0.130212 0.37858,0.359137 0.37858,0.359137 -0.20592,0.0102 -0.67572,0 -0.67572,0 -0.10096,-0.119553 -0.20191,-0.239107 -0.30286,-0.358659 z" fill="#fff" style="paint-order:stroke fill markers"/>
    </g>
   </g>
   <g transform="matrix(.85818 0 0 .91848 -94.627 6.833)">
    <rect x="-611.84" y="79.696" width=".67572" height=".35435" fill="#b10000" style="paint-order:stroke fill markers"/>
    <rect x="-611.16" y="79.696" width=".67572" height=".35435" fill="#eaeaea" style="paint-order:stroke fill markers"/>
    <g transform="translate(1.3514)">
     <rect x="-611.84" y="79.696" width=".67572" height=".35435" fill="#b10000" style="paint-order:stroke fill markers"/>
     <rect x="-611.16" y="79.696" width=".67572" height=".35435" fill="#eaeaea" style="paint-order:stroke fill markers"/>
    </g>
    <g transform="translate(2.7029)">
     <rect x="-611.84" y="79.696" width=".67572" height=".35435" fill="#b10000" style="paint-order:stroke fill markers"/>
     <rect x="-611.16" y="79.696" width=".67572" height=".35435" fill="#eaeaea" style="paint-order:stroke fill markers"/>
    </g>
    <g transform="translate(4.0543)">
     <rect x="-611.84" y="79.696" width=".67572" height=".35435" fill="#b10000" style="paint-order:stroke fill markers"/>
     <rect x="-611.16" y="79.696" width=".67572" height=".35435" fill="#eaeaea" style="paint-order:stroke fill markers"/>
    </g>
    <g transform="translate(5.4058)">
     <rect x="-611.84" y="79.696" width=".67572" height=".35435" fill="#b10000" style="paint-order:stroke fill markers"/>
     <rect x="-611.16" y="79.696" width=".67572" height=".35435" fill="#eaeaea" style="paint-order:stroke fill markers"/>
    </g>
   </g>
   <rect x="-618.61" y="80.625" width="3.589" height="1.5918" ry="0" fill="url(#linearGradient2622)" style="paint-order:stroke fill markers"/>
  </g>
 </g>
</svg>
