<?xml version="1.0" encoding="UTF-8"?>
<!-- Created with Inkscape (http://www.inkscape.org/) -->
<svg width="24" height="24" version="1.1" viewBox="0 0 24 24" xmlns="http://www.w3.org/2000/svg" xmlns:cc="http://creativecommons.org/ns#" xmlns:dc="http://purl.org/dc/elements/1.1/" xmlns:rdf="http://www.w3.org/1999/02/22-rdf-syntax-ns#">
 <defs>
  <linearGradient id="linearGradient14183" x1="4.9426" x2="30.151" y1="20.047" y2="-6.2656" gradientUnits="userSpaceOnUse">
   <stop offset="0"/>
   <stop stop-opacity="0" offset="1"/>
  </linearGradient>
  <linearGradient id="linearGradient942" x1="-28.124" x2="-28.124" y1="26.714" y2="30.253" gradientUnits="userSpaceOnUse">
   <stop stop-color="#1a1a1a" offset="0"/>
   <stop stop-color="#1a1a1a" stop-opacity="0" offset="1"/>
  </linearGradient>
 </defs>
 <metadata>
  <rdf:RDF>
   <cc:Work rdf:about="">
    <dc:format>image/svg+xml</dc:format>
    <dc:type rdf:resource="http://purl.org/dc/dcmitype/StillImage"/>
   </cc:Work>
  </rdf:RDF>
 </metadata>
 <g fill-rule="evenodd" shape-rendering="auto">
  <path d="m23.932 12a11.932 11.932 0 0 1-11.932 11.932 11.932 11.932 0 0 1-11.932-11.932 11.932 11.932 0 0 1 11.932-11.932 11.932 11.932 0 0 1 11.932 11.932z" color="#000000" color-rendering="auto" fill="#ccc" image-rendering="auto" solid-color="#000000" style="isolation:auto;mix-blend-mode:normal"/>
  <path d="m12.047 0.0058594c-6.6103-1e-7 -11.979 5.3682-11.979 11.979 0 6.6103 5.3682 11.979 11.979 11.979 6.6103 0 11.979-5.3682 11.979-11.979 0-6.6103-5.3682-11.979-11.979-11.979zm0 0.96289c6.0895 0 11.016 4.9261 11.016 11.016s-4.9261 11.016-11.016 11.016-11.016-4.9261-11.016-11.016c-1e-7 -6.0895 4.9261-11.016 11.016-11.016z" color="#000000" color-rendering="auto" fill="url(#linearGradient14183)" image-rendering="auto" opacity=".096" solid-color="#000000" style="block-progression:tb;isolation:auto;mix-blend-mode:normal;text-decoration-color:#000000;text-decoration-line:none;text-decoration-style:solid;text-indent:0;text-transform:none;white-space:normal"/>
 </g>
 <g transform="translate(0 -1.322)">
  <g transform="translate(-.071909 .48314)" stroke-width=".12575">
   <path d="m12.545 17.798h1.6857c1.5696 0 1.7297-0.02313 2.3235-0.33552 0.47346-0.24909 0.72395-0.49039 0.9725-0.93677 0.32942-0.59163 0.33542-0.64185 0.37436-3.1352l0.03958-2.5338-0.4776-0.08063c-0.6429-0.10854-1.2527-0.56474-1.5865-1.1867-0.23768-0.44306-0.27549-0.70243-0.27722-1.902l-2e-3 -1.389h0.97907v-0.87863c0-0.96092 0.11727-1.1887 0.61192-1.1887s0.61192 0.22781 0.61192 1.1887v0.87863h1.3186l0.04881-0.91206c0.05219-0.97516 0.1611-1.1498 0.71923-1.1533 0.48776-0.00309 0.6058 0.22815 0.6058 1.1868v0.87863h0.97907v1.3159c0 1.0594-0.04855 1.4218-0.24908 1.8591-0.27283 0.59504-0.93957 1.146-1.5477 1.2789l-0.38927 0.08506-0.03907 2.8021c-0.0367 2.6316-0.05615 2.8358-0.31974 3.357-0.45173 0.89322-1.0658 1.5127-1.8902 1.9065-0.70947 0.339-0.90486 0.37029-2.6327 0.42166l-1.8664 0.0555" fill="#1a1a1a"/>
   <path d="m17.952 10.866-0.4776-0.08063c-0.6429-0.10854-1.2527-0.56474-1.5865-1.1867-0.23768-0.44306-0.27549-0.70243-0.27722-1.902l-2e-3 -1.389h5.8744v1.3159c0 1.0594-0.04855 1.4218-0.24908 1.8591-0.27283 0.59504-0.93957 1.146-1.5477 1.2789l-0.38927 0.08507" fill="#333"/>
  </g>
  <g transform="matrix(.79917 0 0 .79917 34.773 .34769)">
   <path d="m-37.792 16.196 0.01255-10.118 0.09971-0.21573c0.1397-0.30247 0.48307-0.65229 0.78642-0.80126l0.25723-0.12632h9.238l0.258 0.12669c0.31425 0.15433 0.60094 0.45571 0.76364 0.80281l0.12158 0.25954 0.0251 6.27-0.0013 0.74588v13.175h-11.571z" fill="#2a2a2a" stroke-width=".045733"/>
   <path d="m-30.966 21.933c0.75392-0.20582 1.3374-0.54598 1.8979-1.1065 0.54121-0.54121 0.89292-1.1397 1.1146-1.8969 0.09253-0.31579 0.09433-0.42195 0.10813-6.3693l0.01435-6.0481h-8.3733l0.01255 6.0481c0.01255 5.7645 0.01793 6.0621 0.09917 6.3454 0.22875 0.78985 0.56323 1.3624 1.123 1.9221 0.60811 0.60811 1.2547 0.96342 2.0801 1.1431 0.52528 0.11432 1.4306 0.09648 1.9228-0.03791z" fill="#fff" stroke-width=".045733"/>
   <path d="m-39.557 26.301h22.092c-2.0364 1.7382-4.5412 4.847-10.894 4.8502-6.1713 0.0066-8.8516-2.6867-11.198-4.8502z" fill="url(#linearGradient942)"/>
   <g transform="matrix(.32301 0 0 .35168 -92.351 26.291)" fill="#b3b3b3" stroke-width="1.2513" aria-label="?">
    <path d="m189.87-27.127h-8.8226v-1.1975q0-2.004 0.8065-3.5437 0.8065-1.5641 3.3971-3.9592l1.5641-1.4175q1.393-1.2708 2.0285-2.3951 0.65986-1.1242 0.65986-2.2484 0-1.7108-1.1731-2.6639-1.1731-0.97758-3.2749-0.97758-1.9796 0-4.2769 0.83094-2.2973 0.8065-4.7901 2.4195v-7.674q2.9572-1.0265 5.4011-1.5152t4.7168-0.48879q5.9632 0 9.0915 2.4439 3.1282 2.4195 3.1282 7.0874 0 2.3951-0.95314 4.3013-0.95313 1.8818-3.2504 4.0569l-1.5641 1.393q-1.6619 1.5152-2.1751 2.4439-0.51322 0.90426-0.51322 2.004zm-8.8226 3.617h8.8226v8.7004h-8.8226z" fill="#b3b3b3"/>
   </g>
  </g>
 </g>
</svg>
