<svg xmlns="http://www.w3.org/2000/svg" xmlns:xlink="http://www.w3.org/1999/xlink" width="24" height="24" viewBox="0 0 24 24"><defs><linearGradient id="b"><stop offset="0"/><stop offset="1" stop-opacity="0"/></linearGradient><linearGradient id="a"><stop offset="0" stop-color="#1f58b6"/><stop offset="1" stop-color="#7aa4e8"/></linearGradient><radialGradient xlink:href="#a" id="e" cx="6.393" cy="15.165" fx="6.393" fy="15.165" r="11.932" gradientUnits="userSpaceOnUse" gradientTransform="matrix(1.4121 -1.10457 1.0703 1.3683 -14.652 5.117)"/><linearGradient xlink:href="#b" id="f" x1="4.943" y1="20.047" x2="30.151" y2="-6.266" gradientUnits="userSpaceOnUse"/><radialGradient xlink:href="#a" id="c" gradientUnits="userSpaceOnUse" gradientTransform="matrix(1.4121 -1.10457 1.0703 1.3683 -14.652 5.117)" cx="6.393" cy="15.165" fx="6.393" fy="15.165" r="11.932"/><radialGradient xlink:href="#a" id="d" gradientUnits="userSpaceOnUse" gradientTransform="matrix(1.4121 -1.10457 1.0703 1.3683 -14.652 5.117)" cx="6.393" cy="15.165" fx="6.393" fy="15.165" r="11.932"/><clipPath id="j"><circle style="isolation:auto;mix-blend-mode:normal" cx="12" cy="1040.362" r="11.081" color="#000" overflow="visible" fill="red" fill-rule="evenodd" stroke-linecap="square" stroke-dashoffset=".85"/></clipPath><clipPath id="i"><circle style="isolation:auto;mix-blend-mode:normal" cx="12" cy="1040.362" r="11.081" color="#000" overflow="visible" fill="red" fill-rule="evenodd" stroke-linecap="square" stroke-dashoffset=".85"/></clipPath><clipPath id="h"><circle style="isolation:auto;mix-blend-mode:normal" cx="12" cy="1040.362" r="11.081" color="#000" overflow="visible" fill="red" fill-rule="evenodd" stroke-linecap="square" stroke-dashoffset=".85"/></clipPath><clipPath id="g"><circle style="isolation:auto;mix-blend-mode:normal" cx="12" cy="1040.362" r="11.081" color="#000" overflow="visible" fill="red" fill-rule="evenodd" stroke-linecap="square" stroke-dashoffset=".85"/></clipPath></defs><g color="#000" fill-rule="evenodd"><path d="M23.932 12A11.932 11.932 0 0 1 12 23.932 11.932 11.932 0 0 1 .068 12 11.932 11.932 0 0 1 12 .068 11.932 11.932 0 0 1 23.932 12z" style="isolation:auto;mix-blend-mode:normal" overflow="visible" fill="url(#e)"/><path d="M12.047.006C5.437.006.067 5.374.067 11.984c0 6.61 5.37 11.98 11.98 11.98s11.978-5.37 11.978-11.98S18.657.006 12.047.006zm0 .963c6.09 0 11.015 4.925 11.015 11.014 0 6.09-4.926 11.016-11.015 11.016A11.008 11.008 0 0 1 1.03 11.984C1.03 5.894 5.958.97 12.048.97z" style="line-height:normal;text-indent:0;text-align:start;text-decoration-line:none;text-decoration-style:solid;text-decoration-color:#000;text-transform:none;block-progression:tb;isolation:auto;mix-blend-mode:normal" font-weight="400" font-family="sans-serif" white-space="normal" overflow="visible" opacity=".096" fill="url(#f)"/></g><g transform="translate(0 -1028.362)"><ellipse style="isolation:auto;mix-blend-mode:normal" cx="12.094" cy="1050.925" rx="14.844" ry="12.969" clip-path="url(#g)" color="#000" overflow="visible" fill="#31548e" fill-rule="evenodd"/><path d="M.474 1035.29s1.853 1.77 2.996 1.758c1.12-.013 2.898-1.787 2.898-1.787 0 .002 1.613 1.706 2.652 1.73 1.12.024 2.928-1.732 2.928-1.732s1.625 1.755 2.682 1.783c1.132.03 2.957-1.756 2.957-1.756s1.57 1.737 2.712 1.757c1.215.022 3.24-1.756 3.24-1.756" clip-path="url(#h)" fill="none" stroke="#fff" stroke-width=".982"/><path d="M.474 1039.95s1.853 1.77 2.996 1.757c1.12-.013 2.898-1.787 2.898-1.787s1.613 1.705 2.652 1.728c1.12.025 2.928-1.732 2.928-1.732s1.625 1.756 2.682 1.783c1.132.028 2.957-1.758 2.957-1.758s1.57 1.737 2.712 1.757c1.215.02 3.24-1.758 3.24-1.758" clip-path="url(#i)" fill="none" stroke="#fff" stroke-width=".982"/><path d="M.474 1045.012s1.853 1.77 2.996 1.757c1.12-.014 2.898-1.787 2.898-1.787s1.613 1.704 2.652 1.727c1.12.025 2.928-1.73 2.928-1.73s1.625 1.755 2.682 1.782c1.132.03 2.957-1.757 2.957-1.757s1.57 1.737 2.712 1.757c1.215.02 3.24-1.757 3.24-1.757" clip-path="url(#j)" fill="none" stroke="#fff" stroke-width=".982"/></g></svg>