<svg xmlns="http://www.w3.org/2000/svg" xmlns:xlink="http://www.w3.org/1999/xlink" width="24" height="24" viewBox="0 0 24 24"><defs><linearGradient id="h"><stop offset="0" stop-color="#c7c7c7"/><stop offset="1" stop-color="#1e1e1e"/></linearGradient><linearGradient id="g"><stop offset="0" stop-color="#fff"/><stop offset="1" stop-color="#9c9c9c"/></linearGradient><linearGradient id="f"><stop offset="0" stop-color="#fff"/><stop offset="1" stop-color="#8d8d8d"/></linearGradient><linearGradient id="a"><stop offset="0" stop-color="#7c05fc" stop-opacity=".996"/><stop offset="1" stop-color="#e244fe" stop-opacity=".996"/></linearGradient><linearGradient id="b"><stop offset="0"/><stop offset="1" stop-opacity="0"/></linearGradient><linearGradient id="d"><stop offset="0" stop-color="#1f58b6"/><stop offset="1" stop-color="#7aa4e8"/></linearGradient><radialGradient xlink:href="#a" id="i" cx="6.393" cy="15.165" fx="6.393" fy="15.165" r="11.932" gradientUnits="userSpaceOnUse" gradientTransform="matrix(1.4121 -1.10457 1.0703 1.3683 -14.652 5.117)"/><linearGradient xlink:href="#b" id="j" x1="4.943" y1="20.047" x2="30.151" y2="-6.266" gradientUnits="userSpaceOnUse"/><radialGradient xlink:href="#d" id="c" gradientUnits="userSpaceOnUse" gradientTransform="matrix(1.4121 -1.10457 1.0703 1.3683 -14.652 5.117)" cx="6.393" cy="15.165" fx="6.393" fy="15.165" r="11.932"/><radialGradient xlink:href="#d" id="e" gradientUnits="userSpaceOnUse" gradientTransform="matrix(1.4121 -1.10457 1.0703 1.3683 -14.652 5.117)" cx="6.393" cy="15.165" fx="6.393" fy="15.165" r="11.932"/><linearGradient xlink:href="#f" id="m" x1="10.063" y1="1038.827" x2="11.895" y2="1038.849" gradientUnits="userSpaceOnUse" gradientTransform="translate(0 .875)"/><linearGradient xlink:href="#g" id="n" x1="13.744" y1="1037.447" x2="11.955" y2="1037.447" gradientUnits="userSpaceOnUse" gradientTransform="translate(0 .875)"/><linearGradient xlink:href="#h" id="k" x1="3.573" y1="1039.04" x2="11.895" y2="1039.04" gradientUnits="userSpaceOnUse" gradientTransform="translate(0 .875)"/><linearGradient xlink:href="#h" id="l" x1="19.782" y1="1037.194" x2="12.018" y2="1037.238" gradientUnits="userSpaceOnUse" gradientTransform="translate(0 .875)"/></defs><g color="#000" fill-rule="evenodd"><path d="M23.932 12A11.932 11.932 0 0 1 12 23.932 11.932 11.932 0 0 1 .068 12 11.932 11.932 0 0 1 12 .068 11.932 11.932 0 0 1 23.932 12z" style="isolation:auto;mix-blend-mode:normal" overflow="visible" fill="url(#i)"/><path d="M12.047.006C5.437.006.067 5.374.067 11.984c0 6.61 5.37 11.98 11.98 11.98s11.978-5.37 11.978-11.98S18.657.006 12.047.006zm0 .963c6.09 0 11.015 4.925 11.015 11.014 0 6.09-4.926 11.016-11.015 11.016A11.008 11.008 0 0 1 1.03 11.984C1.03 5.894 5.958.97 12.048.97z" style="line-height:normal;text-indent:0;text-align:start;text-decoration-line:none;text-decoration-style:solid;text-decoration-color:#000;text-transform:none;block-progression:tb;isolation:auto;mix-blend-mode:normal" font-weight="400" font-family="sans-serif" white-space="normal" overflow="visible" opacity=".096" fill="url(#j)"/></g><g color="#000"><path d="M16.336 7.787c-1.437-.01-2.886.355-4.35 1.12v.015c-2.824-1.455-5.694-1.532-8.62 0v10.37c2.822-1.57 5.698-1.522 8.622 0v-.015c2.823-1.568 5.7-1.52 8.623 0V8.907c-1.41-.727-2.837-1.11-4.274-1.12z" style="isolation:auto;mix-blend-mode:normal" overflow="visible" fill="#405"/><path d="M3.272 7.566c2.926-1.533 5.8-1.456 8.623 0v10.37c-2.924-1.523-5.8-1.57-8.623 0zM11.96 7.553c2.927-1.532 5.8-1.456 8.624 0v10.37c-2.925-1.523-5.8-1.57-8.624 0z" style="isolation:auto;mix-blend-mode:normal" overflow="visible" fill="#806600"/><path d="M3.272 7.22c2.926-1.533 5.8-1.457 8.623 0v10.368c-2.924-1.522-5.8-1.57-8.623 0zM11.96 7.207c2.927-1.533 5.8-1.457 8.624 0v10.368c-2.925-1.52-5.8-1.57-8.624 0z" style="isolation:auto;mix-blend-mode:normal" overflow="visible" fill="#d4aa00"/><path d="M3.573 1035.338c2.825-1.517 5.596-1.44 8.322 0v10.264c-2.822-1.507-5.598-1.554-8.322 0z" style="isolation:auto;mix-blend-mode:normal" overflow="visible" fill="url(#k)" transform="translate(0 -1028.362)"/><path d="M11.96 1035.326c2.824-1.517 5.596-1.442 8.322 0v10.263c-2.822-1.507-5.598-1.554-8.322 0z" style="isolation:auto;mix-blend-mode:normal" overflow="visible" fill="url(#l)" transform="translate(0 -1028.362)"/><path d="M3.964 1035.238c2.692-1.487 5.333-1.413 7.93 0v10.06c-2.69-1.476-5.334-1.523-7.93 0z" style="isolation:auto;mix-blend-mode:normal" overflow="visible" fill="url(#m)" transform="translate(0 -1028.362)"/><path d="M11.96 1035.225c2.692-1.486 5.333-1.413 7.932 0v10.06c-2.69-1.476-5.336-1.522-7.932 0z" style="isolation:auto;mix-blend-mode:normal" overflow="visible" fill="url(#n)" transform="translate(0 -1028.362)"/></g></svg>