<svg xmlns="http://www.w3.org/2000/svg" xmlns:xlink="http://www.w3.org/1999/xlink" width="24" height="24" viewBox="0 0 24 24"><defs><linearGradient id="b"><stop offset="0" stop-color="#1f58b6"/><stop offset="1" stop-color="#7aa4e8"/></linearGradient><radialGradient xlink:href="#b" id="a" gradientUnits="userSpaceOnUse" gradientTransform="matrix(1.4121 -1.10457 1.0703 1.3683 -14.652 5.117)" cx="6.393" cy="15.165" fx="6.393" fy="15.165" r="11.932"/><radialGradient xlink:href="#b" id="c" gradientUnits="userSpaceOnUse" gradientTransform="matrix(1.4121 -1.10457 1.0703 1.3683 -14.652 5.117)" cx="6.393" cy="15.165" fx="6.393" fy="15.165" r="11.932"/></defs><path style="isolation:auto;mix-blend-mode:normal" color="#000" overflow="visible" fill="#fff" d="M.022.003h23.975V24H.022z"/><path d="M-.018 24h24.014V.01H-.018V24z" fill="#0054a6"/><path d="M11.99 1.366c-5.882 0-10.652 4.766-10.652 10.642 0 5.87 4.77 10.637 10.65 10.637 5.882 0 10.653-4.766 10.653-10.637 0-5.876-4.77-10.642-10.65-10.642" fill="#fff200" fill-rule="evenodd"/><path d="M11.327 12.304l-1.88-1.877-2.168 2.168v.728l.545-.547 1.513 1.515-.558.558.363.365 3.026-3.027v-.726" fill="#ed1846" fill-rule="evenodd"/><path d="M2.55 10.032h3.348v.72H5.34v2.335l1.94-1.08v1.98H2.55v-.725h.56v-2.51h-.56v-.72zm14.12 0v.72h.563v2.51h-.562v.724h4.735v-1.978l-1.943 1.08v-2.335h.56v-.72" fill="#0054a6" fill-rule="evenodd"/><path d="M9.17 7.783a1.19 1.19 0 0 1 0 2.38 1.19 1.19 0 0 1 0-2.38" fill="#ed1846" fill-rule="evenodd"/><path d="M11.99 22.645c-5.882 0-10.652-4.766-10.652-10.637 0-5.876 4.77-10.642 10.65-10.642 5.882 0 10.653 4.766 10.653 10.642 0 5.87-4.77 10.637-10.65 10.637m0-22C5.71.646.617 5.736.617 12.01c0 6.272 5.094 11.354 11.37 11.354 6.278 0 11.372-5.082 11.372-11.354C23.36 5.735 18.266.646 11.99.646" fill="#ed1846" fill-rule="evenodd"/><path d="M14.805 10.032H11.61v.72h.56v2.51h-.56v.724h3.195c2.36 0 2.385-3.954 0-3.954" fill="#0054a6" fill-rule="evenodd"/><path d="M14.356 12.752h-.16V11.26h.136c.698 0 .698 1.495.024 1.492" fill="#fff200" fill-rule="evenodd"/></svg>