<svg xmlns="http://www.w3.org/2000/svg" xmlns:xlink="http://www.w3.org/1999/xlink" width="24" height="24" viewBox="0 0 24 24"><defs><linearGradient id="b"><stop offset="0" stop-color="#1f58b6"/><stop offset="1" stop-color="#7aa4e8"/></linearGradient><radialGradient xlink:href="#b" id="a" gradientUnits="userSpaceOnUse" gradientTransform="matrix(1.4121 -1.10457 1.0703 1.3683 -14.652 5.117)" cx="6.393" cy="15.165" fx="6.393" fy="15.165" r="11.932"/><radialGradient xlink:href="#b" id="c" gradientUnits="userSpaceOnUse" gradientTransform="matrix(1.4121 -1.10457 1.0703 1.3683 -14.652 5.117)" cx="6.393" cy="15.165" fx="6.393" fy="15.165" r="11.932"/><clipPath id="d"><path d="M136.63 256.275H193.3v28.61H136.63v-28.61z"/></clipPath></defs><path d="M24 24H0V0h24v24z" fill="#231f20"/><g transform="matrix(.53864 0 0 -.59805 -76.915 173.822)" clip-path="url(#d)"><path d="M181.694 276.867c0 .067.054.12.122.12l.617.003c1.722 0 1.964-5.665-.454-5.53l-.174.033c-.067 0-.122.054-.14.12v-1.026c.018.067.073.12.14.12l.173.033c2.522.253 2.326-6.627.453-6.627l-.617.002a.12.12 0 0 0-.122.12v12.632zm.934-13.442h1.37c2.272 0 4.25 6.148-.28 7.583l.014.09c3.882 1.39 2.25 6.6-.53 6.632l-5.635.002a.122.122 0 0 1-.12-.122v-.514a.12.12 0 0 1 .12-.12l.723-.003c.34 0 .84-.427.84-.827v-11.133c0-.4-.5-.827-.84-.827h-.723a.122.122 0 0 1-.12-.123v-.513a.12.12 0 0 1 .12-.122l5.06-.003z" fill="#fedd03"/><path d="M181.694 276.867c0 .067.054.12.122.12l.617.003c1.722 0 1.964-5.665-.454-5.53l-.174.033c-.067 0-.122.054-.14.12v-1.026c.018.067.073.12.14.12l.173.033c2.522.253 2.326-6.627.453-6.627l-.617.002a.12.12 0 0 0-.122.12v12.632zm.934-13.442h1.37c2.272 0 4.25 6.148-.28 7.583l.014.09c3.882 1.39 2.25 6.6-.53 6.632l-5.635.002a.122.122 0 0 1-.12-.122v-.514a.12.12 0 0 1 .12-.12l.723-.003c.34 0 .84-.427.84-.827v-11.133c0-.4-.5-.827-.84-.827h-.723a.122.122 0 0 1-.12-.123v-.513a.12.12 0 0 1 .12-.122l5.06-.003z" fill="none" stroke="#fedd03" stroke-width=".066"/><path d="M147.94 264.618c0 .468-.166-.574.483-.438.595.124 1.692.846 2.704 6.435l.002.14c0 .067.053.12.12.12h.298a.122.122 0 0 0 .122-.12l.003-7.206a.122.122 0 0 0-.122-.122h-7.73a.12.12 0 0 0-.122.12v.515c0 .067.054.12.12.12l.723.003c.34 0 .843.427.843.827v11.132c0 .4-.502.828-.842.828h-.72a.12.12 0 0 0-.122.123v.514c0 .067.054.12.12.12h5.735a.122.122 0 0 0 .122-.12v-.514a.122.122 0 0 0-.122-.122h-.777c-.34 0-.842-.428-.842-.83l.006-11.526z" fill="#fedd03"/><path d="M147.94 264.618c0 .468-.166-.574.483-.438.595.124 1.692.846 2.704 6.435l.002.14c0 .067.053.12.12.12h.298a.122.122 0 0 0 .122-.12l.003-7.206a.122.122 0 0 0-.122-.122h-7.73a.12.12 0 0 0-.122.12v.515c0 .067.054.12.12.12l.723.002c.34 0 .843.428.843.828v11.132c0 .4-.502.828-.842.828h-.72a.12.12 0 0 0-.122.123v.514c0 .067.054.12.12.12h5.735a.122.122 0 0 0 .122-.12v-.514a.122.122 0 0 0-.122-.122h-.777c-.34 0-.842-.428-.842-.83l.006-11.526z" fill="none" stroke="#fedd03" stroke-width=".066"/><path d="M170.446 270.204c0 .317.25.5.438.5s1.12 0 1.226-2.562v-.113a.12.12 0 0 1 .12-.122h.296a.12.12 0 0 1 .12.12v6.114a.12.12 0 0 1-.12.12h-.295a.12.12 0 0 1-.12-.12v-.113c-.106-2.562-1.038-2.622-1.226-2.622-.19 0-.438.18-.438.498l.003 4.68c0 .143.033.463.693.4.16-.015 1.33.366 2.6-4.654v-.14a.12.12 0 0 1 .122-.122h.267c.067 0 .122.054.122.122l.003 5.402a.122.122 0 0 1-.122.122h-7.913a.122.122 0 0 1-.122-.122v-.514c0-.067.055-.12.122-.12l.722-.003c.34 0 .842-.426.842-.827v-11.117c0-.4-.502-.828-.842-.828h-.722a.122.122 0 0 1-.122-.123v-.513a.12.12 0 0 1 .122-.122h7.913a.12.12 0 0 1 .122.12l-.003 5.932c0 .067-.055.12-.122.12h-.267a.12.12 0 0 1-.12-.12l-.003-.14c-.922-5.145-2.44-5.107-2.6-5.123-.66-.062-.693.257-.693.4l-.004 5.587z" fill="#fedd03"/><path d="M170.446 270.204c0 .317.25.5.438.5s1.12 0 1.226-2.562v-.113a.12.12 0 0 1 .12-.122h.296a.12.12 0 0 1 .12.12v6.114a.12.12 0 0 1-.12.12h-.295a.12.12 0 0 1-.12-.12v-.113c-.106-2.562-1.038-2.622-1.226-2.622-.19 0-.438.18-.438.498l.003 4.68c0 .143.033.463.693.4.16-.015 1.33.366 2.6-4.654v-.14a.12.12 0 0 1 .122-.122h.267c.067 0 .122.054.122.122l.003 5.402a.122.122 0 0 1-.122.122h-7.913a.122.122 0 0 1-.122-.122v-.514c0-.067.055-.12.122-.12l.722-.003c.34 0 .842-.426.842-.827v-11.117c0-.4-.502-.828-.842-.828h-.722a.122.122 0 0 1-.122-.122v-.514a.12.12 0 0 1 .122-.122h7.913a.12.12 0 0 1 .122.12l-.003 5.932a.122.122 0 0 1-.122.122h-.267a.122.122 0 0 1-.12-.122l-.003-.14c-.922-5.145-2.44-5.107-2.6-5.123-.66-.062-.693.257-.693.4l-.004 5.587z" fill="none" stroke="#fedd03" stroke-width=".066"/><path d="M159.52 263.862c1.78 0 2.084 13.293 0 13.293-2.085 0-1.784-13.293 0-13.293m.06-.634c-5.71 0-5.62 14.713-.06 14.713 5.558 0 5.648-14.712-.06-14.712h.12z" fill="#fedd03"/><path d="M159.52 263.862c1.78 0 2.084 13.293 0 13.293-2.085 0-1.784-13.293 0-13.293zm.06-.634c-5.71 0-5.62 14.713-.06 14.713 5.558 0 5.648-14.712-.06-14.712h.12z" fill="none" stroke="#fedd03" stroke-width=".066"/></g></svg>