<svg xmlns="http://www.w3.org/2000/svg" xmlns:xlink="http://www.w3.org/1999/xlink" width="24" height="24" viewBox="0 0 24 24"><defs><linearGradient id="b"><stop offset="0" stop-color="#1f58b6"/><stop offset="1" stop-color="#7aa4e8"/></linearGradient><radialGradient xlink:href="#b" id="a" gradientUnits="userSpaceOnUse" gradientTransform="matrix(1.4121 -1.10457 1.0703 1.3683 -14.652 5.117)" cx="6.393" cy="15.165" fx="6.393" fy="15.165" r="11.932"/><radialGradient xlink:href="#b" id="c" gradientUnits="userSpaceOnUse" gradientTransform="matrix(1.4121 -1.10457 1.0703 1.3683 -14.652 5.117)" cx="6.393" cy="15.165" fx="6.393" fy="15.165" r="11.932"/></defs><path d="M24 24H0V0h24v24z" fill="#fff"/><path d="M10.023 16.406l-1.98 3.425 1.98 3.427h3.957l1.977-3.426-1.977-3.424h-3.957zm6.78-3.916l-1.98 3.425 1.98 3.425h3.955l1.98-3.425-1.98-3.425h-3.954zm-9.61 0h-3.95l-1.98 3.425 1.98 3.425h3.95l1.977-3.425-1.977-3.425zm9.61-.98h3.955l1.98-3.428-1.98-3.422h-3.954l-1.98 3.422 1.98 3.428zm-9.61 0L9.17 8.082 7.193 4.66h-3.95l-1.98 3.422 1.98 3.428h3.95zm6.787-3.92l1.977-3.42L13.98.744h-3.957L8.043 4.17l1.98 3.42h3.957z" fill="#e2001a"/></svg>