<svg xmlns="http://www.w3.org/2000/svg" xmlns:xlink="http://www.w3.org/1999/xlink" width="24" height="24" viewBox="0 0 24 24"><defs><linearGradient id="b"><stop offset="0" stop-color="#1f58b6"/><stop offset="1" stop-color="#7aa4e8"/></linearGradient><radialGradient xlink:href="#b" id="a" gradientUnits="userSpaceOnUse" gradientTransform="matrix(1.4121 -1.10457 1.0703 1.3683 -14.652 5.117)" cx="6.393" cy="15.165" fx="6.393" fy="15.165" r="11.932"/><radialGradient xlink:href="#b" id="c" gradientUnits="userSpaceOnUse" gradientTransform="matrix(1.4121 -1.10457 1.0703 1.3683 -14.652 5.117)" cx="6.393" cy="15.165" fx="6.393" fy="15.165" r="11.932"/></defs><path style="isolation:auto;mix-blend-mode:normal" color="#000" overflow="visible" fill="#fff" d="M.022.003h23.975V24H.022z"/><path d="M2.45 12V3.76l2.856.012 2.856.013 1.93 4.536c1.06 2.495 1.96 4.6 1.996 4.68.065.14.135-.01 2.152-4.548l2.085-4.692h5.224v16.48H17.316l-.013-4.75-.013-4.75-2.074 4.737-2.075 4.737-1.127.013-1.128.014-2.088-4.872-2.088-4.873-.014 4.872-.013 4.872H2.45V12z" fill="#fe6500"/></svg>