<svg xmlns="http://www.w3.org/2000/svg" xmlns:xlink="http://www.w3.org/1999/xlink" width="24" height="24" viewBox="0 0 24 24"><defs><linearGradient id="b"><stop offset="0" stop-color="#1f58b6"/><stop offset="1" stop-color="#7aa4e8"/></linearGradient><radialGradient xlink:href="#b" id="a" gradientUnits="userSpaceOnUse" gradientTransform="matrix(1.4121 -1.10457 1.0703 1.3683 -14.652 5.117)" cx="6.393" cy="15.165" fx="6.393" fy="15.165" r="11.932"/><radialGradient xlink:href="#b" id="c" gradientUnits="userSpaceOnUse" gradientTransform="matrix(1.4121 -1.10457 1.0703 1.3683 -14.652 5.117)" cx="6.393" cy="15.165" fx="6.393" fy="15.165" r="11.932"/></defs><path style="isolation:auto;mix-blend-mode:normal" color="#000" overflow="visible" fill="#fff" d="M.022.003h23.975V24H.022z"/><g fill="#ee7103"><path d="M4.15 23.35c-.412-.06-.985-.357-1.325-.69-.777-.758-1.182-1.813-1.182-3.08 0-1.26.383-2.287 1.13-3.04.383-.383.862-.65 1.33-.736.204-.038 2.478-.05 8.097-.04l7.814.015.285.107c.94.358 1.614 1.196 1.98 2.466.095.326.108.475.105 1.226-.003 1.017-.07 1.333-.453 2.108-.45.916-1.236 1.55-2.06 1.666-.415.058-15.313.054-15.722-.004zM3.188 12.93c-.772-.216-1.274-.72-1.492-1.502-.075-.27-.116-8.418-.045-8.998.112-.91.533-1.484 1.257-1.713.377-.12 1.325-.144 1.675-.044.735.21 1.146.746 1.358 1.775l.062.3.2-.305C6.754 1.6 7.488 1.06 8.482.765c.567-.17 1.632-.212 2.27-.092.8.15 1.55.537 1.99 1.03.215.237.598.93.598 1.08 0 .04.1-.074.222-.256.276-.415.902-1.047 1.266-1.28.7-.446 1.447-.642 2.455-.643 1.448 0 2.467.347 3.272 1.117.613.587.987 1.333 1.178 2.35.077.407.085.782.085 3.777 0 3.65.01 3.53-.292 4.122-.242.478-.78.86-1.39.987-.41.085-1.345.033-1.672-.093-.575-.223-.957-.604-1.19-1.19-.106-.26-.108-.305-.137-3.162-.025-2.537-.04-2.933-.11-3.182-.21-.74-.587-1.022-1.356-1.022-.296 0-.41.023-.61.123-.278.14-.574.45-.724.762-.248.51-.25.522-.28 3.462-.03 2.71-.03 2.76-.136 3.02-.234.587-.616.967-1.192 1.19-.326.126-1.262.178-1.673.093-.608-.126-1.146-.51-1.388-.986-.29-.57-.283-.492-.314-3.672-.028-2.893-.03-2.923-.136-3.19-.143-.357-.424-.636-.735-.728-.337-.1-.865-.09-1.106.018-.41.187-.754.61-.938 1.157-.095.284-.1.42-.127 3.052-.03 3.084-.02 2.99-.382 3.53a2.05 2.05 0 0 1-1.01.752c-.342.108-1.392.133-1.73.04z"/></g></svg>