<svg xmlns="http://www.w3.org/2000/svg" xmlns:xlink="http://www.w3.org/1999/xlink" width="24" height="24" viewBox="0 0 24 24"><defs><linearGradient id="a"><stop offset="0" stop-color="#b30101" stop-opacity=".996"/><stop offset="1" stop-color="#fa4667" stop-opacity=".996"/></linearGradient><linearGradient id="b"><stop offset="0"/><stop offset="1" stop-opacity="0"/></linearGradient><linearGradient id="d"><stop offset="0" stop-color="#1f58b6"/><stop offset="1" stop-color="#7aa4e8"/></linearGradient><radialGradient xlink:href="#a" id="f" cx="6.393" cy="15.165" fx="6.393" fy="15.165" r="11.932" gradientUnits="userSpaceOnUse" gradientTransform="matrix(1.4121 -1.10457 1.0703 1.3683 -14.652 5.117)"/><linearGradient xlink:href="#b" id="g" x1="4.943" y1="20.047" x2="30.151" y2="-6.266" gradientUnits="userSpaceOnUse"/><radialGradient xlink:href="#d" id="c" gradientUnits="userSpaceOnUse" gradientTransform="matrix(1.4121 -1.10457 1.0703 1.3683 -14.652 5.117)" cx="6.393" cy="15.165" fx="6.393" fy="15.165" r="11.932"/><radialGradient xlink:href="#d" id="e" gradientUnits="userSpaceOnUse" gradientTransform="matrix(1.4121 -1.10457 1.0703 1.3683 -14.652 5.117)" cx="6.393" cy="15.165" fx="6.393" fy="15.165" r="11.932"/><clipPath id="h"><circle style="isolation:auto;mix-blend-mode:normal" cx="12" cy="1040.362" r="11.081" color="#000" overflow="visible" fill="red" fill-rule="evenodd" stroke-linecap="square" stroke-dashoffset=".85"/></clipPath></defs><g color="#000" fill-rule="evenodd"><path d="M23.932 12A11.932 11.932 0 0 1 12 23.932 11.932 11.932 0 0 1 .068 12 11.932 11.932 0 0 1 12 .068 11.932 11.932 0 0 1 23.932 12z" style="isolation:auto;mix-blend-mode:normal" overflow="visible" fill="url(#f)"/><path d="M12.047.006C5.437.006.067 5.374.067 11.984c0 6.61 5.37 11.98 11.98 11.98s11.978-5.37 11.978-11.98S18.657.006 12.047.006zm0 .963c6.09 0 11.015 4.925 11.015 11.014 0 6.09-4.926 11.016-11.015 11.016A11.008 11.008 0 0 1 1.03 11.984C1.03 5.894 5.958.97 12.048.97z" style="line-height:normal;text-indent:0;text-align:start;text-decoration-line:none;text-decoration-style:solid;text-decoration-color:#000;text-transform:none;block-progression:tb;isolation:auto;mix-blend-mode:normal" font-weight="400" font-family="sans-serif" white-space="normal" overflow="visible" opacity=".096" fill="url(#g)"/></g><g transform="translate(0 -1028.362)"><ellipse transform="translate(-.03 -.016)" style="isolation:auto;mix-blend-mode:normal" cx="12.226" cy="1055.095" rx="14.844" ry="12.969" clip-path="url(#h)" color="#000" overflow="visible" fill="#500" fill-opacity=".996" fill-rule="evenodd"/><path d="M5.633 1045.916c-.812-.16-1.454-.972-1.44-1.824.01-.66.39-1.305.938-1.598 1.634-.87 3.388.837 2.554 2.485-.357.702-1.224 1.1-2.05.936z" fill="#260000"/><path d="M6.44 1044.675c.395-.245.375-.91-.035-1.152-.185-.108-.49-.127-.655-.04a.998.998 0 0 0-.347.358c-.076.15-.057.43.04.606.198.35.636.45.996.23zM17.285 1045.85c-.782-.283-1.245-.93-1.245-1.74 0-.664.332-1.248.9-1.584 1.24-.736 2.796.144 2.796 1.583 0 .668-.33 1.246-.903 1.583-.497.292-1.028.346-1.548.157z" fill="#260000"/><path d="M18.253 1044.692c.206-.12.314-.322.314-.584 0-.213-.036-.306-.184-.465a.592.592 0 0 0-.487-.213.665.665 0 0 0-.687.686c0 .21.058.345.213.487.164.152.24.182.462.183a.637.637 0 0 0 .368-.095z" fill="#260000"/><path d="M2.942 1044.468c-.18-.027-.37-.075-.42-.107-.142-.093-.212-.288-.212-.59 0-.29.035-.393.176-.51.084-.07.093-.113.127-.616.02-.297.044-.554.054-.57.01-.016.108-.04.217-.055.37-.05.716-.144.788-.216.1-.1.093-.302-.016-.404-.104-.097-.175-.1-.572-.025-.34.065-.397.056-.397-.066 0-.242.25-.434 1.033-.792.778-.357 2.145-.748 3.145-.9.248-.04.294-.06.472-.22.602-.542 1.142-.963 1.78-1.39 1.405-.935 2.044-1.086 4.603-1.085 1.53 0 1.875.034 2.414.235.693.256 1.51.842 2.683 1.925.34.313.572.5.64.513.06.012.22.04.355.063.314.052 1.03.247 1.228.335.194.085.29.268.273.52l-.01.18-.467.02c-.432.017-.47.024-.537.107-.108.132-.096.322.026.417.088.068.15.077.546.077.433 0 .448 0 .465.085.01.047.023.418.03.824l.01.74.123.138c.115.13.122.157.122.425 0 .318-.065.5-.213.598-.097.063-.817.188-.9.156-.028-.01-.056-.142-.073-.345-.038-.47-.185-.915-.412-1.245a3.557 3.557 0 0 0-.72-.708c-.52-.357-1.263-.512-1.868-.39-.584.12-.99.336-1.387.74-.438.45-.674.998-.72 1.678l-.026.377H8.628l-.024-.34c-.046-.646-.208-1.094-.548-1.516-.73-.906-1.887-1.218-2.952-.797-.356.14-.62.315-.896.596-.28.282-.442.552-.59.97-.1.287-.116.39-.123.765l-.007.435-.108.01c-.06.01-.257-.016-.438-.042z" fill="#260000"/><path d="M12.207 1040.153c.377-.02.493-.037.516-.08.027-.053.123-1.6.128-2.056l.003-.19-.218-.01c-.236-.012-1.177.112-1.574.208-.37.09-.815.317-1.427.728-.623.42-1.495 1.105-1.495 1.177 0 .054.43.165.83.214.308.038 2.532.044 3.24.01zM15.136 1039.98c2.018-.138 2.074-.143 2.094-.174.024-.04-.387-.797-.618-1.137-.415-.615-.62-.712-1.742-.82-.738-.073-1.344-.092-1.373-.045-.023.037-.13 1.767-.134 2.145v.123h.198c.11 0 .82-.042 1.576-.093z" fill="#260000"/><g transform="translate(23.953 -24.65)"><ellipse ry=".663" rx=".626" cy="1065.289" cx="-20.804" style="isolation:auto;mix-blend-mode:normal" color="#000" overflow="visible" fill="#fc0"/><ellipse ry=".663" rx=".742" cy="1064.637" cx="-3.188" style="isolation:auto;mix-blend-mode:normal" color="#000" overflow="visible" fill="#fc0"/><path d="M-21.024 1068.082c-.18-.027-.37-.075-.42-.107-.142-.094-.212-.29-.212-.59 0-.292.035-.394.176-.51.084-.07.093-.114.127-.617.02-.297.044-.554.054-.57.01-.016.11-.04.218-.055.37-.048.716-.143.788-.214.1-.103.093-.303-.016-.406-.104-.097-.175-.1-.572-.025-.34.064-.397.055-.397-.067 0-.24.252-.433 1.034-.79.778-.358 2.145-.75 3.145-.902.247-.037.293-.058.47-.218.603-.54 1.143-.962 1.782-1.39 1.404-.935 2.043-1.085 4.602-1.084 1.53 0 1.875.034 2.414.234.693.257 1.51.842 2.683 1.925.34.313.573.5.642.513.06.012.22.04.354.063.314.053 1.03.248 1.228.336.194.084.29.267.273.52l-.01.18-.467.018c-.432.018-.47.025-.537.108-.107.132-.095.322.027.418.088.07.15.078.546.078.433 0 .448 0 .465.085.01.047.024.417.03.823l.01.74.124.138c.115.132.122.157.122.425 0 .32-.065.502-.213.6-.096.062-.816.187-.9.155-.028-.01-.055-.142-.072-.345-.037-.47-.184-.914-.41-1.243a3.557 3.557 0 0 0-.72-.71c-.52-.355-1.264-.51-1.87-.388-.583.118-.99.335-1.386.74-.438.448-.674.998-.72 1.677l-.026.376h-6.676l-.024-.34c-.046-.646-.208-1.094-.548-1.516-.73-.905-1.887-1.218-2.952-.797-.356.14-.62.316-.897.597-.277.282-.44.552-.587.97-.1.287-.117.39-.124.765l-.008.434-.108.01c-.06.01-.257-.017-.438-.043z" fill="#80ffe6"/><path d="M-18.333 1069.53c-.812-.16-1.454-.972-1.44-1.824.01-.66.39-1.305.938-1.598 1.633-.87 3.387.837 2.553 2.485-.357.703-1.224 1.1-2.05.937z" fill="#b3b3b3"/><path d="M-17.527 1068.29c.396-.245.376-.912-.034-1.152-.186-.11-.49-.127-.656-.04a1 1 0 0 0-.347.357c-.077.148-.057.43.04.605.198.35.636.45.996.23z" fill="#fff"/><path d="M-6.682 1069.465c-.78-.284-1.244-.93-1.244-1.742 0-.663.332-1.247.9-1.583 1.24-.736 2.796.145 2.796 1.583 0 .67-.33 1.247-.903 1.584-.497.292-1.028.346-1.55.158z" fill="#b3b3b3"/><path d="M-5.713 1068.306c.206-.12.314-.322.314-.584 0-.213-.036-.305-.183-.464a.592.592 0 0 0-.487-.214.665.665 0 0 0-.687.687c0 .21.06.345.214.488.164.15.24.18.462.183a.637.637 0 0 0 .367-.094z" fill="#fff"/><path d="M-11.76 1063.767c.378-.02.494-.037.517-.08.027-.052.123-1.598.128-2.056l.002-.188-.218-.01c-.237-.013-1.178.11-1.575.207-.37.09-.816.316-1.428.727-.623.42-1.495 1.106-1.495 1.177 0 .054.43.165.83.214.308.038 2.532.044 3.24.01zM-8.83 1063.593c2.018-.137 2.074-.14 2.094-.173.024-.04-.387-.797-.618-1.137-.415-.614-.62-.71-1.742-.82-.738-.072-1.344-.09-1.373-.044-.022.036-.13 1.766-.133 2.144v.123h.198c.11 0 .818-.042 1.575-.093z" fill="#d92637" fill-opacity=".996"/><path d="M-8.734 1064.73c-.722.473-1.674 1.974-1.674 1.974l-4.217.012s-.014-.39-.097-.558c-.277-.563-.703-1.122-1.272-1.387-.883-.41-1.973-.354-2.92-.126-.5.12-1.343.764-1.343.764h-.03c-.007.01-.004.028-.013.037-.072.072-.418.167-.788.215-.11.014-.206.04-.216.055a5.54 5.54 0 0 0-.055.57c-.033.503-.04.547-.126.617-.14.117-.176.218-.176.51 0 .302.07.496.213.59.05.032.24.08.42.107v.01c.182.025.38.05.44.04l.106-.01.008-.433c.006-.376.022-.478.123-.764.147-.42.31-.69.59-.97.277-.282.54-.458.896-.598 1.065-.422 2.222-.11 2.95.796.34.424.504.87.55 1.517l.024.34H-8.668l.026-.377c.046-.68.282-1.228.72-1.676.398-.405.803-.624 1.387-.742.604-.122 1.35.034 1.87.39.225.156.573.498.718.708.227.33.374.774.412 1.244.017.203.045.335.074.346.082.032.802-.093.898-.157a.684.684 0 0 0 .314-.6c0-.267-.04-.34-.154-.47l-.12-.14v-.02c-.004-.01-.665-1.234-1.196-1.66-.644-.518-1.452-.933-2.276-.98-.952-.053-1.942.304-2.74.827z" fill="#2ca089"/></g></g></svg>