<?xml version="1.0" encoding="UTF-8"?>
<!-- Created with Inkscape (http://www.inkscape.org/) -->
<svg width="24" height="24" version="1.1" viewBox="0 0 24 24" xmlns="http://www.w3.org/2000/svg" xmlns:cc="http://creativecommons.org/ns#" xmlns:dc="http://purl.org/dc/elements/1.1/" xmlns:rdf="http://www.w3.org/1999/02/22-rdf-syntax-ns#">
 <defs>
  <radialGradient id="radialGradient14151" cx="6.3932" cy="15.165" r="11.932" gradientTransform="matrix(1.4121 -1.1046 1.0703 1.3683 -14.652 5.1167)" gradientUnits="userSpaceOnUse">
   <stop stop-color="#000d33" offset="0"/>
   <stop stop-color="#126ccc" offset="1"/>
  </radialGradient>
  <linearGradient id="linearGradient14183" x1="4.9426" x2="30.151" y1="20.047" y2="-6.2656" gradientUnits="userSpaceOnUse">
   <stop offset="0"/>
   <stop stop-opacity="0" offset="1"/>
  </linearGradient>
  <linearGradient id="linearGradient882" x1="-51.53" x2="-36.681" y1="23.735" y2="24.177" gradientTransform="translate(0 -.61872)" gradientUnits="userSpaceOnUse">
   <stop stop-color="#ccc" offset="0"/>
   <stop stop-color="#eee" offset=".48855"/>
   <stop stop-color="#a6a6a6" offset="1"/>
  </linearGradient>
 </defs>
 <metadata>
  <rdf:RDF>
   <cc:Work rdf:about="">
    <dc:format>image/svg+xml</dc:format>
    <dc:type rdf:resource="http://purl.org/dc/dcmitype/StillImage"/>
    <dc:title/>
   </cc:Work>
  </rdf:RDF>
 </metadata>
 <g fill-rule="evenodd" shape-rendering="auto">
  <path d="m23.932 12a11.932 11.932 0 0 1-11.932 11.932 11.932 11.932 0 0 1-11.932-11.932 11.932 11.932 0 0 1 11.932-11.932 11.932 11.932 0 0 1 11.932 11.932z" color="#000000" color-rendering="auto" fill="url(#radialGradient14151)" image-rendering="auto" solid-color="#000000" style="isolation:auto;mix-blend-mode:normal"/>
  <path d="m12.047 0.0058594c-6.6103-1e-7 -11.979 5.3682-11.979 11.979 0 6.6103 5.3682 11.979 11.979 11.979 6.6103 0 11.979-5.3682 11.979-11.979 0-6.6103-5.3682-11.979-11.979-11.979zm0 0.96289c6.0895 0 11.016 4.9261 11.016 11.016s-4.9261 11.016-11.016 11.016-11.016-4.9261-11.016-11.016c-1e-7 -6.0895 4.9261-11.016 11.016-11.016z" color="#000000" color-rendering="auto" fill="url(#linearGradient14183)" image-rendering="auto" opacity=".096" solid-color="#000000" style="block-progression:tb;isolation:auto;mix-blend-mode:normal;text-decoration-color:#000000;text-decoration-line:none;text-decoration-style:solid;text-indent:0;text-transform:none;white-space:normal"/>
 </g>
 <g transform="translate(.28602 -1028.5)">
  <g transform="translate(-9.5e-7 5.2878e-6)">
   <g transform="rotate(48.587 12 1040.4)">
    <path d="m3.9342 1045.3c-0.90034-1.4447-1.4205-3.1509-1.4205-4.9785 0-3.127 1.5226-5.8984 3.8669-7.6132 1.5586-1.14 3.4803-1.813 5.5593-1.813 2.4836 0 4.7804 0.8753 6.4266 2.5303" fill="none" stroke="#fff" stroke-width="1.647"/>
    <polygon transform="matrix(.06733 0 0 .06733 1.7731 1029.7)" points="243.01 51.627 243.16 1.158 264.55 1.233 264.35 73.083 192.5 72.89 192.56 51.483" fill="#fff"/>
    <path d="m20.066 1035.4c0.90027 1.4448 1.4205 3.1509 1.4205 4.9785 0 5.206-4.2203 9.4262-9.4262 9.4262-2.4836 0-4.7804-0.8753-6.4266-2.5302" fill="none" stroke="#fff" stroke-width="1.647"/>
    <polygon transform="matrix(.06733 0 0 .06733 1.7731 1029.7)" points="60.769 264.65 60.625 315.12 39.236 315.04 39.428 243.19 111.28 243.38 111.22 264.79" fill="#fff"/>
   </g>
  </g>
 </g>
 <g transform="matrix(.42056 0 0 .43445 30.371 5.1141)" stroke-linecap="round">
  <path d="m-53.209 5.4379v21.928c-0.14548 0.3392-0.22013 0.68562-0.22266 1.0332 8.03e-4 2.6605 4.137 4.8169 9.2383 4.8164 5.1006-7.3e-5 9.2355-2.1563 9.2363-4.8164-3.7e-4 -0.27165-0.0448-0.5428-0.13281-0.81055v-26.924z" fill="url(#linearGradient882)" style="paint-order:fill markers stroke"/>
  <ellipse transform="matrix(.95617 -.2928 0 1 0 0)" cx="-46.201" cy="-10.52" rx="9.4802" ry="4.7275" fill="#666" style="paint-order:fill markers stroke"/>
 </g>
</svg>
