<svg xmlns="http://www.w3.org/2000/svg" xmlns:xlink="http://www.w3.org/1999/xlink" width="24" height="24" viewBox="0 0 24 24"><defs><linearGradient id="f"><stop offset="0" stop-color="#828282"/><stop offset="1" stop-color="#fff" stop-opacity="0"/></linearGradient><linearGradient id="a"><stop offset="0" stop-color="#e35f00" stop-opacity=".996"/><stop offset="1" stop-color="#ff950d" stop-opacity=".996"/></linearGradient><linearGradient id="b"><stop offset="0"/><stop offset="1" stop-opacity="0"/></linearGradient><linearGradient id="d"><stop offset="0" stop-color="#1f58b6"/><stop offset="1" stop-color="#7aa4e8"/></linearGradient><radialGradient xlink:href="#a" id="g" cx="6.393" cy="15.165" fx="6.393" fy="15.165" r="11.932" gradientUnits="userSpaceOnUse" gradientTransform="matrix(1.4121 -1.10457 1.0703 1.3683 -14.652 5.117)"/><linearGradient xlink:href="#b" id="h" x1="4.943" y1="20.047" x2="30.151" y2="-6.266" gradientUnits="userSpaceOnUse"/><radialGradient xlink:href="#d" id="c" gradientUnits="userSpaceOnUse" gradientTransform="matrix(1.4121 -1.10457 1.0703 1.3683 -14.652 5.117)" cx="6.393" cy="15.165" fx="6.393" fy="15.165" r="11.932"/><radialGradient xlink:href="#d" id="e" gradientUnits="userSpaceOnUse" gradientTransform="matrix(1.4121 -1.10457 1.0703 1.3683 -14.652 5.117)" cx="6.393" cy="15.165" fx="6.393" fy="15.165" r="11.932"/><linearGradient xlink:href="#f" id="j" x1="12.153" y1="1034.994" x2="12.153" y2="1037.071" gradientUnits="userSpaceOnUse" gradientTransform="translate(0 -1.25)"/><linearGradient xlink:href="#f" id="k" x1="11.977" y1="1041.004" x2="11.977" y2="1043.479" gradientUnits="userSpaceOnUse" gradientTransform="translate(0 -1.25)"/><clipPath id="i"><circle style="isolation:auto;mix-blend-mode:normal" cx="12" cy="1040.362" r="11.081" color="#000" overflow="visible" fill="red" fill-rule="evenodd" stroke-linecap="square" stroke-dashoffset=".85"/></clipPath></defs><g color="#000" fill-rule="evenodd"><path d="M23.932 12A11.932 11.932 0 0 1 12 23.932 11.932 11.932 0 0 1 .068 12 11.932 11.932 0 0 1 12 .068 11.932 11.932 0 0 1 23.932 12z" style="isolation:auto;mix-blend-mode:normal" overflow="visible" fill="url(#g)"/><path d="M12.047.006C5.437.006.067 5.374.067 11.984c0 6.61 5.37 11.98 11.98 11.98s11.978-5.37 11.978-11.98S18.657.006 12.047.006zm0 .963c6.09 0 11.015 4.925 11.015 11.014 0 6.09-4.926 11.016-11.015 11.016A11.008 11.008 0 0 1 1.03 11.984C1.03 5.894 5.958.97 12.048.97z" style="line-height:normal;text-indent:0;text-align:start;text-decoration-line:none;text-decoration-style:solid;text-decoration-color:#000;text-transform:none;block-progression:tb;isolation:auto;mix-blend-mode:normal" font-weight="400" font-family="sans-serif" white-space="normal" overflow="visible" opacity=".096" fill="url(#h)"/></g><g transform="translate(0 -1028.362)"><ellipse transform="translate(0 .078)" style="isolation:auto;mix-blend-mode:normal" cx="12.226" cy="1055.095" rx="14.844" ry="12.969" clip-path="url(#i)" color="#000" overflow="visible" fill="#803300" fill-opacity=".996" fill-rule="evenodd"/><path d="M4.59 1049.187c-.172-.074-.25-.262-.25-.6 0-.42.162-.62.5-.62h.14v-2.06c0-1.133-.006-2.06-.015-2.06-.008 0-.12.064-.25.142-.18.108-.262.136-.352.12-.196-.04-.275-.117-.475-.468-.205-.36-.226-.522-.085-.678.037-.04 1.18-.8 2.54-1.685l2.475-1.613v-1.21c.002-.95.015-1.24.06-1.342.03-.07.606-.677 1.28-1.348l1.223-1.22v-1.3h-1.045l-.117-.117c-.113-.113-.117-.13-.117-.498 0-.42.04-.554.187-.62.055-.026.316-.046.596-.046h.498v-.498c0-.28.02-.54.045-.595.067-.147.2-.187.62-.187.37 0 .386.01.5.117l.116.117v1.046H13.708l.117.117c.114.114.117.128.117.523 0 .396-.002.41-.116.523l-.117.116H12.66v1.304l1.226 1.218c.693.69 1.25 1.274 1.28 1.347.042.1.055.408.056 1.34l.002 1.21 2.475 1.615c1.36.887 2.504 1.646 2.54 1.685.14.154.118.318-.087.678-.192.336-.348.483-.514.483-.047 0-.188-.063-.316-.14a2.83 2.83 0 0 0-.248-.14c-.008 0-.015.927-.015 2.06v2.06h.122c.21 0 .396.104.46.257.078.185.076.633-.002.784-.132.257.43.24-7.607.238-6.246 0-7.33-.01-7.443-.06zm8.71-2.978c0-1.28-.013-1.788-.047-1.864-.092-.203-.185-.22-1.232-.22s-1.14.017-1.232.22c-.034.076-.047.585-.047 1.863v1.757h2.56v-1.758zm-4.487-.476l-.012-.954-.12-.195a1.036 1.036 0 0 0-.317-.317c-.174-.107-.23-.12-.502-.12-.27 0-.328.013-.502.12-.12.075-.24.195-.316.317l-.12.195-.013.954-.014.953h1.93l-.012-.953zm8.32 0l-.012-.954-.12-.195a1.036 1.036 0 0 0-.317-.317c-.174-.107-.23-.12-.502-.12-.27 0-.328.013-.502.12-.12.075-.24.195-.316.317l-.12.195-.013.954-.013.953H17.146l-.012-.953zm-4.61-6.23c.12-.073.242-.194.317-.315.107-.175.12-.232.12-.503 0-.27-.013-.33-.12-.502a1.033 1.033 0 0 0-.317-.317c-.174-.107-.23-.12-.502-.12-.27 0-.328.013-.502.12a.962.962 0 0 0 1.006 1.637z"/><path d="M4.586 1047.935c-.17-.074-.248-.262-.248-.6 0-.42.16-.62.498-.62h.142v-2.06c0-1.133-.007-2.06-.015-2.06-.01 0-.12.064-.25.142-.18.11-.263.137-.353.12-.196-.038-.275-.116-.475-.467-.205-.36-.226-.522-.085-.678.037-.04 1.18-.798 2.54-1.685l2.475-1.612v-1.21c.003-.95.015-1.24.06-1.34.03-.072.606-.68 1.28-1.35l1.223-1.22v-1.3h-1.046l-.117-.117c-.113-.113-.117-.13-.117-.498 0-.42.04-.554.186-.62.055-.025.316-.045.596-.045h.498v-.5c0-.278.02-.54.044-.594.067-.145.2-.185.62-.185.37 0 .386.01.5.117l.116.116v1.048H13.705l.117.116c.115.115.118.13.118.525s-.003.41-.117.523l-.116.117H12.66v1.304l1.225 1.217c.693.688 1.25 1.274 1.28 1.346.042.1.055.41.056 1.34v1.212l2.477 1.613c1.36.888 2.504 1.646 2.54 1.685.14.154.12.318-.087.678-.192.338-.348.484-.514.484-.046 0-.187-.063-.315-.14a2.83 2.83 0 0 0-.247-.14c-.008 0-.015.928-.015 2.06v2.06h.12c.212 0 .397.104.462.258.077.185.076.633-.003.784-.132.256.43.24-7.607.237-6.246 0-7.33-.01-7.443-.06zm8.712-2.978c0-1.278-.013-1.787-.048-1.863-.092-.202-.185-.22-1.232-.22-1.048 0-1.14.017-1.233.22-.034.076-.047.585-.047 1.863v1.758h2.56v-1.758zm-4.488-.475l-.012-.953-.12-.197a1.036 1.036 0 0 0-.318-.317c-.174-.107-.23-.12-.502-.12-.27 0-.33.013-.502.12-.122.075-.242.196-.317.317l-.122.196-.012.952-.012.953h1.928l-.012-.953zm8.32 0l-.012-.953-.12-.197a1.036 1.036 0 0 0-.318-.317c-.174-.107-.23-.12-.502-.12-.27 0-.33.013-.502.12-.122.075-.242.196-.317.317l-.122.196-.012.952-.012.953h1.928l-.012-.953zm-4.61-6.23c.12-.073.242-.194.317-.315.107-.173.12-.23.12-.502 0-.27-.013-.33-.12-.502a1.033 1.033 0 0 0-.317-.317c-.174-.107-.23-.12-.502-.12-.27 0-.33.013-.502.12a.962.962 0 0 0 1.005 1.637z" fill="#fff"/><path d="M8.868 1035.96h6.312l-2.523-2.595h-1.282z" fill="url(#j)" fill-rule="evenodd"/><path d="M4.972 1042.605l4.662-3.094h5.016l4.376 3.117z" fill="url(#k)" fill-rule="evenodd"/><path style="isolation:auto;mix-blend-mode:normal" d="M6.874 1044.487l.017-.945.08-.127c.105-.174.265-.328.43-.416.135-.074.143-.075.414-.076.263 0 .282 0 .408.066.156.08.347.263.45.435l.072.123.014.942.013.94H6.86l.016-.943z" color="#000" overflow="visible" fill="#f98b0a" fill-opacity=".996"/><path style="isolation:auto;mix-blend-mode:normal" d="M10.712 1044.95c.007-1.71.01-1.764.052-1.85.076-.153.14-.17.723-.195.326-.014.68-.013.997 0 .546.025.628.045.693.17.053.1.07.627.07 2.25l.003 1.388h-2.545l.007-1.762z" color="#000" overflow="visible" fill="#500"/><path style="isolation:auto;mix-blend-mode:normal" d="M15.194 1044.487l.01-.945.097-.15c.117-.18.274-.324.442-.407.117-.057.146-.062.39-.062.242 0 .278.01.393.06.16.074.33.23.448.415l.092.144.013.944.013.945h-1.907l.01-.944zM11.79 1038.38a.987.987 0 0 1-.657-.506.94.94 0 0 1 .448-1.284c.125-.06.152-.064.4-.064.256 0 .274 0 .407.07.177.087.35.262.44.44.066.132.07.148.07.417 0 .257-.006.288-.06.396a1.102 1.102 0 0 1-.435.443.912.912 0 0 1-.61.087z" color="#000" overflow="visible" fill="#f98b0a" fill-opacity=".996"/><rect style="isolation:auto;mix-blend-mode:normal" width="15.689" height="1.414" x="4.132" y="1046.627" ry=".61" color="#000" overflow="visible" fill="#b6b6b6"/></g></svg>