<svg xmlns="http://www.w3.org/2000/svg" xmlns:xlink="http://www.w3.org/1999/xlink" width="24" height="24" viewBox="0 0 24 24"><defs><linearGradient id="b"><stop offset="0"/><stop offset="1" stop-opacity="0"/></linearGradient><linearGradient id="a"><stop offset="0" stop-color="#1f58b6"/><stop offset="1" stop-color="#7aa4e8"/></linearGradient><radialGradient xlink:href="#a" id="e" cx="6.393" cy="15.165" fx="6.393" fy="15.165" r="11.932" gradientUnits="userSpaceOnUse" gradientTransform="matrix(1.4121 -1.10457 1.0703 1.3683 -14.652 5.117)"/><linearGradient xlink:href="#b" id="f" x1="4.943" y1="20.047" x2="30.151" y2="-6.266" gradientUnits="userSpaceOnUse"/><radialGradient xlink:href="#a" id="c" gradientUnits="userSpaceOnUse" gradientTransform="matrix(1.4121 -1.10457 1.0703 1.3683 -14.652 5.117)" cx="6.393" cy="15.165" fx="6.393" fy="15.165" r="11.932"/><radialGradient xlink:href="#a" id="d" gradientUnits="userSpaceOnUse" gradientTransform="matrix(1.4121 -1.10457 1.0703 1.3683 -14.652 5.117)" cx="6.393" cy="15.165" fx="6.393" fy="15.165" r="11.932"/><clipPath id="h"><circle style="isolation:auto;mix-blend-mode:normal" cx="12" cy="1040.362" r="11.081" color="#000" overflow="visible" fill="red" fill-rule="evenodd" stroke-linecap="square" stroke-dashoffset=".85"/></clipPath><clipPath id="g"><circle style="isolation:auto;mix-blend-mode:normal" cx="12" cy="1040.362" r="11.081" color="#000" overflow="visible" fill="red" fill-rule="evenodd" stroke-linecap="square" stroke-dashoffset=".85"/></clipPath></defs><g color="#000" fill-rule="evenodd"><path d="M23.932 12A11.932 11.932 0 0 1 12 23.932 11.932 11.932 0 0 1 .068 12 11.932 11.932 0 0 1 12 .068 11.932 11.932 0 0 1 23.932 12z" style="isolation:auto;mix-blend-mode:normal" overflow="visible" fill="url(#e)"/><path d="M12.047.006C5.437.006.067 5.374.067 11.984c0 6.61 5.37 11.98 11.98 11.98s11.978-5.37 11.978-11.98S18.657.006 12.047.006zm0 .963c6.09 0 11.015 4.925 11.015 11.014 0 6.09-4.926 11.016-11.015 11.016A11.008 11.008 0 0 1 1.03 11.984C1.03 5.894 5.958.97 12.048.97z" style="line-height:normal;text-indent:0;text-align:start;text-decoration-line:none;text-decoration-style:solid;text-decoration-color:#000;text-transform:none;block-progression:tb;isolation:auto;mix-blend-mode:normal" font-weight="400" font-family="sans-serif" white-space="normal" overflow="visible" opacity=".096" fill="url(#f)"/></g><g transform="translate(0 -1028.362)"><ellipse style="isolation:auto;mix-blend-mode:normal" cx="12.226" cy="1055.095" rx="14.844" ry="12.969" clip-path="url(#g)" color="#000" overflow="visible" fill="#31548e" fill-rule="evenodd"/><path d="M.474 1045.575s1.853 1.77 2.996 1.757c1.12-.013 2.898-1.787 2.898-1.787s1.613 1.705 2.652 1.728c1.12.025 2.928-1.73 2.928-1.73s1.625 1.754 2.682 1.78c1.132.03 2.957-1.756 2.957-1.756s1.57 1.738 2.712 1.757c1.215.02 3.24-1.757 3.24-1.757" clip-path="url(#h)" fill="none" stroke="#fff" stroke-width=".982"/><path d="M18.68 1045.714c.263-1.244 1.464-4.572 2.163-5.994.344-.7.344-.702.077-.396-.533.61-1.528 2.147-2.126 3.28-.51.967-.602 1.1-.564.805a57.87 57.87 0 0 0 .15-1.846c.096-1.33.127-1.512.294-1.67.152-.144.224-.422.382-1.485.176-1.19.182-1.327.06-1.514-.075-.114-.172-.207-.216-.207-.044 0-.097-.11-.117-.242l-.036-.242-.014.242c-.007.137-.064.24-.13.24-.277 0-.398.33-.58 1.58-.18 1.243-.18 1.277-.02 1.493.16.22.158.255-.15 2.177-.17 1.075-.332 1.953-.358 1.95-.027 0-.292-.506-.59-1.12-.495-1.022-1.83-3.175-2.054-3.314-.05-.032.023.173.165.456.59 1.173 1.685 4.054 1.685 4.437 0 .055-.205-.175-.455-.508-.626-.833-1.465-1.643-2.18-2.107-.33-.214-.633-.388-.672-.388-.04 0 .23.306.598.68.813.826 1.528 1.788 2.258 3.037l.548.938h1.822l.06-.286z" fill="#fff"/><g fill="#fff"><path d="M7.26 1046.627a30.293 30.293 0 0 1-.107-1.493c-.047-.903-.022-1.208.145-1.832.23-.85.355-2.32.215-2.518-.074-.105-.403.043-1.597.722-1.34.76-1.55.917-1.942 1.433-.24.318-.55.72-.686.89-1.06 1.34-.52-1.702.72-4.038.965-1.824 3.325-4.58 4.348-5.082.744-.365 1.394-.248 2.22.398.443.348.73.294.93-.174.308-.716.098-1.22-.58-1.4-.608-.16-.953-.44-1.217-.994-.275-.573-.315-1.368-.092-1.79.25-.47 1.06-.967 1.577-.967.12 0 .525.148.902.328.377.182 1.153.47 1.724.642 1.14.342 1.88.657 1.88.8 0 .136-1.85.004-2.59-.185-.686-.176-2.066-.137-2.316.064-.074.062-.136.237-.136.39 0 .3.085.355.868.56.538.142.922.637 1.16 1.497.404 1.45-.198 2.77-1.746 3.827-.316.217-.883.742-1.26 1.167-.677.768-.684.78-.89 1.747-.224 1.057-.253 1.737-.196 4.564.035 1.71.025 1.856-.133 1.856-.21 0-.24-.144-.33-1.494-.088-1.302-.086-1.654.01-2.95.048-.667.04-1.043-.026-1.083-.207-.125-.448 2.16-.458 4.346-.005 1.05-.024 1.18-.176 1.18-.126 0-.183-.105-.22-.41z"/><path d="M7.244 1045.76c-.102-1.58-.092-1.82.106-2.537.183-.66.314-2.495.184-2.573-.106-.063-2.813 1.45-3.17 1.773-.14.125-.497.566-.796.98-.298.412-.593.734-.655.714-.474-.15.305-2.954 1.285-4.622.688-1.172 1.65-2.405 2.718-3.49 1.665-1.692 2.284-1.866 3.474-.98.257.192.553.348.657.348.31 0 .6-.45.6-.935 0-.612-.127-.774-.742-.948-.862-.245-1.433-1.047-1.433-2.012 0-.425.18-.785.56-1.13.634-.57 1.28-.628 2.127-.187.296.155 1.003.422 1.57.593 1.124.34 1.87.657 1.87.796 0 .117-1.504-.01-2.295-.194-.652-.153-2.027-.17-2.407-.028-.562.208-.326.892.344.997.89.138 1.52 1.14 1.524 2.422.003 1.09-.533 1.982-1.69 2.81-.96.69-1.972 1.813-2.152 2.395-.407 1.31-.477 2.202-.323 4.096.012.133.012.86.002 1.615-.016 1.106-.046 1.373-.158 1.373-.196 0-.314-1.623-.276-3.823.017-1.03-.01-1.773-.064-1.806-.207-.125-.498 2.55-.506 4.64-.003.768-.034.99-.138.99-.102 0-.154-.305-.216-1.278z"/><path d="M7.262 1045.42c-.06-1.358-.045-1.6.14-2.288.2-.757.312-2.37.172-2.51-.073-.07-.565.18-2.222 1.137-.92.53-1.063.653-1.66 1.434-.78 1.017-.997 1.1-.906.34.086-.712.607-2.38 1.007-3.225.69-1.46 2.374-3.674 3.704-4.875 1.195-1.078 1.843-1.157 2.913-.35.466.35.548.38.77.28.328-.145.495-.47.506-.99.012-.538-.195-.775-.806-.925-.602-.148-1.06-.624-1.267-1.315-.28-.937.016-1.65.856-2.067.54-.27.93-.235 1.73.15.388.188 1.086.448 1.55.58.465.13 1.06.335 1.323.454l.477.216-.625.03c-.348.016-.982-.046-1.433-.14-1.03-.22-2.49-.202-2.753.03-.1.088-.18.243-.18.344 0 .374.188.542.737.653.64.13.925.408 1.23 1.207.583 1.517-.005 2.963-1.666 4.1-.518.354-1.294 1.138-1.758 1.778-.123.17-.295.7-.416 1.283-.188.904-.203 1.227-.16 3.59.038 2.092.022 2.597-.08 2.597-.182 0-.31-1.92-.268-4.024.02-1.1-.003-1.663-.07-1.663-.25 0-.568 2.79-.53 4.65.015.82-.01 1.037-.115 1.037-.105 0-.15-.333-.2-1.52z"/></g></g></svg>