<svg xmlns="http://www.w3.org/2000/svg" xmlns:xlink="http://www.w3.org/1999/xlink" width="24" height="24" viewBox="0 0 24 24"><defs><linearGradient id="e"><stop offset="0" stop-color="#ccc"/><stop offset="1" stop-color="#f9f9f9"/></linearGradient><linearGradient id="b"><stop offset="0"/><stop offset="1" stop-opacity="0"/></linearGradient><linearGradient id="a"><stop offset="0" stop-color="#1f58b6"/><stop offset="1" stop-color="#7aa4e8"/></linearGradient><radialGradient xlink:href="#a" id="f" cx="6.393" cy="15.165" fx="6.393" fy="15.165" r="11.932" gradientUnits="userSpaceOnUse" gradientTransform="matrix(1.4121 -1.10457 1.0703 1.3683 -14.652 5.117)"/><linearGradient xlink:href="#b" id="g" x1="4.943" y1="20.047" x2="30.151" y2="-6.266" gradientUnits="userSpaceOnUse"/><radialGradient xlink:href="#a" id="c" gradientUnits="userSpaceOnUse" gradientTransform="matrix(1.4121 -1.10457 1.0703 1.3683 -14.652 5.117)" cx="6.393" cy="15.165" fx="6.393" fy="15.165" r="11.932"/><radialGradient xlink:href="#a" id="d" gradientUnits="userSpaceOnUse" gradientTransform="matrix(1.4121 -1.10457 1.0703 1.3683 -14.652 5.117)" cx="6.393" cy="15.165" fx="6.393" fy="15.165" r="11.932"/><linearGradient xlink:href="#e" id="h" x1="11.595" y1="1038.905" x2="11.595" y2="1034.246" gradientUnits="userSpaceOnUse"/></defs><g color="#000" fill-rule="evenodd"><path d="M23.932 12A11.932 11.932 0 0 1 12 23.932 11.932 11.932 0 0 1 .068 12 11.932 11.932 0 0 1 12 .068 11.932 11.932 0 0 1 23.932 12z" style="isolation:auto;mix-blend-mode:normal" overflow="visible" fill="url(#f)"/><path d="M12.047.006C5.437.006.067 5.374.067 11.984c0 6.61 5.37 11.98 11.98 11.98s11.978-5.37 11.978-11.98S18.657.006 12.047.006zm0 .963c6.09 0 11.015 4.925 11.015 11.014 0 6.09-4.926 11.016-11.015 11.016A11.008 11.008 0 0 1 1.03 11.984C1.03 5.894 5.958.97 12.048.97z" style="line-height:normal;text-indent:0;text-align:start;text-decoration-line:none;text-decoration-style:solid;text-decoration-color:#000;text-transform:none;block-progression:tb;isolation:auto;mix-blend-mode:normal" font-weight="400" font-family="sans-serif" white-space="normal" overflow="visible" opacity=".096" fill="url(#g)"/></g><g color="#000" fill-rule="evenodd"><g fill="#133671"><path d="M7.955 8.618c.736-.8 1.903-1.408 2.797-1.68.03 0 .09-.253.09-.253l.003-1.58 2.264-.01.015 1.63.05.2.245.063c1.046.252 1.802.93 2.576 1.572.158.13.27.27.41.454.57.813.866 1.696 1.056 2.583H6.492c.317-1.117.715-2.165 1.463-2.98zM10.846 4.518s.144-.4.31-.564c.09-.087.192-.192.377-.283l.238-.116V2.096l.417.01.017 1.46.154.066c.164.07.295.157.337.21.223.175.322.426.412.688zM5.662 17.794h1.07l.008-4.566-1.078.012v-.81h12.63v.81h-1.036l.015 4.533 1.02.018v.782H5.663zm4.09-.014v-4.524l-1.37-.013.004 4.533zm2.937.012v-4.538h-1.363v4.542h1.362zm2.922 0l.023-4.536h-1.367v4.542h1.344zM4.958 19.47h14.038v1.818H4.958z" style="isolation:auto;mix-blend-mode:normal" overflow="visible"/></g><path d="M7.674 1035.918c.792-.86 2.047-1.514 3.01-1.806.03 0 .095-.273.095-.273l.003-1.7 2.435-.01.017 1.752.056.216.263.068c1.4.41 2.398 1.173 3.213 2.18.63.776.93 1.823 1.134 2.777H6.1c.34-1.2.77-2.328 1.574-3.205z" style="isolation:auto;mix-blend-mode:normal" overflow="visible" fill="url(#h)" transform="matrix(.92964 0 0 .92964 .844 -955.24)"/><path d="M10.87 3.69s.143-.397.31-.562c.088-.088.19-.193.376-.284l.238-.117V1.27l.416.01.017 1.458.154.067c.165.072.296.158.338.21.223.175.323.427.412.688zM5.686 16.967h1.068l.01-4.565-1.08.01v-.808h12.63v.81H17.28l.014 4.532 1.02.02v.78H5.685zm4.09-.014V12.43l-1.37-.014.003 4.534zm2.936.012v-4.537h-1.36v4.542h1.36zm2.923 0l.023-4.535H14.29v4.54h1.345zM4.98 18.642h14.04v1.82H4.98zM10.827 4.253h2.376V6.05h-2.376z" style="isolation:auto;mix-blend-mode:normal" overflow="visible" fill="#fff"/></g></svg>