<svg xmlns="http://www.w3.org/2000/svg" xmlns:xlink="http://www.w3.org/1999/xlink" width="24" height="24" viewBox="0 0 24 24"><defs><linearGradient id="a"><stop offset="0" stop-color="#7c05fc" stop-opacity=".996"/><stop offset="1" stop-color="#e244fe" stop-opacity=".996"/></linearGradient><linearGradient id="b"><stop offset="0"/><stop offset="1" stop-opacity="0"/></linearGradient><linearGradient id="d"><stop offset="0" stop-color="#1f58b6"/><stop offset="1" stop-color="#7aa4e8"/></linearGradient><radialGradient xlink:href="#a" id="g" cx="6.393" cy="15.165" fx="6.393" fy="15.165" r="11.932" gradientUnits="userSpaceOnUse" gradientTransform="matrix(1.4121 -1.10457 1.0703 1.3683 -14.652 5.117)"/><linearGradient xlink:href="#b" id="h" x1="4.943" y1="20.047" x2="30.151" y2="-6.266" gradientUnits="userSpaceOnUse"/><radialGradient xlink:href="#d" id="c" gradientUnits="userSpaceOnUse" gradientTransform="matrix(1.4121 -1.10457 1.0703 1.3683 -14.652 5.117)" cx="6.393" cy="15.165" fx="6.393" fy="15.165" r="11.932"/><radialGradient xlink:href="#d" id="e" gradientUnits="userSpaceOnUse" gradientTransform="matrix(1.4121 -1.10457 1.0703 1.3683 -14.652 5.117)" cx="6.393" cy="15.165" fx="6.393" fy="15.165" r="11.932"/><linearGradient gradientTransform="translate(-1.912 882.37) scale(.14517)" xlink:href="#f" id="j" x1="96.294" y1="1033.285" x2="96.598" y2="1049.268" gradientUnits="userSpaceOnUse"/><linearGradient id="f"><stop offset="0" stop-color="#999"/><stop offset="1" stop-color="#ccc" stop-opacity="0"/></linearGradient><clipPath id="i"><circle r="11.026" cy="1040.362" cx="12" style="isolation:auto;mix-blend-mode:normal" color="#000" overflow="visible" fill="#ac9393" stroke-opacity=".428"/></clipPath></defs><g color="#000" fill-rule="evenodd"><path d="M23.932 12A11.932 11.932 0 0 1 12 23.932 11.932 11.932 0 0 1 .068 12 11.932 11.932 0 0 1 12 .068 11.932 11.932 0 0 1 23.932 12z" style="isolation:auto;mix-blend-mode:normal" overflow="visible" fill="url(#g)"/><path d="M12.047.006C5.437.006.067 5.374.067 11.984c0 6.61 5.37 11.98 11.98 11.98s11.978-5.37 11.978-11.98S18.657.006 12.047.006zm0 .963c6.09 0 11.015 4.925 11.015 11.014 0 6.09-4.926 11.016-11.015 11.016A11.008 11.008 0 0 1 1.03 11.984C1.03 5.894 5.958.97 12.048.97z" style="line-height:normal;text-indent:0;text-align:start;text-decoration-line:none;text-decoration-style:solid;text-decoration-color:#000;text-transform:none;block-progression:tb;isolation:auto;mix-blend-mode:normal" font-weight="400" font-family="sans-serif" white-space="normal" overflow="visible" opacity=".096" fill="url(#h)"/></g><g transform="translate(0 -1028.362)"><path transform="translate(.09 -.025)" style="isolation:auto;mix-blend-mode:normal" clip-path="url(#i)" color="#000" overflow="visible" fill="#1d3153" d="M2.906 1047.612h18.438v4.75H2.906z"/><path d="M3.783 1047.19c0-.48.123-.74.397-.834.292-.102 15.524-.102 15.816 0 .274.095.397.353.397.833v.392H3.783v-.393zm1.297-2c0-.63.157-.788.788-.788h.445v-7.656H8.26v7.66l.632-.018.633-.02.016-3.81.018-3.813h1.88l.016 3.812.017 3.812h1.234l.017-3.813.017-3.812h1.88l.017 3.812.016 3.812.633.018.633.02v-7.662H17.86v7.656h.445c.395 0 .465.02.617.17.15.153.17.223.17.618v.445H5.08v-.445zm.348-9.156c-.168-.07-.348-.312-.348-.47 0-.103-.07-.115-.652-.115h-.652l.02-.338.02-.337 4.135-1.91 4.138-1.91 4.136 1.91 4.136 1.91.02.337.02.337h-.653c-.603 0-.652.01-.652.125 0 .07-.07.208-.157.308l-.156.182-6.608.012c-3.643.01-6.67-.013-6.746-.044z" fill="#fff"/><rect style="isolation:auto;mix-blend-mode:normal" width="14.076" height=".928" x="5.018" y="1035.411" ry=".464" color="#000" overflow="visible" fill="#ccc"/><path style="isolation:auto;mix-blend-mode:normal" color="#000" overflow="visible" fill="#b3b3b3" d="M7.03 1037.4h.5v6.96h-.5z"/><path d="M7.427 1034.394l4.596-2.01 4.574 1.966z" fill="url(#j)" fill-rule="evenodd"/><path style="isolation:auto;mix-blend-mode:normal" color="#000" overflow="visible" fill="#b3b3b3" d="M10.263 1037.4h.5v6.96h-.5zM13.42 1037.4h.5v6.96h-.5zM16.638 1037.4h.5v6.96h-.5z"/></g></svg>