<svg xmlns="http://www.w3.org/2000/svg" xmlns:xlink="http://www.w3.org/1999/xlink" width="24" height="24" viewBox="0 0 24 24"><defs><linearGradient id="a"><stop offset="0" stop-color="#7c05fc" stop-opacity=".996"/><stop offset="1" stop-color="#e244fe" stop-opacity=".996"/></linearGradient><linearGradient id="b"><stop offset="0"/><stop offset="1" stop-opacity="0"/></linearGradient><linearGradient id="d"><stop offset="0" stop-color="#1f58b6"/><stop offset="1" stop-color="#7aa4e8"/></linearGradient><radialGradient xlink:href="#a" id="f" cx="6.393" cy="15.165" fx="6.393" fy="15.165" r="11.932" gradientUnits="userSpaceOnUse" gradientTransform="matrix(1.4121 -1.10457 1.0703 1.3683 -14.652 5.117)"/><linearGradient xlink:href="#b" id="g" x1="4.943" y1="20.047" x2="30.151" y2="-6.266" gradientUnits="userSpaceOnUse"/><radialGradient xlink:href="#d" id="c" gradientUnits="userSpaceOnUse" gradientTransform="matrix(1.4121 -1.10457 1.0703 1.3683 -14.652 5.117)" cx="6.393" cy="15.165" fx="6.393" fy="15.165" r="11.932"/><radialGradient xlink:href="#d" id="e" gradientUnits="userSpaceOnUse" gradientTransform="matrix(1.4121 -1.10457 1.0703 1.3683 -14.652 5.117)" cx="6.393" cy="15.165" fx="6.393" fy="15.165" r="11.932"/></defs><g color="#000" fill-rule="evenodd"><path d="M23.932 12A11.932 11.932 0 0 1 12 23.932 11.932 11.932 0 0 1 .068 12 11.932 11.932 0 0 1 12 .068 11.932 11.932 0 0 1 23.932 12z" style="isolation:auto;mix-blend-mode:normal" overflow="visible" fill="url(#f)"/><path d="M12.047.006C5.437.006.067 5.374.067 11.984c0 6.61 5.37 11.98 11.98 11.98s11.978-5.37 11.978-11.98S18.657.006 12.047.006zm0 .963c6.09 0 11.015 4.925 11.015 11.014 0 6.09-4.926 11.016-11.015 11.016A11.008 11.008 0 0 1 1.03 11.984C1.03 5.894 5.958.97 12.048.97z" style="line-height:normal;text-indent:0;text-align:start;text-decoration-line:none;text-decoration-style:solid;text-decoration-color:#000;text-transform:none;block-progression:tb;isolation:auto;mix-blend-mode:normal" font-weight="400" font-family="sans-serif" white-space="normal" overflow="visible" opacity=".096" fill="url(#g)"/></g><path d="M6.41 20.71c-.788-.107-1.452-.55-1.708-1.142-.354-.817-.078-1.794.717-2.538a3.697 3.697 0 0 1 2.785-.995c.297.02.618.056.712.078l.173.04V12.42c0-3.622.003-3.743.13-4.08.168-.45.65-.978 1.047-1.15.167-.07 1.876-.61 3.797-1.198 2.428-.743 3.582-1.068 3.786-1.067.45 0 .78.182.94.513.135.277.136.284.136 5.665 0 6.05.022 5.738-.466 6.4-.365.497-.97.922-1.654 1.163-.475.167-.63.19-1.232.194-.808.01-1.237-.11-1.74-.46-1.024-.717-1.016-2.18.02-3.2.4-.394 1.067-.76 1.655-.91.48-.122 1.486-.122 1.886 0 .17.052.315.093.324.094.008 0 .015-1.138.015-2.53 0-2.36-.007-2.54-.115-2.672a.358.358 0 0 0-.305-.136c-.23.01-6.15 1.854-6.48 2.023a1.23 1.23 0 0 0-.378.322l-.146.205-.03 3.51-.03 3.507-.183.37c-.244.498-.847 1.093-1.36 1.343a4.162 4.162 0 0 1-2.298.383z"/><path d="M5.27 18.7c-.788-.107-1.452-.55-1.708-1.142-.354-.818-.078-1.795.717-2.54a3.697 3.697 0 0 1 2.785-.994c.297.02.617.056.712.078l.172.04V10.41c0-3.622.003-3.743.13-4.08.168-.45.648-.978 1.047-1.15.167-.072 1.875-.61 3.797-1.2 2.427-.74 3.582-1.066 3.785-1.065.45 0 .78.182.94.512.135.277.135.285.135 5.666 0 6.048.023 5.737-.465 6.4-.365.496-.97.922-1.654 1.162-.476.168-.63.192-1.232.195-.81.01-1.237-.11-1.74-.462-1.025-.716-1.016-2.18.02-3.198.4-.395 1.067-.76 1.654-.91.483-.122 1.488-.123 1.888 0 .17.052.315.093.323.094.008 0 .015-1.138.015-2.53 0-2.362-.008-2.54-.115-2.672a.358.358 0 0 0-.305-.137c-.23.01-6.15 1.855-6.48 2.023a1.23 1.23 0 0 0-.378.324l-.146.205-.03 3.508-.032 3.508-.182.372c-.243.496-.846 1.092-1.358 1.34a4.162 4.162 0 0 1-2.3.385z" fill="#fff"/></svg>