<?xml version="1.0" encoding="UTF-8" standalone="no"?>
<!-- Created with Inkscape (http://www.inkscape.org/) -->
<svg xmlns:rdf="http://www.w3.org/1999/02/22-rdf-syntax-ns#" xmlns="http://www.w3.org/2000/svg" height="6.3386mm" width="6.3388mm" version="1.1" xmlns:cc="http://creativecommons.org/ns#" xmlns:xlink="http://www.w3.org/1999/xlink" viewBox="0 0 6.3388395 6.3386312" xmlns:dc="http://purl.org/dc/elements/1.1/">
 <defs>
  <radialGradient id="radialGradient14151-2-1-0-8" gradientUnits="userSpaceOnUse" cy="16.738" cx="5.8614" gradientTransform="matrix(1.1628 -1.0259 .98320 1.1143 -11.736 8.4652)" r="11.932">
   <stop stop-color="#531c41" offset="0"/>
   <stop stop-color="#ac3a86" offset="1"/>
  </radialGradient>
  <linearGradient id="linearGradient1166" y2="-6.2656" gradientUnits="userSpaceOnUse" x2="30.151" y1="20.047" x1="4.9426">
   <stop offset="0"/>
   <stop stop-opacity="0" offset="1"/>
  </linearGradient>
  <linearGradient id="linearGradient938-0-4-2" y2="1050" gradientUnits="userSpaceOnUse" x2="12.065" y1="1043.7" x1="12.065">
   <stop stop-color="#d398c0" offset="0"/>
   <stop stop-color="#ac3a86" offset="1"/>
  </linearGradient>
  <clipPath id="clipPath14164-1-9-3-1" clipPathUnits="userSpaceOnUse">
   <circle style="color-rendering:auto;color:#000000;isolation:auto;mix-blend-mode:normal;shape-rendering:auto;solid-color:#000000;image-rendering:auto" fill-opacity=".99608" cx="11.999" cy="1040.4" r="10.982" fill="#f00"/>
  </clipPath>
 </defs>
 <metadata>
  <rdf:RDF>
   <cc:Work rdf:about="">
    <dc:format>image/svg+xml</dc:format>
    <dc:type rdf:resource="http://purl.org/dc/dcmitype/StillImage"/>
    <dc:title/>
   </cc:Work>
  </rdf:RDF>
 </metadata>
 <g transform="translate(-101.91 -164.56)">
  <g transform="matrix(.26458 0 0 .26458 101.9 -154.92)">
   <g fill-rule="evenodd" transform="translate(-.046482 1207.5)">
    <path style="color-rendering:auto;color:#000000;isolation:auto;mix-blend-mode:normal;shape-rendering:auto;solid-color:#000000;image-rendering:auto" d="m23.932 12a11.932 11.932 0 0 1 -11.932 11.932 11.932 11.932 0 0 1 -11.932 -11.932 11.932 11.932 0 0 1 11.932 -11.932 11.932 11.932 0 0 1 11.932 11.932z" fill="url(#radialGradient14151-2-1-0-8)"/>
    <path opacity="0.096" style="color-rendering:auto;text-decoration-color:#000000;color:#000000;isolation:auto;mix-blend-mode:normal;shape-rendering:auto;solid-color:#000000;text-decoration-line:none;text-decoration-style:solid;image-rendering:auto;white-space:normal;text-indent:0;text-transform:none" d="m12.047 0.0058594c-6.6104-1e-7 -11.979 5.3682-11.979 11.978 0 6.6103 5.3682 11.979 11.979 11.979 6.6103 0 11.979-5.3682 11.979-11.979 0-6.6103-5.3682-11.979-11.979-11.979zm0 0.96289c6.0895 0 11.016 4.9261 11.016 11.016-0.001 6.089-4.927 11.015-11.016 11.015-6.0897 0-11.016-4.926-11.016-11.016 0.0002-6.0892 4.9263-11.015 11.016-11.015z" fill="url(#linearGradient1166)"/>
   </g>
   <path style="color-rendering:auto;color:#000000;isolation:auto;mix-blend-mode:normal;shape-rendering:auto;solid-color:#000000;image-rendering:auto" d="m0.088388 1044.9s5.8463-1.812 11.756-1.812c6.3066 0 12.021 1.812 12.021 1.812v7.4688h-23.777z" clip-path="url(#clipPath14164-1-9-3-1)" transform="translate(-.046482 179.14)" fill="url(#linearGradient938-0-4-2)"/>
   <path d="m5.8401 1226c-0.87229-0.1202-1.6103-0.49-2.2002-1.1025-0.51499-0.5347-0.84641-1.1817-0.97911-1.9115-0.05966-0.3281-0.05942-0.9169 0.000419-1.2515 0.29766-1.6637 1.67-2.9034 3.3463-3.0231 0.24846-0.018 0.7104 0 0.86442 0.035l0.07023 0.015 0.33853-1.1209c0.48224-1.5967 0.63862-2.0614 0.81551-2.4229 0.22697-0.4638 0.42095-0.6413 0.81974-0.7497 0.11419-0.031 0.3404-0.047 0.91135-0.062 0.4177-0.011 0.76516-0.017 0.77212-0.013 0.0069 0.01 0.0092 0.1683 0.0048 0.3645l-0.0076 0.3569-0.39738 0.0006c-0.6306 0-1.004 0.038-1.1593 0.1134-0.13754 0.067-0.23052 0.1773-0.29931 0.3544-0.04077 0.1048-0.26786 0.8924-0.26786 0.9288 0 0.011 1.4431 0.018 3.2068 0.014l3.2068-0.01 0.12269-0.3399c0.06748-0.187 0.11392-0.3477 0.10318-0.3571-0.01076-0.01-0.27584-0.071-0.58911-0.1377-0.71024-0.1505-0.87428-0.2002-0.96708-0.2931-0.07111-0.071-0.07175-0.074-0.03372-0.1652 0.02134-0.051 0.0388-0.097 0.0388-0.1024 0-0.01 0.72771-0.01 1.6171-0.01h1.6171l0.01841 0.3433c0.0101 0.1888 0.01154 0.3502 0.003 0.3585-0.0084 0.01-0.20437 0.022-0.43559 0.03l-0.42042 0.015-0.12316 0.3385-0.12317 0.3386 0.50839 1.1297c0.27961 0.6213 0.51204 1.1337 0.51649 1.1386 0.0042 0.01 0.1313-0.02 0.28187-0.056 0.57042-0.1354 1.0767-0.1485 1.6041-0.041 0.74659 0.1518 1.3336 0.4683 1.8733 1.01 0.5533 0.5554 0.88781 1.1922 1.0262 1.9534 0.05966 0.328 0.05943 0.9169-0.000419 1.2514-0.29766 1.6637-1.67 2.9035-3.3463 3.0231-1.3261 0.095-2.5998-0.5324-3.3175-1.6336-0.24092-0.3696-0.37745-0.69-0.52996-1.2439-0.0067-0.024-0.17862-0.032-0.74998-0.032-0.4077 0-0.81531-0.012-0.90582-0.026-0.38935-0.062-0.56376-0.2149-1.554-1.3659-0.82274-0.9563-1.305-1.5039-1.8616-2.1138-0.55152-0.6044-1.2769-1.379-1.2844-1.3716-0.0065 0.01-0.26188 0.8042-0.26188 0.8181 0 0.01 0.09389 0.056 0.20865 0.1135 1.0206 0.5132 1.7538 1.5027 1.9577 2.6424 0.05986 0.3346 0.06006 0.9234 0.000425 1.2514-0.13842 0.7613-0.47293 1.398-1.0262 1.9534-0.53549 0.5375-1.1185 0.8535-1.862 1.0092-0.2889 0.061-0.8907 0.087-1.1518 0.052zm0.82441-0.8118c0.41109-0.057 0.83427-0.2183 1.2008-0.4572 0.2069-0.1348 0.61571-0.5406 0.75826-0.7527 0.7595-1.1298 0.64842-2.5678-0.27655-3.5799-0.22724-0.2486-0.83452-0.6675-0.88442-0.61-0.01058 0.012-0.14805 0.438-0.30544 0.9462-0.3248 1.0488-0.50987 1.6035-0.58235 1.7456-0.0732 0.1435-0.16235 0.2037-0.30146 0.2036-0.23222-0.0003-0.38239-0.1609-0.38255-0.4093-0.000101-0.1702 0.06375-0.3985 0.46984-1.6792 0.16335-0.5151 0.30207-0.9664 0.30828-1.0028l0.0113-0.066-0.22387-0.017c-0.96644-0.075-1.9385 0.3927-2.5215 1.2122-0.68368 0.9611-0.69064 2.2558-0.01752 3.2571 0.14255 0.2121 0.55136 0.6179 0.75826 0.7527 0.60045 0.3914 1.3024 0.5527 1.9889 0.4572zm11.797-0.086c1.5435-0.2954 2.5744-1.8435 2.2511-3.3806-0.11848-0.5632-0.36984-1.0197-0.79513-1.4441-0.4613-0.4603-0.9959-0.7245-1.6406-0.8107-0.40682-0.054-1.1984 0.032-1.1765 0.1286 0.0042 0.019 0.2624 0.599 0.57362 1.2893 0.75858 1.6827 0.75581 1.6757 0.74162 1.8468-0.0091 0.1104-0.02511 0.1502-0.07906 0.1966-0.14053 0.1208-0.18346 0.1237-1.7313 0.1148-0.79712-0.01-1.4493 0-1.4493 0.01s0.02989 0.096 0.06647 0.1983c0.32448 0.9033 1.0598 1.5798 1.9752 1.8171 0.4012 0.104 0.85204 0.118 1.2638 0.039zm-1.0271-2.8054c0-0.036-1.0676-2.3608-1.0871-2.3673-0.04071-0.014-0.3015 0.1992-0.49833 0.4064-0.46078 0.4853-0.72019 1.0643-0.78223 1.7461l-0.01776 0.1952 0.24971 0.01c0.3401 0.011 2.1357 0.021 2.1357 0.011zm-3.1773-0.2139c0.07967-0.9316 0.4126-1.6827 1.0301-2.3238 0.13682-0.1421 0.35753-0.3354 0.49047-0.4296 0.13293-0.094 0.2365-0.184 0.23014-0.1994-0.01369-0.034-0.60314-1.3378-0.65095-1.4406-0.02308-0.05-0.03844-0.061-0.05129-0.038-0.01405 0.025-1.3802 3.6003-1.7079 4.4694l-0.05966 0.1582h0.70224l0.0168-0.1962zm-0.596-2.3572c0.48803-1.3119 0.88733-2.394 0.88733-2.4048 0-0.016-6.0609-0.013-6.2117 0.01-0.03408 0.01 0.57984 0.6887 2.1764 2.4285 1.4868 1.6202 2.2299 2.4125 2.2422 2.3906 0.0101-0.018 0.41769-1.1062 0.90572-2.4182z" fill="#173814"/>
   <path d="m5.7633 1225.2c-0.87229-0.1202-1.6103-0.49-2.2002-1.1025-0.51498-0.5347-0.84641-1.1817-0.97911-1.9115-0.05966-0.3281-0.05943-0.9169 0.000418-1.2515 0.29766-1.6637 1.67-2.9034 3.3463-3.0231 0.24846-0.018 0.7104 0 0.86442 0.035l0.07023 0.015 0.33853-1.1209c0.48224-1.5967 0.63862-2.0614 0.81551-2.4229 0.22697-0.4638 0.42095-0.6413 0.81974-0.7497 0.11419-0.031 0.3404-0.047 0.91135-0.062 0.4177-0.011 0.76516-0.017 0.77212-0.013 0.0069 0.01 0.0092 0.1683 0.0048 0.3645l-0.0076 0.3569-0.39738 0.0006c-0.6306 0-1.004 0.038-1.1593 0.1134-0.13754 0.067-0.23052 0.1773-0.29931 0.3544-0.04077 0.1048-0.26786 0.8924-0.26786 0.9288 0 0.011 1.4431 0.018 3.2068 0.014l3.2068-0.01 0.12269-0.3399c0.06748-0.187 0.11392-0.3477 0.10318-0.3571-0.01076-0.01-0.27584-0.071-0.58911-0.1377-0.71024-0.1505-0.87428-0.2002-0.96708-0.2931-0.07111-0.071-0.07175-0.074-0.03372-0.1652 0.02134-0.051 0.0388-0.097 0.0388-0.1024 0-0.01 0.72771-0.01 1.6171-0.01h1.6171l0.01841 0.3433c0.0101 0.1888 0.01154 0.3502 0.003 0.3585-0.0084 0.01-0.20437 0.022-0.43559 0.03l-0.42042 0.015-0.12316 0.3385-0.12317 0.3386 0.50839 1.1297c0.27961 0.6213 0.51204 1.1337 0.51649 1.1386 0.0042 0.01 0.1313-0.02 0.28187-0.056 0.57042-0.1354 1.0767-0.1485 1.6041-0.041 0.74659 0.1518 1.3336 0.4683 1.8733 1.01 0.5533 0.5554 0.88781 1.1922 1.0262 1.9534 0.05966 0.328 0.05943 0.9169-0.000419 1.2514-0.29766 1.6637-1.67 2.9035-3.3463 3.0231-1.3261 0.095-2.5998-0.5324-3.3175-1.6336-0.24092-0.3696-0.37745-0.69-0.52996-1.2439-0.0067-0.024-0.17862-0.032-0.74998-0.032-0.4077 0-0.81531-0.012-0.90582-0.026-0.38935-0.062-0.56376-0.2149-1.554-1.3659-0.82274-0.9563-1.305-1.5039-1.8616-2.1138-0.55152-0.6044-1.2769-1.379-1.2844-1.3716-0.0065 0.01-0.26188 0.8042-0.26188 0.8181 0 0.01 0.09389 0.056 0.20865 0.1135 1.0206 0.5132 1.7538 1.5027 1.9577 2.6424 0.05986 0.3346 0.06006 0.9234 0.000424 1.2514-0.13842 0.7613-0.47293 1.398-1.0262 1.9534-0.53549 0.5375-1.1185 0.8535-1.862 1.0092-0.2889 0.061-0.8907 0.087-1.1518 0.052zm0.82441-0.8118c0.41109-0.057 0.83427-0.2183 1.2008-0.4572 0.2069-0.1348 0.61571-0.5406 0.75826-0.7527 0.7595-1.1298 0.64842-2.5678-0.27654-3.5799-0.22724-0.2486-0.83452-0.6675-0.88442-0.61-0.01058 0.012-0.14805 0.438-0.30544 0.9462-0.3248 1.0488-0.50987 1.6035-0.58235 1.7456-0.0732 0.1435-0.16235 0.2037-0.30146 0.2036-0.23222-0.0003-0.38239-0.1609-0.38255-0.4093-0.000102-0.1702 0.06375-0.3985 0.46984-1.6792 0.16335-0.5151 0.30207-0.9664 0.30828-1.0028l0.0113-0.066-0.22387-0.017c-0.96644-0.075-1.9385 0.3927-2.5215 1.2122-0.68368 0.9611-0.69064 2.2558-0.01752 3.2571 0.14255 0.2121 0.55136 0.6179 0.75826 0.7527 0.60045 0.3914 1.3024 0.5527 1.9889 0.4572zm11.797-0.086c1.5435-0.2954 2.5744-1.8435 2.2511-3.3806-0.11848-0.5632-0.36984-1.0197-0.79513-1.4441-0.4613-0.4603-0.9959-0.7245-1.6406-0.8107-0.40682-0.054-1.1984 0.032-1.1765 0.1286 0.0042 0.019 0.2624 0.599 0.57362 1.2893 0.75858 1.6827 0.75581 1.6757 0.74162 1.8468-0.0091 0.1104-0.02511 0.1502-0.07906 0.1966-0.14053 0.1208-0.18346 0.1237-1.7313 0.1148-0.79712-0.01-1.4493 0-1.4493 0.01s0.02989 0.096 0.06647 0.1983c0.32448 0.9033 1.0598 1.5798 1.9752 1.8171 0.4012 0.104 0.85204 0.118 1.2638 0.039zm-1.0271-2.8054c0-0.036-1.0676-2.3608-1.0871-2.3673-0.04071-0.014-0.3015 0.1992-0.49833 0.4064-0.46078 0.4853-0.72019 1.0643-0.78223 1.7461l-0.01776 0.1952 0.24971 0.01c0.3401 0.011 2.1357 0.021 2.1357 0.011zm-3.1773-0.2139c0.07967-0.9316 0.4126-1.6827 1.0301-2.3238 0.13682-0.1421 0.35753-0.3354 0.49047-0.4296 0.13293-0.094 0.2365-0.184 0.23014-0.1994-0.01369-0.034-0.60314-1.3378-0.65095-1.4406-0.02308-0.05-0.03844-0.061-0.05129-0.038-0.01405 0.025-1.3802 3.6003-1.7079 4.4694l-0.05966 0.1582h0.70224l0.0168-0.1962zm-0.596-2.3572c0.48803-1.3119 0.88733-2.394 0.88733-2.4048 0-0.016-6.0609-0.013-6.2117 0.01-0.03408 0.01 0.57984 0.6887 2.1764 2.4285 1.4868 1.6202 2.2299 2.4125 2.2422 2.3906 0.0101-0.018 0.41769-1.1062 0.90572-2.4182z" fill="#fff"/>
  </g>
 </g>
</svg>
