<?xml version="1.0" encoding="UTF-8"?>
<!-- Created with Inkscape (http://www.inkscape.org/) -->
<svg width="24" height="24" version="1.1" viewBox="0 0 24 24" xmlns="http://www.w3.org/2000/svg" xmlns:cc="http://creativecommons.org/ns#" xmlns:dc="http://purl.org/dc/elements/1.1/" xmlns:rdf="http://www.w3.org/1999/02/22-rdf-syntax-ns#" xmlns:xlink="http://www.w3.org/1999/xlink">
 <defs>
  <radialGradient id="radialGradient14151" cx="6.3932" cy="15.165" r="11.932" gradientTransform="matrix(1.4121 -1.1046 1.0703 1.3683 -14.652 5.1167)" gradientUnits="userSpaceOnUse">
   <stop stop-color="#02060d" offset="0"/>
   <stop stop-color="#7aa4e8" offset="1"/>
  </radialGradient>
  <linearGradient id="linearGradient14183" x1="4.3239" x2="30.151" y1="20.621" y2="-6.2656" gradientUnits="userSpaceOnUse">
   <stop stop-color="#f0c300" offset="0"/>
   <stop stop-color="#f1ff6e" offset="1"/>
  </linearGradient>
  <linearGradient id="linearGradient3973" x1="11.906" x2="11.938" y1="23.344" y2="6.4688" gradientUnits="userSpaceOnUse">
   <stop stop-color="#43aecc" offset="0"/>
   <stop stop-color="#e0e0e0" stop-opacity=".96863" offset="1"/>
  </linearGradient>
 </defs>
 <metadata>
  <rdf:RDF>
   <cc:Work rdf:about="">
    <dc:format>image/svg+xml</dc:format>
    <dc:type rdf:resource="http://purl.org/dc/dcmitype/StillImage"/>
    <dc:title/>
   </cc:Work>
  </rdf:RDF>
 </metadata>
 <g>
  <g>
   <path d="m23.932 12a11.932 11.932 0 0 1-11.932 11.932 11.932 11.932 0 0 1-11.932-11.932 11.932 11.932 0 0 1 11.932-11.932 11.932 11.932 0 0 1 11.932 11.932z" color="#000000" color-rendering="auto" fill="url(#radialGradient14151)" fill-rule="evenodd" image-rendering="auto" shape-rendering="auto" solid-color="#000000" style="isolation:auto;mix-blend-mode:normal"/>
   <path d="m12.047 0.0058594c-6.6103-1e-7 -11.979 5.3682-11.979 11.979 0 6.6103 5.3682 11.979 11.979 11.979 6.6103 0 11.979-5.3682 11.979-11.979 0-6.6103-5.3682-11.979-11.979-11.979zm0 0.96289c6.0895 0 11.016 4.9261 11.016 11.016s-4.9261 11.016-11.016 11.016-11.016-4.9261-11.016-11.016c-1e-7 -6.0895 4.9261-11.016 11.016-11.016z" color="#000000" color-rendering="auto" fill="url(#linearGradient14183)" fill-rule="evenodd" image-rendering="auto" opacity=".79202" shape-rendering="auto" solid-color="#000000" style="isolation:auto;mix-blend-mode:normal;text-decoration-color:#000000;text-decoration-line:none;text-decoration-style:solid;text-indent:0;text-transform:none;white-space:normal"/>
   <path d="m4.3973 6.5875 7.0269 8.1759h1.0607l7.4025-8.3085z" fill="#4db3ce"/>
   <circle cx="19.28" cy="6.4328" r="2.8726" fill="#cf0" style="paint-order:stroke fill markers"/>
   <path d="m10.787 23.698c-1.3812-0.11645-2.3824-0.4224-2.3824-0.72801 0-0.06273 0.054198-0.15038 0.13502-0.2184 0.14091-0.11856 0.70525-0.30866 1.0694-0.36022 0.19552-0.02768 0.33973-0.10929 0.33973-0.19223 0-0.08788 0.51279-0.24479 0.95957-0.29363l0.27574-0.03014c-4e-4 -3.0183-8.31e-4 -3.9147-0.0012-6.933l-3.5337-4.0809c-1.9435-2.2445-3.5634-4.1255-3.5998-4.1799-0.089444-0.13369-0.039731-0.31196 0.10204-0.36586 0.069842-0.026554 2.3074-0.042561 5.95-0.042561 5.2829 0 5.8406-0.0066 5.8649-0.069784 0.01474-0.038382 0.02678-0.11362 0.02678-0.1672 0-0.17841 0.13339-0.61962 0.28181-0.93214 0.39293-0.82738 1.0938-1.4209 2.0123-1.7043 0.26308-0.081154 0.43486-0.10228 0.83825-0.10312 0.5896-0.00124 0.85294 0.054571 1.3557 0.2872 1.7995 0.83263 2.4115 3.0159 1.3112 4.6771-0.77861 1.1754-2.3098 1.6975-3.6188 1.2338-0.21651-0.0767-0.43614-0.14302-0.48808-0.14737-0.07387-0.00622-0.62331 0.60204-2.5235 2.7936l-2.4291 2.8015c-0.0014 3.0188-3e-3 3.9156-0.0044 6.9344l0.20956 0.02842c0.54394 0.07377 0.98163 0.23115 0.98163 0.35297 0 0.04059 0.09883 0.07756 0.2978 0.11139 0.469 0.07975 1.0079 0.25796 1.1554 0.38207 0.58435 0.49169-0.82934 0.92753-3.1297 0.9649-0.57023 0.0093-1.2254 0.0011-1.4559-0.01849z" fill="url(#linearGradient3973)" stroke-width=".044118"/>
   <path d="m15.793 10.586 3.2731-3.7831-3.5516-0.011293c-1.9534-0.00622-5.1609-0.00622-7.128 0l-3.5764 0.011293 6.5473 7.5663h1.1625z" fill="#46b0cc" stroke-width=".044118"/>
  </g>
  <path d="m9.9341 11.861c-0.87555-1.013-1.5877-1.8459-1.5826-1.851 0.00507-0.0051 0.16494 0.03875 0.35518 0.09744 0.46143 0.14237 1.3285 0.28649 1.7237 0.28649 0.46211 0 0.74733-0.06535 1.1561-0.26486 0.56471-0.27564 0.8306-0.32355 1.8003-0.32439 0.79439-7.08e-4 1.9321 0.10436 2.0177 0.18629 0.01784 0.01707-0.68394 0.85921-1.5595 1.8714l-1.5919 1.8404h-0.72705z" fill="#cf0" stroke-width=".044118"/>
  <ellipse cx="19.125" cy="6.5" rx="3.2656" ry="3.2344" fill="#aad400" style="paint-order:stroke fill markers"/>
  <path d="m20.007 9.0521c0.72934-0.25828 1.3892-0.91827 1.6459-1.6463 0.13484-0.38238 0.16896-1.1392 0.06896-1.5296-0.31218-1.2185-1.3586-2.0289-2.6227-2.0311-0.73518-0.00134-1.3002 0.23559-1.8398 0.77142-0.39952 0.39671-0.63637 0.79744-0.74586 1.2619-0.11476 0.48684-0.29089 0.43654 1.5315 0.43728 1.7049 6.961e-4 1.8056 0.012354 1.8343 0.21257 0.01997 0.13929-0.0063 0.174-1.0041 1.3275-0.48693 0.56289-0.88533 1.0405-0.88533 1.0613 0 0.037713 0.23645 0.13547 0.52942 0.2189 0.27245 0.077578 1.1757 0.026678 1.4878-0.083841z" fill="#cf0" stroke-width=".044118"/>
 </g>
</svg>
