<svg xmlns="http://www.w3.org/2000/svg" xmlns:xlink="http://www.w3.org/1999/xlink" width="24" height="24" viewBox="0 0 24 24"><defs><linearGradient id="b"><stop offset="0"/><stop offset="1" stop-opacity="0"/></linearGradient><linearGradient id="a"><stop offset="0" stop-color="#1f58b6"/><stop offset="1" stop-color="#7aa4e8"/></linearGradient><radialGradient xlink:href="#a" id="g" cx="6.393" cy="15.165" fx="6.393" fy="15.165" r="11.932" gradientUnits="userSpaceOnUse" gradientTransform="matrix(1.4121 -1.10457 1.0703 1.3683 -14.652 5.117)"/><linearGradient xlink:href="#b" id="h" x1="4.943" y1="20.047" x2="30.151" y2="-6.266" gradientUnits="userSpaceOnUse"/><radialGradient xlink:href="#a" id="c" gradientUnits="userSpaceOnUse" gradientTransform="matrix(1.4121 -1.10457 1.0703 1.3683 -14.652 5.117)" cx="6.393" cy="15.165" fx="6.393" fy="15.165" r="11.932"/><radialGradient xlink:href="#a" id="d" gradientUnits="userSpaceOnUse" gradientTransform="matrix(1.4121 -1.10457 1.0703 1.3683 -14.652 5.117)" cx="6.393" cy="15.165" fx="6.393" fy="15.165" r="11.932"/><radialGradient xlink:href="#a" id="i" gradientUnits="userSpaceOnUse" gradientTransform="matrix(1.75924 -.3452 .33448 1.70467 -8.595 1022.06)" cx="6.393" cy="15.165" fx="6.393" fy="15.165" r="11.932"/><clipPath id="k"><path style="isolation:auto;mix-blend-mode:normal" d="M22.9 12A10.9 10.9 0 0 1 12 22.9 10.9 10.9 0 0 1 1.1 12 10.9 10.9 0 0 1 12 1.1 10.9 10.9 0 0 1 22.9 12z" color="#000" overflow="visible" fill="url(#e)" fill-rule="evenodd" stroke-width="2" stroke-linecap="square" stroke-dashoffset=".85"/></clipPath><radialGradient xlink:href="#a" id="e" gradientUnits="userSpaceOnUse" gradientTransform="matrix(1.29006 -1.0091 .9778 1.25004 -12.348 5.712)" cx="6.393" cy="15.165" fx="6.393" fy="15.165" r="11.932"/><clipPath id="j"><path style="isolation:auto;mix-blend-mode:normal" d="M22.9 12A10.9 10.9 0 0 1 12 22.9 10.9 10.9 0 0 1 1.1 12 10.9 10.9 0 0 1 12 1.1 10.9 10.9 0 0 1 22.9 12z" color="#000" overflow="visible" fill="url(#f)" fill-rule="evenodd" stroke-width="2" stroke-linecap="square" stroke-dashoffset=".85"/></clipPath><radialGradient xlink:href="#a" id="f" gradientUnits="userSpaceOnUse" gradientTransform="matrix(1.29006 -1.0091 .9778 1.25004 -12.348 5.712)" cx="6.393" cy="15.165" fx="6.393" fy="15.165" r="11.932"/></defs><g color="#000" fill-rule="evenodd"><path d="M23.932 12A11.932 11.932 0 0 1 12 23.932 11.932 11.932 0 0 1 .068 12 11.932 11.932 0 0 1 12 .068 11.932 11.932 0 0 1 23.932 12z" style="isolation:auto;mix-blend-mode:normal" overflow="visible" fill="url(#g)"/><path d="M12.047.006C5.437.006.067 5.374.067 11.984c0 6.61 5.37 11.98 11.98 11.98s11.978-5.37 11.978-11.98S18.657.006 12.047.006zm0 .963c6.09 0 11.015 4.925 11.015 11.014 0 6.09-4.926 11.016-11.015 11.016A11.008 11.008 0 0 1 1.03 11.984C1.03 5.894 5.958.97 12.048.97z" style="line-height:normal;text-indent:0;text-align:start;text-decoration-line:none;text-decoration-style:solid;text-decoration-color:#000;text-transform:none;block-progression:tb;isolation:auto;mix-blend-mode:normal" font-weight="400" font-family="sans-serif" white-space="normal" overflow="visible" opacity=".096" fill="url(#h)"/></g><path style="isolation:auto;mix-blend-mode:normal" d="M22.687 1045.67a11.932 11.932 0 0 1-16.043 5.235 11.932 11.932 0 0 1-5.234-16.043 11.932 11.932 0 0 1 16.043-5.233 11.932 11.932 0 0 1 5.234 16.04z" color="#000" overflow="visible" fill="url(#i)" fill-rule="evenodd" transform="translate(0 -1028.362)"/><path transform="rotate(26.932 12.223 12.053)" d="M.016 18.08l24-17.8.062 23.814-24.094-.08z" clip-path="url(#j)" fill="#205abb" fill-rule="evenodd"/><path transform="rotate(26.932 12.223 12.053)" d="M0 19.856l24-12.45.063 16.657-24.094-.057z" clip-path="url(#k)" fill="#174186" fill-rule="evenodd"/><path d="M4.862 19.956c-.092-.023-.173-.144-.172-.257 0-.042.01-.09.018-.105.01-.016.137-.18.285-.365l.322-.403a1073.242 1073.242 0 0 0 2.097-2.615l1.058-1.32a780.402 780.402 0 0 0 .973-1.213l.126-.156.107.047c.11.05.312.098.4.098.028 0 .05.01.05.01 0 .01-.62.784-1.73 2.166-.312.387-.58.724-.6.748-.018.024-.284.357-.592.74a154.394 154.394 0 0 0-.84 1.045l-.382.478c-.21.264-.186.234-.29.36a5.798 5.798 0 0 0-.112.14c-.014.02-.12.154-.236.298-.233.29-.264.315-.385.313-.04 0-.083-.01-.098-.01zm5.225-.015c-.2-.053-.3-.136-.556-.46-.098-.124-.214-.27-.257-.322-.174-.213-.237-.368-.237-.58 0-.063.01-.156.02-.205.038-.162.048-.176.575-.845a607.498 607.498 0 0 0 1.21-1.536c.18-.228.613-.778.66-.84.052-.07.156-.2.278-.354a193.687 193.687 0 0 1 1.22-1.55l.07-.087.024.045a96.134 96.134 0 0 0 .477.896c.022.044.096.183.162.307.17.32.16.286.108.356-.042.057-.448.574-.777.99-.08.1-.246.31-.366.465a25.246 25.246 0 0 1-.448.567c-.032.04-.14.18-.245.312-.24.304-.728.93-.775.992l-.203.252a2.144 2.144 0 0 0-.167.222c0 .01.03.055.066.103a.8.8 0 0 1-.038 1.05.762.762 0 0 1-.4.234 1.11 1.11 0 0 1-.4-.01zm7.537.017a.87.87 0 0 1-.387-.2c-.085-.076-.136-.16-.34-.544-.05-.097-.454-.85-.498-.932a589.315 589.315 0 0 0-1.025-1.917 621.304 621.304 0 0 0-.915-1.71l-.628-1.172c-.025-.046-.114-.21-.196-.365a23.79 23.79 0 0 1-.196-.373c-.094-.188-.09-.116-.09-1.63v-1.36l-.09.11-.207.253-.22.268-.708.87-.44.537a1165.927 1165.927 0 0 1-.835 1.024c-.144.177-.286.273-.464.315a1.07 1.07 0 0 1-.462-.02.87.87 0 0 1-.425-.358.684.684 0 0 1-.098-.39c0-.2.033-.312.138-.462.058-.083.524-.663.595-.74l.192-.235.534-.654c.186-.223.373-.454.564-.69l.236-.287c.062-.074.17-.206.238-.292l.174-.212.115-.14.21-.26c.08-.095.172-.208.207-.252l.326-.4.33-.404c.33-.406.39-.464.522-.53a.814.814 0 0 1 .74.01.848.848 0 0 1 .348.37c.08.17.077.043.077 2.625v2.36l.042.083c.038.078.13.25.35.662l.15.28.21.392a265.962 265.962 0 0 1 .285.533c.006.01.05.09.1.186.05.095.1.19.114.213l.112.213.12.226c.017.03.15.274.294.545l.547 1.027a299.924 299.924 0 0 0 .67 1.25c.175.332.204.388.208.393.004.01.05-.01.106-.016a.648.648 0 0 1 .358.01.814.814 0 0 1 .588.566c.032.107.032.306 0 .413a.828.828 0 0 1-.54.563l-.38.143-.306.115-.16.01a.496.496 0 0 1-.193-.01zm-5.228-.837a.263.263 0 0 1-.15-.25c0-.07.035-.135.163-.294.18-.222.892-1.11 1.524-1.9.325-.406.597-.74.604-.74.013 0 .095.145.218.384l.06.116-.53.663c-.293.363-.595.738-.67.833-.077.095-.155.19-.173.215a52.91 52.91 0 0 1-.75.928.314.314 0 0 1-.183.077.307.307 0 0 1-.114-.033zm4.088-5.182a31.4 31.4 0 0 1-.136-.26 3.63 3.63 0 0 1 .246-.32c.137-.17.43-.533.647-.806.22-.273.4-.496.403-.496l.115.052c.12.055.206.083.342.11l.084.017-.224.28a1409.47 1409.47 0 0 0-1.327 1.654c-.013.013-.044-.036-.15-.233zm1.606-2.26c-.128-.037-.2-.083-.52-.328a127.407 127.407 0 0 0-.752-.574c-.05-.04-.168-.13-.26-.198a120.208 120.208 0 0 0-1.03-.785l-.06-.047V8.744c0-.55.003-1.002.008-1.002.004 0 .057.038.116.084l.283.216.28.213.252.193A116.1 116.1 0 0 1 17.13 9l.367.28.472.36c.163.124.32.244.346.266.028.02.142.11.254.193.333.25.402.32.48.485a.75.75 0 0 1 .06.383.746.746 0 0 1-.364.622.816.816 0 0 1-.656.09zm-4.003-5.513a1.61 1.61 0 0 1-1.057-.708 1.682 1.682 0 0 1-.215-.49c-.025-.093-.03-.143-.03-.367 0-.3.015-.384.116-.628a1.63 1.63 0 0 1 .695-.776c.13-.073.35-.15.49-.173a2.11 2.11 0 0 1 .57 0c.557.097 1.05.524 1.225 1.06.066.202.083.335.075.57a1.298 1.298 0 0 1-.04.334 1.602 1.602 0 0 1-1.27 1.178c-.138.024-.426.024-.558 0z" fill="#fff"/></svg>