<svg xmlns="http://www.w3.org/2000/svg" xmlns:xlink="http://www.w3.org/1999/xlink" width="24" height="24" viewBox="0 0 24 24"><defs><radialGradient xlink:href="#a" id="c" cx="6.393" cy="15.165" fx="6.393" fy="15.165" r="11.932" gradientUnits="userSpaceOnUse" gradientTransform="matrix(1.4121 -1.10457 1.0703 1.3683 -14.652 5.117)"/><linearGradient id="a"><stop offset="0" stop-color="#1f58b6"/><stop offset="1" stop-color="#7aa4e8"/></linearGradient><linearGradient xlink:href="#b" id="d" x1="4.943" y1="20.047" x2="30.151" y2="-6.266" gradientUnits="userSpaceOnUse"/><linearGradient id="b"><stop offset="0"/><stop offset="1" stop-opacity="0"/></linearGradient><clipPath id="f"><circle style="isolation:auto;mix-blend-mode:normal" cx="11.987" cy="1040.402" r="11.059" color="#000" overflow="visible" fill="red" stroke-opacity=".428"/></clipPath><clipPath id="e"><circle style="isolation:auto;mix-blend-mode:normal" cx="11.987" cy="1040.402" r="11.059" color="#000" overflow="visible" fill="red" stroke-opacity=".428"/></clipPath></defs><circle style="isolation:auto;mix-blend-mode:normal" cx="12" cy="12" r="11.932" color="#000" overflow="visible" fill="#4f86e1" fill-rule="evenodd"/><g transform="translate(0 -1028.362)"><g color="#000" fill-rule="evenodd"><path d="M23.932 12A11.932 11.932 0 0 1 12 23.932 11.932 11.932 0 0 1 .068 12 11.932 11.932 0 0 1 12 .068 11.932 11.932 0 0 1 23.932 12z" style="isolation:auto;mix-blend-mode:normal" overflow="visible" fill="url(#c)" transform="translate(-.046 1028.378)"/><path d="M12.047.006C5.437.006.067 5.374.067 11.984c0 6.61 5.37 11.98 11.98 11.98s11.978-5.37 11.978-11.98S18.657.006 12.047.006zm0 .963c6.09 0 11.015 4.925 11.015 11.014 0 6.09-4.926 11.016-11.015 11.016A11.008 11.008 0 0 1 1.03 11.984C1.03 5.894 5.958.97 12.048.97z" style="line-height:normal;text-indent:0;text-align:start;text-decoration-line:none;text-decoration-style:solid;text-decoration-color:#000;text-transform:none;block-progression:tb;isolation:auto;mix-blend-mode:normal" font-weight="400" font-family="sans-serif" white-space="normal" overflow="visible" opacity=".096" fill="url(#d)" transform="translate(-.046 1028.378)"/></g><ellipse style="isolation:auto;mix-blend-mode:normal" cx="12.138" cy="1051.351" rx="17.532" ry="11.126" clip-path="url(#e)" color="#000" overflow="visible" fill="#1a4896"/><path d="M5.04 1050.236c0-.325.14-2.493.192-2.966l.02-.186-.5-.02-.502-.02-.02-.1c-.034-.174.01-1.695.06-2.04.242-1.697.748-3.322 1.48-4.76.323-.628.574-1.04.905-1.48.42-.563 1.58-1.934 1.725-2.043.28-.208.45-.383.468-.483a2.01 2.01 0 0 0-.014-.392c-.027-.243-.026-.33.01-.492.144-.668.744-1.136 1.455-1.136.288 0 .524.06.764.198.61.347.89 1.064.666 1.696-.167.473-.65.874-1.117.93a.833.833 0 0 0-.262.07c-.137.086-.53.963-.626 1.397a1.71 1.71 0 0 0 .155 1.14c.126.23.48.556.74.68l.22.105.062-.292c.212-.974.767-2.064 1.508-2.958.654-.79 1.6-1.527 2.452-1.905l.216-.096v-.15c.002-.24.076-.575.172-.772.217-.446.627-.685 1.266-.736.393-.032.77.115 1.1.425.424.403.532.948.29 1.475-.075.164-.326.44-.468.513-.275.143-.338.156-.777.16-.418 0-.425.01-.46.072-.048.09-.047.344.003.52.022.077.112.313.2.523.09.21.172.42.183.466.04.164.35.823.58 1.24.406.734.706 1.13 1.38 1.823.597.615 1.05 1.008 1.496 1.296.337.217.413.374.277.57a.8.8 0 0 1-.184.17l-.116.076-.505 2.875c-.278 1.582-.574 3.268-.66 3.747l-.152.87-.163-.018a.955.955 0 0 1-.195-.038c-.022-.013.174-1.19.62-3.732.6-3.4.65-3.716.607-3.748a.19.19 0 0 0-.076-.036c-.015 0-.13-.07-.258-.156l-.232-.156-.03.078-.042.113c-.016.044-.058.044-.248.01-.14-.028-.147-.034-.13-.104.01-.042.043-.132.074-.2.03-.07.045-.134.033-.144l-.213-.156c-.342-.245-.77-.61-1.19-1.014-.58-.56-.85-.872-1.518-1.745-.166-.217-.28-.304-.404-.304-.128 0-.478.444-.724.92a7.116 7.116 0 0 0-.575 1.698 8.33 8.33 0 0 0-.082 1.746c.035.506.21 1.558.402 2.428.254 1.15.552 2.706.615 3.214.027.215.065.442.084.506l.033.115.44.134c.684.212.88.354.715.522l-.066.068h-2.247l-.03-.106c-.015-.058-.074-.33-.13-.606a15.533 15.533 0 0 0-.576-1.984c-.178-.504-.487-1.28-.524-1.32-.01-.012-.037.236-.058.55-.064.98-.177 1.77-.34 2.39-.088.33-.104.31.362.51.183.078.372.17.42.203.108.075.176.216.138.285-.06.11-.19.115-2.48.093l-2.203-.02-.033-.07a1.84 1.84 0 0 1-.077-.27 1.48 1.48 0 0 0-.09-.287c-.114-.215-.69-1.818-.848-2.365l-.047-.162h-.364c-.354 0-.364 0-.377.064-.07.342-.194.8-.33 1.22-.172.532-.304.988-.304 1.052 0 .056.154.134.6.303.535.202.667.278.655.374a.21.21 0 0 1-.08.125c-.068.047-.17.054-1.137.07l-1.063.02v-.068zm5.42-.442c.14-.114.262-.623.4-1.662.162-1.244.224-2.313.164-2.85-.034-.3-.165-1.117-.314-1.96-.057-.32-.076-.555-.09-1.064l-.016-.653-.145-.02c-.29-.036-.643-.238-1.066-.61-.243-.21-.31-.233-.432-.14-.116.088-.184.265-.266.692-.15.773-.18 1.064-.178 1.723.003.8.055 1.16.432 2.993.087.42.152.772.145.783-.007.012-.09.02-.185.02h-.174l.018.093.163.77c.08.372.18.86.225 1.086l.08.41.555.217c.306.12.57.218.59.22.017 0 .06-.022.093-.05z" clip-path="url(#f)" transform="matrix(1 0 0 .86515 0 139.855)" fill="#133671"/><path d="M5.092 1048.446c0-.325.14-2.493.192-2.966l.02-.186-.5-.02-.502-.02-.02-.1c-.034-.174.01-1.695.06-2.04.242-1.698.748-3.322 1.48-4.76.322-.628.573-1.04.904-1.48.422-.563 1.58-1.934 1.725-2.043.28-.208.45-.384.47-.483a2.01 2.01 0 0 0-.014-.392c-.028-.243-.026-.33.01-.492.143-.668.743-1.136 1.455-1.136.29 0 .526.06.766.198.61.347.89 1.064.666 1.696-.167.473-.65.874-1.117.93a.833.833 0 0 0-.263.07c-.137.086-.53.963-.626 1.397a1.71 1.71 0 0 0 .155 1.14c.127.23.483.556.74.68l.22.105.064-.292c.212-.974.767-2.064 1.507-2.958.656-.79 1.603-1.527 2.454-1.905l.215-.096v-.15c.002-.24.076-.575.172-.772.217-.446.627-.685 1.266-.736.393-.032.77.115 1.1.425.424.403.532.948.29 1.475-.075.164-.326.44-.468.513-.275.143-.34.156-.777.16-.42 0-.426.01-.462.072-.047.09-.045.344.005.52.02.077.112.313.2.523.09.21.172.42.183.466.04.164.348.823.58 1.24.406.734.706 1.13 1.38 1.823.596.615 1.05 1.008 1.496 1.296.337.217.413.374.276.57a.8.8 0 0 1-.182.17l-.117.076-.504 2.875-.658 3.747-.154.87-.163-.018a.955.955 0 0 1-.194-.038c-.022-.013.175-1.19.622-3.732.6-3.4.65-3.716.606-3.748a.19.19 0 0 0-.076-.036c-.015 0-.13-.07-.26-.156l-.23-.156-.03.078-.043.113c-.015.044-.057.044-.248.01-.14-.028-.147-.034-.13-.104.01-.042.044-.132.075-.2.03-.07.045-.134.033-.144l-.214-.156c-.34-.245-.768-.61-1.187-1.014-.58-.56-.852-.872-1.52-1.745-.165-.217-.28-.304-.403-.304-.128 0-.478.444-.725.92a7.116 7.116 0 0 0-.574 1.698 8.33 8.33 0 0 0-.08 1.746c.035.506.21 1.558.4 2.428.256 1.15.554 2.706.617 3.214.027.215.064.442.083.505l.035.116.44.134c.684.212.88.354.714.522l-.067.068H14.01l-.03-.106c-.015-.058-.074-.33-.13-.606a15.533 15.533 0 0 0-.576-1.984c-.18-.504-.487-1.28-.525-1.32-.01-.012-.036.236-.057.55-.064.98-.177 1.77-.34 2.39-.088.33-.104.31.36.51.184.078.374.17.422.203.108.075.176.216.137.285-.06.11-.19.115-2.48.093l-2.203-.02-.034-.07a1.84 1.84 0 0 1-.077-.27 1.48 1.48 0 0 0-.09-.287c-.114-.215-.688-1.818-.847-2.365l-.048-.162h-.364c-.354 0-.364 0-.377.064-.07.342-.192.8-.328 1.22-.172.532-.304.988-.304 1.052 0 .056.154.134.6.303.535.202.667.278.655.374a.21.21 0 0 1-.082.125c-.066.047-.167.054-1.135.07l-1.063.02v-.068zm5.42-.442c.14-.114.262-.623.398-1.662.164-1.244.226-2.314.166-2.85-.034-.3-.165-1.117-.314-1.96-.057-.32-.077-.555-.09-1.064l-.016-.653-.145-.02c-.288-.036-.64-.238-1.065-.61-.242-.21-.31-.233-.43-.14-.117.088-.185.265-.268.692-.15.773-.18 1.064-.177 1.723.002.8.054 1.16.432 2.993.086.42.152.772.145.783-.007.012-.09.02-.186.02H8.79l.018.093.162.77c.08.372.18.86.225 1.086l.08.41.556.217c.305.12.57.218.588.22.018 0 .06-.022.094-.05z" fill="#fff"/></g></svg>