<svg xmlns="http://www.w3.org/2000/svg" xmlns:xlink="http://www.w3.org/1999/xlink" width="24" height="24" viewBox="0 0 24 24"><defs><linearGradient id="a"><stop offset="0" stop-color="#7c05fc" stop-opacity=".996"/><stop offset="1" stop-color="#e244fe" stop-opacity=".996"/></linearGradient><linearGradient id="b"><stop offset="0"/><stop offset="1" stop-opacity="0"/></linearGradient><linearGradient id="d"><stop offset="0" stop-color="#1f58b6"/><stop offset="1" stop-color="#7aa4e8"/></linearGradient><radialGradient xlink:href="#a" id="f" cx="6.393" cy="15.165" fx="6.393" fy="15.165" r="11.932" gradientUnits="userSpaceOnUse" gradientTransform="matrix(1.4121 -1.10457 1.0703 1.3683 -14.652 5.117)"/><linearGradient xlink:href="#b" id="g" x1="4.943" y1="20.047" x2="30.151" y2="-6.266" gradientUnits="userSpaceOnUse"/><radialGradient xlink:href="#d" id="c" gradientUnits="userSpaceOnUse" gradientTransform="matrix(1.4121 -1.10457 1.0703 1.3683 -14.652 5.117)" cx="6.393" cy="15.165" fx="6.393" fy="15.165" r="11.932"/><radialGradient xlink:href="#d" id="e" gradientUnits="userSpaceOnUse" gradientTransform="matrix(1.4121 -1.10457 1.0703 1.3683 -14.652 5.117)" cx="6.393" cy="15.165" fx="6.393" fy="15.165" r="11.932"/><clipPath id="h"><circle style="isolation:auto;mix-blend-mode:normal" cx="12" cy="1040.362" r="10.906" color="#000" overflow="visible" fill="#405" stroke-width="3" stroke-linejoin="round"/></clipPath></defs><g color="#000" fill-rule="evenodd"><path d="M23.932 12A11.932 11.932 0 0 1 12 23.932 11.932 11.932 0 0 1 .068 12 11.932 11.932 0 0 1 12 .068 11.932 11.932 0 0 1 23.932 12z" style="isolation:auto;mix-blend-mode:normal" overflow="visible" fill="url(#f)"/><path d="M12.047.006C5.437.006.067 5.374.067 11.984c0 6.61 5.37 11.98 11.98 11.98s11.978-5.37 11.978-11.98S18.657.006 12.047.006zm0 .963c6.09 0 11.015 4.925 11.015 11.014 0 6.09-4.926 11.016-11.015 11.016A11.008 11.008 0 0 1 1.03 11.984C1.03 5.894 5.958.97 12.048.97z" style="line-height:normal;text-indent:0;text-align:start;text-decoration-line:none;text-decoration-style:solid;text-decoration-color:#000;text-transform:none;block-progression:tb;isolation:auto;mix-blend-mode:normal" font-weight="400" font-family="sans-serif" white-space="normal" overflow="visible" opacity=".096" fill="url(#g)"/></g><path d="M10.117 1036.49c-.203 0-.25.01-.46.11-.545.252-1.05.9-1.32 1.697-.438 1.28-.17 2.44.61 2.645.123.033.253.03.39.01l.5.06c-.098.018-.09.023.177.055l1.982.238c.926.113 1.705.21 1.73.21.01 0 .035-.03.05-.038l.804.095c-.007.022-.035.06-.025.065.006 0 .198.026.283.04h-.006c.19.026.445.06.44.07l-1.864 3.7c-1.383 2.747-1.85 3.7-1.85 3.776 0 .21.227.43.442.43.08 0 .267-.07.332-.126.026-.023.71-1.357 1.52-2.968l1.476-2.93.014 3.258c.014 3.02.018 3.26.066 3.343a.52.52 0 0 0 .278.216v-.01a.495.495 0 0 0 .503-.19c.06-.076.06-.097.076-3.363l.015-3.288 1.222 2.43c1.893 3.768 1.742 3.487 1.898 3.558.163.08.242.08.405.01a.38.38 0 0 0 .246-.366c0-.108-.084-.3-.546-1.218-2.453-4.88-3.083-6.13-3.084-6.145l1.12.14h.007c.16.02.2.023.447.053 1.013.124.945.12.945.07 0-.01.025-.027.033-.04l.713.085c-.02.027-.055.08-.053.08.004 0 .665.08 1.47.18.802.096 1.462.18 1.467.18.005 0 .1-.085.21-.19.234-.223.378-.47.495-.855.094-.305.126-.678.075-.855a.958.958 0 0 1-.036-.227v-.1l-1.392-.425c-.766-.232-1.4-.422-1.408-.422l-1.14-.343c-.11-.037-.085-.04-.265-.095l-2.106-.642-1.416-.43v.024l-.693-.21c-.115-.12-.453-.205-1.5-.524a827.02 827.02 0 0 0-1.913-.58l-.41-.124.145.12-.063-.018-.504-.07a.885.885 0 0 0-.533-.165z" clip-path="url(#h)" fill="#405" transform="translate(0 -1028.362)"/><g transform="translate(-26.625 -1054.362)"><path d="M42.698 1067.28h-.006l-1.967-.263-.035.018c.19.03.445.064.44.076l-1.864 3.943c-1.383 2.924-1.85 3.94-1.85 4.02 0 .222.227.458.442.458.08 0 .267-.075.332-.134.026-.024.71-1.445 1.522-3.16l1.474-3.12.014 3.47c.014 3.218.018 3.472.066 3.56.055.1.178.2.278.23v-.01c.18.048.376-.03.504-.202.06-.082.06-.104.076-3.582l.016-3.502 1.22 2.588c1.893 4.012 1.742 3.713 1.9 3.79.16.084.24.085.403.01a.404.404 0 0 0 .246-.39c0-.115-.086-.319-.548-1.297-2.456-5.202-3.088-6.538-3.088-6.55l.424.05z" fill="#b3b3b3"/><path d="M36.13 1061.632l.883.13 12.153 3.897-.75 2.27-13.57-1.714z" fill="gray" fill-rule="evenodd"/><path d="M41.446 1063.157l-.017.512c-.01.28-.042.634-.07.786-.163.9-.508 1.825-.89 2.386-.057.083-.077.137-.057.15.018.01.348.06.734.106.162.02.143.026.25.043l.036-.016 1.966.264h.005c.16.02.2.023.448.055 1.012.132.945.126.945.076 0-.022.05-.086.107-.142.367-.352.74-1.314.815-2.09.025-.267.007-.598-.04-.718-.016-.036-.228-.117-.712-.274-.38-.122-1.327-.43-2.106-.683l-1.416-.46zm4.926 1.603c-.008 0-.023.163-.033.364-.042.83-.33 1.756-.737 2.35a1.517 1.517 0 0 0-.112.177c.005.002.667.088 1.47.192.803.104 1.464.194 1.47.194.004 0 .1-.09.21-.203.232-.237.376-.502.494-.91.093-.325.126-.723.074-.91a1.078 1.078 0 0 1-.035-.243v-.107l-1.393-.452c-.766-.247-1.4-.45-1.408-.45zM35.976 1061.513c-.204 0-.25.01-.46.115-.546.27-1.05.96-1.322 1.81-.436 1.363-.168 2.596.612 2.815.22.062.455.028.716-.098.54-.26 1.082-1.035 1.336-1.914.133-.457.17-.75.155-1.24-.012-.388-.024-.48-.094-.683-.187-.542-.49-.806-.944-.806z" fill="#f9f9f9"/><path d="M36.93 1061.652l.15.132c.297.268.446.725.446 1.364 0 .455-.06.827-.21 1.273-.337 1.026-.984 1.788-1.608 1.9-.13.024-.124.026.164.062.164.02 1.056.134 1.982.254.927.12 1.706.222 1.73.222.066 0 .237-.185.4-.44.515-.802.9-2.216.84-3.09-.033-.478.155-.367-1.57-.927a728.42 728.42 0 0 0-1.913-.618l-.41-.13z" fill="#f9f9f9"/><path d="M35.923 1061.826c-.177 0-.218.01-.4.1-.474.234-.912.834-1.148 1.57-.38 1.186-.146 2.257.53 2.448.192.054.397.024.624-.085.467-.226.938-.9 1.16-1.664.115-.398.146-.653.134-1.08-.01-.335-.02-.415-.082-.59-.16-.473-.426-.702-.82-.702z"/><ellipse transform="rotate(18.508)" ry=".848" rx=".492" cy="997.248" cx="370.945" style="isolation:auto;mix-blend-mode:normal" color="#000" overflow="visible" fill="#fff"/></g><path style="isolation:auto;mix-blend-mode:normal" d="M12.318 5.267l-1.18-.892-1.202.858.183-1.466-1.345-.613 1.36-.575-.14-1.472L11.173 2l1.203-.858-.183 1.466 1.345.613-1.362.576zM6.958 7.002l-.995-.57-.842.778-.002-1.147-1.095-.34.99-.575-.252-1.12.996.572.84-.78.005 1.148 1.096.34-.992.576zM4.884 11.853l-.825-.32-.554.69-.134-.876-.876-.134.69-.553-.32-.825.825.32.554-.69.134.875.876.134-.69.554z" color="#000" overflow="visible" fill="#fea"/></svg>