<svg xmlns="http://www.w3.org/2000/svg" xmlns:xlink="http://www.w3.org/1999/xlink" width="24" height="24" viewBox="0 0 24 24"><defs><linearGradient id="b"><stop offset="0" stop-color="#1f58b6"/><stop offset="1" stop-color="#7aa4e8"/></linearGradient><radialGradient xlink:href="#b" id="a" gradientUnits="userSpaceOnUse" gradientTransform="matrix(1.4121 -1.10457 1.0703 1.3683 -14.652 5.117)" cx="6.393" cy="15.165" fx="6.393" fy="15.165" r="11.932"/><radialGradient xlink:href="#b" id="c" gradientUnits="userSpaceOnUse" gradientTransform="matrix(1.4121 -1.10457 1.0703 1.3683 -14.652 5.117)" cx="6.393" cy="15.165" fx="6.393" fy="15.165" r="11.932"/></defs><path d="M24 24H0V0h24v24z" fill="#fcd30e"/><path d="M2.116 23.738c-.23-.044-.455-.118-.5-.163-.138-.138-.16-19.05-.022-19.306.116-.218.21-.224 2.82-.192l2.7.033-.372-.74c-.614-1.223-.51-1.342.853-.988 1.22.316 2.287.873 3.084 1.61.572.53.654.577.61.34-.052-.265-.03-.276.508-.276.31 0 .593.05.63.11.126.202.25.117.316-.213.126-.628.536-1.32 1.13-1.91.602-.594 2.513-1.88 2.797-1.88.313 0 .047 2.174-.413 3.385-.118.31-.214.574-.215.587 0 .014.08-.006.178-.043.25-.096.563-.884.778-1.957.1-.503.208-.94.238-.97.097-.1-.1 1.553-.257 2.142-.083.314-.124.6-.09.632.033.033 1.228.075 2.655.093 2.217.03 2.616.06 2.742.212.12.145.154 1.975.18 9.695l.032 9.516-.24.195c-.223.183-.857.194-9.982.182-5.36-.007-9.932-.05-10.162-.094zM12.8 6.968l.45-.203-.326-.194c-.278-.163-.328-.262-.328-.644 0-.39-.023-.433-.167-.314-.134.11-.2.11-.334 0-.106-.088-.062.092.122.494.16.348.272.647.25.666-.02.018-.19.113-.372.21l-.334.178.294.004c.16.003.496-.086.744-.197zm-3.26-.663c-.49-.26-1.085-.716-1.6-1.227-.45-.45-.712-.667-.583-.486.542.76 2.372 2.127 2.85 2.126.06 0-.24-.186-.668-.413zm5.566-.752c.313-.308.63-.67.7-.806.21-.393.08-.287-.3.244-.195.27-.616.68-.937.91-.76.544-.9.683-.42.423.213-.116.643-.463.956-.77z" fill="#fefbe7"/><path d="M1.775 23.438c-.04-.04-.074-4.364-.074-9.605 0-8.59.018-9.538.176-9.6.097-.036 1.227-.066 2.51-.066h2.337l.35.417c.72.854 1.567 1.58 2.285 1.958.784.412 2.184.85 2.72.85.177 0 .828-.248 1.448-.55 1.226-.595 1.87-1.137 2.482-2.092l.375-.583h2.748c1.513.002 2.812.043 2.89.092.11.07.133 2.072.11 9.642l-.028 9.554-10.126.028c-5.57.016-10.16-.005-10.2-.046zm10.244-1.515c.592-.507 1.34-1.137 1.66-1.4.617-.506.692-.646.41-.754-.117-.046-.368.125-.746.505-.79.795-1.574 1.163-2.423 1.137-.604-.018-.83.09-.548.265.062.038.112.22.112.403 0 .38.173.764.344.764.063 0 .6-.414 1.19-.92zM8.593 19.14c0-.445.054-.38-1.695-2.074-1.376-1.332-1.427-1.37-1.717-1.237l-.298.135 1.77 1.772c.973.975 1.807 1.772 1.854 1.772.045 0 .084-.166.084-.37zm8.336-1.19c2.076-1.655 3.893-3.58 3.893-4.127 0-.344-.27-.23-.503.21-.314.595-2.474 2.718-3.75 3.685-1.067.81-1.156.903-1.01 1.05.14.14.25.073 1.37-.82zm-7.375-1.887c.26-.765.474-1.453.478-1.53.01-.24-.275-.15-.604.193-.265.276-.33.457-.383 1.08-.06.693-.09.762-.398.92-.4.204-.5.325-.426.515.062.163.32.254.642.23.174-.014.31-.29.69-1.407zm-4.708-.79c.088-.14-.035-.4-.56-1.185-.568-.85-.82-1.362-1.2-2.454-.074-.21-.324-.1-.362.16-.044.293 1.023 2.865 1.386 3.34.305.398.545.443.737.138zm3.28-.638c.624-.964 1.56-1.446 3.018-1.557.74-.057.95-.11.95-.24 0-.118-.16-.182-.555-.222-.552-.055-.558-.06-.86-.695-.168-.35-.346-.638-.395-.638-.05 0-.315.388-.59.862-.413.71-.608.926-1.106 1.225-.796.477-1.353 1.41-1.034 1.73.14.14.223.072.57-.465zm6.025-2.51c.946-.34 1.053-.407 1.026-.636-.05-.413-.34-.764-.63-.764-.146 0-.67.155-1.164.343-.887.338-.9.348-.9.73 0 .51.185.844.424.767a82.48 82.48 0 0 0 1.244-.442zm3.662-.824c.108-.262.102-.398-.035-.726-.156-.37-.207-.404-.624-.404-.295 0-.475.057-.516.162-.083.217.14.868.417 1.22.27.343.55.25.757-.25zm4.01-.83c0-1.79-.932-3.332-2.41-3.99-.67-.298-2.005-.39-2.955-.205-1.567.306-3.38 1.452-4.706 2.972-.8.918-.88 1.13-.39 1.06.244-.036.353.01.448.186.166.31.3.295.384-.043.113-.448.706-1.03 1.267-1.24.287-.11.753-.362 1.035-.563.775-.552 1.597-.874 2.905-1.14 1.703-.344 2.228-.182 3.072.947.63.84.766 1.137.893 1.925.06.374.14.73.178.792.18.29.278.038.278-.702zm-19.036.305c.17-.118.247-.287.247-.536 0-.93.694-2.046 1.593-2.56 1.49-.85 3.973-.616 6.344.6.88.452 1.107.486.886.134C11.692 8.15 9.385 7 8.316 6.65c-.73-.24-1.11-.294-2.113-.3-1.122-.01-1.28.016-1.923.31-1.315.603-2.104 1.842-2.22 3.483-.054.793-.05.806.213.806.147 0 .38-.08.515-.175zm7.856-4.144a6.498 6.498 0 0 1-2.75-1.79C7.21 4.1 6.363 2.572 6.537 2.396c.178-.177 1.555.18 2.578.668a6.08 6.08 0 0 1 2.767 2.697c.44.855.457 1.07.066.862-.19-.103-.214-.09-.164.102.077.293-.062.28-1.142-.095zm2.508-.365c0-.196-.028-.212-.166-.098-.257.214-.32-.102-.245-1.25.117-1.797.866-2.85 2.903-4.08.512-.31.968-.56 1.015-.56.132 0-.035 1.424-.282 2.393-.42 1.65-1.076 2.636-2.265 3.405-.75.485-.958.527-.958.19zm-1.365-1.44c-.17-.247-.28-.495-.244-.553.094-.152.562-.13.69.034.115.145.058.976-.066.968-.04-.002-.21-.205-.38-.45z" fill="#fcd30e"/><path d="M10.066 21.26c-.502-.16-1.208-.96-1.366-1.545-.15-.557-.076-1.283.18-1.777.424-.823 1.624-1.798 2.715-2.21.543-.203.596-.272.442-.57-.562-1.09-1.782-1.293-2.605-.434-.267.28-.33.457-.385 1.086l-.064.753-.5.246c-.276.134-.56.246-.63.25-.347.01-.288-1.386.09-2.134.697-1.386 2.626-2.187 4.095-1.7.92.307 1.312.788 1.996 2.455.762 1.856 1.147 2.615 1.575 3.102.19.217.32.46.288.543-.032.082-.362.263-.734.402-.62.232-.698.24-.937.083-.252-.165-.282-.15-.85.428-1.024 1.045-2.153 1.394-3.31 1.022zm2.834-1.49c.787-.635.79-.693.138-2.234-.455-1.073-.623-1.362-.792-1.362-.656 0-1.867 1.08-2.106 1.88-.16.532-.028 1.124.36 1.616.324.414.6.51 1.344.47.514-.027.718-.098 1.056-.37zm-9.177-1.067c-.367-.87-.974-2.322-1.35-3.223l-.68-1.64.032-1.295c.024-1.012.068-1.315.198-1.387.092-.05.717-.323 1.39-.606 2.407-1.01 3.866-.745 4.676.855.747 1.475-.02 3.084-1.93 4.042-.322.162-.76.322-.972.357-.338.055-.386.034-.386-.173 0-.157.158-.333.473-.528 1.48-.917 1.89-2.02 1.2-3.224-.423-.74-.907-.985-1.774-.902-.826.08-1.9.56-1.9.848 0 .12.332 1.008.737 1.975 1.782 4.263 2.377 5.72 2.377 5.826 0 .114-1.064.654-1.296.656-.07 0-.428-.712-.795-1.583zM17.2 16.09c-.067-.046-.597-1.234-1.177-2.64-.92-2.227-1.103-2.59-1.424-2.807-.97-.66-2.235.104-2.086 1.257.03.24.095.557.14.7.078.24.06.256-.18.18-.147-.048-.542-.116-.88-.153l-.61-.066-.303-.634c-.52-1.09-.517-1.166.042-1.42.62-.28.946-.282 1.096-.002.16.297.295.28.377-.047.104-.414.62-.963 1.12-1.19.623-.283 1.66-.275 2.206.017.47.25.633.213.635-.15.004-.47.477-1.096 1.095-1.444 1.027-.577 2.343-.408 2.93.376.11.15.6 1.22 1.09 2.383.833 1.985.886 2.16.887 2.922v.812l-.404.17c-.293.12-.437.134-.528.046-.068-.068-.6-1.257-1.18-2.645-.927-2.21-1.104-2.553-1.435-2.776-.667-.45-1.402-.29-1.88.414-.338.5-.292.85.288 2.222 1.077 2.545 1.58 3.786 1.58 3.89 0 .083-1.137.682-1.263.666a1.14 1.14 0 0 1-.135-.083zm-6.556-9.46a6.498 6.498 0 0 1-2.75-1.79C7.21 4.1 6.363 2.572 6.537 2.396c.178-.177 1.555.18 2.578.668a6.08 6.08 0 0 1 2.767 2.697c.44.855.457 1.07.066.862-.19-.103-.214-.09-.164.102.077.293-.062.28-1.142-.095zm2.508-.365c0-.196-.028-.212-.166-.098-.257.214-.32-.102-.245-1.25.117-1.797.866-2.85 2.903-4.08.512-.31.968-.56 1.015-.56.132 0-.035 1.424-.282 2.393-.42 1.65-1.076 2.636-2.265 3.405-.75.485-.958.527-.958.19z" fill="#ed3d24"/><path d="M10.644 6.63a6.498 6.498 0 0 1-2.75-1.79C7.21 4.1 6.363 2.572 6.537 2.396c.178-.177 1.555.18 2.578.668a6.08 6.08 0 0 1 2.767 2.697c.44.855.457 1.07.066.862-.19-.103-.214-.09-.164.102.077.293-.062.28-1.142-.095zm2.508-.365c0-.196-.028-.212-.166-.098-.257.214-.32-.102-.245-1.25.117-1.797.866-2.85 2.903-4.08.512-.31.968-.56 1.015-.56.132 0-.035 1.424-.282 2.393-.42 1.65-1.076 2.636-2.265 3.405-.75.485-.958.527-.958.19z" fill="#099157"/><path style="isolation:auto;mix-blend-mode:normal" color="#000" overflow="visible" fill="#fcd30e" d="M22.086 3.84h1.6v20.058h-1.6zM.184 3.706h1.598v20.058H.184z"/><path style="isolation:auto;mix-blend-mode:normal" color="#000" overflow="visible" fill="#fcd30e" d="M22.22 23.14v.655H1.772v-.655zM23.275 3.798v.656h-6.372v-.656zM6.74 3.675v.656H.554v-.655z"/></svg>