<svg xmlns="http://www.w3.org/2000/svg" xmlns:xlink="http://www.w3.org/1999/xlink" width="24" height="24" viewBox="0 0 24 24"><defs><linearGradient id="b"><stop offset="0"/><stop offset="1" stop-opacity="0"/></linearGradient><linearGradient id="a"><stop offset="0" stop-color="#1f58b6"/><stop offset="1" stop-color="#7aa4e8"/></linearGradient><radialGradient xlink:href="#a" id="e" cx="6.393" cy="15.165" fx="6.393" fy="15.165" r="11.932" gradientUnits="userSpaceOnUse" gradientTransform="matrix(1.4121 -1.10457 1.0703 1.3683 -14.652 5.117)"/><linearGradient xlink:href="#b" id="f" x1="4.943" y1="20.047" x2="30.151" y2="-6.266" gradientUnits="userSpaceOnUse"/><radialGradient xlink:href="#a" id="c" gradientUnits="userSpaceOnUse" gradientTransform="matrix(1.4121 -1.10457 1.0703 1.3683 -14.652 5.117)" cx="6.393" cy="15.165" fx="6.393" fy="15.165" r="11.932"/><radialGradient xlink:href="#a" id="d" gradientUnits="userSpaceOnUse" gradientTransform="matrix(1.4121 -1.10457 1.0703 1.3683 -14.652 5.117)" cx="6.393" cy="15.165" fx="6.393" fy="15.165" r="11.932"/></defs><g color="#000" fill-rule="evenodd"><path d="M23.932 12A11.932 11.932 0 0 1 12 23.932 11.932 11.932 0 0 1 .068 12 11.932 11.932 0 0 1 12 .068 11.932 11.932 0 0 1 23.932 12z" style="isolation:auto;mix-blend-mode:normal" overflow="visible" fill="url(#e)"/><path d="M12.047.006C5.437.006.067 5.374.067 11.984c0 6.61 5.37 11.98 11.98 11.98s11.978-5.37 11.978-11.98S18.657.006 12.047.006zm0 .963c6.09 0 11.015 4.925 11.015 11.014 0 6.09-4.926 11.016-11.015 11.016A11.008 11.008 0 0 1 1.03 11.984C1.03 5.894 5.958.97 12.048.97z" style="line-height:normal;text-indent:0;text-align:start;text-decoration-line:none;text-decoration-style:solid;text-decoration-color:#000;text-transform:none;block-progression:tb;isolation:auto;mix-blend-mode:normal" font-weight="400" font-family="sans-serif" white-space="normal" overflow="visible" opacity=".096" fill="url(#f)"/></g><g color="#000"><path d="M10.824 23.025c-2.502-.305-4.848-1.43-6.572-3.15-1.546-1.542-2.613-3.458-3.06-5.5-.434-1.972-.24-4.436.498-6.347a11.25 11.25 0 0 1 5-5.728A10.828 10.828 0 0 1 11.96.946c2.12-.006 3.94.502 5.802 1.62 2.248 1.348 4.056 3.688 4.822 6.237.263.873.403 1.778.442 2.86.09 2.448-.536 4.586-1.946 6.635-1.006 1.46-2.69 2.927-4.172 3.628-1.11.526-1.954.798-3.086.998-.558.098-.81.117-1.664.128-.554.007-1.156-.005-1.336-.027zm1.73-2.32c1.178-.08 1.843-.223 2.76-.596 2.548-1.04 4.428-3.17 5.163-5.852.2-.726.245-1.15.245-2.267 0-1.115-.046-1.54-.243-2.263-.678-2.468-2.266-4.416-4.51-5.532a8.724 8.724 0 0 0-3.17-.92c-2.912-.292-5.846.98-7.676 3.33a8.926 8.926 0 0 0-1.618 3.354c-.224.94-.286 2.28-.15 3.254.35 2.488 1.743 4.706 3.81 6.067 1.332.88 3.03 1.438 4.446 1.464.157.003.58-.015.942-.04z" style="isolation:auto;mix-blend-mode:normal" overflow="visible" fill="#00f"/><path d="M10.458 19.01c-.03-.29-.095-1.96-.16-4.216-.026-.855-.056-1.585-.067-1.622-.022-.077-.38-.26-2.538-1.29-1.946-.932-2.597-1.258-2.736-1.37l-.107-.087.523-.03a459.41 459.41 0 0 1 5.418-.156c.088-.002.406-.618 1.457-2.826.366-.77.815-1.697.996-2.058l.33-.657.028.437c.023.326.157 5.15.158 5.638 0 .088.375.282 2.563 1.324 1.795.855 2.826 1.374 2.826 1.422 0 .055-.61.086-2.65.133-2.54.06-3.298.093-3.372.15-.035.026-.545 1.062-1.133 2.303-.588 1.24-1.168 2.458-1.287 2.706l-.218.45-.027-.253z" style="isolation:auto;mix-blend-mode:normal" overflow="visible" fill="#00f"/><path d="M10.933 20.676c-1.54-.2-3.24-.938-4.467-1.942-.37-.302-1.066-1.017-1.342-1.378-1.55-2.03-2.142-4.575-1.652-7.117.238-1.242.91-2.67 1.748-3.724 1.34-1.684 3.398-2.858 5.566-3.174.538-.078 1.682-.09 2.23-.02a9.22 9.22 0 0 1 4.482 1.87c1.508 1.194 2.62 2.98 3.052 4.905.195.867.195 2.92 0 3.784-.226 1.01-.816 2.34-1.393 3.144a8.77 8.77 0 0 1-3.23 2.778c-.984.488-1.8.726-2.88.838-.58.06-1.773.08-2.114.036zm.373-3.08c1.146-2.417 1.793-3.737 1.846-3.77.083-.05.767-.083 3.234-.15 2.38-.065 2.76-.086 2.76-.155 0-.063-.702-.422-2.923-1.49-1.192-.574-2.23-1.092-2.31-1.152l-.14-.108-.03-1.393c-.043-2.02-.112-4.204-.143-4.482l-.026-.24-.243.48c-.133.266-.625 1.28-1.093 2.257-.96 1.997-1.25 2.573-1.376 2.735-.084.108-.1.112-.61.112-.74 0-4.822.122-5.16.155l-.284.028.107.082c.173.134.667.38 2.874 1.443C8.935 12.5 9.947 13 10.04 13.06c.16.108.162.112.188.472.014.2.046 1.044.07 1.875.062 2.045.127 3.587.158 3.738.015.07.04.108.06.088.017-.02.373-.757.79-1.636z" style="isolation:auto;mix-blend-mode:normal" overflow="visible" fill="#fff6d5"/></g></svg>