<svg xmlns="http://www.w3.org/2000/svg" xmlns:xlink="http://www.w3.org/1999/xlink" width="24" height="24" viewBox="0 0 24 24"><defs><linearGradient id="a"><stop offset="0" stop-color="#177217" stop-opacity=".996"/><stop offset="1" stop-color="#4eab46" stop-opacity=".996"/></linearGradient><linearGradient id="b"><stop offset="0"/><stop offset="1" stop-opacity="0"/></linearGradient><linearGradient id="d"><stop offset="0" stop-color="#1f58b6"/><stop offset="1" stop-color="#7aa4e8"/></linearGradient><radialGradient xlink:href="#a" id="f" cx="6.393" cy="15.165" fx="6.393" fy="15.165" r="11.932" gradientUnits="userSpaceOnUse" gradientTransform="matrix(1.4121 -1.10457 1.0703 1.3683 -14.652 5.117)"/><linearGradient xlink:href="#b" id="g" x1="4.943" y1="20.047" x2="30.151" y2="-6.266" gradientUnits="userSpaceOnUse"/><radialGradient xlink:href="#d" id="c" gradientUnits="userSpaceOnUse" gradientTransform="matrix(1.4121 -1.10457 1.0703 1.3683 -14.652 5.117)" cx="6.393" cy="15.165" fx="6.393" fy="15.165" r="11.932"/><radialGradient xlink:href="#d" id="e" gradientUnits="userSpaceOnUse" gradientTransform="matrix(1.4121 -1.10457 1.0703 1.3683 -14.652 5.117)" cx="6.393" cy="15.165" fx="6.393" fy="15.165" r="11.932"/><clipPath id="h"><circle style="isolation:auto;mix-blend-mode:normal" cx="11.999" cy="12.001" r="10.96" color="#000" overflow="visible" fill="maroon" stroke-opacity=".428"/></clipPath></defs><g color="#000" fill-rule="evenodd"><path d="M23.932 12A11.932 11.932 0 0 1 12 23.932 11.932 11.932 0 0 1 .068 12 11.932 11.932 0 0 1 12 .068 11.932 11.932 0 0 1 23.932 12z" style="isolation:auto;mix-blend-mode:normal" overflow="visible" fill="url(#f)"/><path d="M12.047.006C5.437.006.067 5.374.067 11.984c0 6.61 5.37 11.98 11.98 11.98s11.978-5.37 11.978-11.98S18.657.006 12.047.006zm0 .963c6.09 0 11.015 4.925 11.015 11.014 0 6.09-4.926 11.016-11.015 11.016A11.008 11.008 0 0 1 1.03 11.984C1.03 5.894 5.958.97 12.048.97z" style="line-height:normal;text-indent:0;text-align:start;text-decoration-line:none;text-decoration-style:solid;text-decoration-color:#000;text-transform:none;block-progression:tb;isolation:auto;mix-blend-mode:normal" font-weight="400" font-family="sans-serif" white-space="normal" overflow="visible" opacity=".096" fill="url(#g)"/></g><g transform="translate(0 -1028.362)"><path d="M15.343 1043.53v-2.327H13.58c-2.04 0-2.526-.154-3.308-1.022-.988-1.095-.98-2.67.023-3.807.283-.323.697-.66.92-.753.364-.152.403-.225.403-.765 0-1.122.766-2.02 1.896-2.22.41-.074.5-.145.5-.406 0-.65 1.084-1.535 1.88-1.535.807 0 1.844.883 1.844 1.57 0 .2.12.285.5.353 1.152.21 1.895 1.088 1.895 2.246 0 .5.048.618.285.693.157.05.543.328.858.618 1.564 1.442 1.15 3.88-.81 4.78-.43.198-.872.245-2.296.248h-1.763V1045.86h-1.064v-2.33z" fill="#cfa"/><rect transform="rotate(90)" ry=".644" y="-16.509" x="1040.684" height="1.287" width="5.325" style="isolation:auto;mix-blend-mode:normal" color="#000" overflow="visible" fill="#ccc"/><path style="isolation:auto;mix-blend-mode:normal" d="M3.756 17.37a.66.66 0 0 0-.662.663c0 .01.005.02.006.03h-.006v6H21.03v-6c.002-.01.007-.02.007-.03a.662.662 0 0 0-.664-.662H3.756z" transform="translate(0 1028.362)" clip-path="url(#h)" color="#000" overflow="visible" fill="#250"/><g transform="matrix(1.1771 0 0 1.1771 -1.345 -158.102)" color="#000"><rect transform="rotate(90)" ry=".547" y="-5.984" x="1020.666" height="1.094" width="2.008" style="isolation:auto;mix-blend-mode:normal" overflow="visible" fill="#ccc"/><rect ry=".547" y="1019.675" x="4.406" height="1.094" width="6.188" style="isolation:auto;mix-blend-mode:normal" overflow="visible" fill="#fff"/><rect transform="rotate(90)" ry=".547" y="-9.984" x="1020.643" height="1.094" width="2.008" style="isolation:auto;mix-blend-mode:normal" overflow="visible" fill="#ccc"/></g><path d="M15.25 1041.284l-3.234-2.02 1.983-.06zM16.445 1041.308l3.235-2.49-1.983-.074z" fill="#2c8829" fill-opacity=".996" fill-rule="evenodd"/></g></svg>