<svg xmlns="http://www.w3.org/2000/svg" xmlns:xlink="http://www.w3.org/1999/xlink" width="24" height="24" viewBox="0 0 24 24"><defs><linearGradient id="a"><stop offset="0" stop-color="#177217" stop-opacity=".996"/><stop offset="1" stop-color="#4eab46" stop-opacity=".996"/></linearGradient><linearGradient id="b"><stop offset="0"/><stop offset="1" stop-opacity="0"/></linearGradient><linearGradient id="d"><stop offset="0" stop-color="#1f58b6"/><stop offset="1" stop-color="#7aa4e8"/></linearGradient><radialGradient xlink:href="#a" id="f" cx="6.393" cy="15.165" fx="6.393" fy="15.165" r="11.932" gradientUnits="userSpaceOnUse" gradientTransform="matrix(1.4121 -1.10457 1.0703 1.3683 -14.652 5.117)"/><linearGradient xlink:href="#b" id="g" x1="4.943" y1="20.047" x2="30.151" y2="-6.266" gradientUnits="userSpaceOnUse"/><radialGradient xlink:href="#d" id="c" gradientUnits="userSpaceOnUse" gradientTransform="matrix(1.4121 -1.10457 1.0703 1.3683 -14.652 5.117)" cx="6.393" cy="15.165" fx="6.393" fy="15.165" r="11.932"/><radialGradient xlink:href="#d" id="e" gradientUnits="userSpaceOnUse" gradientTransform="matrix(1.4121 -1.10457 1.0703 1.3683 -14.652 5.117)" cx="6.393" cy="15.165" fx="6.393" fy="15.165" r="11.932"/><clipPath id="h"><path style="isolation:auto;mix-blend-mode:normal" d="M22.982 12A10.982 10.982 0 0 1 12 22.982 10.982 10.982 0 0 1 1.018 12 10.982 10.982 0 0 1 12 1.018 10.982 10.982 0 0 1 22.982 12z" color="#000" overflow="visible" fill="url(#radialGradient14170)" fill-rule="evenodd" stroke-width="2" stroke-linecap="square" stroke-dashoffset=".85"/></clipPath><clipPath id="i"><path style="isolation:auto;mix-blend-mode:normal" d="M22.982 12A10.982 10.982 0 0 1 12 22.982 10.982 10.982 0 0 1 1.018 12 10.982 10.982 0 0 1 12 1.018 10.982 10.982 0 0 1 22.982 12z" color="#000" overflow="visible" fill="url(#radialGradient14164)" fill-rule="evenodd" stroke-width="2" stroke-linecap="square" stroke-dashoffset=".85"/></clipPath></defs><g color="#000" fill-rule="evenodd"><path d="M23.932 12A11.932 11.932 0 0 1 12 23.932 11.932 11.932 0 0 1 .068 12 11.932 11.932 0 0 1 12 .068 11.932 11.932 0 0 1 23.932 12z" style="isolation:auto;mix-blend-mode:normal" overflow="visible" fill="url(#f)"/><path d="M12.047.006C5.437.006.067 5.374.067 11.984c0 6.61 5.37 11.98 11.98 11.98s11.978-5.37 11.978-11.98S18.657.006 12.047.006zm0 .963c6.09 0 11.015 4.925 11.015 11.014 0 6.09-4.926 11.016-11.015 11.016A11.008 11.008 0 0 1 1.03 11.984C1.03 5.894 5.958.97 12.048.97z" style="line-height:normal;text-indent:0;text-align:start;text-decoration-line:none;text-decoration-style:solid;text-decoration-color:#000;text-transform:none;block-progression:tb;isolation:auto;mix-blend-mode:normal" font-weight="400" font-family="sans-serif" white-space="normal" overflow="visible" opacity=".096" fill="url(#g)"/></g><g fill-rule="evenodd"><path transform="rotate(-.568 12.252 6.015)" d="M.016 18.08l24-17.8.062 23.814-24.094-.08z" clip-path="url(#h)" fill="#216e20"/><path transform="rotate(-.568 12.252 6.015)" d="M0 19.856l24-12.45.063 16.657-24.094-.057z" clip-path="url(#i)" fill="#144312" fill-opacity=".996"/></g><path d="M7.387 20.893c-.23-.035-.55-.276-.682-.514-.218-.39-.217-.398.62-3.544.41-1.54.753-2.828.765-2.86.014-.04.06 0 .14.106.204.273.507.534 1.07.918.295.202.537.384.537.406 0 .134-1.29 4.89-1.355 4.997a1.07 1.07 0 0 1-.59.454.888.888 0 0 1-.505.035zm6.64-.01c-.326-.085-.657-.388-.737-.677a66.027 66.027 0 0 1-.337-1.92c-.162-.972-.304-1.81-.316-1.86-.014-.066-.523-.434-1.737-1.257-1.028-.7-1.795-1.248-1.913-1.372-.345-.363-.54-.912-.48-1.36.054-.408 1.41-5.636 1.5-5.78.223-.362.653-.61 1.06-.61.308 0 1.714.203 1.912.276.325.12.485.316 1.426 1.745l.917 1.39H17.5l.022-.178c.013-.098.06-.508.102-.91.095-.884.114-.916.516-.905.28.01.44.086.5.245.03.072-.203 1.962-.8 6.54-.464 3.54-.85 6.46-.86 6.487a.38.38 0 0 1-.13.12c-.092.06-.132.064-.277.02-.11-.032-.18-.084-.205-.147-.026-.066.12-1.588.443-4.664l.483-4.574s-.62-.014-1.38-.02c-1.326-.014-1.386-.018-1.552-.106-.24-.13-.338-.253-1.002-1.267-.323-.492-.59-.89-.597-.884-.016.016-.86 3.94-.86 4.002 0 .03.534.435 1.185.897.652.46 1.228.89 1.28.953.054.063.127.195.164.295.112.308.79 4.47.757 4.666-.044.277-.26.587-.5.72-.226.127-.552.182-.76.128zM6.385 12.03c-.5-.12-.907-.24-.97-.286a.603.603 0 0 1-.164-.23c-.054-.143-.03-.263.437-2.23.502-2.112.59-2.416.83-2.863.443-.834 1.27-1.16 2.27-.897.258.068.403.19.464.397.04.134-.033.46-.69 3.09-.5 1.987-.763 2.97-.816 3.03-.087.1-.31.203-.423.198-.04 0-.462-.096-.936-.21zm5.938-6.64c-1.024-.197-1.69-.97-1.7-1.974-.01-.894.498-1.62 1.345-1.922.353-.126.954-.127 1.3 0 .838.304 1.348 1.023 1.348 1.902 0 .88-.52 1.612-1.348 1.897-.25.085-.744.137-.945.1z" fill="#fff"/></svg>