<svg xmlns="http://www.w3.org/2000/svg" xmlns:xlink="http://www.w3.org/1999/xlink" width="24" height="24" viewBox="0 0 24 24"><defs><linearGradient id="a"><stop offset="0" stop-color="#b30101" stop-opacity=".996"/><stop offset="1" stop-color="#fa4667" stop-opacity=".996"/></linearGradient><linearGradient id="b"><stop offset="0"/><stop offset="1" stop-opacity="0"/></linearGradient><linearGradient id="d"><stop offset="0" stop-color="#1f58b6"/><stop offset="1" stop-color="#7aa4e8"/></linearGradient><radialGradient xlink:href="#a" id="f" cx="6.393" cy="15.165" fx="6.393" fy="15.165" r="11.932" gradientUnits="userSpaceOnUse" gradientTransform="matrix(1.4121 -1.10457 1.0703 1.3683 -14.652 5.117)"/><linearGradient xlink:href="#b" id="g" x1="4.943" y1="20.047" x2="30.151" y2="-6.266" gradientUnits="userSpaceOnUse"/><radialGradient xlink:href="#d" id="c" gradientUnits="userSpaceOnUse" gradientTransform="matrix(1.4121 -1.10457 1.0703 1.3683 -14.652 5.117)" cx="6.393" cy="15.165" fx="6.393" fy="15.165" r="11.932"/><radialGradient xlink:href="#d" id="e" gradientUnits="userSpaceOnUse" gradientTransform="matrix(1.4121 -1.10457 1.0703 1.3683 -14.652 5.117)" cx="6.393" cy="15.165" fx="6.393" fy="15.165" r="11.932"/></defs><g color="#000" fill-rule="evenodd"><path d="M23.932 12A11.932 11.932 0 0 1 12 23.932 11.932 11.932 0 0 1 .068 12 11.932 11.932 0 0 1 12 .068 11.932 11.932 0 0 1 23.932 12z" style="isolation:auto;mix-blend-mode:normal" overflow="visible" fill="url(#f)"/><path d="M12.047.006C5.437.006.067 5.374.067 11.984c0 6.61 5.37 11.98 11.98 11.98s11.978-5.37 11.978-11.98S18.657.006 12.047.006zm0 .963c6.09 0 11.015 4.925 11.015 11.014 0 6.09-4.926 11.016-11.015 11.016A11.008 11.008 0 0 1 1.03 11.984C1.03 5.894 5.958.97 12.048.97z" style="line-height:normal;text-indent:0;text-align:start;text-decoration-line:none;text-decoration-style:solid;text-decoration-color:#000;text-transform:none;block-progression:tb;isolation:auto;mix-blend-mode:normal" font-weight="400" font-family="sans-serif" white-space="normal" overflow="visible" opacity=".096" fill="url(#g)"/></g><path d="M2.917 18.938l-.894-.91 1.652-1.643 1.652-1.643h13.408l1.646 1.656 1.646 1.656-.914.898c-.503.493-1.01.897-1.127.897-.116 0-.732-.527-1.368-1.17l-1.155-1.172H6.58l-1.156 1.17c-.635.645-1.26 1.17-1.384 1.17-.126 0-.632-.41-1.123-.91zm.745-9.256L2.015 8.026l.915-.898c.503-.494 1.01-.897 1.126-.897.117 0 .733.527 1.368 1.17L6.58 8.57H17.462l1.155-1.17c.636-.643 1.252-1.17 1.368-1.17.117 0 .624.404 1.127.898l.914.898-1.646 1.656-1.646 1.656H5.31L3.662 9.682z" fill="#500"/><path d="M3.083 17.367l-.894-.91 1.652-1.643 1.652-1.643H18.9l1.647 1.657 1.646 1.656-.915.897c-.503.494-1.01.898-1.126.898-.117 0-.732-.527-1.368-1.17l-1.156-1.17H6.748l-1.157 1.17c-.635.643-1.258 1.17-1.384 1.17-.126 0-.63-.41-1.123-.91zm.745-9.257L2.182 6.454l.915-.897c.503-.494 1.01-.898 1.126-.898.117 0 .732.526 1.368 1.17L6.748 7h10.88l1.157-1.17c.636-.644 1.25-1.17 1.368-1.17.116 0 .623.403 1.126.897l.915.897-1.646 1.656L18.9 9.766H5.475L3.828 8.11z" fill="#fff"/></svg>