<svg xmlns="http://www.w3.org/2000/svg" xmlns:xlink="http://www.w3.org/1999/xlink" width="24" height="24" viewBox="0 0 24 24"><defs><linearGradient id="a"><stop offset="0" stop-color="#b30101" stop-opacity=".996"/><stop offset="1" stop-color="#fa4667" stop-opacity=".996"/></linearGradient><linearGradient id="b"><stop offset="0"/><stop offset="1" stop-opacity="0"/></linearGradient><linearGradient id="d"><stop offset="0" stop-color="#1f58b6"/><stop offset="1" stop-color="#7aa4e8"/></linearGradient><radialGradient xlink:href="#a" id="f" cx="6.393" cy="15.165" fx="6.393" fy="15.165" r="11.932" gradientUnits="userSpaceOnUse" gradientTransform="matrix(1.4121 -1.10457 1.0703 1.3683 -14.652 5.117)"/><linearGradient xlink:href="#b" id="g" x1="4.943" y1="20.047" x2="30.151" y2="-6.266" gradientUnits="userSpaceOnUse"/><radialGradient xlink:href="#d" id="c" gradientUnits="userSpaceOnUse" gradientTransform="matrix(1.4121 -1.10457 1.0703 1.3683 -14.652 5.117)" cx="6.393" cy="15.165" fx="6.393" fy="15.165" r="11.932"/><radialGradient xlink:href="#d" id="e" gradientUnits="userSpaceOnUse" gradientTransform="matrix(1.4121 -1.10457 1.0703 1.3683 -14.652 5.117)" cx="6.393" cy="15.165" fx="6.393" fy="15.165" r="11.932"/><clipPath id="h"><circle style="isolation:auto;mix-blend-mode:normal" cx="11.955" cy="1040.319" r="10.894" color="#000" overflow="visible" fill="#133671"/></clipPath><clipPath id="i"><circle style="isolation:auto;mix-blend-mode:normal" cx="11.955" cy="1040.319" r="10.894" color="#000" overflow="visible" fill="#133671"/></clipPath><clipPath id="j"><circle style="isolation:auto;mix-blend-mode:normal" cx="11.955" cy="1040.319" r="10.894" color="#000" overflow="visible" fill="#133671"/></clipPath><clipPath id="k"><circle style="isolation:auto;mix-blend-mode:normal" cx="11.955" cy="1040.319" r="10.894" color="#000" overflow="visible" fill="#133671"/></clipPath><clipPath id="l"><circle style="isolation:auto;mix-blend-mode:normal" cx="11.955" cy="1040.319" r="10.894" color="#000" overflow="visible" fill="#133671"/></clipPath></defs><g color="#000" fill-rule="evenodd"><path d="M23.932 12A11.932 11.932 0 0 1 12 23.932 11.932 11.932 0 0 1 .068 12 11.932 11.932 0 0 1 12 .068 11.932 11.932 0 0 1 23.932 12z" style="isolation:auto;mix-blend-mode:normal" overflow="visible" fill="url(#f)"/><path d="M12.047.006C5.437.006.067 5.374.067 11.984c0 6.61 5.37 11.98 11.98 11.98s11.978-5.37 11.978-11.98S18.657.006 12.047.006zm0 .963c6.09 0 11.015 4.925 11.015 11.014 0 6.09-4.926 11.016-11.015 11.016A11.008 11.008 0 0 1 1.03 11.984C1.03 5.894 5.958.97 12.048.97z" style="line-height:normal;text-indent:0;text-align:start;text-decoration-line:none;text-decoration-style:solid;text-decoration-color:#000;text-transform:none;block-progression:tb;isolation:auto;mix-blend-mode:normal" font-weight="400" font-family="sans-serif" white-space="normal" overflow="visible" opacity=".096" fill="url(#g)"/></g><path d="M18.425 1036.527l-4.267 6.492-1.56-3.406-8.773 12.345h.03l-.02.03H24.81l-.013-.03h.003l-6.378-15.433z" clip-path="url(#h)" transform="translate(.09 -1028.114)" fill="#500" fill-rule="evenodd"/><path style="isolation:auto;mix-blend-mode:normal" d="M24.41 1040.503a11.932 11.932 0 0 1-11.932 11.932 11.932 11.932 0 0 1-11.932-11.932 11.932 11.932 0 0 1 11.932-11.932 11.932 11.932 0 0 1 11.933 11.933z" color="#000" overflow="visible" fill="url(#radialGradient16535)" fill-rule="evenodd" transform="translate(0 -1028.362)"/><path d="M1.487 1052.018l8.774-12.345 1.56 3.405 4.268-6.49 6.38 15.43" clip-path="url(#i)" transform="translate(.09 -1028.114)" fill="#fff" fill-rule="evenodd"/><path d="M15.452 1041.806l-2.093 2.38-1.2-1.585-.332.51-.146-.32-.908 1.438-1.026-.82-1.232 1.066-.946-.972-6.074 8.547h20.98l-3.756-9.087-1.462-.828-.74.697-1.066-1.026z" clip-path="url(#j)" transform="matrix(1.01053 0 0 1 -.037 -1028.114)" fill="#aad400" fill-rule="evenodd"/><path style="isolation:auto;mix-blend-mode:normal" d="M24.41 1040.503a11.932 11.932 0 0 1-11.932 11.932 11.932 11.932 0 0 1-11.932-11.932 11.932 11.932 0 0 1 11.932-11.932 11.932 11.932 0 0 1 11.933 11.933z" color="#000" overflow="visible" fill="url(#radialGradient16529)" fill-rule="evenodd" transform="translate(0 -1028.362)"/><path d="M8.86 1033.83a.807.807 0 0 1-.373-.323.68.68 0 0 1 .31-.952c.123-.06.163-.068.374-.068h.237l.04-.12c.142-.414.397-.608.76-.575.087.01.19.02.23.03.072.013.08.01.18-.16.13-.222.29-.38.48-.473.405-.2.85-.124 1.177.2.233.23.32.468.32.875v.182l.153.05c.35.118.535.353.537.68a.7.7 0 0 1-.447.644c-.095.033-.348.038-2.006.036-1.2 0-1.923-.012-1.97-.027z" style="isolation:auto;mix-blend-mode:normal" clip-path="url(#k)" transform="matrix(1.1629 0 0 1.1629 -1.6 -1194.498)" color="#000" overflow="visible" fill="#f9f9f9" fill-rule="evenodd"/><path d="M4.03 1035.293c-.197-.063-.466-.297-.584-.506-.304-.542-.086-1.206.487-1.488.19-.094.253-.106.582-.106h.37l.063-.186c.22-.65.62-.952 1.19-.902.135.01.297.032.36.045.11.025.12.014.278-.248.205-.346.456-.592.754-.74.632-.31 1.327-.19 1.84.316.363.36.5.732.5 1.368v.286l.24.08c.546.182.836.55.84 1.063.002.433-.3.87-.7 1.005-.148.05-.544.058-3.137.054-1.88 0-3.01-.018-3.083-.043z" style="isolation:auto;mix-blend-mode:normal" clip-path="url(#l)" transform="matrix(1.1629 0 0 1.1629 -1.6 -1194.498)" color="#000" overflow="visible" fill="#b3b3b3" fill-rule="evenodd"/><path style="isolation:auto;mix-blend-mode:normal" d="M24.41 1040.503a11.932 11.932 0 0 1-11.932 11.932 11.932 11.932 0 0 1-11.932-11.932 11.932 11.932 0 0 1 11.932-11.932 11.932 11.932 0 0 1 11.933 11.933z" color="#000" overflow="visible" fill="url(#radialGradient16523)" fill-rule="evenodd" transform="translate(0 -1028.362)"/><g fill="#500" color="#000"><path d="M18.037 4.66h4.147l-1.368.923 1.368.933h-4.147z" style="isolation:auto;mix-blend-mode:normal" overflow="visible"/><path style="isolation:auto;mix-blend-mode:normal" overflow="visible" d="M18.034 6.502h.51v3.615h-.51z"/></g><g fill="#fff" color="#000"><path d="M15.773 4.03h4.147l-1.368.922 1.368.933h-4.147z" style="isolation:auto;mix-blend-mode:normal" overflow="visible"/><path style="isolation:auto;mix-blend-mode:normal" overflow="visible" d="M15.77 5.87h.51v3.617h-.51z"/></g></svg>