<?xml version="1.0" encoding="UTF-8" standalone="no"?>
<svg
   xmlns:dc="http://purl.org/dc/elements/1.1/"
   xmlns:cc="http://creativecommons.org/ns#"
   xmlns:rdf="http://www.w3.org/1999/02/22-rdf-syntax-ns#"
   xmlns:svg="http://www.w3.org/2000/svg"
   xmlns="http://www.w3.org/2000/svg"
   xmlns:xlink="http://www.w3.org/1999/xlink"
   xmlns:sodipodi="http://sodipodi.sourceforge.net/DTD/sodipodi-0.dtd"
   xmlns:inkscape="http://www.inkscape.org/namespaces/inkscape"
   width="24"
   height="24"
   viewBox="0 0 24 24"
   id="svg2"
   version="1.1"
   inkscape:version="0.91 r"
   sodipodi:docname="pharmacy_d.svg"
   inkscape:export-filename="/home/stefano/Pictures/POI/png/pharmacy_d.png"
   inkscape:export-xdpi="960"
   inkscape:export-ydpi="960">
  <metadata
     id="metadata39">
    <rdf:RDF>
      <cc:Work
         rdf:about="">
        <dc:format>image/svg+xml</dc:format>
        <dc:type
           rdf:resource="http://purl.org/dc/dcmitype/StillImage" />
      </cc:Work>
    </rdf:RDF>
  </metadata>
  <sodipodi:namedview
     pagecolor="#ffffff"
     bordercolor="#666666"
     borderopacity="1"
     objecttolerance="10"
     gridtolerance="10"
     guidetolerance="10"
     inkscape:pageopacity="0"
     inkscape:pageshadow="2"
     inkscape:window-width="2511"
     inkscape:window-height="1416"
     id="namedview37"
     showgrid="false"
     inkscape:zoom="0.30729167"
     inkscape:cx="-895.7888"
     inkscape:cy="-393.21035"
     inkscape:window-x="49"
     inkscape:window-y="24"
     inkscape:window-maximized="1"
     inkscape:current-layer="svg2" />
  <defs
     id="defs4">
    <linearGradient
       id="a">
      <stop
         offset="0"
         stop-color="#d6d6d6"
         id="stop7" />
      <stop
         offset="1"
         stop-color="#fefefe"
         id="stop9" />
    </linearGradient>
    <linearGradient
       id="b">
      <stop
         offset="0"
         id="stop12" />
      <stop
         offset="1"
         stop-opacity="0"
         id="stop14" />
    </linearGradient>
    <linearGradient
       id="d">
      <stop
         offset="0"
         stop-color="#1f58b6"
         id="stop17" />
      <stop
         offset="1"
         stop-color="#7aa4e8"
         id="stop19" />
    </linearGradient>
    <radialGradient
       xlink:href="#a"
       id="f"
       cx="6.393"
       cy="15.165"
       fx="6.393"
       fy="15.165"
       r="11.932"
       gradientUnits="userSpaceOnUse"
       gradientTransform="matrix(1.4121 -1.10457 1.0703 1.3683 -14.652 5.117)" />
    <linearGradient
       xlink:href="#b"
       id="g"
       x1="4.943"
       y1="20.047"
       x2="30.151"
       y2="-6.266"
       gradientUnits="userSpaceOnUse" />
    <radialGradient
       xlink:href="#d"
       id="c"
       gradientUnits="userSpaceOnUse"
       gradientTransform="matrix(1.4121 -1.10457 1.0703 1.3683 -14.652 5.117)"
       cx="6.393"
       cy="15.165"
       fx="6.393"
       fy="15.165"
       r="11.932" />
    <radialGradient
       xlink:href="#d"
       id="e"
       gradientUnits="userSpaceOnUse"
       gradientTransform="matrix(1.4121 -1.10457 1.0703 1.3683 -14.652 5.117)"
       cx="6.393"
       cy="15.165"
       fx="6.393"
       fy="15.165"
       r="11.932" />
  </defs>
  <g
     color="#000"
     fill-rule="evenodd"
     id="g25">
    <path
       d="M23.932 12A11.932 11.932 0 0 1 12 23.932 11.932 11.932 0 0 1 .068 12 11.932 11.932 0 0 1 12 .068 11.932 11.932 0 0 1 23.932 12z"
       style="isolation:auto;mix-blend-mode:normal"
       overflow="visible"
       fill="url(#f)"
       id="path27" />
    <path
       d="M12.047.006C5.437.006.067 5.374.067 11.984c0 6.61 5.37 11.98 11.98 11.98s11.978-5.37 11.978-11.98S18.657.006 12.047.006zm0 .963c6.09 0 11.015 4.925 11.015 11.014 0 6.09-4.926 11.016-11.015 11.016A11.008 11.008 0 0 1 1.03 11.984C1.03 5.894 5.958.97 12.048.97z"
       style="line-height:normal;text-indent:0;text-align:start;text-decoration-line:none;text-decoration-style:solid;text-decoration-color:#000;text-transform:none;block-progression:tb;isolation:auto;mix-blend-mode:normal"
       font-weight="400"
       font-family="sans-serif"
       white-space="normal"
       overflow="visible"
       opacity=".096"
       fill="url(#g)"
       id="path29" />
  </g>
  <path
     style="fill:#f60f24;fill-rule:evenodd"
     inkscape:connector-curvature="0"
     id="path35"
     d="m 12.05,6.084 0,3.703 2.194,0 0,-2.427 z m -4.36,-1.29 5.882,-2.688 5.006,3.168 0,9.56 2.098,1.398 -2.592,4.005 -3.826,-2.634 0,-3.25 -2.25,0 0,3.236 -3.647,2.606 -5.32,-2.4 3.66,-2.825 1.002,0.507 0.028,-1.097 -2.154,0 0,-4.512 2.113,0 z" />
</svg>
