<svg xmlns="http://www.w3.org/2000/svg" xmlns:xlink="http://www.w3.org/1999/xlink" width="24" height="24" viewBox="0 0 24 24"><defs><linearGradient id="b"><stop offset="0"/><stop offset="1" stop-opacity="0"/></linearGradient><linearGradient id="a"><stop offset="0" stop-color="#1f58b6"/><stop offset="1" stop-color="#7aa4e8"/></linearGradient><radialGradient xlink:href="#a" id="e" cx="6.393" cy="15.165" fx="6.393" fy="15.165" r="11.932" gradientUnits="userSpaceOnUse" gradientTransform="matrix(1.4121 -1.10457 1.0703 1.3683 -14.652 5.117)"/><linearGradient xlink:href="#b" id="f" x1="4.943" y1="20.047" x2="30.151" y2="-6.266" gradientUnits="userSpaceOnUse"/><radialGradient xlink:href="#a" id="c" gradientUnits="userSpaceOnUse" gradientTransform="matrix(1.4121 -1.10457 1.0703 1.3683 -14.652 5.117)" cx="6.393" cy="15.165" fx="6.393" fy="15.165" r="11.932"/><radialGradient xlink:href="#a" id="d" gradientUnits="userSpaceOnUse" gradientTransform="matrix(1.4121 -1.10457 1.0703 1.3683 -14.652 5.117)" cx="6.393" cy="15.165" fx="6.393" fy="15.165" r="11.932"/></defs><g color="#000" fill-rule="evenodd"><path d="M23.932 12A11.932 11.932 0 0 1 12 23.932 11.932 11.932 0 0 1 .068 12 11.932 11.932 0 0 1 12 .068 11.932 11.932 0 0 1 23.932 12z" style="isolation:auto;mix-blend-mode:normal" overflow="visible" fill="url(#e)"/><path d="M12.047.006C5.437.006.067 5.374.067 11.984c0 6.61 5.37 11.98 11.98 11.98s11.978-5.37 11.978-11.98S18.657.006 12.047.006zm0 .963c6.09 0 11.015 4.925 11.015 11.014 0 6.09-4.926 11.016-11.015 11.016A11.008 11.008 0 0 1 1.03 11.984C1.03 5.894 5.958.97 12.048.97z" style="line-height:normal;text-indent:0;text-align:start;text-decoration-line:none;text-decoration-style:solid;text-decoration-color:#000;text-transform:none;block-progression:tb;isolation:auto;mix-blend-mode:normal" font-weight="400" font-family="sans-serif" white-space="normal" overflow="visible" opacity=".096" fill="url(#f)"/></g><path d="M15.29 21.4c-.62-.054-1.685-.348-2.314-.635a.957.957 0 0 0-.138-.055c-.01 0-.19-.083-.4-.184-.21-.102-.387-.184-.394-.184-.018 0-.81-.454-1.023-.586l-.352-.22c-.528-.33-1.32-.922-2.062-1.543-1.02-.853-2.393-2.288-3.205-3.345-1.463-1.906-2.384-3.76-2.69-5.425-.09-.488-.09-1.117 0-1.473.11-.423.194-.544.85-1.203.85-.855 1.233-1.082 1.817-1.08.624.01 1.245.436 1.93 1.342.734.967 1 1.703.83 2.288-.102.347-.266.577-.835 1.17-.183.192-.354.39-.38.44-.19.365.032 1.016.622 1.83.213.296.737.932 1.014 1.232.303.327 1.273 1.3 1.52 1.524.13.12.316.288.41.374.44.4 1.154.944 1.53 1.164.567.33.982.447 1.282.364.11-.03.19-.09.433-.324.68-.654.9-.82 1.246-.938.238-.082.652-.07.96.027.74.234 1.946 1.12 2.394 1.763.253.362.343.654.322 1.05-.01.19-.033.3-.093.45-.173.426-.375.683-1.095 1.388-.57.56-.675.632-1.06.727-.222.054-.83.09-1.117.063zm3.766-7.187c-.233-.096-.376-.224-.475-.425-.1-.205-.112-.36-.076-.968.077-1.28-.377-2.582-1.368-3.923a9.865 9.865 0 0 0-1.76-1.803C14.386 6.3 13.16 5.74 12.11 5.61a10.275 10.275 0 0 0-.94-.02c-.708.01-.71.01-.85-.063-.715-.362-.637-1.438.122-1.672.276-.085.718-.122 1.25-.104 2.043.072 4.108 1.06 5.837 2.794 1.162 1.166 1.97 2.42 2.42 3.756.347 1.025.48 2.072.37 2.933-.05.403-.108.563-.267.74-.113.127-.183.17-.436.274-.13.053-.386.038-.56-.034zm-3.332-.84c-.375-.133-.537-.387-.67-1.05a4.004 4.004 0 0 0-.538-1.31 4.354 4.354 0 0 0-.69-.835c-.652-.638-1.315-.993-2.176-1.167-.367-.073-.558-.156-.713-.306-.172-.167-.238-.315-.256-.57-.02-.307.04-.49.22-.69.274-.3.595-.363 1.176-.232.954.215 1.878.66 2.6 1.25.733.6 1.29 1.3 1.705 2.15.47.955.673 1.874.502 2.26a.92.92 0 0 1-1.158.5z" fill="#133671"/><path d="M15.728 20.573c-.62-.055-1.685-.348-2.315-.636a.957.957 0 0 0-.137-.055c-.01 0-.19-.083-.4-.184-.21-.1-.387-.184-.394-.184-.018 0-.81-.454-1.023-.586l-.354-.22c-.53-.33-1.32-.922-2.063-1.543-1.018-.853-2.393-2.288-3.205-3.345-1.464-1.906-2.384-3.76-2.69-5.425-.09-.487-.09-1.117 0-1.473.108-.423.193-.543.85-1.202.85-.856 1.233-1.083 1.817-1.08.624.01 1.245.435 1.93 1.34.733.97 1 1.705.828 2.29-.1.347-.265.577-.833 1.17-.184.192-.355.39-.38.44-.19.365.03 1.016.62 1.83.214.296.74.932 1.016 1.232.302.327 1.273 1.3 1.52 1.524.13.12.316.288.41.374.44.4 1.153.944 1.53 1.164.566.33.98.447 1.282.364.11-.03.19-.09.432-.324.68-.654.9-.82 1.247-.938.238-.082.652-.07.96.027.74.233 1.946 1.12 2.394 1.762.255.362.344.654.324 1.05-.01.19-.033.3-.094.45-.172.426-.375.683-1.094 1.388-.57.56-.676.63-1.062.726-.22.053-.83.088-1.115.062z" fill="#fff"/></svg>