<svg xmlns="http://www.w3.org/2000/svg" xmlns:xlink="http://www.w3.org/1999/xlink" width="24" height="24" viewBox="0 0 24 24"><defs><linearGradient id="b"><stop offset="0"/><stop offset="1" stop-opacity="0"/></linearGradient><linearGradient id="a"><stop offset="0" stop-color="#1f58b6"/><stop offset="1" stop-color="#7aa4e8"/></linearGradient><radialGradient xlink:href="#a" id="e" cx="6.393" cy="15.165" fx="6.393" fy="15.165" r="11.932" gradientUnits="userSpaceOnUse" gradientTransform="matrix(1.4121 -1.10457 1.0703 1.3683 -14.652 5.117)"/><linearGradient xlink:href="#b" id="f" x1="4.943" y1="20.047" x2="30.151" y2="-6.266" gradientUnits="userSpaceOnUse"/><radialGradient xlink:href="#a" id="c" gradientUnits="userSpaceOnUse" gradientTransform="matrix(1.4121 -1.10457 1.0703 1.3683 -14.652 5.117)" cx="6.393" cy="15.165" fx="6.393" fy="15.165" r="11.932"/><radialGradient xlink:href="#a" id="d" gradientUnits="userSpaceOnUse" gradientTransform="matrix(1.4121 -1.10457 1.0703 1.3683 -14.652 5.117)" cx="6.393" cy="15.165" fx="6.393" fy="15.165" r="11.932"/></defs><g color="#000" fill-rule="evenodd"><path d="M23.932 12A11.932 11.932 0 0 1 12 23.932 11.932 11.932 0 0 1 .068 12 11.932 11.932 0 0 1 12 .068 11.932 11.932 0 0 1 23.932 12z" style="isolation:auto;mix-blend-mode:normal" overflow="visible" fill="url(#e)"/><path d="M12.047.006C5.437.006.067 5.374.067 11.984c0 6.61 5.37 11.98 11.98 11.98s11.978-5.37 11.978-11.98S18.657.006 12.047.006zm0 .963c6.09 0 11.015 4.925 11.015 11.014 0 6.09-4.926 11.016-11.015 11.016A11.008 11.008 0 0 1 1.03 11.984C1.03 5.894 5.958.97 12.048.97z" style="line-height:normal;text-indent:0;text-align:start;text-decoration-line:none;text-decoration-style:solid;text-decoration-color:#000;text-transform:none;block-progression:tb;isolation:auto;mix-blend-mode:normal" font-weight="400" font-family="sans-serif" white-space="normal" overflow="visible" opacity=".096" fill="url(#f)"/></g><g fill="#fff"><path d="M7.645 12.718c-.32 0-.626.064-.905.18l11.62 7.33v-5.12a2.373 2.373 0 0 0-2.365-2.39h-8.35zM5.28 15.435v4.88a2.373 2.373 0 0 0 2.365 2.39h8.35c.23 0 .452-.032.662-.093L5.28 15.435zM8.4 6.424a3.897 3.897 0 0 0-.354 1.612 3.897 3.897 0 0 0 3.897 3.897 3.897 3.897 0 0 0 3.897-3.897 3.897 3.897 0 0 0-.354-1.612H8.4z" fill="#29436b"/><path d="M8.867 5.82h6.64s.337-.036.493-.168c.156-.132.277-.385.277-.385l.48-1.094s0-.18-.07-.373c-.074-.193-.374-.277-.374-.277l-2.695-1.01-.71-.06h-2.224l-.915.18-2.394 1.01s-.12 0-.217.23c-.097.227.06.528.06.528l.505 1.108s.084.192.36.264c.277.072.782.048.782.048z" fill="#29436b" fill-rule="evenodd"/><path d="M12.946 2.83v1.227c-.038.476-.51.742-1.003.998-.45-.253-.962-.46-1.004-.998V2.83z" fill="#29436b" fill-rule="evenodd"/><path d="M7.626 12.054c-.32 0-.627.064-.906.18l11.622 7.33v-5.12a2.373 2.373 0 0 0-2.367-2.39h-8.35zM5.26 14.77v4.882a2.373 2.373 0 0 0 2.366 2.39h8.35c.23 0 .452-.033.662-.094L5.26 14.77zM8.378 5.716a3.897 3.897 0 0 0-.353 1.612 3.897 3.897 0 0 0 3.897 3.897 3.897 3.897 0 0 0 3.897-3.897 3.897 3.897 0 0 0-.355-1.612H8.378z"/><path d="M8.846 5.112h6.64s.337-.036.493-.17c.155-.13.276-.383.276-.383l.48-1.096s0-.18-.07-.373c-.073-.19-.374-.276-.374-.276l-2.694-1.01-.71-.06h-2.225l-.914.18-2.395 1.01s-.12 0-.217.23c-.096.228.06.53.06.53l.506 1.105s.084.192.36.264c.277.072.782.048.782.048z" fill-rule="evenodd"/><path d="M12.925 2.12V3.35c-.038.476-.51.743-1.003.998-.45-.252-.962-.46-1.004-.998V2.12z" fill="#5f8ed9" fill-rule="evenodd"/><path d="M8.36 5.734s1.78 1.312 3.624 1.297c1.926-.014 3.47-1.327 3.47-1.327z" fill="#29436b" fill-rule="evenodd"/></g></svg>