<svg xmlns="http://www.w3.org/2000/svg" xmlns:xlink="http://www.w3.org/1999/xlink" width="24" height="24" viewBox="0 0 24 24"><defs><linearGradient id="b"><stop offset="0"/><stop offset="1" stop-opacity="0"/></linearGradient><linearGradient id="a"><stop offset="0" stop-color="#1f58b6"/><stop offset="1" stop-color="#7aa4e8"/></linearGradient><radialGradient xlink:href="#a" id="e" cx="6.393" cy="15.165" fx="6.393" fy="15.165" r="11.932" gradientUnits="userSpaceOnUse" gradientTransform="matrix(1.4121 -1.10457 1.0703 1.3683 -14.652 5.117)"/><linearGradient xlink:href="#b" id="f" x1="4.943" y1="20.047" x2="30.151" y2="-6.266" gradientUnits="userSpaceOnUse"/><radialGradient xlink:href="#a" id="c" gradientUnits="userSpaceOnUse" gradientTransform="matrix(1.4121 -1.10457 1.0703 1.3683 -14.652 5.117)" cx="6.393" cy="15.165" fx="6.393" fy="15.165" r="11.932"/><radialGradient xlink:href="#a" id="d" gradientUnits="userSpaceOnUse" gradientTransform="matrix(1.4121 -1.10457 1.0703 1.3683 -14.652 5.117)" cx="6.393" cy="15.165" fx="6.393" fy="15.165" r="11.932"/><clipPath id="g"><circle style="isolation:auto;mix-blend-mode:normal" cx="12" cy="1040.362" r="11.081" color="#000" overflow="visible" fill="red" fill-rule="evenodd" stroke-linecap="square" stroke-dashoffset=".85"/></clipPath></defs><g color="#000" fill-rule="evenodd"><path d="M23.932 12A11.932 11.932 0 0 1 12 23.932 11.932 11.932 0 0 1 .068 12 11.932 11.932 0 0 1 12 .068 11.932 11.932 0 0 1 23.932 12z" style="isolation:auto;mix-blend-mode:normal" overflow="visible" fill="url(#e)"/><path d="M12.047.006C5.437.006.067 5.374.067 11.984c0 6.61 5.37 11.98 11.98 11.98s11.978-5.37 11.978-11.98S18.657.006 12.047.006zm0 .963c6.09 0 11.015 4.925 11.015 11.014 0 6.09-4.926 11.016-11.015 11.016A11.008 11.008 0 0 1 1.03 11.984C1.03 5.894 5.958.97 12.048.97z" style="line-height:normal;text-indent:0;text-align:start;text-decoration-line:none;text-decoration-style:solid;text-decoration-color:#000;text-transform:none;block-progression:tb;isolation:auto;mix-blend-mode:normal" font-weight="400" font-family="sans-serif" white-space="normal" overflow="visible" opacity=".096" fill="url(#f)"/></g><g transform="translate(0 -1028.362)"><ellipse transform="translate(.11 -.094)" style="isolation:auto;mix-blend-mode:normal" cx="12.094" cy="1050.925" rx="14.844" ry="12.969" clip-path="url(#g)" color="#000" overflow="visible" fill="#31548e" fill-rule="evenodd"/><path d="M11.393 1050.37a10.847 10.847 0 0 1-3.696-2.41c-.776-.78-1.264-1.456-1.74-2.41-.158-.316-.286-.515-.322-.502-.39.13-1.246.366-1.335.366-.196 0-.232-.15-.195-.827.085-1.575.496-3.137 1.116-4.236.196-.345.283-.418.432-.362.074.028 3.082 3.39 3.31 3.7.14.187.088.326-.15.4-.09.028-.388.12-.666.203-.585.18-.573.143-.248.71.52.91 1.476 1.926 2.39 2.543.282.19.54.362.574.38.048.03.06-.935.06-4.753v-4.79h-2.49v-2h2.491V1035.264l-.257-.146a2.616 2.616 0 0 1-1.292-2.11c-.065-1.12.518-2.1 1.524-2.568.565-.263 1.054-.32 1.65-.194 1.786.38 2.65 2.388 1.71 3.976-.21.35-.586.72-.944.92l-.242.136v1.1h2.49v2h-2.49v4.763c0 3.368.015 4.762.052 4.762.07 0 .72-.437 1.095-.734.405-.32 1.176-1.127 1.46-1.527.277-.388.664-1.054.664-1.14 0-.034-.22-.128-.5-.213a89.49 89.49 0 0 1-.66-.2c-.21-.067-.288-.208-.194-.352.137-.208 3.255-3.69 3.35-3.742.142-.076.212-.03.382.256.558.932 1.01 2.46 1.136 3.844.095 1.048.062 1.318-.164 1.318-.088 0-.938-.233-1.333-.366-.033-.01-.16.19-.307.488-.885 1.805-2.457 3.358-4.418 4.366-.64.33-1.443.64-1.646.64-.09 0-.36-.08-.597-.173zm.967-16.823a.787.787 0 0 0-.002-1.42c-.54-.26-1.142.105-1.142.696 0 .63.583.998 1.144.724z" fill="#fff"/></g></svg>