<?xml version="1.0" encoding="UTF-8" standalone="no"?>
<svg
   xmlns:dc="http://purl.org/dc/elements/1.1/"
   xmlns:cc="http://creativecommons.org/ns#"
   xmlns:rdf="http://www.w3.org/1999/02/22-rdf-syntax-ns#"
   xmlns:svg="http://www.w3.org/2000/svg"
   xmlns="http://www.w3.org/2000/svg"
   xmlns:xlink="http://www.w3.org/1999/xlink"
   version="1.1"
   id="svg16505"
   viewBox="0 0 24 24"
   height="24"
   width="24">
  <defs
     id="defs16507">
    <linearGradient
       id="linearGradient14177">
      <stop
         id="stop14179"
         offset="0"
         style="stop-color:#000000;stop-opacity:1;" />
      <stop
         id="stop14181"
         offset="1"
         style="stop-color:#000000;stop-opacity:0;" />
    </linearGradient>
    <linearGradient
       id="linearGradient14145">
      <stop
         id="stop14147"
         offset="0"
         style="stop-color:#1f58b6;stop-opacity:1" />
      <stop
         id="stop14149"
         offset="1"
         style="stop-color:#7aa4e8;stop-opacity:1" />
    </linearGradient>
    <linearGradient
       gradientUnits="userSpaceOnUse"
       y2="-6.265625"
       x2="30.151178"
       y1="20.046875"
       x1="4.9425726"
       id="linearGradient14183"
       xlink:href="#linearGradient14177" />
    <clipPath
       id="clipPath14940"
       clipPathUnits="userSpaceOnUse">
      <path
         style="color:#000000;clip-rule:nonzero;display:inline;overflow:visible;visibility:visible;opacity:1;isolation:auto;mix-blend-mode:normal;color-interpolation:sRGB;color-interpolation-filters:linearRGB;solid-color:#000000;solid-opacity:1;fill:url(#radialGradient14944);fill-opacity:1;fill-rule:evenodd;stroke:none;stroke-width:2;stroke-linecap:square;stroke-linejoin:miter;stroke-miterlimit:4;stroke-dasharray:none;stroke-dashoffset:0.85000002;stroke-opacity:1;color-rendering:auto;image-rendering:auto;shape-rendering:auto;text-rendering:auto;enable-background:accumulate"
         d="M 23.932427,12 A 11.932427,11.932427 0 0 1 12,23.932427 11.932427,11.932427 0 0 1 0.067573,12 11.932427,11.932427 0 0 1 12,0.06757298 11.932427,11.932427 0 0 1 23.932427,12 Z"
         id="path14942" />
    </clipPath>
    <radialGradient
       r="11.932427"
       fy="15.165454"
       fx="6.393167"
       cy="15.165454"
       cx="6.393167"
       gradientTransform="matrix(1.4121007,-1.1045678,1.0703037,1.3682968,-14.651552,5.1167483)"
       gradientUnits="userSpaceOnUse"
       id="radialGradient14944"
       xlink:href="#linearGradient14145" />
    <clipPath
       id="clipPath14946"
       clipPathUnits="userSpaceOnUse">
      <path
         style="color:#000000;clip-rule:nonzero;display:inline;overflow:visible;visibility:visible;opacity:1;isolation:auto;mix-blend-mode:normal;color-interpolation:sRGB;color-interpolation-filters:linearRGB;solid-color:#000000;solid-opacity:1;fill:url(#radialGradient14950);fill-opacity:1;fill-rule:evenodd;stroke:none;stroke-width:2;stroke-linecap:square;stroke-linejoin:miter;stroke-miterlimit:4;stroke-dasharray:none;stroke-dashoffset:0.85000002;stroke-opacity:1;color-rendering:auto;image-rendering:auto;shape-rendering:auto;text-rendering:auto;enable-background:accumulate"
         d="M 23.932427,12 A 11.932427,11.932427 0 0 1 12,23.932427 11.932427,11.932427 0 0 1 0.067573,12 11.932427,11.932427 0 0 1 12,0.06757298 11.932427,11.932427 0 0 1 23.932427,12 Z"
         id="path14948" />
    </clipPath>
    <radialGradient
       r="11.932427"
       fy="15.165454"
       fx="6.393167"
       cy="15.165454"
       cx="6.393167"
       gradientTransform="matrix(1.4121007,-1.1045678,1.0703037,1.3682968,-14.651552,5.1167483)"
       gradientUnits="userSpaceOnUse"
       id="radialGradient14950"
       xlink:href="#linearGradient14145" />
    <clipPath
       id="clipPath7139">
      <path
         id="path7141"
         d="m 316.535,140.173 213.542,0 0,55.275 -213.542,0 0,-55.275 z" />
    </clipPath>
  </defs>
  <metadata
     id="metadata16510">
    <rdf:RDF>
      <cc:Work
         rdf:about="">
        <dc:format>image/svg+xml</dc:format>
        <dc:type
           rdf:resource="http://purl.org/dc/dcmitype/StillImage" />
        <dc:title></dc:title>
      </cc:Work>
    </rdf:RDF>
  </metadata>
  <g
     style="display:inline"
     id="layer2">
    <g
       id="g14189">
      <path
         style="color:#000000;clip-rule:nonzero;display:inline;overflow:visible;visibility:visible;opacity:1;isolation:auto;mix-blend-mode:normal;color-interpolation:sRGB;color-interpolation-filters:linearRGB;solid-color:#000000;solid-opacity:1;fill:#fcd205;fill-opacity:1;fill-rule:evenodd;stroke:none;stroke-width:2;stroke-linecap:square;stroke-linejoin:miter;stroke-miterlimit:4;stroke-dasharray:none;stroke-dashoffset:0.85000002;stroke-opacity:1;color-rendering:auto;image-rendering:auto;shape-rendering:auto;text-rendering:auto;enable-background:accumulate"
         d="M 23.932427,12 A 11.932427,11.932427 0 0 1 12,23.932427 11.932427,11.932427 0 0 1 0.06757259,12 11.932427,11.932427 0 0 1 12,0.06757259 11.932427,11.932427 0 0 1 23.932427,12 Z"
         id="path17688" />
      <path
         style="color:#000000;font-style:normal;font-variant:normal;font-weight:normal;font-stretch:normal;font-size:medium;line-height:normal;font-family:sans-serif;text-indent:0;text-align:start;text-decoration:none;text-decoration-line:none;text-decoration-style:solid;text-decoration-color:#000000;letter-spacing:normal;word-spacing:normal;text-transform:none;direction:ltr;block-progression:tb;writing-mode:lr-tb;baseline-shift:baseline;text-anchor:start;white-space:normal;clip-rule:nonzero;display:inline;overflow:visible;visibility:visible;opacity:0.09599998;isolation:auto;mix-blend-mode:normal;color-interpolation:sRGB;color-interpolation-filters:linearRGB;solid-color:#000000;solid-opacity:1;fill:url(#linearGradient14183);fill-opacity:1;fill-rule:evenodd;stroke:none;stroke-width:0.96355295;stroke-linecap:square;stroke-linejoin:miter;stroke-miterlimit:4;stroke-dasharray:none;stroke-dashoffset:0.85000002;stroke-opacity:1;color-rendering:auto;image-rendering:auto;shape-rendering:auto;text-rendering:auto;enable-background:accumulate"
         d="M 12.046875,0.00585938 C 5.4365953,0.00585928 0.06835928,5.3740953 0.06835937,11.984375 c 0,6.61028 5.36823593,11.978516 11.97851563,11.978516 6.61028,0 11.978516,-5.368236 11.978516,-11.978516 0,-6.6102797 -5.368236,-11.97851562 -11.978516,-11.97851562 z m 0,0.96289062 c 6.089537,0 11.015625,4.926088 11.015625,11.015625 C 23.0625,18.073912 18.136412,23 12.046875,23 5.957338,23 1.03125,18.073912 1.03125,11.984375 1.0312499,5.8948379 5.9573379,0.96874991 12.046875,0.96875 Z"
         id="path17688-3" />
    </g>
  </g>
  <g
     style="display:inline"
     transform="translate(0,-1028.3622)"
     id="layer1">
    <g
       transform="translate(-0.06897725,0.09452229)"
       id="g15301">
      <g
         transform="matrix(0.18737655,0,0,-0.18737655,17.928851,1043.0362)"
         id="g7123">
        <path
           d="m 0,0 1.568,7.362 -89.313,0 L -89.312,0 0,0 Z"
           id="path7125"
           style="fill:#ffffff;fill-opacity:1;fill-rule:nonzero;stroke:none" />
      </g>
      <g
         transform="matrix(0.18737655,0,0,-0.18737655,5.7600365,1039.2403)"
         id="g7127">
        <path
           d="m 0,0 -3.322,0 -3.302,-15.352 3.323,0 L 0,0 Z"
           id="path7129"
           style="fill:#231f20;fill-opacity:1;fill-rule:nonzero;stroke:none" />
      </g>
      <g
         transform="matrix(0.18737655,0,0,-0.18737655,7.9409886,1039.2403)"
         id="g7131">
        <path
           d="m 0,0 -9.286,0 -3.281,-15.352 9.389,0 0.599,2.785 -6.069,0 0.826,3.819 5.263,0 0.599,2.764 -5.263,0 0.681,3.198 5.943,0 L 0,0 Z"
           id="path7133"
           style="fill:#231f20;fill-opacity:1;fill-rule:nonzero;stroke:none" />
      </g>
      <g
         transform="matrix(0.18737655,0,0,-0.18737655,-67.395572,1072.2127)"
         id="g7135">
        <g
           clip-path="url(#clipPath7139)"
           id="g7137">
          <g
             transform="translate(380.2345,168.02)"
             id="g7143">
            <path
               d="m 0,0 c -0.392,-1.815 -1.486,-4.025 -3.88,-4.499 -0.493,-0.083 -0.949,-0.104 -1.34,-0.104 l -1.569,0 2.064,9.7 1.423,0 c 0.352,0 0.827,-0.02 1.199,-0.082 C 0.084,4.644 0.537,2.415 0,0 M -1.288,7.846 C -1.928,7.93 -2.773,7.949 -3.29,7.949 l -4.189,0 -3.281,-15.352 5.532,0 c 0.495,0 1.113,0.02 1.548,0.08 4.332,0.538 6.438,3.674 7.056,6.874 0.867,4.456 -0.7,7.717 -4.664,8.295"
               id="path7145"
               style="fill:#231f20;fill-opacity:1;fill-rule:nonzero;stroke:none" />
          </g>
          <g
             transform="translate(457.2431,175.9687)"
             id="g7147">
            <path
               d="m 0,0 -11.637,0 -0.62,-2.846 4.168,0 -2.682,-12.506 3.322,0 2.683,12.506 4.148,0 L 0,0 Z"
               id="path7149"
               style="fill:#231f20;fill-opacity:1;fill-rule:nonzero;stroke:none" />
          </g>
          <g
             transform="translate(429.2695,168.2676)"
             id="g7151">
            <path
               d="m 0,0 c -0.537,-2.477 -1.548,-5.055 -4.354,-5.055 -2.704,0 -3.075,2.538 -2.517,5.055 0.535,2.477 1.547,5.054 4.353,5.054 C 0.186,5.054 0.559,2.518 0,0 m -2.277,7.866 c -5.326,0 -7.349,-3.611 -8.196,-7.841 -0.865,-4.23 0.931,-7.841 5.78,-7.841 5.324,0 7.347,3.611 8.193,7.841 0.866,4.23 -0.928,7.841 -5.777,7.841"
               id="path7153"
               style="fill:#231f20;fill-opacity:1;fill-rule:nonzero;stroke:none" />
          </g>
          <g
             transform="translate(434.4618,171.4505)"
             id="g7155">
            <path
               d="m 0,0 c 0,-1.815 1.115,-2.704 2.166,-3.509 l 1.755,-1.3 C 4.272,-5.077 4.602,-5.304 4.849,-5.592 5.076,-5.84 5.261,-6.088 5.261,-6.48 5.261,-7.037 4.994,-7.388 4.622,-7.635 3.921,-8.09 2.828,-8.09 2.166,-8.09 c -1.051,0 -2.681,0.308 -3.302,0.558 l -0.99,-2.808 c 1.196,-0.432 3.116,-0.618 4.499,-0.618 1.672,0 2.868,0.226 3.88,0.66 1.815,0.764 2.723,2.188 2.723,3.859 0,0.99 -0.329,1.651 -0.783,2.249 -0.373,0.475 -0.97,0.991 -1.651,1.508 l -1.589,1.196 c -0.805,0.598 -1.404,1.052 -1.404,1.754 0,0.66 0.454,1.238 1.3,1.341 0.517,0.063 0.991,0.063 1.776,0.063 l 2.516,0 0.62,2.846 -2.807,0 c -0.805,0 -1.858,0 -2.764,-0.102 C 2.023,4.168 0,2.621 0,0"
               id="path7157"
               style="fill:#231f20;fill-opacity:1;fill-rule:nonzero;stroke:none" />
          </g>
          <g
             transform="translate(414.7304,170.5623)"
             id="g7159">
            <path
               d="m 0,0 c -0.206,-1.279 -1.073,-2.064 -2.187,-2.332 -0.269,-0.061 -0.765,-0.103 -1.052,-0.103 l -1.342,0 1.073,5.015 1.444,0 c 0.412,0 0.722,-0.041 0.97,-0.123 C -0.268,2.188 0.228,1.382 0,0 m -0.495,5.304 c -0.392,0.062 -0.95,0.102 -1.507,0.102 l -4.188,0 -3.302,-15.352 3.302,0 1.01,4.684 1.92,0 c 1.01,0 1.671,0.103 2.312,0.289 2.372,0.723 3.9,2.703 4.25,4.809 0.517,2.868 -0.927,4.994 -3.797,5.468"
               id="path7161"
               style="fill:#231f20;fill-opacity:1;fill-rule:nonzero;stroke:none" />
          </g>
          <g
             transform="translate(472.8029,175.9812)"
             id="g7163">
            <path
               d="m 0,0 c 0,0 1.96,9.229 1.97,9.28 l -12.474,0 C -10.51,9.248 -13.097,-2.823 -13.107,-2.873 l 3.087,0 c 0.008,0.032 1.989,9.278 1.989,9.278 l 6.301,0 c 0,0 -1.979,-9.228 -1.989,-9.278 l 9.355,0 -1.241,-5.805 -9.308,0 c -0.007,-0.034 -1.859,-8.679 -1.859,-8.679 l -7.051,0 c -0.006,-0.034 -0.603,-2.866 -0.613,-2.914 l 10.141,0 c 0.005,0.032 1.868,8.699 1.868,8.699 l 9.272,0 C 6.852,-11.539 9.315,-0.049 9.326,0 L 0,0 Z"
               id="path7165"
               style="fill:#ed1c24;fill-opacity:1;fill-rule:nonzero;stroke:none" />
          </g>
        </g>
      </g>
    </g>
  </g>
</svg>
