<svg xmlns="http://www.w3.org/2000/svg" xmlns:xlink="http://www.w3.org/1999/xlink" width="24" height="24" viewBox="0 0 24 24"><defs><linearGradient id="a"><stop offset="0" stop-color="#fc0"/><stop offset="1" stop-color="#ffe16a"/></linearGradient><linearGradient id="b"><stop offset="0"/><stop offset="1" stop-opacity="0"/></linearGradient><linearGradient id="d"><stop offset="0" stop-color="#1f58b6"/><stop offset="1" stop-color="#7aa4e8"/></linearGradient><radialGradient xlink:href="#a" id="f" cx="6.393" cy="15.165" fx="6.393" fy="15.165" r="11.932" gradientUnits="userSpaceOnUse" gradientTransform="matrix(1.4121 -1.10457 1.0703 1.3683 -14.652 5.117)"/><linearGradient xlink:href="#b" id="g" x1="4.943" y1="20.047" x2="30.151" y2="-6.266" gradientUnits="userSpaceOnUse"/><radialGradient xlink:href="#d" id="c" gradientUnits="userSpaceOnUse" gradientTransform="matrix(1.4121 -1.10457 1.0703 1.3683 -14.652 5.117)" cx="6.393" cy="15.165" fx="6.393" fy="15.165" r="11.932"/><radialGradient xlink:href="#d" id="e" gradientUnits="userSpaceOnUse" gradientTransform="matrix(1.4121 -1.10457 1.0703 1.3683 -14.652 5.117)" cx="6.393" cy="15.165" fx="6.393" fy="15.165" r="11.932"/></defs><g color="#000" fill-rule="evenodd"><path d="M23.932 12A11.932 11.932 0 0 1 12 23.932 11.932 11.932 0 0 1 .068 12 11.932 11.932 0 0 1 12 .068 11.932 11.932 0 0 1 23.932 12z" style="isolation:auto;mix-blend-mode:normal" overflow="visible" fill="url(#f)"/><path d="M12.047.006C5.437.006.067 5.374.067 11.984c0 6.61 5.37 11.98 11.98 11.98s11.978-5.37 11.978-11.98S18.657.006 12.047.006zm0 .963c6.09 0 11.015 4.925 11.015 11.014 0 6.09-4.926 11.016-11.015 11.016A11.008 11.008 0 0 1 1.03 11.984C1.03 5.894 5.958.97 12.048.97z" style="line-height:normal;text-indent:0;text-align:start;text-decoration-line:none;text-decoration-style:solid;text-decoration-color:#000;text-transform:none;block-progression:tb;isolation:auto;mix-blend-mode:normal" font-weight="400" font-family="sans-serif" white-space="normal" overflow="visible" opacity=".096" fill="url(#g)"/></g><path d="M3.89 8.517l8.27-5.956 8.128 6.08-.053 10.64-16.17-.02z" fill="#fff" fill-rule="evenodd"/><path d="M9.205 10.12c0-.062 1.06-.108 2.924-.125l2.923-.027.057-1.05.058-1.05-.008 1.15-.007 1.15-2.974.027c-1.934.017-2.975-.01-2.975-.074zM6.725 6.6c-.065-.066-.12-.335-.12-.597 0-.368.045-.5.194-.58.206-.11 10.357-.153 10.64-.044.202.076.317.85.17 1.128-.114.21-.12.21-5.44.21-4.007 0-5.354-.028-5.444-.118z" fill="#fdcc0b"/><path d="M3.71 19.322c-.137-.258-.142-10.643-.005-10.9.054-.1.57-.528 1.15-.95l1.05-.765v-.64c0-1.23.277-1.447 1.835-1.447h1.044l1.585-1.15c.87-.63 1.658-1.15 1.75-1.15.09 0 .876.518 1.748 1.15l1.585 1.15h1.05c.636.002 1.148.052 1.3.128.37.185.6.726.6 1.422l.002.6.903.646c.496.355.99.728 1.098.828.19.177.195.35.195 5.607 0 4.087-.028 5.455-.12 5.545-.09.092-2.09.12-8.392.12-8.078 0-8.276-.004-8.377-.193zm16.67-.027c.18-.177.174-10.674-.004-10.89-.068-.083-.462-.392-.874-.686-1.288-.92-1.3-.936-1.3-1.713 0-.57-.038-.72-.24-.955-.234-.272-.273-.28-1.423-.317l-1.184-.038L13.77 3.56c-.872-.627-1.616-1.14-1.653-1.14-.037 0-.784.518-1.66 1.15L8.864 4.72H7.9c-1.59 0-1.894.23-1.894 1.434v.643l-1.1.81-1.1.807v5.434c0 2.99.03 5.464.068 5.5.036.037 3.74.067 8.227.067 6.215 0 8.19-.028 8.28-.12zm-15.51-.45c-.037-.037.792-.933 1.845-1.99 1.076-1.082 1.883-1.97 1.846-2.03-.036-.06-.137-.108-.223-.108-.087 0-.978.787-1.982 1.75-1.004.96-1.875 1.75-1.937 1.75-.08 0-.11-1.246-.11-4.457 0-3.926.017-4.452.15-4.424.083.018 1.812 1.236 3.843 2.707 2.03 1.47 3.773 2.673 3.873 2.67.1 0 1.86-1.22 3.914-2.71 2.28-1.654 3.768-2.67 3.824-2.615.15.15.07 8.778-.08 8.778-.066 0-.93-.776-1.916-1.725-.987-.947-1.864-1.723-1.947-1.723-.427 0-.166.346 1.573 2.086 1.024 1.026 1.862 1.92 1.862 1.988 0 .1-1.543.125-7.23.125-3.978 0-7.263-.03-7.3-.07zm14.015-.318c-.018-.05-.753-.838-1.632-1.754-.88-.915-1.615-1.732-1.633-1.815-.04-.184.158-.44.34-.44.075 0 .882.707 1.794 1.573 1.58 1.5 1.918 1.788 1.998 1.71.095-.096.17-8.157.077-8.214-.057-.035-1.783 1.153-3.836 2.64-2.13 1.54-3.8 2.685-3.89 2.662-.085-.022-1.81-1.24-3.83-2.705-2.022-1.466-3.72-2.664-3.77-2.664-.11 0-.123 7.284-.015 7.982l.067.436 1.735-1.636c.955-.9 1.82-1.675 1.922-1.724.22-.105.49.076.49.33 0 .09-.317.478-.706.86a73.98 73.98 0 0 0-1.71 1.773l-1.004 1.075H12.1c3.93 0 6.805-.037 6.785-.088zM9.127 9.014l.028-1.145 3.042-.027c1.674-.015 3.015 0 2.982.033-.034.033-1.34.055-2.902.048-2.41-.01-2.86.01-2.966.136-.083.1-.114.443-.095 1.05.016.496-.005.935-.045.975-.04.04-.06-.442-.045-1.07zm-3.97.147c-.33-.248-.614-.49-.63-.536C4.485 8.507 5.653 7.62 5.85 7.62c.132 0 .156.155.156 1 0 .733-.033.998-.125.996-.067-.002-.393-.206-.723-.455zm.75-.535c0-.437-.034-.814-.076-.838-.1-.06-1.142.726-1.104.835.037.104.997.797 1.105.797.042 0 .076-.36.076-.795zm12.362.927c-.038-.037-.068-.466-.068-.953 0-.684.034-.9.145-.943.15-.057 1.242.663 1.38.91.052.093-.12.273-.568.593-.647.46-.77.514-.89.392zm.864-.525c.257-.188.468-.373.468-.41 0-.038-.27-.26-.6-.49l-.6-.42v.91c0 1.013-.053.983.732.41zM17.61 5.66c.005-.115.03-.14.06-.06.03.073.026.16-.007.193s-.057-.026-.053-.132zM6.68 5.41c.067-.07.148-.1.18-.07.03.032-.026.088-.125.125-.142.055-.154.043-.056-.055zm3.325-.788c0-.166 2.033-1.608 2.185-1.55.242.093 2.114 1.48 2.114 1.567 0 .046-.968.083-2.15.083-1.37 0-2.15-.036-2.15-.1zm3.997-.075c-.002-.1-1.745-1.324-1.885-1.324-.118 0-1.778 1.164-1.868 1.31-.034.052.742.09 1.848.09 1.048 0 1.905-.034 1.904-.075z"/><path d="M9.39 12.143l-2.734-1.975-.027-1.846c-.023-1.456-.003-1.82.094-1.725.093.094 1.382.122 5.445.122 4.963 0 5.33-.012 5.426-.175.073-.124.096.38.08 1.724l-.024 1.898-2.7 1.97c-1.483 1.083-2.727 1.972-2.763 1.974-.038.003-1.297-.883-2.8-1.97zm-.285-1.91c0-.036 1.36-.065 3.024-.065h3.023l.026-1.1c.013-.604.077-1.2.142-1.326.232-.45.096-.47-3.222-.502-2.07-.02-3.16.007-3.294.08-.187.1-.2.206-.2 1.544 0 1.06.032 1.45.124 1.48.145.052.375-.017.375-.11z" fill="#fdcc0b"/><path d="M3.874 19.35c-.037-.038-.067-2.513-.067-5.502V8.414l1.1-.808 1.1-.81v-.642c0-1.204.303-1.434 1.893-1.434h.964l1.593-1.15c.876-.632 1.623-1.15 1.66-1.15.037 0 .78.513 1.654 1.14l1.586 1.137 1.183.038c1.15.036 1.188.045 1.422.317.202.235.24.385.24.955 0 .777.012.793 1.3 1.712.412.293.806.602.874.686.178.215.183 10.712.005 10.89-.09.09-2.065.12-8.28.12-4.487 0-8.19-.03-8.226-.067zm16.467-.193c.034-.087.06-2.516.06-5.397V8.52l-.973-.71c-1.305-.952-1.325-.977-1.325-1.758 0-.355-.045-.73-.1-.834-.145-.27-.71-.397-1.763-.397h-.915l-1.578-1.144c-1.31-.948-1.61-1.126-1.765-1.043-.102.055-.826.564-1.607 1.132l-1.42 1.032-1.178.043c-1.506.055-1.597.124-1.67 1.257l-.05.772-1.075.8-1.075.8v5.355c0 2.946.03 5.387.067 5.424.036.035 3.72.065 8.186.065 7.312 0 8.126-.016 8.18-.158zm-15.694-.26c-.045-.07.652-.824 1.844-1.99 1.053-1.032 1.916-1.924 1.916-1.983 0-.27-.338.01-2.042 1.692-1.002.99-1.898 1.8-1.99 1.8-.156 0-.167-.347-.143-4.616.018-2.966.063-4.626.127-4.646.055-.017 1.808 1.205 3.895 2.716 2.088 1.51 3.848 2.747 3.913 2.747.064 0 1.775-1.2 3.802-2.67 2.027-1.466 3.775-2.67 3.885-2.673.196-.005.2.068.226 4.52.022 3.938.006 4.535-.124 4.584-.1.038-.775-.547-2.024-1.752-1.714-1.653-2.303-2.124-2.04-1.633.052.097.908.956 1.903 1.91 1.106 1.058 1.81 1.805 1.81 1.922 0 .185-.19.19-7.443.19-5.57 0-7.46-.03-7.514-.117zm14.756-.106c0-.067-.838-.96-1.862-1.987-1.74-1.74-2-2.086-1.573-2.086.083 0 .96.776 1.947 1.724.987.95 1.85 1.726 1.916 1.726.15 0 .23-8.63.08-8.778-.055-.056-1.542.96-3.823 2.616-2.053 1.49-3.814 2.71-3.914 2.71-.1.002-1.842-1.2-3.872-2.67-2.03-1.472-3.76-2.69-3.842-2.708-.133-.028-.15.498-.15 4.424 0 3.21.03 4.456.11 4.456.062 0 .933-.788 1.937-1.75s1.895-1.75 1.982-1.75c.086 0 .187.05.224.11.038.06-.77.947-1.845 2.03-1.053 1.056-1.882 1.952-1.844 1.99.04.038 3.324.07 7.3.07 5.69 0 7.232-.027 7.232-.125zM9.355 12.27c-1.484-1.07-2.754-2.05-2.822-2.174-.19-.346-.176-4.468.015-4.73.137-.187.328-.195 5.462-.222 4.683-.024 5.348-.008 5.558.13l.238.155-.027 2.41-.028 2.408-2.742 1.986c-1.51 1.093-2.79 1.987-2.85 1.986-.058 0-1.32-.877-2.805-1.948zm5.598-.13l2.7-1.97.026-2.31c.02-1.868 0-2.333-.112-2.425-.1-.084-1.59-.108-5.525-.09l-5.387.027v4.798l2.733 1.975c1.503 1.085 2.762 1.972 2.8 1.97.035-.003 1.28-.892 2.763-1.975zM8.73 10.345c-.092-.032-.125-.42-.125-1.48 0-1.32.016-1.447.194-1.542.255-.137 5.995-.14 6.354-.003.172.065.252.16.23.274-.03.16-.285.18-3.13.225l-3.1.05-.027 1.214c-.028 1.212-.078 1.372-.397 1.26zm.297-1.35l.028-1.226 3.074-.05c1.95-.033 3.073-.087 3.073-.15 0-.065-1.14-.1-3.224-.1H8.754l-.027 1.374c-.024 1.166-.006 1.374.12 1.374.125 0 .156-.216.18-1.224zm9.136.665c-.096-.25-.068-1.975.034-2.136.078-.123.13-.125.337-.014.443.236 1.368 1.01 1.368 1.142 0 .132-1.403 1.166-1.582 1.166-.053 0-.124-.07-.157-.158zm.996-.5c.448-.32.62-.5.566-.594-.137-.246-1.23-.966-1.38-.91-.11.044-.144.26-.144.943 0 1.217.02 1.228.957.56zm-14.077.084c-.37-.262-.673-.55-.674-.642-.004-.21 1.364-1.216 1.555-1.143.11.04.14.298.14 1.156 0 1.323-.02 1.336-1.022.628zm.923-.625c0-.845-.024-1-.157-1-.197 0-1.365.887-1.323 1.004.047.133 1.215.99 1.354.992.093.002.126-.263.126-.997zm3.817-3.966c.035-.184 2.05-1.717 2.27-1.727.13-.006 1.96 1.258 2.27 1.567.078.078.117.184.086.234-.033.052-1.068.092-2.36.092-2.09 0-2.297-.015-2.267-.166zm4.48-.017c0-.086-1.87-1.474-2.113-1.567-.152-.058-2.185 1.384-2.185 1.55 0 .064.778.1 2.15.1 1.18 0 2.15-.037 2.15-.083z"/><path d="M3.974 19.25c-.037-.038-.067-2.48-.067-5.425V8.47l1.075-.8 1.074-.8.05-.773c.074-1.133.165-1.202 1.67-1.257l1.18-.043 1.42-1.032c.78-.568 1.503-1.077 1.606-1.132.155-.083.456.095 1.765 1.043l1.578 1.144h.914c1.052 0 1.617.13 1.76.398.057.104.102.48.102.834 0 .78.02.806 1.325 1.758l.974.71v5.24c0 2.88-.026 5.31-.06 5.397-.054.143-.868.158-8.18.158-4.466 0-8.15-.03-8.186-.066zm15.628-.425c0-.117-.703-.864-1.81-1.923-.994-.953-1.85-1.812-1.902-1.91-.263-.49.326-.02 2.04 1.634 1.25 1.205 1.925 1.79 2.024 1.752.13-.05.146-.646.124-4.583-.026-4.453-.03-4.526-.226-4.52-.11.002-1.858 1.206-3.885 2.673-2.027 1.468-3.738 2.67-3.802 2.67-.065 0-1.825-1.237-3.913-2.748-2.087-1.51-3.84-2.733-3.895-2.716-.064.02-.11 1.68-.126 4.646-.023 4.27-.012 4.616.143 4.616.093 0 .99-.81 1.99-1.8 1.705-1.68 2.043-1.96 2.043-1.692 0 .06-.863.95-1.916 1.982-1.192 1.167-1.89 1.92-1.844 1.992.054.088 1.943.117 7.514.117 7.253 0 7.442-.004 7.442-.19zM15.01 12.23l2.742-1.985.027-2.41.026-2.408-.238-.156c-.21-.136-.875-.152-5.558-.128-5.134.027-5.325.035-5.462.222-.19.262-.205 4.384-.015 4.73.126.232 5.436 4.12 5.628 4.122.06 0 1.34-.893 2.85-1.985zM8.728 8.845l.027-1.375h3.224c2.082 0 3.223.035 3.223.1 0 .063-1.124.117-3.074.15l-3.075.05-.028 1.224c-.023 1.008-.054 1.224-.178 1.224-.128 0-.146-.208-.122-1.374zm10.43.456c.41-.285.744-.577.744-.648 0-.133-.925-.906-1.368-1.142-.356-.19-.428-.01-.43 1.076-.002.944.05 1.232.216 1.232.054 0 .43-.233.84-.518zM6.107 8.616c0-.858-.03-1.115-.14-1.157-.192-.074-1.56.93-1.557 1.142.002.193 1.26 1.116 1.52 1.116.158 0 .176-.117.176-1.102zm8.343-3.888c.03-.05-.01-.156-.087-.234-.31-.31-2.14-1.573-2.27-1.567-.22.01-2.235 1.543-2.27 1.727-.03.15.176.166 2.268.166 1.292 0 2.327-.04 2.36-.092z"/></svg>