<svg xmlns="http://www.w3.org/2000/svg" xmlns:xlink="http://www.w3.org/1999/xlink" width="24" height="24" viewBox="0 0 24 24"><defs><linearGradient id="a"><stop offset="0" stop-color="#fc0"/><stop offset="1" stop-color="#ffe16a"/></linearGradient><linearGradient id="b"><stop offset="0"/><stop offset="1" stop-opacity="0"/></linearGradient><linearGradient id="d"><stop offset="0" stop-color="#1f58b6"/><stop offset="1" stop-color="#7aa4e8"/></linearGradient><radialGradient xlink:href="#a" id="f" cx="6.393" cy="15.165" fx="6.393" fy="15.165" r="11.932" gradientUnits="userSpaceOnUse" gradientTransform="matrix(1.4121 -1.10457 1.0703 1.3683 -14.652 5.117)"/><linearGradient xlink:href="#b" id="g" x1="4.943" y1="20.047" x2="30.151" y2="-6.266" gradientUnits="userSpaceOnUse"/><radialGradient xlink:href="#d" id="c" gradientUnits="userSpaceOnUse" gradientTransform="matrix(1.4121 -1.10457 1.0703 1.3683 -14.652 5.117)" cx="6.393" cy="15.165" fx="6.393" fy="15.165" r="11.932"/><radialGradient xlink:href="#d" id="e" gradientUnits="userSpaceOnUse" gradientTransform="matrix(1.4121 -1.10457 1.0703 1.3683 -14.652 5.117)" cx="6.393" cy="15.165" fx="6.393" fy="15.165" r="11.932"/></defs><g color="#000" fill-rule="evenodd"><path d="M23.932 12A11.932 11.932 0 0 1 12 23.932 11.932 11.932 0 0 1 .068 12 11.932 11.932 0 0 1 12 .068 11.932 11.932 0 0 1 23.932 12z" style="isolation:auto;mix-blend-mode:normal" overflow="visible" fill="url(#f)"/><path d="M12.047.006C5.437.006.067 5.374.067 11.984c0 6.61 5.37 11.98 11.98 11.98s11.978-5.37 11.978-11.98S18.657.006 12.047.006zm0 .963c6.09 0 11.015 4.925 11.015 11.014 0 6.09-4.926 11.016-11.015 11.016A11.008 11.008 0 0 1 1.03 11.984C1.03 5.894 5.958.97 12.048.97z" style="line-height:normal;text-indent:0;text-align:start;text-decoration-line:none;text-decoration-style:solid;text-decoration-color:#000;text-transform:none;block-progression:tb;isolation:auto;mix-blend-mode:normal" font-weight="400" font-family="sans-serif" white-space="normal" overflow="visible" opacity=".096" fill="url(#g)"/></g><path d="M5.21 18.316l1.19-1.19 1.14.02 1.14.02-1.143 1.17-1.142 1.172H4.018l1.19-1.19zm2.352.764c.23-.235.753-.77 1.16-1.19l.742-.76h1.128c.647 0 1.116.03 1.102.068-.013.037-.516.572-1.117 1.188l-1.092 1.12H7.142l.42-.426zm5.92-.73c-.63-.635-1.158-1.17-1.175-1.188-.017-.018.496-.032 1.14-.032h1.17l.994 1.014c.547.558 1.068 1.092 1.16 1.19l.163.174h-2.308l-1.144-1.157zm3.078-.02l-1.127-1.163 1.125-.02 1.125-.02 1.19 1.19 1.19 1.19-1.187-.01-1.19-.01-1.126-1.162zm-5.485-1.62c-2.212-.256-3.645-.928-4.963-2.325-1-1.06-1.667-2.322-2.047-3.874-.17-.7-.334-2.237-.286-2.7l.03-.293.844-.283c.464-.155.862-.282.884-.282.022 0 .028.38.015.845-.036 1.21.272 2.654.723 3.395.125.206.127.2.13-.51.005-1.382.435-2.434 1.39-3.4.848-.855 1.738-1.287 2.96-1.435a5.41 5.41 0 0 1 2.99.527c.53.267.69.385 1.215.894.693.673 1.193 1.72 1.32 2.767l.055.446.103-.297c.15-.43.45-1.975.53-2.734.04-.36.084-.668.1-.684.016-.016.93.197 2.033.474l2.005.503-.024.403c-.097 1.637-.927 3.715-2.058 5.158-1.2 1.53-2.857 2.634-4.686 3.122-.933.25-2.436.38-3.26.284zm.78-2.777c1.453-.228 2.618-1.474 2.727-2.916.123-1.627-.882-3.018-2.48-3.434-1.606-.418-3.31.548-3.847 2.18-.1.304-.124.57-.102 1.123.026.658.055.778.307 1.287.444.9 1.233 1.508 2.236 1.726.572.123.58.124 1.16.032z"/></svg>