<svg xmlns="http://www.w3.org/2000/svg" xmlns:xlink="http://www.w3.org/1999/xlink" width="24" height="24" viewBox="0 0 24 24"><defs><linearGradient id="a"><stop offset="0" stop-color="#177217" stop-opacity=".996"/><stop offset="1" stop-color="#4eab46" stop-opacity=".996"/></linearGradient><linearGradient id="b"><stop offset="0"/><stop offset="1" stop-opacity="0"/></linearGradient><linearGradient id="d"><stop offset="0" stop-color="#1f58b6"/><stop offset="1" stop-color="#7aa4e8"/></linearGradient><radialGradient xlink:href="#a" id="f" cx="6.393" cy="15.165" fx="6.393" fy="15.165" r="11.932" gradientUnits="userSpaceOnUse" gradientTransform="matrix(1.4121 -1.10457 1.0703 1.3683 -14.652 5.117)"/><linearGradient xlink:href="#b" id="g" x1="4.943" y1="20.047" x2="30.151" y2="-6.266" gradientUnits="userSpaceOnUse"/><radialGradient xlink:href="#d" id="c" gradientUnits="userSpaceOnUse" gradientTransform="matrix(1.4121 -1.10457 1.0703 1.3683 -14.652 5.117)" cx="6.393" cy="15.165" fx="6.393" fy="15.165" r="11.932"/><radialGradient xlink:href="#d" id="e" gradientUnits="userSpaceOnUse" gradientTransform="matrix(1.4121 -1.10457 1.0703 1.3683 -14.652 5.117)" cx="6.393" cy="15.165" fx="6.393" fy="15.165" r="11.932"/></defs><g color="#000" fill-rule="evenodd"><path d="M23.932 12A11.932 11.932 0 0 1 12 23.932 11.932 11.932 0 0 1 .068 12 11.932 11.932 0 0 1 12 .068 11.932 11.932 0 0 1 23.932 12z" style="isolation:auto;mix-blend-mode:normal" overflow="visible" fill="url(#f)"/><path d="M12.047.006C5.437.006.067 5.374.067 11.984c0 6.61 5.37 11.98 11.98 11.98s11.978-5.37 11.978-11.98S18.657.006 12.047.006zm0 .963c6.09 0 11.015 4.925 11.015 11.014 0 6.09-4.926 11.016-11.015 11.016A11.008 11.008 0 0 1 1.03 11.984C1.03 5.894 5.958.97 12.048.97z" style="line-height:normal;text-indent:0;text-align:start;text-decoration-line:none;text-decoration-style:solid;text-decoration-color:#000;text-transform:none;block-progression:tb;isolation:auto;mix-blend-mode:normal" font-weight="400" font-family="sans-serif" white-space="normal" overflow="visible" opacity=".096" fill="url(#g)"/></g><g transform="matrix(.40772 0 0 .40772 -13.122 -413.204)" color="#000"><path d="M56.23 1019.903a1.516 1.396 0 0 0-1.52 1.395 1.516 1.396 0 0 0 .01.146 5.237 4.822 0 0 0-2.42 1.438 1.516 1.396 0 0 0-1.103-.438 1.516 1.396 0 0 0-1.514 1.395 1.516 1.396 0 0 0 .265.783 5.237 4.822 0 0 0-2.61 4.162 5.237 4.822 0 0 0 .037.487 5.237 4.822 0 0 0-.427 1.897 5.237 4.822 0 0 0 .935 2.735 1.516 1.967 0 0 0-.244 1.07 1.516 1.967 0 0 0 1.194 1.925v23.38a4.34 4.34 0 0 0 4.352 4.353H68.5a4.34 4.34 0 0 0 4.353-4.352v-3.33h1.217c3.266 0 6.536-2.61 7.26-5.794l2-8.78c.725-3.185-1.36-5.795-4.627-5.795h-5.85v-1.07c0-.078-.017-.154-.02-.232a3.24 2.982 0 0 0 .993-2.146 3.24 2.982 0 0 0-.12-.784 3.24 2.982 0 0 0 .51-1.595 3.24 2.982 0 0 0-2.617-2.925 5.237 4.822 0 0 0 .042-.19 1.103 1.015 0 0 0 .487.104 1.103 1.015 0 0 0 1.102-1.016 1.103 1.015 0 0 0-1.103-1.01 1.103 1.015 0 0 0-.498.107 5.237 4.822 0 0 0-5.136-3.887 5.237 4.822 0 0 0-1.952.346 1.516 1.396 0 0 0 .092-.476 1.516 1.396 0 0 0-1.514-1.395 1.516 1.396 0 0 0-1.52 1.396 1.516 1.396 0 0 0 .023.243 1.516 1.396 0 0 0-.108.06 1.516 1.396 0 0 0-1.152-.493 1.516 1.396 0 0 0-1.146.48 5.237 4.822 0 0 0-1.482-.66 1.516 1.396 0 0 0 .005-.14 1.516 1.396 0 0 0-1.514-1.394zm16.623 19.64h5.18c1.636 0 2.622 1.238 2.26 2.833l-2 8.78c-.364 1.595-1.91 2.832-3.548 2.832h-1.892v-14.445z" style="line-height:normal;text-indent:0;text-align:start;text-decoration-line:none;text-decoration-style:solid;text-decoration-color:#000;text-transform:none;block-progression:tb;isolation:auto;mix-blend-mode:normal" font-weight="400" font-family="sans-serif" white-space="normal" overflow="visible" fill="#164e14" fill-opacity=".996"/><path d="M68.438 1033.617c-3.267 0-6.54 2.61-7.263 5.795l-1.997 8.778c-.724 3.185 1.36 5.795 4.628 5.795h10.22c3.265 0 6.535-2.61 7.26-5.795l1.996-8.778c.724-3.185-1.36-5.795-4.625-5.795h-10.22zm-.674 2.96h10.22c1.635 0 2.622 1.24 2.26 2.835l-1.997 8.778c-.363 1.595-1.913 2.834-3.55 2.834H64.48c-1.637 0-2.625-1.24-2.262-2.834l1.996-8.778c.362-1.595 1.914-2.834 3.55-2.834z" style="line-height:normal;text-indent:0;text-align:start;text-decoration-line:none;text-decoration-style:solid;text-decoration-color:#000;text-transform:none;block-progression:tb;isolation:auto;mix-blend-mode:normal" font-weight="400" font-family="sans-serif" white-space="normal" overflow="visible" fill="#b3b3b3"/><g transform="matrix(1.29838 0 0 1.0039 -66.41 -34.308)" fill="#f2f2f2"><circle style="isolation:auto;mix-blend-mode:normal" cx="91.607" cy="1057.457" r="4.034" overflow="visible"/><circle style="isolation:auto;mix-blend-mode:normal" cx="94.419" cy="1055.175" r="4.034" overflow="visible"/><circle style="isolation:auto;mix-blend-mode:normal" cx="96.224" cy="1058.466" r="4.034" overflow="visible"/><circle style="isolation:auto;mix-blend-mode:normal" cx="99.143" cy="1056.98" r="4.034" overflow="visible"/><circle style="isolation:auto;mix-blend-mode:normal" cx="102.328" cy="1055.759" r="4.034" overflow="visible"/><circle style="isolation:auto;mix-blend-mode:normal" cx="101.054" cy="1058.996" r="4.034" overflow="visible"/><circle style="isolation:auto;mix-blend-mode:normal" cx="94.419" cy="1051.195" r="1.168" overflow="visible"/><circle style="isolation:auto;mix-blend-mode:normal" cx="97.604" cy="1052.628" r="1.168" overflow="visible"/><circle style="isolation:auto;mix-blend-mode:normal" cx="99.727" cy="1051.619" r="1.168" overflow="visible"/><circle style="isolation:auto;mix-blend-mode:normal" cx="99.143" cy="1052.84" r="1.168" overflow="visible"/><circle style="isolation:auto;mix-blend-mode:normal" cx="90.545" cy="1053.318" r="1.168" overflow="visible"/><ellipse style="isolation:auto;mix-blend-mode:normal" cx="89.271" cy="1060.642" rx="1.168" ry="1.645" overflow="visible"/><circle style="isolation:auto;mix-blend-mode:normal" cx="106.665" cy="1055.735" r=".849" overflow="visible"/><circle style="isolation:auto;mix-blend-mode:normal" cx="105.777" cy="1059.103" r="2.495" overflow="visible"/></g><rect ry="4.353" y="1028.193" x="48.788" height="33.476" width="24.019" style="isolation:auto;mix-blend-mode:normal" overflow="visible" fill="#ccc"/><rect ry="3.663" y="1031.06" x="50.559" height="28.169" width="20.211" style="isolation:auto;mix-blend-mode:normal" overflow="visible" fill="#fc0"/><g transform="matrix(1.29838 0 0 1.0039 -66.8 -32.31)" fill="#fff"><circle style="isolation:auto;mix-blend-mode:normal" cx="91.607" cy="1057.457" r="4.034" overflow="visible"/><circle style="isolation:auto;mix-blend-mode:normal" cx="94.419" cy="1055.175" r="4.034" overflow="visible"/><circle style="isolation:auto;mix-blend-mode:normal" cx="96.224" cy="1058.466" r="4.034" overflow="visible"/><circle style="isolation:auto;mix-blend-mode:normal" cx="99.143" cy="1056.98" r="4.034" overflow="visible"/><circle style="isolation:auto;mix-blend-mode:normal" cx="102.328" cy="1055.759" r="4.034" overflow="visible"/><circle style="isolation:auto;mix-blend-mode:normal" cx="101.054" cy="1058.996" r="4.034" overflow="visible"/><circle style="isolation:auto;mix-blend-mode:normal" cx="94.419" cy="1051.195" r="1.168" overflow="visible"/><circle style="isolation:auto;mix-blend-mode:normal" cx="97.604" cy="1052.628" r="1.168" overflow="visible"/><circle style="isolation:auto;mix-blend-mode:normal" cx="99.727" cy="1051.619" r="1.168" overflow="visible"/><circle style="isolation:auto;mix-blend-mode:normal" cx="99.143" cy="1052.84" r="1.168" overflow="visible"/><circle style="isolation:auto;mix-blend-mode:normal" cx="90.545" cy="1053.318" r="1.168" overflow="visible"/><ellipse style="isolation:auto;mix-blend-mode:normal" cx="89.271" cy="1060.642" rx="1.168" ry="1.645" overflow="visible"/><circle style="isolation:auto;mix-blend-mode:normal" cx="106.665" cy="1055.735" r=".849" overflow="visible"/><circle style="isolation:auto;mix-blend-mode:normal" cx="105.777" cy="1059.103" r="2.495" overflow="visible"/></g><ellipse ry="1.015" rx="1.103" style="isolation:auto;mix-blend-mode:normal" cx="55.148" cy="1046.749" overflow="visible" fill="#fff"/><ellipse ry="1.015" rx="1.103" style="isolation:auto;mix-blend-mode:normal" cx="59.188" cy="1043.15" overflow="visible" fill="#fff"/><ellipse ry="1.015" rx="1.103" style="isolation:auto;mix-blend-mode:normal" cx="56.176" cy="1037.714" overflow="visible" fill="#fff"/><ellipse ry="1.015" rx="1.103" style="isolation:auto;mix-blend-mode:normal" cx="60.069" cy="1052.258" overflow="visible" fill="#fff"/><ellipse ry="1.015" rx="1.103" style="isolation:auto;mix-blend-mode:normal" cx="57.131" cy="1056.224" overflow="visible" fill="#fff"/><ellipse ry="1.015" rx="1.103" style="isolation:auto;mix-blend-mode:normal" cx="65.578" cy="1036.686" overflow="visible" fill="#fff"/></g></svg>