<svg xmlns="http://www.w3.org/2000/svg" xmlns:xlink="http://www.w3.org/1999/xlink" width="24" height="24" viewBox="0 0 24 24"><defs><linearGradient id="a"><stop offset="0" stop-color="#b30101" stop-opacity=".996"/><stop offset="1" stop-color="#fa4667" stop-opacity=".996"/></linearGradient><linearGradient id="b"><stop offset="0"/><stop offset="1" stop-opacity="0"/></linearGradient><linearGradient id="d"><stop offset="0" stop-color="#1f58b6"/><stop offset="1" stop-color="#7aa4e8"/></linearGradient><radialGradient xlink:href="#a" id="f" cx="6.393" cy="15.165" fx="6.393" fy="15.165" r="11.932" gradientUnits="userSpaceOnUse" gradientTransform="matrix(1.4121 -1.10457 1.0703 1.3683 -14.652 5.117)"/><linearGradient xlink:href="#b" id="g" x1="4.943" y1="20.047" x2="30.151" y2="-6.266" gradientUnits="userSpaceOnUse"/><radialGradient xlink:href="#d" id="c" gradientUnits="userSpaceOnUse" gradientTransform="matrix(1.4121 -1.10457 1.0703 1.3683 -14.652 5.117)" cx="6.393" cy="15.165" fx="6.393" fy="15.165" r="11.932"/><radialGradient xlink:href="#d" id="e" gradientUnits="userSpaceOnUse" gradientTransform="matrix(1.4121 -1.10457 1.0703 1.3683 -14.652 5.117)" cx="6.393" cy="15.165" fx="6.393" fy="15.165" r="11.932"/><clipPath id="h"><circle style="isolation:auto;mix-blend-mode:normal" cx="12" cy="1040.362" r="11.081" color="#000" overflow="visible" fill="red" fill-rule="evenodd" stroke-linecap="square" stroke-dashoffset=".85"/></clipPath></defs><g color="#000" fill-rule="evenodd"><path d="M23.932 12A11.932 11.932 0 0 1 12 23.932 11.932 11.932 0 0 1 .068 12 11.932 11.932 0 0 1 12 .068 11.932 11.932 0 0 1 23.932 12z" style="isolation:auto;mix-blend-mode:normal" overflow="visible" fill="url(#f)"/><path d="M12.047.006C5.437.006.067 5.374.067 11.984c0 6.61 5.37 11.98 11.98 11.98s11.978-5.37 11.978-11.98S18.657.006 12.047.006zm0 .963c6.09 0 11.015 4.925 11.015 11.014 0 6.09-4.926 11.016-11.015 11.016A11.008 11.008 0 0 1 1.03 11.984C1.03 5.894 5.958.97 12.048.97z" style="line-height:normal;text-indent:0;text-align:start;text-decoration-line:none;text-decoration-style:solid;text-decoration-color:#000;text-transform:none;block-progression:tb;isolation:auto;mix-blend-mode:normal" font-weight="400" font-family="sans-serif" white-space="normal" overflow="visible" opacity=".096" fill="url(#g)"/></g><g transform="translate(0 -1028.362)"><ellipse transform="translate(-.03 -.016)" style="isolation:auto;mix-blend-mode:normal" cx="12.226" cy="1055.095" rx="14.844" ry="12.969" clip-path="url(#h)" color="#000" overflow="visible" fill="#500" fill-opacity=".996" fill-rule="evenodd"/><path d="M3.62 1047.95c0-.266-.027-.244 3.568-2.776.17-.12.31-.246.31-.28 0-.032-.16-.14-.355-.24-.568-.287-1.145-.864-1.417-1.417l-.24-.487v-9.297l.208-.423c.417-.85 1.21-1.48 2.354-1.867l.585-.2h3.294c2.964 0 3.34.014 3.763.134 1.163.33 2.096 1.024 2.51 1.866l.24.487v9.298l-.225.475c-.267.56-.735 1.046-1.345 1.396-.24.137-.438.266-.438.286 0 .02.887.662 1.97 1.427 1.884 1.33 1.972 1.4 1.975 1.63l.003.237H3.62v-.25zm14.198-.514c0-.017-.237-.198-.526-.402l-.527-.37h-9.62l-.208.168c-.113.093-.33.244-.48.335-.152.09-.275.197-.275.233 0 .04 2.332.067 5.818.067 3.2 0 5.818-.014 5.818-.032zm-2.05-1.426c0-.037-.21-.217-.47-.402l-.47-.336H9.1l-.472.336c-.26.185-.47.366-.47.402 0 .04 1.56.067 3.805.067s3.806-.027 3.806-.067zm-6.68-3.296c.523-.32.62-1.122.187-1.555a.962.962 0 0 0-1.486.182c-.517.846.462 1.88 1.297 1.372zm6.645.038c.52-.217.713-.947.382-1.438-.202-.3-.442-.43-.785-.43s-.583.13-.785.43c-.315.467-.143 1.17.346 1.415.312.154.512.16.843.022zm.337-3.775c.406-.113.742-.374.943-.734.176-.313.183-.377.183-1.607 0-1.2-.01-1.303-.173-1.633-.206-.417-.555-.67-1.075-.782-.247-.05-1.656-.07-4.21-.057-4.237.023-4.11.01-4.585.498-.37.38-.422.63-.422 1.978 0 1.147.01 1.228.184 1.566.1.196.267.42.37.496.453.338.542.344 4.643.347 2.383 0 3.98-.026 4.143-.07zm-1.957-6.08c.243-.19.258-.536.033-.775-.16-.17-.163-.17-2.15-.17-2.214 0-2.253.01-2.346.49-.036.187-.01.27.143.42l.188.188h1.97c1.882 0 1.978-.01 2.163-.152z"/><g transform="matrix(1.00527 0 0 1 .008 0)"><path d="M7.37 1043.966c-.01.038-.134.152-.298.268-3.594 2.53-3.567 2.51-3.567 2.775v.25h16.76l-.004-.24c-.002-.226-.09-.298-1.974-1.626-1.078-.76-1.95-1.393-1.96-1.42l-1.63.346-.015.012h.032l.47.336c.26.184.472.365.472.402 0 .04-1.563.068-3.807.068-2.244 0-3.805-.028-3.805-.068 0-.037.212-.218.47-.402l.464-.332-1.606-.37zm-.34 1.756h9.62l.525.37c.29.205.527.386.527.403 0 .018-2.618.03-5.818.03-3.486 0-5.818-.024-5.818-.065 0-.037.122-.14.273-.232.15-.09.368-.243.482-.336l.207-.17z" fill="#b3b3b3"/><rect ry="1.412" y="1033.613" x="6.982" height="4.221" width="9.835" style="isolation:auto;mix-blend-mode:normal" color="#000" overflow="visible" fill="#b3b3b3"/><path d="M7.437 1043.966l1.605.37h5.705l.014-.013 1.634-.346-.012-.01c0-.02.197-.15.438-.287.61-.35 1.08-.836 1.345-1.396l.225-.475v-9.3l-.238-.486c-.415-.842-1.35-1.535-2.512-1.865-.423-.12-.8-.134-3.764-.134H8.583l-.586.197c-1.142.388-1.936 1.018-2.353 1.867l-.207.424v9.297l.24.488c.272.552.848 1.132 1.416 1.42.196.098.355.205.355.238 0 0-.01.01-.01.012zm4.51-12.953c1.987 0 1.99 0 2.15.168.225.24.21.587-.033.778-.185.142-.283.153-2.164.153H9.93l-.187-.19c-.15-.15-.18-.23-.142-.42.094-.478.133-.487 2.346-.487zm-.258 2.21c2.552-.015 3.96.01 4.208.058.52.112.87.365 1.076.782.162.33.172.435.172 1.635 0 1.23-.006 1.294-.182 1.607-.202.36-.538.62-.943.733-.162.045-1.76.07-4.144.07-4.1 0-4.19-.01-4.642-.348-.103-.078-.27-.3-.37-.497-.174-.338-.183-.417-.183-1.564 0-1.35.053-1.6.423-1.978.476-.488.347-.477 4.586-.5zm3.59 6.72c.343 0 .584.133.786.43.33.493.136 1.222-.383 1.44-.33.137-.53.13-.842-.024-.488-.245-.66-.948-.345-1.415.202-.3.442-.432.785-.432zm-6.84.012a.94.94 0 0 1 .784.263c.433.433.338 1.236-.186 1.555-.835.51-1.814-.525-1.3-1.37a.953.953 0 0 1 .703-.448z" fill="#fff"/><circle cy="1041.049" cx="8.569" style="isolation:auto;mix-blend-mode:normal" r="1.149" color="#000" overflow="visible"/><circle cy="1041.049" cx="15.286" style="isolation:auto;mix-blend-mode:normal" r="1.149" color="#000" overflow="visible"/><circle cy="1040.606" cx="8.569" style="isolation:auto;mix-blend-mode:normal" r="1.149" color="#000" overflow="visible" fill="#fc0"/><circle cy="1040.606" cx="15.286" style="isolation:auto;mix-blend-mode:normal" r="1.149" color="#000" overflow="visible" fill="#fc0"/></g></g></svg>