<svg xmlns="http://www.w3.org/2000/svg" xmlns:xlink="http://www.w3.org/1999/xlink" width="24" height="24" viewBox="0 0 24 24"><defs><linearGradient id="b"><stop offset="0"/><stop offset="1" stop-opacity="0"/></linearGradient><linearGradient id="a"><stop offset="0" stop-color="#1f58b6"/><stop offset="1" stop-color="#7aa4e8"/></linearGradient><radialGradient xlink:href="#a" id="e" cx="6.393" cy="15.165" fx="6.393" fy="15.165" r="11.932" gradientUnits="userSpaceOnUse" gradientTransform="matrix(1.4121 -1.10457 1.0703 1.3683 -14.652 5.117)"/><linearGradient xlink:href="#b" id="f" x1="4.943" y1="20.047" x2="30.151" y2="-6.266" gradientUnits="userSpaceOnUse"/><radialGradient xlink:href="#a" id="c" gradientUnits="userSpaceOnUse" gradientTransform="matrix(1.4121 -1.10457 1.0703 1.3683 -14.652 5.117)" cx="6.393" cy="15.165" fx="6.393" fy="15.165" r="11.932"/><radialGradient xlink:href="#a" id="d" gradientUnits="userSpaceOnUse" gradientTransform="matrix(1.4121 -1.10457 1.0703 1.3683 -14.652 5.117)" cx="6.393" cy="15.165" fx="6.393" fy="15.165" r="11.932"/></defs><g color="#000" fill-rule="evenodd"><path d="M23.932 12A11.932 11.932 0 0 1 12 23.932 11.932 11.932 0 0 1 .068 12 11.932 11.932 0 0 1 12 .068 11.932 11.932 0 0 1 23.932 12z" style="isolation:auto;mix-blend-mode:normal" overflow="visible" fill="url(#e)"/><path d="M12.047.006C5.437.006.067 5.374.067 11.984c0 6.61 5.37 11.98 11.98 11.98s11.978-5.37 11.978-11.98S18.657.006 12.047.006zm0 .963c6.09 0 11.015 4.925 11.015 11.014 0 6.09-4.926 11.016-11.015 11.016A11.008 11.008 0 0 1 1.03 11.984C1.03 5.894 5.958.97 12.048.97z" style="line-height:normal;text-indent:0;text-align:start;text-decoration-line:none;text-decoration-style:solid;text-decoration-color:#000;text-transform:none;block-progression:tb;isolation:auto;mix-blend-mode:normal" font-weight="400" font-family="sans-serif" white-space="normal" overflow="visible" opacity=".096" fill="url(#f)"/></g><path d="M5.176 20.735c-.19-.083-.228-.222-.228-.845 0-.407.013-.56.056-.643.113-.22.116-.22 1.87-.22h1.6v-.587h-1.58c-1.772 0-1.795-.01-1.892-.237-.078-.185-.076-1.157.002-1.308.113-.218.116-.22 1.87-.22h1.6v-.587h-1.58c-1.778 0-1.794 0-1.894-.24a.53.53 0 0 1-.045-.217c.007-.053.25-.29.71-.693l.697-.61h11.316l.68.59c.738.64.756.666.646.93-.1.24-.117.24-1.895.24h-1.58v.589h1.58c1.77 0 1.794.01 1.892.236.075.18.075 1.11 0 1.29-.098.234-.12.237-1.893.237h-1.58v.587h1.6c1.777 0 1.773 0 1.873.24.077.185.073 1.156-.005 1.308-.113.22-.07.215-2.77.215h-2.463v-4.522l-.09-.09-.09-.09H10.42l-.092.09-.09.09v4.522h-2.47c-2.058 0-2.49-.01-2.592-.054zm5.65-1.957c0-1.517.01-2.025.044-2.058.063-.063 2.2-.063 2.263 0 .033.033.044.54.044 2.058v2.013h-2.351V18.78zm1.157-.044v-.276h-.551l-.01.235c-.017.34-.017.34.294.327l.267-.01v-.277zm-7.9-3.873c-.168-.072-.82-.783-.868-.947-.09-.3-.293-.105 4.287-4.08 3.125-2.71 4.26-3.675 4.365-3.707a.356.356 0 0 1 .286.01c.096.035.68.518 1.73 1.43.87.758 1.598 1.383 1.615 1.39.017.01.03-.287.03-.654 0-.74.022-.83.232-.958.107-.065.19-.07.944-.07.765 0 .836.01.948.073.226.138.228.15.23 2.01v1.68l1.42 1.232c1.55 1.34 1.57 1.364 1.486 1.644-.057.187-.732.906-.904.963-.18.06-.36.013-.542-.14-.087-.074-1.765-1.527-3.73-3.23-1.964-1.702-3.588-3.095-3.61-3.095-.02 0-1.693 1.434-3.714 3.187-2.02 1.752-3.736 3.214-3.81 3.25-.163.075-.246.078-.395.012zm2.996-1.14c0-.025 4.846-4.246 4.9-4.267.03-.01 1.045.843 2.433 2.045a409.22 409.22 0 0 1 2.474 2.15l.09.09h-4.95c-2.72 0-4.948-.01-4.948-.017zm5.207-1.068a.722.722 0 0 0 .448-.678c0-.798-1.104-1.02-1.41-.286-.2.476.145 1.015.65 1.02a.98.98 0 0 0 .312-.056zm4.16-6.05c-.178-.09-.33-.326-.33-.505.003-.27.235-.53.52-.575.132-.022.132-.023.097-.15a.87.87 0 0 1 .07-.544.865.865 0 0 1 1.01-.446l.175.053.074-.12c.107-.174.348-.383.546-.472.24-.11.655-.106.905.01.24.108.508.374.61.61.114.255.116.666.006.91-.3.665-1.113.92-1.693.53l-.178-.12-.126.104c-.177.15-.48.232-.68.187l-.154-.036-.022.13a.58.58 0 0 1-.327.447c-.2.092-.305.09-.504-.01z" fill="#1d3153"/><path d="M5.176 19.708c-.19-.083-.23-.223-.23-.845 0-.407.015-.562.057-.643.113-.22.116-.22 1.87-.22h1.6v-.588h-1.58c-1.77 0-1.794-.01-1.892-.236-.076-.185-.075-1.157.003-1.308.113-.22.116-.22 1.87-.22h1.6v-.587h-1.58c-1.778 0-1.794 0-1.894-.24a.53.53 0 0 1-.045-.216c.007-.054.25-.293.71-.694l.697-.61H17.677l.68.59c.738.64.756.666.646.93-.1.24-.116.24-1.894.24h-1.582v.589h1.58c1.773 0 1.796.01 1.893.235.077.18.077 1.11 0 1.29-.096.234-.12.237-1.89.237h-1.582V18h1.6c1.778 0 1.774 0 1.875.24.077.185.073 1.156-.006 1.308-.113.22-.07.215-2.77.215h-2.462V15.24l-.09-.09-.09-.09H10.418l-.09.09-.09.09v4.522h-2.47c-2.06 0-2.492-.01-2.592-.053z" fill="#fff"/><path d="M10.826 17.84c0-1.518.01-2.025.044-2.06.063-.062 2.2-.062 2.263 0 .033.034.044.542.044 2.06v2.012H10.827V17.84z" fill="#c83737"/><path d="M11.983 17.795v-.276h-.551l-.01.234c-.017.34-.017.34.294.327l.267-.01v-.275z" fill="#fff"/><path d="M15.52 7.793c.016.01.03-.287.03-.654 0-.742.022-.83.232-.96.107-.064.19-.07.944-.07.764 0 .836.01.948.074.226.138.227.152.23 2.01v1.682" fill="#ccc"/><path d="M17.86 11.054l1.42 1.23c1.55 1.343 1.57 1.366 1.486 1.646-.057.187-.732.906-.905.963-.18.06-.358.013-.54-.14-.087-.074-1.766-1.527-3.73-3.23C13.626 9.82 12 8.428 11.98 8.428c-.022 0-1.693 1.434-3.715 3.187-2.02 1.753-3.736 3.215-3.81 3.25-.162.076-.246.08-.395.013-.168-.074-.818-.785-.868-.95-.09-.298-.293-.104 4.288-4.078 3.124-2.71 4.26-3.676 4.365-3.708a.356.356 0 0 1 .285.01c.096.035.68.518 1.73 1.43.872.758 1.6 1.383 1.615 1.39z" fill="#c83737"/><path d="M17.94 9.47l1.42 1.232c1.55 1.342 1.57 1.365 1.485 1.645-.057.187-.732.906-.904.963-.18.06-.36.013-.54-.14-.088-.074-1.766-1.528-3.73-3.23-1.965-1.703-3.59-3.096-3.61-3.096-.022 0-1.694 1.435-3.715 3.187-2.02 1.754-3.736 3.217-3.81 3.252-.163.076-.246.08-.395.013-.168-.074-.82-.785-.868-.95-.09-.298-.293-.105 4.287-4.078 3.124-2.71 4.26-3.676 4.364-3.708a.356.356 0 0 1 .286.01c.096.034.68.517 1.73 1.43.87.757 1.598 1.382 1.615 1.39z" fill="#fff"/><path d="M7.078 12.694c0-.026 4.848-4.247 4.902-4.268.028-.01 1.044.843 2.432 2.045a409.22 409.22 0 0 1 2.475 2.152l.09.088h-4.95c-2.72 0-4.95-.01-4.95-.016z" fill="#ccc"/><path d="M12.287 11.625a.722.722 0 0 0 .447-.678c0-.798-1.103-1.02-1.41-.286-.2.477.145 1.016.65 1.02a.98.98 0 0 0 .313-.055z" fill="#6b97e0"/><path d="M16.4 5.836c-.175-.09-.33-.325-.327-.504.002-.27.234-.53.518-.575.134-.022.135-.023.1-.15a.87.87 0 0 1 .07-.544.865.865 0 0 1 1.01-.446l.174.053.075-.122c.106-.173.348-.38.545-.47.242-.11.655-.107.905.01.24.108.508.374.61.608.114.256.116.668.006.912-.3.665-1.113.92-1.694.528l-.177-.12-.126.106c-.178.148-.482.232-.68.186l-.155-.036-.022.132a.58.58 0 0 1-.326.446c-.203.092-.307.09-.506-.01z" fill="#f9f9f9"/></svg>