<?xml version="1.0" encoding="UTF-8"?>
<!-- Created with Inkscape (http://www.inkscape.org/) -->
<svg width="24" height="24" version="1.1" viewBox="0 0 24 24" xmlns="http://www.w3.org/2000/svg" xmlns:cc="http://creativecommons.org/ns#" xmlns:dc="http://purl.org/dc/elements/1.1/" xmlns:rdf="http://www.w3.org/1999/02/22-rdf-syntax-ns#">
 <defs>
  <radialGradient id="radialGradient14151" cx="6.3932" cy="15.165" r="11.932" gradientTransform="matrix(1.4121 -1.1046 1.0703 1.3683 -14.652 5.1167)" gradientUnits="userSpaceOnUse">
   <stop stop-color="#1f58b6" offset="0"/>
   <stop stop-color="#7aa4e8" offset="1"/>
  </radialGradient>
  <linearGradient id="linearGradient14183" x1="4.9426" x2="30.151" y1="20.047" y2="-6.2656" gradientUnits="userSpaceOnUse">
   <stop offset="0"/>
   <stop stop-opacity="0" offset="1"/>
  </linearGradient>
 </defs>
 <metadata>
  <rdf:RDF>
   <cc:Work rdf:about="">
    <dc:format>image/svg+xml</dc:format>
    <dc:type rdf:resource="http://purl.org/dc/dcmitype/StillImage"/>
    <dc:title/>
   </cc:Work>
  </rdf:RDF>
 </metadata>
 <g fill-rule="evenodd" shape-rendering="auto">
  <path d="m23.932 12a11.932 11.932 0 0 1-11.932 11.932 11.932 11.932 0 0 1-11.932-11.932 11.932 11.932 0 0 1 11.932-11.932 11.932 11.932 0 0 1 11.932 11.932z" color="#000000" color-rendering="auto" fill="url(#radialGradient14151)" image-rendering="auto" solid-color="#000000" style="isolation:auto;mix-blend-mode:normal"/>
  <path d="m12.047 0.0058594c-6.6103-1e-7 -11.979 5.3682-11.979 11.979 0 6.6103 5.3682 11.979 11.979 11.979 6.6103 0 11.979-5.3682 11.979-11.979 0-6.6103-5.3682-11.979-11.979-11.979zm0 0.96289c6.0895 0 11.016 4.9261 11.016 11.016s-4.9261 11.016-11.016 11.016-11.016-4.9261-11.016-11.016c-1e-7 -6.0895 4.9261-11.016 11.016-11.016z" color="#000000" color-rendering="auto" fill="url(#linearGradient14183)" image-rendering="auto" opacity=".096" solid-color="#000000" style="block-progression:tb;isolation:auto;mix-blend-mode:normal;text-decoration-color:#000000;text-decoration-line:none;text-decoration-style:solid;text-indent:0;text-transform:none;white-space:normal"/>
 </g>
 <g transform="translate(0 -1028.4)">
  <path d="m18.191 1048.9c-0.08926-0.013-0.21636-0.051-0.28244-0.084-0.06608-0.034-1.3395-1.2778-2.8297-2.7661l-2.7096-2.7061-2.6922 2.6901c-2.9707 2.9685-2.8566 2.869-3.2949 2.8698-0.31399 0-0.52985-0.086-0.74118-0.2975-0.29204-0.292-0.37586-0.692-0.2277-1.0866 0.063816-0.17 0.31193-0.4285 2.7715-2.8875 1.4858-1.4853 2.7014-2.7169 2.7014-2.7366 0-0.021-0.21254-0.248-0.47231-0.5072l-0.15544-0.1612-0.22723 0.057c-0.42323 0.1061-0.83974 0.048-1.1822-0.1648-0.20991-0.1305-3.4685-3.4048-3.6648-3.6722-0.1714-0.2335-0.42675-0.5986-0.53714-0.9529-0.18398-0.5905-0.18936-2.3021 0.35584-2.5716 0.44125-0.2181 1.4256 0.7547 1.8055 1.0967 0.1671 0.1587 0.4362 0.316 2.8865 2.7602l2.6747 2.6678 0.50038-0.5004 0.50038-0.5003-0.23507-0.2491c-0.12929-0.1371-0.2696-0.3168-0.3118-0.3995-0.10697-0.2095-0.12823-0.562-0.04871-0.8075 0.05799-0.1792 0.17426-0.3033 2.008-2.1433 1.0705-1.0742 1.9893-1.9758 2.0418-2.0036 0.05243-0.028 0.17744-0.05 0.27777-0.05 0.16485 0 0.19565 0.013 0.31951 0.137 0.11907 0.1191 0.13706 0.1582 0.13706 0.2978 0 0.089-0.01675 0.2055-0.03724 0.2602-0.02047 0.055-0.71538 0.7786-1.5442 1.6089l-1.507 1.5094 0.36133 0.3614 0.36133 0.3613 1.5095-1.507c0.83021-0.8289 1.5542-1.5238 1.6089-1.5442 0.05466-0.021 0.17172-0.037 0.26012-0.037 0.13963 0 0.17872 0.018 0.2978 0.1371 0.12396 0.124 0.13707 0.1545 0.13707 0.32 0 0.1007-0.01754 0.2177-0.039 0.2601-0.02144 0.042-0.71644 0.7564-1.5444 1.5865l-1.5054 1.5093 0.72346 0.7234 1.4916-1.4882c0.8204-0.8183 1.5459-1.5151 1.6122-1.5483 0.27788-0.1389 0.63097 0.01 0.70894 0.3001 0.07906 0.2935 0.11944 0.2456-1.9887 2.3597-1.1647 1.168-2.0045 1.9829-2.0889 2.027-0.09409 0.05-0.23127 0.08-0.41106 0.091-0.2336 0.014-0.29572 0.01-0.46249-0.072-0.1073-0.05-0.30161-0.191-0.43859-0.3202l-0.24594-0.232-0.50061 0.5016-0.50061 0.5014 2.6841 2.683c2.9866 2.9853 2.8769 2.8587 2.8752 3.3185-0.0024 0.6475-0.53594 1.0986-1.1852 1.0023z" fill="#1d3153"/>
  <path d="m18.274 1047.3c-0.08926-0.013-0.21636-0.051-0.28244-0.084-0.06608-0.034-1.3395-1.2778-2.8297-2.7662l-2.7096-2.706-2.6922 2.69c-2.9707 2.9685-2.8566 2.8691-3.2949 2.8698-0.31399 0-0.52985-0.086-0.74118-0.2975-0.29204-0.292-0.37586-0.6919-0.2277-1.0865 0.063816-0.1701 0.31193-0.4286 2.7715-2.8876 1.4858-1.4853 2.7014-2.7169 2.7014-2.7366 0-0.02-0.21254-0.248-0.47231-0.5072l-0.15544-0.1612-0.22723 0.057c-0.42323 0.1062-0.83974 0.048-1.1822-0.1648-0.20991-0.1304-3.4685-3.4047-3.6648-3.6722-0.1714-0.2335-0.42675-0.5985-0.53714-0.9529-0.18398-0.5904-0.18936-2.3021 0.35584-2.5716 0.44125-0.2181 1.4256 0.7548 1.8055 1.0968 0.1671 0.1586 0.4362 0.316 2.8865 2.7601l2.6747 2.6679 1.0008-1.0008-0.23507-0.2491c-0.12929-0.1371-0.2696-0.3168-0.3118-0.3995-0.10697-0.2095-0.12823-0.5619-0.04871-0.8075 0.05799-0.1791 0.17426-0.3032 2.008-2.1433 1.0705-1.0742 1.9893-1.9758 2.0418-2.0035 0.05243-0.028 0.17744-0.051 0.27777-0.051 0.16485 0 0.19565 0.013 0.31951 0.1371 0.11907 0.119 0.13706 0.1581 0.13706 0.2978 0 0.089-0.01675 0.2055-0.03724 0.2601-0.02047 0.055-0.71538 0.7787-1.5442 1.6089l-1.507 1.5095 0.72266 0.7226 1.5095-1.507c0.83021-0.8288 1.5542-1.5237 1.6089-1.5442 0.05466-0.021 0.17172-0.037 0.26012-0.037 0.13963 0 0.17872 0.018 0.2978 0.1371 0.12396 0.124 0.13707 0.1546 0.13707 0.32 0 0.1008-0.01754 0.2178-0.039 0.2602-0.02144 0.042-0.71644 0.7563-1.5444 1.5864l-1.5054 1.5093 0.72346 0.7234 1.4916-1.4881c0.8204-0.8184 1.5459-1.5152 1.6122-1.5484 0.27788-0.1388 0.63097 0.01 0.70894 0.3002 0.07906 0.2935 0.11944 0.2455-1.9887 2.3597-1.1647 1.168-2.0045 1.9829-2.0889 2.027-0.09409 0.05-0.23127 0.079-0.41106 0.091-0.2336 0.014-0.29572 0.01-0.46249-0.072-0.1073-0.05-0.30161-0.191-0.43859-0.3203l-0.24594-0.232-0.50061 0.5016-0.50061 0.5014 2.6841 2.683c2.9866 2.9854 2.8769 2.8588 2.8752 3.3185-0.0024 0.6475-0.53594 1.0987-1.1852 1.0023z" fill="#fff"/>
  <g transform="matrix(1.0214 0 0 1.187 28.449 -203.25)">
   <rect x="-15.777" y="1051" width="3.4913" height="5.9331" ry=".34251" fill="#00f" style="paint-order:stroke fill markers"/>
   <rect x="-12.285" y="1051" width="3.4913" height="5.9331" ry=".34251" fill="#fff" style="paint-order:stroke fill markers"/>
   <rect x="-8.7946" y="1051" width="3.4913" height="5.9331" ry=".34251" fill="#f00" style="paint-order:stroke fill markers"/>
   <rect x="-15.736" y="1051" width="10.371" height="5.8151" ry=".34451" fill="none" stroke="#fff" stroke-linecap="round" stroke-width=".4961" style="paint-order:stroke fill markers"/>
  </g>
 </g>
</svg>
