<svg xmlns="http://www.w3.org/2000/svg" xmlns:xlink="http://www.w3.org/1999/xlink" width="24" height="24" viewBox="0 0 24 24"><defs><linearGradient id="b"><stop offset="0"/><stop offset="1" stop-opacity="0"/></linearGradient><linearGradient id="a"><stop offset="0" stop-color="#1f58b6"/><stop offset="1" stop-color="#7aa4e8"/></linearGradient><radialGradient xlink:href="#a" id="e" cx="6.393" cy="15.165" fx="6.393" fy="15.165" r="11.932" gradientUnits="userSpaceOnUse" gradientTransform="matrix(1.4121 -1.10457 1.0703 1.3683 -14.652 5.117)"/><linearGradient xlink:href="#b" id="f" x1="4.943" y1="20.047" x2="30.151" y2="-6.266" gradientUnits="userSpaceOnUse"/><radialGradient xlink:href="#a" id="c" gradientUnits="userSpaceOnUse" gradientTransform="matrix(1.4121 -1.10457 1.0703 1.3683 -14.652 5.117)" cx="6.393" cy="15.165" fx="6.393" fy="15.165" r="11.932"/><radialGradient xlink:href="#a" id="d" gradientUnits="userSpaceOnUse" gradientTransform="matrix(1.4121 -1.10457 1.0703 1.3683 -14.652 5.117)" cx="6.393" cy="15.165" fx="6.393" fy="15.165" r="11.932"/></defs><g color="#000" fill-rule="evenodd"><path d="M23.932 12A11.932 11.932 0 0 1 12 23.932 11.932 11.932 0 0 1 .068 12 11.932 11.932 0 0 1 12 .068 11.932 11.932 0 0 1 23.932 12z" style="isolation:auto;mix-blend-mode:normal" overflow="visible" fill="url(#e)"/><path d="M12.047.006C5.437.006.067 5.374.067 11.984c0 6.61 5.37 11.98 11.98 11.98s11.978-5.37 11.978-11.98S18.657.006 12.047.006zm0 .963c6.09 0 11.015 4.925 11.015 11.014 0 6.09-4.926 11.016-11.015 11.016A11.008 11.008 0 0 1 1.03 11.984C1.03 5.894 5.958.97 12.048.97z" style="line-height:normal;text-indent:0;text-align:start;text-decoration-line:none;text-decoration-style:solid;text-decoration-color:#000;text-transform:none;block-progression:tb;isolation:auto;mix-blend-mode:normal" font-weight="400" font-family="sans-serif" white-space="normal" overflow="visible" opacity=".096" fill="url(#f)"/></g><path d="M18.19 20.51a1.126 1.126 0 0 1-.28-.084c-.067-.034-1.34-1.278-2.83-2.766l-2.71-2.706-2.693 2.69c-2.97 2.968-2.856 2.87-3.295 2.87-.314 0-.53-.086-.74-.298a.994.994 0 0 1-.228-1.086c.063-.17.312-.43 2.77-2.888 1.487-1.485 2.702-2.717 2.702-2.736 0-.02-.212-.248-.472-.508l-.155-.16-.23.056c-.422.106-.838.048-1.18-.165-.21-.13-3.47-3.405-3.666-3.673-.17-.233-.426-.598-.537-.953-.184-.59-.19-2.302.356-2.57.44-.22 1.426.753 1.806 1.095.166.158.435.315 2.885 2.76l2.675 2.667.5-.5.5-.5-.234-.25a2.39 2.39 0 0 1-.312-.4c-.107-.208-.128-.56-.05-.806.06-.18.175-.303 2.01-2.143 1.07-1.074 1.988-1.976 2.04-2.003a.734.734 0 0 1 .28-.05c.163 0 .194.013.318.137.12.12.137.16.137.298 0 .09-.018.206-.038.26-.02.056-.715.78-1.544 1.61l-1.507 1.51.362.36.36.362 1.51-1.507c.83-.83 1.555-1.524 1.61-1.545a.9.9 0 0 1 .26-.037c.14 0 .18.02.298.14.124.123.137.153.137.32a.76.76 0 0 1-.04.26c-.02.04-.716.755-1.544 1.585l-1.505 1.51.362.36.36.363L18.134 9.9c.82-.82 1.546-1.515 1.612-1.55.278-.138.63.01.71.3.078.295.12.247-1.99 2.36-1.164 1.17-2.004 1.984-2.09 2.028-.093.05-.23.08-.41.09-.233.015-.295.01-.462-.07a2.104 2.104 0 0 1-.44-.32l-.245-.233-.5.502-.5.5 2.683 2.684c2.988 2.986 2.878 2.86 2.876 3.32-.002.647-.535 1.098-1.185 1.002z" fill="#1d3153"/><path d="M18.274 18.915a1.126 1.126 0 0 1-.282-.084c-.066-.033-1.34-1.277-2.83-2.765l-2.71-2.706-2.692 2.69c-2.97 2.968-2.856 2.868-3.295 2.87-.314 0-.53-.087-.74-.3a.994.994 0 0 1-.23-1.085c.065-.17.313-.43 2.773-2.888 1.486-1.485 2.7-2.717 2.7-2.736 0-.02-.21-.247-.47-.507l-.156-.16-.228.056c-.423.105-.84.047-1.182-.166-.21-.13-3.468-3.404-3.665-3.672-.17-.233-.426-.598-.537-.953-.184-.59-.19-2.303.356-2.572.44-.218 1.426.755 1.805 1.097.17.158.438.316 2.888 2.76l2.675 2.668.5-.5.5-.5-.235-.25a2.39 2.39 0 0 1-.31-.4c-.108-.21-.13-.562-.05-.807.058-.18.174-.304 2.008-2.144 1.07-1.074 1.99-1.975 2.042-2.003a.732.732 0 0 1 .277-.052c.165 0 .196.013.32.137.12.12.137.158.137.298 0 .09-.017.205-.037.26-.02.055-.716.78-1.544 1.61L14.555 7.62l.36.363.362.36 1.51-1.506c.83-.83 1.554-1.524 1.61-1.544a.9.9 0 0 1 .26-.037c.138 0 .177.018.296.137.124.124.138.154.138.32a.76.76 0 0 1-.04.26c-.02.042-.716.756-1.544 1.586L16 9.07l.362.36.362.362 1.492-1.488c.82-.818 1.546-1.515 1.612-1.548.278-.14.63.01.71.3.078.293.118.245-1.99 2.36-1.165 1.167-2.004 1.982-2.09 2.026-.093.05-.23.08-.41.09-.233.015-.296.01-.462-.07a2.1 2.1 0 0 1-.44-.32l-.245-.233-.5.5-.5.502 2.684 2.683c2.987 2.986 2.877 2.86 2.875 3.32-.003.646-.537 1.097-1.186 1z" fill="#fff"/></svg>