<svg xmlns="http://www.w3.org/2000/svg" xmlns:xlink="http://www.w3.org/1999/xlink" width="24" height="24" viewBox="0 0 24 24"><defs><linearGradient id="a"><stop offset="0" stop-color="#e35f00" stop-opacity=".996"/><stop offset="1" stop-color="#ff950d" stop-opacity=".996"/></linearGradient><linearGradient id="b"><stop offset="0"/><stop offset="1" stop-opacity="0"/></linearGradient><linearGradient id="d"><stop offset="0" stop-color="#1f58b6"/><stop offset="1" stop-color="#7aa4e8"/></linearGradient><radialGradient xlink:href="#a" id="f" cx="6.393" cy="15.165" fx="6.393" fy="15.165" r="11.932" gradientUnits="userSpaceOnUse" gradientTransform="matrix(1.4121 -1.10457 1.0703 1.3683 -14.652 5.117)"/><linearGradient xlink:href="#b" id="g" x1="4.943" y1="20.047" x2="30.151" y2="-6.266" gradientUnits="userSpaceOnUse"/><radialGradient xlink:href="#d" id="c" gradientUnits="userSpaceOnUse" gradientTransform="matrix(1.4121 -1.10457 1.0703 1.3683 -14.652 5.117)" cx="6.393" cy="15.165" fx="6.393" fy="15.165" r="11.932"/><radialGradient xlink:href="#d" id="e" gradientUnits="userSpaceOnUse" gradientTransform="matrix(1.4121 -1.10457 1.0703 1.3683 -14.652 5.117)" cx="6.393" cy="15.165" fx="6.393" fy="15.165" r="11.932"/></defs><g color="#000" fill-rule="evenodd"><path d="M23.932 12A11.932 11.932 0 0 1 12 23.932 11.932 11.932 0 0 1 .068 12 11.932 11.932 0 0 1 12 .068 11.932 11.932 0 0 1 23.932 12z" style="isolation:auto;mix-blend-mode:normal" overflow="visible" fill="url(#f)"/><path d="M12.047.006C5.437.006.067 5.374.067 11.984c0 6.61 5.37 11.98 11.98 11.98s11.978-5.37 11.978-11.98S18.657.006 12.047.006zm0 .963c6.09 0 11.015 4.925 11.015 11.014 0 6.09-4.926 11.016-11.015 11.016A11.008 11.008 0 0 1 1.03 11.984C1.03 5.894 5.958.97 12.048.97z" style="line-height:normal;text-indent:0;text-align:start;text-decoration-line:none;text-decoration-style:solid;text-decoration-color:#000;text-transform:none;block-progression:tb;isolation:auto;mix-blend-mode:normal" font-weight="400" font-family="sans-serif" white-space="normal" overflow="visible" opacity=".096" fill="url(#g)"/></g><g transform="translate(0 -1028.362)"><path d="M6.6 1048.64c-.29-.085-.7-.455-.872-.782-.31-.592.018-1.452.674-1.77.675-.326 1.34-.194 1.83.362.942 1.074-.208 2.617-1.633 2.19zm9.984-.065c-.996-.468-1.176-1.58-.368-2.272.96-.82 2.465-.2 2.465 1.017 0 1.002-1.157 1.695-2.096 1.255zm-7.925-3.782a1.95 1.95 0 0 1-1.06-.606c-.332-.347-.455-.652-.453-1.124.004-.683.39-1.23 1.287-1.824.184-.123.335-.273.335-.333 0-.093-2.653-5.597-2.85-5.913-.046-.073-.327-.107-.905-.107-.725 0-.868-.024-1.07-.182-.32-.25-.416-.543-.3-.9.16-.483.423-.558 1.836-.526 1.5.033 1.534.05 2.135 1.186l.428.806 5.597.042c6.214.048 6.027.03 6.228.608.15.428.128 4.447-.026 4.814-.245.587.15.52-8.18 1.37-1.192.123-2.286.26-2.43.307a.727.727 0 0 0-.377.29c-.15.28.054.6.43.674.152.03 2.386.055 4.967.055h4.693l.21.21c.272.272.273.647.004.96l-.208.24-4.985.013c-2.74.01-5.13-.02-5.308-.063zm3.903-4.095c.096-.096-.408-1.623-.57-1.726-.14-.09-1.87-.085-2.012 0-.087.055-.01.278.343.992l.454.92.852-.054c.467-.03.888-.092.933-.137zm2.893-.225c.082-.024.15-.09.148-.144-.002-.18-.342-1.198-.44-1.314-.14-.17-2.024-.16-2.09.012-.027.07.037.386.142.705.32.97.228.908 1.223.84.476-.03.933-.077 1.016-.1zm2.584-.278l.513-.053.026-.547c.017-.38-.01-.57-.086-.618-.14-.09-2.127-.093-2.266 0-.08.05-.073.18.03.574.072.28.167.575.21.655.08.15.082.15 1.572 0zm-6.31-2.192c.05-.133-.26-1.104-.418-1.3-.105-.13-2.42-.154-2.498-.024-.057.09.522 1.292.67 1.39.054.034.57.063 1.146.064.866 0 1.058-.022 1.1-.13zm3.23.05c.06-.096-.2-1.2-.318-1.35-.102-.132-2.246-.153-2.326-.024-.06.097.258 1.173.396 1.34.112.135 2.168.165 2.25.033zm3.593-.688v-.727l-1.433-.023c-1.638-.027-1.6-.047-1.426.685.217.918.07.842 1.555.815l1.303-.023v-.727z" fill="#500"/><path d="M6.565 1047.79c-.29-.085-.7-.454-.87-.782-.31-.592.017-1.452.673-1.77.675-.326 1.34-.194 1.83.363.943 1.074-.208 2.618-1.633 2.19zm9.985-.065c-.996-.467-1.176-1.58-.367-2.27.96-.823 2.464-.202 2.464 1.016 0 1.003-1.158 1.695-2.097 1.255zm-7.925-3.782a1.95 1.95 0 0 1-1.06-.605c-.33-.347-.454-.653-.452-1.124.004-.684.39-1.23 1.287-1.825.184-.123.335-.272.335-.333 0-.093-2.652-5.596-2.85-5.913-.045-.073-.326-.106-.903-.106-.726 0-.87-.024-1.07-.182-.32-.252-.417-.544-.3-.9.16-.483.422-.558 1.835-.527 1.5.033 1.533.05 2.134 1.186l.43.806 5.596.042c6.214.048 6.027.03 6.23.61.148.427.126 4.445-.028 4.813-.245.587.15.52-8.18 1.37-1.192.123-2.286.26-2.43.306a.727.727 0 0 0-.377.29c-.148.28.055.6.433.675.15.03 2.384.055 4.966.055h4.692l.21.21c.27.27.272.647.003.96l-.207.24-4.985.013c-2.74.01-5.13-.02-5.308-.063zm3.904-4.095c.095-.096-.41-1.622-.572-1.726-.14-.09-1.87-.085-2.01 0-.088.055-.012.28.34.992l.455.92.852-.054c.47-.03.89-.092.934-.137zm2.892-.224c.082-.024.15-.09.148-.145-.002-.18-.342-1.197-.44-1.314-.14-.17-2.024-.16-2.09.012-.027.07.037.386.142.705.32.97.228.908 1.223.842.477-.032.934-.078 1.017-.102zm2.585-.278l.512-.053.025-.548c.018-.38-.008-.57-.085-.618-.14-.09-2.127-.093-2.266 0-.08.05-.073.18.03.575.073.28.167.574.21.653.08.15.082.15 1.573 0zm-6.31-2.193c.05-.133-.262-1.104-.42-1.3-.103-.13-2.418-.153-2.497-.024-.057.09.522 1.293.67 1.39.054.034.57.063 1.146.064.866 0 1.06-.022 1.1-.13zm3.23.05c.06-.096-.2-1.2-.32-1.35-.1-.132-2.245-.153-2.325-.023-.06.098.258 1.174.396 1.34.112.135 2.168.165 2.25.034zm3.592-.688v-.727l-1.434-.023c-1.638-.027-1.6-.047-1.426.685.217.92.07.842 1.555.815l1.304-.023v-.726z" fill="#fff"/><circle style="isolation:auto;mix-blend-mode:normal" cx="7.031" cy="1046.456" r="1" color="#000" overflow="visible" fill="gray"/><circle style="isolation:auto;mix-blend-mode:normal" cx="17.156" cy="1046.456" r="1" color="#000" overflow="visible" fill="gray"/></g></svg>