<svg xmlns="http://www.w3.org/2000/svg" xmlns:xlink="http://www.w3.org/1999/xlink" width="24" height="24" viewBox="0 0 24 24"><defs><linearGradient id="a"><stop offset="0" stop-color="#177217" stop-opacity=".996"/><stop offset="1" stop-color="#4eab46" stop-opacity=".996"/></linearGradient><linearGradient id="b"><stop offset="0"/><stop offset="1" stop-opacity="0"/></linearGradient><linearGradient id="d"><stop offset="0" stop-color="#1f58b6"/><stop offset="1" stop-color="#7aa4e8"/></linearGradient><radialGradient xlink:href="#a" id="f" cx="6.393" cy="15.165" fx="6.393" fy="15.165" r="11.932" gradientUnits="userSpaceOnUse" gradientTransform="matrix(1.4121 -1.10457 1.0703 1.3683 -14.652 5.117)"/><linearGradient xlink:href="#b" id="g" x1="4.943" y1="20.047" x2="30.151" y2="-6.266" gradientUnits="userSpaceOnUse"/><radialGradient xlink:href="#d" id="c" gradientUnits="userSpaceOnUse" gradientTransform="matrix(1.4121 -1.10457 1.0703 1.3683 -14.652 5.117)" cx="6.393" cy="15.165" fx="6.393" fy="15.165" r="11.932"/><radialGradient xlink:href="#d" id="e" gradientUnits="userSpaceOnUse" gradientTransform="matrix(1.4121 -1.10457 1.0703 1.3683 -14.652 5.117)" cx="6.393" cy="15.165" fx="6.393" fy="15.165" r="11.932"/><clipPath id="h"><circle style="isolation:auto;mix-blend-mode:normal" cx="11.999" cy="12.001" r="10.96" color="#000" overflow="visible" fill="maroon" stroke-opacity=".428"/></clipPath></defs><g color="#000" fill-rule="evenodd"><path d="M23.932 12A11.932 11.932 0 0 1 12 23.932 11.932 11.932 0 0 1 .068 12 11.932 11.932 0 0 1 12 .068 11.932 11.932 0 0 1 23.932 12z" style="isolation:auto;mix-blend-mode:normal" overflow="visible" fill="url(#f)"/><path d="M12.047.006C5.437.006.067 5.374.067 11.984c0 6.61 5.37 11.98 11.98 11.98s11.978-5.37 11.978-11.98S18.657.006 12.047.006zm0 .963c6.09 0 11.015 4.925 11.015 11.014 0 6.09-4.926 11.016-11.015 11.016A11.008 11.008 0 0 1 1.03 11.984C1.03 5.894 5.958.97 12.048.97z" style="line-height:normal;text-indent:0;text-align:start;text-decoration-line:none;text-decoration-style:solid;text-decoration-color:#000;text-transform:none;block-progression:tb;isolation:auto;mix-blend-mode:normal" font-weight="400" font-family="sans-serif" white-space="normal" overflow="visible" opacity=".096" fill="url(#g)"/></g><path style="isolation:auto;mix-blend-mode:normal" d="M3.756 17.37a.66.66 0 0 0-.662.663c0 .01.005.02.006.03h-.006v6H21.03v-6c.002-.01.007-.02.007-.03a.662.662 0 0 0-.664-.662H3.756z" clip-path="url(#h)" color="#000" overflow="visible" fill="#250"/><g transform="matrix(.15636 0 0 .15636 27.4 -149.19)" fill="#250"><path d="M-111.875 977.862l-.25 6.875 6.75 18.25s1 2 1.125 3.25-.75 8 4.375 11.75 9 5.625 17.625 6.375 18.125-2.375 21.375-4 5.375-2.25 5.625-3.25.625-2.625-.75-3.125-2.625-2-2.625-2l3.25-1.125s3.75-3.25 4.875-4.875 1.125-4.75 1-5.625-1.25-2.25-1.25-2.25 3.125 0-1.75-.625-17.5-1.625-17.5-1.625-2 0-3.125-1.375-.375-2.625-2.125-4.375-9.25-4.375-9.25-4.375l-7.5-14.25s-1.625-1.5-2.5-2.375-1.375 2.625-1.375 2.625l-.25 14.125s.25 1.125-.5 1.5-3.125-2.25-3.125-2.25-3.875-4.75-5.625-5.875-6.5-1.375-6.5-1.375zM-125.75 1039.987s14.25-11.75 26.625-13.375 25.125 0 32.25 1.875 19.5 8.375 20.75 9.375 3.5 3 3.5 3 .375.875.125 1.625-2.375.75-3.125.75-9.125-1.5-11.125-1.75-5.75-1.625-7.875-.625-2.875 1.875-1.75 2.625 10.375 3.875 12.125 5.375 4.375 3.125 4.75 4.125-7.875.125-7.875.125-21.875-4.125-29.125-3.125-22 7.875-25 10.125-14 15.25-15.125 18.75-4.75 8.5-4.75 8.5-3.125 2.125-5.75 1.375-5-3.75-5.5-7.875 3.125-17.625 5-21.25 5.125-10.25 5.125-10.25l6 3.875s-2-7.5-5.625-11.125-9.375-9.25-12.125-10.625-8.125-3.625-8.625-7.875-.125-6.75 2.875-8 6.875-.5 10.125 1.75 8.75 11.625 9.625 13.375 4.5 9.25 4.5 9.25z" fill-rule="evenodd"/><path d="M-99.875 1062.612s-3.75.875-6.625 3.875-10.875 16.5-10.875 16.5-4 3.75-5.5 4.25-3.75.5-3.75.5 5-9 5.875-10.25 6.25-7.875 8.75-10.25 6.5-4.125 8.625-4.75 3.5.125 3.5.125z" fill-rule="evenodd"/><ellipse ry="2.688" rx="3.5" cy="1001.05" cx="-80.5"/></g><g transform="matrix(.15636 0 0 .15636 27.745 -150.296)" fill="#fff"><path d="M-111.875 977.862l-.25 6.875 6.75 18.25s1 2 1.125 3.25-.75 8 4.375 11.75 9 5.625 17.625 6.375 18.125-2.375 21.375-4 5.375-2.25 5.625-3.25.625-2.625-.75-3.125-2.625-2-2.625-2l3.25-1.125s3.755-3.246 4.875-4.875c1.117-1.625.57-4.744 1-5.625.375-.766.024-1.85.024-1.85-.436-.915-1.007-1.01-3.024-1.025-4.915-.04-17.5-1.625-17.5-1.625s-2 0-3.125-1.375-.375-2.625-2.125-4.375-9.25-4.375-9.25-4.375l-7.5-14.25s-1.625-1.5-2.5-2.375-1.375 2.625-1.375 2.625l-.25 14.125s.25 1.125-.5 1.5-3.125-2.25-3.125-2.25-3.875-4.75-5.625-5.875-6.5-1.375-6.5-1.375zM-125.75 1039.987s14.25-11.75 26.625-13.375 25.125 0 32.25 1.875 19.5 8.375 20.75 9.375 3.5 3 3.5 3 .375.875.125 1.625-2.375.75-3.125.75-9.125-1.5-11.125-1.75-5.75-1.625-7.875-.625-2.875 1.875-1.75 2.625 10.375 3.875 12.125 5.375 4.375 3.125 4.75 4.125-7.875.125-7.875.125-21.875-4.125-29.125-3.125-22 7.875-25 10.125-14 15.25-15.125 18.75-4.75 8.5-4.75 8.5-3.125 2.125-5.75 1.375-5-3.75-5.5-7.875 3.125-17.625 5-21.25 5.125-10.25 5.125-10.25l6 3.875s-2-7.5-5.625-11.125-9.375-9.25-12.125-10.625-8.125-3.625-8.625-7.875-.125-6.75 2.875-8 6.875-.5 10.125 1.75 8.75 11.625 9.625 13.375 4.5 9.25 4.5 9.25z" fill-rule="evenodd"/><path d="M-99.875 1062.612s-3.75.875-6.625 3.875-10.875 16.5-10.875 16.5-4 3.75-5.5 4.25-3.75.5-3.75.5 5-9 5.875-10.25 6.25-7.875 8.75-10.25 6.5-4.125 8.625-4.75 3.5.125 3.5.125z" fill-rule="evenodd"/><ellipse ry="2.688" rx="3.5" cy="1001.05" cx="-80.5" fill="#250"/></g></svg>