<svg xmlns="http://www.w3.org/2000/svg" xmlns:xlink="http://www.w3.org/1999/xlink" width="24" height="24" viewBox="0 0 24 24"><defs><linearGradient id="a"><stop offset="0" stop-color="#e35f00" stop-opacity=".996"/><stop offset="1" stop-color="#ff950d" stop-opacity=".996"/></linearGradient><linearGradient id="b"><stop offset="0"/><stop offset="1" stop-opacity="0"/></linearGradient><linearGradient id="d"><stop offset="0" stop-color="#1f58b6"/><stop offset="1" stop-color="#7aa4e8"/></linearGradient><radialGradient gradientTransform="matrix(1.4121 -1.10457 1.0703 1.3683 -14.652 5.117)" gradientUnits="userSpaceOnUse" r="11.932" fy="15.165" fx="6.393" cy="15.165" cx="6.393" id="g" xlink:href="#a"/><linearGradient gradientUnits="userSpaceOnUse" y2="-6.266" x2="30.151" y1="20.047" x1="4.943" id="h" xlink:href="#b"/><radialGradient r="11.932" fy="15.165" fx="6.393" cy="15.165" cx="6.393" gradientTransform="matrix(1.4121 -1.10457 1.0703 1.3683 -14.652 5.117)" gradientUnits="userSpaceOnUse" id="c" xlink:href="#d"/><radialGradient r="11.932" fy="15.165" fx="6.393" cy="15.165" cx="6.393" gradientTransform="matrix(1.4121 -1.10457 1.0703 1.3683 -14.652 5.117)" gradientUnits="userSpaceOnUse" id="e" xlink:href="#d"/><clipPath id="i"><circle style="isolation:auto;mix-blend-mode:normal" cx="12" cy="1040.362" r="11.081" color="#000" overflow="visible" fill="red" fill-rule="evenodd" stroke-linecap="square" stroke-dashoffset=".85"/></clipPath><linearGradient gradientTransform="matrix(.19626 0 0 .23146 -6.123 793.097)" xlink:href="#f" id="j" x1="96.294" y1="1033.285" x2="96.598" y2="1049.268" gradientUnits="userSpaceOnUse"/><linearGradient id="f"><stop offset="0" stop-color="#2b2b2b"/><stop offset="1" stop-color="#ccc" stop-opacity="0"/></linearGradient></defs><g color="#000" fill-rule="evenodd"><path style="isolation:auto;mix-blend-mode:normal" d="M23.932 12A11.932 11.932 0 0 1 12 23.932 11.932 11.932 0 0 1 .068 12 11.932 11.932 0 0 1 12 .068 11.932 11.932 0 0 1 23.932 12z" overflow="visible" fill="url(#g)"/><path style="line-height:normal;text-indent:0;text-align:start;text-decoration-line:none;text-decoration-style:solid;text-decoration-color:#000;text-transform:none;block-progression:tb;isolation:auto;mix-blend-mode:normal" d="M12.047.006C5.437.006.067 5.374.067 11.984c0 6.61 5.37 11.98 11.98 11.98s11.978-5.37 11.978-11.98S18.657.006 12.047.006zm0 .963c6.09 0 11.015 4.925 11.015 11.014 0 6.09-4.926 11.016-11.015 11.016A11.008 11.008 0 0 1 1.03 11.984C1.03 5.894 5.958.97 12.048.97z" font-weight="400" font-family="sans-serif" white-space="normal" overflow="visible" opacity=".096" fill="url(#h)"/></g><g transform="translate(-.486 -1028.362)"><ellipse transform="translate(.595 .01)" style="isolation:auto;mix-blend-mode:normal" cx="12.226" cy="1055.095" rx="14.844" ry="12.969" clip-path="url(#i)" color="#000" overflow="visible" fill="#803300" fill-opacity=".996" fill-rule="evenodd"/><path d="M4.373 1047.813l-.32-.38a.328.328 0 0 1 .048-.187c.122-.235-.295-.22 6.022-.22h5.75l.552.277c.42.21.568.27.617.242.035-.02.17-.144.302-.277l.24-.242h1.935c2.124 0 1.956.077 1.956.077l-.36.374-.662.712s-3.294.013-7.57.012c-3.913 0-7-.01-8.148-.024zm1.063-1.434a.452.452 0 0 1-.157-.164c-.075-.143-.075-.595 0-.74.108-.208.17-.218 1.3-.218h1.03l.528.292c.39.214.54.28.575.253.03-.024.047-.133.047-.292v-.252h5.757c6.336 0 5.853-.018 5.976.22.074.143.074.595 0 .74-.123.235.456.22-7.614.217-6.424 0-7.356-.01-7.444-.056zm.42-1.756c-.068-.07-.056-.672.017-.826a.547.547 0 0 1 .4-.297l.128-.02.01-.576.01-.575.25-.02c.288-.02.32-.05.32-.294 0-.243-.032-.274-.32-.295l-.25-.017-.01-1.17c-.01-1.168-.01-1.17-.088-1.17-.133 0-.385-.17-.45-.307-.072-.155-.084-.757-.015-.827.064-.065 3.385-.065 3.448 0 .028.027.044.166.044.372 0 .266-.015.355-.08.467-.08.142-.3.294-.426.294-.055 0-.145.134-.377.556-.17.312-.29.57-.273.587.018.017.148.037.29.043l.258.01.01 1.46.01 1.46.128.022a.547.547 0 0 1 .4.297c.073.153.084.756.015.825-.063.064-3.384.064-3.448 0zm5.306 0c-.07-.07-.058-.672.015-.826a.547.547 0 0 1 .4-.297l.13-.02V1039.373l-.146-.023c-.18-.03-.392-.23-.424-.4a2.882 2.882 0 0 1-.01-.433l.01-.314 1.71-.01c1.23-.01 1.722 0 1.758.032.058.048.07.635.017.777-.055.15-.265.324-.416.348l-.14.022v1.182l-.294.303-.295.302v.533l.295.302.295.302v1.182l.13.02a.547.547 0 0 1 .4.298c.073.154.084.757.015.826-.064.064-3.384.064-3.448 0zm5.305 0c-.07-.07-.058-.672.015-.826a.547.547 0 0 1 .4-.297l.127-.02.01-.28.01-.282.27-.01c.185-.01.274-.027.287-.062.01-.028-.11-.396-.268-.818l-.29-.767-.01-.943-.01-.944-.13-.02a.547.547 0 0 1-.398-.3c-.073-.153-.084-.755-.015-.824.063-.065 3.384-.065 3.448 0 .07.068.057.67-.016.824a.547.547 0 0 1-.4.298l-.13.02v4.108l.13.02a.547.547 0 0 1 .4.298c.072.154.084.757.015.826-.064.064-3.385.064-3.448 0zM4.76 1037.47l-.126-.125v-.556c0-.557 0-.557.1-.664.057-.06 1.014-.61 2.13-1.222l2.946-1.62c3.12-1.72 2.855-1.583 3.072-1.583.167 0 .25.028.508.17.36.195.307.124.97 1.304.266.477.505.887.53.912.03.033.388.057 1.294.087.8.026 1.274.056 1.313.083.034.023.306.348.603.723.297.374.56.692.583.705.023.013.423.135.89.27.465.135 1.008.295 1.206.355l.358.11v.924l-.125.126-.126.125H4.885l-.126-.125z" fill="#500"/><g fill="#fff"><path d="M4.287 1047.262a.428.428 0 0 1-.156-.155c-.093-.152-.103-.6-.018-.767.122-.235-.295-.22 6.022-.22h5.75l.552.278c.42.21.568.268.616.242.035-.02.17-.144.302-.277l.24-.242h1.935c2.122 0 2.035-.008 2.154.222.074.143.073.595 0 .738-.123.237.575.22-8.794.217-4.972 0-8.555-.016-8.603-.035zm1.16-1.788a.452.452 0 0 1-.156-.163c-.073-.143-.073-.594 0-.738.11-.21.17-.22 1.302-.22h1.03l.528.292c.39.215.54.282.575.254.03-.025.047-.133.047-.292v-.254h5.757c6.335 0 5.85-.018 5.975.222.074.142.073.594 0 .737-.123.238.456.22-7.615.22-6.422-.002-7.354-.01-7.442-.056zm.422-1.755c-.07-.07-.06-.673.015-.827a.547.547 0 0 1 .4-.297l.127-.02.01-.577.01-.576.25-.02c.288-.02.32-.05.32-.293s-.032-.273-.32-.294l-.25-.02-.01-1.168c-.01-1.17-.01-1.17-.088-1.17-.133 0-.385-.172-.45-.308-.073-.155-.084-.757-.015-.826.063-.064 3.383-.064 3.447 0 .028.027.044.166.044.372 0 .266-.013.355-.077.467-.08.143-.3.295-.427.295-.055 0-.145.134-.377.556-.172.312-.292.57-.274.587.017.02.148.038.29.044l.257.01.01 1.46.01 1.46.13.022a.547.547 0 0 1 .398.297c.075.154.086.757.017.826-.064.062-3.384.062-3.448 0zm5.304 0c-.07-.07-.058-.673.015-.827a.547.547 0 0 1 .4-.298l.13-.02v-4.106l-.147-.024c-.182-.03-.394-.228-.425-.4a2.88 2.88 0 0 1-.01-.433l.01-.312 1.71-.01c1.23-.007 1.722.002 1.758.032.058.05.07.635.017.777-.056.15-.266.324-.417.348l-.14.023v1.182l-.294.302-.295.302v.535l.295.302.295.302v1.182l.13.02a.547.547 0 0 1 .4.3c.072.153.084.756.015.825-.064.062-3.385.062-3.448 0zm5.305 0c-.07-.07-.06-.673.014-.827a.547.547 0 0 1 .4-.297l.127-.02.01-.282.012-.28.27-.012c.185-.007.274-.026.287-.06.01-.03-.11-.397-.27-.82l-.288-.767-.01-.944-.01-.943-.13-.02a.547.547 0 0 1-.398-.298c-.073-.155-.084-.757-.015-.826.062-.064 3.383-.064 3.447 0 .07.07.057.67-.016.825a.547.547 0 0 1-.4.297l-.13.02v4.108l.13.02a.547.547 0 0 1 .4.3c.074.153.086.756.017.825-.064.062-3.385.062-3.448 0zm-11.71-7.155l-.124-.126v-.556c0-.556 0-.556.1-.663.057-.06 1.014-.608 2.13-1.22 1.113-.614 2.44-1.343 2.946-1.622 3.12-1.72 2.855-1.582 3.072-1.582.167 0 .25.027.508.168.36.196.307.125.97 1.305.266.475.505.886.53.91.03.034.388.058 1.294.088.8.027 1.274.057 1.313.083.033.024.304.35.602.724.297.375.56.693.582.706.024.013.424.135.89.27s1.01.295 1.207.355l.36.11v.924l-.126.125-.125.125H4.895l-.125-.125z"/><path d="M4.333 1047.264c-.46-.21-.36-1.237.224-1.125 3.763-.008 7.525-.014 11.287-.02.387.187.763.4 1.165.553.35-.16.517-.686.967-.553l3.503.02c.386.24.37 1.128-.145 1.14-5.667-.002-11.335.032-17.002-.016zm1.18-1.768c-.46-.21-.36-1.235.223-1.128.625.01 1.266-.044 1.88.006.37.143.818.59 1.143.475-.095-.472.16-.543.562-.48h10.98c.385.243.37 1.13-.146 1.143-4.88-.003-9.763.03-14.644-.017zm.37-1.79c-.352-.613.322-.966.53-1.273.023-.462-.167-1.19.546-1.072.368-.764-.867-.332-.542-1.13-.007-.59-.003-1.177-.004-1.766-.73.002-.875-1.467.013-1.18.956.02 1.93-.066 2.876.053.408.954-.827 1.142-.993 1.956-.484.606.79.108.454.832.046.816-.06 1.66.065 2.46.882.21.61 1.585-.344 1.176-.864-.024-1.75.063-2.603-.055zm5.304 0c-.352-.613.322-.966.532-1.273v-3.958c-.705-.028-.91-1.46-.01-1.19.965.02 1.945-.068 2.898.052.352.612-.322.965-.53 1.272-.024.34.044.72-.035 1.038-.167.23-.5.39-.556.666-.007.286-.055.588.236.753.235.2.44.416.354.748.057.243-.123.677.102.786.745.18.638 1.513-.252 1.16-.91-.023-1.84.064-2.74-.055zm5.305 0c-.44-.825.702-.954.576-1.667.998.142.255-.812.137-1.334-.29-.544-.15-1.164-.18-1.754.19-.557-.35-.513-.55-.91-.388-1.083.967-.702 1.595-.763.6.16 1.972-.424 1.897.524.078.61-.816.486-.586 1.095v3.678c.73-.002.876 1.467-.01 1.18-.956-.02-1.934.067-2.878-.053zM4.88 1036.63c-.346-.304-.277-.98-.146-1.37 2.24-1.358 4.58-2.556 6.866-3.842.61-.335 1.335-.91 1.986-.336.295.164.36.566.558.827.314.428.452 1.12.93 1.33.81.054 1.625.048 2.436.108.403.49.77 1.014 1.218 1.464.79.26 1.607.442 2.385.727.288.767-.26 1.367-1.052 1.135-4.96.016-9.922.035-14.883-.014-.1-.007-.2 0-.298-.03z"/></g><path d="M6.502 1035.49l6.214-3.207 6.183 3.136z" fill="url(#j)" fill-rule="evenodd"/><path style="isolation:auto;mix-blend-mode:normal" color="#000" overflow="visible" fill="#b3b3b3" d="M7.012 1037.696h1.03v5.476h-1.03zM12.29 1037.726h1.03v5.476h-1.03zM17.762 1037.773h1.03v5.476h-1.03z"/></g></svg>