<svg xmlns="http://www.w3.org/2000/svg" xmlns:xlink="http://www.w3.org/1999/xlink" width="24" height="24" viewBox="0 0 24 24"><defs><linearGradient id="b"><stop offset="0"/><stop offset="1" stop-opacity="0"/></linearGradient><linearGradient id="a"><stop offset="0" stop-color="#1f58b6"/><stop offset="1" stop-color="#7aa4e8"/></linearGradient><radialGradient xlink:href="#a" id="e" cx="6.393" cy="15.165" fx="6.393" fy="15.165" r="11.932" gradientUnits="userSpaceOnUse" gradientTransform="matrix(1.4121 -1.10457 1.0703 1.3683 -14.652 5.117)"/><linearGradient xlink:href="#b" id="f" x1="4.943" y1="20.047" x2="30.151" y2="-6.266" gradientUnits="userSpaceOnUse"/><radialGradient xlink:href="#a" id="c" gradientUnits="userSpaceOnUse" gradientTransform="matrix(1.4121 -1.10457 1.0703 1.3683 -14.652 5.117)" cx="6.393" cy="15.165" fx="6.393" fy="15.165" r="11.932"/><radialGradient xlink:href="#a" id="d" gradientUnits="userSpaceOnUse" gradientTransform="matrix(1.4121 -1.10457 1.0703 1.3683 -14.652 5.117)" cx="6.393" cy="15.165" fx="6.393" fy="15.165" r="11.932"/><clipPath id="g"><circle style="isolation:auto;mix-blend-mode:normal" cx="11.999" cy="1040.386" r="11.093" color="#000" overflow="visible" fill="#e6e6e6" stroke-opacity=".428"/></clipPath></defs><g color="#000" fill-rule="evenodd"><path d="M23.932 12A11.932 11.932 0 0 1 12 23.932 11.932 11.932 0 0 1 .068 12 11.932 11.932 0 0 1 12 .068 11.932 11.932 0 0 1 23.932 12z" style="isolation:auto;mix-blend-mode:normal" overflow="visible" fill="url(#e)"/><path d="M12.047.006C5.437.006.067 5.374.067 11.984c0 6.61 5.37 11.98 11.98 11.98s11.978-5.37 11.978-11.98S18.657.006 12.047.006zm0 .963c6.09 0 11.015 4.925 11.015 11.014 0 6.09-4.926 11.016-11.015 11.016A11.008 11.008 0 0 1 1.03 11.984C1.03 5.894 5.958.97 12.048.97z" style="line-height:normal;text-indent:0;text-align:start;text-decoration-line:none;text-decoration-style:solid;text-decoration-color:#000;text-transform:none;block-progression:tb;isolation:auto;mix-blend-mode:normal" font-weight="400" font-family="sans-serif" white-space="normal" overflow="visible" opacity=".096" fill="url(#f)"/></g><path style="isolation:auto;mix-blend-mode:normal" clip-path="url(#g)" color="#000" overflow="visible" fill="#1d3153" d="M2.166 1045.82H21.7v8.663H2.166z" transform="translate(0 -1028.362)"/><path d="M10.41 19.51l-.242-.19V15.49l.242-.19c.318-.25.607-.24.923.032l.258.22v1.838c0 1.817 0 1.84-.222 2.073-.27.29-.628.307-.958.047zM12.52 19.51l-.24-.19V15.49l.24-.19c.32-.25.61-.24.925.032l.257.22v1.838c0 1.817-.002 1.84-.222 2.073-.272.29-.63.307-.96.047z" fill="#fff"/><path d="M2.973 17.813c-.305-.21-.433-.39-.494-.698-.075-.368.158-.854.513-1.07.282-.172.46-.186 2.476-.186h2.17l-.098-.262c-.087-.23-.032-.405.48-1.537 1.082-2.39 1.752-3.7 2.024-3.956.408-.385.763-.472 1.95-.48.924-.01 1.14.022 1.5.192.24.11.5.322.596.48.095.157.65 1.314 1.237 2.573.887 1.908 1.058 2.345 1.03 2.638l-.034.35h2.14c2.322 0 2.606.05 2.895.49.087.13.158.41.158.618 0 .31-.058.438-.313.692l-.312.312h-3.16c-3.83 0-3.518.124-3.578-1.423-.03-.777-.078-1.07-.207-1.267-.202-.308-.588-.523-.94-.522-.328 0-.82.298-.897.544-.056.18-.077.17-.357-.125-.36-.382-.692-.478-1.163-.338-.572.17-.73.485-.73 1.447 0 .915-.1 1.37-.34 1.553-.13.1-.798.125-3.243.127-2.752 0-3.1-.014-3.304-.153z" fill="#d40000"/><path d="M3.293 13.735c-.65-.87-.826-2.514-.36-3.39.37-.698.408-1.015.17-1.416-.444-.75.093-1.273.574-.56.44.652.407 1.47-.102 2.43-.312.59-.255 1.332.166 2.148.236.457.285.637.212.78-.143.286-.45.29-.66 0zM6.535 13.78c-.09-.11-.286-.528-.435-.925-.346-.923-.33-1.807.05-2.52.366-.688.403-1.006.165-1.406-.444-.75.094-1.273.575-.562.44.653.407 1.472-.102 2.432-.312.588-.255 1.332.166 2.148.235.456.284.637.21.78-.133.267-.436.293-.63.053zM16.65 13.897c-.12-.15-.056-.507.17-.952.126-.25.276-.672.333-.94.11-.52.058-.752-.377-1.688-.39-.836-.106-2.182.477-2.267.36-.052.48.296.25.73-.247.467-.222.914.086 1.525.145.288.292.72.326.96.125.884-.54 2.708-.987 2.708-.12 0-.245-.035-.28-.076zM19.864 13.897c-.12-.15-.057-.507.168-.952.126-.25.276-.672.334-.94.11-.52.058-.752-.378-1.688-.388-.836-.105-2.182.477-2.267.36-.052.48.296.25.73-.247.467-.22.914.087 1.525.146.288.293.72.327.96.124.884-.54 2.708-.988 2.708-.12 0-.244-.035-.278-.076z" fill="#e6e6e6"/><path d="M11.154 9.185c-.74-.328-1.13-1.033-1.057-1.904.065-.775.687-1.435 1.484-1.576.8-.142 1.534.152 1.984.793.19.272.227.433.227 1.032 0 .652-.022.737-.287 1.06-.577.71-1.542.953-2.35.595zM11.987 9.612c-1.186.01-1.542.094-1.95.478-.272.257-.943 1.567-2.025 3.957-.512 1.132-.566 1.306-.478 1.537l.093.252h1.438c.01-.13.716-1.654.767-1.654.03 0 .053.388.053.86v.736c.06-.564.244-.816.695-.95.47-.142.805-.045 1.165.336.28.297.3.304.357.125.078-.246.568-.545.896-.545.352 0 .738.215.94.523.076.116.122.306.154.568h.408c-.01-.032-.01-.074.008-.14.03-.12.056-.498.057-.842l.002-.625.283.624c.156.344.32.723.365.842.025.066.033.108.028.14h1.074l.033-.34c.028-.294-.143-.73-1.03-2.64-.587-1.26-1.143-2.417-1.238-2.572-.096-.16-.356-.37-.593-.48-.363-.17-.58-.202-1.503-.192z" fill="#fff"/></svg>