<svg xmlns="http://www.w3.org/2000/svg" xmlns:xlink="http://www.w3.org/1999/xlink" width="24" height="24" viewBox="0 0 24 24"><defs><linearGradient id="a"><stop offset="0" stop-color="#177217" stop-opacity=".996"/><stop offset="1" stop-color="#4eab46" stop-opacity=".996"/></linearGradient><linearGradient id="b"><stop offset="0"/><stop offset="1" stop-opacity="0"/></linearGradient><linearGradient id="d"><stop offset="0" stop-color="#1f58b6"/><stop offset="1" stop-color="#7aa4e8"/></linearGradient><radialGradient xlink:href="#a" id="i" cx="6.393" cy="15.165" fx="6.393" fy="15.165" r="11.932" gradientUnits="userSpaceOnUse" gradientTransform="matrix(1.4121 -1.10457 1.0703 1.3683 -14.652 5.117)"/><linearGradient xlink:href="#b" id="j" x1="4.943" y1="20.047" x2="30.151" y2="-6.266" gradientUnits="userSpaceOnUse"/><radialGradient xlink:href="#d" id="c" gradientUnits="userSpaceOnUse" gradientTransform="matrix(1.4121 -1.10457 1.0703 1.3683 -14.652 5.117)" cx="6.393" cy="15.165" fx="6.393" fy="15.165" r="11.932"/><radialGradient xlink:href="#d" id="e" gradientUnits="userSpaceOnUse" gradientTransform="matrix(1.4121 -1.10457 1.0703 1.3683 -14.652 5.117)" cx="6.393" cy="15.165" fx="6.393" fy="15.165" r="11.932"/><linearGradient gradientTransform="translate(-1.977 882.356) scale(.14517)" xlink:href="#f" id="n" x1="95.379" y1="1077.171" x2="95.379" y2="1090.626" gradientUnits="userSpaceOnUse"/><linearGradient id="f"><stop offset="0" stop-color="#505050"/><stop offset="1" stop-color="#fff" stop-opacity="0"/></linearGradient><linearGradient gradientTransform="translate(-1.977 882.356) scale(.14517)" xlink:href="#g" id="m" x1="140.369" y1="1046.389" x2="157.913" y2="1051.986" gradientUnits="userSpaceOnUse"/><linearGradient id="g"><stop offset="0" stop-color="#ccc"/><stop offset="1" stop-color="#fff"/></linearGradient><linearGradient gradientTransform="translate(-1.977 882.356) scale(.14517)" xlink:href="#h" id="l" x1="94.733" y1="1039.07" x2="94.733" y2="1069.637" gradientUnits="userSpaceOnUse"/><linearGradient id="h"><stop offset="0" stop-color="#393939"/><stop offset="1" stop-color="#fff"/></linearGradient><clipPath id="k"><circle r="11.026" cy="1040.362" cx="12" style="isolation:auto;mix-blend-mode:normal" color="#000" overflow="visible" fill="#ac9393" stroke-opacity=".428"/></clipPath></defs><g color="#000" fill-rule="evenodd"><path d="M23.932 12A11.932 11.932 0 0 1 12 23.932 11.932 11.932 0 0 1 .068 12 11.932 11.932 0 0 1 12 .068 11.932 11.932 0 0 1 23.932 12z" style="isolation:auto;mix-blend-mode:normal" overflow="visible" fill="url(#i)"/><path d="M12.047.006C5.437.006.067 5.374.067 11.984c0 6.61 5.37 11.98 11.98 11.98s11.978-5.37 11.978-11.98S18.657.006 12.047.006zm0 .963c6.09 0 11.015 4.925 11.015 11.014 0 6.09-4.926 11.016-11.015 11.016A11.008 11.008 0 0 1 1.03 11.984C1.03 5.894 5.958.97 12.048.97z" style="line-height:normal;text-indent:0;text-align:start;text-decoration-line:none;text-decoration-style:solid;text-decoration-color:#000;text-transform:none;block-progression:tb;isolation:auto;mix-blend-mode:normal" font-weight="400" font-family="sans-serif" white-space="normal" overflow="visible" opacity=".096" fill="url(#j)"/></g><g transform="translate(0 -1028.362)"><path transform="translate(.025 -.04)" style="isolation:auto;mix-blend-mode:normal" clip-path="url(#k)" color="#000" overflow="visible" fill="#250" d="M2.906 1047.612h18.438v4.75H2.906z"/><rect ry=".295" y="1032.76" x="16.931" height="7.204" width=".626" style="isolation:auto;mix-blend-mode:normal" color="#000" overflow="visible" fill="#f2f2f2"/><path d="M18.004 1047.55v-7.488l-2.504-1.44v-3.753l-3.576-2.38-3.576 2.394v3.754l-2.504 1.44v7.488z" fill="#fff" fill-rule="evenodd"/><path d="M10.09 1047.56v-2.27s.21-1.394 1.797-1.367c1.63.027 1.778 1.35 1.778 1.35v2.285z" fill="#250" fill-rule="evenodd"/><rect ry=".295" y="1041.466" x="7.144" height="2.387" width="2.355" style="isolation:auto;mix-blend-mode:normal" color="#000" overflow="visible" fill="#338000"/><rect ry=".295" y="1041.466" x="14.359" height="2.387" width="2.355" style="isolation:auto;mix-blend-mode:normal" color="#000" overflow="visible" fill="#338000"/><path d="M8.366 1038.594v-3.647l3.448-2.178 3.684 2.358v3.52s-2.407-.906-3.666-.907c-1.19 0-3.466.854-3.466.854z" fill="url(#l)" fill-rule="evenodd"/><circle r="1.016" cy="1035.366" cx="11.743" style="isolation:auto;mix-blend-mode:normal" color="#000" overflow="visible" fill="#fff"/><path d="M17.884 1035.292s.463-.146.798-.064c.336.08 1.243.753 1.634.898.39.145 1.052.118 1.052.118v-1.143m-3.484.19l.007-1.168v-1.143s.664-.028 1.054.117c.39.145 1.297.816 1.633.898.336.082.798-.064.798-.064l-.007 1.17" fill="url(#m)" fill-rule="evenodd"/><path d="M11.766 1032.206a.316.316 0 0 0-.172.052l-4.238 2.73a.326.326 0 0 0-.092.44l.027.044c.092.147.275.18.42.09l4.077-2.627 4.076 2.626c.145.094.328.06.42-.087l.026-.045a.326.326 0 0 0-.093-.44l-4.237-2.73a.32.32 0 0 0-.193-.05h-.02z" style="isolation:auto;mix-blend-mode:normal" color="#000" overflow="visible" fill="#d40000"/><path d="M5.87 1040.073l2.483-1.453 7.11-.03 2.515 1.437.016 1.312H5.854z" fill="url(#n)" fill-rule="evenodd"/></g></svg>