<svg xmlns="http://www.w3.org/2000/svg" xmlns:xlink="http://www.w3.org/1999/xlink" width="24" height="24" viewBox="0 0 24 24"><defs><linearGradient id="a"><stop offset="0" stop-color="#e35f00" stop-opacity=".996"/><stop offset="1" stop-color="#ff950d" stop-opacity=".996"/></linearGradient><linearGradient id="b"><stop offset="0"/><stop offset="1" stop-opacity="0"/></linearGradient><linearGradient id="d"><stop offset="0" stop-color="#1f58b6"/><stop offset="1" stop-color="#7aa4e8"/></linearGradient><radialGradient xlink:href="#a" id="f" cx="6.393" cy="15.165" fx="6.393" fy="15.165" r="11.932" gradientUnits="userSpaceOnUse" gradientTransform="matrix(1.4121 -1.10457 1.0703 1.3683 -14.652 5.117)"/><linearGradient xlink:href="#b" id="g" x1="4.943" y1="20.047" x2="30.151" y2="-6.266" gradientUnits="userSpaceOnUse"/><radialGradient xlink:href="#d" id="c" gradientUnits="userSpaceOnUse" gradientTransform="matrix(1.4121 -1.10457 1.0703 1.3683 -14.652 5.117)" cx="6.393" cy="15.165" fx="6.393" fy="15.165" r="11.932"/><radialGradient xlink:href="#d" id="e" gradientUnits="userSpaceOnUse" gradientTransform="matrix(1.4121 -1.10457 1.0703 1.3683 -14.652 5.117)" cx="6.393" cy="15.165" fx="6.393" fy="15.165" r="11.932"/><clipPath id="j"><circle r="11.026" cy="1040.362" cx="12" style="isolation:auto;mix-blend-mode:normal" color="#000" overflow="visible" fill="#ac9393" stroke-opacity=".428"/></clipPath><clipPath id="i"><circle r="11.026" cy="1040.362" cx="12" style="isolation:auto;mix-blend-mode:normal" color="#000" overflow="visible" fill="#ac9393" stroke-opacity=".428"/></clipPath><clipPath id="h"><circle r="11.026" cy="1048.456" cx="30.031" style="isolation:auto;mix-blend-mode:normal" color="#000" overflow="visible" fill="#ac9393" stroke-opacity=".428"/></clipPath></defs><g color="#000" fill-rule="evenodd"><path d="M23.932 12A11.932 11.932 0 0 1 12 23.932 11.932 11.932 0 0 1 .068 12 11.932 11.932 0 0 1 12 .068 11.932 11.932 0 0 1 23.932 12z" style="isolation:auto;mix-blend-mode:normal" overflow="visible" fill="url(#f)"/><path d="M12.047.006C5.437.006.067 5.374.067 11.984c0 6.61 5.37 11.98 11.98 11.98s11.978-5.37 11.978-11.98S18.657.006 12.047.006zm0 .963c6.09 0 11.015 4.925 11.015 11.014 0 6.09-4.926 11.016-11.015 11.016A11.008 11.008 0 0 1 1.03 11.984C1.03 5.894 5.958.97 12.048.97z" style="line-height:normal;text-indent:0;text-align:start;text-decoration-line:none;text-decoration-style:solid;text-decoration-color:#000;text-transform:none;block-progression:tb;isolation:auto;mix-blend-mode:normal" font-weight="400" font-family="sans-serif" white-space="normal" overflow="visible" opacity=".096" fill="url(#g)"/></g><g transform="translate(-17.975 -1036.49)" clip-path="url(#h)" fill="#500"><path d="M30.057 1046.132l-.506.48c-.278.264-1.045.997-1.704 1.63-.982.94-1.24 1.165-1.418 1.247l-.217.1-2.474.01-2.472.012v6.56h-.174c-.148 0-.194.02-.303.128-.128.126-.13.13-.13.47 0 .34.002.345.13.47l.13.128h18.28l.13-.127c.127-.125.128-.13.128-.47 0-.34 0-.344-.13-.47-.108-.108-.154-.127-.302-.127h-.173v-6.56l-2.473-.012-2.473-.01-.218-.1c-.18-.084-.442-.315-1.48-1.31a449.94 449.94 0 0 0-1.704-1.626l-.445-.422zM29.76 1043.2l.002-1.483.002-1.484.093-.092c.137-.134.393-.126.624.02.376.235.718.24 1.387.02.37-.123.447-.137.682-.12.263.02.584.117.76.23l.092.06v2.082l-.162-.09a1.702 1.702 0 0 0-.88-.19c-.125.01-.41.08-.632.152-.546.18-.898.168-1.216-.038l-.142-.092v.514l.003.513"/><path d="M30.373 1043.2l1.17 1.1 1.168 1.102 2.087.02c2.033.017 2.09.02 2.193.095.06.043.462.53.895 1.082 1.743 2.22 1.68 2.12 1.488 2.31l-.093.092h-2.466c-2.043 0-2.488-.01-2.59-.053-.066-.03-1.023-.92-2.126-1.978-1.103-1.058-2.017-1.924-2.032-1.924-.014 0-.928.866-2.03 1.924-1.103 1.06-2.06 1.948-2.127 1.977-.102.042-.55.052-2.59.052h-2.466l-.093-.092c-.19-.187-.23-.127 1.546-2.386.402-.51.78-.964.838-1.007.104-.075.158-.078 2.193-.096l2.086-.018 1.17-1.1 1.168-1.1"/></g><path transform="translate(.056 -1028.397)" style="isolation:auto;mix-blend-mode:normal" clip-path="url(#i)" color="#000" overflow="visible" fill="#500" d="M2.906 1047.612h18.438v4.75H2.906z"/><g transform="matrix(1.00176 0 0 1 .02 -1028.397)" clip-path="url(#j)"><path d="M12.513 1042.101c.767-.234 1.22-1.07.995-1.83-.143-.48-.585-.914-1.048-1.024l-.104-.024v.748c0 .47-.016.782-.042.84-.065.138-.19.173-.64.173-.49 0-.53-.024-.53-.3 0-.25.058-.297.362-.297h.243v-1.164l-.105.024c-.317.076-.678.342-.873.644-.75 1.162.4 2.623 1.74 2.21zm6.513.672v-.596h-1.213v1.193h1.213v-.598zm-3.032 0v-.596H14.78v1.193h1.214v-.598zm-6.67 0v-.596H8.11v1.193h1.214v-.598zm-3.032 0v-.596H5.08v1.193H6.29v-.598zm12.734 2.387v-.597h-1.213v1.192h1.213v-.597zm-3.032 0v-.597H14.78v1.192h1.214v-.597zm-6.67 0v-.597H8.11v1.192h1.214v-.597zm-3.032 0v-.597H5.08v1.192H6.29v-.597zm6.663.605c-.013-1.302-.01-1.29-.26-1.535-.2-.195-.328-.244-.642-.244-.315 0-.444.05-.642.244-.25.246-.247.233-.26 1.536l-.01 1.184h1.826l-.01-1.185zm-10.173 2.25c-.128-.124-.13-.128-.13-.47 0-.34.002-.343.13-.468.11-.108.156-.127.303-.127h.175V1040.388l2.473-.012 2.473-.01.218-.1c.178-.082.435-.31 1.417-1.25.66-.632 1.428-1.364 1.707-1.628l.506-.48.445.42c.245.232 1.012.965 1.705 1.63 1.037.993 1.298 1.225 1.478 1.308l.22.1 2.472.01 2.473.01v6.563h.175c.147 0 .194.02.303.127.128.125.13.13.13.47 0 .34-.002.344-.13.47l-.13.126H2.912l-.128-.127zM11.757 1033.977v-1.484l.003-1.484.093-.093c.136-.135.393-.127.623.018.376.236.718.24 1.387.02.37-.122.447-.136.682-.12.264.02.585.118.76.23l.093.06v2.082l-.163-.09a1.702 1.702 0 0 0-.88-.19c-.124.012-.41.08-.632.153-.545.18-.898.168-1.215-.038l-.142-.092v.514l.003.513" fill="#fff"/><path d="M12.37 1033.977l1.168 1.1 1.17 1.1 2.085.02c2.033.018 2.09.02 2.193.096.06.043.462.53.895 1.082 1.744 2.22 1.68 2.122 1.49 2.31l-.094.093H18.81c-2.043 0-2.488-.01-2.59-.053-.066-.03-1.023-.918-2.126-1.977-1.103-1.058-2.017-1.924-2.032-1.924-.015 0-.93.866-2.03 1.924-1.104 1.06-2.06 1.948-2.128 1.977-.1.043-.548.053-2.588.053H2.85l-.093-.092c-.19-.187-.23-.127 1.545-2.386.402-.51.78-.964.837-1.007.104-.075.158-.078 2.192-.096l2.086-.02 1.17-1.1 1.17-1.1" fill="#d40000"/><path style="isolation:auto;mix-blend-mode:normal" color="#000" overflow="visible" fill="#500" d="M4.972 1042.104h1.413v1.406H4.972zM8.02 1042.104h1.413v1.406H8.02zM4.972 1044.41h1.413v1.405H4.972zM8.068 1044.41H9.48v1.405H8.07zM14.69 1042.104H16.1v1.406H14.69zM17.8 1042.104h1.414v1.406H17.8zM14.712 1044.41h1.413v1.405h-1.413zM17.673 1044.41h1.413v1.405h-1.413z"/></g><path d="M3.283 13.715H20.9V11.95h-5l-3.78-3.423-3.907 3.422H3.3z" fill="#b3b3b3" fill-opacity=".451" fill-rule="evenodd"/></svg>