<svg xmlns="http://www.w3.org/2000/svg" xmlns:xlink="http://www.w3.org/1999/xlink" width="24" height="24" viewBox="0 0 24 24"><defs><linearGradient id="g"><stop offset="0" stop-color="#ccc"/><stop offset="1" stop-color="#fff"/></linearGradient><linearGradient id="f"><stop offset="0" stop-color="#b3b3b3"/><stop offset="1" stop-color="#fff" stop-opacity="0"/></linearGradient><linearGradient id="e"><stop offset="0" stop-color="#666"/><stop offset="1" stop-color="#fff"/></linearGradient><linearGradient id="b"><stop offset="0"/><stop offset="1" stop-opacity="0"/></linearGradient><linearGradient id="a"><stop offset="0" stop-color="#1f58b6"/><stop offset="1" stop-color="#7aa4e8"/></linearGradient><radialGradient xlink:href="#a" id="h" cx="6.393" cy="15.165" fx="6.393" fy="15.165" r="11.932" gradientUnits="userSpaceOnUse" gradientTransform="matrix(1.4121 -1.10457 1.0703 1.3683 -14.652 5.117)"/><linearGradient xlink:href="#b" id="i" x1="4.943" y1="20.047" x2="30.151" y2="-6.266" gradientUnits="userSpaceOnUse"/><radialGradient xlink:href="#a" id="c" gradientUnits="userSpaceOnUse" gradientTransform="matrix(1.4121 -1.10457 1.0703 1.3683 -14.652 5.117)" cx="6.393" cy="15.165" fx="6.393" fy="15.165" r="11.932"/><radialGradient xlink:href="#a" id="d" gradientUnits="userSpaceOnUse" gradientTransform="matrix(1.4121 -1.10457 1.0703 1.3683 -14.652 5.117)" cx="6.393" cy="15.165" fx="6.393" fy="15.165" r="11.932"/><clipPath id="j"><circle r="11.026" cy="1040.362" cx="12" style="isolation:auto;mix-blend-mode:normal" color="#000" overflow="visible" fill="#ac9393" stroke-opacity=".428"/></clipPath><linearGradient xlink:href="#e" id="k" x1="94.733" y1="1039.07" x2="94.733" y2="1069.637" gradientUnits="userSpaceOnUse"/><linearGradient xlink:href="#f" id="m" x1="95.379" y1="1077.171" x2="95.486" y2="1092.993" gradientUnits="userSpaceOnUse"/><linearGradient xlink:href="#g" id="l" x1="140.369" y1="1046.389" x2="157.913" y2="1051.986" gradientUnits="userSpaceOnUse"/></defs><g color="#000" fill-rule="evenodd"><path d="M23.932 12A11.932 11.932 0 0 1 12 23.932 11.932 11.932 0 0 1 .068 12 11.932 11.932 0 0 1 12 .068 11.932 11.932 0 0 1 23.932 12z" style="isolation:auto;mix-blend-mode:normal" overflow="visible" fill="url(#h)"/><path d="M12.047.006C5.437.006.067 5.374.067 11.984c0 6.61 5.37 11.98 11.98 11.98s11.978-5.37 11.978-11.98S18.657.006 12.047.006zm0 .963c6.09 0 11.015 4.925 11.015 11.014 0 6.09-4.926 11.016-11.015 11.016A11.008 11.008 0 0 1 1.03 11.984C1.03 5.894 5.958.97 12.048.97z" style="line-height:normal;text-indent:0;text-align:start;text-decoration-line:none;text-decoration-style:solid;text-decoration-color:#000;text-transform:none;block-progression:tb;isolation:auto;mix-blend-mode:normal" font-weight="400" font-family="sans-serif" white-space="normal" overflow="visible" opacity=".096" fill="url(#i)"/></g><path style="isolation:auto;mix-blend-mode:normal" clip-path="url(#j)" color="#000" overflow="visible" fill="#1d3153" d="M2.906 1047.612h18.438v4.75H2.906z" transform="translate(0 -1028.362)"/><g transform="translate(-2.002 -145.967) scale(.14517)"><rect ry="2.033" y="1036.05" x="130.25" height="49.625" width="4.313" style="isolation:auto;mix-blend-mode:normal" color="#000" overflow="visible" fill="#f2f2f2"/><path d="M137.64 1137.938v-51.59l-17.25-9.915v-25.857l-24.633-16.39-24.632 16.495v25.858l-17.25 9.916v51.59z" fill="#fff" fill-rule="evenodd"/><path d="M83.125 1138.006v-15.644s1.447-9.602 12.375-9.418c11.224.19 12.25 9.293 12.25 9.293v15.75z" fill="#b00000" fill-rule="evenodd"/><rect ry="2.033" y="1096.02" x="62.833" height="16.44" width="16.219" style="isolation:auto;mix-blend-mode:normal" color="#000" overflow="visible" fill="#b00000"/><rect ry="2.033" y="1096.02" x="112.529" height="16.44" width="16.219" style="isolation:auto;mix-blend-mode:normal" color="#000" overflow="visible" fill="#b00000"/><path d="M71.25 1076.237v-25.125l23.75-15 25.375 16.25v24.25s-16.58-6.244-25.25-6.25c-8.196-.01-23.875 5.875-23.875 5.875z" fill="url(#k)" fill-rule="evenodd"/><circle r="9.369" cy="1057.015" cx="94.508" style="isolation:auto;mix-blend-mode:normal" color="#000" overflow="visible" fill="#b00000"/><path d="M136.812 1053.487s3.188-1 5.5-.437c2.313.562 8.563 5.187 11.25 6.187 2.688 1 7.25.813 7.25.813v-7.875m-24 1.312l.05-8.052v-7.875s4.563-.188 7.25.812c2.688 1 8.938 5.625 11.25 6.188 2.313.562 5.5-.438 5.5-.438l-.05 8.053" fill="url(#l)" fill-rule="evenodd"/><path d="M94.668 1032.23c-.4 0-.812.116-1.186.357l-29.19 18.8c-.997.64-1.26 2.027-.638 3.036l.192.308c.622 1.01 1.888 1.247 2.884.605l28.082-18.084 28.08 18.085c.997.642 2.26.405 2.883-.604l.192-.307c.622-1.01.36-2.396-.635-3.037l-29.19-18.8a2.154 2.154 0 0 0-1.33-.34c-.05 0-.096-.016-.144-.017z" style="isolation:auto;mix-blend-mode:normal" color="#000" overflow="visible" fill="#b00000"/><path d="M54.048 1086.428l17.113-10.01 48.974-.215 17.33 9.902.107 9.04H53.94z" fill="url(#m)" fill-rule="evenodd"/></g></svg>