<svg xmlns="http://www.w3.org/2000/svg" xmlns:xlink="http://www.w3.org/1999/xlink" width="24" height="24" viewBox="0 0 24 24"><defs><linearGradient id="a"><stop offset="0" stop-color="#177217" stop-opacity=".996"/><stop offset="1" stop-color="#4eab46" stop-opacity=".996"/></linearGradient><linearGradient id="b"><stop offset="0"/><stop offset="1" stop-opacity="0"/></linearGradient><linearGradient id="d"><stop offset="0" stop-color="#1f58b6"/><stop offset="1" stop-color="#7aa4e8"/></linearGradient><radialGradient xlink:href="#a" id="f" cx="6.393" cy="15.165" fx="6.393" fy="15.165" r="11.932" gradientUnits="userSpaceOnUse" gradientTransform="matrix(1.4121 -1.10457 1.0703 1.3683 -14.652 5.117)"/><linearGradient xlink:href="#b" id="g" x1="4.943" y1="20.047" x2="30.151" y2="-6.266" gradientUnits="userSpaceOnUse"/><radialGradient xlink:href="#d" id="c" gradientUnits="userSpaceOnUse" gradientTransform="matrix(1.4121 -1.10457 1.0703 1.3683 -14.652 5.117)" cx="6.393" cy="15.165" fx="6.393" fy="15.165" r="11.932"/><radialGradient xlink:href="#d" id="e" gradientUnits="userSpaceOnUse" gradientTransform="matrix(1.4121 -1.10457 1.0703 1.3683 -14.652 5.117)" cx="6.393" cy="15.165" fx="6.393" fy="15.165" r="11.932"/></defs><g color="#000" fill-rule="evenodd"><path d="M23.932 12A11.932 11.932 0 0 1 12 23.932 11.932 11.932 0 0 1 .068 12 11.932 11.932 0 0 1 12 .068 11.932 11.932 0 0 1 23.932 12z" style="isolation:auto;mix-blend-mode:normal" overflow="visible" fill="url(#f)"/><path d="M12.047.006C5.437.006.067 5.374.067 11.984c0 6.61 5.37 11.98 11.98 11.98s11.978-5.37 11.978-11.98S18.657.006 12.047.006zm0 .963c6.09 0 11.015 4.925 11.015 11.014 0 6.09-4.926 11.016-11.015 11.016A11.008 11.008 0 0 1 1.03 11.984C1.03 5.894 5.958.97 12.048.97z" style="line-height:normal;text-indent:0;text-align:start;text-decoration-line:none;text-decoration-style:solid;text-decoration-color:#000;text-transform:none;block-progression:tb;isolation:auto;mix-blend-mode:normal" font-weight="400" font-family="sans-serif" white-space="normal" overflow="visible" opacity=".096" fill="url(#g)"/></g><path d="M13.408 22.417a2.175 2.175 0 0 1-.636-.264.7.7 0 0 0-.32-.073.875.875 0 0 1-.29-.043c-.06-.03-.116-.024-.195.015-.162.08-.446.07-.614-.022-.23-.128-.332-.31-.31-.55.01-.11.033-.232.05-.27.032-.067-.32-.287-5.316-3.33l-1.386-.846-.19.048a.692.692 0 0 1-.387 0c-.165-.04-.226-.037-.365.015a.677.677 0 0 1-.806-.278c-.1-.18-.065-.53.07-.658l.1-.097-.202-.126c-.31-.195-.387-.305-.387-.56 0-.27.067-.337.595-.587.323-.153.408-.175.73-.19.22-.01.428 0 .53.032.09.026.5.25.906.495.407.246.763.455.79.464.036.013.077-.177.133-.603.16-1.23.403-2.338.61-2.778.184-.393.493-.583.945-.584.155 0 .7.03 1.21.066.513.036.94.058.952.046.023-.02.913-2.622.913-2.67 0-.053-.463-.13-.917-.152-.39-.02-.51-.008-.93.087-.267.06-.775.2-1.13.31-.956.296-1.248.262-1.487-.176-.186-.342-.045-.7.346-.88.21-.098 1.454-.467 1.957-.58.322-.075.523-.092 1.087-.092.765 0 1.17.057 1.838.264.225.07.48.12.61.12.313 0 2.444.595 2.693.75.178.114.193.116.75.108 1.13-.017 2.206.276 3.005.817.32.216 1.436 1.228 1.56 1.412.292.438-.1.99-.65.914-.19-.025-.25-.07-.88-.646-.854-.78-1.15-.966-1.82-1.154-.363-.102-1.108-.186-1.335-.15l-.17.024-.44 1.296c-.24.714-.43 1.305-.42 1.315.01.008.31.046.662.084.865.09 1.022.152 1.242.494.23.36.223.393-.678 2.736-.792 2.06-.808 2.095-1.006 2.276-.488.446-1.258.34-1.573-.218-.186-.33-.155-.465.47-2.077.336-.868.547-1.47.52-1.485-.024-.014-.32-.048-.658-.077a10.94 10.94 0 0 1-2.893-.656c-.386-.15-.438-.16-1.25-.217a18.37 18.37 0 0 0-.86-.05c-.028.025-.21 1.054-.302 1.708-.058.41-.135.796-.174.864-.064.113-.274.3-.444.4-.057.03.717.52 3.794 2.396 2.126 1.296 3.896 2.4 3.934 2.45a.64.64 0 0 1 .088.475c-.048.174-.36.447-.647.563-.328.135-.708.167-1.022.087zm-.044-14.22c-.675-.166-1.2-.618-1.407-1.214-.067-.192-.082-.334-.07-.638.015-.352.032-.42.18-.69.498-.917 1.64-1.284 2.652-.854 1.037.442 1.444 1.594.89 2.52-.164.272-.584.633-.884.757a2.223 2.223 0 0 1-1.362.12z" fill="#0d2f0d" fill-opacity=".996"/><path d="M14.14 21.726a2.07 2.07 0 0 1-.636-.29.654.654 0 0 0-.32-.08.814.814 0 0 1-.29-.047c-.06-.033-.116-.028-.195.015-.163.09-.447.08-.616-.024a.6.6 0 0 1-.31-.603c.01-.123.034-.257.05-.297.033-.075-.318-.317-5.316-3.667l-1.385-.93-.19.054a.634.634 0 0 1-.39 0c-.163-.044-.225-.04-.363.017a.647.647 0 0 1-.806-.306c-.102-.196-.065-.58.068-.722l.1-.107-.2-.14c-.31-.214-.387-.335-.387-.616 0-.297.067-.37.594-.645.323-.17.408-.194.73-.21.22-.013.428 0 .53.034.09.03.5.276.905.546.407.27.763.5.79.51.037.014.078-.194.133-.663.16-1.355.404-2.575.61-3.06.185-.43.493-.64.946-.64.155 0 .7.032 1.21.07.512.04.94.065.952.052.023-.024.913-2.886.913-2.938 0-.06-.465-.143-.92-.168-.39-.022-.51-.01-.93.096-.265.067-.774.22-1.13.34-.954.327-1.246.29-1.485-.193-.186-.375-.045-.77.346-.968.213-.108 1.456-.514 1.96-.64.32-.08.522-.1 1.086-.1.765 0 1.17.063 1.838.29.225.078.48.133.61.133.312 0 2.444.654 2.693.827.178.123.192.125.75.117 1.13-.02 2.206.304 3.005.9.318.237 1.436 1.35 1.558 1.553.293.483-.098 1.09-.65 1.007-.188-.028-.25-.078-.88-.71-.853-.858-1.148-1.064-1.82-1.27-.362-.113-1.107-.206-1.334-.167l-.168.028-.44 1.426c-.242.785-.43 1.436-.42 1.447.01.01.308.054.66.094.866.1 1.022.168 1.242.544.233.396.225.432-.676 3.01-.793 2.268-.808 2.306-1.006 2.505-.488.49-1.258.374-1.573-.24-.186-.364-.156-.51.47-2.285.335-.955.547-1.618.52-1.634-.024-.015-.32-.054-.658-.085-.968-.09-2.03-.355-2.894-.723-.385-.164-.438-.174-1.25-.24a17.94 17.94 0 0 0-.858-.055c-.03.03-.212 1.16-.304 1.88-.056.453-.133.876-.172.95-.065.126-.274.333-.445.44-.056.035.717.574 3.795 2.638 2.126 1.426 3.896 2.64 3.934 2.697.086.13.126.37.088.52-.048.192-.362.493-.647.62a1.55 1.55 0 0 1-1.023.097zm-.045-15.648a2.007 2.007 0 0 1-1.406-1.334c-.068-.212-.084-.368-.07-.702.013-.388.03-.463.178-.76.498-1.008 1.64-1.413 2.653-.94 1.038.486 1.445 1.754.89 2.773-.162.3-.582.696-.882.833-.44.2-.928.247-1.363.13z" fill="#fff" fill-opacity=".996"/><path style="line-height:normal;text-indent:0;text-align:start;text-decoration-line:none;text-decoration-style:solid;text-decoration-color:#000;text-transform:none;block-progression:tb;isolation:auto;mix-blend-mode:normal" d="M4 14.3c-.673 0-1.23.555-1.23 1.23 0 .672.557 1.227 1.23 1.227.673 0 1.23-.555 1.23-1.228 0-.675-.557-1.23-1.23-1.23zm0 .94a.28.28 0 0 1 .287.29.28.28 0 0 1-.287.285.28.28 0 0 1-.287-.286.28.28 0 0 1 .287-.29zM12.118 19.885c-.674 0-1.23.556-1.23 1.23 0 .673.556 1.228 1.23 1.228.673 0 1.23-.555 1.23-1.23 0-.672-.557-1.228-1.23-1.228zm0 .942a.28.28 0 0 1 .286.287.28.28 0 0 1-.286.287.28.28 0 0 1-.288-.286.28.28 0 0 1 .288-.287z" color="#000" font-weight="400" font-family="sans-serif" white-space="normal" overflow="visible" fill="#fc0"/></svg>