<svg xmlns="http://www.w3.org/2000/svg" xmlns:xlink="http://www.w3.org/1999/xlink" width="24" height="24" viewBox="0 0 24 24"><defs><linearGradient id="b"><stop offset="0"/><stop offset="1" stop-opacity="0"/></linearGradient><linearGradient id="a"><stop offset="0" stop-color="#1f58b6"/><stop offset="1" stop-color="#7aa4e8"/></linearGradient><radialGradient xlink:href="#a" id="e" cx="6.393" cy="15.165" fx="6.393" fy="15.165" r="11.932" gradientUnits="userSpaceOnUse" gradientTransform="matrix(1.4121 -1.10457 1.0703 1.3683 -14.652 5.117)"/><linearGradient xlink:href="#b" id="f" x1="4.943" y1="20.047" x2="30.151" y2="-6.266" gradientUnits="userSpaceOnUse"/><radialGradient xlink:href="#a" id="c" gradientUnits="userSpaceOnUse" gradientTransform="matrix(1.4121 -1.10457 1.0703 1.3683 -14.652 5.117)" cx="6.393" cy="15.165" fx="6.393" fy="15.165" r="11.932"/><radialGradient xlink:href="#a" id="d" gradientUnits="userSpaceOnUse" gradientTransform="matrix(1.4121 -1.10457 1.0703 1.3683 -14.652 5.117)" cx="6.393" cy="15.165" fx="6.393" fy="15.165" r="11.932"/><clipPath id="g"><path style="isolation:auto;mix-blend-mode:normal" d="M22.982 12A10.982 10.982 0 0 1 12 22.982 10.982 10.982 0 0 1 1.018 12 10.982 10.982 0 0 1 12 1.018 10.982 10.982 0 0 1 22.982 12z" color="#000" overflow="visible" fill="url(#radialGradient14170)" fill-rule="evenodd" stroke-width="2" stroke-linecap="square" stroke-dashoffset=".85"/></clipPath><clipPath id="h"><path style="isolation:auto;mix-blend-mode:normal" d="M22.982 12A10.982 10.982 0 0 1 12 22.982 10.982 10.982 0 0 1 1.018 12 10.982 10.982 0 0 1 12 1.018 10.982 10.982 0 0 1 22.982 12z" color="#000" overflow="visible" fill="url(#radialGradient14164)" fill-rule="evenodd" stroke-width="2" stroke-linecap="square" stroke-dashoffset=".85"/></clipPath></defs><g color="#000" fill-rule="evenodd"><path d="M23.932 12A11.932 11.932 0 0 1 12 23.932 11.932 11.932 0 0 1 .068 12 11.932 11.932 0 0 1 12 .068 11.932 11.932 0 0 1 23.932 12z" style="isolation:auto;mix-blend-mode:normal" overflow="visible" fill="url(#e)"/><path d="M12.047.006C5.437.006.067 5.374.067 11.984c0 6.61 5.37 11.98 11.98 11.98s11.978-5.37 11.978-11.98S18.657.006 12.047.006zm0 .963c6.09 0 11.015 4.925 11.015 11.014 0 6.09-4.926 11.016-11.015 11.016A11.008 11.008 0 0 1 1.03 11.984C1.03 5.894 5.958.97 12.048.97z" style="line-height:normal;text-indent:0;text-align:start;text-decoration-line:none;text-decoration-style:solid;text-decoration-color:#000;text-transform:none;block-progression:tb;isolation:auto;mix-blend-mode:normal" font-weight="400" font-family="sans-serif" white-space="normal" overflow="visible" opacity=".096" fill="url(#f)"/></g><g fill-rule="evenodd"><path d="M.016 18.08l24-17.8.062 23.814-24.094-.08z" clip-path="url(#g)" fill="#205abb"/><path d="M0 19.856l24-12.45.063 16.657-24.094-.057z" clip-path="url(#h)" fill="#174186"/></g><path d="M5.46 20.547c-.063-.12-.1-.23-.08-.243.018-.014.76-.44 1.65-.948.89-.508 1.678-.968 1.75-1.024.096-.073-.082-.225-.65-.556-.77-.452-.994-.687-.994-1.04 0-.1.516-.976 1.148-1.944l1.148-1.762V5.612l.318-.317c.294-.294.36-.314.894-.27.573.047.586.056 1.642 1.11.585.582 1.112 1.06 1.17 1.06.06 0 .36-.26.673-.574.614-.622.974-.73 1.288-.383.37.41.232.73-.747 1.708-1.176 1.178-1.26 1.186-2.234.218l-.708-.702v2.527l1.256.045c1.082.038 1.284.074 1.465.255.163.164.274.612.51 2.065.166 1.02.323 1.877.35 1.904.16.16.59-.012 1.846-.74 1.717-.996 1.775-1.044 1.775-1.48 0-.305.21-.56.46-.56.16 0 .18.782.028 1.102-.178.373-.375.517-1.967 1.44l-1.01.586.157.313c.086.172.12.368.08.436-.127.204.147.062 2.648-1.375 1.304-.75 2.478-1.48 2.607-1.626.163-.183.217-.34.174-.51-.076-.303.334-.598.49-.352.195.308.1.913-.194 1.236-.158.173-2.753 1.74-5.768 3.484-4.777 2.762-5.496 3.147-5.61 3.006-.072-.09-.13-.21-.13-.272.002-.06 1.104-.745 2.452-1.52l2.45-1.41-.575-.19-.572-.193L10.2 18.2c-2.446 1.412-4.486 2.567-4.535 2.567-.048 0-.14-.098-.204-.218zm6.393-3.97c1.108-.64 2.026-1.17 2.038-1.18.026-.02-.594-3.748-.628-3.78-.01-.01-.537-.034-1.168-.054l-1.148-.036-.053 1.096-.052 1.096-.935 1.392c-.775 1.153-.908 1.408-.773 1.483.453.253.648.5.648.814 0 .18.013.328.03.328.014 0 .934-.523 2.043-1.162zM7.51 9.586c-.266-.316-.27-.346-.27-1.988 0-1.85.08-2.162.605-2.38a.89.89 0 0 1 1.067.278c.188.24.207.426.207 2.08 0 1.79-.005 1.822-.257 2.074a.906.906 0 0 1-1.353-.065zm2.75-4.9c-.696-.19-1.037-.618-1.037-1.307 0-1.574 2.264-1.788 2.643-.25.092.375-.09.958-.388 1.237-.296.278-.842.42-1.217.32z" fill="#fff"/></svg>