<svg xmlns="http://www.w3.org/2000/svg" xmlns:xlink="http://www.w3.org/1999/xlink" width="24" height="24" viewBox="0 0 24 24"><defs><linearGradient id="b"><stop offset="0"/><stop offset="1" stop-opacity="0"/></linearGradient><linearGradient id="a"><stop offset="0" stop-color="#1f58b6"/><stop offset="1" stop-color="#7aa4e8"/></linearGradient><radialGradient xlink:href="#a" id="e" cx="6.393" cy="15.165" fx="6.393" fy="15.165" r="11.932" gradientUnits="userSpaceOnUse" gradientTransform="matrix(1.4121 -1.10457 1.0703 1.3683 -14.652 5.117)"/><linearGradient xlink:href="#b" id="f" x1="4.943" y1="20.047" x2="30.151" y2="-6.266" gradientUnits="userSpaceOnUse"/><radialGradient xlink:href="#a" id="c" gradientUnits="userSpaceOnUse" gradientTransform="matrix(1.4121 -1.10457 1.0703 1.3683 -14.652 5.117)" cx="6.393" cy="15.165" fx="6.393" fy="15.165" r="11.932"/><radialGradient xlink:href="#a" id="d" gradientUnits="userSpaceOnUse" gradientTransform="matrix(1.4121 -1.10457 1.0703 1.3683 -14.652 5.117)" cx="6.393" cy="15.165" fx="6.393" fy="15.165" r="11.932"/><clipPath id="g"><path style="isolation:auto;mix-blend-mode:normal" d="M22.982 12A10.982 10.982 0 0 1 12 22.982 10.982 10.982 0 0 1 1.018 12 10.982 10.982 0 0 1 12 1.018 10.982 10.982 0 0 1 22.982 12z" color="#000" overflow="visible" fill="url(#radialGradient14170)" fill-rule="evenodd" stroke-width="2" stroke-linecap="square" stroke-dashoffset=".85"/></clipPath><clipPath id="h"><path style="isolation:auto;mix-blend-mode:normal" d="M22.982 12A10.982 10.982 0 0 1 12 22.982 10.982 10.982 0 0 1 1.018 12 10.982 10.982 0 0 1 12 1.018 10.982 10.982 0 0 1 22.982 12z" color="#000" overflow="visible" fill="url(#radialGradient14164)" fill-rule="evenodd" stroke-width="2" stroke-linecap="square" stroke-dashoffset=".85"/></clipPath></defs><g color="#000" fill-rule="evenodd"><path d="M23.932 12A11.932 11.932 0 0 1 12 23.932 11.932 11.932 0 0 1 .068 12 11.932 11.932 0 0 1 12 .068 11.932 11.932 0 0 1 23.932 12z" style="isolation:auto;mix-blend-mode:normal" overflow="visible" fill="url(#e)"/><path d="M12.047.006C5.437.006.067 5.374.067 11.984c0 6.61 5.37 11.98 11.98 11.98s11.978-5.37 11.978-11.98S18.657.006 12.047.006zm0 .963c6.09 0 11.015 4.925 11.015 11.014 0 6.09-4.926 11.016-11.015 11.016A11.008 11.008 0 0 1 1.03 11.984C1.03 5.894 5.958.97 12.048.97z" style="line-height:normal;text-indent:0;text-align:start;text-decoration-line:none;text-decoration-style:solid;text-decoration-color:#000;text-transform:none;block-progression:tb;isolation:auto;mix-blend-mode:normal" font-weight="400" font-family="sans-serif" white-space="normal" overflow="visible" opacity=".096" fill="url(#f)"/></g><g fill-rule="evenodd"><path clip-path="url(#g)" d="M.016 18.08l24-17.8.062 23.814-24.094-.08z" transform="matrix(-1 0 0 1 24 0)" fill="#205abb"/><path clip-path="url(#h)" d="M0 19.856l24-12.45.063 16.657-24.094-.057z" transform="matrix(-1 0 0 1 24 0)" fill="#174186"/></g><path d="M3.9 14.064c-.123-.16-.13-.356-.024-.572.066-.134.118-.177.282-.232l.202-.068 2.706 1.337 2.707 1.336 1.09-1.122 1.128-1.157c.02-.02-.44-.467-1.06-1.035-1.664-1.522-1.607-1.463-1.73-1.787a1.703 1.703 0 0 1-.102-.527c.01-.454-.17-.502 1.886.513l1.813.897.643.59c.804.735.8.73.888 1.028.053.18.056.31.012.493l-.06.248-1.31 1.338a59.47 59.47 0 0 0-1.333 1.386c-.032.064 3.514 1.82 3.78 1.872.353.07.582-.03.81-.345.276-.386.814-.3.95.15.053.176.05.195-.11.474a1.205 1.205 0 0 1-.418.473c-.44.314-1.04.413-1.583.26-.176-.05-1.93-.9-5.662-2.746-4.914-2.43-5.417-2.685-5.507-2.802zM7.21 8.64l.117-.24-.22-.108c-.192-.094-.23-.132-.28-.282-.066-.195-.044-.265.12-.385.138-.103.207-.098.48.037l.213.106.118-.238c.112-.228.12-.236.218-.188.162.08.335.35.367.577l.03.208.695.332.694.33.098-.098c.195-.2 3.84-2.787 4.022-2.854.246-.092.47-.045.732.15.227.17 1.633 2.053 1.733 2.323.03.084.126.692.21 1.352l.156 1.2.692.36c.617.32.705.378.812.525.47.65.056 1.517-.732 1.535l-.267.006-4.58-2.26-4.58-2.262-.18.1c-.183.102-.544.13-.7.053-.078-.04-.076-.064.032-.282zm7.597 2.558c-.002-.062-.058-.536-.126-1.054l-.122-.94-.124.08c-.068.043-.36.25-.65.46a34.8 34.8 0 0 1-.704.502l-.18.12.955.472.956.472-.003-.112zm1.262-4.95a1.63 1.63 0 0 1-.484-1.17c-.003-.21.027-.33.156-.624.203-.463.423-.683.85-.85 1.106-.43 2.234.36 2.21 1.548a1.64 1.64 0 0 1-.53 1.143c-.29.264-.827.446-1.203.408-.316-.032-.807-.256-1-.456z" fill="#fff"/></svg>