<svg xmlns="http://www.w3.org/2000/svg" xmlns:xlink="http://www.w3.org/1999/xlink" width="24" height="24" viewBox="0 0 24 24"><defs><linearGradient id="b"><stop offset="0"/><stop offset="1" stop-opacity="0"/></linearGradient><linearGradient id="a"><stop offset="0" stop-color="#1f58b6"/><stop offset="1" stop-color="#7aa4e8"/></linearGradient><radialGradient xlink:href="#a" id="e" cx="6.393" cy="15.165" fx="6.393" fy="15.165" r="11.932" gradientUnits="userSpaceOnUse" gradientTransform="matrix(1.4121 -1.10457 1.0703 1.3683 -14.652 5.117)"/><linearGradient xlink:href="#b" id="f" x1="4.943" y1="20.047" x2="30.151" y2="-6.266" gradientUnits="userSpaceOnUse"/><radialGradient xlink:href="#a" id="c" gradientUnits="userSpaceOnUse" gradientTransform="matrix(1.4121 -1.10457 1.0703 1.3683 -14.652 5.117)" cx="6.393" cy="15.165" fx="6.393" fy="15.165" r="11.932"/><radialGradient xlink:href="#a" id="d" gradientUnits="userSpaceOnUse" gradientTransform="matrix(1.4121 -1.10457 1.0703 1.3683 -14.652 5.117)" cx="6.393" cy="15.165" fx="6.393" fy="15.165" r="11.932"/><clipPath id="g"><path style="isolation:auto;mix-blend-mode:normal" d="M22.982 12A10.982 10.982 0 0 1 12 22.982 10.982 10.982 0 0 1 1.018 12 10.982 10.982 0 0 1 12 1.018 10.982 10.982 0 0 1 22.982 12z" color="#000" overflow="visible" fill="url(#radialGradient14170)" fill-rule="evenodd" stroke-width="2" stroke-linecap="square" stroke-dashoffset=".85"/></clipPath><clipPath id="h"><path style="isolation:auto;mix-blend-mode:normal" d="M22.982 12A10.982 10.982 0 0 1 12 22.982 10.982 10.982 0 0 1 1.018 12 10.982 10.982 0 0 1 12 1.018 10.982 10.982 0 0 1 22.982 12z" color="#000" overflow="visible" fill="url(#radialGradient14164)" fill-rule="evenodd" stroke-width="2" stroke-linecap="square" stroke-dashoffset=".85"/></clipPath></defs><g color="#000" fill-rule="evenodd"><path d="M23.932 12A11.932 11.932 0 0 1 12 23.932 11.932 11.932 0 0 1 .068 12 11.932 11.932 0 0 1 12 .068 11.932 11.932 0 0 1 23.932 12z" style="isolation:auto;mix-blend-mode:normal" overflow="visible" fill="url(#e)"/><path d="M12.047.006C5.437.006.067 5.374.067 11.984c0 6.61 5.37 11.98 11.98 11.98s11.978-5.37 11.978-11.98S18.657.006 12.047.006zm0 .963c6.09 0 11.015 4.925 11.015 11.014 0 6.09-4.926 11.016-11.015 11.016A11.008 11.008 0 0 1 1.03 11.984C1.03 5.894 5.958.97 12.048.97z" style="line-height:normal;text-indent:0;text-align:start;text-decoration-line:none;text-decoration-style:solid;text-decoration-color:#000;text-transform:none;block-progression:tb;isolation:auto;mix-blend-mode:normal" font-weight="400" font-family="sans-serif" white-space="normal" overflow="visible" opacity=".096" fill="url(#f)"/></g><g fill-rule="evenodd"><path d="M.016 18.08l24-17.8.062 23.814-24.094-.08z" clip-path="url(#g)" fill="#205abb"/><path d="M0 19.856l24-12.45.063 16.657-24.094-.057z" clip-path="url(#h)" fill="#174186"/></g><path d="M9.214 19.58a13.184 13.184 0 0 0-.017-.287c-.004-.056.462-.165 1.424-.333 1.458-.254 3.82-.67 6.573-1.155.843-.148 1.658-.316 1.813-.373.154-.057.424-.245.6-.418.237-.235.338-.295.395-.237.13.128-.115.785-.37 1-.336.283-.276.268-3.39.81-.544.095-2.29.403-3.88.685-1.593.282-2.95.512-3.015.512-.086 0-.123-.058-.13-.204z" fill="#e6e6e6"/><path d="M14.327 17.894a2.417 2.417 0 0 0-.024-.153c-.01-.056-.04-.56-.065-1.123a31.135 31.135 0 0 0-.086-1.38l-.04-.356h-1.766c-1.873 0-2.07-.03-2.234-.336-.044-.082-.07-.938-.07-2.284 0-2.303.006-2.348.352-2.67.494-.462 1.495-.48 1.985-.036.324.294.34.412.255 1.95-.043.79-.094 1.545-.114 1.68l-.034.243 1.2.08c.77.052 1.267.115 1.39.18.346.178.37.353.285 1.994a68.3 68.3 0 0 1-.116 1.874l-.04.392h-.435c-.24 0-.44-.023-.443-.052z" fill="#fff"/><path d="M10.186 15.686c-.383-.086-.895-.583-1.014-.983-.062-.21-.084-1.493-.084-5.064 0-4.53-.006-4.783-.12-4.74-.154.062-6.512 2.217-6.536 2.217-.01 0-.018-.138-.018-.307 0-.168.01-.306.02-.306.026 0 3.53-1.178 9.293-3.123l4.65-1.568V2.4l-1.925.658c-1.058.36-2.553.865-3.32 1.12l-1.397.465-.017 4.8-.018 4.802.158.297c.107.204.25.347.454.454.285.15.358.157 1.89.157h1.593l-.02.29-.02.29-1.636.01c-.9.01-1.77-.02-1.934-.058z" fill="#fff"/><path d="M10.825 8.76c-.303-.186-.425-.35-.515-.69-.11-.42 0-.808.31-1.08.344-.302.677-.374 1.117-.244.3.09.387.155.56.426.18.276.203.368.18.68-.032.4-.177.644-.527.882-.29.196-.83.21-1.125.027z" fill="#fff"/><path d="M7.454 4.276c-.32-.117-.613-.564-.613-.938 0-.79.745-1.27 1.448-.93.72.35.79 1.318.126 1.762-.225.15-.697.202-.96.106zM9.763 3.284c-.8-.534-.474-1.766.492-1.866.366-.037.706.13.934.462.13.19.153.297.132.61-.017.23-.078.447-.16.558-.294.404-.977.52-1.4.236z" fill="#e6e6e6"/></svg>