<svg xmlns="http://www.w3.org/2000/svg" xmlns:xlink="http://www.w3.org/1999/xlink" width="24" height="24" viewBox="0 0 24 24"><defs><linearGradient id="a"><stop offset="0" stop-color="#b30101" stop-opacity=".996"/><stop offset="1" stop-color="#fa4667" stop-opacity=".996"/></linearGradient><linearGradient id="b"><stop offset="0"/><stop offset="1" stop-opacity="0"/></linearGradient><linearGradient id="d"><stop offset="0" stop-color="#1f58b6"/><stop offset="1" stop-color="#7aa4e8"/></linearGradient><radialGradient xlink:href="#a" id="f" cx="6.393" cy="15.165" fx="6.393" fy="15.165" r="11.932" gradientUnits="userSpaceOnUse" gradientTransform="matrix(1.4121 -1.10457 1.0703 1.3683 -14.652 5.117)"/><linearGradient xlink:href="#b" id="g" x1="4.943" y1="20.047" x2="30.151" y2="-6.266" gradientUnits="userSpaceOnUse"/><radialGradient xlink:href="#d" id="c" gradientUnits="userSpaceOnUse" gradientTransform="matrix(1.4121 -1.10457 1.0703 1.3683 -14.652 5.117)" cx="6.393" cy="15.165" fx="6.393" fy="15.165" r="11.932"/><radialGradient xlink:href="#d" id="e" gradientUnits="userSpaceOnUse" gradientTransform="matrix(1.4121 -1.10457 1.0703 1.3683 -14.652 5.117)" cx="6.393" cy="15.165" fx="6.393" fy="15.165" r="11.932"/><clipPath id="i"><circle style="isolation:auto;mix-blend-mode:normal" cx="12" cy="1040.362" r="10.96" color="#000" overflow="visible" fill="green" stroke-width=".8" stroke-linejoin="round"/></clipPath><clipPath id="h"><circle style="isolation:auto;mix-blend-mode:normal" cx="12" cy="1040.362" r="10.96" color="#000" overflow="visible" fill="green" stroke-width=".8" stroke-linejoin="round"/></clipPath></defs><g color="#000" fill-rule="evenodd"><path d="M23.932 12A11.932 11.932 0 0 1 12 23.932 11.932 11.932 0 0 1 .068 12 11.932 11.932 0 0 1 12 .068 11.932 11.932 0 0 1 23.932 12z" style="isolation:auto;mix-blend-mode:normal" overflow="visible" fill="url(#f)"/><path d="M12.047.006C5.437.006.067 5.374.067 11.984c0 6.61 5.37 11.98 11.98 11.98s11.978-5.37 11.978-11.98S18.657.006 12.047.006zm0 .963c6.09 0 11.015 4.925 11.015 11.014 0 6.09-4.926 11.016-11.015 11.016A11.008 11.008 0 0 1 1.03 11.984C1.03 5.894 5.958.97 12.048.97z" style="line-height:normal;text-indent:0;text-align:start;text-decoration-line:none;text-decoration-style:solid;text-decoration-color:#000;text-transform:none;block-progression:tb;isolation:auto;mix-blend-mode:normal" font-weight="400" font-family="sans-serif" white-space="normal" overflow="visible" opacity=".096" fill="url(#g)"/></g><g transform="translate(0 -1028.362)"><ellipse style="isolation:auto;mix-blend-mode:normal" cx="13.081" cy="1054.381" rx="16" ry="12.45" clip-path="url(#h)" color="#000" overflow="visible" fill="#500"/><g fill="#500"><path d="M21.43 1043.49c-.21-.06-.41-.194-.626-.42-.102-.107-.484-.622-1.21-1.63-.584-.81-1.068-1.473-1.074-1.476a1.577 1.577 0 0 0-.15.24c-.76 1.355-1.47 2.427-1.773 2.674a.397.397 0 0 1-.166.088c-.34.055-1.635.066-4.88.043-1.514-.01-2.573-.01-3.296.004-2.29.044-3.027.057-3.455.062l-.445.005-.39-.132a33.51 33.51 0 0 1-1.518-.573.725.725 0 0 1-.29-.192c-.106-.106-.128-.14-.162-.25a.672.672 0 0 1-.01-.405c.068-.267.247-.464.456-.503.057-.01.15.02.65.22.32.128.756.296.97.374l.388.14.277.016c.157.01.703.01 1.255.003l.977-.014.047-.048c.033-.033.056-.087.075-.176a2.37 2.37 0 0 1 .263-.58c.16-.237.624-.407 1.402-.512.282-.04 1.088-.06 2.343-.066.535-.002 1.213-.01 1.506-.015l.533-.012.247-.74c.447-1.34 1.198-3.48 1.267-3.613a1.53 1.53 0 0 1 .496-.504c.154-.08.32-.13.503-.153.148-.02.253-.007 2.39.26 2.27.284 2.65.342 2.853.434.253.117.375.354.377.734.002.36-.148.583-.44.657-.126.033.117.05-2.62-.194a125.55 125.55 0 0 0-1.862-.16l-.17-.01-.04.22c-.195 1.066-.57 3.203-.564 3.21.038.038.793-.874 1.932-2.333.595-.762.603-.77.84-.824a.955.955 0 0 1 .66.077c.134.065.34.27.448.445.045.074.265.41.49.75.222.34.755 1.15 1.182 1.8.427.653.835 1.274.907 1.38.348.52.447.94.297 1.263a.817.817 0 0 1-.656.453.745.745 0 0 1-.235-.02z"/><path d="M4.612 1041.37c-.127-.013-.373-.093-.852-.278-.18-.07-.183-.072-.204-.143a1.815 1.815 0 0 1-.022-.358c0-.34.03-.476.164-.753.22-.455.604-.766 1.118-.908.19-.052.624-.052.816 0 .625.17 1.08.626 1.242 1.243.05.19.06.49.026.687-.028.156-.114.424-.155.478-.018.025-.128.028-1.012.035-.546.004-1.05 0-1.12-.006zM2.866 1040.85c-.21-.082-.366-.153-.366-.167 0-.056.116-.246.192-.313a.58.58 0 0 1 .486-.125l.053.01v.737l-.364-.143z"/></g><ellipse style="isolation:auto;mix-blend-mode:normal" cx="11.75" cy="1054.746" rx="16" ry="12.45" clip-path="url(#i)" color="#000" overflow="visible" fill="#fc0"/><g fill="#fff"><path d="M21.498 1042.372c-.21-.06-.408-.192-.625-.42-.102-.106-.484-.62-1.21-1.627-.584-.81-1.068-1.475-1.074-1.477a1.577 1.577 0 0 0-.15.24c-.76 1.355-1.472 2.427-1.774 2.673a.397.397 0 0 1-.166.09c-.342.054-1.636.065-4.88.043-1.515-.01-2.574-.01-3.297.004-2.29.044-3.027.058-3.455.062l-.444.004-.39-.132a33.51 33.51 0 0 1-1.518-.574.725.725 0 0 1-.29-.192c-.106-.105-.128-.14-.162-.25a.672.672 0 0 1-.01-.405c.068-.266.247-.463.456-.502.056-.01.148.02.648.22.32.13.757.297.97.374l.388.14.278.018c.157.01.703.01 1.255.003l.976-.014.047-.05c.033-.032.056-.086.075-.175a2.37 2.37 0 0 1 .264-.58c.16-.237.624-.407 1.402-.512.282-.038 1.088-.06 2.343-.066.535-.002 1.213-.008 1.506-.015l.533-.01.247-.742c.447-1.337 1.198-3.48 1.267-3.612a1.53 1.53 0 0 1 .495-.503c.154-.08.32-.132.503-.155.15-.02.254-.007 2.392.26 2.27.284 2.65.342 2.85.434.254.116.377.354.38.733 0 .36-.15.584-.44.657-.127.032.116.05-2.62-.195a125.55 125.55 0 0 0-1.863-.16l-.17-.012-.04.22c-.195 1.068-.57 3.204-.564 3.21.038.04.793-.872 1.932-2.332.595-.762.603-.77.84-.824a.955.955 0 0 1 .66.078c.134.065.34.27.448.445.045.074.265.412.49.75l1.182 1.802c.427.652.835 1.273.907 1.38.348.518.447.94.297 1.26a.817.817 0 0 1-.657.454.745.745 0 0 1-.235-.018z"/><path d="M4.68 1040.253c-.126-.013-.372-.093-.85-.278-.182-.07-.184-.07-.205-.143a1.815 1.815 0 0 1-.022-.357c0-.34.03-.475.163-.752.22-.455.605-.766 1.12-.908.188-.052.623-.052.815 0 .626.17 1.08.627 1.243 1.243.05.19.06.49.026.687-.03.156-.115.424-.156.478-.018.025-.128.03-1.012.035-.546.004-1.05 0-1.12-.005zM2.935 1039.732c-.21-.08-.366-.152-.366-.165-.002-.056.115-.246.19-.314a.58.58 0 0 1 .487-.124l.053.01v.736s-.164-.066-.365-.144z"/></g></g></svg>