<svg xmlns="http://www.w3.org/2000/svg" xmlns:xlink="http://www.w3.org/1999/xlink" width="24" height="24" viewBox="0 0 24 24"><defs><linearGradient id="a"><stop offset="0" stop-color="#b30101" stop-opacity=".996"/><stop offset="1" stop-color="#fa4667" stop-opacity=".996"/></linearGradient><linearGradient id="b"><stop offset="0"/><stop offset="1" stop-opacity="0"/></linearGradient><linearGradient id="d"><stop offset="0" stop-color="#1f58b6"/><stop offset="1" stop-color="#7aa4e8"/></linearGradient><radialGradient xlink:href="#a" id="f" cx="6.393" cy="15.165" fx="6.393" fy="15.165" r="11.932" gradientUnits="userSpaceOnUse" gradientTransform="matrix(1.4121 -1.10457 1.0703 1.3683 -14.652 5.117)"/><linearGradient xlink:href="#b" id="g" x1="4.943" y1="20.047" x2="30.151" y2="-6.266" gradientUnits="userSpaceOnUse"/><radialGradient xlink:href="#d" id="c" gradientUnits="userSpaceOnUse" gradientTransform="matrix(1.4121 -1.10457 1.0703 1.3683 -14.652 5.117)" cx="6.393" cy="15.165" fx="6.393" fy="15.165" r="11.932"/><radialGradient xlink:href="#d" id="e" gradientUnits="userSpaceOnUse" gradientTransform="matrix(1.4121 -1.10457 1.0703 1.3683 -14.652 5.117)" cx="6.393" cy="15.165" fx="6.393" fy="15.165" r="11.932"/><clipPath id="i"><path style="isolation:auto;mix-blend-mode:normal" d="M22.982 12A10.982 10.982 0 0 1 12 22.982 10.982 10.982 0 0 1 1.018 12 10.982 10.982 0 0 1 12 1.018 10.982 10.982 0 0 1 22.982 12z" color="#000" overflow="visible" fill="url(#radialGradient14164)" fill-rule="evenodd" stroke-width="2" stroke-linecap="square" stroke-dashoffset=".85"/></clipPath><clipPath id="h"><path style="isolation:auto;mix-blend-mode:normal" d="M22.982 12A10.982 10.982 0 0 1 12 22.982 10.982 10.982 0 0 1 1.018 12 10.982 10.982 0 0 1 12 1.018 10.982 10.982 0 0 1 22.982 12z" color="#000" overflow="visible" fill="url(#radialGradient14170)" fill-rule="evenodd" stroke-width="2" stroke-linecap="square" stroke-dashoffset=".85"/></clipPath></defs><g color="#000" fill-rule="evenodd"><path d="M23.932 12A11.932 11.932 0 0 1 12 23.932 11.932 11.932 0 0 1 .068 12 11.932 11.932 0 0 1 12 .068 11.932 11.932 0 0 1 23.932 12z" style="isolation:auto;mix-blend-mode:normal" overflow="visible" fill="url(#f)"/><path d="M12.047.006C5.437.006.067 5.374.067 11.984c0 6.61 5.37 11.98 11.98 11.98s11.978-5.37 11.978-11.98S18.657.006 12.047.006zm0 .963c6.09 0 11.015 4.925 11.015 11.014 0 6.09-4.926 11.016-11.015 11.016A11.008 11.008 0 0 1 1.03 11.984C1.03 5.894 5.958.97 12.048.97z" style="line-height:normal;text-indent:0;text-align:start;text-decoration-line:none;text-decoration-style:solid;text-decoration-color:#000;text-transform:none;block-progression:tb;isolation:auto;mix-blend-mode:normal" font-weight="400" font-family="sans-serif" white-space="normal" overflow="visible" opacity=".096" fill="url(#g)"/></g><path transform="rotate(74.978 12.053 12.058)" d="M.016 18.08l24-17.8.062 23.814-24.094-.08z" clip-path="url(#h)" fill="#ac9393" fill-rule="evenodd"/><path transform="rotate(74.978 12.053 12.058)" d="M0 19.856l24-12.45.063 16.657-24.094-.057z" clip-path="url(#i)" fill="maroon" fill-rule="evenodd"/><path d="M15.848 20.586a1.07 1.07 0 0 1-.358-.628c-.012-.063-.042-.843-.067-1.734l-.046-1.62-.125-.048c-1.032-.408-2.607-1.075-2.69-1.138a1.746 1.746 0 0 1-.607-.858c-.062-.19-.1-.566-.212-2.042a63.326 63.326 0 0 0-.15-1.817c-.007-.01-.334.325-.726.73-.694.72-.857.866-.996.903-.037.01-.747-.13-1.62-.317-.967-.207-1.616-.333-1.716-.33-.317.01-.648-.24-.738-.544-.09-.303.02-.657.256-.84.233-.18.165-.188 1.85.187 1.346.3 1.537.335 1.582.297.028-.024.62-.67 1.318-1.436.696-.766 1.324-1.437 1.395-1.492.07-.055.2-.134.286-.176.39-.192 5.748-2.663 5.872-2.707a.77.77 0 0 1 .54.01c.33.112.555.503.492.853a.737.737 0 0 1-.33.516c-.073.045-1.022.492-2.11.994-1.087.502-1.988.923-2.003.937-.025.023.2 3.87.228 3.88.007.01.656-.306 1.442-.69.815-.395 1.486-.703 1.562-.716.235-.042.452-.01.694.12.246.123 3.65 2.064 3.836 2.185.776.51.498 1.72-.423 1.84-.36.045-.307.07-2.243-1.025-1.615-.912-1.72-.97-1.78-.948-.207.072-2.963 1.417-2.943 1.436.012.013.38.17.82.35.437.18.833.355.88.39.128.098.256.287.313.466.04.12.068.648.11 2.007.03 1.015.055 1.98.054 2.146-.002.29-.007.31-.117.53-.097.196-.136.248-.25.34-.37.29-.926.29-1.28 0zM10 7.436a1.676 1.676 0 0 1-.555-1.213c.005-.745.428-1.335 1.12-1.563a1.498 1.498 0 0 1 1.235.087c.424.21.662.484.82.95.11.32.123.572.048.89a1.638 1.638 0 0 1-1.844 1.23 1.847 1.847 0 0 1-.823-.38z" fill="#500"/><path d="M15.705 19.256a1.07 1.07 0 0 1-.358-.628c-.01-.063-.04-.843-.066-1.734l-.046-1.62-.124-.048c-1.032-.408-2.607-1.075-2.69-1.138a1.746 1.746 0 0 1-.608-.858c-.06-.19-.1-.566-.21-2.042a63.326 63.326 0 0 0-.15-1.817c-.008-.01-.335.325-.727.73-.695.72-.857.866-.996.903-.04.01-.75-.13-1.623-.317-.966-.207-1.615-.333-1.715-.33-.318.01-.648-.24-.738-.544-.09-.303.018-.657.256-.84.233-.18.165-.188 1.85.187 1.346.3 1.537.335 1.582.297.028-.024.62-.67 1.317-1.436.696-.766 1.324-1.437 1.395-1.492.07-.055.2-.134.286-.176.39-.192 5.75-2.663 5.872-2.707a.77.77 0 0 1 .54.01c.33.112.556.503.493.853a.737.737 0 0 1-.33.516c-.073.045-1.022.492-2.11.994-1.087.502-1.988.923-2.003.937-.025.023.2 3.87.227 3.88.007.01.656-.306 1.44-.69.817-.395 1.488-.703 1.564-.716.235-.042.45-.01.694.12.246.123 3.65 2.064 3.835 2.185.777.51.5 1.72-.422 1.84-.36.045-.306.07-2.242-1.025-1.615-.912-1.722-.97-1.782-.948-.205.072-2.96 1.417-2.942 1.436.013.013.382.17.82.35.438.18.834.355.88.39.13.098.257.287.314.466.04.12.067.648.11 2.007.03 1.015.055 1.98.053 2.146 0 .29-.005.31-.115.53-.097.196-.136.248-.25.34-.37.29-.927.29-1.28 0zM9.858 6.106a1.676 1.676 0 0 1-.555-1.213c.005-.745.428-1.335 1.12-1.563a1.498 1.498 0 0 1 1.235.087c.424.21.66.484.82.95.11.32.122.572.048.89a1.638 1.638 0 0 1-1.844 1.23 1.847 1.847 0 0 1-.824-.38z" fill="#fff"/></svg>