<svg xmlns="http://www.w3.org/2000/svg" xmlns:xlink="http://www.w3.org/1999/xlink" width="24" height="24" viewBox="0 0 24 24"><defs><linearGradient id="b"><stop offset="0" stop-color="#1f58b6"/><stop offset="1" stop-color="#7aa4e8"/></linearGradient><radialGradient xlink:href="#b" id="a" gradientUnits="userSpaceOnUse" gradientTransform="matrix(1.4121 -1.10457 1.0703 1.3683 -14.652 5.117)" cx="6.393" cy="15.165" fx="6.393" fy="15.165" r="11.932"/><radialGradient xlink:href="#b" id="c" gradientUnits="userSpaceOnUse" gradientTransform="matrix(1.4121 -1.10457 1.0703 1.3683 -14.652 5.117)" cx="6.393" cy="15.165" fx="6.393" fy="15.165" r="11.932"/></defs><path style="isolation:auto;mix-blend-mode:normal" color="#000" overflow="visible" fill="#fff" d="M0 0h24v24H0z"/><path d="M8.996 23.32C6.91 22.74 5.32 21.8 3.723 20.2c-1.58-1.585-2.267-2.624-2.863-4.33-1.487-4.256-.466-8.79 2.7-11.99C5.01 2.418 6.464 1.495 8.358.833 9.535.42 9.807.26 12.017.258c2.284-.002 2.477.147 3.812.624 1.977.708 3.028 1.378 4.602 2.935 1.15 1.137 1.495 1.606 2.12 2.876.985 2.007 1.268 3.193 1.26 5.273-.016 3.227-1.086 5.843-3.308 8.085-1.458 1.473-2.92 2.4-4.797 3.04-1.743.596-4.988.706-6.71.23zm1.017-3.642c.616-.457.815-.96.818-2.062.003-.75-.056-1.005-.25-1.08-.138-.052-1.47-.096-2.96-.096H4.912l.784-1.023c1.88-2.454 4.697-7.678 5.844-10.84.343-.946.678-1.72.745-1.72.066 0 .17.218.227.484.54 2.463 4.094 9.4 6.24 12.18.39.507.71.956.71 1 0 .044-1.402.08-3.116.08H13.23v1.175c0 1.027.05 1.228.394 1.6.73.787 1.81.947 3.213.476.585-.196 1.075-.555 1.906-1.397 1.81-1.834 2.638-3.895 2.635-6.56-.003-2.19-.505-3.708-1.81-5.47-2.646-3.58-7.517-4.74-11.69-2.784C5.52 4.74 3.585 7.075 2.903 9.633c-.284 1.07-.276 3.625.016 4.72.713 2.68 2.776 5.097 4.797 5.62.738.192 1.83.05 2.296-.296z" fill="#007435"/></svg>