<svg xmlns="http://www.w3.org/2000/svg" xmlns:xlink="http://www.w3.org/1999/xlink" width="24" height="24" viewBox="0 0 24 24"><defs><linearGradient id="a"><stop offset="0" stop-color="#177217" stop-opacity=".996"/><stop offset="1" stop-color="#4eab46" stop-opacity=".996"/></linearGradient><linearGradient id="b"><stop offset="0"/><stop offset="1" stop-opacity="0"/></linearGradient><linearGradient id="d"><stop offset="0" stop-color="#1f58b6"/><stop offset="1" stop-color="#7aa4e8"/></linearGradient><radialGradient xlink:href="#a" id="f" cx="6.393" cy="15.165" fx="6.393" fy="15.165" r="11.932" gradientUnits="userSpaceOnUse" gradientTransform="matrix(1.4121 -1.10457 1.0703 1.3683 -14.652 5.117)"/><linearGradient xlink:href="#b" id="g" x1="4.943" y1="20.047" x2="30.151" y2="-6.266" gradientUnits="userSpaceOnUse"/><radialGradient xlink:href="#d" id="c" gradientUnits="userSpaceOnUse" gradientTransform="matrix(1.4121 -1.10457 1.0703 1.3683 -14.652 5.117)" cx="6.393" cy="15.165" fx="6.393" fy="15.165" r="11.932"/><radialGradient xlink:href="#d" id="e" gradientUnits="userSpaceOnUse" gradientTransform="matrix(1.4121 -1.10457 1.0703 1.3683 -14.652 5.117)" cx="6.393" cy="15.165" fx="6.393" fy="15.165" r="11.932"/><clipPath id="h"><circle style="isolation:auto;mix-blend-mode:normal" cx="11.999" cy="12.001" r="10.96" color="#000" overflow="visible" fill="maroon" stroke-opacity=".428"/></clipPath></defs><g color="#000" fill-rule="evenodd"><path d="M23.932 12A11.932 11.932 0 0 1 12 23.932 11.932 11.932 0 0 1 .068 12 11.932 11.932 0 0 1 12 .068 11.932 11.932 0 0 1 23.932 12z" style="isolation:auto;mix-blend-mode:normal" overflow="visible" fill="url(#f)"/><path d="M12.047.006C5.437.006.067 5.374.067 11.984c0 6.61 5.37 11.98 11.98 11.98s11.978-5.37 11.978-11.98S18.657.006 12.047.006zm0 .963c6.09 0 11.015 4.925 11.015 11.014 0 6.09-4.926 11.016-11.015 11.016A11.008 11.008 0 0 1 1.03 11.984C1.03 5.894 5.958.97 12.048.97z" style="line-height:normal;text-indent:0;text-align:start;text-decoration-line:none;text-decoration-style:solid;text-decoration-color:#000;text-transform:none;block-progression:tb;isolation:auto;mix-blend-mode:normal" font-weight="400" font-family="sans-serif" white-space="normal" overflow="visible" opacity=".096" fill="url(#g)"/></g><path style="isolation:auto;mix-blend-mode:normal" d="M3.756 17.37a.66.66 0 0 0-.662.663c0 .01.005.02.006.03h-.006v6H21.03v-6c.002-.01.007-.02.007-.03a.662.662 0 0 0-.664-.662H3.756z" clip-path="url(#h)" color="#000" overflow="visible" fill="#250"/><g fill="#112b00"><path d="M14.946 18.54c-.11-.13-.204-.29-.21-.35-.008-.11 2.35-2.266 2.494-2.28.124-.013.547.486.534.63-.016.17-2.258 2.19-2.463 2.218-.09.012-.235-.076-.354-.218z"/><path d="M11.64 18.945c-.332-.118-4.006-3.153-4.135-3.415-.18-.37-.206-1.06-.052-1.46.12-.315.372-.57 1.865-1.886 2.71-2.39 2.523-2.25 3.008-2.26.607-.012.857.21.918.817.028.28.008.508-.052.598-.054.08-.678.667-1.387 1.305l-1.29 1.16 1.086.848 1.086.848.656-.57c.36-.312 1.04-.89 1.512-1.286l.855-.718 2.197-.197c2.08-.187 2.21-.19 2.428-.06.875.527.954 1.59.16 2.17-.22.164-.427.205-1.986.396l-1.74.214-1.73 1.506c-.95.828-1.858 1.602-2.018 1.718-.363.265-1.036.4-1.382.275z"/><path d="M13.132 13.757c-.195-.27-.45-.632-.567-.8l-.212-.31.172-.174c.094-.095.21-.18.26-.185.05-.007.34.342.645.774l.555.785-.195.196c-.107.107-.22.198-.25.2-.03.004-.214-.215-.408-.486zM5.69 13.713c-.81-.2-1.3-.764-1.382-1.595-.114-1.133.704-2.042 1.836-2.04.49.002.808.12 1.2.45.55.464.775 1.26.548 1.935-.328.97-1.236 1.487-2.2 1.25zM10.68 10.286c-.04-.05-1.126-1.57-2.413-3.378L5.53 3.09l.558-.356c.017.034 1.634 2.315 2.88 4.062l2.26 3.177-.22.2c-.257.233-.238.227-.33.113z"/></g><g fill="#fff"><path d="M14.902 17.312c-.11-.13-.204-.29-.21-.35-.008-.11 2.348-2.266 2.494-2.28.124-.013.547.487.534.63-.016.17-2.26 2.19-2.464 2.218-.092.012-.235-.076-.354-.218z"/><path d="M11.596 17.717c-.332-.118-4.007-3.153-4.135-3.415-.18-.37-.205-1.06-.052-1.46.12-.315.373-.57 1.866-1.886 2.71-2.39 2.523-2.25 3.007-2.26.608-.012.86.21.92.817.028.278.007.507-.053.597-.053.08-.678.667-1.387 1.305l-1.29 1.16 1.086.848 1.086.847.656-.57c.36-.312 1.04-.89 1.51-1.286l.857-.718 2.198-.197c2.08-.188 2.21-.19 2.427-.06.876.527.955 1.59.162 2.17-.222.163-.43.204-1.988.395l-1.74.214-1.727 1.505c-.95.828-1.86 1.602-2.02 1.718-.362.264-1.036.398-1.38.274z"/><path d="M13.087 12.53c-.195-.272-.45-.633-.566-.802l-.21-.308.17-.175c.094-.095.212-.18.26-.185.05-.007.34.342.645.774l.556.786-.194.195c-.108.107-.22.198-.25.2-.03.004-.214-.215-.41-.486zM5.646 12.485c-.81-.2-1.3-.764-1.382-1.595-.114-1.133.704-2.04 1.835-2.04.49.002.808.12 1.2.45.55.464.775 1.26.548 1.935-.328.97-1.236 1.487-2.202 1.25zM10.634 9.058c-.04-.05-1.125-1.57-2.41-3.378L6.098 2.7l.31-.197.263-.15c.032-.018 1.005 1.468 2.25 3.215l2.262 3.178-.22.2c-.258.232-.24.226-.33.112z"/></g></svg>