<svg xmlns="http://www.w3.org/2000/svg" xmlns:xlink="http://www.w3.org/1999/xlink" width="24" height="24" viewBox="0 0 24 24"><defs><linearGradient id="h"><stop offset="0" stop-color="#1d3153"/><stop offset="1" stop-color="#fafafa"/></linearGradient><linearGradient id="g"><stop offset="0" stop-color="#f0f0f0"/><stop offset="1" stop-color="#616161"/></linearGradient><linearGradient id="f"><stop offset="0" stop-color="#666"/><stop offset="1" stop-color="#f2f2f2"/></linearGradient><linearGradient id="a"><stop offset="0" stop-color="#7c05fc" stop-opacity=".996"/><stop offset="1" stop-color="#e244fe" stop-opacity=".996"/></linearGradient><linearGradient id="b"><stop offset="0"/><stop offset="1" stop-opacity="0"/></linearGradient><linearGradient id="d"><stop offset="0" stop-color="#1f58b6"/><stop offset="1" stop-color="#7aa4e8"/></linearGradient><radialGradient xlink:href="#a" id="i" cx="6.393" cy="15.165" fx="6.393" fy="15.165" r="11.932" gradientUnits="userSpaceOnUse" gradientTransform="matrix(1.4121 -1.10457 1.0703 1.3683 -14.652 5.117)"/><linearGradient xlink:href="#b" id="j" x1="4.943" y1="20.047" x2="30.151" y2="-6.266" gradientUnits="userSpaceOnUse"/><radialGradient xlink:href="#d" id="c" gradientUnits="userSpaceOnUse" gradientTransform="matrix(1.4121 -1.10457 1.0703 1.3683 -14.652 5.117)" cx="6.393" cy="15.165" fx="6.393" fy="15.165" r="11.932"/><radialGradient xlink:href="#d" id="e" gradientUnits="userSpaceOnUse" gradientTransform="matrix(1.4121 -1.10457 1.0703 1.3683 -14.652 5.117)" cx="6.393" cy="15.165" fx="6.393" fy="15.165" r="11.932"/><clipPath id="n"><circle r="11.026" cy="1040.362" cx="12" style="isolation:auto;mix-blend-mode:normal" color="#000" overflow="visible" fill="#ac9393" stroke-opacity=".428"/></clipPath><linearGradient xlink:href="#f" id="l" x1="190.757" y1="980.72" x2="190.757" y2="970.984" gradientUnits="userSpaceOnUse" gradientTransform="matrix(1.17695 0 0 .51763 -33.944 473.145)"/><linearGradient xlink:href="#g" id="m" x1="205.922" y1="925.577" x2="205.922" y2="896.174" gradientUnits="userSpaceOnUse" gradientTransform="matrix(1.2697 0 0 1.2697 -51.692 -254.78)"/><linearGradient xlink:href="#h" id="k" x1="190.008" y1="994.949" x2="190.008" y2="983.715" gradientUnits="userSpaceOnUse" gradientTransform="translate(0 -.53)"/></defs><g color="#000" fill-rule="evenodd"><path d="M23.932 12A11.932 11.932 0 0 1 12 23.932 11.932 11.932 0 0 1 .068 12 11.932 11.932 0 0 1 12 .068 11.932 11.932 0 0 1 23.932 12z" style="isolation:auto;mix-blend-mode:normal" overflow="visible" fill="url(#i)"/><path d="M12.047.006C5.437.006.067 5.374.067 11.984c0 6.61 5.37 11.98 11.98 11.98s11.978-5.37 11.978-11.98S18.657.006 12.047.006zm0 .963c6.09 0 11.015 4.925 11.015 11.014 0 6.09-4.926 11.016-11.015 11.016A11.008 11.008 0 0 1 1.03 11.984C1.03 5.894 5.958.97 12.048.97z" style="line-height:normal;text-indent:0;text-align:start;text-decoration-line:none;text-decoration-style:solid;text-decoration-color:#000;text-transform:none;block-progression:tb;isolation:auto;mix-blend-mode:normal" font-weight="400" font-family="sans-serif" white-space="normal" overflow="visible" opacity=".096" fill="url(#j)"/></g><g transform="matrix(.11802 0 0 .11802 -10.626 -98.21)"><rect width="129.25" height="13.5" x="127.079" y="981.325" ry=".521" fill="url(#k)"/><rect width="119.755" height="6.535" x="131.951" y="974.915" ry=".27" fill="url(#l)"/><path d="M189.04 880.325h5.344c37.144 0 45.418 20.256 45.418 45.417v38.356l.013 11.424H143.53l.093-11.424v-38.356c0-25.16 7.797-45.417 45.417-45.417z" fill="url(#m)"/><path d="M135.663 925.972c0-29.717 9.122-53.64 53.13-53.64h6.252c43.452 0 53.13 23.923 53.13 53.64" fill="none" stroke="#f2f2f2" stroke-width="8.866" stroke-linecap="round" stroke-linejoin="round"/><rect width="17.225" height="17.412" x="172.221" y="957.867" ry="0" fill="#616161"/><rect width="17.225" height="17.412" x="193.471" y="957.961" ry="0" fill="#616161"/><g fill="#616161"><path d="M157.536 922.354c2.973-4.593 5.876-4.267 8.724 0v20.642h-8.724zM172.423 922.354c2.973-4.593 5.876-4.267 8.724 0v20.642h-8.724zM187.31 922.354c2.973-4.593 5.876-4.267 8.724 0v20.642h-8.724zM202.197 922.354c2.973-4.593 5.877-4.267 8.725 0v20.642h-8.725zM217.085 922.354c2.972-4.593 5.876-4.267 8.724 0v20.642h-8.725z"/></g><path fill="#616161" d="M178.134 890.908h27.14v4.236h-27.14zM178 897.395h27.14v4.236H178z"/></g><path transform="translate(.017 -1028.395)" style="isolation:auto;mix-blend-mode:normal" clip-path="url(#n)" color="#000" overflow="visible" fill="#1d3153" d="M2.906 1047.612h18.438v4.75H2.906z"/></svg>