<svg xmlns="http://www.w3.org/2000/svg" xmlns:xlink="http://www.w3.org/1999/xlink" width="24" height="24" viewBox="0 0 24 24"><defs><linearGradient id="a"><stop offset="0" stop-color="#414141" stop-opacity=".996"/><stop offset="1" stop-color="#cfcfcf" stop-opacity=".996"/></linearGradient><linearGradient id="b"><stop offset="0"/><stop offset="1" stop-opacity="0"/></linearGradient><linearGradient id="d"><stop offset="0" stop-color="#1f58b6"/><stop offset="1" stop-color="#7aa4e8"/></linearGradient><radialGradient xlink:href="#a" id="f" cx="6.393" cy="15.165" fx="6.393" fy="15.165" r="11.932" gradientUnits="userSpaceOnUse" gradientTransform="matrix(1.4121 -1.10457 1.0703 1.3683 -14.652 5.117)"/><linearGradient xlink:href="#b" id="g" x1="4.943" y1="20.047" x2="30.151" y2="-6.266" gradientUnits="userSpaceOnUse"/><radialGradient xlink:href="#d" id="c" gradientUnits="userSpaceOnUse" gradientTransform="matrix(1.4121 -1.10457 1.0703 1.3683 -14.652 5.117)" cx="6.393" cy="15.165" fx="6.393" fy="15.165" r="11.932"/><radialGradient xlink:href="#d" id="e" gradientUnits="userSpaceOnUse" gradientTransform="matrix(1.4121 -1.10457 1.0703 1.3683 -14.652 5.117)" cx="6.393" cy="15.165" fx="6.393" fy="15.165" r="11.932"/></defs><g color="#000" fill-rule="evenodd"><path d="M23.932 12A11.932 11.932 0 0 1 12 23.932 11.932 11.932 0 0 1 .068 12 11.932 11.932 0 0 1 12 .068 11.932 11.932 0 0 1 23.932 12z" style="isolation:auto;mix-blend-mode:normal" overflow="visible" fill="url(#f)"/><path d="M12.047.006C5.437.006.067 5.374.067 11.984c0 6.61 5.37 11.98 11.98 11.98s11.978-5.37 11.978-11.98S18.657.006 12.047.006zm0 .963c6.09 0 11.015 4.925 11.015 11.014 0 6.09-4.926 11.016-11.015 11.016A11.008 11.008 0 0 1 1.03 11.984C1.03 5.894 5.958.97 12.048.97z" style="line-height:normal;text-indent:0;text-align:start;text-decoration-line:none;text-decoration-style:solid;text-decoration-color:#000;text-transform:none;block-progression:tb;isolation:auto;mix-blend-mode:normal" font-weight="400" font-family="sans-serif" white-space="normal" overflow="visible" opacity=".096" fill="url(#g)"/></g><g transform="translate(0 -1028.362)"><circle cx="5.312" cy="1038.839" r="4.363" fill="#fff"/><circle cx="12.12" cy="1038.839" r="4.378" fill="#fff"/><circle cx="18.927" cy="1038.839" r="4.316" fill="#fff"/><circle cx="8.462" cy="1042.906" r="4.519" fill="#fff"/><circle cx="15.269" cy="1042.906" r="4.519" fill="#fff"/><circle r="3.333" cy="1038.839" cx="5.312" fill="none" stroke="#00f" stroke-linecap="round" stroke-linejoin="round"/><circle r="3.333" cy="1038.839" cx="18.927" fill="none" stroke="red" stroke-linecap="round" stroke-linejoin="round"/><circle r="3.333" cy="1038.839" cx="12.12" fill="none" stroke="#000" stroke-linecap="round" stroke-linejoin="round"/><circle r="3.333" cy="1042.906" cx="15.269" fill="none" stroke="green" stroke-width=".904" stroke-linecap="round" stroke-linejoin="round"/><circle r="3.333" cy="1042.906" cx="8.462" fill="none" stroke="#fc0" stroke-linecap="round" stroke-linejoin="round"/></g></svg>