<svg xmlns="http://www.w3.org/2000/svg" xmlns:xlink="http://www.w3.org/1999/xlink" width="24" height="24" viewBox="0 0 24 24"><defs><linearGradient id="f"><stop offset="0" stop-color="#d45500"/><stop offset="1" stop-color="#ffae78"/></linearGradient><linearGradient id="a"><stop offset="0" stop-color="#177217" stop-opacity=".996"/><stop offset="1" stop-color="#4eab46" stop-opacity=".996"/></linearGradient><linearGradient id="b"><stop offset="0"/><stop offset="1" stop-opacity="0"/></linearGradient><linearGradient id="d"><stop offset="0" stop-color="#1f58b6"/><stop offset="1" stop-color="#7aa4e8"/></linearGradient><radialGradient xlink:href="#a" id="g" cx="6.393" cy="15.165" fx="6.393" fy="15.165" r="11.932" gradientUnits="userSpaceOnUse" gradientTransform="matrix(1.4121 -1.10457 1.0703 1.3683 -14.652 5.117)"/><linearGradient xlink:href="#b" id="h" x1="4.943" y1="20.047" x2="30.151" y2="-6.266" gradientUnits="userSpaceOnUse"/><radialGradient xlink:href="#d" id="c" gradientUnits="userSpaceOnUse" gradientTransform="matrix(1.4121 -1.10457 1.0703 1.3683 -14.652 5.117)" cx="6.393" cy="15.165" fx="6.393" fy="15.165" r="11.932"/><radialGradient xlink:href="#d" id="e" gradientUnits="userSpaceOnUse" gradientTransform="matrix(1.4121 -1.10457 1.0703 1.3683 -14.652 5.117)" cx="6.393" cy="15.165" fx="6.393" fy="15.165" r="11.932"/><radialGradient xlink:href="#f" id="i" cx="-21.686" cy="1052.158" fx="-21.686" fy="1052.158" r="14.819" gradientTransform="matrix(1 0 0 .9999 0 .107)" gradientUnits="userSpaceOnUse"/></defs><g color="#000" fill-rule="evenodd"><path d="M23.932 12A11.932 11.932 0 0 1 12 23.932 11.932 11.932 0 0 1 .068 12 11.932 11.932 0 0 1 12 .068 11.932 11.932 0 0 1 23.932 12z" style="isolation:auto;mix-blend-mode:normal" overflow="visible" fill="url(#g)"/><path d="M12.047.006C5.437.006.067 5.374.067 11.984c0 6.61 5.37 11.98 11.98 11.98s11.978-5.37 11.978-11.98S18.657.006 12.047.006zm0 .963c6.09 0 11.015 4.925 11.015 11.014 0 6.09-4.926 11.016-11.015 11.016A11.008 11.008 0 0 1 1.03 11.984C1.03 5.894 5.958.97 12.048.97z" style="line-height:normal;text-indent:0;text-align:start;text-decoration-line:none;text-decoration-style:solid;text-decoration-color:#000;text-transform:none;block-progression:tb;isolation:auto;mix-blend-mode:normal" font-weight="400" font-family="sans-serif" white-space="normal" overflow="visible" opacity=".096" fill="url(#h)"/></g><g transform="matrix(.5966 0 0 .5966 -12.14 -610.173)"><circle r="15.667" cy="1042.838" cx="40.46" fill-opacity=".996"/><path d="M-19.72 1062.076c-2.293-.18-4.49-.87-6.447-2.028-.66-.39-1.937-1.307-2.148-1.542-.095-.107.073-.283 4.794-5.003l4.89-4.892 1.65 1.65 1.65 1.647-.144.177c-.368.453-1.075 1.567-1.343 2.116a12.57 12.57 0 0 0-.928 2.72c-.144.676-.155.828-.156 2.175-.002 1.365.007 1.49.158 2.195.088.41.15.755.14.766-.052.052-1.535.066-2.117.02zm4.023-.28c-.054-.094-.27-1.135-.33-1.6-.096-.736-.036-2.217.12-2.955.297-1.393.987-2.89 1.762-3.822l.144-.174 2.587 2.585 2.588 2.584-.543.434a14.822 14.822 0 0 1-4.73 2.558c-.76.245-1.57.442-1.6.39zm-14.4-5.115c-1.19-1.42-2.262-3.48-2.81-5.405-.404-1.41-.67-3.91-.515-4.842l.034-.208.443.107c3.168.762 6.736-.022 9.328-2.05l.37-.29 1.638 1.643 1.64 1.643-4.885 4.914-4.886 4.913-.356-.424zm19.983-2.162l-2.577-2.583.173-.145c.93-.775 2.428-1.465 3.823-1.76.737-.157 2.22-.217 2.954-.12.466.06 1.506.274 1.6.328.058.034-.165.916-.442 1.747-.584 1.75-1.643 3.63-2.76 4.897l-.194.22-2.578-2.584zm-5.563-5.562l-1.648-1.65 4.892-4.892c4.72-4.72 4.897-4.89 5.003-4.793.06.056.34.406.622.78 1.555 2.06 2.518 4.43 2.87 7.053.094.707.148 2.79.074 2.865-.02.02-.372-.036-.782-.125-.704-.15-.83-.16-2.195-.16-1.348.002-1.5.013-2.174.157a12.64 12.64 0 0 0-2.704.92c-.54.264-1.704 1-2.134 1.35l-.176.145-1.648-1.65zm-4.624-4.625l-1.644-1.642.29-.37c1.22-1.558 2.017-3.51 2.27-5.552.134-1.087.04-2.692-.22-3.775l-.106-.442.207-.034c.932-.154 3.43.11 4.842.514 1.446.412 2.97 1.11 4.154 1.9.678.453 1.61 1.17 1.61 1.238 0 .036-9.666 9.773-9.723 9.795-.02.01-.777-.724-1.68-1.628zm-11.334.35c-.56-.08-1.364-.258-1.47-.324-.08-.05.165-1.045.486-1.973.287-.83 1.09-2.452 1.572-3.17.395-.586 1.24-1.692 1.296-1.694.016-.002 1.188 1.157 2.605 2.574 2.472 2.473 2.57 2.58 2.46 2.668-.72.58-1.904 1.213-2.843 1.524-1.215.403-2.905.565-4.106.393zm5.768-5.914l-2.574-2.574.14-.12a24.06 24.06 0 0 1 1.91-1.398c.673-.418 2.102-1.1 2.838-1.356.67-.233 1.913-.568 1.954-.527.068.07.258.946.34 1.57.224 1.68-.075 3.547-.818 5.115-.276.584-1.096 1.866-1.193 1.866-.012 0-1.18-1.158-2.596-2.573z" transform="translate(59.132 -4.42)" fill="url(#i)"/></g></svg>