<svg xmlns="http://www.w3.org/2000/svg" xmlns:xlink="http://www.w3.org/1999/xlink" width="24" height="24" viewBox="0 0 24 24"><defs><linearGradient id="b"><stop offset="0"/><stop offset="1" stop-opacity="0"/></linearGradient><linearGradient id="a"><stop offset="0" stop-color="#1f58b6"/><stop offset="1" stop-color="#7aa4e8"/></linearGradient><radialGradient xlink:href="#a" id="e" cx="6.393" cy="15.165" fx="6.393" fy="15.165" r="11.932" gradientUnits="userSpaceOnUse" gradientTransform="matrix(1.4121 -1.10457 1.0703 1.3683 -14.652 5.117)"/><linearGradient xlink:href="#b" id="f" x1="4.943" y1="20.047" x2="30.151" y2="-6.266" gradientUnits="userSpaceOnUse"/><radialGradient xlink:href="#a" id="c" gradientUnits="userSpaceOnUse" gradientTransform="matrix(1.4121 -1.10457 1.0703 1.3683 -14.652 5.117)" cx="6.393" cy="15.165" fx="6.393" fy="15.165" r="11.932"/><radialGradient xlink:href="#a" id="d" gradientUnits="userSpaceOnUse" gradientTransform="matrix(1.4121 -1.10457 1.0703 1.3683 -14.652 5.117)" cx="6.393" cy="15.165" fx="6.393" fy="15.165" r="11.932"/><clipPath id="h"><circle style="isolation:auto;mix-blend-mode:normal" cx="12.021" cy="1040.386" r="11.004" color="#000" overflow="visible" fill="red" stroke-opacity=".428"/></clipPath><clipPath id="g"><circle style="isolation:auto;mix-blend-mode:normal" cx="12.021" cy="1040.386" r="11.004" color="#000" overflow="visible" fill="red" stroke-opacity=".428"/></clipPath></defs><g color="#000" fill-rule="evenodd"><path d="M23.932 12A11.932 11.932 0 0 1 12 23.932 11.932 11.932 0 0 1 .068 12 11.932 11.932 0 0 1 12 .068 11.932 11.932 0 0 1 23.932 12z" style="isolation:auto;mix-blend-mode:normal" overflow="visible" fill="url(#e)"/><path d="M12.047.006C5.437.006.067 5.374.067 11.984c0 6.61 5.37 11.98 11.98 11.98s11.978-5.37 11.978-11.98S18.657.006 12.047.006zm0 .963c6.09 0 11.015 4.925 11.015 11.014 0 6.09-4.926 11.016-11.015 11.016A11.008 11.008 0 0 1 1.03 11.984C1.03 5.894 5.958.97 12.048.97z" style="line-height:normal;text-indent:0;text-align:start;text-decoration-line:none;text-decoration-style:solid;text-decoration-color:#000;text-transform:none;block-progression:tb;isolation:auto;mix-blend-mode:normal" font-weight="400" font-family="sans-serif" white-space="normal" overflow="visible" opacity=".096" fill="url(#f)"/></g><g transform="translate(0 -1028.362)"><path d="M6.62 1042.35a53.8 53.8 0 0 1-1.215-.397c-.005-.01 1.15-.912 2.57-2.013 1.42-1.1 2.61-2.025 2.648-2.055l.067-.054-.742-1.007c-.408-.555-.772-1.073-.81-1.152-.212-.456-.086-1.055.298-1.406.145-.132-.036-.042 2.96-1.49 1.196-.58 2.248-1.077 2.34-1.105.09-.03.24-.06.332-.066.45-.036.946.25 1.134.65.067.143.076.19.085.425.012.303-.025.472-.142.657-.168.263-.116.234-3.22 1.8l-.862.434.056.075c.145.195 4.51 6.526 4.5 6.532-.004 0-.38.13-.833.282l-.826.274-1.642-.535a54.926 54.926 0 0 0-1.782-.562.71.71 0 0 0-.276 0c-.077.015-.87.264-1.764.555l-1.65.534c-.012 0-.564-.166-1.226-.378z" fill="#fff"/><path d="M16.906 1039.875a2.415 2.415 0 0 1-1.8-1.522 2.376 2.376 0 1 1 4.584-1.15c.037.255.016.668-.047.91-.11.423-.318.786-.63 1.098-.312.313-.673.52-1.1.632a3.01 3.01 0 0 1-1.007.033z" fill="#fff"/><rect style="isolation:auto;mix-blend-mode:normal" width="22.627" height="8.132" x=".707" y="1044.584" ry="0" clip-path="url(#g)" color="#000" overflow="visible" fill="#174186"/><path d="M7.073 1046.212c-.06-.014-.926-.28-1.927-.59l-1.82-.567-1.315.403c-.722.222-1.322.403-1.332.403-.01 0-.018-.548-.018-1.22v-1.22l1.22-.364c.986-.293 1.255-.364 1.406-.372.184-.01.216 0 2.113.548l1.925.56 1.834-.532c1.007-.292 1.89-.544 1.96-.56.07-.015.197-.023.28-.016.095.01.87.22 2.04.56l1.885.547 1.834-.53c1.007-.292 1.89-.544 1.96-.56.07-.015.197-.023.28-.016.095.01.868.22 2.032.558l1.88.545.007 1.227a53.49 53.49 0 0 1 0 1.227c-.005 0-.906-.266-2.003-.59l-1.995-.594-1.725.537c-.948.296-1.82.562-1.934.593-.233.062-.385.07-.572.028-.068-.015-.943-.282-1.944-.593l-1.82-.565-1.727.538c-.95.296-1.822.563-1.937.593-.22.058-.414.067-.59.026z" clip-path="url(#h)" fill="#e6e6e6"/></g></svg>