<svg xmlns="http://www.w3.org/2000/svg" xmlns:xlink="http://www.w3.org/1999/xlink" width="24" height="24" viewBox="0 0 24 24"><defs><linearGradient id="a"><stop offset="0" stop-color="#177217" stop-opacity=".996"/><stop offset="1" stop-color="#4eab46" stop-opacity=".996"/></linearGradient><linearGradient id="b"><stop offset="0"/><stop offset="1" stop-opacity="0"/></linearGradient><linearGradient id="d"><stop offset="0" stop-color="#1f58b6"/><stop offset="1" stop-color="#7aa4e8"/></linearGradient><radialGradient xlink:href="#a" id="f" cx="6.393" cy="15.165" fx="6.393" fy="15.165" r="11.932" gradientUnits="userSpaceOnUse" gradientTransform="matrix(1.4121 -1.10457 1.0703 1.3683 -14.652 5.117)"/><linearGradient xlink:href="#b" id="g" x1="4.943" y1="20.047" x2="30.151" y2="-6.266" gradientUnits="userSpaceOnUse"/><radialGradient xlink:href="#d" id="c" gradientUnits="userSpaceOnUse" gradientTransform="matrix(1.4121 -1.10457 1.0703 1.3683 -14.652 5.117)" cx="6.393" cy="15.165" fx="6.393" fy="15.165" r="11.932"/><radialGradient xlink:href="#d" id="e" gradientUnits="userSpaceOnUse" gradientTransform="matrix(1.4121 -1.10457 1.0703 1.3683 -14.652 5.117)" cx="6.393" cy="15.165" fx="6.393" fy="15.165" r="11.932"/><clipPath id="h"><circle style="isolation:auto;mix-blend-mode:normal" cx="11.999" cy="12.001" r="10.96" color="#000" overflow="visible" fill="maroon" stroke-opacity=".428"/></clipPath></defs><g color="#000" fill-rule="evenodd"><path d="M23.932 12A11.932 11.932 0 0 1 12 23.932 11.932 11.932 0 0 1 .068 12 11.932 11.932 0 0 1 12 .068 11.932 11.932 0 0 1 23.932 12z" style="isolation:auto;mix-blend-mode:normal" overflow="visible" fill="url(#f)"/><path d="M12.047.006C5.437.006.067 5.374.067 11.984c0 6.61 5.37 11.98 11.98 11.98s11.978-5.37 11.978-11.98S18.657.006 12.047.006zm0 .963c6.09 0 11.015 4.925 11.015 11.014 0 6.09-4.926 11.016-11.015 11.016A11.008 11.008 0 0 1 1.03 11.984C1.03 5.894 5.958.97 12.048.97z" style="line-height:normal;text-indent:0;text-align:start;text-decoration-line:none;text-decoration-style:solid;text-decoration-color:#000;text-transform:none;block-progression:tb;isolation:auto;mix-blend-mode:normal" font-weight="400" font-family="sans-serif" white-space="normal" overflow="visible" opacity=".096" fill="url(#g)"/></g><path style="isolation:auto;mix-blend-mode:normal" d="M3.756 17.37a.66.66 0 0 0-.662.663c0 .01.005.02.006.03h-.006v6H21.03v-6c.002-.01.007-.02.007-.03a.662.662 0 0 0-.664-.662H3.756z" clip-path="url(#h)" color="#000" overflow="visible" fill="#250"/><g transform="translate(31.466 -1002.64)"><ellipse ry="5.646" rx="4.279" cy="822.411" cx="586.658" transform="rotate(36.527)" fill="#fff"/><path d="M-21.69 1013.846l1.035.768c.32.238.505.64.306.8l-1.52 1.225c-.2.16-.44.247-.645.095l-.663-.49c-.205-.153-.192-.41-.096-.646l.728-1.813c.095-.237.533-.18.855.06z" fill="#fff"/><rect ry=".521" y="830.593" x="586.098" height="6.296" width="1.143" transform="rotate(36.527)" fill="#fff"/><ellipse ry="4.821" rx="3.544" cy="822.378" cx="586.658" transform="rotate(36.527)" fill="#369331" fill-opacity=".996"/><path d="M-16.903 1022.064a2.507 2.507 0 0 1-1.178-.405 2.5 2.5 0 0 1-.333-.26c-.004-.01.023-.05.06-.094.256-.317.454-.73.545-1.14a2.98 2.98 0 0 0 .026-1.088 2.843 2.843 0 0 0-.572-1.27c-.036-.044-.063-.086-.06-.093.005-.01.052-.048.106-.093.268-.223.623-.406.965-.496.398-.105.877-.105 1.276 0a2.6 2.6 0 0 1 1.026.55l.05.047-.08.102c-.332.426-.524.902-.586 1.45a3.875 3.875 0 0 0 0 .567c.06.547.254 1.024.585 1.448a.417.417 0 0 1 .072.11 2.604 2.604 0 0 1-1.07.588c-.24.066-.592.097-.835.076zm-1.78-.955a2.64 2.64 0 0 1-.454-.914 2.622 2.622 0 0 1 0-1.276c.083-.314.228-.61.43-.88.042-.055.08-.096.086-.093a2.516 2.516 0 0 1 .567 1.3c.017.13.018.49 0 .615a2.507 2.507 0 0 1-.534 1.268l-.042.047-.053-.068zm3.837-.01a2.643 2.643 0 0 1-.428-.833 2.38 2.38 0 0 1-.097-.712c0-.43.08-.77.273-1.15a2.8 2.8 0 0 1 .274-.424l.042-.047.074.1c.205.274.35.57.432.883.105.4.105.878 0 1.276a2.544 2.544 0 0 1-.51.98.62.62 0 0 1-.062-.073z" fill="#efa"/></g></svg>