<svg xmlns="http://www.w3.org/2000/svg" xmlns:xlink="http://www.w3.org/1999/xlink" width="24" height="24" viewBox="0 0 24 24"><defs><linearGradient id="a"><stop offset="0" stop-color="#7c05fc" stop-opacity=".996"/><stop offset="1" stop-color="#e244fe" stop-opacity=".996"/></linearGradient><linearGradient id="b"><stop offset="0"/><stop offset="1" stop-opacity="0"/></linearGradient><linearGradient id="d"><stop offset="0" stop-color="#1f58b6"/><stop offset="1" stop-color="#7aa4e8"/></linearGradient><radialGradient xlink:href="#a" id="f" cx="6.393" cy="15.165" fx="6.393" fy="15.165" r="11.932" gradientUnits="userSpaceOnUse" gradientTransform="matrix(1.4121 -1.10457 1.0703 1.3683 -14.652 5.117)"/><linearGradient xlink:href="#b" id="g" x1="4.943" y1="20.047" x2="30.151" y2="-6.266" gradientUnits="userSpaceOnUse"/><radialGradient xlink:href="#d" id="c" gradientUnits="userSpaceOnUse" gradientTransform="matrix(1.4121 -1.10457 1.0703 1.3683 -14.652 5.117)" cx="6.393" cy="15.165" fx="6.393" fy="15.165" r="11.932"/><radialGradient xlink:href="#d" id="e" gradientUnits="userSpaceOnUse" gradientTransform="matrix(1.4121 -1.10457 1.0703 1.3683 -14.652 5.117)" cx="6.393" cy="15.165" fx="6.393" fy="15.165" r="11.932"/></defs><g color="#000" fill-rule="evenodd"><path d="M23.932 12A11.932 11.932 0 0 1 12 23.932 11.932 11.932 0 0 1 .068 12 11.932 11.932 0 0 1 12 .068 11.932 11.932 0 0 1 23.932 12z" style="isolation:auto;mix-blend-mode:normal" overflow="visible" fill="url(#f)"/><path d="M12.047.006C5.437.006.067 5.374.067 11.984c0 6.61 5.37 11.98 11.98 11.98s11.978-5.37 11.978-11.98S18.657.006 12.047.006zm0 .963c6.09 0 11.015 4.925 11.015 11.014 0 6.09-4.926 11.016-11.015 11.016A11.008 11.008 0 0 1 1.03 11.984C1.03 5.894 5.958.97 12.048.97z" style="line-height:normal;text-indent:0;text-align:start;text-decoration-line:none;text-decoration-style:solid;text-decoration-color:#000;text-transform:none;block-progression:tb;isolation:auto;mix-blend-mode:normal" font-weight="400" font-family="sans-serif" white-space="normal" overflow="visible" opacity=".096" fill="url(#g)"/></g><path d="M13.363 21.807a1.91 1.91 0 0 1-.935-.5c-.658-.61-1.163-1.614-1.355-2.702-.08-.444-.105-1.424-.054-1.976.13-1.408.603-3.04 1.358-4.697.11-.242.294-.653.41-.912.243-.545.288-.614.447-.692.15-.073.163-.07 1.326.255 2.402.672 3.26 1.042 4.79 2.063.374.25 1.994 1.437 2.186 1.603.11.094.154.197.154.36 0 .23-1.046 2.17-1.695 3.144-1.487 2.228-3.128 3.562-4.924 4.004-.405.1-1.348.127-1.707.05zm1.68-1.99c.494-.117 1.295-.555 1.77-.97.105-.09.105-.09.02-.072-.256.056-.983.1-1.358.08-.957-.047-1.426-.24-2-.822a5.918 5.918 0 0 1-.87-1.14l-.192-.325-.01.367c-.02.698.162 1.526.44 2.002.256.44.73.812 1.157.913.25.06.71.044 1.043-.034zm3.446-2.607a2.05 2.05 0 0 0 .35-.066c.083-.052-.204-.517-.512-.83-.45-.456-.844-.603-1.514-.565-.447.024-.58.05-.58.104 0 .094.336.605.52.792.325.332.65.503 1.072.563.31.044.322.044.663 0zm-3.215-1.776c.1-.03.085-.084-.112-.414-.467-.782-1.198-1.112-2.15-.97-.154.022-.266.056-.266.08 0 .02.074.166.164.32.294.504.745.87 1.222.99.187.048.98.045 1.143-.01zm-5.493-.015c-2.177-.7-4.062-3.046-5.432-6.762-.104-.28-.24-.63-.3-.775a1.97 1.97 0 0 1-.13-.46c-.017-.182-.01-.207.082-.307.056-.06.565-.388 1.132-.73C7.56 4.93 8.304 4.673 11.392 4.24c1.25-.176 1.44-.188 1.568-.1.14.097.168.15.284.522l.263.838c.413 1.3.685 2.566.806 3.752.022.21.02.223-.04.197a3.064 3.064 0 0 0-.737-.213c-.658-.07-1.227.314-1.564 1.055l-.355.774-.197.426-.402-.012c-.328-.01-.442 0-.63.06-.704.223-1.234.81-1.526 1.69-.105.314-.25.953-.22.98.003.01.14-.138.302-.316.7-.768 1.38-1.247 1.914-1.347l.13-.025-.11.295a17.186 17.186 0 0 0-.667 2.225 6.99 6.99 0 0 1-.11.464c-.006.01-.15-.033-.318-.088zm-2.248-4.634c.697-.164 1.144-.628 1.38-1.432.044-.15.07-.282.057-.294-.05-.052-.486-.054-.78 0-.76.132-1.262.592-1.498 1.373-.062.202-.085.32-.075.384.007.047.685.027.917-.028zm4.63-1.76c.315-.094.97-.524.97-.634 0-.025-.098-.115-.22-.202-.697-.496-1.32-.576-1.972-.25-.205.102-.695.46-.695.51 0 .043.404.336.6.434.176.09.455.185.615.21.164.025.51-.01.702-.067z" fill="#405"/><path d="M12.83 20.85a1.91 1.91 0 0 1-.937-.502c-.658-.608-1.163-1.614-1.355-2.702-.08-.444-.105-1.423-.053-1.975.13-1.406.603-3.037 1.358-4.696.11-.242.295-.652.41-.91.243-.548.288-.617.447-.694.15-.073.163-.07 1.326.255 2.402.672 3.26 1.04 4.788 2.062.375.25 1.995 1.438 2.187 1.603.112.095.156.198.156.362 0 .23-1.047 2.17-1.696 3.143-1.487 2.228-3.128 3.563-4.924 4.004-.406.1-1.35.126-1.707.048zm1.678-1.992c.494-.117 1.295-.554 1.77-.968.105-.09.105-.09.02-.073-.256.056-.983.1-1.358.08-.957-.047-1.426-.24-1.998-.822a5.922 5.922 0 0 1-.87-1.14l-.194-.326-.01.366c-.02.7.162 1.526.44 2.003.256.437.73.81 1.157.91.25.06.71.046 1.043-.033zm3.446-2.607a2.05 2.05 0 0 0 .35-.065c.084-.052-.203-.517-.51-.83-.45-.456-.844-.603-1.515-.565-.448.025-.582.05-.58.106 0 .094.335.604.52.792.324.33.65.503 1.07.563.312.045.323.045.664 0zm-3.214-1.774c.1-.03.086-.084-.112-.415-.466-.78-1.198-1.11-2.15-.97-.154.024-.266.058-.266.08 0 .023.074.168.164.322.294.504.744.87 1.22.99.188.047.982.044 1.144-.01zm-5.493-.014c-2.177-.7-4.062-3.046-5.432-6.762a24.16 24.16 0 0 0-.3-.774 1.97 1.97 0 0 1-.13-.46c-.017-.183-.01-.207.082-.308.056-.06.565-.388 1.132-.73 2.424-1.458 3.17-1.713 6.257-2.147 1.25-.174 1.44-.186 1.568-.097.14.096.168.15.284.52.06.195.177.572.262.84.414 1.3.686 2.565.807 3.752.02.208.017.223-.042.197A3.064 3.064 0 0 0 13 8.28c-.657-.07-1.226.313-1.563 1.055-.087.19-.246.54-.355.773l-.197.427-.4-.012c-.33-.01-.444 0-.632.06-.704.223-1.234.808-1.526 1.688-.105.316-.25.955-.22.983.003.01.14-.14.302-.317.698-.767 1.38-1.246 1.913-1.347l.13-.026-.11.295a17.186 17.186 0 0 0-.667 2.225 6.99 6.99 0 0 1-.11.463c-.007.01-.15-.033-.32-.088zM7 9.83c.697-.166 1.143-.63 1.38-1.433.043-.15.07-.283.056-.295-.052-.052-.487-.054-.782 0-.758.132-1.26.592-1.497 1.373-.062.203-.085.32-.075.384.007.046.685.026.918-.03zm4.63-1.76c.314-.096.97-.525.97-.636 0-.025-.1-.115-.22-.2-.697-.498-1.32-.577-1.973-.252-.205.102-.694.462-.694.51 0 .043.404.336.598.435.178.09.457.184.617.208.164.025.51-.01.702-.066z" fill="#fff"/><path d="M11.6 8.07c.314-.096.97-.526.97-.636 0-.025-.1-.116-.22-.202-.697-.496-1.32-.576-1.972-.25-.206.102-.695.46-.695.51 0 .043.404.336.598.434.178.09.457.184.618.21.163.024.51-.01.7-.067zM6.97 9.827c.697-.164 1.144-.628 1.38-1.432.043-.15.07-.282.056-.294-.052-.052-.486-.054-.78 0-.76.13-1.262.592-1.5 1.373-.06.202-.083.32-.074.384.008.046.685.026.918-.03zm2.248 4.633c-2.178-.7-4.062-3.045-5.433-6.76a24.16 24.16 0 0 0-.3-.775 1.97 1.97 0 0 1-.13-.46c-.017-.182-.01-.207.083-.307.055-.06.565-.388 1.132-.73C6.995 3.97 7.74 3.714 10.827 3.28c1.25-.175 1.44-.186 1.568-.097.14.096.17.15.284.52l.263.84c.413 1.298.685 2.564.806 3.75.02.21.017.224-.042.198a3.064 3.064 0 0 0-.737-.21c-.657-.07-1.226.312-1.563 1.054-.086.19-.246.54-.355.774l-.197.426-.4-.012c-.33-.01-.444 0-.63.06-.706.223-1.235.81-1.528 1.69-.104.314-.248.953-.22.98.003.01.14-.138.302-.316.698-.768 1.38-1.247 1.914-1.347l.13-.026-.11.295a17.186 17.186 0 0 0-.667 2.224 6.99 6.99 0 0 1-.11.464c-.008.01-.15-.033-.32-.088z" fill="#f2f2f2"/></svg>