<svg xmlns="http://www.w3.org/2000/svg" xmlns:xlink="http://www.w3.org/1999/xlink" width="24" height="24" viewBox="0 0 24 24"><defs><linearGradient id="b"><stop offset="0"/><stop offset="1" stop-opacity="0"/></linearGradient><linearGradient id="a"><stop offset="0" stop-color="#1f58b6"/><stop offset="1" stop-color="#7aa4e8"/></linearGradient><radialGradient xlink:href="#a" id="e" cx="6.393" cy="15.165" fx="6.393" fy="15.165" r="11.932" gradientUnits="userSpaceOnUse" gradientTransform="matrix(1.4121 -1.10457 1.0703 1.3683 -14.652 5.117)"/><linearGradient xlink:href="#b" id="f" x1="4.943" y1="20.047" x2="30.151" y2="-6.266" gradientUnits="userSpaceOnUse"/><radialGradient xlink:href="#a" id="c" gradientUnits="userSpaceOnUse" gradientTransform="matrix(1.4121 -1.10457 1.0703 1.3683 -14.652 5.117)" cx="6.393" cy="15.165" fx="6.393" fy="15.165" r="11.932"/><radialGradient xlink:href="#a" id="d" gradientUnits="userSpaceOnUse" gradientTransform="matrix(1.4121 -1.10457 1.0703 1.3683 -14.652 5.117)" cx="6.393" cy="15.165" fx="6.393" fy="15.165" r="11.932"/><clipPath id="g"><path style="isolation:auto;mix-blend-mode:normal" d="M22.982 12A10.982 10.982 0 0 1 12 22.982 10.982 10.982 0 0 1 1.018 12 10.982 10.982 0 0 1 12 1.018 10.982 10.982 0 0 1 22.982 12z" color="#000" overflow="visible" fill="url(#radialGradient14170)" fill-rule="evenodd" stroke-width="2" stroke-linecap="square" stroke-dashoffset=".85"/></clipPath><clipPath id="h"><path style="isolation:auto;mix-blend-mode:normal" d="M22.982 12A10.982 10.982 0 0 1 12 22.982 10.982 10.982 0 0 1 1.018 12 10.982 10.982 0 0 1 12 1.018 10.982 10.982 0 0 1 22.982 12z" color="#000" overflow="visible" fill="url(#radialGradient14164)" fill-rule="evenodd" stroke-width="2" stroke-linecap="square" stroke-dashoffset=".85"/></clipPath></defs><g color="#000" fill-rule="evenodd"><path d="M23.932 12A11.932 11.932 0 0 1 12 23.932 11.932 11.932 0 0 1 .068 12 11.932 11.932 0 0 1 12 .068 11.932 11.932 0 0 1 23.932 12z" style="isolation:auto;mix-blend-mode:normal" overflow="visible" fill="url(#e)"/><path d="M12.047.006C5.437.006.067 5.374.067 11.984c0 6.61 5.37 11.98 11.98 11.98s11.978-5.37 11.978-11.98S18.657.006 12.047.006zm0 .963c6.09 0 11.015 4.925 11.015 11.014 0 6.09-4.926 11.016-11.015 11.016A11.008 11.008 0 0 1 1.03 11.984C1.03 5.894 5.958.97 12.048.97z" style="line-height:normal;text-indent:0;text-align:start;text-decoration-line:none;text-decoration-style:solid;text-decoration-color:#000;text-transform:none;block-progression:tb;isolation:auto;mix-blend-mode:normal" font-weight="400" font-family="sans-serif" white-space="normal" overflow="visible" opacity=".096" fill="url(#f)"/></g><g fill-rule="evenodd"><path clip-path="url(#g)" d="M.016 18.08l24-17.8.062 23.814-24.094-.08z" transform="matrix(-1 0 0 1 24 -.02)" fill="#205abb"/><path clip-path="url(#h)" d="M0 19.856l24-12.45.063 16.657-24.094-.057z" transform="matrix(-1 0 0 1 24 -.02)" fill="#174186"/></g><g transform="translate(30.44 -25.184) scale(.03447)" fill="#fff"><path d="M-410.658 1291.545c-8.99-2.457-403.328-158.56-402.523-159.345.374-.364 4.995-3.177 10.27-6.25l9.59-5.59 190.688 76.558c119.99 48.174 192.81 76.906 196.41 77.495 13 2.13 26.546.326 38.078-5.07 7.24-3.39 15.747-9.832 14.467-10.96-.453-.4-9.373-3.995-19.823-7.992-29.085-11.124-30.578-12.213-42.394-30.92l-8.16-12.92-8.723-3.49c-4.798-1.92-74.198-29.237-154.223-60.705-80.025-31.467-146.05-57.51-146.72-57.875-.726-.395 2.62-2.97 8.29-6.376l9.51-5.713 38.646 15.466c21.256 8.506 38.75 15.362 38.873 15.236.124-.126-27.65-47.48-61.717-105.23-40.054-67.897-62.504-106.918-63.535-110.428-4.43-15.092 2.85-31.105 17.396-38.267 5.754-2.832 7.694-3.278 14.256-3.278 6.57 0 8.5.443 14.29 3.295 3.82 1.88 8.054 4.912 9.856 7.06 1.737 2.068 25.703 41.906 53.256 88.527l50.098 84.765 85.963 34.51c47.28 18.983 87.863 35.82 90.184 37.416 2.32 1.597 5.158 4.22 6.303 5.83 1.146 1.61 13.577 23.32 27.624 48.247 14.047 24.927 25.87 45.654 26.27 46.06.403.406 16.78 6.997 36.393 14.646 19.613 7.648 37.03 14.883 38.708 16.077 4.65 3.31 8.16 10.105 8.785 17.002 1.023 11.275-6.373 21.313-17.704 24.03-5.826 1.4-8.297.984-21.393-3.59l-9.867-3.445-5.133 4.382c-11.7 9.99-27.032 18.09-40.133 21.204-8.134 1.934-24.43 1.75-32.158-.36z"/><circle style="isolation:auto;mix-blend-mode:normal" cx="-359.798" cy="1085.154" r="50.3" color="#000" overflow="visible"/></g></svg>