<svg xmlns="http://www.w3.org/2000/svg" xmlns:xlink="http://www.w3.org/1999/xlink" width="24" height="24" viewBox="0 0 24 24"><defs><radialGradient xlink:href="#a" id="c" cx="6.393" cy="15.165" fx="6.393" fy="15.165" r="11.932" gradientUnits="userSpaceOnUse" gradientTransform="matrix(1.4121 -1.10457 1.0703 1.3683 -14.652 5.117)"/><linearGradient id="a"><stop offset="0" stop-color="#1f58b6"/><stop offset="1" stop-color="#7aa4e8"/></linearGradient><linearGradient xlink:href="#b" id="d" x1="4.943" y1="20.047" x2="30.151" y2="-6.266" gradientUnits="userSpaceOnUse"/><linearGradient id="b"><stop offset="0"/><stop offset="1" stop-opacity="0"/></linearGradient></defs><g color="#000" fill-rule="evenodd"><path d="M23.932 12A11.932 11.932 0 0 1 12 23.932 11.932 11.932 0 0 1 .068 12 11.932 11.932 0 0 1 12 .068 11.932 11.932 0 0 1 23.932 12z" style="isolation:auto;mix-blend-mode:normal" overflow="visible" fill="url(#c)" transform="translate(-.046 .016)"/><path d="M12.047.006C5.437.006.067 5.374.067 11.984c0 6.61 5.37 11.98 11.98 11.98s11.978-5.37 11.978-11.98S18.657.006 12.047.006zm0 .963c6.09 0 11.015 4.925 11.015 11.014 0 6.09-4.926 11.016-11.015 11.016A11.008 11.008 0 0 1 1.03 11.984C1.03 5.894 5.958.97 12.048.97z" style="line-height:normal;text-indent:0;text-align:start;text-decoration-line:none;text-decoration-style:solid;text-decoration-color:#000;text-transform:none;block-progression:tb;isolation:auto;mix-blend-mode:normal" font-weight="400" font-family="sans-serif" white-space="normal" overflow="visible" opacity=".096" fill="url(#d)" transform="translate(-.046 .016)"/></g><path style="line-height:normal;text-indent:0;text-align:start;text-decoration-line:none;text-decoration-style:solid;text-decoration-color:#000;text-transform:none;block-progression:tb;isolation:auto;mix-blend-mode:normal" d="M11.867 1.03c-.715.01-1.438.175-2.043.607-.988.705-1.504 1.824-1.504 3.127 0 .857.255 1.547.805 2.175.06.067.127.12.19.185H9.07L6.54 9.69a52.87 52.87 0 0 0-1.638 1.728c-.213.237-.388.44-.52.606a3.15 3.15 0 0 0-.176.238c-.027.04-.055.082-.087.148-.032.065-.1.117-.1.41 0 .255.05.375.1.53.05.152.11.305.193.458.297.557.943.806 1.504.806.374 0 .816-.146 1.17-.397.348-.248.68-.58 1.146-1.076v.946l-.916.92c-.424.424-.763.774-1.025 1.17-.26.396-.44.9-.38 1.408.12 1.015.813 1.68 1.887 2.853.644.705 1.086 1.163 1.472 1.485.387.323.8.56 1.267.56h.004c.388 0 .79-.048 1.16-.296.13-.087.147-.237.24-.352.254.285.543.55.875.614.426.085.867.034 1.294-.13.198-.075.232-.122.296-.17.065-.05.124-.102.19-.16.13-.116.278-.26.448-.428.34-.338.756-.777 1.18-1.25.665-.74 1.058-1.19 1.332-1.622a2.54 2.54 0 0 0 .39-1.317c0-.372-.086-.832-.322-1.215-.237-.384-.553-.703-1.05-1.195l-.873-.867V13.09l.064.063c.518.527.855.856 1.223 1.1.37.244.863.35 1.22.316h.003c.292-.03.623-.108.908-.33.285-.222.444-.528.54-.805.057-.16.14-.444.086-.76-.053-.313-.202-.56-.382-.8-.36-.48-.935-1.05-2.044-2.165l-2.57-2.585h-.32c.414-.412.815-.852.98-1.398.424-1.392-.01-3.08-1.415-4.13-.598-.446-1.32-.58-2.033-.57zm.027 1.677c.44-.01.852.124 1 .234.867.65 1.044 1.543.815 2.3-.23.754-.818 1.328-1.852 1.312-.305-.01-.86-.13-.804-.106h-.002c.1.04-.072-.047-.216-.17a4.665 4.665 0 0 1-.45-.443c-.454-.52-.388-.347-.388-1.07 0-.955.18-1.316.802-1.76.21-.15.656-.29 1.094-.296zM9.77 8.804h4.186l2.078 2.09c1.106 1.11 1.688 1.717 1.89 1.988.016.022 0 0 .012.012-.05.013.008.044-.115-.037-.14-.094-.455-.375-.956-.882-.343-.347-.67-.66-.93-.898a6.936 6.936 0 0 0-.35-.3c-.053-.04-.1-.078-.166-.12a1.052 1.052 0 0 0-.13-.073c-.063-.03-.13-.086-.376-.086a.858.858 0 0 0-.72.387c-.086.123-.11.2-.133.27a1.95 1.95 0 0 0-.082.37 6.13 6.13 0 0 0-.05.843v.192H9.81v-.192c0-.316-.016-.6-.05-.845a1.925 1.925 0 0 0-.083-.37c-.023-.07-.048-.148-.133-.27a.86.86 0 0 0-.72-.385c-.484 0-.446.12-.512.162a2.072 2.072 0 0 0-.166.123 6.703 6.703 0 0 0-.338.302c-.25.237-.563.55-.888.896-.45.48-.747.755-.906.87-.16.112-.11.085-.197.085-.183 0-.07 0-.024.083-.006-.01-.01-.03-.017-.04.1-.12.213-.256.377-.44.4-.446.964-1.043 1.583-1.67L9.77 8.803zm8.21 4.08c-.04.113-.04.073.013.03.01-.01-.014.002-.007 0 0-.01.006-.064-.006-.03zm-8.02 1.355H13.777l-.725.718-1.296 1.288-.003-.01a1.674 1.674 0 0 0-.117-.19 4.52 4.52 0 0 0-.27-.35c-.21-.248-.48-.538-.78-.834l-.628-.625zm-.99 1.384l.436.43c.233.23.43.447.59.632-.094.106-.18.21-.3.327L8.363 18.32l1.607 1.688c.396.418.605.678.674.787.024-.016 0 .01-.205.01.078 0 .066.047-.193-.168-.258-.216-.682-.644-1.31-1.33-1.054-1.152-1.443-1.793-1.458-1.92-.008-.062-.02-.085.112-.282.13-.198.41-.506.813-.912l.565-.567zm5.796 0l.53.527c.478.475.723.756.804.886.08.13.07.097.07.335 0 .223.02.186-.13.422s-.507.67-1.16 1.396c-.406.45-.807.874-1.117 1.184a10 10 0 0 1-.38.362l-.03.026a.78.78 0 0 1-.27.036c.06-.11.288-.413.778-.897l1.532-1.512-1.43-1.454-.255-.26.53-.525.53-.527zm-3.022 1.445l1.022 1.042.254.258-.34.335c-.382.378-.58.67-.8.98a7.738 7.738 0 0 0-.695-.833l-.466-.49.152-.15c.227-.223.43-.446.593-.65.08-.102.152-.196.218-.303.022-.036.034-.156.06-.19zm1.31 3.76c.006.01-.008-.013.02.038-.078-.143-.067.058-.02-.037z" color="#000" font-weight="400" font-family="sans-serif" white-space="normal" overflow="visible"/><path d="M9.096 14.607l1.97 2.178 1.628-.068 2.138-2.178V13.21l-5.906-.102z" fill="#ccc" fill-rule="evenodd"/><path d="M8.926 14.947V13.11l5.94.102-5.057 2.756z" fill="#fff" fill-rule="evenodd"/><path d="M8.352 19.793c-2.127-2.323-2.16-2.613-.506-4.272l1.156-1.158 1.03 1.02c.567.56 1.03 1.11 1.03 1.222 0 .112-.334.53-.743.93l-.745.73 1.037 1.09c.844.886 1.013 1.167.906 1.51-.165.53-.415.698-1.045.7-.388 0-.846-.38-2.12-1.77zm4.015 1.393c-.293-.55-.115-.92.94-1.96l.934-.924-.84-.856-.84-.856 1.12-1.113 1.12-1.112 1.123 1.113c.974.966 1.12 1.205 1.12 1.815 0 .615-.186.912-1.505 2.38-.828.922-1.634 1.725-1.79 1.786-.58.22-1.18.103-1.38-.274zm-7.28-7.85c-.106-.2-.193-.467-.193-.594 0-.126 1.026-1.27 2.28-2.542l2.28-2.312h4.885l2.325 2.337c2.213 2.224 2.316 2.36 2.143 2.857-.136.39-.322.535-.74.576-.47.046-.746-.138-1.766-1.17-.665-.675-1.275-1.227-1.355-1.227-.08 0-.146.465-.146 1.032v1.03H9.008v-1.03c0-.567-.066-1.03-.147-1.03-.08 0-.663.547-1.293 1.217-.923.98-1.256 1.217-1.716 1.217-.37 0-.636-.125-.762-.362zm5.685-6.19c-.21-.086-.653-.463-.98-.838-.503-.573-.598-.832-.598-1.622 0-1.13.35-1.87 1.153-2.443.816-.582 2.34-.607 3.085-.05 2.273 1.696 1.218 5.167-1.556 5.12-.396-.01-.893-.082-1.104-.167z" fill="#faa"/></svg>