<?xml version="1.0" encoding="UTF-8"?>
<!-- Created with Inkscape (http://www.inkscape.org/) -->
<svg width="24" height="24" version="1.1" viewBox="0 0 24 24" xmlns="http://www.w3.org/2000/svg" xmlns:cc="http://creativecommons.org/ns#" xmlns:dc="http://purl.org/dc/elements/1.1/" xmlns:rdf="http://www.w3.org/1999/02/22-rdf-syntax-ns#" xmlns:xlink="http://www.w3.org/1999/xlink">
 <defs>
  <radialGradient id="radialGradient14151" cx="6.3932" cy="15.165" r="11.932" gradientTransform="matrix(1.4121 -1.1046 1.0703 1.3683 -14.652 5.1167)" gradientUnits="userSpaceOnUse">
   <stop stop-color="#1f58b6" offset="0"/>
   <stop stop-color="#7aa4e8" offset="1"/>
  </radialGradient>
  <linearGradient id="linearGradient14183" x1="4.9426" x2="30.151" y1="20.047" y2="-6.2656" gradientUnits="userSpaceOnUse">
   <stop offset="0"/>
   <stop stop-opacity="0" offset="1"/>
  </linearGradient>
 </defs>
 <metadata>
  <rdf:RDF>
   <cc:Work rdf:about="">
    <dc:format>image/svg+xml</dc:format>
    <dc:type rdf:resource="http://purl.org/dc/dcmitype/StillImage"/>
    <dc:title/>
   </cc:Work>
  </rdf:RDF>
 </metadata>
 <g>
  <g fill-rule="evenodd" shape-rendering="auto">
   <path d="m23.932 12a11.932 11.932 0 0 1-11.932 11.932 11.932 11.932 0 0 1-11.932-11.932 11.932 11.932 0 0 1 11.932-11.932 11.932 11.932 0 0 1 11.932 11.932z" color="#000000" color-rendering="auto" fill="url(#radialGradient14151)" image-rendering="auto" solid-color="#000000" style="isolation:auto;mix-blend-mode:normal"/>
   <path d="m12.047 0.0058594c-6.6103-1e-7 -11.979 5.3682-11.979 11.979 0 6.6103 5.3682 11.979 11.979 11.979 6.6103 0 11.979-5.3682 11.979-11.979 0-6.6103-5.3682-11.979-11.979-11.979zm0 0.96289c6.0895 0 11.016 4.9261 11.016 11.016s-4.9261 11.016-11.016 11.016-11.016-4.9261-11.016-11.016c-1e-7 -6.0895 4.9261-11.016 11.016-11.016z" color="#000000" color-rendering="auto" fill="url(#linearGradient14183)" image-rendering="auto" opacity=".096" solid-color="#000000" style="block-progression:tb;isolation:auto;mix-blend-mode:normal;text-decoration-color:#000000;text-decoration-line:none;text-decoration-style:solid;text-indent:0;text-transform:none;white-space:normal"/>
  </g>
 </g>
 <g transform="translate(0 -1028.4)">
  <g transform="matrix(.30707 0 0 .30707 -7.3853 733.95)" fill="#fff">
   <g fill="#fff">
    <path d="m45.357 1003.7c0-20.223 0.30281-27.919 1.131-28.747 1.306-1.3061 4.4297-1.4608 6.2457-0.30952 0.68766 0.43601 2.8541 7.1659 4.8142 14.955l3.564 14.163-6.3296 3.0184v25.94l-4.7127-1.4033-2.6617-1.1874-2.0509-1.3514z" stroke-width=".94253"/>
    <path d="m74.495 1030.2c-2.68-2.68-2.6731-3.8239-2.6731-10.312v-7.0769h9v-13.5l-0.0625-11.875 3.0879 0.01-0.02537 21.865v21.191l-1.323 1.3929-1.7539 0.9159c-1.8326 0.957-4.2859-0.6465-6.25-2.6106z"/>
    <circle cx="56.131" cy="968.07" r="5.7483" style="paint-order:stroke fill markers"/>
    <circle id="path926" cx="64.855" cy="1003.6" r="1.2507" fill="#fff" style="paint-order:stroke fill markers"/>
   </g>
   <use id="use928" transform="translate(3.25 1.25)" width="100%" height="100%" fill="#ffffff" xlink:href="#path926"/>
   <use id="use930" transform="translate(2.875 2.125)" width="100%" height="100%" fill="#ffffff" xlink:href="#use928"/>
   <use id="use932" transform="translate(2.5 2.375)" width="100%" height="100%" fill="#ffffff" xlink:href="#use930"/>
   <use transform="translate(2.0625 2.9375)" width="100%" height="100%" fill="#ffffff" xlink:href="#use932"/>
  </g>
 </g>
</svg>
