<?xml version="1.0" encoding="UTF-8"?>
<!-- Created with Inkscape (http://www.inkscape.org/) -->
<svg width="24" height="24" version="1.1" viewBox="0 0 24 24" xmlns="http://www.w3.org/2000/svg" xmlns:cc="http://creativecommons.org/ns#" xmlns:dc="http://purl.org/dc/elements/1.1/" xmlns:rdf="http://www.w3.org/1999/02/22-rdf-syntax-ns#" xmlns:xlink="http://www.w3.org/1999/xlink">
 <defs>
  <radialGradient id="radialGradient14151" cx="6.3932" cy="15.165" r="11.932" gradientTransform="matrix(1.4121 -1.1046 1.0703 1.3683 -14.652 5.1167)" gradientUnits="userSpaceOnUse">
   <stop stop-color="#1f58b6" offset="0"/>
   <stop stop-color="#7aa4e8" offset="1"/>
  </radialGradient>
  <linearGradient id="linearGradient14183" x1="4.9426" x2="30.151" y1="20.047" y2="-6.2656" gradientUnits="userSpaceOnUse">
   <stop offset="0"/>
   <stop stop-opacity="0" offset="1"/>
  </linearGradient>
 </defs>
 <metadata>
  <rdf:RDF>
   <cc:Work rdf:about="">
    <dc:format>image/svg+xml</dc:format>
    <dc:type rdf:resource="http://purl.org/dc/dcmitype/StillImage"/>
    <dc:title/>
   </cc:Work>
  </rdf:RDF>
 </metadata>
 <g>
  <g fill-rule="evenodd" shape-rendering="auto">
   <path d="m23.932 12a11.932 11.932 0 0 1-11.932 11.932 11.932 11.932 0 0 1-11.932-11.932 11.932 11.932 0 0 1 11.932-11.932 11.932 11.932 0 0 1 11.932 11.932z" color="#000000" color-rendering="auto" fill="url(#radialGradient14151)" image-rendering="auto" solid-color="#000000" style="isolation:auto;mix-blend-mode:normal"/>
   <path d="m12.047 0.0058594c-6.6103-1e-7 -11.979 5.3682-11.979 11.979 0 6.6103 5.3682 11.979 11.979 11.979 6.6103 0 11.979-5.3682 11.979-11.979 0-6.6103-5.3682-11.979-11.979-11.979zm0 0.96289c6.0895 0 11.016 4.9261 11.016 11.016s-4.9261 11.016-11.016 11.016-11.016-4.9261-11.016-11.016c-1e-7 -6.0895 4.9261-11.016 11.016-11.016z" color="#000000" color-rendering="auto" fill="url(#linearGradient14183)" image-rendering="auto" opacity=".096" solid-color="#000000" style="block-progression:tb;isolation:auto;mix-blend-mode:normal;text-decoration-color:#000000;text-decoration-line:none;text-decoration-style:solid;text-indent:0;text-transform:none;white-space:normal"/>
  </g>
 </g>
 <g transform="translate(0 -1028.4)">
  <path d="m5.8018 1048.9c-0.25497-0.074-0.41884-0.2712-0.45345-0.5465-0.00891-0.071-0.015458-1.1199-0.015754-2.5229l-5.117e-4 -2.4018h-0.82643c-0.77954 0-0.82594 0-0.81789-0.029 0.00469-0.017 0.40229-1.4579 0.88354-3.2038 0.48125-1.7461 0.87892-3.1878 0.88372-3.2039 0.00783-0.026-0.00568-0.029-0.13734-0.029h-0.14605l-0.032339 0.1128c-0.01778 0.062-0.25105 0.891-0.51837 1.8421-0.26732 0.951-0.50614 1.7739-0.53071 1.8286-0.054751 0.1216-0.17918 0.2561-0.28742 0.3104-0.11224 0.056-0.33508 0.058-0.44855 0.01-0.2527-0.1201-0.38408-0.4224-0.3146-0.7236 0.013776-0.059 0.29134-1.0211 0.61679-2.1363 0.64667-2.2161 0.63192-2.173 0.84064-2.4593 0.25916-0.3558 0.59655-0.5915 1.006-0.7033l0.14456-0.04h2.3466l0.14565 0.046c0.32909 0.105 0.56594 0.2562 0.81221 0.5182 0.16901 0.1799 0.3108 0.3838 0.39316 0.5655 0.065611 0.1448 1.2289 4.1349 1.2435 4.2654 0.04553 0.4058-0.19618 0.7156-0.55805 0.7152-0.20043-2e-4 -0.37157-0.1133-0.4783-0.3156-0.026993-0.051-0.24624-0.8019-0.56999-1.9517-0.28938-1.0275-0.52902-1.8713-0.53255-1.8749-0.00354 0-0.07881-0.01-0.16729 0l-0.16088 0.01 0.9108 3.2247c0.50094 1.7735 0.91102 3.2265 0.91129 3.2288 2.685e-4 0-0.38184 0.01-0.84913 0.01h-0.84961v2.4553c0 1.7329-0.00528 2.4813-0.017946 2.5438-0.05321 0.2626-0.23293 0.4374-0.49787 0.4843-0.33597 0.059-0.64329-0.1495-0.71209-0.4843-0.013002-0.063-0.018192-0.7895-0.018192-2.5438v-2.4553h-0.37221v2.447c0 1.7268-0.00528 2.473-0.017946 2.5354-0.059728 0.2948-0.28905 0.4938-0.58553 0.5081-0.08787 0.01-0.16286 0-0.22147-0.019zm10.957-0.025c-0.10914-0.022-0.26646-0.1051-0.34969-0.1843-0.08123-0.077-0.13701-0.1655-0.19174-0.3031l-0.03482-0.088-0.0081-5.5637-0.0081-5.5638-0.1416-0.011-0.1416-0.01-1.3e-4 1.9764c-8e-5 1.3042-0.0059 2.0133-0.01719 2.0849-0.0094 0.059-0.03065 0.1403-0.04728 0.179-0.04661 0.1089-0.1644 0.2277-0.27957 0.2821-0.08716 0.042-0.1207 0.048-0.24654 0.048-0.12521 0-0.15954-0.01-0.24465-0.047-0.12304-0.058-0.21745-0.1559-0.27644-0.2864l-0.04533-0.1-5e-3 -2.2806c-0.0037-1.6785-3.4e-5 -2.3203 0.01397-2.431 0.0534-0.422 0.23769-0.8104 0.52359-1.1033 0.21823-0.2237 0.45629-0.364 0.75999-0.4477 0.13102-0.036 0.13897-0.036 1.7904-0.036 1.5538 0 1.6668 0 1.7858 0.03 0.59546 0.1442 1.0777 0.6012 1.2815 1.2146 0.10093 0.3037 0.09417 0.1274 0.10057 2.6227 0.0043 1.6683 9.07e-4 2.3073-0.0127 2.3803-0.03739 0.2008-0.14676 0.3506-0.32044 0.4387-0.08161 0.042-0.10922 0.046-0.25342 0.046-0.14721 0-0.17038-0.01-0.25642-0.049-0.11711-0.062-0.22354-0.1809-0.2727-0.3065l-0.03728-0.095-0.0044-2.0599-0.0044-2.06-0.28247 0.02-0.0081 5.5554-0.0081 5.5556-0.03554 0.096c-0.11128 0.3009-0.35149 0.4834-0.66843 0.5079-0.31207 0.024-0.62506-0.1513-0.75921-0.4256-0.10405-0.2128-0.09799 0.01-0.09826-3.5332l-2.37e-4 -3.2212-0.25084 0.02-0.0162 6.5664-0.03483 0.087c-0.05676 0.1429-0.11295 0.2296-0.20273 0.3129-0.18543 0.1721-0.43922 0.2423-0.69122 0.1912zm-5.1156-8.4698v-8.4208h1.5374v16.842h-1.5374zm-4.9601-5.8078c-0.3479-0.052-0.58852-0.1721-0.81833-0.4076-0.34737-0.3559-0.47643-0.8387-0.355-1.3283 0.060717-0.2447 0.15658-0.419 0.3389-0.6158 0.17331-0.1873 0.34949-0.297 0.59479-0.3704 0.47974-0.1437 0.99468 0 1.3437 0.3822 0.38227 0.4155 0.47776 1.01 0.24555 1.5287-0.17616 0.3935-0.49016 0.6644-0.89292 0.7703-0.12588 0.033-0.36525 0.054-0.45673 0.042zm11.037 0c-0.32283-0.049-0.57158-0.1656-0.78451-0.369-0.40711-0.3889-0.54034-0.9873-0.33954-1.5248 0.11565-0.3096 0.36184-0.5872 0.65786-0.7418 0.23016-0.1202 0.55067-0.1681 0.81102-0.1212 0.79263 0.1427 1.2873 0.9306 1.0849 1.7283-0.12162 0.4794-0.49965 0.8631-0.97302 0.9876-0.12588 0.033-0.36525 0.054-0.45672 0.042z" fill="#fff" stroke-width=".82394"/>
 </g>
</svg>
