<svg xmlns="http://www.w3.org/2000/svg" xmlns:xlink="http://www.w3.org/1999/xlink" width="24" height="24" viewBox="0 0 24 24"><defs><radialGradient xlink:href="#a" id="c" cx="6.393" cy="15.165" fx="6.393" fy="15.165" r="11.932" gradientUnits="userSpaceOnUse" gradientTransform="matrix(1.4121 -1.10457 1.0703 1.3683 -14.652 5.117)"/><linearGradient id="a"><stop offset="0" stop-color="#1f58b6"/><stop offset="1" stop-color="#7aa4e8"/></linearGradient><linearGradient xlink:href="#b" id="d" x1="4.943" y1="20.047" x2="30.151" y2="-6.266" gradientUnits="userSpaceOnUse"/><linearGradient id="b"><stop offset="0"/><stop offset="1" stop-opacity="0"/></linearGradient></defs><circle style="isolation:auto;mix-blend-mode:normal" cx="12" cy="12" r="11.932" color="#000" overflow="visible" fill="#4f86e1" fill-rule="evenodd"/><g color="#000" fill-rule="evenodd"><path d="M23.932 12A11.932 11.932 0 0 1 12 23.932 11.932 11.932 0 0 1 .068 12 11.932 11.932 0 0 1 12 .068 11.932 11.932 0 0 1 23.932 12z" style="isolation:auto;mix-blend-mode:normal" overflow="visible" fill="url(#c)" transform="translate(-.046 .016)"/><path d="M12.047.006C5.437.006.067 5.374.067 11.984c0 6.61 5.37 11.98 11.98 11.98s11.978-5.37 11.978-11.98S18.657.006 12.047.006zm0 .963c6.09 0 11.015 4.925 11.015 11.014 0 6.09-4.926 11.016-11.015 11.016A11.008 11.008 0 0 1 1.03 11.984C1.03 5.894 5.958.97 12.048.97z" style="line-height:normal;text-indent:0;text-align:start;text-decoration-line:none;text-decoration-style:solid;text-decoration-color:#000;text-transform:none;block-progression:tb;isolation:auto;mix-blend-mode:normal" font-weight="400" font-family="sans-serif" white-space="normal" overflow="visible" opacity=".096" fill="url(#d)" transform="translate(-.046 .016)"/></g><path d="M10.13 6.19c0 1.317.29 1.554 1.58 1.554 1.448 0 1.58-.29 1.58-1.948 0-1.606-.132-2.08-1.553-2.08-1.37 0-1.606.42-1.606 2.475zm2.712 3.344h-3.87c-1.08 0-1.605.316-1.605 1.395 0 1.078.526 1.42 1.606 1.42h1.448v6.24H7.657c-1.08 0-1.632.315-1.632 1.395s.553 1.42 1.632 1.42h8.688c1.08 0 1.632-.34 1.632-1.42 0-1.08-.553-1.396-1.632-1.396H13.58v-8.503c0-.343-.264-.553-.738-.553z" font-weight="700" font-size="26.324" font-family="Courier 10 Pitch" letter-spacing="0" word-spacing="0" fill="#133671"/><path d="M10.1 4.598c0 1.316.29 1.553 1.58 1.553 1.447 0 1.58-.288 1.58-1.947 0-1.606-.133-2.08-1.554-2.08-1.37 0-1.606.422-1.606 2.475zm2.71 3.343H8.94c-1.078 0-1.604.317-1.604 1.397s.526 1.42 1.605 1.42h1.45v6.24H7.624c-1.08 0-1.632.316-1.632 1.395 0 1.08.553 1.422 1.632 1.422h8.687c1.08 0 1.632-.343 1.632-1.422 0-1.08-.552-1.395-1.632-1.395h-2.764V8.494c0-.342-.263-.553-.737-.553z" font-weight="700" font-size="26.324" font-family="Courier 10 Pitch" letter-spacing="0" word-spacing="0" fill="#fff"/></svg>