<svg xmlns="http://www.w3.org/2000/svg" xmlns:xlink="http://www.w3.org/1999/xlink" width="24" height="24" viewBox="0 0 24 24"><defs><linearGradient id="a"><stop offset="0" stop-color="#7c05fc" stop-opacity=".996"/><stop offset="1" stop-color="#e244fe" stop-opacity=".996"/></linearGradient><linearGradient id="b"><stop offset="0"/><stop offset="1" stop-opacity="0"/></linearGradient><linearGradient id="d"><stop offset="0" stop-color="#1f58b6"/><stop offset="1" stop-color="#7aa4e8"/></linearGradient><radialGradient xlink:href="#a" id="f" cx="6.393" cy="15.165" fx="6.393" fy="15.165" r="11.932" gradientUnits="userSpaceOnUse" gradientTransform="matrix(1.4121 -1.10457 1.0703 1.3683 -14.652 5.117)"/><linearGradient xlink:href="#b" id="g" x1="4.943" y1="20.047" x2="30.151" y2="-6.266" gradientUnits="userSpaceOnUse"/><radialGradient xlink:href="#d" id="c" gradientUnits="userSpaceOnUse" gradientTransform="matrix(1.4121 -1.10457 1.0703 1.3683 -14.652 5.117)" cx="6.393" cy="15.165" fx="6.393" fy="15.165" r="11.932"/><radialGradient xlink:href="#d" id="e" gradientUnits="userSpaceOnUse" gradientTransform="matrix(1.4121 -1.10457 1.0703 1.3683 -14.652 5.117)" cx="6.393" cy="15.165" fx="6.393" fy="15.165" r="11.932"/></defs><g color="#000" fill-rule="evenodd"><path d="M23.932 12A11.932 11.932 0 0 1 12 23.932 11.932 11.932 0 0 1 .068 12 11.932 11.932 0 0 1 12 .068 11.932 11.932 0 0 1 23.932 12z" style="isolation:auto;mix-blend-mode:normal" overflow="visible" fill="url(#f)"/><path d="M12.047.006C5.437.006.067 5.374.067 11.984c0 6.61 5.37 11.98 11.98 11.98s11.978-5.37 11.978-11.98S18.657.006 12.047.006zm0 .963c6.09 0 11.015 4.925 11.015 11.014 0 6.09-4.926 11.016-11.015 11.016A11.008 11.008 0 0 1 1.03 11.984C1.03 5.894 5.958.97 12.048.97z" style="line-height:normal;text-indent:0;text-align:start;text-decoration-line:none;text-decoration-style:solid;text-decoration-color:#000;text-transform:none;block-progression:tb;isolation:auto;mix-blend-mode:normal" font-weight="400" font-family="sans-serif" white-space="normal" overflow="visible" opacity=".096" fill="url(#g)"/></g><path d="M9.063 21.64c.01-.725.014-.75.11-.93.12-.224.284-.395.506-.526.165-.098.177-.1.95-.11l.78-.01v-7.756l-.23-.12a1.763 1.763 0 0 1-.49-2.743c.345-.384.762-.563 1.307-.563.38 0 .64.068.93.244.79.477 1.068 1.52.627 2.347-.137.256-.46.57-.735.714l-.23.12v7.756l.78.01c.773.012.785.013.95.11.223.132.388.303.508.528.095.18.098.205.11.93l.01.745H9.05l.013-.745zM5.71 16.838c-.756-.805-1.173-1.396-1.617-2.29a8.81 8.81 0 0 1-.84-2.687c-.088-.586-.088-1.878 0-2.464.243-1.588.894-3.103 1.846-4.287.293-.367 1.01-1.124 1.062-1.124.024 0 .224.182.446.404l.402.403-.367.38c-.482.495-.71.773-1.02 1.242a7.853 7.853 0 0 0-1.193 3.11c-.086.55-.086 1.655 0 2.207.26 1.66.958 3.053 2.154 4.293l.424.44-.4.403c-.222.22-.422.402-.446.402-.025 0-.227-.194-.45-.432zm11.68.028l-.403-.405.354-.357c.468-.475.723-.786 1.034-1.257a7.46 7.46 0 0 0 1.258-4.217c0-1.548-.415-2.943-1.255-4.215-.31-.47-.538-.746-1.02-1.243l-.367-.38.402-.402c.222-.222.422-.403.446-.403.053 0 .77.757 1.063 1.122.953 1.184 1.604 2.698 1.846 4.286.09.587.09 1.88 0 2.465-.24 1.59-.89 3.097-1.845 4.288-.288.362-1.01 1.123-1.062 1.123-.024 0-.225-.18-.447-.404zM7.396 15.18c-.995-1.034-1.576-2.193-1.803-3.595-.06-.38-.06-1.533 0-1.913.12-.75.34-1.406.688-2.077.287-.55.63-1.015 1.127-1.527l.43-.444.407.404c.224.223.407.42.407.438 0 .02-.185.226-.413.46-.856.882-1.32 1.825-1.482 3.022-.066.49-.066.872 0 1.362.163 1.196.626 2.14 1.482 3.02.228.236.414.443.414.462 0 .037-.777.823-.814.823-.012 0-.21-.196-.44-.435zm8.35.04c-.22-.22-.396-.412-.396-.43 0-.016.185-.224.413-.46.77-.796 1.196-1.594 1.43-2.69.067-.313.083-.502.083-1.01 0-.51-.016-.698-.083-1.013-.234-1.095-.66-1.893-1.43-2.69-.228-.235-.414-.442-.414-.46 0-.02.182-.216.406-.438l.407-.405.43.443c.497.513.84.978 1.127 1.528.526 1.01.736 1.874.736 3.033 0 .698-.037 1.018-.188 1.618a6.694 6.694 0 0 1-.998 2.15c-.22.31-1.046 1.217-1.108 1.217-.013 0-.2-.178-.418-.396zm-6.598-1.6c-.414-.44-.646-.768-.866-1.224a4.125 4.125 0 0 1 .334-4.118 6.69 6.69 0 0 1 .533-.635l.345-.362.424.42.424.42-.357.376c-.478.503-.676.845-.843 1.457-.087.32-.087 1.03 0 1.353.167.61.365.953.843 1.456l.357.375-.413.41a5.72 5.72 0 0 1-.436.413c-.012 0-.167-.154-.343-.34zm4.925-.074l-.41-.414.355-.372c.477-.498.676-.84.843-1.454.087-.32.087-1.03 0-1.353-.167-.61-.365-.953-.843-1.456l-.357-.375.424-.42.424-.42.345.362c.415.437.668.794.882 1.248.623 1.316.475 2.936-.377 4.13-.18.252-.802.938-.85.938-.014 0-.21-.186-.436-.414z"/><path d="M9.063 20.526c.01-.725.014-.75.11-.93.12-.224.284-.395.506-.526.165-.098.177-.1.95-.11l.78-.012v-7.753l-.23-.12a1.763 1.763 0 0 1-.49-2.744c.345-.383.762-.563 1.307-.563.38 0 .64.068.93.244.79.478 1.068 1.523.627 2.35-.137.254-.46.567-.735.713l-.23.12v7.756l.78.01c.773.012.785.013.95.112.223.13.388.302.508.527.095.18.098.204.11.93l.01.744H9.05l.013-.744zM5.71 15.724c-.756-.806-1.173-1.397-1.617-2.29a8.81 8.81 0 0 1-.84-2.687c-.088-.587-.088-1.88 0-2.466.243-1.587.894-3.1 1.846-4.286.293-.365 1.01-1.122 1.062-1.122.024 0 .224.18.446.403l.402.403-.367.38c-.482.496-.71.774-1.02 1.243A7.853 7.853 0 0 0 4.43 8.41c-.086.552-.086 1.656 0 2.208.26 1.66.958 3.053 2.154 4.293l.424.44-.4.403c-.222.222-.422.403-.446.403-.025 0-.227-.195-.45-.432zm11.68.028l-.403-.405.354-.36c.468-.474.723-.784 1.034-1.256a7.46 7.46 0 0 0 1.258-4.216c0-1.547-.415-2.94-1.255-4.213-.31-.468-.538-.746-1.02-1.242l-.367-.38.402-.403c.222-.22.422-.403.446-.403.053 0 .77.757 1.063 1.123.953 1.184 1.604 2.7 1.846 4.287.09.586.09 1.878 0 2.465-.24 1.588-.89 3.096-1.845 4.287-.288.362-1.01 1.122-1.062 1.122-.024 0-.225-.182-.447-.404zm-9.995-1.686C6.4 13.032 5.82 11.872 5.592 10.47c-.06-.38-.06-1.533 0-1.912.12-.75.34-1.406.688-2.077.287-.55.63-1.014 1.127-1.527l.43-.443.407.404c.224.222.407.42.407.438 0 .02-.185.225-.413.46-.856.882-1.32 1.825-1.482 3.022-.066.49-.066.872 0 1.36.163 1.198.626 2.14 1.482 3.022.228.235.414.443.414.46 0 .038-.777.824-.814.824-.012 0-.21-.195-.44-.434zm8.35.04c-.22-.22-.396-.412-.396-.43 0-.017.185-.224.413-.46.77-.796 1.196-1.595 1.43-2.69.067-.314.083-.502.083-1.01 0-.51-.016-.7-.083-1.013-.234-1.095-.66-1.894-1.43-2.69-.228-.235-.414-.443-.414-.46 0-.02.182-.216.406-.44l.407-.403.43.444c.497.512.84.977 1.127 1.527.526 1.01.736 1.876.736 3.035 0 .7-.037 1.018-.188 1.62a6.694 6.694 0 0 1-.998 2.15c-.22.308-1.046 1.216-1.108 1.216-.013 0-.2-.177-.418-.395zm-6.598-1.6c-.414-.44-.646-.768-.866-1.225a4.125 4.125 0 0 1 .334-4.116 6.69 6.69 0 0 1 .533-.635l.345-.364.424.42.424.42-.357.376c-.478.503-.676.845-.843 1.456-.087.322-.087 1.032 0 1.353.167.613.365.955.843 1.458l.357.375-.413.41a5.72 5.72 0 0 1-.436.412c-.012 0-.167-.153-.343-.34zm4.925-.074l-.41-.414.355-.372c.477-.498.676-.84.843-1.454.087-.322.087-1.032 0-1.353-.167-.613-.365-.955-.843-1.458l-.357-.375.424-.42.424-.42.345.362c.415.436.668.793.882 1.247.623 1.317.475 2.937-.377 4.13-.18.253-.802.94-.85.94-.014 0-.21-.188-.436-.415z" fill="#fff"/></svg>