<svg xmlns="http://www.w3.org/2000/svg" xmlns:xlink="http://www.w3.org/1999/xlink" width="24" height="24" viewBox="0 0 24 24"><defs><linearGradient id="e"><stop offset="0" stop-color="#999"/><stop offset="1" stop-color="#ccc" stop-opacity="0"/></linearGradient><linearGradient id="b"><stop offset="0"/><stop offset="1" stop-opacity="0"/></linearGradient><linearGradient id="a"><stop offset="0" stop-color="#1f58b6"/><stop offset="1" stop-color="#7aa4e8"/></linearGradient><radialGradient xlink:href="#a" id="f" cx="6.393" cy="15.165" fx="6.393" fy="15.165" r="11.932" gradientUnits="userSpaceOnUse" gradientTransform="matrix(1.4121 -1.10457 1.0703 1.3683 -14.652 5.117)"/><linearGradient xlink:href="#b" id="g" x1="4.943" y1="20.047" x2="30.151" y2="-6.266" gradientUnits="userSpaceOnUse"/><radialGradient xlink:href="#a" id="c" gradientUnits="userSpaceOnUse" gradientTransform="matrix(1.4121 -1.10457 1.0703 1.3683 -14.652 5.117)" cx="6.393" cy="15.165" fx="6.393" fy="15.165" r="11.932"/><radialGradient xlink:href="#a" id="d" gradientUnits="userSpaceOnUse" gradientTransform="matrix(1.4121 -1.10457 1.0703 1.3683 -14.652 5.117)" cx="6.393" cy="15.165" fx="6.393" fy="15.165" r="11.932"/><clipPath id="h"><circle r="11.026" cy="1040.362" cx="12" style="isolation:auto;mix-blend-mode:normal" color="#000" overflow="visible" fill="#ac9393" stroke-opacity=".428"/></clipPath><linearGradient xlink:href="#e" id="i" x1="96.294" y1="1033.285" x2="96.598" y2="1049.268" gradientUnits="userSpaceOnUse"/></defs><g color="#000" fill-rule="evenodd"><path d="M23.932 12A11.932 11.932 0 0 1 12 23.932 11.932 11.932 0 0 1 .068 12 11.932 11.932 0 0 1 12 .068 11.932 11.932 0 0 1 23.932 12z" style="isolation:auto;mix-blend-mode:normal" overflow="visible" fill="url(#f)"/><path d="M12.047.006C5.437.006.067 5.374.067 11.984c0 6.61 5.37 11.98 11.98 11.98s11.978-5.37 11.978-11.98S18.657.006 12.047.006zm0 .963c6.09 0 11.015 4.925 11.015 11.014 0 6.09-4.926 11.016-11.015 11.016A11.008 11.008 0 0 1 1.03 11.984C1.03 5.894 5.958.97 12.048.97z" style="line-height:normal;text-indent:0;text-align:start;text-decoration-line:none;text-decoration-style:solid;text-decoration-color:#000;text-transform:none;block-progression:tb;isolation:auto;mix-blend-mode:normal" font-weight="400" font-family="sans-serif" white-space="normal" overflow="visible" opacity=".096" fill="url(#g)"/></g><path style="isolation:auto;mix-blend-mode:normal" clip-path="url(#h)" color="#000" overflow="visible" fill="#1d3153" d="M2.906 1047.612h18.438v4.75H2.906z" transform="translate(0 -1028.362)"/><g transform="translate(-2.002 -145.967) scale(.14517)"><path d="M39.225 1135.35c0-3.305.846-5.08 2.734-5.74 2.01-.7 106.935-.7 108.947 0 1.888.658 2.734 2.435 2.734 5.74v2.704H39.226v-2.704zm8.938-13.772c0-4.347 1.078-5.424 5.425-5.424h3.067v-52.74h13.408v52.772l4.357-.128 4.36-.128.114-26.258.115-26.257h12.946l.116 26.257.115 26.258h8.492l.114-26.258.116-26.257h12.947l.115 26.257.115 26.258 4.358.128 4.357.128v-52.771H136.21v52.74h3.068c2.72 0 3.202.133 4.246 1.177 1.044 1.044 1.18 1.527 1.18 4.246v3.067h-96.54v-3.067zm2.395-63.073c-1.157-.47-2.395-2.143-2.395-3.235 0-.71-.485-.794-4.492-.794H39.18l.135-2.322.135-2.32 28.493-13.154 28.493-13.153 28.492 13.153 28.493 13.154.135 2.32.135 2.322h-4.493c-4.152 0-4.492.067-4.492.87 0 .477-.486 1.432-1.08 2.122l-1.078 1.254-45.515.086c-25.098.05-45.944-.088-46.472-.303z" fill="#fff"/><rect style="isolation:auto;mix-blend-mode:normal" width="96.961" height="6.393" x="47.737" y="1054.215" ry="3.197" color="#000" overflow="visible" fill="#ccc"/><path style="isolation:auto;mix-blend-mode:normal" color="#000" overflow="visible" fill="#b3b3b3" d="M61.6 1067.914h3.444v47.948H61.6z"/><path d="M64.33 1047.213l31.66-13.852 31.508 13.55z" fill="url(#i)" fill-rule="evenodd"/><path style="isolation:auto;mix-blend-mode:normal" color="#000" overflow="visible" fill="#b3b3b3" d="M83.862 1067.914h3.444v47.948h-3.444zM105.604 1067.914h3.444v47.948h-3.444zM127.776 1067.914h3.444v47.948h-3.444z"/></g></svg>