<?xml version="1.0" encoding="UTF-8" standalone="no"?>
<!-- Created with Inkscape (http://www.inkscape.org/) -->
<svg xmlns:rdf="http://www.w3.org/1999/02/22-rdf-syntax-ns#" xmlns="http://www.w3.org/2000/svg" height="6.3386mm" width="6.3388mm" version="1.1" xmlns:cc="http://creativecommons.org/ns#" xmlns:xlink="http://www.w3.org/1999/xlink" viewBox="0 0 6.3388395 6.3386312" xmlns:dc="http://purl.org/dc/elements/1.1/">
 <defs>
  <linearGradient id="linearGradient938-0" y2="1050" gradientUnits="userSpaceOnUse" x2="12.065" y1="1043.7" x1="12.065">
   <stop stop-color="#83486f" offset="0"/>
   <stop stop-color="#520037" offset="1"/>
  </linearGradient>
  <clipPath id="clipPath14164-1-9" clipPathUnits="userSpaceOnUse">
   <circle style="color-rendering:auto;color:#000000;isolation:auto;mix-blend-mode:normal;shape-rendering:auto;solid-color:#000000;image-rendering:auto" fill-opacity=".99608" cx="11.999" cy="1040.4" r="10.982" fill="#f00"/>
  </clipPath>
  <radialGradient id="radialGradient14151-2-1" gradientUnits="userSpaceOnUse" cy="15.165" cx="6.3932" gradientTransform="matrix(1.1628 -1.0259 .98320 1.1143 -11.736 8.4652)" r="11.932">
   <stop stop-color="#42002c" offset="0"/>
   <stop stop-color="#520037" offset="1"/>
  </radialGradient>
  <linearGradient id="linearGradient1014" y2="-6.2656" gradientUnits="userSpaceOnUse" x2="30.151" y1="20.047" x1="4.9426">
   <stop offset="0"/>
   <stop stop-opacity="0" offset="1"/>
  </linearGradient>
 </defs>
 <metadata>
  <rdf:RDF>
   <cc:Work rdf:about="">
    <dc:format>image/svg+xml</dc:format>
    <dc:type rdf:resource="http://purl.org/dc/dcmitype/StillImage"/>
    <dc:title/>
   </cc:Work>
  </rdf:RDF>
 </metadata>
 <g transform="translate(-101.91 -164.56)">
  <g transform="translate(0 -.12912)">
   <g fill-rule="evenodd" transform="matrix(.26458 0 0 .26458 101.99 164.69)">
    <path style="color-rendering:auto;color:#000000;isolation:auto;mix-blend-mode:normal;shape-rendering:auto;solid-color:#000000;image-rendering:auto" d="m23.932 12a11.932 11.932 0 0 1 -11.932 11.932 11.932 11.932 0 0 1 -11.932 -11.932 11.932 11.932 0 0 1 11.932 -11.932 11.932 11.932 0 0 1 11.932 11.932z" fill="url(#radialGradient14151-2-1)"/>
    <path opacity="0.096" style="color-rendering:auto;text-decoration-color:#000000;color:#000000;isolation:auto;mix-blend-mode:normal;shape-rendering:auto;solid-color:#000000;text-decoration-line:none;text-decoration-style:solid;image-rendering:auto;white-space:normal;text-indent:0;text-transform:none" d="m12.047 0.0058594c-6.6104-1e-7 -11.979 5.3682-11.979 11.978 0 6.6103 5.3682 11.979 11.979 11.979 6.6103 0 11.979-5.3682 11.979-11.979 0-6.6103-5.3682-11.979-11.979-11.979zm0 0.96289c6.0895 0 11.016 4.9261 11.016 11.016-0.001 6.089-4.927 11.015-11.016 11.015-6.0897 0-11.016-4.926-11.016-11.016 0.0002-6.0892 4.9263-11.015 11.016-11.015z" fill="url(#linearGradient1014)"/>
   </g>
   <path style="color-rendering:auto;color:#000000;isolation:auto;mix-blend-mode:normal;shape-rendering:auto;solid-color:#000000;image-rendering:auto" d="m0.088388 1044.9s5.8463-1.812 11.756-1.812c6.3066 0 12.021 1.812 12.021 1.812v7.4688h-23.777z" clip-path="url(#clipPath14164-1-9)" transform="matrix(.26458 0 0 .26458 101.99 -107.4)" fill="url(#linearGradient938-0)"/>
   <path d="m103.55 169.59c-0.23079-0.0318-0.42606-0.12965-0.58214-0.29171-0.13626-0.14147-0.22395-0.31266-0.25906-0.50575-0.0158-0.0868-0.0157-0.2426 0.00011-0.33112 0.0788-0.44019 0.44184-0.7682 0.88538-0.79987 0.0657-0.005 0.18796 0 0.22871 0.009l0.0186 0.004 0.0896-0.29657c0.12759-0.42246 0.16897-0.54541 0.21577-0.64106 0.0601-0.12271 0.11138-0.16968 0.21689-0.19836 0.0302-0.008 0.0901-0.0124 0.24113-0.0164 0.11052-0.003 0.20245-0.004 0.20429-0.003 0.002 0.003 0.002 0.0445 0.001 0.0964l-0.002 0.0944-0.10514 0.00016c-0.16685 0-0.26564 0.0101-0.30672 0.03-0.0364 0.0177-0.061 0.0469-0.0792 0.0938-0.0108 0.0277-0.0709 0.23612-0.0709 0.24575 0 0.003 0.38181 0.005 0.84847 0.004l0.84846-0.003 0.0325-0.0899c0.0178-0.0495 0.0301-0.092 0.0273-0.0945-0.003-0.003-0.073-0.0188-0.15586-0.0364-0.18792-0.0398-0.23132-0.053-0.25588-0.0776-0.0188-0.0188-0.019-0.0196-0.009-0.0437 0.006-0.0135 0.0103-0.0257 0.0103-0.0271 0-0.003 0.19254-0.003 0.42786-0.003h0.42787l0.005 0.0908c0.003 0.0499 0.003 0.0927 0.00079 0.0949-0.002 0.003-0.0541 0.006-0.11525 0.008l-0.11123 0.004-0.0326 0.0896-0.0326 0.0896 0.13451 0.2989c0.074 0.16438 0.13548 0.29996 0.13666 0.30125 0.001 0.003 0.0347-0.005 0.0746-0.0148 0.15093-0.0358 0.28489-0.0393 0.42443-0.0109 0.19754 0.0402 0.35284 0.1239 0.49565 0.26723 0.1464 0.14695 0.2349 0.31543 0.27153 0.51684 0.0158 0.0868 0.0157 0.24259-0.00012 0.3311-0.0787 0.44018-0.44184 0.76821-0.88537 0.79986-0.35087 0.0251-0.68786-0.14087-0.87776-0.43223-0.0637-0.0978-0.0999-0.18256-0.14021-0.32911-0.002-0.006-0.0473-0.008-0.19844-0.008-0.10787 0-0.21571-0.003-0.23966-0.007-0.10302-0.0164-0.14916-0.0569-0.41116-0.36139-0.21768-0.25302-0.34528-0.39791-0.49254-0.55928-0.14592-0.15991-0.33785-0.36486-0.33982-0.3629-0.002 0.003-0.0693 0.21278-0.0693 0.21646 0 0.003 0.0248 0.0148 0.0552 0.03 0.27004 0.13578 0.46401 0.39758 0.51796 0.69913 0.0158 0.0885 0.0159 0.24432 0.00011 0.3311-0.0366 0.20143-0.12512 0.36989-0.27152 0.51684-0.14168 0.14221-0.29594 0.22582-0.49265 0.26701-0.0764 0.0161-0.23567 0.023-0.30476 0.0138zm0.21813-0.21479c0.10877-0.0151 0.22073-0.0578 0.31771-0.12097 0.0547-0.0357 0.16291-0.14303 0.20063-0.19915 0.20095-0.29893 0.17156-0.6794-0.0732-0.94718-0.0601-0.0658-0.2208-0.17661-0.234-0.1614-0.003 0.003-0.0392 0.11589-0.0808 0.25035-0.0859 0.27749-0.1349 0.42426-0.15408 0.46185-0.0194 0.038-0.043 0.0539-0.0798 0.0539-0.0614-0.00008-0.10117-0.0426-0.10122-0.10829-0.00002-0.045 0.0169-0.10544 0.12432-0.44429 0.0432-0.13629 0.0799-0.25569 0.0816-0.26532l0.003-0.0175-0.0592-0.005c-0.2557-0.0198-0.5129 0.1039-0.66715 0.32073-0.1809 0.25429-0.18274 0.59684-0.005 0.86177 0.0377 0.0561 0.14588 0.16349 0.20062 0.19915 0.15887 0.10356 0.34458 0.14624 0.52624 0.12097zm3.1213-0.0228c0.40839-0.0782 0.68114-0.48776 0.59559-0.89445-0.0313-0.14901-0.0979-0.26979-0.21038-0.38208-0.12205-0.12179-0.26349-0.19169-0.43407-0.2145-0.10763-0.0143-0.31708 0.008-0.31128 0.034 0.001 0.005 0.0694 0.15849 0.15177 0.34113 0.20071 0.44522 0.19997 0.44336 0.19622 0.48863-0.002 0.0292-0.007 0.0398-0.0209 0.052-0.0372 0.032-0.0485 0.0327-0.45806 0.0304-0.2109-0.003-0.38346 0-0.38346 0.003s0.008 0.0254 0.0176 0.0525c0.0858 0.239 0.28041 0.41799 0.52261 0.48077 0.10615 0.0275 0.22543 0.0312 0.33439 0.0103zm-0.27177-0.74226c0-0.01-0.28246-0.62463-0.28762-0.62635-0.0108-0.004-0.0798 0.0527-0.13185 0.10753-0.12192 0.1284-0.19055 0.28159-0.20697 0.46199l-0.005 0.0516 0.0661 0.003c0.09 0.003 0.56507 0.006 0.56507 0.003zm-0.84065-0.0566c0.0211-0.24649 0.10916-0.44522 0.27255-0.61484 0.0362-0.0376 0.0946-0.0887 0.12977-0.11367 0.0352-0.0249 0.0626-0.0487 0.0609-0.0528-0.004-0.009-0.15958-0.35396-0.17223-0.38115-0.006-0.0132-0.0102-0.0161-0.0136-0.0101-0.004 0.007-0.36517 0.95258-0.45187 1.1825l-0.0158 0.0419h0.1858l0.004-0.0519zm-0.1577-0.62368c0.12913-0.34711 0.23478-0.63341 0.23478-0.63627 0-0.004-1.6036-0.003-1.6435 0.003-0.009 0.003 0.15342 0.18221 0.57585 0.64254 0.39337 0.42867 0.59 0.6383 0.59325 0.63251 0.003-0.005 0.11052-0.29268 0.23964-0.63982z" stroke-width=".26458" fill="#173814"/>
   <path d="m103.53 169.37c-0.23079-0.0318-0.42606-0.12964-0.58214-0.2917-0.13626-0.14147-0.22395-0.31266-0.25906-0.50575-0.0158-0.0868-0.0157-0.2426 0.00011-0.33113 0.0788-0.44018 0.44184-0.76819 0.88538-0.79986 0.0657-0.005 0.18796 0 0.22871 0.009l0.0186 0.004 0.0896-0.29657c0.12759-0.42246 0.16897-0.54541 0.21577-0.64106 0.0601-0.12271 0.11138-0.16968 0.21689-0.19836 0.0302-0.008 0.0901-0.0124 0.24113-0.0164 0.11052-0.003 0.20245-0.005 0.20429-0.003 0.002 0.003 0.002 0.0445 0.001 0.0964l-0.002 0.0944-0.10514 0.00016c-0.16685 0-0.26563 0.0101-0.30672 0.03-0.0364 0.0177-0.061 0.0469-0.0792 0.0938-0.0108 0.0277-0.0709 0.23611-0.0709 0.24574 0 0.003 0.38181 0.005 0.84847 0.004l0.84846-0.003 0.0325-0.0899c0.0178-0.0495 0.0301-0.092 0.0273-0.0945-0.003-0.003-0.073-0.0188-0.15586-0.0364-0.18792-0.0398-0.23132-0.053-0.25588-0.0776-0.0188-0.0188-0.019-0.0196-0.009-0.0437 0.006-0.0135 0.0103-0.0257 0.0103-0.0271 0-0.003 0.19254-0.003 0.42786-0.003h0.42787l0.005 0.0908c0.003 0.0499 0.003 0.0926 0.00079 0.0948-0.002 0.003-0.0541 0.006-0.11525 0.008l-0.11123 0.004-0.0326 0.0896-0.0326 0.0896 0.13451 0.2989c0.074 0.16438 0.13548 0.29995 0.13666 0.30125 0.001 0.003 0.0347-0.005 0.0746-0.0148 0.15093-0.0358 0.28489-0.0393 0.42443-0.0108 0.19754 0.0402 0.35284 0.1239 0.49565 0.26723 0.1464 0.14695 0.2349 0.31543 0.27153 0.51683 0.0158 0.0868 0.0157 0.2426-0.00012 0.3311-0.0787 0.44019-0.44184 0.76822-0.88537 0.79986-0.35087 0.0251-0.68786-0.14086-0.87776-0.43222-0.0637-0.0978-0.0999-0.18256-0.14021-0.32911-0.002-0.006-0.0473-0.008-0.19844-0.008-0.10787 0-0.21571-0.003-0.23966-0.007-0.10302-0.0164-0.14916-0.0569-0.41116-0.36139-0.21768-0.25303-0.34528-0.39791-0.49254-0.55928-0.14592-0.15991-0.33785-0.36486-0.33982-0.3629-0.002 0.003-0.0693 0.21277-0.0693 0.21645 0 0.003 0.0248 0.0148 0.0552 0.03 0.27004 0.13579 0.46401 0.39759 0.51796 0.69914 0.0158 0.0885 0.0159 0.24431 0.00011 0.3311-0.0366 0.20142-0.12512 0.36988-0.27152 0.51683-0.14168 0.14222-0.29594 0.22583-0.49265 0.26702-0.0764 0.0161-0.23567 0.023-0.30476 0.0138zm0.21813-0.21479c0.10877-0.0151 0.22073-0.0577 0.31771-0.12096 0.0548-0.0357 0.16291-0.14304 0.20063-0.19916 0.20095-0.29892 0.17156-0.67939-0.0732-0.94718-0.0601-0.0658-0.2208-0.17661-0.234-0.16139-0.003 0.003-0.0392 0.11588-0.0808 0.25035-0.0859 0.27749-0.1349 0.42425-0.15408 0.46185-0.0194 0.038-0.043 0.0539-0.0798 0.0539-0.0614-0.00008-0.10117-0.0426-0.10122-0.10829-0.00002-0.045 0.0169-0.10544 0.12432-0.44429 0.0432-0.13629 0.0799-0.25569 0.0816-0.26533l0.003-0.0175-0.0592-0.005c-0.2557-0.0198-0.5129 0.10391-0.66715 0.32073-0.1809 0.25429-0.18274 0.59685-0.005 0.86178 0.0377 0.0561 0.14588 0.16348 0.20062 0.19915 0.15887 0.10356 0.34458 0.14623 0.52624 0.12097zm3.1213-0.0228c0.40839-0.0782 0.68114-0.48776 0.59559-0.89445-0.0313-0.14901-0.0979-0.2698-0.21038-0.38209-0.12205-0.12178-0.26349-0.19169-0.43407-0.21449-0.10763-0.0143-0.31708 0.008-0.31128 0.034 0.001 0.005 0.0694 0.15849 0.15177 0.34113 0.20071 0.44521 0.19997 0.44336 0.19622 0.48863-0.002 0.0292-0.007 0.0397-0.0209 0.052-0.0372 0.032-0.0485 0.0327-0.45806 0.0304-0.2109-0.003-0.38346 0-0.38346 0.003s0.008 0.0254 0.0176 0.0525c0.0858 0.23899 0.28041 0.41798 0.52261 0.48077 0.10615 0.0275 0.22543 0.0312 0.33439 0.0103zm-0.27177-0.74226c0-0.01-0.28246-0.62463-0.28762-0.62635-0.0108-0.004-0.0798 0.0527-0.13185 0.10753-0.12192 0.1284-0.19055 0.28159-0.20697 0.46199l-0.005 0.0516 0.0661 0.003c0.09 0.003 0.56507 0.006 0.56507 0.003zm-0.84065-0.0566c0.0211-0.24648 0.10916-0.44521 0.27255-0.61484 0.0362-0.0376 0.0946-0.0887 0.12977-0.11366 0.0352-0.0249 0.0626-0.0487 0.0609-0.0528-0.004-0.009-0.15958-0.35396-0.17223-0.38116-0.006-0.0132-0.0102-0.0161-0.0136-0.0101-0.004 0.007-0.36517 0.95258-0.45187 1.1825l-0.0158 0.0419h0.1858l0.004-0.0519zm-0.1577-0.62367c0.12913-0.34711 0.23478-0.63342 0.23478-0.63627 0-0.004-1.6036-0.003-1.6435 0.003-0.009 0.003 0.15342 0.18222 0.57585 0.64254 0.39337 0.42868 0.59 0.63831 0.59325 0.63252 0.003-0.005 0.11052-0.29269 0.23964-0.63982z" stroke-width=".26458" fill="#fff"/>
  </g>
 </g>
</svg>
