<svg xmlns="http://www.w3.org/2000/svg" xmlns:xlink="http://www.w3.org/1999/xlink" width="24" height="24" viewBox="0 0 24 24"><defs><linearGradient id="b"><stop offset="0"/><stop offset="1" stop-opacity="0"/></linearGradient><linearGradient id="a"><stop offset="0" stop-color="#1f58b6"/><stop offset="1" stop-color="#7aa4e8"/></linearGradient><radialGradient xlink:href="#a" id="e" cx="6.393" cy="15.165" fx="6.393" fy="15.165" r="11.932" gradientUnits="userSpaceOnUse" gradientTransform="matrix(1.4121 -1.10457 1.0703 1.3683 -14.652 5.117)"/><linearGradient xlink:href="#b" id="f" x1="4.943" y1="20.047" x2="30.151" y2="-6.266" gradientUnits="userSpaceOnUse"/><radialGradient xlink:href="#a" id="g" gradientUnits="userSpaceOnUse" gradientTransform="matrix(1.4121 -1.10457 1.0703 1.3683 -14.652 5.117)" cx="6.393" cy="15.165" fx="6.393" fy="15.165" r="11.932"/><clipPath id="i"><path style="isolation:auto;mix-blend-mode:normal" d="M22.982 12A10.982 10.982 0 0 1 12 22.982 10.982 10.982 0 0 1 1.018 12 10.982 10.982 0 0 1 12 1.018 10.982 10.982 0 0 1 22.982 12z" color="#000" overflow="visible" fill="url(#c)" fill-rule="evenodd" stroke-width="2" stroke-linecap="square" stroke-dashoffset=".85"/></clipPath><radialGradient xlink:href="#a" id="c" gradientUnits="userSpaceOnUse" gradientTransform="matrix(1.29966 -1.0166 .98508 1.25934 -12.53 5.665)" cx="6.393" cy="15.165" fx="6.393" fy="15.165" r="11.932"/><clipPath id="h"><path style="isolation:auto;mix-blend-mode:normal" d="M22.982 12A10.982 10.982 0 0 1 12 22.982 10.982 10.982 0 0 1 1.018 12 10.982 10.982 0 0 1 12 1.018 10.982 10.982 0 0 1 22.982 12z" color="#000" overflow="visible" fill="url(#d)" fill-rule="evenodd" stroke-width="2" stroke-linecap="square" stroke-dashoffset=".85"/></clipPath><radialGradient xlink:href="#a" id="d" gradientUnits="userSpaceOnUse" gradientTransform="matrix(1.29966 -1.0166 .98508 1.25934 -12.53 5.665)" cx="6.393" cy="15.165" fx="6.393" fy="15.165" r="11.932"/><clipPath id="k"><circle style="isolation:auto;mix-blend-mode:normal" cx="11.988" cy="12.012" r="11.037" color="#000" overflow="visible" fill="red" stroke-opacity=".428"/></clipPath><clipPath id="j"><circle style="isolation:auto;mix-blend-mode:normal" cx="11.988" cy="12.012" r="11.037" color="#000" overflow="visible" fill="red" stroke-opacity=".428"/></clipPath></defs><g color="#000" fill-rule="evenodd"><path d="M23.932 12A11.932 11.932 0 0 1 12 23.932 11.932 11.932 0 0 1 .068 12 11.932 11.932 0 0 1 12 .068 11.932 11.932 0 0 1 23.932 12z" style="isolation:auto;mix-blend-mode:normal" overflow="visible" fill="url(#e)"/><path d="M12.047.006C5.437.006.067 5.374.067 11.984c0 6.61 5.37 11.98 11.98 11.98s11.978-5.37 11.978-11.98S18.657.006 12.047.006zm0 .963c6.09 0 11.015 4.925 11.015 11.014 0 6.09-4.926 11.016-11.015 11.016A11.008 11.008 0 0 1 1.03 11.984C1.03 5.894 5.958.97 12.048.97z" style="line-height:normal;text-indent:0;text-align:start;text-decoration-line:none;text-decoration-style:solid;text-decoration-color:#000;text-transform:none;block-progression:tb;isolation:auto;mix-blend-mode:normal" font-weight="400" font-family="sans-serif" white-space="normal" overflow="visible" opacity=".096" fill="url(#f)"/></g><path style="isolation:auto;mix-blend-mode:normal" d="M23.932 12A11.932 11.932 0 0 1 12 23.932 11.932 11.932 0 0 1 .068 12 11.932 11.932 0 0 1 12 .068 11.932 11.932 0 0 1 23.932 12z" color="#000" overflow="visible" fill="url(#g)" fill-rule="evenodd"/><path d="M.016 18.08l24-17.8.062 23.814-24.094-.08z" clip-path="url(#h)" fill="#205abb" fill-rule="evenodd"/><path d="M0 19.856l24-12.45.063 16.657-24.094-.057z" clip-path="url(#i)" fill="#174186" fill-rule="evenodd"/><path d="M9.16 22.652a8.208 8.208 0 0 1-.03-.823 194.7 194.7 0 0 1 2.576-.635c1.41-.342 2.564-.623 2.567-.625.002-.002.046-.32.098-.704.052-.386.096-.708.1-.716 0-.008.73-.233 1.618-.5l1.616-.486.197-.605.2-.605-.694-1.564c-.38-.86-.693-1.57-.694-1.58 0-.01.328-.94.73-2.068l.73-2.048.81-.34c.445-.187.818-.348.83-.357.014-.01.206-.846.508-2.212.267-1.207.49-2.206.497-2.22.01-.023.102-.005.793.157.43.1.8.188.824.194l.043.01.812 6.824-.047 2.066-.73 2.43-1.412 2.553-3.654 3.468-.056.084a.828.828 0 0 1-.316.276l-.104.05-6.213.505-1.59-.496-.006-.035z" clip-path="url(#j)" fill="#ccc"/><path d="M7.2 5.895c-.43-.056-.81-.27-1.074-.602a1.635 1.635 0 0 1-.333-1.198c.147-1.088 1.31-1.717 2.29-1.24.27.13.48.317.643.567A1.605 1.605 0 0 1 7.2 5.895zm5.01 3.833c.072-.053.125-.1.118-.105a1.59 1.59 0 0 0-.137-.042.872.872 0 0 1-.367-.19 15.655 15.655 0 0 0-.873-.644c-.003.004 0 .015.01.026.01.01.165.284.347.606l.37.652.038.066.183-.135.313-.232zm-1.418 2.49c.88-.36 1.606-.662 1.612-.667a1.56 1.56 0 0 0-.096-.266c-.085-.205-.113-.258-.136-.257-.028.002-3.19 1.3-3.21 1.317-.006.006.033.115.087.244.052.13.1.247.107.262.005.015.015.027.022.027.005 0 .73-.296 1.612-.658zm-2.654 9.36a1.083 1.083 0 0 1-.854-.812 1.28 1.28 0 0 1 .028-.586c.02-.06.417-.92.88-1.914l.84-1.804.012-.187c.054-.83.058-2.558.008-3.08-.04-.422-.122-.883-.166-.935a.217.217 0 0 1-.023-.088c-.007-.083-.16-.536-.297-.882-.117-.296-.34-.798-.685-1.542-.61-1.316-.794-1.853-.816-2.37-.013-.303.013-.412.135-.574.16-.216.495-.51.822-.726.6-.396 1.18-.62 1.604-.62.286 0 .658.127.957.328.133.09.164.12 1.47 1.402.473.466.865.847.87.847.006 0 .26.074.565.164.306.09.564.158.574.152.01-.006 1.35-.998 2.976-2.204C18.665 4.94 20 3.96 20.008 3.968c.062.072.328.447.323.456-.003.006-1.258.94-2.787 2.072a475.143 475.143 0 0 0-2.782 2.07c0 .005.178.06.395.124.217.063.435.136.486.162a.857.857 0 0 1 .403.475c.03.084.037.14.037.27a.72.72 0 0 1-.093.398l-.035.063.598 3.32c.33 1.824.595 3.322.59 3.326a8.28 8.28 0 0 1-.56.105c-.004-.004-1.148-6.36-1.148-6.37 0-.004-.08-.008-.176-.01a.877.877 0 0 1-.33-.048l-.156-.048-.993.53-1.105.594-.112.06-.136-.252c-.125-.23-.134-.254-.11-.272.015-.01.392-.215.838-.454.446-.238.81-.436.806-.438-.017-.017-.91-.267-.923-.26-.03.02-.985.728-1.007.748-.018.017.046.14.41.783l.433.764 1.246.552c.685.302 1.296.58 1.357.62.206.125.384.35.458.583.02.056.16.897.316 1.89.245 1.555.28 1.804.273 1.908a.962.962 0 0 1-.115.42.8.8 0 0 1-.198.274 1.052 1.052 0 0 1-1.236.204c-.238-.12-.432-.33-.52-.57-.028-.07-.1-.497-.267-1.568l-.228-1.47-1.39-.607c-.764-.333-1.392-.605-1.395-.605-.003 0-.004.697-.002 1.55.005 1.44.003 1.558-.022 1.652-.04.147-1.87 4.06-1.956 4.18a1.08 1.08 0 0 1-1.052.427z" clip-path="url(#k)" fill="#fff"/></svg>