<svg xmlns="http://www.w3.org/2000/svg" xmlns:xlink="http://www.w3.org/1999/xlink" width="24" height="24" viewBox="0 0 24 24"><defs><radialGradient xlink:href="#a" id="c" cx="6.393" cy="15.165" fx="6.393" fy="15.165" r="11.932" gradientUnits="userSpaceOnUse" gradientTransform="matrix(1.4121 -1.10457 1.0703 1.3683 -14.652 5.117)"/><linearGradient id="a"><stop offset="0" stop-color="#1f58b6"/><stop offset="1" stop-color="#7aa4e8"/></linearGradient><linearGradient xlink:href="#b" id="d" x1="4.943" y1="20.047" x2="30.151" y2="-6.266" gradientUnits="userSpaceOnUse"/><linearGradient id="b"><stop offset="0"/><stop offset="1" stop-opacity="0"/></linearGradient></defs><circle style="isolation:auto;mix-blend-mode:normal" cx="12" cy="12" r="11.932" color="#000" overflow="visible" fill="#4f86e1" fill-rule="evenodd"/><g transform="translate(0 -1028.362)"><g color="#000" fill-rule="evenodd"><path d="M23.932 12A11.932 11.932 0 0 1 12 23.932 11.932 11.932 0 0 1 .068 12 11.932 11.932 0 0 1 12 .068 11.932 11.932 0 0 1 23.932 12z" style="isolation:auto;mix-blend-mode:normal" overflow="visible" fill="url(#c)" transform="translate(-.046 1028.378)"/><path d="M12.047.006C5.437.006.067 5.374.067 11.984c0 6.61 5.37 11.98 11.98 11.98s11.978-5.37 11.978-11.98S18.657.006 12.047.006zm0 .963c6.09 0 11.015 4.925 11.015 11.014 0 6.09-4.926 11.016-11.015 11.016A11.008 11.008 0 0 1 1.03 11.984C1.03 5.894 5.958.97 12.048.97z" style="line-height:normal;text-indent:0;text-align:start;text-decoration-line:none;text-decoration-style:solid;text-decoration-color:#000;text-transform:none;block-progression:tb;isolation:auto;mix-blend-mode:normal" font-weight="400" font-family="sans-serif" white-space="normal" overflow="visible" opacity=".096" fill="url(#d)" transform="translate(-.046 1028.378)"/></g><path d="M10.528 1048.795c-3.994-.556-7.335-2.76-9.402-6.203l-.494-.823.494-.823c1.892-3.152 4.853-5.27 8.45-6.043 1.298-.28 3.63-.28 4.927 0 3.598.774 6.56 2.89 8.45 6.043l.495.822-.494.822c-1.883 3.137-4.88 5.287-8.406 6.028-.99.21-3.117.3-4.02.175zm2.897-2.14c1.52-.21 3.114-.812 4.368-1.647.885-.59 2.303-1.958 2.825-2.727l.347-.51-.348-.505c-.53-.77-1.54-1.8-2.345-2.39-.4-.29-.758-.542-.8-.556-.04-.015.002.285.094.666.31 1.292.162 2.478-.467 3.762-.295.6-.52.902-1.092 1.468-1.17 1.154-2.354 1.645-3.968 1.645-1.614 0-2.8-.49-3.968-1.644-.573-.566-.797-.867-1.09-1.468-.63-1.284-.777-2.47-.468-3.762.092-.38.133-.68.093-.667-.04.013-.4.264-.8.556-.804.59-1.813 1.618-2.344 2.39l-.348.503.347.51c.522.77 1.94 2.14 2.825 2.728 1.208.804 2.863 1.44 4.285 1.644.775.112 2.063.113 2.853 0zm-2.366-5.377c.217-.147.517-.464.666-.704.234-.38.27-.52.27-1.073 0-.552-.036-.692-.27-1.072a2.762 2.762 0 0 0-.667-.704c-.366-.247-.46-.27-1.155-.27-.694 0-.79.023-1.153.27a2.134 2.134 0 0 0 .175 3.662c.34.184.498.212 1.067.188.57-.024.726-.067 1.065-.296z" fill="#133671"/><path d="M10.425 1047.26c-3.994-.558-7.335-2.762-9.4-6.204l-.495-.823.494-.823c1.892-3.152 4.852-5.268 8.45-6.042 1.298-.28 3.63-.28 4.926 0 3.6.774 6.56 2.89 8.45 6.042l.495.823-.494.823c-1.882 3.137-4.88 5.287-8.404 6.028-.99.208-3.117.3-4.02.175zm2.897-2.14c1.522-.213 3.114-.813 4.37-1.648.884-.59 2.302-1.96 2.823-2.728l.347-.51-.347-.506c-.53-.77-1.54-1.8-2.346-2.39-.4-.29-.76-.54-.8-.556-.04-.014.002.286.093.668.31 1.29.162 2.477-.466 3.76-.294.602-.52.904-1.092 1.47-1.168 1.153-2.353 1.645-3.968 1.645-1.614 0-2.8-.492-3.967-1.646-.573-.566-.798-.868-1.092-1.47-.628-1.283-.775-2.47-.466-3.76.09-.382.133-.682.092-.668-.04.014-.4.265-.798.557-.805.59-1.815 1.617-2.346 2.388l-.347.505.347.51c.52.77 1.94 2.14 2.824 2.73 1.208.803 2.863 1.438 4.286 1.643.774.11 2.063.113 2.852 0zm-2.366-5.378c.22-.147.52-.464.667-.704.235-.38.27-.52.27-1.073 0-.554-.035-.694-.27-1.073a2.762 2.762 0 0 0-.667-.705c-.365-.246-.46-.268-1.153-.268-.694 0-.79.02-1.154.267a2.134 2.134 0 0 0 .174 3.662c.342.183.498.21 1.068.187.568-.024.725-.067 1.064-.295z" fill="#fff"/><path style="isolation:auto;mix-blend-mode:normal" d="M17.844 1039.143c0 2.9-2.617 5.25-5.844 5.25-3.227 0-5.662-2.615-5.844-5.25-.06-.86-.186-1.94.604-2.543.41-.313 3.067-1.207 5.146-1.207 2.24 0 4.892.84 5.373 1.313.604.598.564 1.55.564 2.437z" color="#000" overflow="visible" fill="#fc0"/><path style="isolation:auto;mix-blend-mode:normal" d="M16.05 1038.632c0 2.22-1.827 4.018-4.08 4.018-2.256 0-4.083-1.8-4.083-4.018 0-.79.408-1.71.912-2.222.492-.502 1.65-1.004 3.103-1.004 1.565 0 2.92.278 3.468.99.527.683.68 1.557.68 2.236z" color="#000" overflow="visible" fill="#333"/><circle style="isolation:auto;mix-blend-mode:normal" cx="10.659" cy="1038.779" r="1.594" color="#000" overflow="visible" fill="#fff"/></g></svg>