<svg xmlns="http://www.w3.org/2000/svg" xmlns:xlink="http://www.w3.org/1999/xlink" width="24" height="24" viewBox="0 0 24 24"><defs><linearGradient id="a"><stop offset="0" stop-color="#177217" stop-opacity=".996"/><stop offset="1" stop-color="#4eab46" stop-opacity=".996"/></linearGradient><linearGradient id="b"><stop offset="0"/><stop offset="1" stop-opacity="0"/></linearGradient><linearGradient id="d"><stop offset="0" stop-color="#1f58b6"/><stop offset="1" stop-color="#7aa4e8"/></linearGradient><radialGradient xlink:href="#a" id="f" cx="6.393" cy="15.165" fx="6.393" fy="15.165" r="11.932" gradientUnits="userSpaceOnUse" gradientTransform="matrix(1.4121 -1.10457 1.0703 1.3683 -14.652 5.117)"/><linearGradient xlink:href="#b" id="g" x1="4.943" y1="20.047" x2="30.151" y2="-6.266" gradientUnits="userSpaceOnUse"/><radialGradient xlink:href="#d" id="c" gradientUnits="userSpaceOnUse" gradientTransform="matrix(1.4121 -1.10457 1.0703 1.3683 -14.652 5.117)" cx="6.393" cy="15.165" fx="6.393" fy="15.165" r="11.932"/><radialGradient xlink:href="#d" id="e" gradientUnits="userSpaceOnUse" gradientTransform="matrix(1.4121 -1.10457 1.0703 1.3683 -14.652 5.117)" cx="6.393" cy="15.165" fx="6.393" fy="15.165" r="11.932"/><clipPath id="h"><circle r="11.026" cy="1040.362" cx="12" style="isolation:auto;mix-blend-mode:normal" color="#000" overflow="visible" fill="#ac9393" stroke-opacity=".428"/></clipPath></defs><g color="#000" fill-rule="evenodd"><path d="M23.932 12A11.932 11.932 0 0 1 12 23.932 11.932 11.932 0 0 1 .068 12 11.932 11.932 0 0 1 12 .068 11.932 11.932 0 0 1 23.932 12z" style="isolation:auto;mix-blend-mode:normal" overflow="visible" fill="url(#f)"/><path d="M12.047.006C5.437.006.067 5.374.067 11.984c0 6.61 5.37 11.98 11.98 11.98s11.978-5.37 11.978-11.98S18.657.006 12.047.006zm0 .963c6.09 0 11.015 4.925 11.015 11.014 0 6.09-4.926 11.016-11.015 11.016A11.008 11.008 0 0 1 1.03 11.984C1.03 5.894 5.958.97 12.048.97z" style="line-height:normal;text-indent:0;text-align:start;text-decoration-line:none;text-decoration-style:solid;text-decoration-color:#000;text-transform:none;block-progression:tb;isolation:auto;mix-blend-mode:normal" font-weight="400" font-family="sans-serif" white-space="normal" overflow="visible" opacity=".096" fill="url(#g)"/></g><path transform="translate(.025 -1028.4)" style="isolation:auto;mix-blend-mode:normal" clip-path="url(#h)" color="#000" overflow="visible" fill="#250" d="M2.906 1047.612h18.438v4.75H2.906z"/><path d="M11.64 21.11c.283-.122.57-.532.57-.814 0-.1-.214-1.136-.477-2.3-.263-1.166-.466-2.163-.452-2.218.015-.054.54-.6 1.17-1.216l1.143-1.118 1.05 1.18c.58.65 1.162 1.24 1.297 1.315.217.118.54.133 2.764.133 2.5 0 2.52 0 2.77-.18.537-.383.51-1.19-.05-1.57-.257-.172-.32-.178-2.17-.178H17.35l-2.55-2.96c-1.402-1.63-2.56-2.992-2.576-3.03-.014-.038.275-.07.642-.07h.667l1.152 1.335c.633.734 1.244 1.407 1.356 1.495.223.175.577.21.82.08.23-.124.406-.523.347-.79-.045-.204-2.586-3.237-2.944-3.514-.09-.07-.718-.096-2.322-.097H9.744l-1.31 1.3-1.308 1.302-.94-.953c-.94-.955-1.226-1.176-1.52-1.176-.47 0-.877.518-.745.948.09.296 2.47 2.774 2.824 2.943.476.225.694.12 1.548-.752.42-.428.793-.78.83-.78.078 0 2.224 2.487 2.224 2.578 0 .034-.463.522-1.03 1.084-1.062 1.056-1.252 1.306-1.252 1.646 0 .338 1.273 5.894 1.392 6.076.125.19.56.422.784.417.08 0 .26-.053.4-.113zM8.905 6.818c.688-.274 1.063-1.254.76-1.98-.196-.468-.88-.92-1.39-.92-.754 0-1.488.735-1.493 1.498-.003.447.352 1.067.74 1.295.36.21 1 .26 1.383.107z" fill="#250"/><path d="M11.356 20.032c.284-.123.572-.533.572-.814 0-.1-.215-1.137-.478-2.302s-.466-2.162-.452-2.216c.014-.054.54-.602 1.168-1.217l1.144-1.118 1.05 1.18c.58.65 1.163 1.242 1.297 1.315.217.12.54.135 2.764.135 2.502 0 2.52 0 2.772-.18.536-.384.51-1.192-.05-1.57-.258-.173-.322-.178-2.17-.178h-1.906l-2.55-2.96c-1.4-1.63-2.56-2.993-2.575-3.03-.013-.04.276-.07.643-.07h.667l1.152 1.334c.633.735 1.244 1.408 1.356 1.496.222.175.576.21.818.08.23-.123.407-.523.348-.79-.045-.204-2.586-3.236-2.944-3.513-.09-.07-.718-.097-2.322-.098H9.46l-1.31 1.3-1.308 1.3-.94-.952c-.94-.954-1.226-1.176-1.52-1.176-.47 0-.877.518-.745.948.09.296 2.47 2.775 2.824 2.943.477.226.695.12 1.55-.752.42-.428.792-.778.83-.778.077 0 2.223 2.485 2.223 2.576 0 .034-.463.522-1.03 1.084-1.062 1.056-1.252 1.307-1.252 1.646 0 .34 1.274 5.895 1.393 6.077.125.19.56.423.784.42.08 0 .26-.054.4-.115zM8.623 5.74c.688-.276 1.063-1.256.76-1.983-.196-.467-.88-.92-1.39-.92-.754 0-1.488.737-1.493 1.5-.003.446.352 1.066.74 1.294.36.212 1 .26 1.383.11z" fill="#fff"/></svg>