<svg xmlns="http://www.w3.org/2000/svg" xmlns:xlink="http://www.w3.org/1999/xlink" width="24" height="24" viewBox="0 0 24 24"><defs><linearGradient id="b"><stop offset="0" stop-color="#1f58b6"/><stop offset="1" stop-color="#7aa4e8"/></linearGradient><radialGradient xlink:href="#b" id="a" gradientUnits="userSpaceOnUse" gradientTransform="matrix(1.4121 -1.10457 1.0703 1.3683 -14.652 5.117)" cx="6.393" cy="15.165" fx="6.393" fy="15.165" r="11.932"/><radialGradient xlink:href="#b" id="c" gradientUnits="userSpaceOnUse" gradientTransform="matrix(1.4121 -1.10457 1.0703 1.3683 -14.652 5.117)" cx="6.393" cy="15.165" fx="6.393" fy="15.165" r="11.932"/></defs><path style="isolation:auto;mix-blend-mode:normal" color="#000" overflow="visible" fill="#004784" d="M0 0h24v24H0z"/><path d="M-.016 12V5.93h24.032v12.14H-.016V12z" fill="#fbeb00"/><path d="M-.01 13.642c.004-2.435.03-4.372.055-4.303.026.068.073.142.105.165.033.023.517 1.418 1.077 3.1l1.017 3.057 1.5-.022 1.498-.023.477-1.372c.294-.846.52-1.372.587-1.372.062 0 .154.17.21.383.668 2.623 4.382 3.562 6.545 1.655a3.62 3.62 0 0 0 .612-.718c.12-.203.26-.356.31-.34.06.02.11.363.136.9l.042.865 1.272.023 1.272.023.16.376c.09.206.266.51.392.677.288.378 1.11.915 1.58 1.034.195.05.355.12.355.158 0 .037.084.084.187.104.103.02-4.22.04-9.604.047l-9.792.01.007-4.428zm21.406 4.367a.5.5 0 0 0 .208-.095c.023-.03.26-.156.526-.283.54-.257 1.21-.843 1.487-1.3.1-.164.207-.318.236-.34a.464.464 0 0 0 .102-.167c.026-.068.05.41.054 1.06l.006 1.185-1.393-.01c-.766-.005-1.318-.028-1.227-.05zm-1.36-1.657c-.27-.137-.593-.545-.593-.75 0-.06.22-.12.56-.155.31-.032.766-.128 1.016-.214.612-.212.667-.203.667.1 0 .343-.216.783-.463.945-.314.205-.863.24-1.19.073zm-3.2-.75c-.03-.03-.055-.423-.055-.873 0-.94.083-1.027.457-.487.35.503.752.772 1.732 1.158.446.177.14.26-.974.26-.607 0-1.13-.026-1.16-.057zm-7.045-1.827c-.618-.385-.846-1.39-.477-2.108.217-.42.647-.75.982-.75.838 0 1.426 1.288 1.008 2.208-.315.693-.98.98-1.512.65zm10.233-.05c-.83-.564-.814-2.132.026-2.644.772-.47 1.666.242 1.665 1.328-.002 1.135-.914 1.844-1.692 1.315zM3.568 12.31c-.04-.103-.36-1.235-.716-2.516-.354-1.28-.668-2.354-.696-2.385-.028-.03-.46-.003-.963.063-.5.066-.978.1-1.06.073-.13-.04-.15-.15-.15-.832V5.93h24.033V9.5l-.312.082c-.172.046-.625.125-1.008.176L22 9.85l-.596-.302c-1.58-.8-3.46-.24-4.238 1.268-.077.148-.195.27-.262.27-.104 0-.123-.273-.123-1.825 0-1.003-.028-1.842-.064-1.864-.066-.04-2.294.245-2.492.32-.078.028-.104.455-.104 1.74 0 1.225-.027 1.72-.098 1.764-.057.035-.137-.003-.187-.09a4.03 4.03 0 0 0-2.088-1.725c-.65-.24-2.088-.264-2.786-.048-.38.118-1.075.518-1.627.935-.263.2-.204-.148.25-1.46.27-.777.474-1.426.457-1.444-.056-.056-2.69.303-2.734.373-.023.038-.356 1.12-.74 2.403-.696 2.333-.824 2.608-.998 2.15z" fill="#9db12c"/><path d="M-.01 13.684l.004-4.387.87 2.537 1.096 3.2.228.666 1.49.023c.974.015 1.522-.008 1.58-.066.05-.048.28-.637.516-1.308.234-.672.462-1.232.506-1.247.043-.015.122.115.174.288.35 1.15 1.357 2.083 2.67 2.47.588.17 1.755.17 2.34 0 .96-.283 1.964-1 2.294-1.637.072-.14.158-.215.2-.174.04.04.083.427.097.86l.024.79 1.28.042 1.283.042.234.45c.42.814 1.097 1.344 2.145 1.68.448.143.177.147-9.288.152l-9.75.004.005-4.386zM21.77 17.9c.48-.172 1.18-.614 1.477-.932.096-.103.31-.41.472-.68l.296-.495v2.277l-1.35-.003-1.353-.003.458-.164zm-1.628-1.61c-.29-.127-.655-.545-.557-.638.036-.033.34-.103.675-.154.336-.05.743-.148.904-.215.4-.168.44-.158.44.106 0 .335-.295.76-.622.897-.35.146-.507.147-.84.002zm-3.222-.77c-.065-.065-.076-1.44-.012-1.44.024 0 .258.217.52.485.274.28.66.57.913.685.24.11.437.228.437.263 0 .077-1.78.084-1.857.007zm-7.008-1.772c-.67-.27-.903-1.51-.42-2.24.456-.69 1.286-.613 1.694.158.578 1.093-.275 2.486-1.274 2.082zm10.116-.136c-.372-.313-.53-.67-.53-1.196 0-.53.158-.884.54-1.205.223-.186.325-.218.594-.182.61.082 1.01.68.99 1.486-.015.695-.514 1.315-1.057 1.315a.856.856 0 0 1-.537-.218zM3.576 12.068l-.68-2.438c-.33-1.19-.646-2.21-.7-2.266-.078-.084-.287-.08-1.046.02-.52.07-.997.126-1.057.126-.082 0-.11-.193-.11-.79v-.79h24.033v3.553l-1.037.14-1.038.138-.314-.207c-.465-.307-1.28-.49-1.98-.445a3.09 3.09 0 0 0-2.427 1.443c-.126.203-.26.37-.293.37-.034 0-.062-.803-.062-1.784 0-.98-.034-1.804-.075-1.83-.077-.046-2.57.268-2.687.34-.036.022-.066.805-.066 1.74 0 .977-.032 1.7-.076 1.7-.04 0-.153-.126-.248-.28-.255-.412-.924-1.007-1.41-1.253-1.473-.747-3.49-.57-4.655.412-.144.12-.295.207-.335.192-.04-.015.136-.653.392-1.416.257-.762.444-1.41.416-1.438-.068-.068-2.752.285-2.844.374-.04.038-.38 1.09-.753 2.337-.375 1.247-.724 2.28-.775 2.3-.052.016-.13-.094-.172-.245z" fill="#638c4a"/><path d="M-.007 13.684C0 10.588.026 9.384.085 9.59c.272.942 1.934 5.892 2.03 6.048.115.183.153.187 1.592.186.81 0 1.52-.03 1.58-.068.056-.036.267-.55.468-1.142.2-.592.39-1.14.424-1.22.068-.17.207-.197.207-.043 0 .058.108.332.24.61.45.952 1.584 1.797 2.732 2.036.673.14 1.86.06 2.452-.167.686-.262 1.413-.776 1.78-1.26l.32-.42.025.73c.013.4.065.777.114.837.067.08.412.108 1.318.108h1.228l.218.447c.36.733 1.477 1.62 2.064 1.638.105.003.265.038.356.077.095.04-4.048.074-9.542.077l-9.708.006.01-4.386zm21.694 4.29c.834-.23 1.795-1.007 2.142-1.733l.178-.373.004 1.1.004 1.103-1.31-.008c-.997-.007-1.24-.028-1.02-.09zm-1.547-1.727a1.185 1.185 0 0 1-.36-.308c-.17-.22-.173-.237-.03-.293.082-.033.284-.062.448-.066.165-.002.517-.08.783-.17.268-.092.502-.15.523-.13.093.093-.086.62-.27.79-.22.21-.8.303-1.093.177zm-3.192-1.378c0-.344.018-.625.04-.625.024 0 .182.154.353.342.17.19.507.454.75.59.24.137.438.263.438.282 0 .017-.356.032-.79.032h-.79v-.623zm-7.17-1.288c-.855-.67-.472-2.497.52-2.497.52 0 .995.65.995 1.36 0 .444-.233.973-.516 1.17-.26.182-.748.166-1-.033zm10.298-.01c-.653-.513-.7-1.606-.094-2.21.665-.667 1.566-.06 1.566 1.054 0 .75-.428 1.33-.983 1.33a.928.928 0 0 1-.49-.173zM3.063 9.985c-.335-1.2-.64-2.3-.68-2.445-.04-.145-.125-.283-.187-.307-.112-.043-1.783.152-2.064.24-.135.044-.148-.023-.148-.748V5.93h24.032v1.796c0 1.483-.02 1.79-.113 1.754-.063-.024-.516.012-1.01.08L22 9.684l-.468-.248c-1.314-.698-2.85-.507-3.835.476-.258.257-.53.56-.604.674-.13.197-.137.112-.14-1.507-.004-1.284-.032-1.738-.11-1.804-.125-.103-2.613.198-2.785.336-.077.062-.104.51-.104 1.706v1.62l-.55-.592c-.824-.89-1.878-1.34-3.134-1.338-.92.002-1.865.302-2.537.806-.152.114-.297.186-.323.16-.026-.026.154-.627.4-1.336.308-.89.42-1.315.36-1.375-.11-.11-2.776.223-2.93.367-.093.087-.356.91-1.27 3.975-.092.31-.197.56-.233.56-.036 0-.34-.98-.674-2.18z" fill="#23616e"/><path d="M-.01 13.725c.003-2.502.036-4.274.077-4.178.04.09.074.26.078.374.01.34 1.842 5.77 1.985 5.884.16.127 2.94.148 3.17.024.095-.05.297-.508.553-1.252l.403-1.172.247.525c.628 1.33 2.153 2.228 3.792 2.228 1.203 0 2.227-.41 3.054-1.217l.52-.51v.654c0 .56.024.664.162.738.09.048.69.086 1.35.087h1.19l.157.378c.297.723 1.4 1.606 2.024 1.622a1.3 1.3 0 0 1 .397.077c.095.04-4.03.074-9.5.077l-9.666.006.006-4.345zm21.656 4.262c.09-.04.256-.074.367-.077.47-.014 1.835-1.212 1.838-1.613 0-.1.038-.237.083-.306.054-.083.08.236.082.978v1.102l-1.267-.006c-.786-.003-1.205-.033-1.102-.077zm-1.607-1.915c-.153-.093-.262-.214-.244-.27.02-.056.26-.127.534-.158.275-.03.637-.113.804-.182.343-.144.387-.075.205.324-.204.444-.82.58-1.3.286zm-3.007-1.182l.002-.52.227.26c.124.145.39.38.592.52l.366.26H17.03l.003-.52zm-7.207-1.374c-.6-.484-.592-1.69.013-2.167.796-.628 1.708.594 1.254 1.68-.247.594-.85.824-1.268.486zm10.2-.09c-.422-.42-.51-1.18-.203-1.77.33-.64 1.07-.642 1.465-.004.22.358.24 1.097.04 1.486-.297.57-.89.702-1.303.29zm-16.33-1.51c-.026-.068-.328-1.132-.673-2.365C2.68 8.32 2.35 7.26 2.29 7.203c-.09-.09-.288-.085-1.103.022-.547.07-1.007.165-1.023.208-.015.043-.062.078-.104.078-.042 0-.076-.356-.076-.79v-.79h24.032v1.755c0 1.47-.02 1.748-.117 1.71-.065-.024-.53.012-1.038.082-.89.122-.928.12-1.15-.038-.576-.408-1.765-.612-2.53-.434-.652.152-1.176.462-1.694 1.005l-.457.48V8.934c0-1.115-.03-1.598-.103-1.7-.098-.133-.18-.13-1.393.028-.71.094-1.373.206-1.476.25-.184.078-.187.1-.187 1.622v1.542l-.477-.483c-.885-.89-2.042-1.32-3.347-1.24-.858.052-1.382.206-2.027.594-.27.162-.5.294-.516.294-.015 0 .158-.526.384-1.17.418-1.187.474-1.443.333-1.53-.097-.06-2.823.28-3 .374-.08.042-.33.742-.647 1.8-.762 2.55-.827 2.743-.878 2.605z" fill="#004784"/><path style="isolation:auto;mix-blend-mode:normal" color="#000" overflow="visible" fill="#004784" d="M0 18.012h24v1.878H0z"/></svg>