<svg xmlns="http://www.w3.org/2000/svg" xmlns:xlink="http://www.w3.org/1999/xlink" width="24" height="24" viewBox="0 0 24 24"><defs><linearGradient id="f"><stop offset="0" stop-color="#909090"/><stop offset="1" stop-color="#e6e6e6"/></linearGradient><linearGradient id="a"><stop offset="0" stop-color="#7c05fc" stop-opacity=".996"/><stop offset="1" stop-color="#e244fe" stop-opacity=".996"/></linearGradient><linearGradient id="b"><stop offset="0"/><stop offset="1" stop-opacity="0"/></linearGradient><linearGradient id="d"><stop offset="0" stop-color="#1f58b6"/><stop offset="1" stop-color="#7aa4e8"/></linearGradient><radialGradient xlink:href="#a" id="g" cx="6.393" cy="15.165" fx="6.393" fy="15.165" r="11.932" gradientUnits="userSpaceOnUse" gradientTransform="matrix(1.4121 -1.10457 1.0703 1.3683 -14.652 5.117)"/><linearGradient xlink:href="#b" id="h" x1="4.943" y1="20.047" x2="30.151" y2="-6.266" gradientUnits="userSpaceOnUse"/><radialGradient xlink:href="#d" id="c" gradientUnits="userSpaceOnUse" gradientTransform="matrix(1.4121 -1.10457 1.0703 1.3683 -14.652 5.117)" cx="6.393" cy="15.165" fx="6.393" fy="15.165" r="11.932"/><radialGradient xlink:href="#d" id="e" gradientUnits="userSpaceOnUse" gradientTransform="matrix(1.4121 -1.10457 1.0703 1.3683 -14.652 5.117)" cx="6.393" cy="15.165" fx="6.393" fy="15.165" r="11.932"/><linearGradient xlink:href="#f" id="i" x1="7.9" y1="1042.345" x2="4.674" y2="1042.345" gradientUnits="userSpaceOnUse"/><linearGradient gradientTransform="matrix(-1 0 0 1 24.164 -.005)" xlink:href="#f" id="j" x1="7.9" y1="1042.345" x2="4.674" y2="1042.345" gradientUnits="userSpaceOnUse"/></defs><g color="#000" fill-rule="evenodd"><path d="M23.932 12A11.932 11.932 0 0 1 12 23.932 11.932 11.932 0 0 1 .068 12 11.932 11.932 0 0 1 12 .068 11.932 11.932 0 0 1 23.932 12z" style="isolation:auto;mix-blend-mode:normal" overflow="visible" fill="url(#g)"/><path d="M12.047.006C5.437.006.067 5.374.067 11.984c0 6.61 5.37 11.98 11.98 11.98s11.978-5.37 11.978-11.98S18.657.006 12.047.006zm0 .963c6.09 0 11.015 4.925 11.015 11.014 0 6.09-4.926 11.016-11.015 11.016A11.008 11.008 0 0 1 1.03 11.984C1.03 5.894 5.958.97 12.048.97z" style="line-height:normal;text-indent:0;text-align:start;text-decoration-line:none;text-decoration-style:solid;text-decoration-color:#000;text-transform:none;block-progression:tb;isolation:auto;mix-blend-mode:normal" font-weight="400" font-family="sans-serif" white-space="normal" overflow="visible" opacity=".096" fill="url(#h)"/></g><g fill="#405"><path d="M8.548 15.01c.047.048.093.103.152.19.7 1.042 1.567 1.837 2.286 2.096l.203.073v2.975h-.58c-.738 0-.95.068-1.294.413-.303.302-.413.58-.413 1.044v.33h6.194v-.33c0-.463-.11-.742-.413-1.044-.34-.34-.56-.413-1.252-.413h-.538v-2.98l.155-.046c.243-.074.81-.42 1.138-.695.354-.297.87-.906 1.17-1.378.21-.33.227-.345.525-.477.17-.075.536-.27.815-.432a9.343 9.343 0 0 0 3.644-3.865c.605-1.195.927-2.39.978-3.627l.024-.592h-3.628v-.791H6.368v.789H6.35l.08 1.032v.01l.03.335c.175 1.948.61 3.964 1.168 5.416.06.154.102.28.095.28 0 0-.02-.014-.024-.014l.342.402.506 1.3zm9.13-7.758h1.2c.765 0 1.21.015 1.228.042.014.023.004.26-.022.53-.208 2.116-1.434 4.02-3.37 5.24-.152.095-.286.174-.3.174-.014 0 .024-.127.083-.28.507-1.318.946-3.3 1.095-4.937.025-.274.054-.56.065-.633l.02-.135zM12.018 8c.205 0 .284.118.575.852l.28.707.727.054c.4.03.774.077.83.103.056.026.13.098.165.16.108.192.026.307-.588.824-.312.264-.58.49-.592.504-.014.014.05.33.143.704.194.79.203.907.073 1.026-.117.108-.234.14-.346.096a11.45 11.45 0 0 1-.678-.413c-.325-.208-.61-.378-.63-.378-.023 0-.313.168-.646.375-.667.414-.79.46-.953.355-.193-.127-.193-.205.004-.985.102-.397.184-.745.185-.772 0-.027-.25-.26-.556-.52-.687-.58-.756-.695-.552-.932.096-.11.11-.114.884-.17.432-.032.796-.07.81-.086.013-.016.14-.32.283-.673.273-.68.38-.83.584-.83z"/><path d="M8.548 15.01l-.506-1.302-.343-.402c-.08-.025-.735-.45-.99-.644-1.623-1.235-2.607-2.942-2.795-4.844-.028-.29-.033-.51-.01-.53.02-.022.588-.033 1.28-.027l1.245.012V7.28l-.08-1.03H2.655l.024.59c.05 1.23.368 2.414.97 3.617a9.467 9.467 0 0 0 3.233 3.624c.366.24 1.157.665 1.467.786.076.03.137.075.198.138z"/></g><path d="M8.614 14.022c.047.05.093.104.152.19.7 1.043 1.567 1.838 2.286 2.097l.203.072v2.976h-.58c-.737 0-.95.068-1.293.413-.302.303-.413.582-.413 1.045v.33h6.193v-.33c0-.463-.11-.742-.413-1.044-.34-.34-.56-.412-1.25-.412h-.54v-2.98l.156-.046c.243-.073.81-.42 1.138-.694.354-.297.87-.906 1.17-1.378.21-.33.227-.346.525-.477.168-.075.535-.27.814-.433a9.343 9.343 0 0 0 3.644-3.864c.605-1.195.928-2.39.978-3.627l.024-.593h-3.628v-.79H6.434v.79h-.02l.083 1.03v.01l.03.337c.174 1.947.608 3.963 1.167 5.414.06.155.102.28.096.28-.002 0-.022-.013-.025-.013l.343.402.506 1.3zm9.13-7.758h1.2c.765 0 1.212.015 1.228.042.014.023.004.262-.022.53-.208 2.116-1.434 4.022-3.37 5.24-.152.096-.286.174-.3.174-.014 0 .024-.126.083-.28.507-1.318.946-3.3 1.095-4.937.025-.274.054-.56.065-.634l.02-.136zm-5.66.75c.205 0 .284.117.575.85l.28.707.726.056c.4.03.774.077.83.104.057.026.13.098.165.16.11.192.027.307-.587.824-.312.263-.58.49-.592.503-.012.014.052.33.144.703.194.79.203.908.074 1.026-.12.11-.236.14-.348.096a11.45 11.45 0 0 1-.678-.412c-.325-.208-.61-.378-.63-.378-.023 0-.313.17-.646.376-.667.414-.79.46-.952.355-.194-.128-.194-.205.003-.985.1-.398.183-.745.184-.772 0-.027-.25-.262-.555-.52-.686-.58-.755-.695-.55-.932.095-.112.11-.115.883-.17.432-.033.796-.07.81-.087.013-.016.14-.32.283-.673.274-.68.38-.832.585-.832z" fill="#f9f9f9"/><path d="M8.604 1043.372l-.507-1.302-.342-.402c-.08-.025-.735-.45-.99-.643-1.623-1.236-2.607-2.943-2.794-4.845-.028-.29-.032-.51-.01-.53.02-.02.59-.032 1.28-.026l1.245.01.002.02v-.01l-.083-1.033H2.71l.025.593c.05 1.228.37 2.413.97 3.616a9.467 9.467 0 0 0 3.234 3.623c.364.24 1.156.664 1.465.785.077.03.137.075.2.14z" fill="url(#i)" transform="translate(.01 -1029.35)"/><path style="isolation:auto;mix-blend-mode:normal" color="#000" overflow="visible" fill="#b3b3b3" d="M11.29 16.387h1.636v2.983H11.29z"/><path style="isolation:auto;mix-blend-mode:normal" d="M14.362 12.774l-2.238-1.224-2.273 1.158.474-2.507L8.52 8.398l2.53-.326 1.16-2.27 1.09 2.305 2.52.4-1.856 1.75z" color="#000" overflow="visible" fill="#f60"/><path d="M15.56 1043.367l.507-1.302.343-.402c.08-.025.734-.45.99-.643 1.622-1.236 2.606-2.943 2.793-4.845.03-.29.034-.51.012-.53-.02-.02-.59-.032-1.282-.026l-1.244.01-.003.018v-.01l.083-1.032h3.693l-.024.592c-.05 1.228-.37 2.413-.97 3.616a9.467 9.467 0 0 1-3.234 3.624c-.366.24-1.157.664-1.467.785a.546.546 0 0 0-.2.14z" fill="url(#j)" transform="translate(.01 -1029.35)"/></svg>