<svg xmlns="http://www.w3.org/2000/svg" xmlns:xlink="http://www.w3.org/1999/xlink" width="24" height="24" viewBox="0 0 24 24"><defs><linearGradient id="a"><stop offset="0" stop-color="#e35f00" stop-opacity=".996"/><stop offset="1" stop-color="#ff950d" stop-opacity=".996"/></linearGradient><linearGradient id="b"><stop offset="0"/><stop offset="1" stop-opacity="0"/></linearGradient><linearGradient id="d"><stop offset="0" stop-color="#1f58b6"/><stop offset="1" stop-color="#7aa4e8"/></linearGradient><radialGradient xlink:href="#a" id="f" cx="6.393" cy="15.165" fx="6.393" fy="15.165" r="11.932" gradientUnits="userSpaceOnUse" gradientTransform="matrix(1.4121 -1.10457 1.0703 1.3683 -14.652 5.117)"/><linearGradient xlink:href="#b" id="g" x1="4.943" y1="20.047" x2="30.151" y2="-6.266" gradientUnits="userSpaceOnUse"/><radialGradient xlink:href="#d" id="c" gradientUnits="userSpaceOnUse" gradientTransform="matrix(1.4121 -1.10457 1.0703 1.3683 -14.652 5.117)" cx="6.393" cy="15.165" fx="6.393" fy="15.165" r="11.932"/><radialGradient xlink:href="#d" id="e" gradientUnits="userSpaceOnUse" gradientTransform="matrix(1.4121 -1.10457 1.0703 1.3683 -14.652 5.117)" cx="6.393" cy="15.165" fx="6.393" fy="15.165" r="11.932"/></defs><g color="#000" fill-rule="evenodd"><path d="M23.932 12A11.932 11.932 0 0 1 12 23.932 11.932 11.932 0 0 1 .068 12 11.932 11.932 0 0 1 12 .068 11.932 11.932 0 0 1 23.932 12z" style="isolation:auto;mix-blend-mode:normal" overflow="visible" fill="url(#f)"/><path d="M12.047.006C5.437.006.067 5.374.067 11.984c0 6.61 5.37 11.98 11.98 11.98s11.978-5.37 11.978-11.98S18.657.006 12.047.006zm0 .963c6.09 0 11.015 4.925 11.015 11.014 0 6.09-4.926 11.016-11.015 11.016A11.008 11.008 0 0 1 1.03 11.984C1.03 5.894 5.958.97 12.048.97z" style="line-height:normal;text-indent:0;text-align:start;text-decoration-line:none;text-decoration-style:solid;text-decoration-color:#000;text-transform:none;block-progression:tb;isolation:auto;mix-blend-mode:normal" font-weight="400" font-family="sans-serif" white-space="normal" overflow="visible" opacity=".096" fill="url(#g)"/></g><g color="#000"><g fill="#2b0000"><path style="isolation:auto;mix-blend-mode:normal" d="M12.444 3.162h1.295v19.75l-1.296.08z" overflow="visible"/><path style="isolation:auto;mix-blend-mode:normal" d="M8.515 4.452l9.524-.286v3.708l-9.525-.286L6.66 6.044zM17.654 14.66H8.13v3.707h9.524l1.854-1.825zM8.408 9.1l9.18.163v3.707l-9.18.35-1.853-2.078z" overflow="visible"/></g><path style="isolation:auto;mix-blend-mode:normal" d="M11.484 2.33h1.296v20.645h-1.296z" overflow="visible" fill="#ececec"/><path style="isolation:auto;mix-blend-mode:normal" d="M7.555 3.62l9.524-.287V7.04l-9.525-.285L5.7 5.21zM16.694 13.827H7.17v3.708h9.524l1.854-1.825z" overflow="visible" fill="#ffe88c"/><path style="isolation:auto;mix-blend-mode:normal" d="M7.45 8.267l9.523.256v3.708l-9.524.257-1.855-2.078z" overflow="visible" fill="#2ad4ff"/></g></svg>