<svg xmlns="http://www.w3.org/2000/svg" xmlns:xlink="http://www.w3.org/1999/xlink" width="24" height="24" viewBox="0 0 24 24"><defs><linearGradient id="b"><stop offset="0"/><stop offset="1" stop-opacity="0"/></linearGradient><linearGradient id="a"><stop offset="0" stop-color="#1f58b6"/><stop offset="1" stop-color="#7aa4e8"/></linearGradient><radialGradient xlink:href="#a" id="d" cx="6.393" cy="15.165" fx="6.393" fy="15.165" r="11.932" gradientUnits="userSpaceOnUse" gradientTransform="matrix(1.4121 -1.10457 1.0703 1.3683 -14.652 5.117)"/><linearGradient xlink:href="#b" id="e" x1="4.943" y1="20.047" x2="30.151" y2="-6.266" gradientUnits="userSpaceOnUse"/><radialGradient xlink:href="#a" id="c" gradientUnits="userSpaceOnUse" gradientTransform="matrix(1.4121 -1.10457 1.0703 1.3683 -14.652 5.117)" cx="6.393" cy="15.165" fx="6.393" fy="15.165" r="11.932"/><radialGradient xlink:href="#a" id="f" gradientUnits="userSpaceOnUse" gradientTransform="matrix(1.29966 -1.0166 .98508 1.25934 -12.53 5.665)" cx="6.393" cy="15.165" fx="6.393" fy="15.165" r="11.932"/><clipPath id="n"><circle r="11.037" cy="12" cx="12" style="isolation:auto;mix-blend-mode:normal" color="#000" overflow="visible" fill="red" stroke-opacity=".428"/></clipPath><clipPath id="m"><circle r="11.037" cy="1067.493" cx="7.317" style="isolation:auto;mix-blend-mode:normal" color="#000" overflow="visible" fill="red" stroke-opacity=".428"/></clipPath><clipPath id="l"><circle r="11.037" cy="1040.362" cx="12" style="isolation:auto;mix-blend-mode:normal" color="#000" overflow="visible" fill="red" stroke-opacity=".428"/></clipPath><clipPath id="k"><circle r="11.037" cy="1040.362" cx="12" style="isolation:auto;mix-blend-mode:normal" color="#000" overflow="visible" fill="red" stroke-opacity=".428"/></clipPath><clipPath id="j"><circle r="11.037" cy="1040.362" cx="12" style="isolation:auto;mix-blend-mode:normal" color="#000" overflow="visible" fill="red" stroke-opacity=".428"/></clipPath><clipPath id="i"><circle r="11.037" cy="1040.362" cx="12" style="isolation:auto;mix-blend-mode:normal" color="#000" overflow="visible" fill="red" stroke-opacity=".428"/></clipPath><clipPath id="h"><circle r="11.037" cy="1040.362" cx="12" style="isolation:auto;mix-blend-mode:normal" color="#000" overflow="visible" fill="red" stroke-opacity=".428"/></clipPath><clipPath id="g"><circle r="11.037" cy="1040.362" cx="12" style="isolation:auto;mix-blend-mode:normal" color="#000" overflow="visible" fill="red" stroke-opacity=".428"/></clipPath></defs><g color="#000" fill-rule="evenodd"><path style="isolation:auto;mix-blend-mode:normal" d="M23.932 12A11.932 11.932 0 0 1 12 23.932 11.932 11.932 0 0 1 .068 12 11.932 11.932 0 0 1 12 .068 11.932 11.932 0 0 1 23.932 12z" overflow="visible" fill="url(#c)"/><path d="M23.932 12A11.932 11.932 0 0 1 12 23.932 11.932 11.932 0 0 1 .068 12 11.932 11.932 0 0 1 12 .068 11.932 11.932 0 0 1 23.932 12z" style="isolation:auto;mix-blend-mode:normal" overflow="visible" fill="url(#d)"/><path d="M12.047.006C5.437.006.067 5.374.067 11.984c0 6.61 5.37 11.98 11.98 11.98s11.978-5.37 11.978-11.98S18.657.006 12.047.006zm0 .963c6.09 0 11.015 4.925 11.015 11.014 0 6.09-4.926 11.016-11.015 11.016A11.008 11.008 0 0 1 1.03 11.984C1.03 5.894 5.958.97 12.048.97z" style="line-height:normal;text-indent:0;text-align:start;text-decoration-line:none;text-decoration-style:solid;text-decoration-color:#000;text-transform:none;block-progression:tb;isolation:auto;mix-blend-mode:normal" font-weight="400" font-family="sans-serif" white-space="normal" overflow="visible" opacity=".096" fill="url(#e)"/><path d="M22.982 12A10.982 10.982 0 0 1 12 22.982 10.982 10.982 0 0 1 1.018 12 10.982 10.982 0 0 1 12 1.018 10.982 10.982 0 0 1 22.982 12z" style="isolation:auto;mix-blend-mode:normal" overflow="visible" fill="url(#f)"/></g><path d="M-2.723 1049.238c-.024-.097-.062-.975-.043-.99.01-.01 1.71-.06 3.592-.762l2.363-.883.136-.846.136-.86 1.884-1.706-.333-.96.64-.878-.127-1.702 1.065-1.172 2.235-2.35 1.02-2.462 1.127-.41 1.158-.427.708-2.66c.385-1.447 2.907-1.977 2.916-1.994.015-.027.142-.01 1.106.19.6.12 1.204.358 1.15.232l.06.013-1.09 7.527-.067 2.482-.506 3.274-1.683 3.288c-6.14 4.526-7.406 4.148-15.222 4.694l-2.215-.596-.01-.042z" clip-path="url(#g)" fill="#333" transform="translate(0 -1028.362)"/><path d="M-34.83 1066.065l24-17.8.06 23.813-24.093-.08z" clip-path="url(#h)" fill="#205abb" fill-rule="evenodd" transform="translate(0 -1028.362)"/><path d="M-34.847 1067.84l24-12.45.062 16.657-24.093-.056z" clip-path="url(#i)" fill="#174186" fill-rule="evenodd" transform="translate(0 -1028.362)"/><path d="M1.234 1050.448c-.023-.097-.06-.974-.043-.99.012-.01 1.627-.35 3.59-.76l3.575-.752c.003 0 .065-.383.136-.846.073-.464.134-.85.138-.86.003-.01 1.018-.28 2.256-.6l2.25-.586.276-.726.275-.726-.965-1.88a129.74 129.74 0 0 1-.967-1.9c0-.013.457-1.13 1.017-2.484l1.02-2.462 1.125-.408a45.21 45.21 0 0 0 1.157-.43c.02-.012.286-1.015.707-2.657.37-1.45.683-2.65.692-2.667.014-.027.14-.01 1.104.19l1.148.232.06.013 1.132 8.2-.066 2.482-.506 3.274-1.68 3.288c-6.134 4.526-7.4 4.148-15.207 4.694l-2.212-.596-.01-.042z" clip-path="url(#j)" fill="#666" transform="translate(0 -1028.362)"/><path d="M-12.086 1053.03s-6.96.81-11.04 5.588c-4.042 4.733-2.65 12.083-2.65 12.083" clip-path="url(#k)" opacity=".94" fill="#0cf" fill-rule="evenodd" transform="translate(0 -1028.362)"/><path d="M-11.987 1053.166s-5.9 1.695-9.715 6.48c-3.78 4.737-2.276 11.83-2.276 11.83" clip-path="url(#l)" opacity=".94" fill="#aef" fill-rule="evenodd" transform="translate(0 -1028.362)"/><g transform="rotate(-.907 -66681.503 234.487)" clip-path="url(#m)" fill-rule="evenodd"><path d="M8.68 1066.928s-.705-1.467.366-3.653c1.396-2.85 5.598-5.676 5.598-5.676s-6.81 2.666-8.904 5.47a8.92 8.92 0 0 0-1.098 1.9c-.648 1.552 1.87 3.28 1.87 3.28" fill="#01c4f8"/><path d="M3.584 1076.718s-.706-1.467.365-3.653c1.395-2.85 4.095-5.7 4.095-5.7s-5.307 2.69-7.402 5.496c-1.884 2.525-1.588 4.508-1.588 4.508" fill="#01c4f8"/><path d="M8.5 1067.934s.16-2.59 1.276-4.755c1.457-2.826 5.203-5.495 5.203-5.495s-6.06 2.382-8.082 5.128c-.482.654-.86 1.323-1.16 1.955-.826 1.754 1.816 3.798 1.816 3.798" fill="#a0ecff"/><path d="M4.2 1077.648s-.638-2.512.48-4.68c1.456-2.824 3.5-5.41 3.5-5.41s-4.357 2.3-6.38 5.045c-1.818 2.47-2.18 5.17-2.18 5.17" fill="#a0ecff"/><path d="M8.548 1067.945s.105-2.443 1.247-4.425c1.553-2.693 5.54-5.76 5.54-5.76s-5.23 2.178-7.2 4.814a10.367 10.367 0 0 0-1.3 2.294c-.552 1.353 1.33 3.302 1.33 3.302" fill="#feffff"/><path d="M4.492 1077.358s-.333-2.477.81-4.57c1.494-2.726 3.28-4.882 3.28-4.882s-3.574 1.823-5.545 4.458c-1.773 2.37-1.912 4.634-1.912 4.634" fill="#feffff"/></g><path clip-path="url(#n)" d="M19.844 1.693c-.01.017-.32 1.218-.692 2.668-.42 1.643-.688 2.647-.707 2.66a44 44 0 0 1-1.158.43l-1.125.407-1.02 2.46a186.03 186.03 0 0 0-1.015 2.486c0 .01.434.866.965 1.9l.967 1.88-.277.726-.275.725-1.38.36-.003-.02-1.92.525c-.458.122-1.203.316-1.205.32-.002.006-.044.28-.07.442l-.196.213-1.593.578-.566.926-1.422.298c-1.962.41-3.577.753-3.588.76-.018.016.02.892.043.992l.01.04 2.213.596c7.808-.546 9.072-.167 15.205-4.693l1.682-3.29.506-3.272.066-2.482-1.134-8.2-.058-.013-1.15-.232c-.962-.195-1.09-.217-1.104-.19z" fill="#ccc"/></svg>