<svg xmlns="http://www.w3.org/2000/svg" xmlns:xlink="http://www.w3.org/1999/xlink" width="24" height="24" viewBox="0 0 24 24"><defs><linearGradient id="e"><stop offset="0" stop-color="#fff"/><stop offset="1" stop-color="#b4b4b4"/></linearGradient><linearGradient id="b"><stop offset="0"/><stop offset="1" stop-opacity="0"/></linearGradient><linearGradient id="a"><stop offset="0" stop-color="#1f58b6"/><stop offset="1" stop-color="#7aa4e8"/></linearGradient><radialGradient xlink:href="#a" id="f" cx="6.393" cy="15.165" fx="6.393" fy="15.165" r="11.932" gradientUnits="userSpaceOnUse" gradientTransform="matrix(1.4121 -1.10457 1.0703 1.3683 -14.652 5.117)"/><linearGradient xlink:href="#b" id="g" x1="4.943" y1="20.047" x2="30.151" y2="-6.266" gradientUnits="userSpaceOnUse"/><radialGradient xlink:href="#a" id="c" gradientUnits="userSpaceOnUse" gradientTransform="matrix(1.4121 -1.10457 1.0703 1.3683 -14.652 5.117)" cx="6.393" cy="15.165" fx="6.393" fy="15.165" r="11.932"/><radialGradient xlink:href="#a" id="d" gradientUnits="userSpaceOnUse" gradientTransform="matrix(1.4121 -1.10457 1.0703 1.3683 -14.652 5.117)" cx="6.393" cy="15.165" fx="6.393" fy="15.165" r="11.932"/><linearGradient xlink:href="#e" id="h" x1="14.796" y1="1044.85" x2="10.102" y2="1030.35" gradientUnits="userSpaceOnUse" gradientTransform="translate(1.385 119.964) scale(.88465)"/></defs><g color="#000" fill-rule="evenodd"><path d="M23.932 12A11.932 11.932 0 0 1 12 23.932 11.932 11.932 0 0 1 .068 12 11.932 11.932 0 0 1 12 .068 11.932 11.932 0 0 1 23.932 12z" style="isolation:auto;mix-blend-mode:normal" overflow="visible" fill="url(#f)"/><path d="M12.047.006C5.437.006.067 5.374.067 11.984c0 6.61 5.37 11.98 11.98 11.98s11.978-5.37 11.978-11.98S18.657.006 12.047.006zm0 .963c6.09 0 11.015 4.925 11.015 11.014 0 6.09-4.926 11.016-11.015 11.016A11.008 11.008 0 0 1 1.03 11.984C1.03 5.894 5.958.97 12.048.97z" style="line-height:normal;text-indent:0;text-align:start;text-decoration-line:none;text-decoration-style:solid;text-decoration-color:#000;text-transform:none;block-progression:tb;isolation:auto;mix-blend-mode:normal" font-weight="400" font-family="sans-serif" white-space="normal" overflow="visible" opacity=".096" fill="url(#g)"/></g><g transform="translate(0 -1028.362)"><path d="M11.37 1045.907a6.986 6.986 0 0 1-3.438-1.338c-.373-.278-1.087-.992-1.365-1.365a6.83 6.83 0 0 1-.812-6.79c.338-.8.778-1.44 1.46-2.12.68-.682 1.32-1.122 2.122-1.46a6.83 6.83 0 0 1 6.788.81c.37.274 1.083.99 1.364 1.366a6.83 6.83 0 0 1 .614 7.208 6.856 6.856 0 0 1-5.073 3.643 8.726 8.726 0 0 1-1.66.047z" fill="#174186"/><path d="M5.743 1048.793a.748.748 0 0 1-.526-.564c-.1-.42.094-.688.97-1.334.535-.394 1.35-.828 2.054-1.094l.346-.13.23.125c.126.07.415.207.64.306 1.885.83 3.61.766 5.564-.21.177-.088.342-.16.366-.16.15 0 1.386.597 1.996.965.39.235.994.635 1.186.786.347.27.37.798.046 1.12-.155.156-.38.24-.55.206a8.77 8.77 0 0 1-.617-.214c-2.172-.82-4.112-1.062-6.71-.84-1.636.14-3.052.43-4.227.87-.473.18-.628.212-.767.167z" fill="#174186"/><path d="M5.727 1047.997a.748.748 0 0 1-.526-.564c-.1-.42.095-.688.972-1.334.535-.395 1.35-.83 2.053-1.095l.345-.13.23.125c.127.07.415.207.64.307 1.886.83 3.61.766 5.564-.21.177-.087.342-.16.366-.16.15 0 1.386.597 1.997.965.39.235.993.635 1.186.785.347.272.368.798.045 1.12-.155.156-.38.24-.55.207a8.268 8.268 0 0 1-.617-.214c-2.17-.82-4.11-1.062-6.708-.84-1.637.138-3.052.43-4.227.87-.474.178-.63.212-.768.167zm5.62-3.162a6.987 6.987 0 0 1-3.44-1.338c-.373-.277-1.087-.99-1.364-1.364a6.83 6.83 0 0 1-.813-6.79c.34-.8.78-1.44 1.46-2.12.68-.682 1.32-1.122 2.122-1.46a6.83 6.83 0 0 1 6.79.81c.368.275 1.082.99 1.363 1.367a6.83 6.83 0 0 1 .614 7.206 6.856 6.856 0 0 1-5.074 3.643 8.726 8.726 0 0 1-1.66.045zm1.55-2.176c1.327-.347 2.32-1.34 2.68-2.68.078-.285.086-.376.086-.892 0-.515-.01-.608-.084-.89a3.68 3.68 0 0 0-.976-1.71 3.64 3.64 0 0 0-2.6-1.08c-.984 0-1.9.38-2.6 1.08a3.64 3.64 0 0 0-1.08 2.6c0 .985.38 1.898 1.08 2.594a3.668 3.668 0 0 0 1.983 1.04c.377.07 1.113.04 1.51-.063zm-1.34-.99c-.328-.063-.447-.104-.785-.277-.237-.12-.356-.21-.595-.448-.436-.433-.653-.843-.756-1.434-.23-1.332.607-2.603 1.96-2.972.325-.09.956-.08 1.295.014.296.084.654.255.88.42.28.207.6.583.763.898.223.432.29.717.29 1.218 0 .5-.066.783-.293 1.224-.127.25-.212.36-.47.617-.256.256-.368.34-.616.47a3.293 3.293 0 0 1-.56.22 2.95 2.95 0 0 1-1.114.05zm.978-1.095a1.64 1.64 0 0 0 .96-.956c.1-.274.1-.8-.005-1.075-.14-.37-.46-.72-.81-.883a1.585 1.585 0 0 0-2.206 1.036c-.054.205-.06.54-.013.747.13.558.613 1.044 1.182 1.188.194.05.686.017.893-.058zm-.244-7.358c.17-.126.223-.232.223-.44 0-.214-.06-.323-.246-.45a.5.5 0 0 0-.53 0c-.35.236-.348.665.005.905.094.064.145.075.288.064.103-.01.21-.04.26-.08z" fill="#fff"/><path d="M5.726 1047.84a.748.748 0 0 1-.526-.563c-.1-.42.093-.687.97-1.333.535-.394 1.35-.828 2.053-1.094l.345-.13.23.125c.127.07.415.207.64.306 1.886.832 3.61.767 5.564-.208.178-.09.342-.16.366-.16.15 0 1.386.596 1.997.964.39.235.994.635 1.186.785.348.273.37.8.046 1.123-.154.155-.38.24-.55.205a8.268 8.268 0 0 1-.617-.214c-2.173-.82-4.113-1.062-6.71-.84-1.636.14-3.052.43-4.227.87-.473.18-.628.212-.767.167z" fill="#e6e6e6"/><path d="M11.326 1044.818a6.987 6.987 0 0 1-3.44-1.338c-.373-.277-1.087-.99-1.364-1.364a6.83 6.83 0 0 1-.813-6.79c.338-.8.778-1.44 1.46-2.12.68-.682 1.32-1.122 2.12-1.46a6.83 6.83 0 0 1 6.79.81c.368.275 1.083.99 1.363 1.367a6.83 6.83 0 0 1 .615 7.206 6.856 6.856 0 0 1-5.073 3.642 8.726 8.726 0 0 1-1.66.046z" fill="url(#h)"/><path d="M12.912 1042.642c1.327-.346 2.32-1.338 2.68-2.678.078-.285.087-.377.087-.893 0-.514-.01-.607-.086-.89a3.68 3.68 0 0 0-.974-1.71 3.64 3.64 0 0 0-2.6-1.08c-.985 0-1.9.38-2.6 1.08a3.64 3.64 0 0 0-1.08 2.6c0 .986.38 1.9 1.078 2.596a3.668 3.668 0 0 0 1.985 1.038c.377.073 1.112.043 1.51-.06z" fill="#b3b3b3"/><path d="M11.57 1041.654c-.326-.063-.444-.104-.783-.277-.236-.12-.356-.21-.594-.448-.437-.434-.653-.845-.756-1.435-.232-1.333.605-2.605 1.958-2.973.325-.09.957-.08 1.295.014.297.084.655.254.88.42.28.206.6.582.764.898.223.432.29.717.29 1.217 0 .502-.067.784-.293 1.226-.127.248-.21.36-.47.617-.256.257-.367.342-.616.47a3.294 3.294 0 0 1-.558.22c-.333.087-.813.108-1.115.05z" fill="#666"/><path d="M12.55 1040.56a1.64 1.64 0 0 0 .96-.958c.1-.273.1-.8-.005-1.073-.14-.37-.46-.72-.808-.885a1.585 1.585 0 0 0-2.207 1.036c-.055.206-.06.543-.013.75.128.556.612 1.042 1.18 1.186.195.05.686.017.894-.057z" fill="#0ff"/><path d="M12.297 1033.24c.168-.125.222-.23.222-.437 0-.216-.06-.325-.247-.452a.5.5 0 0 0-.53 0c-.35.238-.348.666.005.906.094.064.145.075.288.064.103-.01.21-.04.26-.08z" fill="red"/><ellipse style="isolation:auto;mix-blend-mode:normal" cx="11.614" cy="1038.524" rx=".746" ry=".719" color="#000" overflow="visible" opacity=".94" fill="#fff"/></g></svg>