<svg xmlns="http://www.w3.org/2000/svg" xmlns:xlink="http://www.w3.org/1999/xlink" width="24" height="24" viewBox="0 0 24 24"><defs><linearGradient id="b"><stop offset="0"/><stop offset="1" stop-opacity="0"/></linearGradient><linearGradient id="a"><stop offset="0" stop-color="#1f58b6"/><stop offset="1" stop-color="#7aa4e8"/></linearGradient><radialGradient xlink:href="#a" id="e" cx="6.393" cy="15.165" fx="6.393" fy="15.165" r="11.932" gradientUnits="userSpaceOnUse" gradientTransform="matrix(1.4121 -1.10457 1.0703 1.3683 -14.652 5.117)"/><linearGradient xlink:href="#b" id="f" x1="4.943" y1="20.047" x2="30.151" y2="-6.266" gradientUnits="userSpaceOnUse"/><radialGradient xlink:href="#a" id="c" gradientUnits="userSpaceOnUse" gradientTransform="matrix(1.4121 -1.10457 1.0703 1.3683 -14.652 5.117)" cx="6.393" cy="15.165" fx="6.393" fy="15.165" r="11.932"/><radialGradient xlink:href="#a" id="d" gradientUnits="userSpaceOnUse" gradientTransform="matrix(1.4121 -1.10457 1.0703 1.3683 -14.652 5.117)" cx="6.393" cy="15.165" fx="6.393" fy="15.165" r="11.932"/><clipPath id="g"><circle style="isolation:auto;mix-blend-mode:normal" cx="-149.56" cy="1046.719" r="143.612" color="#000" overflow="visible" fill="red" stroke-opacity=".428"/></clipPath></defs><g color="#000" fill-rule="evenodd"><path d="M23.932 12A11.932 11.932 0 0 1 12 23.932 11.932 11.932 0 0 1 .068 12 11.932 11.932 0 0 1 12 .068 11.932 11.932 0 0 1 23.932 12z" style="isolation:auto;mix-blend-mode:normal" overflow="visible" fill="url(#e)"/><path d="M12.047.006C5.437.006.067 5.374.067 11.984c0 6.61 5.37 11.98 11.98 11.98s11.978-5.37 11.978-11.98S18.657.006 12.047.006zm0 .963c6.09 0 11.015 4.925 11.015 11.014 0 6.09-4.926 11.016-11.015 11.016A11.008 11.008 0 0 1 1.03 11.984C1.03 5.894 5.958.97 12.048.97z" style="line-height:normal;text-indent:0;text-align:start;text-decoration-line:none;text-decoration-style:solid;text-decoration-color:#000;text-transform:none;block-progression:tb;isolation:auto;mix-blend-mode:normal" font-weight="400" font-family="sans-serif" white-space="normal" overflow="visible" opacity=".096" fill="url(#f)"/></g><g transform="translate(0 -1028.362)" fill="#fff"><g transform="translate(23.52 959.863) scale(.07692)" clip-path="url(#g)"><path style="isolation:auto;mix-blend-mode:normal" d="M-182.06 997.628c-11.06-1.222-19.744-11.025-21.595-21.69-2.156-11.075 3.277-23.542 13.64-28.487 9.98-5.122 23.274-4.24 31.584 3.674 3.546 3.344 6.678 7.474 7.94 12.24.76 4.345.522 8.81.168 13.18-1 7.03-5.008 13.67-11.16 17.347-6.03 4.014-13.587 4.406-20.58 3.738zM-208.64 960.496c-1.62-1.457-2.136-3.723-2.55-5.773-.8-4.68-.197-9.91 2.88-13.697 2.627-3.25 7.036-4.512 11.085-4.162 2.968.486 5.76 1.792 8.28 3.402 1.226.51 1.36 1.624.05 2.095-2.31 1.608-4.858 2.864-6.965 4.754-2.934 2.507-5.792 5.173-8.07 8.304-1.105 1.53-1.513 3.434-2.61 4.96-.504.782-1.48.723-2.1.118zM-238.897 1070.657c-3.316.318-6.658.055-3.825-3.74 4.817-11.653 9.12-23.523 14.075-35.112 2.454-4.845 3.705-10.243 6.207-15.105 2.738-4.098 2.63-9.922 7.104-12.482 6.056-2.656 12.93-1.34 19.31-.888 6.25.65 12.525 2.612 17.042 7.198 10.076 8.27 18.55 18.453 29.326 25.85 8.073 3.608 16.405 6.664 24.688 9.75 4.07 1.324 9.29 1.788 11.108 6.358 2.855 4.675 1.603 12.46-4.546 13.526-8.184 1.43-15.496-3.69-22.994-6.04-6.188-2.856-12.93-4.388-18.942-7.593-5.858-3.198-9.792-9.027-15.613-12.165-.74 4.81 4.33 9.634 1.297 14.387-2.44 6.11-9.214 2.74-13.64 3.935-4.108 3.044-6.3 7.344-8.51 11.5-8.015 1.308-16.252.574-24.36.794-5.91-.015-11.82-.032-17.727-.173zM-88.664 1105.376c-11.79-3.923-20.384-16.047-19.61-28.54.36-10.51 7.096-20.357 16.615-24.745 6.32-3.11 13.92-3.684 20.487-.98 8.633 3 16.354 9.867 18.5 18.993 1.048 5.07.874 10.36.12 15.458-1.598 6.918-6.906 12.158-12.122 16.607-3.085 2.408-7.024 3.52-10.91 3.323a110.76 110.76 0 0 1-13.08-.114z" color="#000" overflow="visible"/><path style="isolation:auto;mix-blend-mode:normal" color="#000" overflow="visible" fill="#174186" d="M-285.945 1119.21h242.742v83.227h-242.742z"/><path d="M-94.7 1140.643c-8.168.552-13.882-5.493-19.076-10.746-2.287-1.857-4.193-4.633-6.71-5.928-46.04-.205-123.97-.045-170.002-.637-10.225-.792-6.413-14.515-7.475-21.454-.028-5.704-.007-11.406-.01-17.11 2.475-1.68 4.293-5.015 7.194-5.62 42.822-.002 117.53 0 160.352 0l38.603 37.95c18.255.275 36.58-.26 54.778.806 8.84 2.782 11.202 15.26 3.31 20.613-7.438 3.885-16.58 1.428-24.762 2.217-12.064.037-24.136.188-36.2-.09z" style="isolation:auto;mix-blend-mode:normal" color="#000" overflow="visible"/><path d="M-261.82 1134.78l-2.76-3.486s44.44.6 64.932.804c24.975.07 49.95.037 74.923.048l8.74 8.75h-141.182l-3.23-4.188z" style="isolation:auto;mix-blend-mode:normal" color="#000" overflow="visible" opacity=".94"/><path d="M-200.465 950.917c-1.49-5.968-7.227-10.196-13.264-10.564-7.625-.55-15.153 1.91-21.97 5.128-6.952 3.518-13.71 8.05-18.255 14.492-2.833 4.798-3.052 10.606-3.194 16.037-.07 5.48.663 11.207 3.84 15.83 1.27 1.898 3.354 4.467 5.085 5.185-.386-7.62-1.04-15.3-.23-22.91 1.394-8.784 7.66-16.012 14.995-20.643 6.624-4.395 13.47-9.098 21.418-10.608 4.312-.876 9.47 1.01 10.97 5.43.318.84.54 1.725.607 2.623z" fill-rule="evenodd"/></g><ellipse style="isolation:auto;mix-blend-mode:normal" cx="20.57" cy="1046.862" rx=".813" ry=".953" color="#000" overflow="visible"/></g></svg>