<svg xmlns="http://www.w3.org/2000/svg" xmlns:xlink="http://www.w3.org/1999/xlink" width="24" height="24" viewBox="0 0 24 24"><defs><linearGradient id="b"><stop offset="0"/><stop offset="1" stop-opacity="0"/></linearGradient><linearGradient id="a"><stop offset="0" stop-color="#1f58b6"/><stop offset="1" stop-color="#7aa4e8"/></linearGradient><radialGradient xlink:href="#a" id="e" cx="6.393" cy="15.165" fx="6.393" fy="15.165" r="11.932" gradientUnits="userSpaceOnUse" gradientTransform="matrix(1.4121 -1.10457 1.0703 1.3683 -14.652 5.117)"/><linearGradient xlink:href="#b" id="f" x1="4.943" y1="20.047" x2="30.151" y2="-6.266" gradientUnits="userSpaceOnUse"/><radialGradient xlink:href="#a" id="c" gradientUnits="userSpaceOnUse" gradientTransform="matrix(1.4121 -1.10457 1.0703 1.3683 -14.652 5.117)" cx="6.393" cy="15.165" fx="6.393" fy="15.165" r="11.932"/><radialGradient xlink:href="#a" id="d" gradientUnits="userSpaceOnUse" gradientTransform="matrix(1.4121 -1.10457 1.0703 1.3683 -14.652 5.117)" cx="6.393" cy="15.165" fx="6.393" fy="15.165" r="11.932"/></defs><g color="#000" fill-rule="evenodd"><path d="M23.932 12A11.932 11.932 0 0 1 12 23.932 11.932 11.932 0 0 1 .068 12 11.932 11.932 0 0 1 12 .068 11.932 11.932 0 0 1 23.932 12z" style="isolation:auto;mix-blend-mode:normal" overflow="visible" fill="url(#e)"/><path d="M12.047.006C5.437.006.067 5.374.067 11.984c0 6.61 5.37 11.98 11.98 11.98s11.978-5.37 11.978-11.98S18.657.006 12.047.006zm0 .963c6.09 0 11.015 4.925 11.015 11.014 0 6.09-4.926 11.016-11.015 11.016A11.008 11.008 0 0 1 1.03 11.984C1.03 5.894 5.958.97 12.048.97z" style="line-height:normal;text-indent:0;text-align:start;text-decoration-line:none;text-decoration-style:solid;text-decoration-color:#000;text-transform:none;block-progression:tb;isolation:auto;mix-blend-mode:normal" font-weight="400" font-family="sans-serif" white-space="normal" overflow="visible" opacity=".096" fill="url(#f)"/></g><path d="M8.563 21.68a45.2 45.2 0 0 0-.118-.257c-.498-1.085-.957-2.188-1.943-4.67-.8-2.012-1.173-2.924-1.587-3.87-.44-1.002-.9-1.972-1.045-2.2C3.437 10 2.758 9.34 2.277 9.132l-.087-.038v-.757l2.478-.01c1.364 0 2.48-.01 2.483 0 .01.01.016.58.008.64l-.008.065-.08.01c-.3.045-.62.16-.822.3a1.16 1.16 0 0 0-.163.146.675.675 0 0 0-.175.62c.012.066.043.15.146.386.473 1.085.823 1.92 2.223 5.306a192.682 192.682 0 0 0 1.266 3.013l.012.024.024-.045c.014-.024.48-.924 1.036-2 .556-1.075 1.02-1.977 1.035-2.003l.025-.048-.06-.133a60.193 60.193 0 0 1-.974-2.253c-.526-1.26-.86-2-1.203-2.663-.083-.163-.108-.202-.17-.268-.196-.214-.502-.33-.99-.378a11.45 11.45 0 0 0-.52-.03h-.042v-.68h.76c.416 0 1.472.01 2.344.01l1.587.01.006.32c.004.176.004.323.002.328-.003 0-.03.01-.062.015-.092.012-.283.055-.366.084-.263.09-.404.237-.43.45a.48.48 0 0 0-.003.126c.007.037 1.31 3.04 1.33 3.06a.98.98 0 0 0 .077-.15c.04-.085.17-.365.29-.618.478-1.016.677-1.456.86-1.904.08-.202.094-.24.104-.324.04-.336-.132-.554-.52-.66a2.856 2.856 0 0 0-.61-.077c-.124 0-.114.03-.114-.335v-.314l1.414-.01c.777 0 1.72-.01 2.095-.01h.68v.657l-.04.01c-.352.042-.502.073-.706.143-.36.124-.647.335-.816.6-.384.61-.88 1.58-1.392 2.724-.324.725-.644 1.45-.645 1.46a115.92 115.92 0 0 0 1.876 4.38c.03.063.055.116.058.117.003 0 .183-.424.4-.94l1.785-4.256c1.218-2.905 1.388-3.318 1.38-3.34a1.497 1.497 0 0 0-.16-.26c-.196-.255-.528-.44-1.025-.575l-.126-.035-.005-.125a29.85 29.85 0 0 1-.014-.342l-.006-.218h.096c.053 0 .82.01 1.706.014.885.01 1.71.014 1.835.014h.227v.689l-.036.01a2.45 2.45 0 0 0-.394.144c-.275.138-.545.4-.732.712-.03.05-.9 2.11-2.508 5.935-1.354 3.222-2.466 5.86-2.472 5.865-.006 0-.193.01-.415.01h-.405l-.127-.31-1.168-2.844a312.53 312.53 0 0 0-1.05-2.538c-.002 0-.643 1.28-1.423 2.846L9.44 21.73H8.58l-.02-.04z" fill="#174186"/><path d="M8.607 19.63c-.01-.023-.063-.136-.118-.25-.5-1.05-.958-2.116-1.944-4.515-.8-1.947-1.173-2.83-1.587-3.744-.44-.968-.9-1.906-1.046-2.128-.433-.658-1.112-1.296-1.593-1.498l-.086-.037v-.731l2.478-.01c1.364 0 2.48-.01 2.483 0 .008.01.015.56.007.618l-.008.063-.08.01c-.3.044-.62.156-.822.29-.045.03-.115.092-.163.14a.638.638 0 0 0-.176.603c.012.063.043.144.146.373.473 1.05.823 1.857 2.223 5.13A183.06 183.06 0 0 0 9.59 16.86l.012.023.024-.042a10815.834 10815.834 0 0 1 2.07-3.87l.026-.047-.06-.128c-.28-.586-.458-.985-.974-2.18-.526-1.218-.86-1.934-1.203-2.575-.084-.157-.11-.195-.17-.26-.197-.206-.503-.32-.99-.365-.113-.01-.445-.03-.522-.03h-.04v-.656h.758c.418 0 1.474.01 2.346.01l1.587.01.007.31c.004.17.004.312.002.316-.003 0-.03.01-.062.015a2.51 2.51 0 0 0-.366.08c-.263.086-.404.23-.43.436a.45.45 0 0 0-.003.12c.008.037 1.31 2.94 1.33 2.96.003 0 .04-.06.078-.144l.29-.6c.478-.982.677-1.408.86-1.84.08-.196.094-.233.104-.314.04-.325-.132-.536-.52-.637a2.922 2.922 0 0 0-.61-.076c-.124 0-.114.03-.114-.324v-.304l1.414-.01c.777 0 1.72-.01 2.095-.01h.68v.636l-.04.01c-.352.04-.502.07-.706.138-.36.12-.646.324-.815.58-.385.59-.882 1.53-1.393 2.634-.324.7-.644 1.403-.645 1.41a110.35 110.35 0 0 0 1.876 4.236c.028.063.054.114.057.115.004 0 .184-.41.4-.91l1.786-4.114c1.218-2.808 1.388-3.207 1.38-3.23a1.442 1.442 0 0 0-.16-.25c-.196-.247-.528-.427-1.025-.557l-.125-.033-.006-.12a28.17 28.17 0 0 1-.015-.33l-.007-.212h.096c.053 0 .82.01 1.706.014.885.01 1.71.014 1.835.014h.226v.667l-.035.01a2.566 2.566 0 0 0-.395.14 1.85 1.85 0 0 0-.732.687c-.03.05-.9 2.04-2.508 5.74a1359.313 1359.313 0 0 1-2.472 5.67c-.006 0-.193.01-.415.01h-.404l-.128-.298-1.168-2.752a296.137 296.137 0 0 0-1.05-2.453c-.002 0-.643 1.238-1.423 2.75L9.484 19.68h-.858l-.018-.04z" fill="#fff"/></svg>