<?xml version="1.0" encoding="UTF-8" standalone="no"?>
<!-- Created with Inkscape (http://www.inkscape.org/) -->

<svg
   xmlns:dc="http://purl.org/dc/elements/1.1/"
   xmlns:cc="http://creativecommons.org/ns#"
   xmlns:rdf="http://www.w3.org/1999/02/22-rdf-syntax-ns#"
   xmlns:svg="http://www.w3.org/2000/svg"
   xmlns="http://www.w3.org/2000/svg"
   xmlns:xlink="http://www.w3.org/1999/xlink"
   xmlns:sodipodi="http://sodipodi.sourceforge.net/DTD/sodipodi-0.dtd"
   xmlns:inkscape="http://www.inkscape.org/namespaces/inkscape"
   width="24"
   height="24"
   viewBox="0 0 24 24"
   id="svg16505"
   version="1.1"
   inkscape:version="0.91 r"
   sodipodi:docname="wlan.svg">
  <defs
     id="defs16507">
    <linearGradient
       id="linearGradient19745"
       inkscape:collect="always">
      <stop
         id="stop19747"
         offset="0"
         style="stop-color:#0f8000;stop-opacity:0.99607843" />
      <stop
         id="stop19749"
         offset="1"
         style="stop-color:#12d200;stop-opacity:0.99607843" />
    </linearGradient>
    <linearGradient
       inkscape:collect="always"
       id="linearGradient14177">
      <stop
         style="stop-color:#000000;stop-opacity:1;"
         offset="0"
         id="stop14179" />
      <stop
         style="stop-color:#000000;stop-opacity:0;"
         offset="1"
         id="stop14181" />
    </linearGradient>
    <linearGradient
       inkscape:collect="always"
       id="linearGradient14145">
      <stop
         style="stop-color:#1f58b6;stop-opacity:1"
         offset="0"
         id="stop14147" />
      <stop
         style="stop-color:#7aa4e8;stop-opacity:1"
         offset="1"
         id="stop14149" />
    </linearGradient>
    <radialGradient
       inkscape:collect="always"
       xlink:href="#linearGradient19745"
       id="radialGradient14151"
       cx="6.393167"
       cy="15.165454"
       fx="6.393167"
       fy="15.165454"
       r="11.932427"
       gradientUnits="userSpaceOnUse"
       gradientTransform="matrix(1.4121007,-1.1045678,1.0703037,1.3682968,-14.651552,5.1167479)" />
    <linearGradient
       inkscape:collect="always"
       xlink:href="#linearGradient14177"
       id="linearGradient14183"
       x1="4.9425726"
       y1="20.046875"
       x2="30.151178"
       y2="-6.265625"
       gradientUnits="userSpaceOnUse" />
    <clipPath
       clipPathUnits="userSpaceOnUse"
       id="clipPath14940">
      <path
         inkscape:connector-curvature="0"
         id="path14942"
         d="M 23.932427,12 A 11.932427,11.932427 0 0 1 12,23.932427 11.932427,11.932427 0 0 1 0.067573,12 11.932427,11.932427 0 0 1 12,0.06757298 11.932427,11.932427 0 0 1 23.932427,12 Z"
         style="color:#000000;clip-rule:nonzero;display:inline;overflow:visible;visibility:visible;opacity:1;isolation:auto;mix-blend-mode:normal;color-interpolation:sRGB;color-interpolation-filters:linearRGB;solid-color:#000000;solid-opacity:1;fill:url(#radialGradient14944);fill-opacity:1;fill-rule:evenodd;stroke:none;stroke-width:2;stroke-linecap:square;stroke-linejoin:miter;stroke-miterlimit:4;stroke-dasharray:none;stroke-dashoffset:0.85000002;stroke-opacity:1;color-rendering:auto;image-rendering:auto;shape-rendering:auto;text-rendering:auto;enable-background:accumulate" />
    </clipPath>
    <radialGradient
       inkscape:collect="always"
       xlink:href="#linearGradient14145"
       id="radialGradient14944"
       gradientUnits="userSpaceOnUse"
       gradientTransform="matrix(1.4121007,-1.1045678,1.0703037,1.3682968,-14.651552,5.1167483)"
       cx="6.393167"
       cy="15.165454"
       fx="6.393167"
       fy="15.165454"
       r="11.932427" />
    <clipPath
       clipPathUnits="userSpaceOnUse"
       id="clipPath14946">
      <path
         inkscape:connector-curvature="0"
         id="path14948"
         d="M 23.932427,12 A 11.932427,11.932427 0 0 1 12,23.932427 11.932427,11.932427 0 0 1 0.067573,12 11.932427,11.932427 0 0 1 12,0.06757298 11.932427,11.932427 0 0 1 23.932427,12 Z"
         style="color:#000000;clip-rule:nonzero;display:inline;overflow:visible;visibility:visible;opacity:1;isolation:auto;mix-blend-mode:normal;color-interpolation:sRGB;color-interpolation-filters:linearRGB;solid-color:#000000;solid-opacity:1;fill:url(#radialGradient14950);fill-opacity:1;fill-rule:evenodd;stroke:none;stroke-width:2;stroke-linecap:square;stroke-linejoin:miter;stroke-miterlimit:4;stroke-dasharray:none;stroke-dashoffset:0.85000002;stroke-opacity:1;color-rendering:auto;image-rendering:auto;shape-rendering:auto;text-rendering:auto;enable-background:accumulate" />
    </clipPath>
    <radialGradient
       inkscape:collect="always"
       xlink:href="#linearGradient14145"
       id="radialGradient14950"
       gradientUnits="userSpaceOnUse"
       gradientTransform="matrix(1.4121007,-1.1045678,1.0703037,1.3682968,-14.651552,5.1167483)"
       cx="6.393167"
       cy="15.165454"
       fx="6.393167"
       fy="15.165454"
       r="11.932427" />
  </defs>
  <sodipodi:namedview
     id="base"
     pagecolor="#ffffff"
     bordercolor="#666666"
     borderopacity="1.0"
     inkscape:pageopacity="0.0"
     inkscape:pageshadow="2"
     inkscape:zoom="1"
     inkscape:cx="17.764477"
     inkscape:cy="9.3698768"
     inkscape:document-units="px"
     inkscape:current-layer="layer1"
     showgrid="true"
     units="px"
     showguides="true"
     inkscape:snap-global="false"
     inkscape:window-width="2511"
     inkscape:window-height="1416"
     inkscape:window-x="2609"
     inkscape:window-y="102"
     inkscape:window-maximized="1">
    <inkscape:grid
       type="xygrid"
       id="grid17061"
       color="#808080"
       opacity="0.1254902"
       empcolor="#808080"
       empopacity="0.25098039"
       dotted="false" />
  </sodipodi:namedview>
  <metadata
     id="metadata16510">
    <rdf:RDF>
      <cc:Work
         rdf:about="">
        <dc:format>image/svg+xml</dc:format>
        <dc:type
           rdf:resource="http://purl.org/dc/dcmitype/StillImage" />
        <dc:title />
      </cc:Work>
    </rdf:RDF>
  </metadata>
  <g
     inkscape:groupmode="layer"
     id="layer2"
     inkscape:label="base"
     style="display:inline">
    <g
       id="g14189">
      <path
         id="path17688"
         d="M 23.932427,12 A 11.932427,11.932427 0 0 1 12,23.932427 11.932427,11.932427 0 0 1 0.06757259,12 11.932427,11.932427 0 0 1 12,0.06757259 11.932427,11.932427 0 0 1 23.932427,12 Z"
         style="color:#000000;clip-rule:nonzero;display:inline;overflow:visible;visibility:visible;opacity:1;isolation:auto;mix-blend-mode:normal;color-interpolation:sRGB;color-interpolation-filters:linearRGB;solid-color:#000000;solid-opacity:1;fill:url(#radialGradient14151);fill-opacity:1;fill-rule:evenodd;stroke:none;stroke-width:2;stroke-linecap:square;stroke-linejoin:miter;stroke-miterlimit:4;stroke-dasharray:none;stroke-dashoffset:0.85000002;stroke-opacity:1;color-rendering:auto;image-rendering:auto;shape-rendering:auto;text-rendering:auto;enable-background:accumulate"
         inkscape:connector-curvature="0" />
      <path
         inkscape:connector-curvature="0"
         id="path17688-3"
         d="M 12.046875,0.00585938 C 5.4365953,0.00585928 0.06835928,5.3740953 0.06835937,11.984375 c 0,6.61028 5.36823593,11.978516 11.97851563,11.978516 6.61028,0 11.978516,-5.368236 11.978516,-11.978516 0,-6.6102797 -5.368236,-11.97851562 -11.978516,-11.97851562 z m 0,0.96289062 c 6.089537,0 11.015625,4.926088 11.015625,11.015625 C 23.0625,18.073912 18.136412,23 12.046875,23 5.957338,23 1.03125,18.073912 1.03125,11.984375 1.0312499,5.8948379 5.9573379,0.96874991 12.046875,0.96875 Z"
         style="color:#000000;font-style:normal;font-variant:normal;font-weight:normal;font-stretch:normal;font-size:medium;line-height:normal;font-family:sans-serif;text-indent:0;text-align:start;text-decoration:none;text-decoration-line:none;text-decoration-style:solid;text-decoration-color:#000000;letter-spacing:normal;word-spacing:normal;text-transform:none;direction:ltr;block-progression:tb;writing-mode:lr-tb;baseline-shift:baseline;text-anchor:start;white-space:normal;clip-rule:nonzero;display:inline;overflow:visible;visibility:visible;opacity:0.09599998;isolation:auto;mix-blend-mode:normal;color-interpolation:sRGB;color-interpolation-filters:linearRGB;solid-color:#000000;solid-opacity:1;fill:url(#linearGradient14183);fill-opacity:1;fill-rule:evenodd;stroke:none;stroke-width:0.96355295;stroke-linecap:square;stroke-linejoin:miter;stroke-miterlimit:4;stroke-dasharray:none;stroke-dashoffset:0.85000002;stroke-opacity:1;color-rendering:auto;image-rendering:auto;shape-rendering:auto;text-rendering:auto;enable-background:accumulate" />
    </g>
  </g>
  <g
     inkscape:label="icon"
     inkscape:groupmode="layer"
     id="layer1"
     transform="translate(0,-1028.3622)"
     style="display:inline">
    <path
       style="fill-opacity:0.99607843;fill:#064200"
       d="m 7.940499,1047.18 c -0.5713841,-0.322 -0.8582662,-1.0205 -0.697081,-1.6973 0.1859226,-0.7807 1.4922802,-1.9125 2.764814,-2.3955 0.650753,-0.2469 0.811342,-0.269 1.955801,-0.269 1.144459,0 1.305047,0.022 1.9558,0.269 1.239903,0.4705 2.670984,1.7067 2.799741,2.4182 0.110701,0.6119 -0.203151,1.3683 -0.678815,1.6359 -0.377178,0.2123 -1.02334,0.1734 -1.305762,-0.079 -1.304785,-1.1641 -1.753375,-1.3891 -2.770964,-1.3891 -1.013356,0 -1.467488,0.2265 -2.7516363,1.3718 -0.3029303,0.2701 -0.9161183,0.335 -1.2718977,0.1346 z"
       id="path24539"
       inkscape:connector-curvature="0" />
    <path
       style="fill-opacity:0.99607843;fill:#064200"
       d="m 5.0196655,1043.6267 c -0.5611824,-0.3783 -0.7960001,-1.2615 -0.500545,-1.8826 0.2877679,-0.6051 1.7358356,-1.8491 2.9179568,-2.507 1.4425003,-0.8026 2.8409757,-1.1614 4.5269557,-1.1614 1.228959,0 2.047024,0.1363 3.108143,0.5182 1.95631,0.7038 4.258376,2.5025 4.419693,3.453 0.250352,1.4752 -1.175241,2.3449 -2.215999,1.352 -1.17606,-1.122 -2.340608,-1.8558 -3.506076,-2.2094 -0.786697,-0.2386 -2.826834,-0.2382 -3.611522,10e-4 -1.1235982,0.342 -2.6694682,1.2917 -3.267568,2.0071 -0.5043009,0.6034 -1.3313155,0.7932 -1.8710385,0.4294 z"
       id="path24537"
       inkscape:connector-curvature="0" />
    <path
       style="fill-opacity:0.99607843;fill:#064200"
       d="m 2.3763013,1040.1651 c -0.5803871,-0.2852 -0.8883046,-1.0163 -0.7228108,-1.7164 0.1766369,-0.7472 1.9689382,-2.3425 3.7810125,-3.3655 2.3485865,-1.3258 5.048191,-1.9028 7.711873,-1.6481 1.437678,0.1374 2.167267,0.3012 3.470081,0.7791 1.709888,0.6272 3.306925,1.634 4.740233,2.9882 0.781399,0.7382 0.925977,1.0052 0.925977,1.7098 0,0.4753 -0.02984,0.5583 -0.323236,0.8992 -0.618564,0.7188 -1.271916,0.6376 -2.217612,-0.2756 -1.67483,-1.6173 -3.67338,-2.6739 -5.832809,-3.0839 -0.986573,-0.1872 -2.903382,-0.1872 -3.889955,0 -2.1421347,0.4067 -4.1807633,1.4793 -5.7926836,3.048 -0.8093747,0.7875 -1.2664782,0.9519 -1.8500701,0.6652 z"
       id="path24512"
       inkscape:connector-curvature="0" />
    <path
       inkscape:connector-curvature="0"
       id="path24528"
       d="m 11.36467,1050.6177 c -0.397236,-0.1573 -0.588095,-0.324 -0.795009,-0.6943 -0.498325,-0.8917 0.276973,-2.0087 1.394372,-2.0087 1.117398,0 1.892696,1.117 1.394371,2.0087 -0.210447,0.3766 -0.401533,0.5404 -0.814333,0.698 -0.395007,0.1507 -0.792932,0.1495 -1.179401,0 z"
       style="fill-opacity:0.99607843;fill:#064200" />
    <path
       style="display:inline;fill:#ffffff;fill-opacity:1"
       d="m 7.9321842,1045.6433 c -0.5713841,-0.322 -0.8582662,-1.0205 -0.697081,-1.6973 0.1859226,-0.7807 1.4922802,-1.9125 2.764814,-2.3955 0.6507528,-0.2469 0.8113418,-0.269 1.9558008,-0.269 1.144459,0 1.305047,0.022 1.9558,0.269 1.239903,0.4705 2.670984,1.7067 2.799741,2.4182 0.110701,0.6119 -0.203151,1.3683 -0.678815,1.6359 -0.377178,0.2123 -1.02334,0.1734 -1.305762,-0.079 -1.304785,-1.1641 -1.753375,-1.3891 -2.770964,-1.3891 -1.013356,0 -1.467488,0.2265 -2.7516361,1.3718 -0.3029303,0.2701 -0.9161183,0.335 -1.2718977,0.1346 z"
       id="path24539-2"
       inkscape:connector-curvature="0" />
    <path
       style="display:inline;fill:#ffffff;fill-opacity:1"
       d="m 5.0113507,1042.09 c -0.5611824,-0.3783 -0.7960001,-1.2615 -0.500545,-1.8826 0.2877679,-0.6051 1.7358356,-1.8491 2.9179568,-2.507 1.4425003,-0.8026 2.8409755,-1.1614 4.5269555,-1.1614 1.228959,0 2.047024,0.1363 3.108143,0.5182 1.95631,0.7038 4.258376,2.5025 4.419693,3.453 0.250352,1.4752 -1.175241,2.3449 -2.215999,1.352 -1.17606,-1.122 -2.340608,-1.8558 -3.506076,-2.2094 -0.786697,-0.2386 -2.826834,-0.2382 -3.611522,10e-4 -1.123598,0.342 -2.669468,1.2917 -3.2675678,2.0071 -0.5043009,0.6034 -1.3313155,0.7932 -1.8710385,0.4294 z"
       id="path24537-2"
       inkscape:connector-curvature="0" />
    <path
       style="display:inline;fill:#ffffff;fill-opacity:1"
       d="m 2.3679865,1038.6284 c -0.580387,-0.2852 -0.8883045,-1.0163 -0.7228107,-1.7164 0.1766369,-0.7472 1.9689381,-2.3425 3.7810124,-3.3655 2.3485865,-1.3258 5.0481908,-1.9028 7.7118728,-1.6481 1.437678,0.1374 2.167267,0.3012 3.470081,0.7791 1.709888,0.6272 3.306925,1.634 4.740233,2.9882 0.781399,0.7382 0.925977,1.0052 0.925977,1.7098 0,0.4753 -0.02984,0.5583 -0.323236,0.8992 -0.618564,0.7188 -1.271916,0.6376 -2.217612,-0.2756 -1.67483,-1.6173 -3.67338,-2.6739 -5.832809,-3.0839 -0.986573,-0.1872 -2.903382,-0.1872 -3.889955,0 -2.1421345,0.4067 -4.1807631,1.4793 -5.7926834,3.048 -0.8093747,0.7875 -1.2664782,0.9519 -1.8500701,0.6652 z"
       id="path24512-6"
       inkscape:connector-curvature="0" />
    <path
       inkscape:connector-curvature="0"
       id="path24528-8"
       d="m 11.356355,1049.081 c -0.397236,-0.1573 -0.588095,-0.324 -0.795009,-0.6943 -0.498325,-0.8917 0.276973,-2.0087 1.394372,-2.0087 1.117398,0 1.892696,1.117 1.394371,2.0087 -0.210447,0.3766 -0.401533,0.5404 -0.814333,0.698 -0.395007,0.1507 -0.792932,0.1495 -1.179401,0 z"
       style="display:inline;fill:#ffffff;fill-opacity:1" />
  </g>
</svg>
