<?xml version="1.0" encoding="UTF-8"?>
<!-- Created with Inkscape (http://www.inkscape.org/) -->
<svg width="24" height="24" version="1.1" viewBox="0 0 24 24" xmlns="http://www.w3.org/2000/svg" xmlns:cc="http://creativecommons.org/ns#" xmlns:dc="http://purl.org/dc/elements/1.1/" xmlns:rdf="http://www.w3.org/1999/02/22-rdf-syntax-ns#" xmlns:xlink="http://www.w3.org/1999/xlink">
 <defs>
  <radialGradient id="radialGradient14151" cx="6.3932" cy="15.165" r="11.932" gradientTransform="matrix(1.4121 -1.1046 1.0703 1.3683 -14.652 5.1167)" gradientUnits="userSpaceOnUse">
   <stop stop-color="#7c05fc" stop-opacity=".99608" offset="0"/>
   <stop stop-color="#e244fe" stop-opacity=".99608" offset="1"/>
  </radialGradient>
  <linearGradient id="linearGradient14183" x1="4.9426" x2="30.151" y1="20.047" y2="-6.2656" gradientUnits="userSpaceOnUse">
   <stop offset="0"/>
   <stop stop-opacity="0" offset="1"/>
  </linearGradient>
  <filter id="filter1016" x="-.071277" y="-.072737" width="1.1426" height="1.1455" color-interpolation-filters="sRGB">
   <feGaussianBlur stdDeviation="0.50200556"/>
  </filter>
 </defs>
 <metadata>
  <rdf:RDF>
   <cc:Work rdf:about="">
    <dc:format>image/svg+xml</dc:format>
    <dc:type rdf:resource="http://purl.org/dc/dcmitype/StillImage"/>
    <dc:title/>
   </cc:Work>
  </rdf:RDF>
 </metadata>
 <g>
  <g fill-rule="evenodd" shape-rendering="auto">
   <path d="m23.932 12a11.932 11.932 0 0 1-11.932 11.932 11.932 11.932 0 0 1-11.932-11.932 11.932 11.932 0 0 1 11.932-11.932 11.932 11.932 0 0 1 11.932 11.932z" color="#000000" color-rendering="auto" fill="url(#radialGradient14151)" image-rendering="auto" solid-color="#000000" style="isolation:auto;mix-blend-mode:normal"/>
   <path d="m12.047 0.0058594c-6.6103-1e-7 -11.979 5.3682-11.979 11.979 0 6.6103 5.3682 11.979 11.979 11.979 6.6103 0 11.979-5.3682 11.979-11.979 0-6.6103-5.3682-11.979-11.979-11.979zm0 0.96289c6.0895 0 11.016 4.9261 11.016 11.016s-4.9261 11.016-11.016 11.016-11.016-4.9261-11.016-11.016c-1e-7 -6.0895 4.9261-11.016 11.016-11.016z" color="#000000" color-rendering="auto" fill="url(#linearGradient14183)" image-rendering="auto" opacity=".096" solid-color="#000000" style="block-progression:tb;isolation:auto;mix-blend-mode:normal;text-decoration-color:#000000;text-decoration-line:none;text-decoration-style:solid;text-indent:0;text-transform:none;white-space:normal"/>
  </g>
 </g>
 <g transform="translate(0 -1028.4)" stroke-width=".069749">
  <path d="m4.6274 1049.6c-0.43958-0.1372-0.77592-0.4272-0.96391-0.831-0.28742-0.6172-0.19134-1.2081 0.2746-1.689 0.21086-0.2176 0.5-0.3932 1.0575-0.6423 1.3529-0.6046 1.4347-0.6512 1.6039-0.9131 0.10577-0.1639 0.18837-0.4451 0.23768-0.8092 0.041559-0.3069 0.24647-1.735 0.45536-3.1735l0.37979-2.6157 0.88095-1.9181c1.0147-2.2093 1.0609-2.3104 1.3544-2.9611 0.25619-0.5681 0.37885-0.7211 0.68103-0.8489 0.28925-0.1225 0.60231-0.056 0.85586 0.1803 0.39052 0.3649 0.37173 0.4669-0.48462 2.6327-0.42695 1.0799-0.82393 2.0029-0.88218 2.0512-0.26869 0.2231-0.43134 0.7497-0.67952 2.2004-0.13888 0.8117-0.2525 1.5258-0.2525 1.5868 0 0.076 0.063761 0.1108 0.2006 0.1108 0.19702 0 0.20262-0.011 0.31417-0.6103 0.062465-0.3356 0.17672-1.0026 0.25388-1.4821 0.17581-1.0925 0.29803-1.4357 0.55946-1.5709 0.41476-0.2145 0.95044-0.066 1.1488 0.317 0.09354 0.1809 0.10525 0.6313 0.08837 3.3991l-0.01946 3.1906-0.18095 0.3836c-0.22645 0.4801-0.61008 0.8653-1.2247 1.2296-0.26269 0.1558-1.4035 0.8338-2.5352 1.5068-1.8699 1.112-2.4132 1.3863-2.7202 1.3738-0.057543 0-0.23891-0.046-0.40303-0.098zm13.898 0.024c-0.25043-0.056-3.7886-2.1051-5.1247-2.9675-0.62497-0.4034-0.92489-0.7782-1.115-1.3936-0.13235-0.4285-0.14137-0.6413-0.14101-3.3276 2.1e-4 -1.7422 0.02844-2.9708 0.07179-3.1269 0.16098-0.5796 0.86544-0.8145 1.313-0.438 0.2431 0.2046 0.26661 0.2934 0.59069 2.2296l0.22182 1.3253 0.22552 0.022c0.21257 0.02 0.22354 0.011 0.19108-0.1744-0.01895-0.1078-0.14482-0.8503-0.27974-1.65-0.25307-1.5-0.31067-1.688-0.61867-2.0197-0.09977-0.1075-0.1814-0.2087-0.1814-0.2248 0-0.016-0.32957-0.8622-0.73237-1.8799-0.42636-1.0774-0.73237-1.9503-0.73237-2.0891 0-0.4931 0.58932-0.8997 1.0727-0.7402 0.12963 0.043 0.28538 0.1327 0.34612 0.1999 0.06074 0.067 0.67625 1.3579 1.3678 2.8684 1.112 2.4289 1.2653 2.8075 1.3261 3.2756 0.0378 0.2911 0.24068 1.715 0.45084 3.1643 0.39027 2.6913 0.42435 2.8305 0.76235 3.111 0.05565 0.046 0.55146 0.2857 1.1018 0.5325 1.132 0.5074 1.3922 0.6854 1.6011 1.0948 0.57497 1.1271-0.48208 2.4863-1.7175 2.2086z" fill="#1a1a1a" filter="url(#filter1016)"/>
  <path d="m4.6434 1048.5c-0.43958-0.1372-0.77592-0.4272-0.96391-0.831-0.28742-0.6172-0.19134-1.2081 0.2746-1.689 0.21086-0.2176 0.5-0.3932 1.0575-0.6423 1.3529-0.6046 1.4347-0.6512 1.6039-0.9131 0.10577-0.1639 0.18837-0.4451 0.23768-0.8092 0.041559-0.3069 0.24647-1.735 0.45536-3.1735l0.37979-2.6157 0.88095-1.9181c1.0147-2.2093 1.0609-2.3104 1.3544-2.9611 0.25619-0.5681 0.37885-0.7211 0.68103-0.8489 0.28925-0.1225 0.60231-0.056 0.85586 0.1803 0.39052 0.3649 0.37173 0.4669-0.48462 2.6327-0.42695 1.0799-0.82393 2.0029-0.88218 2.0512-0.2687 0.2231-0.43134 0.7497-0.67952 2.2004-0.13888 0.8117-0.2525 1.5258-0.2525 1.5868 0 0.076 0.063761 0.1108 0.2006 0.1108 0.19702 0 0.20262-0.011 0.31417-0.6103 0.062465-0.3356 0.17672-1.0026 0.25388-1.4821 0.17581-1.0925 0.29803-1.4357 0.55946-1.5709 0.41476-0.2145 0.95044-0.066 1.1488 0.317 0.09354 0.1809 0.10525 0.6313 0.08837 3.3991l-0.01946 3.1906-0.18095 0.3836c-0.22645 0.4801-0.61008 0.8653-1.2247 1.2296-0.26269 0.1558-1.4035 0.8338-2.5352 1.5068-1.8699 1.112-2.4132 1.3863-2.7202 1.3738-0.057543 0-0.23891-0.046-0.40303-0.098zm13.898 0.024c-0.25043-0.056-3.7886-2.1051-5.1247-2.9675-0.62497-0.4034-0.92489-0.7782-1.115-1.3936-0.13235-0.4285-0.14137-0.6413-0.14101-3.3276 2.1e-4 -1.7422 0.02844-2.9708 0.07179-3.1269 0.16098-0.5796 0.86544-0.8145 1.313-0.438 0.2431 0.2046 0.26661 0.2934 0.59069 2.2296l0.22182 1.3253 0.22552 0.022c0.21257 0.02 0.22354 0.011 0.19108-0.1744-0.01895-0.1078-0.14482-0.8503-0.27974-1.65-0.25307-1.5-0.31067-1.688-0.61867-2.0197-0.09977-0.1075-0.1814-0.2087-0.1814-0.2248 0-0.016-0.32957-0.8622-0.73237-1.8799-0.42636-1.0774-0.73237-1.9503-0.73237-2.0891 0-0.4931 0.58932-0.8997 1.0727-0.7402 0.12963 0.043 0.28538 0.1327 0.34612 0.1999 0.06074 0.067 0.67625 1.3579 1.3678 2.8684 1.112 2.4289 1.2653 2.8075 1.3261 3.2756 0.0378 0.2911 0.24068 1.715 0.45084 3.1643 0.39027 2.6913 0.42435 2.8305 0.76235 3.111 0.05565 0.046 0.55146 0.2857 1.1018 0.5325 1.132 0.5074 1.3922 0.6854 1.6011 1.0948 0.57497 1.1271-0.48208 2.4863-1.7175 2.2086z" fill="#fff"/>
 </g>
</svg>
