<svg xmlns="http://www.w3.org/2000/svg" xmlns:xlink="http://www.w3.org/1999/xlink" width="24" height="24" viewBox="0 0 24 24"><defs><linearGradient id="a"><stop offset="0" stop-color="#b30101" stop-opacity=".996"/><stop offset="1" stop-color="#fa4667" stop-opacity=".996"/></linearGradient><linearGradient id="b"><stop offset="0"/><stop offset="1" stop-opacity="0"/></linearGradient><linearGradient id="d"><stop offset="0" stop-color="#1f58b6"/><stop offset="1" stop-color="#7aa4e8"/></linearGradient><radialGradient xlink:href="#a" id="f" cx="6.393" cy="15.165" fx="6.393" fy="15.165" r="11.932" gradientUnits="userSpaceOnUse" gradientTransform="matrix(1.4121 -1.10457 1.0703 1.3683 -14.652 5.117)"/><linearGradient xlink:href="#b" id="g" x1="4.943" y1="20.047" x2="30.151" y2="-6.266" gradientUnits="userSpaceOnUse"/><radialGradient xlink:href="#d" id="c" gradientUnits="userSpaceOnUse" gradientTransform="matrix(1.4121 -1.10457 1.0703 1.3683 -14.652 5.117)" cx="6.393" cy="15.165" fx="6.393" fy="15.165" r="11.932"/><radialGradient xlink:href="#d" id="e" gradientUnits="userSpaceOnUse" gradientTransform="matrix(1.4121 -1.10457 1.0703 1.3683 -14.652 5.117)" cx="6.393" cy="15.165" fx="6.393" fy="15.165" r="11.932"/><clipPath id="h"><circle style="isolation:auto;mix-blend-mode:normal" cx="12" cy="1040.362" r="11.081" color="#000" overflow="visible" fill="red" fill-rule="evenodd" stroke-linecap="square" stroke-dashoffset=".85"/></clipPath></defs><g color="#000" fill-rule="evenodd"><path d="M23.932 12A11.932 11.932 0 0 1 12 23.932 11.932 11.932 0 0 1 .068 12 11.932 11.932 0 0 1 12 .068 11.932 11.932 0 0 1 23.932 12z" style="isolation:auto;mix-blend-mode:normal" overflow="visible" fill="url(#f)"/><path d="M12.047.006C5.437.006.067 5.374.067 11.984c0 6.61 5.37 11.98 11.98 11.98s11.978-5.37 11.978-11.98S18.657.006 12.047.006zm0 .963c6.09 0 11.015 4.925 11.015 11.014 0 6.09-4.926 11.016-11.015 11.016A11.008 11.008 0 0 1 1.03 11.984C1.03 5.894 5.958.97 12.048.97z" style="line-height:normal;text-indent:0;text-align:start;text-decoration-line:none;text-decoration-style:solid;text-decoration-color:#000;text-transform:none;block-progression:tb;isolation:auto;mix-blend-mode:normal" font-weight="400" font-family="sans-serif" white-space="normal" overflow="visible" opacity=".096" fill="url(#g)"/></g><g transform="translate(0 -1028.362)"><ellipse transform="translate(-.094 .046)" style="isolation:auto;mix-blend-mode:normal" cx="12.226" cy="1055.095" rx="14.844" ry="12.969" clip-path="url(#h)" color="#000" overflow="visible" fill="#500" fill-opacity=".996" fill-rule="evenodd"/><g transform="matrix(.9462 0 0 .9462 28.71 57.67)" fill="#500" color="#000"><rect ry="0" y="1038.8" x="-17.375" height="7.594" width="8.625" style="isolation:auto;mix-blend-mode:normal" overflow="visible"/><path d="M-7.268 1038.426h-11.59l5.796-3.88zM-19.91 1036.555h-7.272l3.635-6.297z" style="isolation:auto;mix-blend-mode:normal" overflow="visible"/><path d="M-18.91 1041.01h-9.272l4.635-6.296z" style="isolation:auto;mix-blend-mode:normal" overflow="visible"/><path style="isolation:auto;mix-blend-mode:normal" overflow="visible" d="M-24.03 1039.425h.968v6.938h-.97z"/></g><g transform="matrix(.9462 0 0 .9462 28.703 56.668)"><rect ry="0" y="1038.8" x="-17.375" height="7.594" width="8.625" style="isolation:auto;mix-blend-mode:normal" color="#000" overflow="visible" fill="#fff"/><path d="M-7.268 1038.426h-11.59l5.796-3.88z" style="isolation:auto;mix-blend-mode:normal" color="#000" overflow="visible" fill="#fc0"/><path d="M-19.91 1036.555h-7.272l3.635-6.297z" style="isolation:auto;mix-blend-mode:normal" color="#000" overflow="visible" fill="#fff"/><path style="isolation:auto;mix-blend-mode:normal" color="#000" overflow="visible" fill="#ccc" d="M-24.03 1039.425h.968v6.938h-.97z"/><path d="M-18.91 1041.01h-9.272l4.635-6.296z" style="isolation:auto;mix-blend-mode:normal" color="#000" overflow="visible" fill="#fff"/><path style="isolation:auto;mix-blend-mode:normal" color="#000" overflow="visible" fill="#666" d="M-14.03 1043.638h1.937v2.75h-1.938zM-16.344 1040.834h1.53v1.53h-1.53zM-11.453 1040.834h1.53v1.53h-1.53z"/><path d="M-24.917 1036.558h2.768l1.075 1.506h-4.963z" fill="#b3b3b3" fill-rule="evenodd"/><path style="isolation:auto;mix-blend-mode:normal" color="#000" overflow="visible" fill="#b3b3b3" d="M-17.355 1038.823h8.587v.842h-8.587z"/></g></g></svg>