<svg xmlns="http://www.w3.org/2000/svg" xmlns:xlink="http://www.w3.org/1999/xlink" width="24" height="24" viewBox="0 0 24 24"><defs><linearGradient id="b"><stop offset="0" stop-color="#1f58b6"/><stop offset="1" stop-color="#7aa4e8"/></linearGradient><radialGradient xlink:href="#b" id="a" gradientUnits="userSpaceOnUse" gradientTransform="matrix(1.4121 -1.10457 1.0703 1.3683 -14.652 5.117)" cx="6.393" cy="15.165" fx="6.393" fy="15.165" r="11.932"/><radialGradient xlink:href="#b" id="c" gradientUnits="userSpaceOnUse" gradientTransform="matrix(1.4121 -1.10457 1.0703 1.3683 -14.652 5.117)" cx="6.393" cy="15.165" fx="6.393" fy="15.165" r="11.932"/></defs><g transform="matrix(.0197 0 0 .0197 5.387 .02)" fill="#fff"><circle r="597.838" cy="602.617" cx="334.727" fill="#fc0"/><path d="M273.478 1203.363c-305.34-32.105-538.322-291.106-538.322-598.445C-264.844 272.844 4.5 3.5 336.574 3.5c332.073 0 601.417 269.344 601.417 601.418 0 334.296-272.418 604.317-606.4 601.06-20.148-.196-46.298-1.373-58.112-2.615zm113.726-85.683c202.993-21.382 373.73-158.054 437.78-350.433 89.08-267.56-53.932-556.868-320.918-649.21C213.81 17.644-99.4 193.786-166.51 495.15c-56.857 255.334 91.096 515.06 340.754 598.18 69.888 23.266 143.42 31.674 212.96 24.35zM280.19 987.604c-61.412-9.018-114.537-29.77-169.29-66.13C77.132 899.05 26.375 848.318 4.006 814.63c-31.083-46.81-55.797-106.522-53.29-128.76 3.243-28.77 35.78-47 60.797-34.063 9.764 5.05 21.184 18.634 23.39 27.824 11.313 47.145 53.753 112.637 96.275 148.57 106.624 90.098 250.563 102.165 367.847 30.84 64.86-39.447 111.547-97.77 136.525-170.555 10.012-29.173 22.825-40.61 45.5-40.61 21.865 0 42.147 20.142 42.147 41.854 0 22.666-25.886 82.472-54.06 124.9-33.066 49.796-96.15 105.497-150.445 132.84-74.397 37.466-159.337 51.76-238.504 40.134zM139.234 555.628c-35.506-16.608-60.317-67.015-60.317-122.544 0-55.528 24.81-105.936 60.317-122.543 65.676-30.72 128.184 63.126 107.4 161.24-11.045 52.13-45.57 90.127-81.893 90.127-7.05 0-17.675-2.616-25.507-6.28zm343.667 0c-35.505-16.608-60.317-67.015-60.317-122.544 0-55.528 24.812-105.936 60.317-122.543 65.677-30.72 128.184 63.126 107.4 161.24-11.045 52.13-45.57 90.127-81.893 90.127-7.05 0-17.675-2.616-25.507-6.28z" fill="#000"/></g></svg>