<svg xmlns="http://www.w3.org/2000/svg" xmlns:xlink="http://www.w3.org/1999/xlink" width="24" height="24" viewBox="0 0 24 24"><defs><linearGradient id="a"><stop offset="0" stop-color="#177217" stop-opacity=".996"/><stop offset="1" stop-color="#4eab46" stop-opacity=".996"/></linearGradient><linearGradient id="b"><stop offset="0"/><stop offset="1" stop-opacity="0"/></linearGradient><linearGradient id="d"><stop offset="0" stop-color="#1f58b6"/><stop offset="1" stop-color="#7aa4e8"/></linearGradient><radialGradient xlink:href="#a" id="f" cx="6.393" cy="15.165" fx="6.393" fy="15.165" r="11.932" gradientUnits="userSpaceOnUse" gradientTransform="matrix(1.4121 -1.10457 1.0703 1.3683 -14.652 5.117)"/><linearGradient xlink:href="#b" id="g" x1="4.943" y1="20.047" x2="30.151" y2="-6.266" gradientUnits="userSpaceOnUse"/><radialGradient xlink:href="#d" id="c" gradientUnits="userSpaceOnUse" gradientTransform="matrix(1.4121 -1.10457 1.0703 1.3683 -14.652 5.117)" cx="6.393" cy="15.165" fx="6.393" fy="15.165" r="11.932"/><radialGradient xlink:href="#d" id="e" gradientUnits="userSpaceOnUse" gradientTransform="matrix(1.4121 -1.10457 1.0703 1.3683 -14.652 5.117)" cx="6.393" cy="15.165" fx="6.393" fy="15.165" r="11.932"/><clipPath id="h"><circle r="11.026" cy="1040.362" cx="12" style="isolation:auto;mix-blend-mode:normal" color="#000" overflow="visible" fill="#ac9393" stroke-opacity=".428"/></clipPath></defs><g color="#000" fill-rule="evenodd"><path d="M23.932 12A11.932 11.932 0 0 1 12 23.932 11.932 11.932 0 0 1 .068 12 11.932 11.932 0 0 1 12 .068 11.932 11.932 0 0 1 23.932 12z" style="isolation:auto;mix-blend-mode:normal" overflow="visible" fill="url(#f)"/><path d="M12.047.006C5.437.006.067 5.374.067 11.984c0 6.61 5.37 11.98 11.98 11.98s11.978-5.37 11.978-11.98S18.657.006 12.047.006zm0 .963c6.09 0 11.015 4.925 11.015 11.014 0 6.09-4.926 11.016-11.015 11.016A11.008 11.008 0 0 1 1.03 11.984C1.03 5.894 5.958.97 12.048.97z" style="line-height:normal;text-indent:0;text-align:start;text-decoration-line:none;text-decoration-style:solid;text-decoration-color:#000;text-transform:none;block-progression:tb;isolation:auto;mix-blend-mode:normal" font-weight="400" font-family="sans-serif" white-space="normal" overflow="visible" opacity=".096" fill="url(#g)"/></g><g transform="translate(0 -1028.362)"><path transform="translate(.025 -.04)" style="isolation:auto;mix-blend-mode:normal" clip-path="url(#h)" color="#000" overflow="visible" fill="#250" d="M2.906 1047.612h18.438v4.75H2.906z"/><path d="M12.785 1049.123c-.255-.04-.518-.13-.586-.198-.07-.07-.147-.624-.176-1.27-.045-1.004-.073-1.138-.226-1.074-.096.042-.54.1-.99.128-.938.06-1.933-.15-2.686-.57-.262-.148-.5-.268-.527-.268-.028 0-.036.616-.017 1.37l.033 1.368-.266.1c-.365.138-1.584-.01-1.787-.206-.442-.44-1.074-2.195-1.188-3.292-.145-1.383.28-2.963 1.023-3.808l.35-.398.53.544c1.298 1.334 3.457 1.577 4.99.563.235-.155.502-.426.593-.6.18-.35.132-.34-.457.102-.747.56-2.126.774-3.14.488-1.13-.32-2.112-1.387-2.322-2.526-.262-1.417.533-2.84 1.945-3.485.382-.176.71-.226 1.467-.226 1.037 0 1.47.147 2.315.78.293.22.402.25.542.152.774-.552 1.583-.75 2.29-.558.256.07.81.357 1.23.64 1.073.722 1.467.838 1.986.585.656-.32.92-.93.973-2.247.027-.676-.015-1.387-.11-1.868l-.15-.778.258-.065c.142-.036.426-.034.63.01.336.063.388.124.538.626.446 1.5.477 3.286.075 4.42-.37 1.042-.927 1.744-2.343 2.95-2.667 2.267-3.093 3.027-3.092 5.506 0 1.025.09 1.87.272 2.59.063.248.033.313-.18.392-.4.148-1.293.213-1.8.13zm2.18-10.19c.28-.22.377-.66.202-.922-.108-.16-.514-.367-.722-.367-.275 0-.603.408-.603.75 0 .318.412.766.704.766.073 0 .26-.102.418-.226zm.168 8.654c-.225-.908-.194-3.05.054-3.77.167-.487.22-.555.288-.38.046.118.087.365.092.55.012.536.41 1.957.805 2.87.355.82.36.85.164 1.027-.11.1-.44.205-.73.233l-.53.05-.143-.58zm-7 .165c-.082-.036-.136-.27-.136-.588v-.527l.454.193c.335.14.478.276.54.504.045.17.065.328.045.348-.074.074-.77.128-.903.07zm-5.447-3.518c-.356-.207-.71-.605-.62-.697.022-.022.257.036.523.128.293.102.64.14.888.102.404-.064.406-.063.406.316 0 .367-.014.38-.406.377-.224 0-.58-.103-.792-.226z" fill="#250"/><path d="M12.658 1047.98c-.254-.04-.517-.13-.585-.2-.07-.07-.146-.623-.175-1.27-.045-1.003-.073-1.137-.226-1.072-.096.04-.542.098-.99.126-.938.06-1.934-.15-2.686-.57-.262-.147-.5-.268-.527-.268-.03 0-.037.616-.02 1.37l.035 1.37-.267.1c-.366.136-1.584-.01-1.787-.208-.44-.44-1.074-2.195-1.187-3.292-.144-1.383.28-2.963 1.024-3.808l.35-.398.53.544c1.298 1.334 3.456 1.577 4.99.563.235-.156.502-.427.592-.6.18-.352.132-.34-.457.1-.746.56-2.125.775-3.138.49-1.13-.32-2.113-1.388-2.323-2.526-.262-1.416.533-2.84 1.945-3.485.382-.175.71-.225 1.467-.225 1.036 0 1.47.147 2.315.78.292.22.4.25.54.152.775-.55 1.584-.748 2.292-.558.255.07.808.357 1.23.64 1.072.722 1.466.838 1.984.585.657-.322.92-.93.974-2.248.026-.675-.015-1.386-.11-1.868l-.152-.778.26-.065c.142-.035.426-.033.63.01.336.064.388.125.538.627.446 1.498.476 3.285.075 4.42-.368 1.04-.926 1.743-2.342 2.948-2.667 2.27-3.093 3.03-3.092 5.507 0 1.025.09 1.87.272 2.59.062.248.033.313-.18.392-.4.148-1.293.213-1.8.13zm2.18-10.19c.282-.22.378-.66.202-.922-.107-.16-.513-.37-.722-.37-.274 0-.602.41-.602.75 0 .32.412.767.704.767.073 0 .26-.1.418-.224zm.17 8.654c-.226-.91-.196-3.052.053-3.772.168-.485.22-.554.29-.38.045.12.086.366.09.55.013.537.41 1.958.806 2.87.354.82.36.85.163 1.028-.11.1-.44.206-.73.234l-.53.05-.143-.58zm-7.002.164c-.082-.036-.135-.27-.135-.587v-.527l.455.193c.333.14.477.276.538.504.046.17.066.328.046.35-.075.073-.772.126-.904.07zm-5.447-3.518c-.357-.206-.71-.605-.62-.697.022-.022.257.036.523.128.294.103.64.143.888.103.406-.064.407-.063.407.316 0 .367-.013.38-.406.377-.222 0-.578-.104-.79-.227z" fill="#fff"/><ellipse style="isolation:auto;mix-blend-mode:normal" cx="9.06" cy="1037.771" rx="2.475" ry="2.07" color="#000" overflow="visible" fill="#ccc"/><path d="M14.963 1046.4c-.225-.91-.195-3.052.054-3.773.167-.485.22-.553.288-.378.046.117.087.364.09.547.013.538.412 1.96.807 2.872.354.82.36.85.163 1.026-.11.1-.44.205-.73.233l-.528.05-.144-.58zM7.962 1046.564c-.082-.036-.136-.27-.136-.588v-.527l.455.192c.334.14.477.275.54.504.044.17.065.328.045.348-.074.074-.77.128-.903.07zM2.515 1043.046c-.356-.207-.71-.605-.618-.697.02-.023.256.035.52.127.296.102.643.14.89.102.404-.065.406-.064.406.315 0 .367-.013.38-.406.377-.223 0-.58-.103-.792-.226z" fill="#e6e6e6"/></g></svg>