<?xml version="1.0" encoding="UTF-8"?>
<!-- Created with Inkscape (http://www.inkscape.org/) -->
<svg width="84.667mm" height="25.982mm" version="1.1" viewBox="0 0 84.667 25.982" xmlns="http://www.w3.org/2000/svg" xmlns:cc="http://creativecommons.org/ns#" xmlns:dc="http://purl.org/dc/elements/1.1/" xmlns:rdf="http://www.w3.org/1999/02/22-rdf-syntax-ns#">
 <defs>
  <radialGradient id="radialGradient32262" cx="8.7959" cy="10.217" r="13.917" gradientTransform="matrix(.26916 .25844 -.19916 .19264 34.034 55.396)" gradientUnits="userSpaceOnUse">
   <stop stop-color="#163784" stop-opacity=".94118" offset="0"/>
   <stop stop-color="#10275e" stop-opacity=".99701" offset="1"/>
  </radialGradient>
  <filter id="filter1163" x="-.14967" y="-.79675" width="1.2993" height="2.5935" color-interpolation-filters="sRGB">
   <feGaussianBlur stdDeviation="0.793758"/>
  </filter>
 </defs>
 <metadata>
  <rdf:RDF>
   <cc:Work rdf:about="">
    <dc:format>image/svg+xml</dc:format>
    <dc:type rdf:resource="http://purl.org/dc/dcmitype/StillImage"/>
    <dc:title/>
   </cc:Work>
  </rdf:RDF>
 </metadata>
 <g transform="translate(-38.554 -130.55)">
  <g transform="translate(-.36297 -.028472)">
   <rect x="38.917" y="130.58" width="84.667" height="25.982" color="#000000" color-rendering="auto" fill="#fff" fill-rule="evenodd" image-rendering="auto" shape-rendering="auto" solid-color="#000000" style="isolation:auto;mix-blend-mode:normal;paint-order:markers stroke fill"/>
   <g transform="translate(-1.4381 -2.21)" fill="#05164d">
    <g transform="matrix(.48639 0 0 .48639 4.9241 124.62)" stroke-width=".74128px" style="font-feature-settings:normal;font-variant-caps:normal;font-variant-ligatures:normal;font-variant-numeric:normal" aria-label="geography by tydac.ch">
     <path d="m137.95 60.429q0-1.1717 0.49762-1.8728 0.50213-0.7057 1.3888-0.7057 0.52023 0 0.90022 0.23071 0.38452 0.22619 0.63333 0.64237l0.0633-0.78261h0.4569v4.8314q0 0.94546-0.51119 1.4928-0.51118 0.54737-1.425 0.54737-0.35285 0-0.75546-0.08595-0.39809-0.08595-0.69666-0.23524l0.14476-0.4569q0.29404 0.14024 0.61523 0.21714 0.32571 0.0769 0.68309 0.0769 0.69665 0 1.0495-0.41166t0.35285-1.1445v-0.61975q-0.24881 0.37547-0.6288 0.57904-0.38 0.19904-0.89118 0.19904-0.88213 0-1.3797-0.65594-0.49762-0.65594-0.49762-1.7507zm0.54285 0.095q0 0.88213 0.35738 1.4114 0.3619 0.52476 1.0766 0.52476 0.52928 0 0.87761-0.23976 0.35285-0.23976 0.54285-0.66047v-2.2709q-0.18095-0.42976-0.52023-0.69666-0.33928-0.27142-0.89118-0.27142-0.71475 0-1.0812 0.58809-0.3619 0.58809-0.3619 1.52z" style="font-feature-settings:normal;font-variant-caps:normal;font-variant-ligatures:normal;font-variant-numeric:normal"/>
     <path d="m145.28 62.931q-0.92285 0-1.529-0.67404-0.60618-0.67856-0.60618-1.7235v-0.24881q0-1.0495 0.60166-1.7416 0.60618-0.69213 1.4612-0.69213 0.90022 0 1.4159 0.56999 0.51571 0.56999 0.51571 1.52v0.46142h-3.4562v0.13119q0 0.82332 0.43881 1.3843 0.44332 0.55642 1.1581 0.55642 0.50213 0 0.85951-0.14024 0.35737-0.14024 0.6107-0.40261l0.23071 0.37095q-0.27594 0.28952-0.69665 0.46142-0.42071 0.16738-1.0043 0.16738zm-0.0724-4.6187q-0.59714 0-1.0088 0.46142-0.40714 0.4569-0.47499 1.149l9e-3 0.02262h2.8681v-0.13571q0-0.63785-0.37547-1.0676-0.37547-0.42976-1.0178-0.42976z" style="font-feature-settings:normal;font-variant-caps:normal;font-variant-ligatures:normal;font-variant-numeric:normal"/>
     <path d="m148.12 60.316q0-1.0812 0.59261-1.7733 0.59261-0.69213 1.5697-0.69213 0.98165 0 1.5743 0.69213 0.59261 0.69213 0.59261 1.7733v0.14928q0 1.0857-0.59261 1.7778-0.58809 0.68761-1.5652 0.68761-0.98618 0-1.5788-0.68761-0.59-0.692-0.59-1.778zm0.54285 0.14928q0 0.85046 0.42975 1.4295 0.42976 0.57904 1.1988 0.57904 0.75546 0 1.1852-0.57904 0.42975-0.57904 0.42975-1.4295v-0.149q0-0.83689-0.43428-1.4205-0.42975-0.58356-1.1897-0.58356-0.75999 0-1.1898 0.58356-0.42975 0.58356-0.42975 1.4205z" style="font-feature-settings:normal;font-variant-caps:normal;font-variant-ligatures:normal;font-variant-numeric:normal"/>
     <path d="m153.35 60.429q0-1.1717 0.49761-1.8728 0.50214-0.7057 1.3888-0.7057 0.52024 0 0.90023 0.23071 0.38452 0.22619 0.63333 0.64237l0.0633-0.78261h0.4569v4.8314q0 0.94546-0.51119 1.4928-0.51118 0.54737-1.425 0.54737-0.35285 0-0.75546-0.08595-0.39809-0.08595-0.69666-0.23524l0.14476-0.4569q0.29404 0.14024 0.61523 0.21714 0.32571 0.0769 0.68308 0.0769 0.69666 0 1.0495-0.41166 0.36-0.411 0.36-1.143v-0.61975q-0.24881 0.37547-0.6288 0.57904-0.38 0.19904-0.89118 0.19904-0.88213 0-1.3798-0.65594-0.49761-0.65594-0.49761-1.7507zm0.54285 0.095q0 0.88213 0.35738 1.4114 0.3619 0.52476 1.0766 0.52476 0.52928 0 0.87761-0.23976 0.35285-0.23976 0.54285-0.66047v-2.2709q-0.18095-0.42976-0.52023-0.69666-0.33929-0.27142-0.89118-0.27142-0.71475 0-1.0812 0.58809-0.3619 0.58809-0.3619 1.52z" style="font-feature-settings:normal;font-variant-caps:normal;font-variant-ligatures:normal;font-variant-numeric:normal"/>
     <path d="m159.69 57.941 0.0679 0.81427v0.05881q0.20809-0.45238 0.56547-0.7057 0.3619-0.25785 0.85499-0.25785 0.10405 0 0.19904 0.0181 0.0995 0.01357 0.16286 0.03167l-0.0724 0.50666-0.40261-0.02714q-0.51119 0-0.84142 0.28952-0.32571 0.285-0.46595 0.78713v2.9223l0.73737 0.05881v0.39809h-2.0131v-0.39809l0.73737-0.05881v-3.9764l-0.73737-0.05881v-0.40261h0.73737z" style="font-feature-settings:normal;font-variant-caps:normal;font-variant-ligatures:normal;font-variant-numeric:normal"/>
     <path d="m165.63 62.836q-0.0543-0.24881-0.0769-0.42976t-0.0226-0.36642q-0.27142 0.38452-0.7238 0.63785-0.45237 0.25333-1.0178 0.25333-0.71928 0-1.1128-0.37095-0.39357-0.37095-0.39357-1.0043 0-0.67856 0.58356-1.0767 0.58357-0.39809 1.5833-0.39809h1.0812v-0.6469q0-0.52475-0.33928-0.82332-0.33476-0.29857-0.94094-0.29857-0.40714 0-0.74642 0.11309-0.33475 0.10857-0.56094 0.29857l-0.0452 0.65594h-0.44785l5e-3 -0.94094q0.33928-0.26238 0.80975-0.42523 0.475-0.16286 1.0088-0.16286 0.80975 0 1.3028 0.41166 0.49309 0.41166 0.49309 1.1807v2.4066q0 0.14928 5e-3 0.28952 9e-3 0.13571 0.0317 0.2669l0.48856 0.03167v0.39809zm-1.7824-0.38452q0.58809 0 1.0359-0.27142 0.44785-0.27142 0.64689-0.70118v-0.98165h-1.0902q-0.73737 0-1.1807 0.30762-0.4388 0.30309-0.4388 0.76904 0 0.39357 0.27142 0.63785 0.27595 0.23976 0.75547 0.23976z" style="font-feature-settings:normal;font-variant-caps:normal;font-variant-ligatures:normal;font-variant-numeric:normal"/>
     <path d="m167.23 58.344v-0.40261h1.1897l0.0679 0.75999q0.24881-0.40714 0.63332-0.6288 0.38905-0.22166 0.90928-0.22166 0.88213 0 1.3797 0.7057 0.49761 0.70118 0.49761 1.8728v0.095q0 1.0993-0.49761 1.7552-0.49761 0.65142-1.3707 0.65142-0.5157 0-0.90475-0.19452-0.38451-0.19904-0.6288-0.56094v2.0809l0.73737 0.05881v0.40261h-2.0131v-0.40261l0.73737-0.05881v-5.8537zm4.1347 2.0854q0-0.93189-0.37094-1.52-0.37095-0.58809-1.0857-0.58809-0.54738 0-0.89118 0.26238-0.33928 0.25785-0.51119 0.67404v2.3523q0.18548 0.40261 0.53381 0.63332 0.35285 0.23071 0.8776 0.23071 0.71023 0 1.0767-0.5338 0.37094-0.5338 0.37094-1.4159z" style="font-feature-settings:normal;font-variant-caps:normal;font-variant-ligatures:normal;font-variant-numeric:normal"/>
     <path d="m172.59 56.181v-0.40261h1.2757v2.9992q0.24428-0.4388 0.65142-0.68309 0.40713-0.24428 0.94998-0.24428 0.77356 0 1.1852 0.47952 0.41618 0.47952 0.41618 1.4883v2.5604l0.73737 0.05881v0.39809h-2.0176v-0.39809l0.73737-0.05881v-2.5695q0-0.79618-0.31666-1.14-0.31214-0.34833-0.86404-0.34833-0.55642 0-0.93189 0.29404-0.37095 0.28952-0.54737 0.77356v2.9902l0.73737 0.05881v0.39809h-2.0131v-0.39809l0.73737-0.05881v-6.1387z" style="font-feature-settings:normal;font-variant-caps:normal;font-variant-ligatures:normal;font-variant-numeric:normal"/>
     <path d="m183.32 58.344-0.49761 0.04071-1.9769 5.234q-0.19 0.49761-0.49309 0.84594t-0.88665 0.34833q-0.095 0-0.23071-0.02262-0.13571-0.0181-0.19905-0.04071l0.0633-0.45237q0.0543 9e-3 0.1719 0.0181 0.12214 0.01357 0.1719 0.01357 0.35738 0 0.56547-0.24881t0.36642-0.6469l0.25333-0.65594-1.7371-4.3926-0.49761-0.04071v-0.40261h1.6828v0.40261l-0.58357 0.04524 1.1943 3.1214 0.1719 0.58809h0.0271l1.339-3.7095-0.59714-0.04524v-0.40261h1.6919z" style="font-feature-settings:normal;font-variant-caps:normal;font-variant-ligatures:normal;font-variant-numeric:normal"/>
     <path d="m190.42 60.524q0 1.0993-0.49761 1.7552-0.49761 0.65142-1.3707 0.65142-0.53832 0-0.92737-0.21262-0.38904-0.21714-0.6288-0.61975l-0.0588 0.73737h-0.46142v-6.5956l-0.73737-0.05881v-0.401h1.2757v2.931q0.24428-0.41166 0.62427-0.63332 0.38-0.22619 0.90475-0.22619 0.88214 0 1.3798 0.7057 0.49761 0.70118 0.49761 1.8728zm-0.54737-0.095q0-0.93642-0.3619-1.52-0.3619-0.58809-1.0676-0.58809-0.56999 0-0.91832 0.28047-0.3438 0.28047-0.51118 0.71928v2.2121q0.18095 0.42523 0.53832 0.67856 0.3619 0.24881 0.90023 0.24881 0.7057 0 1.0631-0.52476 0.35738-0.52476 0.35738-1.4114z" style="font-feature-settings:normal;font-variant-caps:normal;font-variant-ligatures:normal;font-variant-numeric:normal"/>
     <path d="m195.97 58.344-0.49761 0.04071-1.9769 5.234q-0.19 0.49761-0.49309 0.84594t-0.88665 0.34833q-0.095 0-0.23071-0.02262-0.13572-0.0181-0.19905-0.04071l0.0633-0.45237q0.0543 9e-3 0.17191 0.0181 0.12214 0.01357 0.1719 0.01357 0.35738 0 0.56547-0.24881t0.36642-0.6469l0.25333-0.65594-1.7371-4.3926-0.49761-0.04071v-0.40261h1.6828v0.40261l-0.58356 0.04524 1.1943 3.1214 0.1719 0.58809h0.0272l1.339-3.7095-0.59713-0.04524v-0.40261h1.6919z" style="font-feature-settings:normal;font-variant-caps:normal;font-variant-ligatures:normal;font-variant-numeric:normal"/>
     <path d="m200.1 56.688v1.2531h1.0767v0.44333h-1.08v3.1892q0 0.47952 0.17191 0.68309 0.17642 0.19904 0.46594 0.19904 0.13119 0 0.25333-9e-3 0.12667-0.01357 0.28952-0.04071l0.0814 0.40261q-0.13571 0.05881-0.33023 0.09047-0.19452 0.03167-0.38905 0.03167-0.5157 0-0.80522-0.32571-0.285-0.32571-0.285-1.0314v-3.1892h-0.84142v-0.443h0.84142v-1.2531z" style="font-feature-settings:normal;font-variant-caps:normal;font-variant-ligatures:normal;font-variant-numeric:normal"/>
     <path d="m206.86 58.344-0.49762 0.04071-1.9769 5.234q-0.19 0.49761-0.49309 0.84594t-0.88666 0.34833q-0.095 0-0.23071-0.02262-0.13571-0.0181-0.19904-0.04071l0.0633-0.45237q0.0543 9e-3 0.1719 0.0181 0.12214 0.01357 0.1719 0.01357 0.35738 0 0.56547-0.24881 0.2081-0.24881 0.36643-0.6469l0.25333-0.65594-1.7371-4.3926-0.49762-0.04071v-0.40261h1.6828v0.40261l-0.58356 0.04524 1.1943 3.1214 0.1719 0.58809h0.0271l1.339-3.7095-0.59714-0.04524v-0.40261h1.6919z" style="font-feature-settings:normal;font-variant-caps:normal;font-variant-ligatures:normal;font-variant-numeric:normal"/>
     <path d="m210.84 62.13q-0.24428 0.38452-0.6288 0.59261-0.38451 0.20809-0.90475 0.20809-0.8776 0-1.3752-0.65594-0.49308-0.65594-0.49308-1.7507v-0.095q0-1.1717 0.49308-1.8728 0.49762-0.7057 1.3843-0.7057 0.51119 0 0.88666 0.21714 0.37547 0.21262 0.62427 0.61071v-2.4383l-0.73737-0.05881v-0.40261h1.2802v6.6001l0.73737 0.05881v0.39809h-1.2214zm-2.8545-1.6059q0 0.88665 0.35285 1.4114 0.35738 0.52476 1.0721 0.52476 0.52023 0 0.86856-0.23524 0.35285-0.23524 0.54737-0.6469v-2.3162q-0.18095-0.41618-0.52475-0.67856-0.33928-0.26238-0.88213-0.26238-0.71475 0-1.0766 0.58809-0.35738 0.58356-0.35738 1.52z" style="font-feature-settings:normal;font-variant-caps:normal;font-variant-ligatures:normal;font-variant-numeric:normal"/>
     <path d="m216.31 62.836q-0.0543-0.24881-0.0769-0.42976t-0.0226-0.36642q-0.27142 0.38452-0.7238 0.63785-0.45237 0.25333-1.0178 0.25333-0.71928 0-1.1128-0.37095-0.39357-0.37095-0.39357-1.0043 0-0.67856 0.58356-1.0767 0.58357-0.39809 1.5833-0.39809h1.0812v-0.6469q0-0.52475-0.33928-0.82332-0.33476-0.29857-0.94094-0.29857-0.40714 0-0.74642 0.11309-0.33476 0.10857-0.56094 0.29857l-0.0452 0.65594h-0.44785l5e-3 -0.94094q0.33928-0.26238 0.80975-0.42523 0.475-0.16286 1.0088-0.16286 0.80975 0 1.3028 0.41166 0.49309 0.41166 0.49309 1.1807v2.4066q0 0.14928 5e-3 0.28952 9e-3 0.13571 0.0317 0.2669l0.48856 0.03167v0.39809zm-1.7824-0.38452q0.58808 0 1.0359-0.27142 0.44786-0.27142 0.6469-0.70118v-0.98165h-1.0902q-0.73737 0-1.1807 0.30762-0.4388 0.30309-0.4388 0.76904 0 0.39357 0.27142 0.63785 0.27595 0.23976 0.75547 0.23976z" style="font-feature-settings:normal;font-variant-caps:normal;font-variant-ligatures:normal;font-variant-numeric:normal"/>
     <path d="m220.15 62.474q0.53833 0 0.94999-0.30762t0.41166-0.85499h0.47952l9e-3 0.02714q0.0226 0.67856-0.54285 1.1355-0.56095 0.4569-1.3074 0.4569-0.99522 0-1.5426-0.68309-0.54737-0.68761-0.54737-1.7643v-0.189q0-1.0676 0.54737-1.7552 0.54738-0.68761 1.5381-0.68761 0.56547 0 1.0359 0.21262 0.47047 0.21262 0.76451 0.57904l0.0226 1.0676h-0.46142l-0.0859-0.86856q-0.21714-0.24428-0.54285-0.38452-0.32119-0.14476-0.73285-0.14476-0.78713 0-1.1671 0.56547-0.37547 0.56094-0.37547 1.4159v0.19q0 0.86856 0.37547 1.4295t1.1716 0.56094z" style="font-feature-settings:normal;font-variant-caps:normal;font-variant-ligatures:normal;font-variant-numeric:normal"/>
     <path d="m223.85 62.836h-0.61976v-0.742h0.62z" style="font-feature-settings:normal;font-variant-caps:normal;font-variant-ligatures:normal;font-variant-numeric:normal"/>
     <path d="m227.22 62.474q0.53833 0 0.94999-0.30762t0.41166-0.85499h0.47952l9e-3 0.02714q0.0226 0.67856-0.54285 1.1355-0.56095 0.4569-1.3074 0.4569-0.99522 0-1.5426-0.68309-0.54738-0.68761-0.54738-1.7643v-0.189q0-1.0676 0.54738-1.7552 0.54737-0.68761 1.5381-0.68761 0.56547 0 1.0359 0.21262 0.47047 0.21262 0.76451 0.57904l0.0226 1.0676h-0.46142l-0.0859-0.86856q-0.21714-0.24428-0.54285-0.38452-0.32119-0.14476-0.73285-0.14476-0.78713 0-1.1671 0.56547-0.37547 0.56094-0.37547 1.4159v0.19q0 0.86856 0.37547 1.4295 0.37548 0.56094 1.1716 0.56094z" style="font-feature-settings:normal;font-variant-caps:normal;font-variant-ligatures:normal;font-variant-numeric:normal"/>
     <path d="m229.93 56.181v-0.40261h1.2757v2.9992q0.24428-0.4388 0.65142-0.68309 0.40714-0.24428 0.94999-0.24428 0.77356 0 1.1852 0.47952 0.41619 0.47952 0.41619 1.4883v2.5604l0.73737 0.05881v0.39809h-2.0176v-0.39809l0.73737-0.05881v-2.5695q0-0.79618-0.31667-1.14-0.31214-0.34833-0.86403-0.34833-0.55642 0-0.93189 0.29404-0.37095 0.28952-0.54738 0.77356v2.9902l0.73737 0.05881v0.39809h-2.0131v-0.39809l0.73737-0.05881v-6.1387z" style="font-feature-settings:normal;font-variant-caps:normal;font-variant-ligatures:normal;font-variant-numeric:normal"/>
    </g>
    <g transform="matrix(.41339 0 0 .41339 43.55 129.35)" style="font-feature-settings:normal;font-variant-caps:normal;font-variant-ligatures:normal;font-variant-numeric:normal;paint-order:markers fill stroke" aria-label="map">
     <path d="m52.683 27.173v-2.7528h6.6786l0.18769 2.2366q0.81332-1.22 2.0333-1.8769 1.2356-0.67256 2.8466-0.67256 1.6266 0 2.7841 0.71948 1.1574 0.71948 1.7518 2.1741 0.78204-1.3608 2.0333-2.1272t2.9405-0.7664q2.5025 0 3.9415 1.7361 1.4546 1.7205 1.4546 5.2553v7.0384l2.2054 0.46922v2.7371h-8.7432v-2.7371l1.9707-0.46922v-7.054q0-1.9238-0.62563-2.6746-0.62563-0.75076-1.8613-0.75076-0.96973 0-1.6892 0.43794-0.70384 0.4223-1.1261 1.1887 0 0.29718 0.01564 0.51615 0.01564 0.20333 0.01564 0.4223v7.9143l1.8456 0.46922v2.7371h-8.2427v-2.7371l1.8456-0.46922v-7.054q0-1.8769-0.62563-2.6433-0.62563-0.78204-1.8769-0.78204-0.92281 0-1.6266 0.35974-0.6882 0.3441-1.1418 0.98537v9.1343l1.9707 0.46922v2.7371h-8.7276v-2.7371l2.2054-0.46922v-10.494z" style="font-feature-settings:normal;font-variant-caps:normal;font-variant-ligatures:normal;font-variant-numeric:normal;paint-order:markers fill stroke"/>
     <path d="m93.772 41.344q-0.18769-0.4223-0.32846-0.86025-0.14077-0.45358-0.21897-0.90717-0.81332 0.93845-1.9864 1.5172-1.1574 0.57871-2.6589 0.57871-2.4869 0-3.9571-1.3451-1.4546-1.3608-1.4546-3.6912 0-2.3774 1.9082-3.6756t5.5994-1.2982h2.3305v-1.6579q0-1.22-0.70384-1.8925-0.70384-0.67256-2.0802-0.67256-0.78204 0-1.392 0.18769-0.60999 0.17205-0.98537 0.4223l-0.29718 1.8143h-3.441l0.01564-3.7538q1.2513-0.84461 2.8623-1.4233 1.6266-0.57871 3.5348-0.57871 3.1438 0 5.0989 1.5484 1.9707 1.5328 1.9707 4.3794v6.9915q0 0.39102 0 0.73512 0.01564 0.3441 0.06256 0.65692l1.392 0.18769v2.7371zm-3.9571-3.05q1.0323 0 1.8769-0.43794 0.8446-0.45358 1.3138-1.1261v-2.5807h-2.3305q-1.4546 0-2.2054 0.6882-0.75076 0.67256-0.75076 1.6266 0 0.86025 0.54743 1.3451 0.56307 0.48487 1.5484 0.48487z" style="font-feature-settings:normal;font-variant-caps:normal;font-variant-ligatures:normal;font-variant-numeric:normal;paint-order:markers fill stroke"/>
     <path d="m100.23 27.173v-2.7528h6.6317l0.21897 1.9707q0.75076-1.0949 1.7987-1.6892 1.0479-0.59435 2.44-0.59435 3.1438 0 4.8799 2.4556t1.7361 6.4597v0.32846q0 3.7538-1.7361 6.0374t-4.8487 2.2836q-1.3295 0-2.3618-0.48487-1.0323-0.50051-1.7674-1.4546v4.8956l2.2054 0.46923v2.7528h-8.9622v-2.7528l2.2054-0.46923v-16.985zm13.138 5.8497q0-2.393-0.79768-3.8789-0.79769-1.4859-2.44-1.4859-1.0323 0-1.7674 0.4223-0.71948 0.4223-1.1418 1.2043v7.4138q0.4223 0.71948 1.1418 1.0949 0.73512 0.37538 1.7987 0.37538 1.6579 0 2.4243-1.2982 0.78204-1.2982 0.78204-3.5192z" style="font-feature-settings:normal;font-variant-caps:normal;font-variant-ligatures:normal;font-variant-numeric:normal;paint-order:markers fill stroke"/>
    </g>
    <g transform="matrix(.41339 0 0 .41339 38.645 129.35)" style="font-feature-settings:normal;font-variant-caps:normal;font-variant-ligatures:normal;font-variant-numeric:normal" aria-label="plus">
     <path d="m131.4 27.171v-2.7528h6.6317l0.21897 1.9707q0.75076-1.0949 1.7987-1.6892 1.0479-0.59435 2.44-0.59435 3.1438 0 4.88 2.4556 1.7361 2.4556 1.7361 6.4597v0.32846q0 3.7538-1.7361 6.0374t-4.8487 2.2836q-1.3295 0-2.3618-0.48487-1.0323-0.50051-1.7674-1.4546v4.8956l2.2054 0.46922v2.7528h-8.9622v-2.753l2.2054-0.46922v-16.986zm13.138 5.8497q0-2.393-0.79768-3.8789t-2.44-1.4859q-1.0323 0-1.7674 0.4223-0.71948 0.4223-1.1418 1.2043v7.4138q0.4223 0.71948 1.1418 1.0949 0.73512 0.37538 1.7987 0.37538 1.6579 0 2.4243-1.2982 0.78204-1.2982 0.78204-3.5192z" style="font-feature-settings:normal;font-variant-caps:normal;font-variant-ligatures:normal;font-variant-numeric:normal"/>
     <path d="m150.35 19.694v-2.7528h7.0071v21.193l2.2054 0.46922v2.7371h-8.9778v-2.7371l2.2054-0.46922v-17.97z" style="font-feature-settings:normal;font-variant-caps:normal;font-variant-ligatures:normal;font-variant-numeric:normal"/>
     <path d="m172.87 39.198q-0.81333 1.1887-2.0177 1.83-1.1887 0.64128-2.7215 0.64128-2.6746 0-4.1917-1.7049-1.5172-1.7205-1.5172-5.3335v-6.9915l-1.8613-0.46923v-2.7528h6.4284v10.245q0 1.8456 0.60999 2.6589 0.62564 0.79768 1.8456 0.79768 1.0792 0 1.8613-0.3441 0.79769-0.35974 1.2982-1.0167v-9.1186l-2.002-0.46923v-2.7528h6.5691v13.717l2.049 0.46922v2.7371h-6.053z" style="font-feature-settings:normal;font-variant-caps:normal;font-variant-ligatures:normal;font-variant-numeric:normal"/>
     <path d="m194.86 30.236h-3.0656l-0.48487-2.1115q-0.46922-0.37538-1.1887-0.62563-0.70384-0.25025-1.5641-0.25025-1.2043 0-1.9082 0.54743-0.70384 0.53179-0.70384 1.3451 0 0.7664 0.67256 1.2826 0.67255 0.50051 2.6902 0.89153 3.1438 0.62563 4.661 1.8456 1.5172 1.2043 1.5172 3.3315 0 2.2836-1.9708 3.7382-1.9551 1.439-5.1615 1.439-1.9551 0-3.5974-0.56307-1.6266-0.57871-2.8936-1.6423l-0.0469-3.8007h3.1907l0.62564 2.2054q0.40666 0.3441 1.1105 0.51615 0.70384 0.15641 1.4702 0.15641 1.392 0 2.1115-0.50051 0.73512-0.50051 0.73512-1.3608 0-0.75076-0.73512-1.2982-0.73512-0.54743-2.7059-0.96973-2.9874-0.60999-4.5202-1.7987-1.5172-1.2043-1.5172-3.2689 0-2.1272 1.7518-3.66 1.7518-1.5484 4.9894-1.5484 1.9708 0 3.7225 0.53179 1.7674 0.53179 2.7684 1.3608z" style="font-feature-settings:normal;font-variant-caps:normal;font-variant-ligatures:normal;font-variant-numeric:normal"/>
    </g>
   </g>
  </g>
 </g>
 <ellipse transform="matrix(1.0277 0 0 1.0277 -2.0903 -.29801)" cx="13.736" cy="22.536" rx="6.3641" ry="1.1955" color="#000000" color-rendering="auto" fill="#05164d" fill-opacity=".24551" fill-rule="evenodd" filter="url(#filter1163)" image-rendering="auto" shape-rendering="auto" solid-color="#000000" style="isolation:auto;mix-blend-mode:normal;paint-order:markers fill stroke"/>
 <g transform="matrix(2.6241 0 0 2.7229 -81.906 -151.54)">
  <g transform="matrix(1.0277,0,0,1.0277,-1.635,-1.675)" fill="#4698e5">
   <path d="m39.037 61.064c0.60206-0.52807 0.88713-1.0613 0.78207-1.4632l-0.03994-0.13322c0.16911 0.59463-0.39244 1.2553-0.74223 1.5963 9.8e-5 0 9.8e-5 1.98e-4 9.8e-5 1.98e-4m-0.28198-0.63573c0.68464-0.59579 0.96507-1.1947 0.75004-1.6021l-0.07582-0.13313c0.34796 0.62531-0.35568 1.4217-0.67441 1.735 9.9e-5 -9.8e-5 9.9e-5 1.98e-4 1.98e-4 1.98e-4m-0.37874-0.60988c0.73268-0.6339 0.9888-1.2909 0.65261-1.6739l-0.10988-0.11914c0.37893 0.41173 0.17596 1.0819-0.54292 1.7928 9.9e-5 0 9.9e-5 1.97e-4 1.97e-4 2.89e-4m-0.46036-0.56097c0.75294-0.64846 0.96324-1.3305 0.51148-1.6586l-0.03-0.02142-0.11296-0.07669c0.50241 0.34555 0.35771 1.0351-0.36861 1.7566 0-9.6e-5 9.9e-5 9.6e-5 9.9e-5 9.6e-5m-0.52778-0.49402c0.7568-0.63833 0.89793-1.3115 0.32819-1.5659l-0.09058-0.03714-0.08441-0.03213c0.63447 0.24233 0.57129 0.91462-0.15338 1.635 0-9.7e-5 9.8e-5 9.6e-5 1.97e-4 1.92e-4m-0.58055-0.41047c0.75139-0.60312 0.80223-1.2674 0.10669-1.3938l-0.22332-0.03251c0.77397 0.09888 0.82625 0.73866 0.11634 1.4262 9.8e-5 0 1.97e-4 9.6e-5 2.89e-4 1.92e-4m-0.61711-0.31044c0.65821-0.48601 0.70162-1.0434 0.08759-1.1253-0.05557-0.0074-0.14827-0.01447-0.27416-0.0057l-0.05402 0.0042c-0.07264 0.0081-0.16959 0.01843-0.24194 0.02894 0.88414-0.13274 1.0874 0.33629 0.71676 0.84024-0.06473 0.08808-0.14142 0.17229-0.23442 0.25748 9.9e-5 0 1.97e-4 9.6e-5 1.97e-4 9.6e-5m-0.637-0.195c0.49546-0.29587 0.60225-0.72303 0.20393-0.81612-0.13554-0.03164-0.28169-0.01379-0.3441-0.0063 0.04158-0.01727 0.12821-0.05335 0.25699-0.07418l-0.10496 0.01872c-0.22101 0.04804-0.22101 0.04804-0.33455 0.08123-0.20123 0.06376-0.20123 0.06376-0.30146 0.10293-0.18937 0.07862-0.18937 0.07862-0.28256 0.12425-0.1804 0.093-0.1804 0.093-0.26654 0.14432-0.17036 0.1064-0.17036 0.1064-0.25236 0.16496-0.05672 0.04225-0.13206 0.09898-0.18744 0.14306 0.27773-0.19738 0.27773-0.19738 0.32925-0.19207-0.041 0.06772-0.11827 0.08586-0.17683 0.12956 0.03261-0.0026 0.08084-9.6e-5 0.10756-0.0191 0.14789-0.10525 0.14789-0.10525 0.30706-0.02084-0.08181-0.04843-0.13052-0.07187-0.14885-0.08065 0.13467-0.07602 0.22362-0.11653 0.3523-0.16043-0.0035 0.05778-8.69e-4 0.10997 0.0092 0.18628-0.0072-0.07853-0.0062-0.13014 0.0041-0.19053 0.09309-0.02788 0.175-0.0463 0.27166-0.04611-0.04631 0.06213-0.09743 0.13708-0.15753 0.26326 0.05431-0.10853 0.09792-0.17731 0.1665-0.26297 0.27715 0.01447 0.23673 0.21252 0.08721 0.34246-0.02846 0.0247-0.08923 0.07081-0.17654 0.10187 0.28458-0.06396 0.54495-0.36861 0.35558-0.4917-0.06203-0.04032-0.14846-0.04148-0.18532-0.04196 0.42929-0.41983 0.79702-0.06695 0.79702 0.10013 0 0.08837-0.04245 0.2706-0.32664 0.49749 0.0011 1.93e-4 -0.0019 0.0017-0.0027 0.0024m-0.32269-0.79664c0.21088-0.05663 0.21493-0.05779 0.3252-0.07939h1e-3c-0.06936 0.01389-0.13149 0.05093-0.20152 0.0627-0.19911 0.03473-0.36523 0.0957-0.48765 0.1449 0.01862-0.0079 0.04389-0.01775 0.0627-0.02528 0.18069-0.06618 0.2132-0.07804 0.30146-0.10293m-0.44771 0.16371 0.02248-0.0098-0.0015 6.75e-4 -0.02093 0.0092m0.48042-0.13216c0.0031-5.79e-4 0.0073-0.0012 0.01052-0.0017-0.05875 0.03695-0.12396 0.08267-0.20336 0.16708-0.0022 9.7e-5 -0.0051 9.7e-5 -0.0073 1.93e-4 -0.12425 5e-3 -0.24204 0.03994-0.31979 0.06579 0.03077-0.0764 0.07274-0.1038 0.07312-0.10399 0.0019-8.68e-4 0.21609-0.09087 0.44684-0.12734m-0.52701 0.16072c0.0095-0.0041 0.02228-0.0096 0.03184-0.0136-0.01717 0.01804-0.03492 0.04167-0.04766 0.09213-0.0072 0.0027-0.01688 0.0062-0.02412 0.0089-0.13679 0.0519-0.2542 0.10988-0.39272 0.19361-0.03714-0.01312-0.05306-0.01302-0.06473-0.01109 0.06898-0.04476 0.25246-0.1639 0.49739-0.26992"/>
   <path d="m39.006 63.032c0.11509-0.11229 0.1775-0.19361 0.21098-0.23731l0.02721-0.03685c-0.06801 0.09232-0.14885 0.18522-0.24011 0.27609l0.0019-0.0019m0.16564-0.36697c0.23683-0.22149 0.40256-0.44009 0.49257-0.64981l0.01051-0.02528 0.0218-0.05402c-0.0411 0.09869-0.1502 0.36089-0.52489 0.72901 9.9e-5 -9.8e-5 0 9.9e-5 0 9.9e-5m0.06666-0.46044c0.37739-0.3442 0.59955-0.67586 0.66033-0.98572l0.01669-0.10419c-0.02325 0.1283-0.09406 0.51862-0.67702 1.0897 9.9e-5 -9.9e-5 0 9.9e-5 0 1.98e-4m-0.04167-0.53916c0.34748-0.31005 0.76008-0.78053 0.75246-1.2613l-8e-3 -0.12097c0.01399 0.42109-0.23644 0.88606-0.74454 1.3821 9.8e-5 0 9.8e-5 9.8e-5 9.8e-5 1.97e-4"/>
   <path d="m33.88 57.78c-0.16004 0.14268-0.16631 0.14827-0.24937 0.23345-0.15869 0.17104-0.16814 0.18136-0.25516 0.29114-0.15232 0.20451-0.16824 0.22583-0.26027 0.37594-0.13534 0.24001-0.15966 0.28333-0.25333 0.50144-0.10312 0.2758-0.13081 0.34999-0.20693 0.68039-0.04785 0.29375-0.08238 0.50607-0.06782 0.8989 0.04061 0.46565 0.06348 0.60901 0.21358 1.0693-0.36996-1.027-0.0901-2.1817 0.67827-3.067-0.0015-0.19728-0.0015-0.19728 0.36311-0.46836-0.15589 0.11142-0.25709 0.19766-0.34314 0.27416 0.09763-0.38067 0.15927-0.40826 0.50193-0.56126-0.11605 0.04862-0.21127 0.09608-0.31844 0.1584 0.24165-0.35327 0.28304-0.35828 0.55219-0.3906-0.11084 0.0088-0.18098 0.02412-0.24329 0.03897 0.06965-0.06203 0.11634-0.09965 0.19188-0.15464-0.08431 0.0066-0.08431 0.0066-0.4752 0.28285 0.09319-0.09174 0.15618-0.14818 0.2594-0.23259l-0.0272 0.01929-0.0602 0.05026m-1.0793 4.0505c-0.04968-0.15753-0.10968-0.36976-0.1474-0.53058l0.0064 0.03077c0.01225 0.05238 0.01843 0.07862 0.03917 0.1419 0.02556 0.12059 0.05942 0.24011 0.10187 0.3579m-0.21358-1.0693c-9.65e-4 -0.10033-0.0043-0.23413-6.75e-4 -0.33436l4.82e-4 -0.01293c5.79e-4 -0.01138 0.0014-0.02663 0.0021-0.03801-3.86e-4 0.01264-0.0011 0.02942-0.0014 0.04216-6.75e-4 0.0791-0.0018 0.22641 0.052 0.41279-3e-3 0.12965 0.0028 0.25921 0.01775 0.388l-0.01138-0.03762c-0.02084-0.07708-0.0492-0.18271-0.05885-0.42002m0.06782-0.8989c0.07997-0.33552 0.08152-0.34188 0.1474-0.52653l-5e-3 0.0137c-0.02306 0.06676-0.02306 0.06676-0.13573 0.51292-0.01341 0.05335-0.02306 0.09512-0.03502 0.16313 0.0095-0.06425 0.019-0.11914 0.02836-0.16322m-0.04216 0.33118c0.0027-0.0984 0.05393-0.28545 0.08373-0.38047-5.78e-4 0.01167-0.0014 0.0273-2e-3 0.03897-0.0034 0.13042 0.0049 0.2185 0.03155 0.33668-0.03145 0.12782-0.0546 0.2568-0.06917 0.38616l-0.0063-0.02402c-0.0138-0.05875-0.04254-0.18098-0.03782-0.35732m0.76268-1.889c0.04235-0.05113 0.09821-0.12001 0.1422-0.16978l-6e-3 0.0067c-0.03048 0.03473-0.11162 0.12686-0.19641 0.24513-0.0015 0.0023-0.19265 0.27918-0.24677 0.37324 0.01399-0.02373 0.0327-0.05557 0.04669-0.0793 0.13592-0.21127 0.16824-0.26153 0.26027-0.37594m-0.39108 0.61122 0.01235-0.02402 0.0014-0.0028c0.06068-0.11702 0.11779-0.19381 0.14837-0.23509-0.0074 0.0138-0.01466 0.02769-0.022 0.04158-0.02605 0.05151-0.07467 0.1475-0.11663 0.27378-0.02942 0.08885-0.02605 0.18705-0.07688 0.26973-0.05451 0.08856-0.10178 0.1775-0.1448 0.27195 0.01351-0.08827 0.04524-0.2951 0.19815-0.59512m-0.20982 0.71802c0.0012-0.02257 0.0041-0.08258 0.1666-0.36137-8.68e-4 0.01032-0.0021 0.02402-3e-3 0.03425-0.0051 0.08856-0.0047 0.15599 0.01206 0.25863-0.05836 0.12213-0.10891 0.24657-0.15126 0.37266l-3e-3 -0.01408c-0.0098-0.05209-0.02817-0.14895-0.02142-0.29008m0.89156-1.6483c5.79e-4 -5.79e-4 0.06492-0.05749 0.183-0.11075-5.79e-4 4.82e-4 -0.0012 0.0012-0.0017 0.0016-0.09425 0.09126-0.17837 0.18628-0.24995 0.28246-0.02769 0.03724-0.04592 0.08113-0.0792 0.1147-0.0016 0.0016-0.0045 0.0033-0.0065 0.0046-0.11075 0.08046-0.18397 0.15281-0.21512 0.18377 0.04148-0.06849 0.15184-0.25014 0.36948-0.47646m-0.39735 0.5245c4.82e-4 -6.75e-4 0.08576-0.09705 0.23316-0.21059-3.86e-4 5.79e-4 -8.68e-4 0.0014-0.0013 2e-3 -0.05875 0.09531-0.13689 0.24445-0.17509 0.41327-0.0057 0.02547-0.0057 0.02547-0.0602 0.08508-0.08759 0.09579-0.13959 0.16197-0.18532 0.22159 0.01235-0.07023 0.04515-0.25661 0.18869-0.51138m-0.19882 0.59058c0.0017-0.01872 0.0062-0.06849 0.24503-0.33176-0.0014 0.0084-0.0031 0.01958-0.0043 0.02788-0.0078 0.0629-0.01109 0.11075-0.0061 0.18348-0.08383 0.11258-0.16033 0.22863-0.22902 0.34748l-0.0012-8e-3c-0.0048-0.04003-0.0138-0.11441-0.0044-0.21908"/>
  </g>
  <circle transform="matrix(1.0277 0 0 1.0277 -.83198 -1.675)" cx="35.504" cy="60.387" r="2.1616" color="#000000" color-rendering="auto" fill="#fffffd" fill-rule="evenodd" image-rendering="auto" shape-rendering="auto" solid-color="#000000" style="isolation:auto;mix-blend-mode:normal;paint-order:markers fill stroke"/>
  <path d="m35.366 56.812-0.05576 0.0042c-0.07475 0.0071-0.174 0.02018-0.24854 0.02974l-0.03824 0.0064-0.10781 0.01911c-0.0095 0.0018-0.01882 0.0047-0.02708 0.0064 0.02208-0.0042 0.05464-0.01137 0.06798-0.01328-0.0042 9.25e-4 -0.0096 0.0023-0.01381 0.0032-0.07138 0.01478-0.14518 0.03309-0.21933 0.0547-0.16497 0.04819-0.30334 0.10372-0.35529 0.12534-0.01031 0.0043-0.02351 0.01228-0.03452 0.01434-0.03341 0.0065-0.06842 0.0013-0.10143 0.01168 0.0083-0.0033 0.01965-0.0094 0.02974-0.01328l-0.05045 0.02018c0.0062-0.0022 0.0131-0.0045 0.01911-0.0064-0.02075 0.0081-0.05806 0.02587-0.07488 0.03293 0.02086-0.0054 0.04418-0.0077 0.07966-0.0022-0.01269 0.0059-0.0299 0.01315-0.04249 0.01911-0.32458 0.15119-0.56092 0.31114-0.65004 0.37122-0.01721-0.04425-0.01544-0.04721 0.02709-0.07541-0.03262 0.02128-0.04517 0.02689-0.13171 0.08604-0.05869 0.04282-0.13558 0.10239-0.19278 0.14711l-0.06213 0.05152c-0.09161 0.07822-0.09131 0.07835-0.25598 0.24005-0.02463 0.02542-0.0492 0.0572-0.06586 0.07488-0.04062 0.05373-0.06972 0.11587-0.11524 0.16623-0.24016 0.26604-0.36272 0.47345-0.4153 0.564-0.01921 0.03441-0.04518 0.07775-0.0616 0.11046-0.03419 0.06808-0.06918 0.1453-0.13224 0.28519-0.015 0.03928-0.01817 0.05403-0.03026 0.08656 0.02164-0.05425 0.04335-0.10873 0.06904-0.16251 0.0062-0.0123 0.01454-0.0286 0.02071-0.04089-0.03866 0.10786-0.04679 0.22467-0.09665 0.32926-0.12516 0.26254-0.16483 0.44614-0.18375 0.54064-0.04916 0.27501-0.05817 0.47514-0.05895 0.6819 0.0026 0.06398 0.0046 0.12814 0.0037 0.19225-5.13e-4 0.03326 1e-3 0.05596 0.0022 0.08178 0.01596 0.18423 0.03366 0.32684 0.05789 0.45141-0.02082-0.11435-0.02628-0.20174-0.02656-0.30165 3.37e-4 -0.01348 6.65e-4 -0.03123 1e-3 -0.04461 0.0059 0.02925 0.01828 0.09019 0.0393 0.16623 0.05948 0.21534 0.05957 0.21533 0.05948 0.23208-0.0014 0.26342 0.0555 0.43455 0.08285 0.51674 0.03138 0.08633 0.06901 0.17114 0.1094 0.25545-0.06437-0.17952-0.09274-0.33804-0.09506-0.54488 1.98e-4 -0.01358 3.33e-4 -0.03166 5.3e-4 -0.04515 0.02033 0.04134 0.05393 0.11063 0.11312 0.20978 0.08338 0.13969 0.08338 0.13926 0.08338 0.17525 2.99e-4 0.27968 0.06705 0.4648 0.0956 0.54382l0.01062 0.02708c0.05097 0.07561 0.10565 0.14779 0.16304 0.21774-0.09503-0.2301-0.1109-0.42281-0.11365-0.581 9.9e-5 -0.01289-1e-4 -0.03056 0-0.04354 0.09637 0.11609 0.16327 0.18824 0.2751 0.29581-9.9e-5 0.01229-5.31e-4 0.0285-5.31e-4 0.04089 0.0012 0.30277 0.08564 0.50333 0.11737 0.57887-0.014-0.01224-0.03021-0.02666-0.04621-0.04089 0.27312 0.26398 0.59437 0.47819 0.95009 0.6341 0.61683 0.27024 1.3323 0.36894 2.0574 0.27988 0.1363-0.02 0.24048-0.03772 0.38875-0.07063l0.0027 0.0022c0.09897-0.02159 0.19729-0.04813 0.29581-0.077-0.0014-7.07e-4 -3e-3 -0.0015-0.0042-0.0022 0.1466-0.04382 0.28955-0.10002 0.43442-0.14923 0.09083-0.03723 0.18244-0.07139 0.27191-0.11524-0.03192 0.0123-0.06852 0.02585-0.12215 0.02709-2e-3 -1.02e-4 -4e-3 0-0.0059 0 0.03242-0.0067 0.07548-0.01585 0.10781-0.02284l0.02018-0.0042c-0.09696 0.0146-0.17027 0.0223-0.17048 0.0223-2.99e-4 0-0.03624-0.0058-0.06638-0.03665-9.25e-4 -0.0012-0.0022-0.0026-0.0032-0.0037 0.09547 0.0095 0.14094 0.0128 0.23314 0.01752l0.0069 5.44e-4c-0.10152-0.01645-0.15249-0.02642-0.25916-0.04993-0.01038-0.02697-0.01233-0.05708-0.0064-0.09188 2.99e-4 -0.0013 3.26e-4 -0.0029 5.44e-4 -0.0042 0.09537 0.05522 0.15111 0.08633 0.23845 0.13224l0.02656 0.01381v-5.44e-4l-0.03133-0.04248c0.0028 0.0097 0.0096 0.02131 0.01487 0.02974-0.08239-0.06503-0.13648-0.10855-0.23155-0.18747 0.01438-0.03321 0.01852-0.0421 0.03983-0.077 0.01805-0.02747 0.02197-0.03262 0.04408-0.06108 0.05832 0.11081 0.08915 0.23556 0.1641 0.3383 0.02604-0.06586 0.02639-0.06693 0.03028-0.07276 0.0092-0.01407 0.03031-0.04234 0.06798-0.07595 4.34e-4 -4.36e-4 0.0012-0.0012 0.0016-0.0016-0.03619 0.0579-0.0547 0.08541-0.09347 0.14074l-0.0064 0.0096c0.22334-0.26829 0.23247-0.27897 0.44026-0.31652 0.22092-0.03985 0.40893 0.07852 0.21402 0.36166 0.0034-4e-3 0.08353-0.09688 0.11684-0.19225 0.09131-0.26074-0.17327-0.36493-0.51461-0.20234 0.09705-0.15624 0.15359-0.26125 0.23261-0.43336 0.15119-0.05492 0.26571-0.07348 0.33511-0.07913 0.37416-0.03023 0.65714 0.22045 0.18959 0.75253 0.03896-0.04203 0.12983-0.14041 0.20181-0.26235 0.27858-0.47201-0.03769-0.76083-0.65057-0.59427 0.06603-0.17657 0.10248-0.29362 0.14976-0.48168 0.04015-0.0105 0.11485-0.03004 0.20765-0.04461 0.65115-0.10172 1.0313 0.22946 0.55922 0.88477l0.02815-0.03771c0.01815-0.02537 0.04199-0.05933 0.05895-0.0855 0.42799-0.66285 0.04932-1.0908-0.81042-0.91557 0.03519-0.19015 0.05185-0.3144 0.06851-0.51249 0.89306-0.19759 1.3615 0.118 1.1142 0.75041l0.01115-0.02602 0.0223-0.05523c0.25588-0.67168-0.22246-1.0405-1.137-0.8768 0.0053-0.19035 0.0024-0.34844-0.01115-0.52789 0.90981-0.18529 1.4419 0.07679 1.3558 0.66756l0.017-0.10728c0.05165-0.38456-0.14339-0.58102-0.31599-0.67818-0.34412-0.19382-0.72036-0.06197-1.0791-0.10728-0.02815-0.23437-0.06896-0.42041-0.08869-0.50983 0.90852-0.17845 1.4763 0.03301 1.5189 0.5656l-0.0085-0.1248c-0.055-0.56-0.638-0.802-1.564-0.647-0.036-0.132-0.062-0.218-0.107-0.349-0.02409-0.0688-0.03158-0.08942-0.05736-0.15773 0.86302-0.16864 1.443-0.01481 1.5911 0.4222 0.0031 0.0089 0.0068 0.02123 0.0096 0.03028l-0.04143-0.13702c-0.15387-0.47538-0.75086-0.66182-1.6384-0.51143-0.08011-0.18371-0.13688-0.2983-0.23314-0.4716 0.81017-0.16041 1.3749-0.04534 1.59 0.32396l-0.07806-0.13702c-0.13348-0.21926-0.52094-0.5583-1.6182-0.36587-0.10806-0.17002-0.1767-0.26692-0.29368-0.41424 0.72333-0.14236 1.2284-0.06925 1.5008 0.21668l-0.11312-0.12268c-0.19511-0.1964-0.61594-0.39762-1.512-0.24058-0.09755-0.10816-0.18518-0.19878-0.3213-0.31705 0.60148-0.1157 1.0362-0.07651 1.3282 0.11949l-0.0308-0.0223-0.1163-0.0786c-0.28939-0.1849-0.7314-0.22729-1.3134-0.12587-0.13027-0.09805-0.20196-0.1449-0.33352-0.21827 0.57254-0.10746 0.85888-0.04405 1.0632 0.03239l-0.09347-0.03824-0.08656-0.03293c-0.07505-0.02627-0.30342-0.10608-0.72864-0.06851-0.24369 0.02142-0.24385 0.02135-0.6187-0.07967 0.28572-0.05155 0.48969-0.0589 0.70314-0.02549l-0.22996-0.03346c-0.11986-0.01278-0.14826-0.01585-0.91451 0.01063 0.08338-0.01369 0.12544-0.01924 0.20871-0.02602zm1.8205 6.6538c0.1494-0.04322 0.21707-2.4e-4 0.22996 0.04993h5.44e-4c0.01517-0.09151-0.09466-0.11525-0.23049-0.04993zm-0.27191 0.11524c-0.02467 0.01007-0.04907 0.0217-0.07382 0.03133 0.03207-0.01248 0.06473-0.0207 0.09666-0.03399h-0.0016c-0.0022 2.02e-4 -0.0046 4.36e-4 -0.0069 5.45e-4h-5.44e-4c-0.0022 1.01e-4 -0.0048-6.81e-4 -0.0069 0-0.0023 7.6e-4 -0.0046 0.0013-0.0069 0.0022zm-0.07382 0.03133c-0.07378 0.02869-0.1476 0.05471-0.22199 0.07913 0.07441-0.02443 0.14819-0.05043 0.22199-0.07913zm-0.22199 0.07913c-0.04471 0.01469-0.08949 0.02774-0.13436 0.04089 0.0027 0.0013 0.0057 0.0027 8e-3 0.0037 0.04244-0.01253 0.08409-0.03072 0.1264-0.04461zm-0.43017 0.1179c-0.05535 0.01208-0.11085 0.02151-0.16623 0.03133 0.05707-0.01007 0.114-0.01564 0.17101-0.02815zm-0.16623 0.03133c-0.0725 0.01285-0.14482 0.02709-0.21721 0.03611 0.07239-9e-3 0.14472-0.02326 0.21721-0.03611zm-3.2327-0.87681c-0.02325-0.02247-0.04706-0.04422-0.06958-0.06745 0.0077 0.0079 0.01454 0.0166 0.0223 0.02443l0.02284 0.02124c0.0073 0.0066 0.01595 0.01422 0.02443 0.02178zm-0.069-0.067c-0.03376-0.03483-0.06565-0.07132-0.09771-0.10781 0.03203 0.03645 0.06398 0.07302 0.09771 0.10781zm-0.09771-0.10781c-0.02177-0.02478-0.04384-0.04934-0.0648-0.07488 6.8e-4 0.0016 9.07e-4 0.0031 0.0016 0.0048 0.02005 0.02438 0.0424 0.04643 0.0632 0.0701zm-0.22783-0.29262c-0.0014-0.0022-0.0033-0.0041-0.0048-0.0064 0.0022 0.0033 0.0041 0.0068 0.0064 0.01007zm-0.0048-0.0064c-0.05152-0.07687-0.10006-0.15593-0.14445-0.23845 0.04441 0.0825 0.09298 0.16164 0.14445 0.23845zm-0.14448-0.23841c-0.02148-0.03987-0.0396-0.08069-0.05895-0.12108 1e-3 0.0029 1e-3 0.0055 0.0022 0.0085 0.01814 0.03757 0.0368 0.07541 0.05682 0.11259zm-0.32449-0.94531c0.0016 0.0092 0.0029 0.01743 0.0048 0.02709-0.0017-0.0084-0.0031-0.01855-0.0048-0.02709zm0.0048 0.02709c0.0072 0.03538 0.01743 0.07266 0.02602 0.10781-0.0087-0.03583-0.01994-0.07707-0.02602-0.10781zm0.02602 0.10781c0.01 0.04127 0.0188 0.08048 0.03293 0.13064-0.01296-0.04567-0.02245-0.08775-0.03293-0.13064zm0.03293 0.13064c0.02464 0.08684 0.05353 0.18152 0.08975 0.29634-0.03772-0.11742-0.06612-0.21241-0.08975-0.29634zm-0.121-0.717c-0.0027-0.03063-0.0059-0.05192-0.0085-0.0855l0.0096 0.12693c-5.99e-4 -0.01131-5.21e-4 -0.02834-1e-3 -0.04143zm1e-3 0.04143c1.16e-4 0.0022-1.12e-4 0.0059 0 8e-3l0.0032 0.03771zm-0.0096-0.12693c-6.54e-4 -0.06754 0.0025-0.12651 0.0027-0.18853-0.0021-0.05179-0.0052-0.10376-0.0032-0.1556-5.95e-4 0.1031-0.0037 0.24113 5.31e-4 0.34414zm0.0616-0.87043c0.0034-0.01893 0.0047-0.03388 0.0085-0.05363l-0.01487 0.07913c1e-3 -0.0052 0.0051-0.01937 0.0064-0.0255zm0.0085-0.05363c0.06557-0.27549 0.09578-0.38056 0.18216-0.61286-0.09072 0.22737-0.14902 0.45174-0.18216 0.61286zm0.34467-0.98461c5.37e-4 -1e-3 5.29e-4 -0.0022 1e-3 -0.0032l-0.0074 0.01487c0.0018-0.0036 0.0042-0.0075 0.0064-0.01168zm0.0616-0.11046c0.02075-0.03718 0.03495-0.06592 0.06639-0.11949l-0.0478 0.08125-0.0064 0.01222c-0.0089 0.01616-0.01505 0.02719-0.02337 0.04354 2e-3 -0.0034 0.0089-0.01373 0.01115-0.01752zm0.06639-0.11949c0.06574-0.10216 0.09935-0.15323 0.13118-0.20022-0.04297 0.06061-0.07766 0.11293-0.13118 0.20022zm0.13118-0.20022c0.03298-0.04651 0.06856-0.09462 0.13649-0.18588-0.06103 0.07848-0.09588 0.12594-0.13649 0.18588zm0.13649-0.18588c0.12061-0.14535 0.14665-0.17172 0.1965-0.22464 0.0052-0.0069 0.0091-0.01472 0.01487-0.02124-0.0076 8e-3 -0.0153 0.0162-0.02284 0.02443-0.08109 0.08814-0.18754 0.22027-0.18853 0.22146zm0.90495-0.82423c0.0036-0.0024 0.01097-0.0074 0.01434-0.0096-0.0039 0.0026-0.0067 0.0038-0.01063 0.0064-0.0023 0.0015-0.0016 0.0018-0.0037 0.0032zm0.01434-0.0096c0.10086-0.06596 0.1927-0.11714 0.27456-0.16092-0.0371 0.01958-0.0555 0.02684-0.16145 0.0871-0.03884 0.02318-0.08664 0.05679-0.11312 0.07382zm0.27456-0.16092c0.01711-9e-3 0.05451-0.03057 0.07435-0.04036-0.02494 0.01259-0.04563 0.025-0.07435 0.04036zm0.07435-0.04036c0.03666-0.01851 0.05954-0.02951 0.08604-0.04195-0.02252 0.01043-0.01615 0.0066-0.0478 0.02124-0.01312 0.0064-0.02803 0.01568-0.03824 0.02071zm0.08604-0.04195c0.06418-0.02973 0.10584-0.04714 0.13649-0.06001-0.01481 0.0039-0.02831 9e-3 -0.04408 0.01593l-0.01434 0.0064c-0.0138 0.0063-0.05407 0.02642-0.07806 0.03771zm0.86937-0.28944c-0.07904 0.01517-0.19244 0.0405-0.31705 0.077 0.19768-0.05308 0.22016-0.05791 0.31705-0.077zm0.23633-0.02124c0.04863 0.0012 0.12029 0.0073 0.21402 0.02761-0.0047 0.0011-0.01068 0.0026-0.01541 0.0037-0.33896 0.07723-0.61824 0.19586-0.72332 0.24058-0.06157-0.02597-0.11487-0.04483-0.18853-0.05841 0.15783-0.06731 0.37329-0.15215 0.63888-0.21084 4.35e-4 -1.02e-4 0.02572-0.0039 0.07435-0.0027zm0.31652 0.06373c0.04194-0.01 0.24329 0.08788 0.30802 0.12268-0.0049 0.0012-0.01153 0.0025-0.01646 0.0037-0.3804 0.09121-0.68835 0.22211-0.80405 0.27138-0.05909-0.04133-0.13028-0.08997-0.22942-0.14233 0.18192-0.07921 0.43081-0.17971 0.74191-0.25545zm0.43123 0.19544c0.10281 0.06622 0.19821 0.13743 0.29953 0.22358-0.0049 0.0013-0.01206 0.0024-0.017 0.0037-0.39894 0.09735-0.72629 0.23689-0.84972 0.28944-0.10826-0.1042-0.18227-0.1658-0.2597-0.22677 0.19769-0.08675 0.46819-0.19778 0.81042-0.28572 0.0048-0.0013 0.01163-3e-3 0.01646-0.0042zm-1.5757 0.0059c0.02935 0.0109 0.07667 0.03074 0.14923 0.07595-0.01487 0.0071-0.03452 0.01628-0.04939 0.02337-0.3804 0.18301-0.65431 0.36997-0.75731 0.44026-0.04868-0.07267-0.06654-0.10508-0.07435-0.11896 0.23655-0.1617 0.43569-0.27786 0.68721-0.3999 0.01338-0.0063 0.03123-0.01434 0.04461-0.02071zm0.23261 0.13277c0.08854 0.06514 0.16324 0.13278 0.19119 0.15826-0.01636 0.0079-0.03845 0.01854-0.0547 0.02656-0.41936 0.20512-0.71927 0.40987-0.8322 0.487-0.0927-0.12224-0.11927-0.15917-0.13702-0.18375 0.26728-0.1847 0.49354-0.31885 0.78174-0.4631 0.01526-0.0074 0.03571-0.01756 0.05098-0.02496zm1.7669 0.19809c0.10915 0.10598 0.19137 0.19558 0.29368 0.31971-0.0047 0.0012-0.0112 3e-3 -0.01593 0.0042-0.4032 0.10023-0.74995 0.24776-0.86406 0.29634-0.06454-0.07832-0.14467-0.17371-0.27722-0.3128 0.20582-0.09101 0.48788-0.20737 0.84706-0.30324 0.0048-0.0013 0.01163-3e-3 0.01646-0.0042zm-2.8397 0.05789c-0.03857 0.16884-0.27507 0.16553-0.30006 0.34626 0.2084-0.17667 0.25533-0.20271 0.29687-0.22571 0.01 0.0465 0.02622 0.09129 0.03505 0.13808-0.12284 0.0917-0.19943 0.15242-0.31493 0.25067-0.1266 0.10995-0.23708 0.23774-0.37122 0.33936-0.0096-0.27521 0.33012-0.33006 0.36432-0.57781-0.12958 0.11054-0.20873 0.18414-0.32502 0.30271 0.03509-0.07868 0.05103-0.09549 0.38025-0.4084l0.0015-0.0016c0.17775-0.14517 0.19034-0.14957 0.23314-0.16357zm1.3654 0c0.10281 0.1036 0.19143 0.20237 0.22464 0.24005-0.01706 0.0084-0.03967 0.01962-0.05682 0.02815-0.44118 0.21791-0.75544 0.43232-0.87362 0.51302-0.0015-0.0025-0.0016-3e-3 -0.19331-0.24961 0.21067-0.14593 0.45872-0.30802 0.84388-0.50452 0.01656-0.0082 0.03867-0.01886 0.05523-0.02708zm-1.278 0.371c0.02578 0.05492 0.04241 0.09166 0.09347 0.18694-0.13622 0.10291-0.21648 0.16737-0.34467 0.27722 0.02042 0.04154 0.04756 0.09708 0.06798 0.13861 0.12809-0.11163 0.21303-0.18093 0.34945-0.28572 0.06553 0.11362 0.0869 0.149 0.16304 0.26926-0.13979 0.10648-0.22678 0.17685-0.35794 0.28997 0.03153 0.05056 0.07362 0.11779 0.10515 0.16835 0.13096-0.1151 0.21792-0.18672 0.35741-0.29528 0.10975 0.16834 0.12211 0.1866 0.21827 0.32927-0.13949 0.10737-0.22668 0.17871-0.35794 0.29262 0.04173 0.05929 0.0974 0.13818 0.13914 0.19756 0.12878-0.11431 0.21393-0.18562 0.35104-0.29368 0.10479 0.15297 0.16326 0.23694 0.26023 0.37494-0.13612 0.10479-0.21678 0.1704-0.34467 0.28094-0.16358 0.14405-0.2635 0.23885-0.41052 0.39034-0.11163-0.13582-0.17522-0.21612-0.27297-0.3452 0.1493-0.15813 0.2503-0.25724 0.41636-0.40734-0.04174-0.05929-0.0974-0.13817-0.13914-0.19756-0.16864 0.14921-0.27138 0.24758-0.42327 0.40521-0.08715-0.12343-0.13948-0.20161-0.21562-0.32236 0.15089-0.15902 0.2531-0.25886 0.42114-0.40946-0.03153-0.05056-0.07319-0.11779-0.10462-0.16835-0.16794 0.14762-0.27035 0.24544-0.42114 0.40149-0.03738-0.06692-0.08218-0.14927-0.14286-0.27934 0.14663-0.15396 0.24598-0.25031 0.40946-0.39565-0.02052-0.04154-0.04809-0.09654-0.06851-0.13808-0.1378 0.12065-0.24905 0.27063-0.40946 0.36591-0.03936-0.11381-0.05037-0.16669-0.06108-0.21774 0.13721-0.14336 0.23036-0.23267 0.38344-0.3675 0.26639-0.2298 0.27339-0.23147 0.33883-0.24536zm1.6219 0.0053c0.11808 0.14395 0.17816 0.22404 0.25014 0.3213-0.01725 0.0085-0.04064 0.01962-0.05789 0.02815-0.44464 0.22198-0.76235 0.43886-0.88212 0.52045-0.05671-0.07525-0.05704-0.07531-0.24164-0.31493 0.21752-0.15089 0.47445-0.31899 0.87468-0.5263 0.01705-0.0086 0.03977-0.02005 0.05682-0.02867zm1.5449 0.03824c0.10707 0.14623 0.17133 0.24276 0.27404 0.41318-0.0044 0.0011-0.01055 0.0026-0.01487 0.0037-0.39944 0.10211-0.72267 0.23938-0.84441 0.29103-0.1042-0.15496-0.17492-0.2541-0.28041-0.393 0.30823-0.13751 0.56268-0.23057 0.85078-0.31068 0.0045-0.0012 0.01035-0.0029 0.01487-0.0042zm-3.9878 0.35423c-0.0061 0.02111-0.01684 0.06029-0.02496 0.1163-0.01566 0.10707-0.016 0.10695-0.03028 0.12321-0.27769 0.31616-0.42008 0.56604-0.47372 0.66013 0.0231-0.16656 0.04962-0.3551 0.50983-0.87787 0.0059-0.0066 0.01326-0.0152 0.01911-0.02178zm2.82 0.10568c0.09597 0.1385 0.16189 0.23818 0.26182 0.39512-0.01675 0.0083-0.03901 0.01919-0.05576 0.02761-0.43304 0.21732-0.74083 0.42567-0.85662 0.50399-0.0918-0.12402-0.14843-0.20016-0.27563-0.3691 0.20601-0.14356 0.47053-0.31844 0.86937-0.52842 0.01705-0.0087 0.03977-0.02037 0.05682-0.02921zm1.5476 0.13914c0.0914 0.17032 0.14646 0.2834 0.22677 0.46522-0.0039 1e-3 -0.0094 0.0022-0.01328 0.0032-0.37703 0.09528-0.68377 0.22363-0.79927 0.27191-0.09191-0.16923-0.15074-0.27087-0.25226-0.43495 0.20076-0.08913 0.47542-0.20419 0.8237-0.30165 0.0042-0.0012 0.01017-0.0025 0.01434-0.0037zm-4.3989 0.11312c0.0073 0.08694 0.01935 0.1598 0.04354 0.26023-0.0067 0.0077-0.01562 0.01831-0.0223 0.02602-0.29534 0.34174-0.4422 0.601-0.50505 0.71164-0.0297-0.17003-0.02569-0.28426-0.02549-0.28466 0.0013-0.0027 0.15495-0.30037 0.48806-0.6888 0.0065-0.0073 0.01477-0.01703 0.02124-0.02443zm3.239 0.34626c0.09814 0.16299 0.15853 0.26731 0.24854 0.42911-0.01577 0.0077-0.03691 0.01811-0.05258 0.02602-0.4035 0.20145-0.69363 0.39525-0.80298 0.46841-0.10489-0.14871-0.17565-0.24715-0.28094-0.3914 0.28047-0.19312 0.52939-0.34388 0.83326-0.50399 0.01636-0.0084 0.03834-0.01972 0.0547-0.02815zm-3.1461 0.08178c0.04115 0.12155 0.0769 0.20512 0.12162 0.30059-0.0069 8e-3 -0.01595 0.01854-0.02284 0.02656-0.30248 0.35423-0.45402 0.62186-0.51886 0.73607-0.03223-0.07316-0.07406-0.17392-0.11312-0.30696 0.14524-0.25776 0.30237-0.48284 0.51036-0.7297 0.0068-0.0079 0.01595-0.01864 0.02283-0.02656zm4.6156 0.1264c0.02597 0.06742 0.03287 0.0862 0.05736 0.15401 0.04521 0.12819 0.07212 0.21165 0.111 0.34361-0.34432 0.08724-0.60006 0.19266-0.73766 0.24907-0.05344-0.12293-0.08898-0.20128-0.14658-0.32183-0.02865-0.0592-0.03979-0.08118-0.06904-0.13967 0.19947-0.08715 0.44111-0.18862 0.78493-0.28519zm-5.2975 0.31121c-0.0012 0.02548-0.0035 0.07274-0.0016 0.13649 0.0016 0.05799 0.01618 0.11527 0.01381 0.17366-5.96e-4 0.01547-0.01562 0.03266-0.0223 0.04674-0.1617 0.34878-0.19931 0.60193-0.21349 0.6973-0.01953-0.19778-0.04653-0.46843 0.20181-1.009 0.0066-0.01359 0.0152-0.03156 0.02178-0.04515zm0.89964 0.05311c0.08218 0.15129 0.1441 0.2494 0.20022 0.33723-7e-3 8e-3 -0.01595 0.01896-0.02284 0.02709-0.29831 0.35393-0.4492 0.62143-0.51355 0.73554-0.11321-0.16398-0.17567-0.27837-0.20234-0.32714 0.14673-0.26193 0.3055-0.49193 0.51567-0.74563 0.0069-0.0082 0.01585-0.01897 0.02284-0.02709zm3.2932 0.07328c0.03063 0.05889 0.04006 0.07677 0.0701 0.13596h-5.43e-4c0.05957 0.11867 0.09703 0.19517 0.15295 0.31493-0.29841 0.14891-0.48539 0.2571-0.76953 0.44398-0.07177-0.10707-0.11704-0.17388-0.19278-0.28412h5.44e-4c-0.03658-0.05304-0.047-0.06714-0.08338-0.11949 0.2994-0.20264 0.50697-0.32687 0.82263-0.49124zm-1.5592 0.11153c0.09121 0.12829 0.15648 0.21865 0.27882 0.38768-0.12511 0.09596-0.20279 0.15933-0.32077 0.26076 0.05037 0.06266 0.11745 0.14605 0.16782 0.20871 0.11262-0.09904 0.18723-0.16097 0.30749-0.25545 0.02795 0.03887 0.05596 0.07797 0.08391 0.11684 0.06633 0.0921 0.13259 0.18439 0.19862 0.27669-0.11203 0.08585-0.18193 0.14262-0.28731 0.23314-0.13701 0.11986-0.22028 0.19868-0.3436 0.32449-0.09112-0.09319-0.14533-0.14956-0.23208-0.24058-0.03153-0.03321-0.06268-0.06653-0.094-0.09984 0.05711-0.05978 0.16329-0.17106 0.31864-0.31174 0.01438-0.01309 0.03385-0.03003 0.04833-0.04302-7.8e-5 -9.7e-5 7.7e-5 -4.36e-4 0-5.45e-4 -0.05034-0.06263-0.11797-0.14625-0.16835-0.20871-0.15278 0.13384-0.24596 0.22194-0.38397 0.36272-0.11887-0.13176-0.19318-0.2156-0.3059-0.34626 0.14246-0.1497 0.23929-0.24376 0.39831-0.38662 0.12254-0.10806 0.20348-0.17558 0.33404-0.27828zm2.8901 0.16145c0.0457 0.18668 0.07224 0.31673 0.10515 0.51461-0.0029 8.16e-4 -0.0067 0.0013-0.0096 0.0022v5.44e-4c-0.29821 0.07644-0.5482 0.18078-0.63039 0.21509-0.02935-0.09368-0.08227-0.25264-0.16941-0.47531 0.09091-0.04026 0.36761-0.16235 0.69358-0.25386 0.0033-9.24e-4 0.0074-0.0023 0.01062-0.0032zm-5.4759 0.11418c0.02746 0.11818 0.05488 0.20739 0.10197 0.32874-0.0068 0.01448-0.01572 0.03333-0.0223 0.0478-0.1618 0.35661-0.20085 0.61611-0.21562 0.71376-0.11857-0.30932-0.16285-0.42476 0.11365-1.0425 0.0068-0.01427 0.01562-0.03352 0.0223-0.0478zm1.1928 0.0871c0.0927 0.13146 0.15607 0.2167 0.26235 0.35104-0.0067 0.0077-0.0152 0.01821-0.02178 0.02602-0.28424 0.33728-0.42938 0.59063-0.49124 0.69889-0.11322-0.12214-0.17707-0.19614-0.27404-0.31758 0.14385-0.25717 0.29896-0.48318 0.5024-0.73182 0.0068-0.0081 0.01563-0.01854 0.0223-0.02655zm3.2762 0.20128c0.08824 0.20462 0.12121 0.29008 0.18694 0.45991-0.01219 0.0062-0.02869 0.01402-0.04089 0.02018-0.30436 0.15317-0.53122 0.30432-0.61658 0.36113-0.17459-0.27789-0.17449-0.27815-0.25757-0.40574 0.23238-0.15853 0.4368-0.28184 0.68296-0.41212 0.01348-0.0071 0.03166-0.01638 0.04515-0.02337zm-4.2725 0.25332c0.06245 0.12502 0.11675 0.22073 0.19437 0.34148-0.0065 0.01427-0.01487 0.03342-0.02124 0.0478-0.15654 0.35304-0.19563 0.60856-0.21031 0.70474-0.12769-0.18301-0.19862-0.32887-0.19862-0.32927 0-0.0024 0.01928-0.27168 0.21349-0.71642 0.0067-0.01447 0.01562-0.03386 0.0223-0.04832zm5.4154 0.07541c0.02697 0.22386 0.03455 0.37992 0.03876 0.51514-0.0022 6.24e-4 -0.0051 0.0015-0.0074 0.0022-0.17806 0.04858-0.3341 0.10351-0.52098 0.18322-0.03539-0.17379-0.06937-0.31619-0.11418-0.47531 0.21236-0.09547 0.39018-0.16195 0.5948-0.22252 0.0026-8.16e-4 0.0064-0.0018 9e-3 -0.0027zm-3.9857 0.02815c0.10985 0.12849 0.18369 0.21151 0.30484 0.34148-0.0062 0.0073-0.01412 0.0167-0.02018 0.02389-0.26153 0.31011-0.3957 0.5435-0.45301 0.64313-0.12987-0.11243-0.20906-0.18468-0.32555-0.2974 0.13364-0.23704 0.28409-0.45492 0.47266-0.68562 0.0064-0.0077 0.01487-0.01788 0.02124-0.02549zm1.829 0.2889c0.05067 0.07128 0.15586 0.21952 0.27403 0.38875-0.09498 0.07346-0.15378 0.12179-0.2427 0.19862-0.10053 0.08863-0.18535 0.1946-0.29846 0.26926-0.10796-0.10638-0.21702-0.21167-0.32449-0.31864 0.1152-0.12095 0.19325-0.19711 0.32183-0.3128 0.09865-0.08715 0.1644-0.14199 0.26979-0.22518zm1.2831 0.03983c0.07872 0.22544 0.12684 0.39271 0.14498 0.45566-0.01 5e-3 -0.02306 0.01132-0.03293 0.01646-0.24696 0.1273-0.4219 0.24621-0.49656 0.29687-0.10489-0.19201-0.17554-0.31348-0.2257-0.39785 0.19947-0.13751 0.3654-0.23941 0.5725-0.35104 0.01131-0.0061 0.02631-0.01412 0.03771-0.02018zm-4.1976 0.12374c0.09477 0.12442 0.16063 0.20307 0.26979 0.32342-0.0061 0.01348-0.01464 0.03103-0.02071 0.04461-0.14643 0.33152-0.18478 0.5727-0.19915 0.66331-0.11272-0.10747-0.17956-0.17811-0.27563-0.29103 0.03599-0.23794 0.09535-0.43899 0.205-0.69358 0.0063-0.01408 0.01444-0.03255 0.02071-0.04673zm1.5821 0.08922c0.03153 0.03222 0.05124 0.05221 0.09506 0.09612 0.08625 0.08596 0.14356 0.14232 0.23686 0.23155-0.17627 0.21028-0.2969 0.3809-0.41636 0.58949-0.10033-0.07109-0.16383-0.11756-0.26129-0.19172-0.04481-0.0345-0.05725-0.04404-0.10197-0.07913 0.15962-0.28304 0.31604-0.48561 0.4477-0.64632zm3.5295 0.15932c-0.0033 0.18212-0.01294 0.32751-0.03346 0.5008-0.0016 5.17e-4 -0.0041 0.0011-0.0059 0.0016-0.12313 0.03579-0.25616 0.08621-0.39565 0.14976-0.01229-0.15902-0.02804-0.2927-0.0547-0.46044 0.0691-0.03242 0.25221-0.11798 0.48222-0.18906 0.0021-7.07e-4 0.0052-0.0021 0.0074-0.0027zm-1.7759 0.18588c0.16487 0.23893 0.17796 0.25804 0.25598 0.37334-0.07544 0.05969-0.12229 0.09909-0.19278 0.16145-0.09161 0.08278-0.14697 0.1369-0.22836 0.22305-0.08555-0.0803-0.18278-0.1712-0.32396-0.30643 0.09468-0.10122 0.15916-0.16509 0.26554-0.26235 0.08169-0.07337 0.13614-0.11897 0.22358-0.18906zm-2.8758 0.08497c0.116 0.11153 0.19535 0.18221 0.32661 0.29156-0.0055 0.01238-0.01314 0.02914-0.01859 0.04143-0.13265 0.30158-0.16781 0.52082-0.1811 0.6033-0.13434-0.09091-0.21608-0.15176-0.33723-0.24961 0.0346-0.22108 0.08964-0.40728 0.19066-0.64313 0.0059-0.01308 0.01379-0.03047 0.01965-0.04354zm3.9422 0.03293c0.04164 0.16903 0.06432 0.27555 0.09347 0.43814-0.0073 0.0039-0.01713 0.0092-0.02443 0.01328-0.18142 0.09904-0.31162 0.1921-0.3606 0.2273-0.06563-0.14008-0.10918-0.22809-0.18641-0.37759 0.15555-0.11094 0.28501-0.19354 0.4477-0.28466 9e-3 -0.0049 0.02123-0.01153 0.03027-0.01646zm-2.2842 0.0547c0.08417 0.07674 0.08439 0.07676 0.34573 0.30696-0.0045 0.0054-0.01045 0.01271-0.01487 0.01806-0.19204 0.23278-0.29059 0.40975-0.32767 0.47638-0.13741-0.08229-0.21322-0.12746-0.38662-0.24058 0.10648-0.19045 0.21975-0.35752 0.36697-0.54063 0.0049-0.0062 0.01143-0.01402 0.01646-0.02018zm2.9305 0.34679c-0.02994 0.1726-0.06138 0.3088-0.10887 0.47-0.0011 4.34e-4 -0.0025 0.0012-0.0037 0.0016-0.08179 0.02925-0.16881 0.06786-0.25863 0.11524 0.0113-0.14732 0.0141-0.27194 0.01007-0.43017 0.08833-0.0454 0.19958-0.09893 0.35582-0.15454 0.0015-4.08e-4 0.0039-0.0015 0.0053-0.0022zm-4.0399 0.03239c0.04501 0.03381 0.0562 0.04224 0.1025 0.07595 0.09765 0.07009 0.16257 0.11448 0.26607 0.18269-0.09488 0.22029-0.13647 0.35656-0.17048 0.56188-0.10876-0.05264-0.17369-0.0859-0.27828-0.14339-0.0466-0.02598-0.06075-0.03387-0.10675-0.06054 0.03738-0.22544 0.08295-0.37527 0.18694-0.61658zm2.7159 0.02018c0.08962 0.13612 0.14418 0.22106 0.22518 0.34945-0.05323 0.04451-0.08592 0.07328-0.13489 0.11949-0.06325 0.06097-0.10122 0.10082-0.15614 0.16357-0.10965-0.09835-0.18355-0.16532-0.3043-0.27616 0.07059-0.07921 0.11918-0.12932 0.19968-0.20606 0.06206-0.05799 0.10336-0.09437 0.17048-0.15029zm-1.0526 0.08285c0.06245 0.05146 0.16675 0.13747 0.34679 0.27775-0.0035 0.0043-0.0076 0.01007-0.01115 0.01434-0.14554 0.18391-0.21337 0.31288-0.24589 0.37494-0.06484-0.03222-0.19998-0.09902-0.39459-0.20659 0.08139-0.15238 0.17418-0.29315 0.29156-0.44345 0.0039-0.0051 0.0091-0.01186 0.01328-0.017zm1.8556 0.10993c0.01943 0.1494 0.02961 0.26745 0.03505 0.40734-0.0044 0.0029-0.01045 0.0067-0.01487 0.0096-0.10906 0.0688-0.18384 0.13114-0.2119 0.15454-0.044-0.125-0.078-0.209-0.136-0.344 0.10459-0.0812 0.19405-0.14307 0.30855-0.21296 0.0064-0.0038 0.01487-0.0089 0.02124-0.01274zm-2.906 0.19809c0.06751 0.04026 0.20792 0.12391 0.39618 0.22146-0.0038 0.0089-0.0089 0.0207-0.01274 0.02974-0.08904 0.21672-0.11031 0.37341-0.11843 0.4323-0.05185-0.01666-0.19661-0.06505-0.41849-0.15667 0.02419-0.16844 0.06415-0.31141 0.13861-0.49284 0.0044-0.01007 0.01056-0.02381 0.01487-0.03399zm-1.3914 0.04832c0.12135 0.09686 0.20319 0.15599 0.33723 0.24323 0 0.0111-9.9e-5 0.02606 0 0.03717 0.0026 0.27264 0.07528 0.4463 0.10622 0.52045-0.22207-0.12076-0.32854-0.20204-0.32874-0.20234-0.0011-0.0019-0.10711-0.1997-0.11471-0.55869 9.8e-5 -0.01199 0-0.02793 0-0.03983zm2.9937 0.07807c0.12948 0.09676 0.21048 0.15556 0.33352 0.2427-0.0023 0.0032-0.0051 0.0075-0.0074 0.01062-0.08357 0.11679-0.12432 0.20082-0.1503 0.26129-0.14722-0.05799-0.23846-0.09623-0.39034-0.16463 0.07247-0.15059 0.15132-0.26466 0.20446-0.33723 0.0029-0.0038 0.0072-0.0087 0.01007-0.01274zm0.83857 0.01434c0.07693 0.12759 0.12 0.20108 0.18375 0.3144-0.03311 0.03321-0.04075 0.04147-0.0701 0.07488-0.03659 0.04391-0.04481 0.05492-0.07435 0.09825-0.10043-0.08556-0.1695-0.14546-0.2735-0.23686 0.04282-0.05472 0.07269-0.08936 0.12374-0.14339 0.047-0.04807 0.05922-0.06019 0.11046-0.10728zm0.81573 0.07435c-0.09825 0.27105-0.1875 0.4233-0.188 0.4238-0.03152 0.01923-0.06967 0.04379-0.11418 0.08285 0.03618-0.12987 0.05957-0.24151 0.08019-0.38556 0.02736-0.01745 0.11041-0.07052 0.21827-0.11949 1e-3 -4.34e-4 0.0028-0.0012 0.0037-0.0016zm-2.6028 0.1333c0.14118 0.06603 0.26013 0.11764 0.41052 0.17791-0.0026 0.0069-6e-3 0.01595-0.0085 0.02284-0.06127 0.16636-0.07161 0.28476-0.07541 0.32926-0.07822-0.01665-0.22366-0.04766-0.4376-0.10834 0.01547-0.13483 0.04422-0.24935 0.09984-0.39459 0.0033-0.0082 0.0079-0.01886 0.01115-0.02709zm2.2889 0.05152c-0.0038 0.18291-0.02358 0.35571-0.03399 0.3675-0.03589 0.04055-0.04881 0.06982-0.05363 0.08073-0.02449-0.10896-0.04381-0.17928-0.08178-0.30112 0.05086-0.05116 0.09656-0.09162 0.15773-0.13861 0.0035-0.0026 0.0082-0.0059 0.01168-0.0085zm-3.76 0.03346c0.04501 0.02479 0.06105 0.03337 0.10675 0.05736 0.1038 0.05354 0.17201 0.08647 0.27988 0.13436 0.0042 0.19531 0.02719 0.31168 0.0956 0.47903-0.10668-0.03381-0.17291-0.05797-0.27403-0.09772-0.07465-0.03023-0.19976-0.0806-0.20818-0.57303zm2.9459 0.06904c0.12056 0.08109 0.1952 0.13015 0.30802 0.20075-9.24e-4 0.0016-0.0018 0.0037-0.0027 0.0053-0.03501 0.07158-0.04055 0.1169-0.04302 0.13861-0.1385-0.03886-0.22906-0.06727-0.37281-0.11684 0.02577-0.07525 0.05846-0.14266 0.10515-0.2188 0.0016-0.0027 0.0038-0.0065 0.0053-9e-3zm-0.80192 0.12258c0.15545 0.05453 0.25484 0.08626 0.40999 0.13118-0.0013 0.0046-0.0025 0.01088-0.0037 0.01541-0.02897 0.11044-0.02448 0.18533-0.02284 0.21349-0.16764-0.01477-0.2754-0.02799-0.44345-0.05417 0.0035-0.09656 0.01881-0.17914 0.05311-0.28572 0.0021-0.0061 0.0048-0.01412 0.0069-0.02018zm-1.4934 0.10728c0.06305 0.0231 0.23067 0.08417 0.4222 0.13702 3e-4 0.0077 6.66e-4 0.01831 1e-3 0.02602 0.0092 0.18807 0.06578 0.31178 0.0871 0.35848-0.19323-0.02786-0.30694-0.05278-0.4153-0.07806-0.05939-0.13513-0.0864-0.25469-0.094-0.41371-1.98e-4 -0.0089-7.64e-4 -0.0208-1e-3 -0.02974zm2.1609 0.09134c0.15525 0.03628 0.248 0.05508 0.39671 0.07966 2.99e-4 0.0022 7.62e-4 0.0048 1e-3 0.0069 0.0076 0.04977 0.02981 0.07712 0.03824 0.08763-0.16259 0.0075-0.26853 0.0088-0.43548 0.0042-0.01151-0.05393-0.01231-0.10238-0.0027-0.16623 6.26e-4 -0.0037 0.0014-0.0085 0.0022-0.01222zm-1.4562 0.11684c0.15228 0.03362 0.28096 0.05637 0.44345 0.07967 5.17e-4 0.0058 0.0015 0.01336 0.0022 0.01911 0.01596 0.1386 0.06441 0.22735 0.08285 0.26076-0.11708 7.07e-4 -0.25123-4.08e-4 -0.4392-0.01487-0.05145-0.10449-0.07673-0.19738-0.08763-0.3213-4.35e-4 -0.0071-0.0012-0.01638-0.0016-0.02337zm1.9251 0.08763c0.0017-2.06e-4 0.0038 0.0028 0.0053 0.0037 0.03678 0.02409 0.07561 0.03003 0.09028 0.03239-0.16745 0.05135-0.27608 0.08016-0.4477 0.11843-0.04005-0.03103-0.06612-0.06144-0.08922-0.10515-0.0012-0.0025-0.0025-6e-3 -0.0037-0.0085 0.14891-0.0079 0.29643-0.0286 0.44504-0.04089zm-1.1896 0.0255c0.17082 0.01422 0.2805 0.01929 0.45141 0.02124 1e-3 0.0036 0.0022 0.0082 0.0032 0.01168 0.02509 0.08298 0.06819 0.13315 0.08445 0.15189-0.17072 0.02577-0.28013 0.03796-0.45035 0.05045-0.0451-0.07009-0.06997-0.13344-0.08604-0.2188-8.16e-4 -0.0048-0.0019-0.01163-0.0027-0.01646z" fill="url(#radialGradient32262)"/>
 </g>
</svg>
