<?xml version="1.0" encoding="utf-8"?>
<!-- Generator: Adobe Illustrator 15.0.2, SVG Export Plug-In . SVG Version: 6.00 Build 0)  -->
<!DOCTYPE svg PUBLIC "-//W3C//DTD SVG 1.1//EN" "http://www.w3.org/Graphics/SVG/1.1/DTD/svg11.dtd">
<svg version="1.1"
	 id="Ebene_1" xmlns:dc="http://purl.org/dc/elements/1.1/" xmlns:cc="http://creativecommons.org/ns#" xmlns:rdf="http://www.w3.org/1999/02/22-rdf-syntax-ns#"
	 xmlns="http://www.w3.org/2000/svg" xmlns:xlink="http://www.w3.org/1999/xlink" x="0px" y="0px" width="32px" height="32px"
	 viewBox="0 0 32 32" enable-background="new 0 0 32 32" xml:space="preserve">
<path fill="#333333" d="M8.697,1.395c-2.017,0-3.651,1.635-3.651,3.651v21.908c0,2.017,1.635,3.651,3.651,3.651h14.605
	c2.017,0,3.651-1.636,3.651-3.651V5.046c0-2.017-1.635-3.651-3.651-3.651H8.697z"/>
<path fill="#CCCCCC" d="M8.697,3.22h14.605c1.009,0,1.826,0.817,1.826,1.826v21.908c0,1.009-0.817,1.826-1.826,1.826H8.697
	c-1.008,0-1.826-0.817-1.826-1.826V5.046C6.872,4.038,7.689,3.22,8.697,3.22z"/>
<path fill="#333333" d="M9.798,23.461c-0.356-0.141-0.643-0.417-0.8-0.768c-0.355-0.707-0.237-1.416,0.146-2.012
	c0.361-0.561,0.96-1.035,1.638-1.438c0.858-0.485,1.765-0.881,2.706-1.178c0.731-1.313,1.378-2.67,1.939-4.064
	c-0.335-0.762-0.598-1.554-0.785-2.365c-0.157-0.73-0.217-1.453-0.084-2.074c0.137-0.646,0.5-1.227,1.187-1.503
	c0.351-0.14,0.73-0.219,1.101-0.14c0.375,0.079,0.694,0.324,0.87,0.666c0.16,0.3,0.218,0.65,0.232,0.982
	c0.012,0.342-0.021,0.721-0.087,1.121c-0.152,0.932-0.493,2.071-0.949,3.277c0.505,1.077,1.104,2.108,1.788,3.078
	c0.813-0.063,1.63-0.034,2.437,0.091c0.664,0.119,1.34,0.354,1.754,0.85c0.217,0.262,0.352,0.582,0.363,0.945
	c0.016,0.35-0.086,0.695-0.252,1.027c-0.145,0.307-0.367,0.568-0.646,0.76c-0.273,0.18-0.602,0.268-0.931,0.253
	c-0.603-0.026-1.194-0.36-1.702-0.763c-0.619-0.512-1.179-1.096-1.664-1.732c-1.234,0.139-2.454,0.387-3.646,0.741
	c-0.546,0.966-1.17,1.888-1.864,2.757c-0.529,0.639-1.11,1.193-1.69,1.438C10.524,23.561,10.145,23.577,9.798,23.461z M12.315,19.99
	c-0.303,0.139-0.583,0.285-0.838,0.435c-0.599,0.355-0.988,0.699-1.181,0.999c-0.171,0.266-0.175,0.456-0.073,0.659
	c0.019,0.039,0.036,0.065,0.047,0.08c0.022-0.005,0.044-0.013,0.064-0.022c0.25-0.101,0.648-0.428,1.16-1.043
	C11.785,20.742,12.059,20.372,12.315,19.99z M15.31,17.563c0.61-0.144,1.225-0.261,1.842-0.352c-0.332-0.509-0.643-1.032-0.93-1.567
	C15.937,16.292,15.632,16.932,15.31,17.563L15.31,17.563z M19.775,18.386c0.272,0.296,0.539,0.546,0.793,0.747
	c0.438,0.348,0.744,0.462,0.91,0.469c0.045,0.004,0.09-0.006,0.127-0.027c0.078-0.061,0.136-0.141,0.172-0.229
	c0.066-0.11,0.103-0.235,0.109-0.364c-0.002-0.043-0.019-0.084-0.049-0.116c-0.095-0.112-0.365-0.276-0.945-0.382
	C20.523,18.421,20.15,18.389,19.775,18.386L19.775,18.386z M16.143,11.983c0.153-0.496,0.275-1,0.365-1.511
	c0.057-0.343,0.078-0.627,0.068-0.85c0.002-0.122-0.018-0.245-0.057-0.361c-0.092,0.011-0.183,0.036-0.267,0.073
	c-0.159,0.063-0.289,0.194-0.358,0.516c-0.073,0.351-0.054,0.857,0.084,1.501C16.023,11.553,16.078,11.766,16.143,11.983
	L16.143,11.983L16.143,11.983z"/>
</svg>
