<?xml version="1.0" encoding="utf-8"?>
<!-- Generator: Adobe Illustrator 15.0.2, SVG Export Plug-In . SVG Version: 6.00 Build 0)  -->
<!DOCTYPE svg PUBLIC "-//W3C//DTD SVG 1.1//EN" "http://www.w3.org/Graphics/SVG/1.1/DTD/svg11.dtd">
<svg version="1.1"
	 id="Ebene_1" xmlns:dc="http://purl.org/dc/elements/1.1/" xmlns:cc="http://creativecommons.org/ns#" xmlns:rdf="http://www.w3.org/1999/02/22-rdf-syntax-ns#"
	 xmlns="http://www.w3.org/2000/svg" xmlns:xlink="http://www.w3.org/1999/xlink" x="0px" y="0px" width="32px" height="32px"
	 viewBox="0 0 32 32" enable-background="new 0 0 32 32" xml:space="preserve">
<path fill="#333333" d="M15.406,21.626c0.326,0.327,0.858,0.329,1.186,0.003c0.001-0.001,0.001-0.001,0.002-0.003l3.354-3.355
	c0.328-0.327,0.328-0.858,0-1.187c-0.327-0.327-0.858-0.327-1.187,0l-1.923,1.924v-6.363c0-0.463-0.376-0.838-0.839-0.838
	c-0.464,0-0.839,0.375-0.839,0.838v6.363l-1.923-1.924c-0.327-0.327-0.859-0.327-1.188,0c-0.328,0.328-0.328,0.859,0,1.187
	L15.406,21.626z"/>
<path fill="#333333" d="M9.971,9.024C11.646,7.579,13.786,6.78,16,6.773c4.512,0,8.259,3.355,8.666,7.682
	c2.671,0.378,4.755,2.613,4.755,5.358c0,3.012-2.513,5.413-5.557,5.413H8.922c-3.478,0-6.343-2.741-6.343-6.176
	c0-2.959,2.124-5.408,4.936-6.028C7.754,11.574,8.686,10.132,9.971,9.024z M11.066,10.295c-1.271,1.095-1.936,2.416-1.936,3.449
	v0.751l-0.745,0.082c-2.344,0.257-4.129,2.182-4.129,4.474c0,2.46,2.063,4.498,4.665,4.498h14.942c2.169,0,3.879-1.697,3.879-3.735
	c0-2.041-1.71-3.738-3.879-3.738h-0.839v-0.838c0-3.724-3.12-6.786-7.025-6.786c-1.813,0.007-3.562,0.662-4.934,1.846V10.295z"/>
</svg>
