<?xml version="1.0" encoding="utf-8"?>
<!-- Generator: Adobe Illustrator 15.0.2, SVG Export Plug-In . SVG Version: 6.00 Build 0)  -->
<!DOCTYPE svg PUBLIC "-//W3C//DTD SVG 1.1//EN" "http://www.w3.org/Graphics/SVG/1.1/DTD/svg11.dtd">
<svg version="1.1"
	 id="Ebene_1" xmlns:dc="http://purl.org/dc/elements/1.1/" xmlns:cc="http://creativecommons.org/ns#" xmlns:rdf="http://www.w3.org/1999/02/22-rdf-syntax-ns#"
	 xmlns="http://www.w3.org/2000/svg" xmlns:xlink="http://www.w3.org/1999/xlink" x="0px" y="0px" width="32px" height="32px"
	 viewBox="0 0 32 32" enable-background="new 0 0 32 32" xml:space="preserve">
<path fill="#333333" d="M20.146,31.35h-8.293c-0.499,0-0.903-0.404-0.903-0.902v-6.984l-0.031,0.092
	c-0.088,0.252-0.284,0.453-0.535,0.549c-0.25,0.094-0.531,0.071-0.764-0.062L7.225,22.68c-0.393-0.222-0.56-0.699-0.394-1.117
	c1.199-3.02,1.8-5.195,2.238-6.787c0.65-2.357,1.021-3.7,2.591-4.247c-0.979-1.064-1.553-2.477-1.553-3.987
	c0-3.248,2.644-5.891,5.892-5.891c3.249,0,5.894,2.643,5.894,5.891c0,1.511-0.572,2.922-1.554,3.987
	c1.571,0.546,1.94,1.889,2.593,4.247c0.438,1.591,1.039,3.768,2.237,6.787c0.166,0.418-0.001,0.896-0.394,1.117l-2.396,1.361
	c-0.232,0.133-0.514,0.154-0.764,0.061c-0.252-0.095-0.447-0.295-0.535-0.549l-0.031-0.091v6.983
	C21.05,30.945,20.646,31.35,20.146,31.35z M12.758,29.543h6.484v-11.43c0-0.441,0.318-0.817,0.753-0.891
	c0.426-0.072,0.858,0.176,1.004,0.594l1.433,4.119l0.773-0.439c-1.048-2.732-1.604-4.74-2.016-6.239
	c-0.871-3.153-0.887-3.213-3.088-3.213H17.93c-0.43,0-0.8-0.303-0.885-0.725c-0.085-0.421,0.139-0.845,0.535-1.011
	c1.521-0.64,2.505-2.118,2.505-3.768c0-2.252-1.833-4.085-4.086-4.085s-4.084,1.833-4.084,4.085c0,1.649,0.982,3.128,2.503,3.768
	c0.396,0.166,0.621,0.59,0.535,1.011c-0.085,0.422-0.455,0.725-0.885,0.725h-0.17c-2.202,0-2.218,0.06-3.088,3.213
	c-0.413,1.499-0.968,3.507-2.016,6.239l0.774,0.439L11,17.816c0.145-0.418,0.574-0.666,1.004-0.594
	c0.434,0.072,0.753,0.448,0.753,0.891L12.758,29.543L12.758,29.543z"/>
</svg>
