<?xml version="1.0" encoding="utf-8"?>
<!-- Generator: Adobe Illustrator 15.0.2, SVG Export Plug-In . SVG Version: 6.00 Build 0)  -->
<!DOCTYPE svg PUBLIC "-//W3C//DTD SVG 1.1//EN" "http://www.w3.org/Graphics/SVG/1.1/DTD/svg11.dtd">
<svg version="1.1" id="svg4460" xmlns="http://www.w3.org/2000/svg" xmlns:xlink="http://www.w3.org/1999/xlink" x="0px" y="0px"
	 width="32px" height="32px" viewBox="0 0 32 32" enable-background="new 0 0 32 32" xml:space="preserve">
<path fill="#333333" d="M6.236,6.146h-3.72c-0.153,0-0.292-0.092-0.35-0.234C2.108,5.77,2.141,5.607,2.25,5.499l2.535-2.511h-2.61
	c-0.209,0-0.378-0.169-0.378-0.378s0.169-0.378,0.378-0.378h3.529c0.153,0,0.292,0.092,0.35,0.234
	c0.058,0.142,0.025,0.305-0.083,0.413L3.435,5.39h2.801c0.209,0,0.378,0.169,0.378,0.378S6.445,6.146,6.236,6.146z"/>
<polygon fill="#333333" points="29.82,30.016 3.251,30.016 3.251,8.415 5.161,8.415 5.161,28.105 29.82,28.105 "/>
<path fill="#333333" d="M6.231,23.581l4.494-7.063c0.138-0.217,0.357-0.369,0.608-0.422c0.251-0.053,0.513-0.003,0.727,0.14
	l3.261,2.174l6.384-6.874c0.198-0.212,0.483-0.319,0.771-0.303c0.289,0.021,0.553,0.173,0.717,0.412l6.793,9.888v5.501H6.231V23.581
	z"/>
</svg>
