<?xml version="1.0" encoding="utf-8"?>
<!-- Generator: Adobe Illustrator 15.0.2, SVG Export Plug-In . SVG Version: 6.00 Build 0)  -->
<!DOCTYPE svg PUBLIC "-//W3C//DTD SVG 1.1//EN" "http://www.w3.org/Graphics/SVG/1.1/DTD/svg11.dtd">
<svg version="1.1"
	 id="Ebene_1" xmlns:dc="http://purl.org/dc/elements/1.1/" xmlns:cc="http://creativecommons.org/ns#" xmlns:rdf="http://www.w3.org/1999/02/22-rdf-syntax-ns#"
	 xmlns="http://www.w3.org/2000/svg" xmlns:xlink="http://www.w3.org/1999/xlink" x="0px" y="0px" width="32px" height="32px"
	 viewBox="0 0 32 32" enable-background="new 0 0 32 32" xml:space="preserve">
<path fill="#333333" d="M23.964,3.121c0.147-0.148,0.388-0.148,0.535-0.001c0,0.001,0,0.001,0,0.001L26.5,5.122l2.001-2.001
	c0.147-0.148,0.388-0.148,0.535,0s0.147,0.387,0,0.535l-2.002,2.001l2.002,2.001c0.147,0.148,0.147,0.387,0,0.535
	s-0.388,0.148-0.535,0L26.5,6.191l-2.001,2.001c-0.147,0.148-0.388,0.148-0.535,0c-0.147-0.147-0.147-0.387,0-0.535l2.001-2.001
	l-2.001-2.001C23.816,3.508,23.814,3.269,23.964,3.121C23.963,3.121,23.963,3.121,23.964,3.121z"/>
<g>
	<path fill="#333333" d="M15.581,5.937c0.262-0.14,0.575-0.14,0.837,0l13.36,7.126c0.435,0.231,0.599,0.771,0.367,1.205
		c-0.084,0.155-0.211,0.283-0.367,0.365l-13.36,7.127c-0.262,0.14-0.575,0.14-0.837,0L2.22,14.633
		c-0.434-0.23-0.598-0.771-0.366-1.205c0.083-0.155,0.21-0.283,0.366-0.365L15.581,5.937z"/>
	<path fill="#333333" d="M5.534,18.42L2.22,20.188c-0.434,0.232-0.598,0.772-0.366,1.207c0.083,0.153,0.21,0.282,0.366,0.365
		l13.361,7.126c0.262,0.14,0.575,0.14,0.837,0l13.36-7.126c0.435-0.233,0.599-0.772,0.367-1.207
		c-0.084-0.153-0.211-0.282-0.367-0.365l-3.313-1.768l-9.21,4.909c-0.786,0.419-1.727,0.419-2.512,0L5.534,18.42z"/>
</g>
</svg>
