<?xml version="1.0" encoding="utf-8"?>
<!-- Generator: Adobe Illustrator 15.0.2, SVG Export Plug-In . SVG Version: 6.00 Build 0)  -->
<!DOCTYPE svg PUBLIC "-//W3C//DTD SVG 1.1//EN" "http://www.w3.org/Graphics/SVG/1.1/DTD/svg11.dtd">
<svg version="1.1"
	 id="Ebene_1" xmlns:dc="http://purl.org/dc/elements/1.1/" xmlns:cc="http://creativecommons.org/ns#" xmlns:rdf="http://www.w3.org/1999/02/22-rdf-syntax-ns#"
	 xmlns="http://www.w3.org/2000/svg" xmlns:xlink="http://www.w3.org/1999/xlink" x="0px" y="0px" width="32px" height="32px"
	 viewBox="0 0 32 32" enable-background="new 0 0 32 32" xml:space="preserve">
<path fill="#333333" d="M16,2.437c-3.21,0-5.813,2.603-5.813,5.813S12.79,14.062,16,14.062c3.209,0,5.813-2.603,5.813-5.813
	S19.209,2.437,16,2.437z M8.25,8.25c0-4.28,3.47-7.75,7.751-7.75c4.279,0,7.749,3.47,7.749,7.75c0,3.906-2.906,7.202-6.781,7.689
	v10.716c0,0.533-0.434,0.969-0.969,0.969s-0.969-0.436-0.969-0.969V15.942c-3.877-0.489-6.783-3.787-6.781-7.694V8.25z
	 M13.081,24.862c0.087,0.526-0.271,1.025-0.797,1.113c-1.38,0.23-2.48,0.571-3.207,0.957c-0.267,0.129-0.509,0.301-0.717,0.511
	c-0.047,0.053-0.084,0.111-0.11,0.176v0.006l0.004,0.016c0.008,0.022,0.018,0.045,0.031,0.064c0.076,0.113,0.171,0.21,0.281,0.291
	c0.319,0.25,0.843,0.522,1.575,0.765c1.455,0.484,3.525,0.802,5.858,0.802s4.405-0.315,5.858-0.802
	c0.733-0.244,1.256-0.515,1.576-0.765c0.111-0.079,0.206-0.178,0.281-0.291c0.014-0.02,0.023-0.042,0.03-0.064l0.004-0.016v-0.008
	c-0.026-0.063-0.064-0.125-0.109-0.174c-0.208-0.212-0.45-0.384-0.717-0.511c-0.729-0.386-1.828-0.727-3.208-0.957
	c-0.529-0.072-0.9-0.561-0.828-1.09c0.071-0.53,0.56-0.901,1.09-0.829c0.019,0.004,0.038,0.006,0.057,0.01
	c1.491,0.245,2.813,0.636,3.792,1.15c0.893,0.471,1.861,1.246,1.861,2.408c0,0.825-0.503,1.457-1.054,1.893
	c-0.562,0.442-1.318,0.802-2.163,1.082c-1.7,0.567-3.988,0.9-6.471,0.9c-2.481,0-4.77-0.333-6.471-0.9
	c-0.845-0.28-1.601-0.64-2.163-1.082c-0.551-0.436-1.054-1.067-1.054-1.893c0-1.162,0.969-1.938,1.862-2.408
	c0.978-0.515,2.3-0.905,3.791-1.15C12.494,23.978,12.992,24.335,13.081,24.862z"/>
</svg>
