<?xml version="1.0" encoding="utf-8"?>
<!-- Generator: Adobe Illustrator 15.0.2, SVG Export Plug-In . SVG Version: 6.00 Build 0)  -->
<!DOCTYPE svg PUBLIC "-//W3C//DTD SVG 1.1//EN" "http://www.w3.org/Graphics/SVG/1.1/DTD/svg11.dtd">
<svg version="1.1"
	 id="Ebene_1" xmlns:dc="http://purl.org/dc/elements/1.1/" xmlns:cc="http://creativecommons.org/ns#" xmlns:rdf="http://www.w3.org/1999/02/22-rdf-syntax-ns#"
	 xmlns="http://www.w3.org/2000/svg" xmlns:xlink="http://www.w3.org/1999/xlink" x="0px" y="0px" width="32px" height="32px"
	 viewBox="0 0 32 32" enable-background="new 0 0 32 32" xml:space="preserve">
<path fill="#333333" d="M6.635,21.244c2.244,0,4.07,1.826,4.07,4.07s-1.826,4.07-4.07,4.07c-2.245,0-4.07-1.826-4.07-4.07
	S4.391,21.244,6.635,21.244 M6.635,19.334c-3.303,0-5.98,2.678-5.98,5.98s2.678,5.98,5.98,5.98s5.98-2.678,5.98-5.98
	S9.938,19.334,6.635,19.334L6.635,19.334z"/>
<path fill="#333333" d="M26.671,0.203c0.269-0.27,0.708-0.271,0.978-0.001c0,0.001,0,0.001,0,0.001l4.148,4.148
	c0.271,0.27,0.271,0.708,0.003,0.978c-0.001,0.001-0.001,0.001-0.003,0.001L17.97,19.158c-0.065,0.067-0.146,0.118-0.232,0.152
	l-6.914,2.766c-0.354,0.142-0.757-0.031-0.899-0.385c-0.066-0.165-0.066-0.349,0-0.514l2.766-6.914
	c0.035-0.087,0.086-0.167,0.152-0.231L26.671,0.203z M25.372,3.458l3.171,3.171l1.788-1.788L27.16,1.67L25.372,3.458z M27.565,7.606
	l-3.171-3.17l-8.988,8.988v0.405h0.691c0.382,0,0.691,0.31,0.691,0.691v0.691h0.691c0.382,0,0.691,0.31,0.691,0.691v0.691h0.404
	L27.565,7.606z M14.068,14.763l-0.147,0.146l-2.113,5.283l5.284-2.112l0.146-0.147c-0.27-0.101-0.449-0.357-0.449-0.646v-0.691
	h-0.691c-0.382,0-0.691-0.309-0.691-0.691v-0.691h-0.691C14.426,15.212,14.168,15.032,14.068,14.763z"/>
</svg>
