<?xml version="1.0" encoding="utf-8"?>
<!-- Generator: Adobe Illustrator 15.0.2, SVG Export Plug-In . SVG Version: 6.00 Build 0)  -->
<!DOCTYPE svg PUBLIC "-//W3C//DTD SVG 1.1//EN" "http://www.w3.org/Graphics/SVG/1.1/DTD/svg11.dtd">
<svg version="1.1"
	 id="Ebene_1" xmlns:dc="http://purl.org/dc/elements/1.1/" xmlns:cc="http://creativecommons.org/ns#" xmlns:rdf="http://www.w3.org/1999/02/22-rdf-syntax-ns#"
	 xmlns="http://www.w3.org/2000/svg" xmlns:xlink="http://www.w3.org/1999/xlink" x="0px" y="0px" width="32px" height="32px"
	 viewBox="0 0 32 32" enable-background="new 0 0 32 32" xml:space="preserve">
<path fill="#333333" d="M28.031,20.531c-0.086,0-0.165,0.021-0.249,0.025l-2.161-6.79c1.136-0.691,1.888-1.928,1.888-3.381
	c0-2.227-1.743-3.971-3.97-3.971c-1.586,0-2.913,0.895-3.553,2.209l-5.644-1.238c-0.059-2.17-1.771-3.857-3.957-3.857
	c-2.227,0-3.971,1.744-3.971,3.969c0,1.268,0.577,2.365,1.477,3.087l-3.169,6.812c0.001,0,0.002,0,0.003,0.002
	c-0.245-0.047-0.497-0.073-0.758-0.073C1.743,17.326,0,19.068,0,21.295c0,2.225,1.743,3.969,3.969,3.969
	c1.708,0,3.123-1.031,3.693-2.514l16.443,2.191c0.215,2.009,1.852,3.531,3.927,3.531c2.226,0,3.968-1.746,3.968-3.971
	C32,22.275,30.257,20.531,28.031,20.531z M23.539,8.333c1.15,0,2.053,0.902,2.053,2.054c0,1.151-0.902,2.051-2.053,2.051
	s-2.053-0.9-2.053-2.051C21.486,9.236,22.389,8.333,23.539,8.333z M10.387,5.447c1.15,0,2.051,0.901,2.051,2.052
	s-0.901,2.052-2.051,2.052c-1.151,0-2.054-0.901-2.054-2.052S9.235,5.447,10.387,5.447z M9.631,11.394
	c0.244,0.046,0.496,0.074,0.756,0.074c1.585,0,2.912-0.894,3.552-2.208l5.642,1.238c0.059,2.17,1.771,3.857,3.959,3.857
	c0.086,0,0.165-0.019,0.249-0.024l2.161,6.789c-0.731,0.444-1.299,1.117-1.614,1.926L7.888,20.854
	c-0.119-1.076-0.635-2.011-1.426-2.646L9.631,11.394z M3.969,23.348c-1.15,0-2.052-0.902-2.052-2.053s0.901-2.053,2.052-2.053
	c0.903,0,1.645,0.559,1.925,1.354c0.038,0.105,0.068,0.216,0.09,0.329c0.021,0.12,0.036,0.243,0.036,0.37
	c0,0.203-0.037,0.396-0.09,0.579c-0.01,0.034-0.019,0.067-0.031,0.101c-0.063,0.182-0.144,0.354-0.251,0.507h0
	C5.281,23.008,4.673,23.348,3.969,23.348z M28.031,26.553c-0.899,0-1.641-0.555-1.924-1.345l0,0
	c-0.039-0.108-0.07-0.221-0.093-0.337c-0.021-0.12-0.036-0.242-0.036-0.369c0-0.203,0.036-0.396,0.09-0.579
	c0.01-0.034,0.02-0.068,0.031-0.102c0.063-0.182,0.145-0.354,0.252-0.507l0,0c0.367-0.525,0.976-0.865,1.68-0.865
	c1.15,0,2.052,0.902,2.052,2.053S29.182,26.553,28.031,26.553z"/>
</svg>
