<?xml version="1.0" encoding="utf-8"?>
<!-- Generator: Adobe Illustrator 15.0.2, SVG Export Plug-In . SVG Version: 6.00 Build 0)  -->
<!DOCTYPE svg PUBLIC "-//W3C//DTD SVG 1.1//EN" "http://www.w3.org/Graphics/SVG/1.1/DTD/svg11.dtd">
<svg version="1.1"
	 id="Ebene_1" xmlns:dc="http://purl.org/dc/elements/1.1/" xmlns:cc="http://creativecommons.org/ns#" xmlns:rdf="http://www.w3.org/1999/02/22-rdf-syntax-ns#"
	 xmlns="http://www.w3.org/2000/svg" xmlns:xlink="http://www.w3.org/1999/xlink" x="0px" y="0px" width="32px" height="32px"
	 viewBox="0 0 32 32" enable-background="new 0 0 32 32" xml:space="preserve">
<path fill="#333333" d="M26.671,0.203c0.269-0.27,0.708-0.271,0.978-0.001c0,0.001,0,0.001,0,0.001l4.148,4.148
	c0.271,0.27,0.271,0.708,0.003,0.978C31.799,5.33,31.799,5.33,31.797,5.33L17.971,19.158c-0.066,0.066-0.146,0.117-0.232,0.152
	l-6.914,2.766c-0.354,0.142-0.757-0.031-0.899-0.385c-0.066-0.166-0.066-0.35,0-0.515l2.766-6.914
	c0.035-0.087,0.086-0.167,0.152-0.231L26.671,0.203z M25.372,3.458l3.171,3.171l1.788-1.788L27.16,1.67L25.372,3.458z M27.564,7.606
	l-3.17-3.17l-8.989,8.988v0.405h0.691c0.382,0,0.691,0.31,0.691,0.691v0.691h0.69c0.383,0,0.691,0.31,0.691,0.691v0.691h0.404
	L27.564,7.606z M14.068,14.763l-0.147,0.146l-2.113,5.282l5.284-2.111l0.146-0.146c-0.271-0.102-0.449-0.357-0.449-0.646v-0.691
	h-0.691c-0.382,0-0.691-0.309-0.691-0.69v-0.691h-0.691C14.426,15.212,14.168,15.032,14.068,14.763z"/>
<g>
	<path fill="#333333" d="M0,28.571l3.099-8.07h1.15l3.303,8.07H6.336l-0.941-2.444H2.021l-0.887,2.444H0z M2.329,25.257h2.736
		l-0.842-2.234c-0.257-0.679-0.448-1.237-0.573-1.674c-0.102,0.518-0.247,1.031-0.435,1.542L2.329,25.257z"/>
	<path fill="#333333" d="M9.475,28.571H8.555v-8.07h0.991v2.879c0.418-0.524,0.952-0.787,1.602-0.787c0.359,0,0.7,0.072,1.021,0.217
		c0.321,0.146,0.586,0.35,0.792,0.612c0.208,0.262,0.371,0.578,0.488,0.949c0.118,0.371,0.176,0.767,0.176,1.188
		c0,1.002-0.248,1.776-0.743,2.323c-0.495,0.547-1.09,0.82-1.783,0.82c-0.69,0-1.231-0.288-1.624-0.864V28.571z M9.463,25.604
		c0,0.701,0.096,1.208,0.287,1.52c0.312,0.51,0.734,0.766,1.266,0.766c0.434,0,0.808-0.188,1.123-0.563
		c0.316-0.377,0.474-0.938,0.474-1.683c0-0.763-0.151-1.327-0.454-1.689c-0.303-0.364-0.669-0.545-1.098-0.545
		c-0.433,0-0.808,0.188-1.123,0.563C9.622,24.349,9.463,24.893,9.463,25.604z"/>
	<path fill="#333333" d="M18.928,26.43l0.974,0.126c-0.105,0.673-0.378,1.198-0.816,1.578s-0.979,0.569-1.616,0.569
		c-0.8,0-1.443-0.262-1.929-0.785c-0.487-0.522-0.729-1.272-0.729-2.248c0-0.631,0.104-1.184,0.313-1.657
		c0.209-0.473,0.528-0.828,0.956-1.064c0.427-0.237,0.891-0.355,1.394-0.355c0.636,0,1.154,0.16,1.559,0.481
		c0.403,0.321,0.662,0.777,0.776,1.368l-0.964,0.148c-0.092-0.393-0.254-0.688-0.486-0.886c-0.233-0.198-0.516-0.297-0.846-0.297
		c-0.499,0-0.905,0.179-1.216,0.536c-0.313,0.357-0.468,0.924-0.468,1.698c0,0.785,0.15,1.355,0.452,1.712
		c0.3,0.355,0.693,0.534,1.177,0.534c0.39,0,0.714-0.119,0.975-0.358C18.692,27.292,18.857,26.926,18.928,26.43z"/>
</g>
</svg>
