<?xml version="1.0" encoding="utf-8"?>
<!-- Generator: Adobe Illustrator 15.0.2, SVG Export Plug-In . SVG Version: 6.00 Build 0)  -->
<!DOCTYPE svg PUBLIC "-//W3C//DTD SVG 1.1//EN" "http://www.w3.org/Graphics/SVG/1.1/DTD/svg11.dtd">
<svg version="1.1"
	 id="Ebene_1" xmlns:dc="http://purl.org/dc/elements/1.1/" xmlns:cc="http://creativecommons.org/ns#" xmlns:rdf="http://www.w3.org/1999/02/22-rdf-syntax-ns#"
	 xmlns="http://www.w3.org/2000/svg" xmlns:xlink="http://www.w3.org/1999/xlink" x="0px" y="0px" width="32px" height="32px"
	 viewBox="0 0 32 32" enable-background="new 0 0 32 32" xml:space="preserve">
<path fill="#333333" d="M26.954,3.22c1.01,0,1.826,0.817,1.826,1.825v21.909c0,1.01-0.816,1.826-1.826,1.826H5.046
	c-1.01,0-1.826-0.816-1.826-1.826V5.045c0-1.008,0.816-1.825,1.826-1.825H26.954z M5.046,1.394c-2.017,0-3.652,1.635-3.652,3.651
	v21.909c0,2.017,1.636,3.652,3.652,3.652h21.908c2.017,0,3.652-1.636,3.652-3.652V5.045c0-2.017-1.636-3.651-3.652-3.651H5.046z"/>
<path fill="#333333" d="M17.697,13.422l-4.179,0.524l-0.15,0.693l0.82,0.151c0.537,0.129,0.642,0.321,0.526,0.856l-1.347,6.333
	c-0.356,1.637,0.191,2.406,1.475,2.406c0.995,0,2.15-0.46,2.675-1.091l0.16-0.76c-0.365,0.321-0.898,0.449-1.253,0.449
	c-0.502,0-0.686-0.353-0.553-0.974L17.697,13.422z M17.826,9.609c0,1.01-0.817,1.826-1.826,1.826s-1.826-0.816-1.826-1.826
	c0-1.008,0.817-1.825,1.826-1.825S17.826,8.602,17.826,9.609z"/>
</svg>
