<?xml version="1.0" encoding="utf-8"?>
<!-- Generator: Adobe Illustrator 15.0.2, SVG Export Plug-In . SVG Version: 6.00 Build 0)  -->
<!DOCTYPE svg PUBLIC "-//W3C//DTD SVG 1.1//EN" "http://www.w3.org/Graphics/SVG/1.1/DTD/svg11.dtd">
<svg version="1.1"
	 id="Ebene_1" xmlns:dc="http://purl.org/dc/elements/1.1/" xmlns:cc="http://creativecommons.org/ns#" xmlns:rdf="http://www.w3.org/1999/02/22-rdf-syntax-ns#"
	 xmlns="http://www.w3.org/2000/svg" xmlns:xlink="http://www.w3.org/1999/xlink" x="0px" y="0px" width="32px" height="32px"
	 viewBox="0 0 32 32" enable-background="new 0 0 32 32" xml:space="preserve">
<path fill="#333333" d="M27.595,12.091v-1.061c0-1.373-1.112-2.484-2.485-2.484h-7.453c-0.861,0-1.682-0.583-2.361-1.352
	c-0.913-1.034-2.241-1.961-3.828-1.961H6.889c-1.373,0-2.485,1.112-2.485,2.484v4.374c-0.978,0.455-1.55,1.49-1.416,2.561
	l1.06,8.488c0.259,2.071,2.021,3.627,4.11,3.627h15.68c2.091,0.002,3.855-1.553,4.114-3.627l1.06-8.488
	C29.15,13.542,28.539,12.53,27.595,12.091z M6.061,7.718c0-0.458,0.37-0.828,0.828-0.828h4.579c0.92,0,1.838,0.553,2.587,1.402
	c0.768,0.869,2.004,1.911,3.601,1.911h7.453c0.459,0,0.829,0.37,0.829,0.828v0.828H6.061V7.718z"/>
</svg>
