<?xml version="1.0" encoding="utf-8"?>
<!-- Generator: Adobe Illustrator 15.0.2, SVG Export Plug-In . SVG Version: 6.00 Build 0)  -->
<!DOCTYPE svg PUBLIC "-//W3C//DTD SVG 1.1//EN" "http://www.w3.org/Graphics/SVG/1.1/DTD/svg11.dtd">
<svg version="1.1"
	 id="Ebene_1" xmlns:dc="http://purl.org/dc/elements/1.1/" xmlns:cc="http://creativecommons.org/ns#" xmlns:rdf="http://www.w3.org/1999/02/22-rdf-syntax-ns#"
	 xmlns="http://www.w3.org/2000/svg" xmlns:xlink="http://www.w3.org/1999/xlink" x="0px" y="0px" width="32px" height="32px"
	 viewBox="0 0 32 32" enable-background="new 0 0 32 32" xml:space="preserve">
<path fill="#333333" d="M26.671,0.203c0.269-0.27,0.708-0.271,0.978-0.001c0,0.001,0,0.001,0,0.001l4.148,4.148
	c0.271,0.27,0.271,0.708,0.003,0.978C31.799,5.33,31.799,5.33,31.797,5.33L17.971,19.158c-0.066,0.066-0.146,0.117-0.232,0.152
	l-6.914,2.766c-0.354,0.142-0.757-0.031-0.899-0.385c-0.066-0.166-0.066-0.35,0-0.515l2.766-6.914
	c0.035-0.087,0.086-0.167,0.152-0.231L26.671,0.203z M25.372,3.458l3.171,3.171l1.788-1.788L27.16,1.67L25.372,3.458z M27.564,7.606
	l-3.17-3.17l-8.989,8.988v0.405h0.691c0.382,0,0.691,0.31,0.691,0.691v0.691h0.69c0.383,0,0.691,0.31,0.691,0.691v0.691h0.404
	L27.564,7.606z M14.068,14.763l-0.147,0.146l-2.113,5.282l5.284-2.111l0.146-0.146c-0.271-0.102-0.449-0.357-0.449-0.646v-0.691
	h-0.691c-0.382,0-0.691-0.309-0.691-0.69v-0.691h-0.691C14.426,15.212,14.168,15.032,14.068,14.763z"/>
<path fill="#333333" d="M25.625,22.586c-1.873,0-3.438,1.287-3.893,3.02L10.62,25.422c-0.369-1.63-1.725-2.873-3.404-3.095
	L5.87,9.909c1.552-0.564,2.669-2.04,2.669-3.784c0-2.227-1.812-4.039-4.039-4.039S0.461,3.898,0.461,6.125
	c0,2.046,1.535,3.724,3.511,3.986l1.346,12.418c-1.551,0.564-2.668,2.039-2.668,3.783c0,2.228,1.812,4.039,4.039,4.039
	c1.873,0,3.437-1.287,3.892-3.02l11.113,0.184c0.407,1.799,2.012,3.148,3.933,3.148c2.228,0,4.039-1.812,4.039-4.039
	S27.853,22.586,25.625,22.586z M4.5,8.254c-1.174,0-2.129-0.955-2.129-2.129S3.326,3.996,4.5,3.996s2.129,0.955,2.129,2.129
	S5.674,8.254,4.5,8.254z M6.688,28.441c-1.174,0-2.129-0.955-2.129-2.129s0.955-2.129,2.129-2.129c1.173,0,2.128,0.955,2.128,2.129
	S7.861,28.441,6.688,28.441z M25.625,28.754c-1.174,0-2.129-0.955-2.129-2.129s0.955-2.129,2.129-2.129s2.129,0.955,2.129,2.129
	S26.799,28.754,25.625,28.754z"/>
</svg>
