<?xml version="1.0" encoding="utf-8"?>
<!-- Generator: Adobe Illustrator 15.0.2, SVG Export Plug-In . SVG Version: 6.00 Build 0)  -->
<!DOCTYPE svg PUBLIC "-//W3C//DTD SVG 1.1//EN" "http://www.w3.org/Graphics/SVG/1.1/DTD/svg11.dtd">
<svg version="1.1"
	 id="Ebene_1" xmlns:dc="http://purl.org/dc/elements/1.1/" xmlns:cc="http://creativecommons.org/ns#" xmlns:rdf="http://www.w3.org/1999/02/22-rdf-syntax-ns#"
	 xmlns="http://www.w3.org/2000/svg" xmlns:xlink="http://www.w3.org/1999/xlink" x="0px" y="0px" width="32px" height="32px"
	 viewBox="0 0 32 32" enable-background="new 0 0 32 32" xml:space="preserve">
<path fill="#333333" d="M11.479,20.425c0.255-0.149,0.535-0.296,0.838-0.435c-0.257,0.381-0.531,0.752-0.821,1.106
	c-0.512,0.615-0.909,0.943-1.161,1.043c-0.02,0.011-0.041,0.019-0.064,0.023c-0.018-0.024-0.031-0.052-0.046-0.08
	c-0.104-0.199-0.098-0.394,0.073-0.656C10.491,21.124,10.88,20.779,11.479,20.425z M15.961,17.419
	c-0.218,0.047-0.434,0.091-0.651,0.143c0.323-0.631,0.626-1.27,0.913-1.918c0.287,0.535,0.6,1.059,0.931,1.567
	C16.758,17.27,16.356,17.337,15.961,17.419z M20.569,19.133c-0.283-0.229-0.549-0.479-0.793-0.747
	c0.415,0.007,0.791,0.039,1.116,0.096c0.579,0.105,0.852,0.27,0.946,0.382c0.03,0.032,0.046,0.075,0.048,0.117
	c-0.007,0.129-0.046,0.254-0.11,0.366c-0.035,0.089-0.097,0.165-0.171,0.227c-0.039,0.022-0.082,0.031-0.127,0.028
	C21.314,19.594,21.008,19.48,20.569,19.133z M16.506,10.47c-0.071,0.443-0.195,0.955-0.363,1.512
	c-0.063-0.207-0.116-0.419-0.164-0.631c-0.137-0.646-0.157-1.152-0.082-1.501c0.067-0.323,0.2-0.453,0.356-0.518
	c0.086-0.035,0.175-0.061,0.266-0.071c0.023,0.054,0.052,0.168,0.06,0.36C16.585,9.844,16.563,10.127,16.506,10.47L16.506,10.47z"/>
<path fill="#333333" d="M8.697,1.395h14.605c2.017,0,3.651,1.635,3.651,3.651v21.908c0,2.016-1.635,3.651-3.651,3.651H8.697
	c-2.017,0-3.651-1.636-3.651-3.651V5.046C5.046,3.029,6.681,1.395,8.697,1.395z M8.999,22.696c0.164,0.328,0.419,0.628,0.8,0.765
	c0.379,0.138,0.753,0.073,1.06-0.055c0.579-0.235,1.159-0.796,1.69-1.434c0.605-0.732,1.246-1.693,1.862-2.757
	c1.193-0.354,2.412-0.603,3.646-0.741c0.547,0.699,1.112,1.302,1.661,1.732c0.51,0.403,1.102,0.736,1.705,0.764
	c0.329,0.014,0.655-0.073,0.931-0.253c0.285-0.186,0.493-0.451,0.646-0.76c0.164-0.332,0.266-0.676,0.252-1.027
	c-0.011-0.349-0.14-0.681-0.364-0.946c-0.413-0.494-1.089-0.729-1.754-0.849c-0.806-0.125-1.623-0.155-2.436-0.091
	c-0.688-0.97-1.287-2.001-1.79-3.077c0.456-1.205,0.799-2.347,0.948-3.277c0.068-0.397,0.102-0.777,0.09-1.119
	c-0.004-0.343-0.082-0.678-0.232-0.984c-0.176-0.341-0.495-0.585-0.871-0.665c-0.369-0.08-0.749,0-1.097,0.141
	c-0.688,0.274-1.052,0.857-1.189,1.501c-0.134,0.621-0.073,1.345,0.084,2.076c0.16,0.741,0.435,1.547,0.784,2.363
	c-0.56,1.395-1.209,2.753-1.938,4.065c-0.941,0.296-1.849,0.691-2.705,1.177c-0.678,0.402-1.276,0.877-1.639,1.437
	C8.762,21.277,8.644,21.986,8.999,22.696L8.999,22.696z"/>
</svg>
