<?xml version="1.0" encoding="utf-8"?>
<!-- Generator: Adobe Illustrator 15.0.2, SVG Export Plug-In . SVG Version: 6.00 Build 0)  -->
<!DOCTYPE svg PUBLIC "-//W3C//DTD SVG 1.1//EN" "http://www.w3.org/Graphics/SVG/1.1/DTD/svg11.dtd">
<svg version="1.1"
	 id="Ebene_1" xmlns:dc="http://purl.org/dc/elements/1.1/" xmlns:cc="http://creativecommons.org/ns#" xmlns:rdf="http://www.w3.org/1999/02/22-rdf-syntax-ns#"
	 xmlns="http://www.w3.org/2000/svg" xmlns:xlink="http://www.w3.org/1999/xlink" x="0px" y="0px" width="32px" height="32px"
	 viewBox="0 0 32 32" enable-background="new 0 0 32 32" xml:space="preserve">
<path fill="#333333" d="M30.777,1.088C31,1.268,31.125,1.537,31.125,1.82v26.469c0,0.451-0.316,0.838-0.762,0.927l-9.452,1.892
	c-0.122,0.022-0.247,0.022-0.369,0l-9.269-1.854l-9.268,1.854c-0.512,0.102-1.01-0.229-1.112-0.742
	c-0.012-0.061-0.019-0.121-0.019-0.186V3.711c0-0.451,0.318-0.838,0.76-0.926l9.453-1.891c0.123-0.025,0.249-0.025,0.371,0
	l9.269,1.852l9.269-1.852C30.271,0.837,30.561,0.909,30.777,1.088z"/>
<polygon fill="#CCCCCC" points="19.781,4.486 12.218,2.973 12.218,27.514 19.781,29.027 "/>
<polygon fill="#CCCCCC" points="21.672,29.027 29.234,27.514 29.234,2.973 21.672,4.486 "/>
<polygon fill="#CCCCCC" points="10.328,27.514 10.328,2.973 2.766,4.486 2.766,29.027 "/>
</svg>
