<?xml version="1.0" encoding="utf-8"?>
<!-- Generator: Adobe Illustrator 15.0.2, SVG Export Plug-In . SVG Version: 6.00 Build 0)  -->
<!DOCTYPE svg PUBLIC "-//W3C//DTD SVG 1.1//EN" "http://www.w3.org/Graphics/SVG/1.1/DTD/svg11.dtd">
<svg version="1.1" id="Ebene_1" xmlns="http://www.w3.org/2000/svg" xmlns:xlink="http://www.w3.org/1999/xlink" x="0px" y="0px"
	 width="16px" height="16px" viewBox="0 0 16 16" enable-background="new 0 0 16 16" xml:space="preserve">
<path fill="#333333" d="M1.646,4.646C1.841,4.451,2.158,4.45,2.353,4.645c0,0,0,0,0.001,0.001L8,10.293l5.646-5.647
	c0.195-0.195,0.512-0.195,0.707,0s0.195,0.513,0,0.708l-6,6c-0.195,0.195-0.512,0.196-0.707,0.002c0-0.001,0-0.001-0.001-0.002l-6-6
	C1.451,5.159,1.45,4.842,1.646,4.646C1.646,4.646,1.646,4.646,1.646,4.646z"/>
</svg>
