<?xml version="1.0" encoding="UTF-8" standalone="no"?>
<svg
   width="40"
   height="40"
   viewBox="0 0 39.999998 39.999998"
   id="svg24280"
   version="1.1"
   inkscape:version="1.3 (0e150ed6c4, 2023-07-21)"
   sodipodi:docname="lm_08.svg"
   inkscape:export-filename="/home/stefano/Pictures/mapplusbern/png/lm_06.png"
   inkscape:export-xdpi="96"
   inkscape:export-ydpi="96"
   xmlns:inkscape="http://www.inkscape.org/namespaces/inkscape"
   xmlns:sodipodi="http://sodipodi.sourceforge.net/DTD/sodipodi-0.dtd"
   xmlns="http://www.w3.org/2000/svg"
   xmlns:svg="http://www.w3.org/2000/svg"
   xmlns:rdf="http://www.w3.org/1999/02/22-rdf-syntax-ns#"
   xmlns:cc="http://creativecommons.org/ns#"
   xmlns:dc="http://purl.org/dc/elements/1.1/">
  <sodipodi:namedview
     pagecolor="#ffffff"
     bordercolor="#666666"
     borderopacity="1"
     objecttolerance="10"
     gridtolerance="10"
     guidetolerance="10"
     inkscape:pageopacity="0"
     inkscape:pageshadow="2"
     inkscape:window-width="1268"
     inkscape:window-height="1355"
     id="namedview15087"
     showgrid="false"
     inkscape:zoom="8"
     inkscape:cx="3.0625"
     inkscape:cy="-13.5"
     inkscape:window-x="8"
     inkscape:window-y="40"
     inkscape:window-maximized="0"
     inkscape:current-layer="svg24280"
     fit-margin-top="0"
     fit-margin-left="0"
     fit-margin-right="0"
     fit-margin-bottom="0"
     inkscape:showpageshadow="2"
     inkscape:pagecheckerboard="0"
     inkscape:deskcolor="#d1d1d1" />
  <defs
     id="defs24282">
    <inkscape:path-effect
       effect="bend_path"
       id="path-effect19497"
       is_visible="true"
       bendpath="m 2.3320562,88.525182 12.5826248,-1.25182 7.560615,1.4379"
       prop_scale="0.94624843"
       scale_y_rel="false"
       vertical="false"
       bendpath-nodetypes="ccc" />
    <clipPath
       clipPathUnits="userSpaceOnUse"
       id="clipPath16880">
      <circle
         r="19.187979"
         cy="24.775345"
         cx="24.499756"
         id="circle16882"
         style="color:#000000;clip-rule:nonzero;display:inline;overflow:visible;visibility:visible;opacity:1;isolation:auto;mix-blend-mode:normal;color-interpolation:sRGB;color-interpolation-filters:linearRGB;solid-color:#000000;solid-opacity:1;vector-effect:none;fill:#3f65ca;fill-opacity:1;fill-rule:evenodd;stroke:none;stroke-width:0.8991856;stroke-linecap:butt;stroke-linejoin:bevel;stroke-miterlimit:4;stroke-dasharray:none;stroke-dashoffset:0;stroke-opacity:1;marker:none;paint-order:normal;color-rendering:auto;image-rendering:auto;shape-rendering:auto;text-rendering:auto;enable-background:accumulate" />
    </clipPath>
    <clipPath
       clipPathUnits="userSpaceOnUse"
       id="clipPath16185">
      <circle
         style="color:#000000;clip-rule:nonzero;display:inline;overflow:visible;visibility:visible;opacity:1;isolation:auto;mix-blend-mode:normal;color-interpolation:sRGB;color-interpolation-filters:linearRGB;solid-color:#000000;solid-opacity:1;vector-effect:none;fill:#3f65ca;fill-opacity:1;fill-rule:evenodd;stroke:none;stroke-width:2.46614099;stroke-linecap:butt;stroke-linejoin:bevel;stroke-miterlimit:4;stroke-dasharray:none;stroke-dashoffset:0;stroke-opacity:1;marker:none;paint-order:normal;color-rendering:auto;image-rendering:auto;shape-rendering:auto;text-rendering:auto;enable-background:accumulate"
         id="circle16187"
         cx="-192.808"
         cy="179.43561"
         r="52.625687" />
    </clipPath>
    <clipPath
       clipPathUnits="userSpaceOnUse"
       id="clipPath27801-6-2">
      <rect
         style="color:#000000;clip-rule:nonzero;display:inline;overflow:visible;visibility:visible;opacity:1;isolation:auto;mix-blend-mode:normal;color-interpolation:sRGB;color-interpolation-filters:linearRGB;solid-color:#000000;solid-opacity:1;fill:#ff5555;fill-opacity:1;fill-rule:nonzero;stroke:none;stroke-width:0.1;stroke-linecap:round;stroke-linejoin:round;stroke-miterlimit:4;stroke-dasharray:none;stroke-dashoffset:0;stroke-opacity:1;color-rendering:auto;image-rendering:auto;shape-rendering:auto;text-rendering:auto;enable-background:accumulate"
         id="rect27803-0-3"
         width="27.210461"
         height="21.991693"
         x="-235.04272"
         y="1030.5667" />
    </clipPath>
    <clipPath
       clipPathUnits="userSpaceOnUse"
       id="clipPath27801-7">
      <rect
         style="color:#000000;clip-rule:nonzero;display:inline;overflow:visible;visibility:visible;opacity:1;isolation:auto;mix-blend-mode:normal;color-interpolation:sRGB;color-interpolation-filters:linearRGB;solid-color:#000000;solid-opacity:1;fill:#ff5555;fill-opacity:1;fill-rule:nonzero;stroke:none;stroke-width:0.1;stroke-linecap:round;stroke-linejoin:round;stroke-miterlimit:4;stroke-dasharray:none;stroke-dashoffset:0;stroke-opacity:1;color-rendering:auto;image-rendering:auto;shape-rendering:auto;text-rendering:auto;enable-background:accumulate"
         id="rect27803-5"
         width="27.210461"
         height="21.991693"
         x="-235.04272"
         y="1030.5667" />
    </clipPath>
    <clipPath
       clipPathUnits="userSpaceOnUse"
       id="clipPath27797-1">
      <rect
         style="color:#000000;clip-rule:nonzero;display:inline;overflow:visible;visibility:visible;opacity:1;isolation:auto;mix-blend-mode:normal;color-interpolation:sRGB;color-interpolation-filters:linearRGB;solid-color:#000000;solid-opacity:1;fill:#ff5555;fill-opacity:1;fill-rule:nonzero;stroke:none;stroke-width:0.1;stroke-linecap:round;stroke-linejoin:round;stroke-miterlimit:4;stroke-dasharray:none;stroke-dashoffset:0;stroke-opacity:1;color-rendering:auto;image-rendering:auto;shape-rendering:auto;text-rendering:auto;enable-background:accumulate"
         id="rect27799-3"
         width="87.314026"
         height="88.808838"
         x="-386.56873"
         y="955.32452"
         transform="matrix(0.99966259,0.02597517,-0.0019307,0.99999814,0,0)" />
    </clipPath>
    <clipPath
       id="clipPath27801-6-2-9"
       clipPathUnits="userSpaceOnUse">
      <rect
         y="1030.5667"
         x="-235.04272"
         height="21.991693"
         width="27.210461"
         id="rect27803-0-3-5"
         style="color:#000000;clip-rule:nonzero;display:inline;overflow:visible;visibility:visible;opacity:1;isolation:auto;mix-blend-mode:normal;color-interpolation:sRGB;color-interpolation-filters:linearRGB;solid-color:#000000;solid-opacity:1;fill:#ff5555;fill-opacity:1;fill-rule:nonzero;stroke:none;stroke-width:0.1;stroke-linecap:round;stroke-linejoin:round;stroke-miterlimit:4;stroke-dasharray:none;stroke-dashoffset:0;stroke-opacity:1;color-rendering:auto;image-rendering:auto;shape-rendering:auto;text-rendering:auto;enable-background:accumulate" />
    </clipPath>
    <clipPath
       id="clipPath27801-7-7"
       clipPathUnits="userSpaceOnUse">
      <rect
         y="1030.5667"
         x="-235.04272"
         height="21.991693"
         width="27.210461"
         id="rect27803-5-4"
         style="color:#000000;clip-rule:nonzero;display:inline;overflow:visible;visibility:visible;opacity:1;isolation:auto;mix-blend-mode:normal;color-interpolation:sRGB;color-interpolation-filters:linearRGB;solid-color:#000000;solid-opacity:1;fill:#ff5555;fill-opacity:1;fill-rule:nonzero;stroke:none;stroke-width:0.1;stroke-linecap:round;stroke-linejoin:round;stroke-miterlimit:4;stroke-dasharray:none;stroke-dashoffset:0;stroke-opacity:1;color-rendering:auto;image-rendering:auto;shape-rendering:auto;text-rendering:auto;enable-background:accumulate" />
    </clipPath>
    <clipPath
       id="clipPath27797-1-6"
       clipPathUnits="userSpaceOnUse">
      <rect
         transform="matrix(0.99966259,0.02597517,-0.0019307,0.99999814,0,0)"
         y="955.32452"
         x="-386.56873"
         height="88.808838"
         width="87.314026"
         id="rect27799-3-4"
         style="color:#000000;clip-rule:nonzero;display:inline;overflow:visible;visibility:visible;opacity:1;isolation:auto;mix-blend-mode:normal;color-interpolation:sRGB;color-interpolation-filters:linearRGB;solid-color:#000000;solid-opacity:1;fill:#ff5555;fill-opacity:1;fill-rule:nonzero;stroke:none;stroke-width:0.1;stroke-linecap:round;stroke-linejoin:round;stroke-miterlimit:4;stroke-dasharray:none;stroke-dashoffset:0;stroke-opacity:1;color-rendering:auto;image-rendering:auto;shape-rendering:auto;text-rendering:auto;enable-background:accumulate" />
    </clipPath>
    <clipPath
       id="clipPath27801-6"
       clipPathUnits="userSpaceOnUse">
      <rect
         y="1030.5667"
         x="-235.04272"
         height="21.991693"
         width="27.210461"
         id="rect27803-0"
         style="color:#000000;clip-rule:nonzero;display:inline;overflow:visible;visibility:visible;opacity:1;isolation:auto;mix-blend-mode:normal;color-interpolation:sRGB;color-interpolation-filters:linearRGB;solid-color:#000000;solid-opacity:1;fill:#ff5555;fill-opacity:1;fill-rule:nonzero;stroke:none;stroke-width:0.1;stroke-linecap:round;stroke-linejoin:round;stroke-miterlimit:4;stroke-dasharray:none;stroke-dashoffset:0;stroke-opacity:1;color-rendering:auto;image-rendering:auto;shape-rendering:auto;text-rendering:auto;enable-background:accumulate" />
    </clipPath>
    <clipPath
       id="clipPath27801"
       clipPathUnits="userSpaceOnUse">
      <rect
         y="1030.5667"
         x="-235.04272"
         height="21.991693"
         width="27.210461"
         id="rect27803"
         style="color:#000000;clip-rule:nonzero;display:inline;overflow:visible;visibility:visible;opacity:1;isolation:auto;mix-blend-mode:normal;color-interpolation:sRGB;color-interpolation-filters:linearRGB;solid-color:#000000;solid-opacity:1;fill:#ff5555;fill-opacity:1;fill-rule:nonzero;stroke:none;stroke-width:0.1;stroke-linecap:round;stroke-linejoin:round;stroke-miterlimit:4;stroke-dasharray:none;stroke-dashoffset:0;stroke-opacity:1;color-rendering:auto;image-rendering:auto;shape-rendering:auto;text-rendering:auto;enable-background:accumulate" />
    </clipPath>
    <clipPath
       id="clipPath27797"
       clipPathUnits="userSpaceOnUse">
      <rect
         transform="matrix(0.99966259,0.02597517,-0.0019307,0.99999814,0,0)"
         y="955.32452"
         x="-386.56873"
         height="88.808838"
         width="87.314026"
         id="rect27799"
         style="color:#000000;clip-rule:nonzero;display:inline;overflow:visible;visibility:visible;opacity:1;isolation:auto;mix-blend-mode:normal;color-interpolation:sRGB;color-interpolation-filters:linearRGB;solid-color:#000000;solid-opacity:1;fill:#ff5555;fill-opacity:1;fill-rule:nonzero;stroke:none;stroke-width:0.1;stroke-linecap:round;stroke-linejoin:round;stroke-miterlimit:4;stroke-dasharray:none;stroke-dashoffset:0;stroke-opacity:1;color-rendering:auto;image-rendering:auto;shape-rendering:auto;text-rendering:auto;enable-background:accumulate" />
    </clipPath>
    <clipPath
       id="clipPath31559-3"
       clipPathUnits="userSpaceOnUse">
      <path
         inkscape:connector-curvature="0"
         id="path31561-8"
         d="m -621.15625,629.56075 0,-38.17113 37.5,0 0,38.17113"
         style="display:inline;fill:#d50025;fill-opacity:1;fill-rule:evenodd;stroke:none;stroke-width:1.24999988px;stroke-linecap:butt;stroke-linejoin:miter;stroke-opacity:1" />
    </clipPath>
    <clipPath
       id="clipPath31559"
       clipPathUnits="userSpaceOnUse">
      <path
         inkscape:connector-curvature="0"
         id="path31561"
         d="m -621.15625,629.56075 0,-38.17113 37.5,0 0,38.17113"
         style="display:inline;fill:#d50025;fill-opacity:1;fill-rule:evenodd;stroke:none;stroke-width:1.24999988px;stroke-linecap:butt;stroke-linejoin:miter;stroke-opacity:1" />
    </clipPath>
    <clipPath
       id="clipPath31559-31"
       clipPathUnits="userSpaceOnUse">
      <path
         inkscape:connector-curvature="0"
         id="path31561-7"
         d="m -621.15625,629.56075 0,-38.17113 37.5,0 0,38.17113"
         style="display:inline;fill:#d50025;fill-opacity:1;fill-rule:evenodd;stroke:none;stroke-width:1.24999988px;stroke-linecap:butt;stroke-linejoin:miter;stroke-opacity:1" />
    </clipPath>
    <clipPath
       id="clipPath31862-2-8-3"
       clipPathUnits="userSpaceOnUse">
      <path
         inkscape:connector-curvature="0"
         id="path31864-8-3-5"
         d="m -579.46875,629.17466 0,-37.625 37.4375,0 0,37.625"
         style="display:inline;fill:#ffff00;fill-opacity:1;fill-rule:evenodd;stroke:none;stroke-width:1.24999988px;stroke-linecap:butt;stroke-linejoin:miter;stroke-opacity:1" />
    </clipPath>
  </defs>
  <metadata
     id="metadata24285">
    <rdf:RDF>
      <cc:Work
         rdf:about="">
        <dc:format>image/svg+xml</dc:format>
        <dc:type
           rdf:resource="http://purl.org/dc/dcmitype/StillImage" />
      </cc:Work>
    </rdf:RDF>
  </metadata>
  <circle
     r="19.5"
     cy="20"
     cx="20"
     id="path849"
     style="color:#000000;clip-rule:nonzero;display:inline;overflow:visible;visibility:visible;opacity:1;isolation:auto;mix-blend-mode:normal;color-interpolation:sRGB;color-interpolation-filters:linearRGB;solid-color:#000000;solid-opacity:1;vector-effect:none;fill:#e6e6e6;fill-opacity:1;fill-rule:evenodd;stroke:none;stroke-width:1.67861009;stroke-linecap:round;stroke-linejoin:round;stroke-miterlimit:4;stroke-dasharray:none;stroke-dashoffset:0;stroke-opacity:1;marker:none;paint-order:stroke fill markers;color-rendering:auto;image-rendering:auto;shape-rendering:auto;text-rendering:auto;enable-background:accumulate" />
  <path
     style="fill:#999999;stroke-width:0.186194"
     d="M 19.72048,36.075481 C 19.475999,35.969137 19.38762,35.788303 19.3596,35.337068 l -0.02464,-0.396665 -1.034537,-0.02464 c -0.805173,-0.01917 -1.059411,-0.04101 -1.146736,-0.09853 -0.122822,-0.08089 -0.306541,-0.420423 -0.306541,-0.566531 0,-0.146107 0.183713,-0.485636 0.306541,-0.566535 0.08733,-0.05751 0.341563,-0.07935 1.146736,-0.09853 l 1.034537,-0.02463 0.01384,-0.605368 0.01384,-0.605373 -0.151743,-0.127686 c -0.08346,-0.07023 -0.206828,-0.236385 -0.274151,-0.369237 -0.135347,-0.2671 -0.100581,0.159319 -0.535656,-6.568632 -0.09462,-1.463129 -0.185386,-2.81888 -0.201706,-3.012777 l -0.02969,-0.352543 -0.32876,-0.02886 C 17.660125,21.874657 14.231325,21.850553 9.7901451,21.615436 5.3489642,21.380322 1.6724659,21.166127 1.6201478,21.139451 l -0.095123,-0.0485 v -1.485964 c 0,-1.221392 0.011652,-1.520894 0.065433,-1.68217 0.078166,-0.234395 0.2058095,-0.4144 0.3784732,-0.533742 0.1166204,-0.0806 0.7998377,-0.08879 8.487073,-0.101543 7.235218,-0.012 8.164609,0.128921 8.164609,0.06765 0,-0.225894 -0.363671,-1.896811 -0.911793,-4.189312 -0.48388,-2.023806 -0.535449,-2.398076 -0.50229,-3.6455126 0.01958,-0.7363728 0.05181,-1.1006467 0.127618,-1.4419665 0.218123,-0.9821302 0.586901,-1.8567998 1.121805,-2.660712 0.299549,-0.4501952 1.10601,-1.3245947 1.37501,-1.4908451 0.196792,-0.1216213 0.23656,-0.1062436 0.641692,0.248286 1.070377,0.9366592 1.90209,2.4235437 2.209281,3.9496029 0.263672,1.3098722 0.194303,2.6938523 -0.219119,4.3717643 -0.513767,2.085156 -1.083435,4.642929 -1.083435,4.864537 0,0.0535 1.278578,-0.08494 8.16461,-0.0735 7.69912,0.01276 8.370272,0.02083 8.487073,0.101855 0.167599,0.116233 0.343184,0.352972 0.39894,0.537862 0.02793,0.09262 0.04497,0.720219 0.04497,1.656411 v 1.507298 l -0.09513,0.04855 c -0.05231,0.02669 -0.62781,0.07526 -1.278873,0.107943 -3.295685,0.165386 -15.236136,0.653518 -15.251679,0.669242 -0.0099,0.01 -0.161122,2.190649 -0.336152,4.84596 -0.242781,3.683132 -0.336357,4.870938 -0.394667,5.009606 -0.04203,0.09997 -0.167518,0.280582 -0.278848,0.401364 l -0.202418,0.219596 0.01393,0.583913 0.01393,0.583908 1.034538,0.02463 c 1.14936,0.02738 1.223089,0.04707 1.37514,0.367492 0.09985,0.210441 0.09894,0.386622 -0.0031,0.601711 -0.149903,0.315902 -0.216819,0.333532 -1.369644,0.360918 l -1.036913,0.02464 -0.02464,0.396665 c -0.02838,0.457126 -0.11727,0.634194 -0.371727,0.740512 -0.206519,0.08629 -0.346276,0.08575 -0.54825,-0.0021 z m -4.491941,-5.296595 c -1.434698,-0.199518 -2.05016,-0.303541 -2.080638,-0.351665 -0.06107,-0.09644 -0.05493,-1.606235 0.0074,-1.830864 0.06431,-0.231549 0.313715,-0.521498 0.524269,-0.609473 0.123872,-0.05175 0.557248,-0.06655 1.948715,-0.06655 h 1.789422 l 0.08685,1.465593 c 0.04777,0.806078 0.09715,1.515474 0.109757,1.576438 0.02068,0.10008 0.0049,0.110306 -0.162777,0.105343 -0.102118,-0.003 -1.102489,-0.132993 -2.223035,-0.288821 z m 7.185034,0.109582 c -6.12e-4,-0.260785 0.148395,-2.614662 0.177661,-2.808033 l 0.02424,-0.160106 h 1.780338 c 1.71355,0 1.788436,0.004 1.996199,0.104493 0.129875,0.06287 0.268527,0.184018 0.348085,0.304131 0.13001,0.196293 0.132452,0.214962 0.145917,1.11478 0.0075,0.503332 -0.0066,0.945751 -0.03152,0.98316 -0.03163,0.0476 -0.671698,0.154258 -2.132032,0.355299 -1.147752,0.158007 -2.136703,0.288124 -2.197666,0.289149 -0.0955,0.0018 -0.110895,-0.02369 -0.11122,-0.182875 z"
     id="path1"
     sodipodi:nodetypes="sscssssscccsssscssscssscsssssssssssssscsssssscccsssscssssssssscssssssscssscsscss" />
  <circle
     style="fill:#f9f9f9;stroke-width:0.959993;stroke-linecap:round"
     id="path3"
     cx="20"
     cy="20"
     r="6.0836306" />
  <path
     style="fill:#cccccc;stroke-width:0.0531304"
     d="m 19.671796,25.614864 c -1.27299,-0.07681 -2.502266,-0.592029 -3.436489,-1.440303 l -0.102505,-0.09307 0.291627,-0.511401 c 0.160395,-0.281269 0.355205,-0.622101 0.432909,-0.757403 0.0777,-0.135302 0.237987,-0.416802 0.356181,-0.625558 0.629695,-1.112143 1.026528,-1.799157 1.03832,-1.797575 0.01415,0.0018 0.133596,0.208727 0.969203,1.678089 0.29239,0.514153 0.568189,0.99808 0.612891,1.075396 0.0447,0.07731 0.131403,0.229135 0.192673,0.337379 0.06126,0.108243 0.162073,0.285364 0.22401,0.393606 0.06194,0.108244 0.168383,0.294855 0.236548,0.414696 0.354831,0.623798 0.592832,1.042009 0.635309,1.116337 0.02611,0.04571 0.04252,0.08752 0.03643,0.09291 -0.03026,0.02681 -0.465898,0.08982 -0.775214,0.112125 -0.17572,0.01272 -0.540415,0.01511 -0.71189,0.0048 z m 1.801903,-0.277172 c -0.0218,-0.04187 -0.06703,-0.122627 -0.100519,-0.179476 -0.03349,-0.05685 -0.255292,-0.444962 -0.492881,-0.86247 -0.60812,-1.068622 -1.032815,-1.813779 -1.259643,-2.210133 -0.107165,-0.187271 -0.19486,-0.343834 -0.19486,-0.347921 0,-0.004 1.331593,-0.0074 2.959094,-0.0074 1.917152,0 2.959092,0.0048 2.959092,0.01372 0,0.06225 -0.228524,0.61616 -0.345208,0.836741 -0.285655,0.540012 -0.595555,0.961583 -1.018305,1.38525 -0.453365,0.454348 -0.910747,0.78659 -1.4605,1.060918 -0.272825,0.136139 -0.442001,0.207007 -0.705355,0.295475 -0.318448,0.106971 -0.29377,0.105868 -0.34091,0.01532 z m -5.667703,-1.593028 c -0.03866,-0.04309 -0.128871,-0.151624 -0.200476,-0.241188 -0.565226,-0.706988 -0.954911,-1.553509 -1.126879,-2.44797 -0.140002,-0.728193 -0.127431,-1.563944 0.03421,-2.273794 l 0.0232,-0.101921 h 2.142755 2.142754 l -0.04494,0.08083 c -0.02473,0.04446 -0.112203,0.197859 -0.194404,0.340895 -0.0822,0.143033 -0.181547,0.316995 -0.220764,0.386577 -0.09007,0.159801 -0.916953,1.611591 -1.725439,3.029383 -0.341688,0.599197 -0.648924,1.138476 -0.682741,1.198396 -0.03382,0.05992 -0.06498,0.108542 -0.06923,0.108048 -0.0043,-6.02e-4 -0.03937,-0.03617 -0.07803,-0.07925 z m 5.53477,-2.664561 c 0.100856,-0.172029 0.268635,-0.45827 0.372848,-0.636096 0.104206,-0.177829 0.222847,-0.380257 0.263639,-0.44984 0.04079,-0.0696 0.148275,-0.253034 0.238859,-0.407669 0.164235,-0.28035 0.321977,-0.549238 0.408214,-0.695841 0.025,-0.04253 0.07688,-0.131085 0.115241,-0.196804 0.03837,-0.06573 0.133126,-0.227028 0.210562,-0.358466 0.07744,-0.131438 0.25016,-0.425589 0.383826,-0.653672 0.133668,-0.228081 0.35055,-0.598144 0.481964,-0.822361 0.131411,-0.224216 0.264384,-0.451945 0.295492,-0.506067 0.03112,-0.05412 0.0586,-0.100999 0.06109,-0.104167 0.01655,-0.02107 0.305338,0.336686 0.479428,0.593931 0.52283,0.772562 0.823774,1.585576 0.940068,2.539622 0.03484,0.285789 0.0347,0.950667 -2.7e-4,1.237054 -0.02516,0.206178 -0.07298,0.484692 -0.115266,0.671245 l -0.02311,0.101921 h -2.147994 -2.147995 z m 0.291916,-1.623634 c -0.0715,-0.121771 -0.239269,-0.411182 -0.372818,-0.643129 -0.133545,-0.231948 -0.285217,-0.49447 -0.337046,-0.583384 -0.05182,-0.08891 -0.179893,-0.31032 -0.284594,-0.492009 -0.104699,-0.181694 -0.231677,-0.399935 -0.282174,-0.484983 -0.0505,-0.08504 -0.114812,-0.195751 -0.142919,-0.246006 -0.05091,-0.09103 -0.284186,-0.495276 -0.478608,-0.82939 -0.05624,-0.09665 -0.219338,-0.378146 -0.362452,-0.625558 -0.143112,-0.247408 -0.281012,-0.484628 -0.30644,-0.527152 -0.02542,-0.04253 -0.06168,-0.105777 -0.08054,-0.140575 -0.01885,-0.03479 -0.07292,-0.128612 -0.120122,-0.208492 -0.0472,-0.07988 -0.08582,-0.149935 -0.08582,-0.155682 0,-0.01233 0.266346,-0.06305 0.484984,-0.09231 1.645958,-0.220247 3.317417,0.307482 4.542561,1.434222 0.125145,0.115085 0.131534,0.123692 0.113046,0.151996 -0.01078,0.01653 -0.05438,0.0901 -0.09691,0.163548 -0.04253,0.07345 -0.164591,0.282206 -0.27126,0.463898 -0.198308,0.337769 -0.498376,0.849654 -0.667485,1.138651 -0.199689,0.341261 -0.4778,0.815051 -0.569358,0.969965 -0.05255,0.08891 -0.171112,0.291342 -0.263464,0.44984 -0.209556,0.359638 -0.280066,0.477953 -0.28484,0.477953 -0.0021,0 -0.06224,-0.09964 -0.13374,-0.221404 z m -6.991467,-1.15271 c 0.01682,-0.0681 0.116045,-0.338892 0.174394,-0.475995 0.293536,-0.689661 0.684129,-1.268028 1.214603,-1.798502 0.520052,-0.520051 1.086581,-0.905958 1.757884,-1.197424 0.25169,-0.109282 0.642764,-0.240341 0.65024,-0.217916 0.0027,0.0079 0.0289,0.05448 0.05841,0.10366 0.02951,0.04916 0.150314,0.257026 0.268459,0.46191 0.118148,0.204889 0.270242,0.467411 0.337997,0.583385 0.06775,0.11598 0.228787,0.394312 0.357855,0.618528 0.129066,0.224216 0.277479,0.480414 0.329808,0.569329 0.05233,0.08891 0.193456,0.332455 0.313618,0.541211 0.12016,0.208752 0.278172,0.480765 0.35114,0.60447 0.07297,0.123704 0.130092,0.229662 0.126937,0.235462 -0.0031,0.0057 -1.343387,0.01052 -2.978311,0.01052 H 14.63166 Z"
     id="path2" />
</svg>
