<?xml version="1.0" encoding="UTF-8"?>
<!-- Created with Inkscape (http://www.inkscape.org/) -->
<svg width="40" height="40" version="1.1" viewBox="0 0 10.583 10.583" xmlns="http://www.w3.org/2000/svg">
 <g transform="translate(.4432 -.15798)">
  <path d="m7.3206 6.1953c-0.15099-0.019613-0.22156-0.047542-0.24918-0.098614-0.0080909-0.01496-0.018807-0.11073-0.023814-0.21283-0.0050067-0.10209-0.010841-0.18593-0.012964-0.18631-0.038416-0.0067702-0.25458-0.13104-0.3177-0.18265l-0.084453-0.069041-0.14614 0.060839c-0.080376 0.033462-0.16817 0.06536-0.1951 0.070885-0.07496 0.015379-0.14937-0.049048-0.23945-0.20734-0.10666-0.18741-0.10182-0.20897 0.084101-0.37497l0.14082-0.12573-0.022846-0.10333c-0.012564-0.05683-0.023481-0.16259-0.024257-0.23503l-0.0014106-0.1317-0.15328-0.088749c-0.084301-0.048812-0.16836-0.11083-0.1868-0.13782-0.029887-0.043756-0.031078-0.058114-0.010991-0.13248 0.042827-0.15855 0.10644-0.29398 0.15094-0.32137 0.036576-0.022512 0.074248-0.022006 0.22276 3e-3 0.098306 0.016548 0.18784 0.028353 0.19896 0.026232 0.011121-0.00211 0.057298-0.047981 0.10262-0.10191 0.045318-0.053933 0.12043-0.12664 0.16691-0.16156l0.084514-0.063512-0.032589-0.17091c-0.034325-0.18001-0.026524-0.2623 0.028166-0.29712 0.064436-0.041017 0.32812-0.12351 0.37072-0.11598 0.061902 0.010937 0.10787 0.064548 0.19467 0.22706l0.075574 0.14148 0.10854 0.00138c0.059698 7.637e-4 0.16422 0.012219 0.23226 0.025457l0.12372 0.024073 0.1086-0.11844c0.19474-0.21238 0.21021-0.21517 0.42699-0.076854 0.13467 0.085927 0.14975 0.10106 0.1613 0.16191 0.00943 0.049648-3.876e-4 0.097746-0.037692 0.18473-0.08951 0.20872-0.090737 0.21739-0.038774 0.27407 0.024864 0.027121 0.082108 0.11502 0.12721 0.19533l0.082 0.14602 0.1881 0.014014c0.23282 0.017345 0.25496 0.032207 0.28367 0.19048 0.031741 0.17497 0.029961 0.287-0.00526 0.32862-0.018214 0.021546-0.077838 0.05019-0.14642 0.07033-0.2655 0.077979-0.24724 0.064757-0.2839 0.20555-0.018078 0.069432-0.05393 0.16828-0.079672 0.21967l-0.046762 0.09344 0.099671 0.14476c0.15784 0.22924 0.15553 0.24899-0.052644 0.45105-0.13912 0.13503-0.16101 0.13467-0.3706-0.006117l-0.15966-0.10725-0.078401 0.038602c-0.04312 0.021231-0.14489 0.055556-0.22615 0.076277l-0.14775 0.037675-0.046418 0.16949c-0.02553 0.093219-0.05665 0.18304-0.069157 0.1996-0.040002 0.052969-0.11682 0.065813-0.2726 0.045578zm0.59475-1.0319c0.43867-0.25491 0.50581-0.88153 0.13163-1.2286-0.10824-0.10039-0.28344-0.18294-0.43245-0.20377-0.1242-0.017358-0.32786 0.020892-0.45048 0.084607-0.19816 0.10297-0.35805 0.31698-0.40281 0.53916-0.017148 0.08512-0.014429 0.13601 0.01569 0.29397 0.034163 0.17915 0.041304 0.19771 0.1149 0.29848 0.13897 0.19029 0.38736 0.32308 0.61333 0.32789 0.11194 0.00239 0.30363-0.049849 0.41019-0.11177z" fill="#e6e6e6" stop-color="#000000" stroke="#1a1a1a" stroke-width=".26638" style="-inkscape-stroke:none;font-variation-settings:normal;paint-order:stroke fill markers"/>
  <path d="m2.7713 7.363c-0.069146-0.029074-0.0759-0.045771-0.10592-0.26189l-0.026914-0.19376-0.14122-0.028659c-0.077671-0.015762-0.18724-0.042238-0.24348-0.058834-0.056243-0.016596-0.10927-0.025844-0.11783-0.02055-0.00857 0.00529-0.065313 0.076782-0.1261 0.15886-0.068046 0.091874-0.13097 0.1577-0.1637 0.17126-0.049175 0.020369-0.064306 0.01612-0.20133-0.056537-0.25487-0.13514-0.26638-0.16543-0.15752-0.41446l0.077278-0.17679-0.098707-0.088396c-0.054289-0.048617-0.1374-0.1294-0.18469-0.17952l-0.08598-0.091121-0.18584 0.077862c-0.20244 0.084814-0.24333 0.091695-0.30176 0.050771-0.042633-0.029861-0.19902-0.30453-0.19902-0.34955 0-0.063871 0.046438-0.1193 0.18741-0.22372 0.08167-0.060489 0.14849-0.11295 0.14849-0.11658 0-0.00363-0.015644-0.046289-0.034764-0.094796-0.01912-0.048508-0.051614-0.15422-0.07221-0.2349-0.020595-0.080688-0.039675-0.14894-0.0424-0.15168-0.002724-0.00273-0.09553-0.016665-0.20624-0.030954-0.2722-0.035134-0.28084-0.044567-0.28084-0.30672 0-0.24904 0.012836-0.26362 0.26085-0.29633 0.094758-0.012497 0.18151-0.023007 0.19279-0.023359 0.011463-3.542e-4 0.029692-0.055123 0.041346-0.12422 0.011464-0.067969 0.035989-0.17338 0.0545-0.23425 0.018511-0.060869 0.033716-0.11981 0.03379-0.13099 7.328e-5 -0.011177-0.071526-0.073677-0.15911-0.13889-0.2175-0.16194-0.22439-0.19282-0.09361-0.41955 0.11724-0.20325 0.14729-0.21077 0.40463-0.10124l0.16765 0.071356 0.04704-0.058098c0.025872-0.031952 0.10489-0.11691 0.17559-0.1888l0.12855-0.13071-0.078953-0.18483c-0.043424-0.10166-0.078953-0.19889-0.078953-0.21607 0-0.053088 0.063498-0.11565 0.19415-0.19129 0.068928-0.039907 0.1399-0.077184 0.15772-0.08284 0.058002-0.018409 0.12144 0.022131 0.20823 0.13307 0.046853 0.059891 0.10146 0.12881 0.12134 0.15316l0.036157 0.044269 0.16715-0.053468c0.091934-0.029406 0.1967-0.05898 0.23282-0.065717 0.036118-0.00674 0.072516-0.02136 0.080887-0.032497 0.00837-0.011137 0.025086-0.10274 0.037144-0.20355 0.012058-0.10082 0.030918-0.19771 0.041913-0.21531 0.033633-0.053853 0.095929-0.069884 0.27159-0.069884 0.16096 0 0.17069 0.00221 0.21799 0.04951 0.044072 0.044072 0.051978 0.070327 0.071966 0.23899 0.021674 0.18288 0.024057 0.18977 0.068463 0.1979 0.074683 0.013683 0.39725 0.092761 0.42661 0.10458 0.019247 0.00774 0.059148-0.032505 0.13877-0.14 0.17714-0.23917 0.19858-0.24522 0.42317-0.11949 0.11586 0.064861 0.15554 0.097152 0.17431 0.14186 0.025334 0.060354 0.018045 0.086134-0.10653 0.37678l-0.027176 0.063404 0.084205 0.064216c0.046313 0.03532 0.12997 0.1122 0.18591 0.17084 0.055937 0.058645 0.10553 0.10663 0.11019 0.10663 0.00466 0 0.083257-0.031822 0.17464-0.070716 0.26406-0.11239 0.29147-0.10388 0.4307 0.13362 0.074899 0.12776 0.086786 0.17913 0.05514 0.23826-0.013369 0.024982-0.19862 0.17618-0.31396 0.25624-0.0027 0.00188 0.018928 0.074543 0.048056 0.16149 0.029129 0.086946 0.061532 0.19804 0.072006 0.24688l0.019043 0.088794 0.18802 0.021856c0.29378 0.03415 0.30405 0.044521 0.30483 0.30777 7.886e-4 0.26789-1.2e-6 0.26858-0.35236 0.3088l-0.11426 0.013041-0.01457 0.070716c-8e-3 0.038896-0.034944 0.15281-0.059852 0.25313s-0.042513 0.18445-0.039124 0.18693c0.13346 0.097754 0.24659 0.18529 0.28461 0.22022 0.068463 0.062893 0.064272 0.13884-0.015665 0.28386-0.12851 0.23313-0.15944 0.24411-0.40257 0.14292-0.095381-0.039697-0.17855-0.069811-0.18482-0.066921-0.00627 0.00289-0.088777 0.085393-0.18335 0.18334l-0.17196 0.17809 0.080236 0.19041c0.11147 0.26454 0.10788 0.27614-0.12825 0.41374-0.19757 0.11513-0.23126 0.107-0.38064-0.091858-0.059332-0.078986-0.11343-0.14999-0.12021-0.15778-0.00678-0.0078-0.047332-1.27e-4 -0.090101 0.017042-0.04277 0.017165-0.15317 0.051488-0.24533 0.076275l-0.16756 0.045066-0.021234 0.18078c-0.026199 0.22305-0.033247 0.24572-0.08743 0.28122-0.053063 0.034768-0.34009 0.043283-0.41383 0.012277zm0.46805-1.3337c0.51284-0.12387 0.91753-0.54 1.0269-1.0559 0.033091-0.15614 0.032282-0.41396-0.001829-0.58302-0.035193-0.17442-0.1715-0.45524-0.29099-0.5995-0.17006-0.20531-0.43108-0.37321-0.70162-0.45132-0.17973-0.051891-0.53523-0.055183-0.71245-0.0065973-0.13881 0.038053-0.34062 0.12933-0.44553 0.20151-0.2764 0.19017-0.49317 0.51388-0.57069 0.85224-0.033249 0.14512-0.033831 0.43267-0.00119 0.5867 0.14099 0.66523 0.76627 1.1412 1.4417 1.0974 0.063202-0.0041 0.17828-0.022757 0.25572-0.041462z" fill="#c8c8c8" stop-color="#000000" stroke="#000" stroke-opacity=".96707" stroke-width=".23644" style="-inkscape-stroke:none;font-variation-settings:normal;paint-order:stroke fill markers"/>
  <path d="m6.6456 10.18c-0.02319-0.01832-0.076638-0.10384-0.11877-0.19005l-0.076612-0.15674-0.16206-0.0011072c-0.089132-5.943e-4 -0.19099-0.0068281-0.22635-0.013684l-0.064296-0.012576-0.10739 0.16745c-0.13364 0.20838-0.16042 0.21843-0.35815 0.13445-0.25485-0.10825-0.26222-0.12197-0.20185-0.3763l0.042989-0.1811-0.083162-0.069677c-0.045739-0.038322-0.11995-0.10848-0.1649-0.1559l-0.081741-0.086224-0.18961 0.057777c-0.17478 0.053258-0.19328 0.055728-0.23648 0.031573-0.042074-0.023523-0.17748-0.24464-0.20725-0.33844-0.020998-0.066159 0.029623-0.13464 0.18061-0.24434 0.1067-0.07752 0.14669-0.11671 0.14057-0.13773-0.021431-0.073635-0.045882-0.24707-0.045882-0.32545v-0.086258l-0.11933-0.051995c-0.30086-0.13109-0.30852-0.1415-0.26116-0.35478 0.040459-0.18221 0.068881-0.2418 0.12561-0.26337 0.024329-0.00925 0.12461-0.01197 0.22456-0.00608l0.1806 0.010625 0.044197-0.085468c0.02431-0.047015 0.078477-0.1321 0.12037-0.18909l0.076173-0.10361-0.080593-0.15604c-0.12445-0.24096-0.11769-0.26668 0.11548-0.43956 0.15322-0.1136 0.19824-0.10641 0.36797 0.058757l0.13568 0.13204 0.10537-0.041945c0.057955-0.02307 0.15311-0.052015 0.21145-0.064324 0.058341-0.012308 0.1087-0.024319 0.11191-0.026689 0.00321-0.00237 0.024095-0.085329 0.04641-0.18435 0.055813-0.24767 0.067072-0.25748 0.28873-0.2516 0.18401 0.00489 0.2493 0.021797 0.28119 0.072875 0.011059 0.017706 0.029383 0.11095 0.040721 0.20721 0.011339 0.09626 0.025938 0.17967 0.032442 0.18536 0.0065 0.00568 0.051602 0.024553 0.10022 0.041929 0.048618 0.017376 0.13753 0.055295 0.19759 0.084264l0.10919 0.052671 0.14326-0.10906c0.082869-0.063083 0.16781-0.11304 0.20149-0.11851 0.052312-0.0085 0.071903 0.00263 0.19299 0.10949 0.14136 0.12476 0.1816 0.1931 0.15497 0.26315-0.00863 0.022687-0.057211 0.10307-0.10797 0.17862-0.091354 0.13599-0.091979 0.13784-0.061949 0.1835 0.016685 0.025369 0.063592 0.11505 0.10424 0.19928l0.073901 0.15316 0.18563 0.012148c0.10775 0.00705 0.20195 0.022461 0.22453 0.036726 0.048183 0.030443 0.072916 0.11572 0.086705 0.29894 0.01357 0.18031-0.0045 0.20228-0.21864 0.26583-0.084958 0.025212-0.16302 0.048519-0.17346 0.051791-0.010447 0.00328-0.032048 0.07237-0.048003 0.15355-0.015956 0.08118-0.040403 0.17942-0.054327 0.21832l-0.025316 0.070717 0.14854 0.14143c0.11892 0.11323 0.14853 0.15153 0.14846 0.19207-1.07e-4 0.058971-0.14139 0.29522-0.2078 0.34745-0.062716 0.049332-0.10003 0.044619-0.28627-0.036156-0.18037-0.078232-0.16087-0.080362-0.28904 0.031575-0.036863 0.032193-0.1069 0.083068-0.15564 0.11306-0.077396 0.047622-0.087448 0.060412-0.079404 0.10104 0.00507 0.025586 0.017403 0.10861 0.027419 0.1845 0.027936 0.21167 0.015989 0.2268-0.2459 0.3114-0.14047 0.04537-0.1791 0.04596-0.23285 0.0034zm-0.10405-1.0303c0.22608-0.048248 0.498-0.26287 0.61445-0.48499 0.14624-0.27893 0.14706-0.60776 0.0022285-0.89569-0.074292-0.14769-0.26991-0.33965-0.42221-0.41432-0.55889-0.27401-1.2147 0.03203-1.3697 0.63915-0.10909 0.42729 0.11511 0.89286 0.52362 1.0874 0.2127 0.10129 0.40377 0.12136 0.65165 0.068463z" fill="#c8c8c8" stop-color="#000000" stroke="#000" stroke-opacity=".96707" stroke-width=".23644" style="-inkscape-stroke:none;font-variation-settings:normal;paint-order:stroke fill markers"/>
 </g>
</svg>
