<?xml version="1.0" encoding="UTF-8"?>
<!-- Created with Inkscape (http://www.inkscape.org/) -->
<svg width="40" height="40" version="1.1" viewBox="0 0 10.583 10.583" xmlns="http://www.w3.org/2000/svg">
 <g transform="matrix(.94017 0 0 .94017 -75.42 -283.63)">
  <g transform="matrix(1.0052 0 0 1.0052 22.04 271.12)">
   <path d="m63.382 32.358c-2.4726 0-4.4769 2.0049-4.4769 4.4766 0 2.4725 2.0044 4.4772 4.4769 4.4772 2.4708 0 4.4749-2.0047 4.4749-4.4772 0-2.4716-2.0042-4.4766-4.4749-4.4766" fill="#a6a6a6" stop-color="#000000" stroke="#000" stroke-linejoin="bevel" stroke-opacity=".96707" stroke-width=".13229" style="-inkscape-stroke:none;font-variation-settings:normal;paint-order:normal"/>
   <g fill="#f2f2f2" stroke-width=".37528">
    <path d="m62.919 33.788h0.21829v-0.25874h-0.19109v-0.66659h0.27235v-0.34122l0.0155-0.03546c0.04872-0.0016 0.09778-0.0041 0.14788-0.0041 0.21691 0 0.4302 0.01601 0.63956 0.04717v0.22432h0.31212v0.85041h-0.23774l-0.20486 0.20366-0.49545 0.4977-0.25823 0.25806-0.21829-0.21778v-0.55743z"/>
    <path d="m62.083 32.68 0.08143 0.08074-0.14358 0.14289h-0.2448v0.24446h0.51714v1.1291h-0.39475v-0.81653h-0.272v-0.39492h-0.17663v0.23137l-0.17043 0.17095h-0.40146l-0.11035-0.11087c0.39181-0.29662 0.83633-0.52729 1.3154-0.67726"/>
    <path d="m63.504 38.997h-0.36652l-0.19092 0.2727v0.61147l-0.55794 0.40869v0.73457l-0.62527-0.5712v-1.4972l-0.6671-0.62578v-0.76126l-0.46242-0.33965h-0.40852l-0.29214-0.29387v-0.40078l-0.19711-0.12205-0.05509 0.14925 0.0952 0.05458v0.34052l-0.24446-0.29955-0.12206-0.4767-0.10897-0.02701v-0.83204c0.2176-0.58481 0.55743-1.1124 0.98988-1.5478l1.3628 0.01309-0.05389 0.2856-0.40784 0.02668 0.0408 0.13635 0.09572 0.10897-0.10914 0.17663-0.32726-0.04011 0.19109 0.25858 0.32571 0.23017 0.10932 0.2584 0.13548-0.04045v-0.66659h0.36788v0.08148h0.38131v0.46293h-0.16286v0.19023h-0.16337v0.12222h0.23034l-0.14891 0.1503-0.06129-0.06197-0.14392 0.14324v0.12204l-0.12877 0.12999-0.16268 0.16286-0.19092 0.19074-0.1286 0.12878v0.40869h-0.17784v-0.21812h-0.5843v0.24498l0.5712 0.54451h1.1429v0.10966h0.40818l0.44882 0.57086h0.35343v0.9923z"/>
    <path d="m66.974 36.467v0.35394h-0.58566l-0.28612-0.28559v-0.19058h-0.17026v0.26649l0.38871 0.38718h0.44159v0.31934l-0.4018 0.4018v1.1288h-0.3054v0.57809l-0.23843 0.23792h-0.55917v-0.51369l-0.30264-0.3023v-0.94703l-0.37617-0.37579h-0.78588l-0.30988-0.30936v-0.78312l0.26563-0.26478h0.44916l0.28578-0.28595h0.34035v0.14996h1.0474v-0.18317h-0.26529l0.15666-0.15666 0.1496-0.14926h0.25754l-0.16234-0.16218h-0.24377l-0.2572 0.25704v0.20004l-0.27441-0.27493h-0.17009l0.25083 0.251h-0.20348l-0.16372-0.16302v-0.10933l-0.24446-0.24481-0.18334 0.1837-0.15666 0.15735v0.28475h-0.31297v-0.57052h0.11569v-0.10294l0.0742-0.0742-0.13548-0.13634-0.17715 0.17697-0.14186-0.14324 0.07489-0.07437v-0.40815h0.28491v0.16267l0.24446 0.24549h0.17715v-0.19074h0.54434v-0.19075h0.21795v-0.27205h-0.23137v-0.25892h-0.1224v0.51714l-0.09555 0.09537-0.19023-0.08213-0.32657-0.08074 0.02668-0.3128 0.32675-0.24549 0.19092-0.32589 0.35411-0.08212-0.04166 0.1632 0.23189 0.0408-0.01412 0.1632 0.25892-0.02737 0.12206-0.08212 0.02703-0.13514h0.54502c0.82805 0.79208 1.3456 1.9078 1.3456 3.1423 0 0.06662-0.0021 0.13222-0.0046 0.19884l-0.9472-0.947-0.09589 0.09503z"/>
   </g>
   <g stroke-width=".068211">
    <path d="m65.165 35.31c-0.5724-1.1981-1.0652-2.2496-1.095-2.3367-0.08039-0.23475-0.11004-0.39833-0.1193-0.65815-0.0387-1.0873 0.72602-2.018 1.8372-2.2359 0.20244-0.03971 0.65016-0.03971 0.85259 0 0.86434 0.16955 1.5436 0.78438 1.766 1.5986 0.11366 0.41603 0.0962 0.90242-0.04679 1.3038-0.04362 0.12243-2.1308 4.5069-2.1455 4.5066-0.0049-2e-6 -0.47681-0.98028-1.0492-2.1784zm1.3228-2.4027c0.54128-0.19933 0.69292-0.8822 0.28504-1.2837-0.45736-0.45016-1.2328-0.20199-1.3405 0.42905-0.06608 0.38687 0.18752 0.77018 0.57875 0.87482 0.13997 0.03743 0.34367 0.0288 0.47675-0.02024z" fill="#fff"/>
    <path d="m65.359 34.795c-0.46183-0.98213-0.85939-1.8441-0.88344-1.9155-0.06487-0.19243-0.08879-0.32652-0.09625-0.53951-0.03122-0.89125 0.58576-1.6541 1.4823-1.8328 0.16333-0.03256 0.52456-0.03256 0.68789 0 0.69736 0.13898 1.2454 0.64299 1.4248 1.3104 0.09171 0.34102 0.07761 0.73972-0.03775 1.0688-0.03519 0.10036-1.7192 3.6944-1.731 3.6944-4e-3 -2e-6 -0.3847-0.80357-0.84654-1.7857zm1.0673-1.9695c0.43672-0.1634 0.55906-0.72316 0.22997-1.0522-0.36901-0.36901-0.99462-0.16557-1.0816 0.35171-0.05331 0.3171 0.15129 0.63132 0.46696 0.7171 0.11294 0.03069 0.27728 0.0236 0.38465-0.01658z" fill="#ee1d23"/>
    <circle cx="66.222" cy="32.365" r="1.1837" fill="#fff"/>
    <rect x="65.982" y="32.046" width=".42251" height="1.1667" fill="#4d4d4d"/>
    <rect x="65.973" y="31.463" width=".42251" height=".3646" fill="#4d4d4d"/>
   </g>
  </g>
 </g>
</svg>
