<?xml version="1.0" encoding="UTF-8"?>
<!-- Created with Inkscape (http://www.inkscape.org/) -->
<svg width="40" height="40" version="1.1" viewBox="0 0 10.583 10.583" xml:space="preserve" xmlns="http://www.w3.org/2000/svg" xmlns:xlink="http://www.w3.org/1999/xlink"><defs><clipPath id="clipPath27801-6-4-78"><rect x="-235.04" y="1030.6" width="27.21" height="21.992" color="#000000" color-rendering="auto" fill="#f55" image-rendering="auto" shape-rendering="auto" solid-color="#000000" style="isolation:auto;mix-blend-mode:normal"/></clipPath><clipPath id="clipPath27801-9-88"><rect x="-235.04" y="1030.6" width="27.21" height="21.992" color="#000000" color-rendering="auto" fill="#f55" image-rendering="auto" shape-rendering="auto" solid-color="#000000" style="isolation:auto;mix-blend-mode:normal"/></clipPath><clipPath id="clipPath27797-4-3"><rect transform="matrix(.99966 .025975 -.0019307 1 0 0)" x="-386.57" y="955.32" width="87.314" height="88.809" color="#000000" color-rendering="auto" fill="#f55" image-rendering="auto" shape-rendering="auto" solid-color="#000000" style="isolation:auto;mix-blend-mode:normal"/></clipPath><linearGradient id="linearGradient4" x1="-544.69" x2="-572.91" y1="623.82" y2="609.71" gradientTransform="matrix(-.81267 0 0 1.2165 -311.61 -663.41)" gradientUnits="userSpaceOnUse"><stop offset="0"/><stop stop-color="#242424" stop-opacity="0" offset="1"/></linearGradient></defs><circle cx="5.2915" cy="5.2915" r="5.1867" fill="#08a"/><g transform="matrix(.25873 0 0 .27373 -29.827 -18.936)"><path transform="matrix(1.1058 -.22775 .30763 .81867 59.686 -807.44)" d="m-235.07 1031.2 27.26-0.5863 0.25571 20.462-25.352 1.0504z" clip-path="url(#clipPath27801-6-4-78)" color="#000000" color-rendering="auto" fill="#666" image-rendering="auto" shape-rendering="auto" solid-color="#000000" style="isolation:auto;mix-blend-mode:normal"/><rect transform="matrix(1.0144 -.38398 .44009 .88507 -98.988 -915.62)" x="-235.02" y="1030.6" width="27.21" height="21.992" clip-path="url(#clipPath27801-9-88)" color="#000000" color-rendering="auto" fill="#a6a6a6" image-rendering="auto" shape-rendering="auto" solid-color="#000000" stop-color="#000000" stroke="#000" stroke-linejoin="bevel" stroke-opacity=".96707" stroke-width=".49373" style="-inkscape-stroke:none;font-variation-settings:normal;isolation:auto;mix-blend-mode:normal;paint-order:normal"/><g transform="matrix(.31339 -.12539 .10958 .21893 134.22 -168.87)" clip-path="url(#clipPath27797-4-3)" fill-rule="evenodd"><path d="m-371.15 993.81 25.811-25.972 37.91 38.232-27.747 25.004z" clip-path="none" fill="#ee1d23"/><g fill="#fff" shape-rendering="auto"><path d="m-389.67 974.43-2.7374 2.7374 62.744 63.869 2.7374-2.7372z" clip-path="none" color="#000000" color-rendering="auto" image-rendering="auto" solid-color="#000000" style="isolation:auto;mix-blend-mode:normal;text-decoration-color:#000000;text-decoration-line:none;text-decoration-style:solid;text-indent:0;text-transform:none;white-space:normal"/><path d="m-366.32 943.32-2.7374 2.7374 67.244 67.181 2.7374-2.7372z" clip-path="none" color="#000000" color-rendering="auto" image-rendering="auto" solid-color="#000000" style="isolation:auto;mix-blend-mode:normal;text-decoration-color:#000000;text-decoration-line:none;text-decoration-style:solid;text-indent:0;text-transform:none;white-space:normal"/><path d="m-313.69 930.26-59.581 61.633 2.7827 2.692 59.582-61.636z" color="#000000" color-rendering="auto" image-rendering="auto" solid-color="#000000" style="isolation:auto;mix-blend-mode:normal;text-decoration-color:#000000;text-decoration-line:none;text-decoration-style:solid;text-indent:0;text-transform:none;white-space:normal"/><path d="m-359.22 1007.2-26.617 26.94 2.7525 2.7223 26.617-26.94z" clip-path="none" color="#000000" color-rendering="auto" image-rendering="auto" solid-color="#000000" style="isolation:auto;mix-blend-mode:normal;text-decoration-color:#000000;text-decoration-line:none;text-decoration-style:solid;text-indent:0;text-transform:none;white-space:normal"/><path d="m-309.62 1004.4-26.617 26.94 2.7525 2.7223 26.617-26.94z" clip-path="none" color="#000000" color-rendering="auto" image-rendering="auto" solid-color="#000000" style="isolation:auto;mix-blend-mode:normal;text-decoration-color:#000000;text-decoration-line:none;text-decoration-style:solid;text-indent:0;text-transform:none;white-space:normal"/></g></g><path d="m134.09 94.812c1.9553-0.66767 3.5578-1.2237 3.561-1.2356 8e-3 -0.02877-3.7042-2.6843-3.7702-2.6971-0.0422-0.0085-3.3865 5.1131-3.3557 5.1386 6e-3 0.0056 1.6095-0.53818 3.5648-1.2059zm10.579-6.0473c3.3962-2.3463 6.1783-4.2802 6.1823-4.2976 4e-3 -0.01763-0.11312-0.1183-0.26027-0.22417l-0.26758-0.1924-0.13906 0.08827c-0.14187 0.08982-12.03 8.3075-12.197 8.4309-0.0845 0.06261-0.0712 0.08305 0.17059 0.26353 0.14419 0.10773 0.27873 0.1962 0.29897 0.19673 0.0203 0 2.8156-1.9188 6.2118-4.2651zm-1.2521-0.66615c3.3224-2.2898 6.12-4.2177 6.217-4.2843l0.17622-0.12112-0.18678-0.13255c-0.10275-0.0729-0.30702-0.23311-0.45395-0.35611-0.14694-0.1231-0.42334-0.32866-0.61426-0.45695l-0.34713-0.23328-0.1668 0.10576c-0.0918 0.05838-2.733 1.8766-5.8696 4.0409-3.1365 2.1644-5.8686 4.0481-6.0714 4.186l-0.36864 0.2508 0.2409 0.17814c0.13247 0.09814 0.26869 0.17874 0.30268 0.17939 0.0341 0 0.27748 0.18234 0.54103 0.40384 0.26358 0.2214 0.49739 0.4026 0.51961 0.4026 0.0221 0 2.7587-1.8735 6.0811-4.1633zm-1.9626-1.642c3.4079-2.3483 6.1988-4.2816 6.2022-4.2962 3e-3 -0.01495-0.12238-0.11957-0.27947-0.23352l-0.28559-0.20701-0.12812 0.08221c-0.4327 0.27738-12.305 8.4847-12.308 8.5087-4e-3 0.03003 0.4921 0.38759 0.56326 0.40561 0.0219 0.0056 2.8281-1.9113 6.2359-4.2596zm11.442-3.3719c0.66569-0.45902 1.3177-0.90871 1.4488-0.99935 0.66292-0.45786 1.03-1.1067 0.96905-1.7125-0.045-0.44687-0.29612-0.79001-0.85119-1.1629-0.61987-0.41651-1.1243-0.55234-1.922-0.51751-0.51646 0.02242-0.92578 0.11577-1.4005 0.31934-0.28606 0.12268-1.6579 1.0323-3.1382 2.0809l-0.14178 0.10054 1.8748 1.3521c1.0311 0.74369 1.8918 1.3571 1.9127 1.363 0.0209 0.0056 0.5826-0.36464 1.2483-0.8236z" fill="url(#linearGradient4)"/><path d="m133.09 88.144 4.6323 4.0099 12.353-14.344-4.648-4.0257z" fill="#666" fill-rule="evenodd"/><g fill="#fff"><path d="m133.08 88.14c0.0723 0.01904 4.609 3.9552 4.6077 3.9976-5.4e-4 0.01777-1.5474 0.84196-3.4382 1.8317-0.44339 0.23207-0.41799 0.21523-0.8086 0.4196l-1.7873-1.58c0.65696-2.2195 1.3978-4.6793 1.4263-4.6689zm-1.6798 5.5452 1.2562 1.1087c-0.71081 0.37027-1.8526 0.97099-1.8562 0.96187-0.01-0.0099 0.36219-1.2548 0.60004-2.0706z"/><g fill="#fc0"><path d="m143.89 85.006c2.9972-3.4777 5.4495-6.3442 5.4495-6.3701 0-0.02538-0.14731-0.17524-0.32736-0.33218l-0.32734-0.28524-0.12461 0.13043c-0.12714 0.13396-10.617 12.314-10.763 12.497-0.0736 0.09321-0.0547 0.12366 0.24273 0.39065 0.17736 0.15931 0.33996 0.29066 0.36133 0.2915 0.0213 0 2.4911-2.8441 5.4884-6.3218z"/><path d="m142.42 84.019c2.9334-3.394 5.4035-6.2516 5.4891-6.3503l0.1557-0.1793-0.22807-0.19642c-0.12546-0.10844-0.37857-0.34558-0.56251-0.52778-0.18394-0.18235-0.52375-0.48725-0.75514-0.67741l-0.4207-0.34574-0.1495 0.15593c-0.0823 0.08644-2.4147 2.7815-5.1833 5.9896-2.7686 3.2079-5.1806 6.0001-5.3601 6.2045l-0.32626 0.37167 0.29587 0.26405c0.16273 0.14576 0.3252 0.26506 0.36104 0.26592 0.0359 0 0.33527 0.27031 0.66543 0.5986 0.33015 0.32811 0.61935 0.59674 0.64265 0.59674s2.4424-2.777 5.3758-6.171z"/><path d="m139.96 81.585c3.0089-3.4808 5.4708-6.3464 5.4708-6.3681 0-0.022-0.1574-0.17728-0.34977-0.34608l-0.34977-0.30693-0.11452 0.12197c-0.38707 0.41115-10.863 12.576-10.861 12.612 3e-3 0.04399 0.61013 0.57455 0.68918 0.60116 0.0244 0.01692 2.506-2.8329 5.515-6.3137z"/></g></g><path d="m151.16 76.587c0.58768-0.68029 1.1632-1.3469 1.279-1.4813 0.58509-0.6786 0.81355-1.6404 0.60308-2.5383-0.15523-0.66232-0.50175-1.1709-1.1744-1.7236-0.75125-0.61742-1.3134-0.81876-2.1423-0.76707-0.53661 0.03384-0.9436 0.17168-1.3926 0.47335-0.27057 0.18169-1.4904 1.5299-2.7906 3.0842l-0.12448 0.14914 2.2944 2.0041c1.262 1.1023 2.3136 2.0116 2.3369 2.0204 0.0233 0.01692 0.5233-0.54047 1.111-1.2208z" fill="#eaf"/><path d="m145.41 73.785 4.648 4.0733 1.3865-1.6167-4.6953-4.0257z" fill="#fff" fill-rule="evenodd"/></g></svg>
