<?xml version="1.0" encoding="UTF-8" standalone="no"?>
<!-- Created with Inkscape (http://www.inkscape.org/) -->

<svg
   xmlns:dc="http://purl.org/dc/elements/1.1/"
   xmlns:cc="http://creativecommons.org/ns#"
   xmlns:rdf="http://www.w3.org/1999/02/22-rdf-syntax-ns#"
   xmlns:svg="http://www.w3.org/2000/svg"
   xmlns="http://www.w3.org/2000/svg"
   xmlns:xlink="http://www.w3.org/1999/xlink"
   xmlns:sodipodi="http://sodipodi.sourceforge.net/DTD/sodipodi-0.dtd"
   xmlns:inkscape="http://www.inkscape.org/namespaces/inkscape"
   width="320"
   height="70"
   viewBox="0 0 320 70"
   id="svg54877"
   version="1.1"
   inkscape:version="0.91 r"
   sodipodi:docname="mappluslogo.svg"
   inkscape:export-filename="/home/stefano/Pictures/mp_flat/open_16.png"
   inkscape:export-xdpi="90.517242"
   inkscape:export-ydpi="90.517242">
  <sodipodi:namedview
     id="base"
     pagecolor="#ffffff"
     bordercolor="#666666"
     borderopacity="1.0"
     inkscape:pageopacity="0.0"
     inkscape:pageshadow="2"
     inkscape:zoom="4"
     inkscape:cx="192.45997"
     inkscape:cy="6.9399691"
     inkscape:document-units="px"
     inkscape:current-layer="layer1"
     showgrid="false"
     units="px"
     inkscape:window-width="2511"
     inkscape:window-height="1416"
     inkscape:window-x="49"
     inkscape:window-y="24"
     inkscape:window-maximized="1"
     showguides="true"
     inkscape:guide-bbox="true">
    <sodipodi:guide
       position="126.75,12.904699"
       orientation="0,1"
       id="guide4218" />
    <sodipodi:guide
       position="-254.5,-353.00001"
       orientation="1,0"
       id="guide4259" />
    <sodipodi:guide
       position="72.25,40.000001"
       orientation="0,1"
       id="guide14224" />
    <sodipodi:guide
       position="102,34.750001"
       orientation="0,1"
       id="guide14226" />
    <sodipodi:guide
       position="12.374369,-10.253048"
       orientation="1,0"
       id="guide14245" />
    <sodipodi:guide
       position="183.49421,-54.447223"
       orientation="1,0"
       id="guide14247" />
    <sodipodi:guide
       position="196.57569,-21.213204"
       orientation="1,0"
       id="guide14249" />
    <sodipodi:guide
       position="160.75,53.500001"
       orientation="0,1"
       id="guide14268" />
    <sodipodi:guide
       position="286.25,9.875"
       orientation="1,0"
       id="guide14175" />
    <sodipodi:guide
       position="230.125,0"
       orientation="1,0"
       id="guide14177" />
    <sodipodi:guide
       position="579,99"
       orientation="0,1"
       id="guide14189" />
  </sodipodi:namedview>
  <defs
     id="defs54879">
    <linearGradient
       inkscape:collect="always"
       id="linearGradient14212">
      <stop
         style="stop-color:#f8f8f8;stop-opacity:1"
         offset="0"
         id="stop14214" />
      <stop
         style="stop-color:#ffffff;stop-opacity:1"
         offset="1"
         id="stop14216" />
    </linearGradient>
    <linearGradient
       inkscape:collect="always"
       xlink:href="#linearGradient14212"
       id="linearGradient14218"
       x1="160.7784"
       y1="982.00507"
       x2="160.7784"
       y2="987.46014"
       gradientUnits="userSpaceOnUse" />
  </defs>
  <metadata
     id="metadata54882">
    <rdf:RDF>
      <cc:Work
         rdf:about="">
        <dc:format>image/svg+xml</dc:format>
        <dc:type
           rdf:resource="http://purl.org/dc/dcmitype/StillImage" />
        <dc:title></dc:title>
      </cc:Work>
    </rdf:RDF>
  </metadata>
  <g
     inkscape:label="Layer 2"
     id="layer5"
     inkscape:groupmode="layer"
     transform="translate(0,15)"
     style="display:inline" />
  <g
     inkscape:label="Layer 3"
     id="layer6"
     inkscape:groupmode="layer"
     style="display:inline;opacity:0.5"
     transform="translate(0,15)" />
  <g
     transform="translate(0,-982.36216)"
     id="layer1"
     inkscape:groupmode="layer"
     inkscape:label="Layer 1"
     style="display:inline">
    <rect
       style="opacity:1;fill:url(#linearGradient14218);fill-opacity:1;stroke:none;stroke-width:1;stroke-linecap:round;stroke-linejoin:round;stroke-miterlimit:4;stroke-dasharray:none;stroke-opacity:1"
       id="rect14210"
       width="320"
       height="70.5"
       x="0"
       y="981.86218" />
    <text
       sodipodi:linespacing="125%"
       id="text55462"
       y="1017.6539"
       x="212.89771"
       style="font-style:normal;font-variant:normal;font-weight:normal;font-stretch:normal;font-size:12.29400063px;line-height:125%;font-family:'Bitstream Vera Sans';-inkscape-font-specification:'Bitstream Vera Sans, Normal';text-align:start;letter-spacing:0px;word-spacing:0px;writing-mode:lr-tb;text-anchor:start;fill:#4d648d;fill-opacity:1;stroke:none;stroke-width:1px;stroke-linecap:butt;stroke-linejoin:miter;stroke-opacity:1"
       xml:space="preserve"
       inkscape:export-filename="/home/stefano/Pictures/mp_flat/mapplus.png"
       inkscape:export-xdpi="90"
       inkscape:export-ydpi="90"><tspan
         y="1017.6539"
         x="212.89771"
         id="tspan55464"
         sodipodi:role="line">by TYDAC</tspan></text>
    <g
       id="g17115"
       inkscape:export-filename="/home/stefano/Pictures/mp_flat/mappluslogo_small.png"
       inkscape:export-xdpi="90.517242"
       inkscape:export-ydpi="90.517242"
       transform="matrix(0.65723116,0,0,0.65723116,4.84039,363.50932)">
      <g
         style="font-style:normal;font-variant:normal;font-weight:normal;font-stretch:normal;font-size:64.27476501px;line-height:125%;font-family:'Bauhaus 93';-inkscape-font-specification:'Bauhaus 93, Normal';text-align:start;letter-spacing:0px;word-spacing:0px;writing-mode:lr-tb;text-anchor:start;fill:#4d648d;fill-opacity:1;stroke:none;stroke-width:1px;stroke-linecap:butt;stroke-linejoin:miter;stroke-opacity:1"
         id="text55427"
         transform="matrix(1.84488,0,0,1.84488,-14.025823,-886.56967)">
        <path
           d="m 56.871401,1032.4963 -11.737677,0 0,-16.8846 q 0,-1.9459 -0.407994,-2.6991 -0.407994,-0.7532 -1.475056,-0.7532 -1.977202,0 -1.977202,3.4836 l 0,16.8533 -11.737677,0 0,-16.8846 q 0,-1.9459 -0.439378,-2.6991 -0.407994,-0.7532 -1.475056,-0.7532 -1.945818,0 -1.945818,3.4836 l 0,16.8533 -11.737677,0 0,-19.2698 q 0,-5.2726 3.546411,-8.9445 3.54641,-3.7034 8.59926,-3.7034 5.209771,0 9.352481,4.3938 4.613472,-4.3938 9.226943,-4.3938 5.868839,0 9.415249,4.2683 2.793191,3.3267 2.793191,9.6977 l 0,17.9517 z"
           id="path17138"
           style="fill:#4d648d;fill-opacity:1"
           inkscape:connector-curvature="0" />
        <path
           d="m 81.162743,1020.7587 0,12.1456 q -1.443671,0.2511 -2.636269,0.2511 -7.061437,0 -11.769061,-4.6449 -4.707625,-4.6448 -4.707625,-11.6435 0,-6.8103 4.739009,-11.5493 4.770392,-4.7391 11.580756,-4.7391 7.594967,0 11.957366,4.4566 4.393782,4.4252 4.393782,12.1143 l 0,15.3468 -11.737676,0 0,-14.4994 q 0,-2.4794 -1.223983,-3.9544 -1.192598,-1.4751 -3.232568,-1.4751 -1.851666,0 -3.201185,1.3495 -1.349519,1.3495 -1.349519,3.2012 0,1.9458 1.223982,3.2012 1.223983,1.2553 3.107032,1.2553 1.537824,0 2.855959,-0.8159 z"
           id="path17140"
           style="fill:#4d648d;fill-opacity:1"
           inkscape:connector-curvature="0" />
        <path
           d="m 112.60968,1044.0771 -11.73768,0 0,-26.1116 q 0,-7.187 3.7661,-11.7063 2.16551,-2.6049 5.49223,-4.1427 3.35811,-1.5379 6.87313,-1.5379 6.99867,0 11.80045,4.7077 4.80177,4.7076 4.80177,11.5493 0,6.6535 -4.77039,11.4866 -4.77039,4.8332 -11.2983,4.8332 -1.06706,0 -3.13841,-0.2197 l 0,-12.9303 q 1.44367,1.1613 2.88734,1.1613 1.82028,0 3.10703,-1.3496 1.31814,-1.3495 1.31814,-3.2011 0,-1.8517 -1.34952,-3.1385 -1.34952,-1.3181 -3.23257,-1.3181 -4.51932,0 -4.51932,6.2454 l 0,25.6723 z"
           id="path17142"
           style="fill:#4d648d;fill-opacity:1"
           inkscape:connector-curvature="0" />
      </g>
      <g
         style="font-style:normal;font-variant:normal;font-weight:normal;font-stretch:normal;font-size:64.27476501px;line-height:125%;font-family:'Bauhaus 93';-inkscape-font-specification:'Bauhaus 93, Normal';text-align:start;letter-spacing:0px;word-spacing:0px;writing-mode:lr-tb;text-anchor:start;fill:#777767;fill-opacity:1;stroke:none;stroke-width:1px;stroke-linecap:butt;stroke-linejoin:miter;stroke-opacity:1"
         id="text55427-4"
         transform="matrix(1.84488,0,0,1.84488,-7.509193,-886.56967)">
        <path
           d="m 149.88097,1020.1443 -11.48661,0 0,-8.8503 11.48661,0 0,-12.05156 9.10141,0 0,12.05156 11.4866,0 0,8.8503 -11.4866,0 0,12.0201 -9.10141,0 0,-12.0201 z"
           id="path17145"
           style="fill:#777767;fill-opacity:1"
           inkscape:connector-curvature="0" />
      </g>
    </g>
  </g>
  <g
     inkscape:groupmode="layer"
     id="layer4"
     inkscape:label="Layer 4"
     style="display:inline"
     transform="translate(0,-5)" />
  <g
     inkscape:groupmode="layer"
     id="layer7"
     inkscape:label="Layer 5"
     style="display:inline"
     transform="translate(0,-5)" />
</svg>
