<?xml version="1.0" encoding="utf-8"?>
<!-- Svg Vector Icons : http://www.onlinewebfonts.com/icon -->
<!DOCTYPE svg PUBLIC "-//W3C//DTD SVG 1.1//EN" "http://www.w3.org/Graphics/SVG/1.1/DTD/svg11.dtd">
<svg version="1.1" xmlns="http://www.w3.org/2000/svg" xmlns:xlink="http://www.w3.org/1999/xlink" x="0px" y="0px" viewBox="0 0 256 256" enable-background="new 0 0 256 256" xml:space="preserve">
<metadata> Svg Vector Icons : http://www.onlinewebfonts.com/icon </metadata>
<g><g><g><path fill="#000000" d="M116.7,10.3C75.8,14.5,39.9,39.4,22,76c-4.3,8.7-6.3,14.2-8.6,23.1C10.6,110.2,10,115.5,10,128c0,12.5,0.6,17.8,3.4,28.9c2.3,8.9,4.3,14.4,8.6,23.1c11.4,23.3,30.6,42.6,54,54c8.7,4.3,14.2,6.3,23.1,8.5c11.1,2.8,16.4,3.4,28.9,3.4s17.8-0.6,28.9-3.4c8.9-2.3,14.4-4.3,23.1-8.5c23.3-11.5,42.6-30.7,54-54c4.3-8.7,6.3-14.2,8.6-23.1c2.8-11.1,3.4-16.4,3.4-28.9s-0.6-17.8-3.4-28.9c-2.3-8.9-4.3-14.4-8.5-23.1c-7.4-15.1-18.6-29.2-31.8-39.9c-9.1-7.4-22.7-15.2-33.7-19.2c-6-2.2-17.1-5-23.8-6C138.4,10,122.7,9.6,116.7,10.3z M143.2,25.7c41.3,6.3,74.9,36.9,85.2,77.8c2.1,8.3,2.8,14.4,2.8,24.6c0,17.2-3.3,31.2-10.9,46.2c-15.4,30.4-43.7,51-77.6,56.2c-7.3,1.1-22.2,1.1-29.6,0c-45.6-7.1-80.6-42.1-87.6-87.6c-1.1-7.3-1.1-22.7,0-29.8c7.7-48.1,45.8-83.8,94.1-88.2C123.9,24.5,138.5,25,143.2,25.7z"/><path fill="#000000" d="M125.9,57.2c-14.3,1.3-24.5,6.3-32,15.4c-3,3.7-6.7,11-8,15.7c-1.2,4.3-2.3,11.9-2.3,15.1v2.4h11h11l0.5-5.5c1.6-16.2,9.2-24.6,22.5-24.7c8.4,0,15,4,18.7,11.6c1.7,3.5,1.7,3.5,1.7,9.7c0,5.9-0.1,6.4-1.3,9c-2.2,4.6-4.6,7.3-12.2,13.5c-8.4,6.8-11.3,10.2-14.2,16c-3.1,6.3-4.6,13.2-4.9,23.1l-0.1,4.6H128h11.8l0.3-5.5c0.6-9.5,2.5-15.8,6.5-20.3c1.1-1.2,5-4.6,8.7-7.5c9.7-7.7,13.8-12,16.4-17.3c2.9-5.9,3.7-9.9,3.4-18.2c-0.2-5.7-0.4-7-1.7-10.9c-5.5-16-20-25.6-40.7-26.5C129.9,57.1,126.9,57.1,125.9,57.2z"/><path fill="#000000" d="M116.2,175.8c-0.1,0.3-0.2,5.7-0.1,11.9l0.1,11.3H128h11.8v-11.8v-11.8l-11.7-0.1C118.9,175.2,116.4,175.3,116.2,175.8z"/></g></g></g>
</svg>