<?xml version="1.0" encoding="UTF-8" standalone="no"?>
<!-- Uploaded to: SVG Repo, www.svgrepo.com, Generator: SVG Repo Mixer Tools -->

<svg
   fill="#000000"
   height="800"
   width="800"
   version="1.1"
   id="Capa_1"
   viewBox="0 0 270 270"
   xml:space="preserve"
   sodipodi:docname="btn_splitview.svg"
   inkscape:version="1.4 (1:1.4+202410161351+e7c3feb100)"
   xmlns:inkscape="http://www.inkscape.org/namespaces/inkscape"
   xmlns:sodipodi="http://sodipodi.sourceforge.net/DTD/sodipodi-0.dtd"
   xmlns="http://www.w3.org/2000/svg"
   xmlns:svg="http://www.w3.org/2000/svg"><defs
   id="defs1" /><sodipodi:namedview
   id="namedview1"
   pagecolor="#ffffff"
   bordercolor="#000000"
   borderopacity="0.25"
   inkscape:showpageshadow="2"
   inkscape:pageopacity="0.0"
   inkscape:pagecheckerboard="0"
   inkscape:deskcolor="#d1d1d1"
   inkscape:zoom="0.82864076"
   inkscape:cx="-165.93439"
   inkscape:cy="865.27243"
   inkscape:window-width="3840"
   inkscape:window-height="2075"
   inkscape:window-x="0"
   inkscape:window-y="0"
   inkscape:window-maximized="1"
   inkscape:current-layer="Capa_1" />

<g
   id="db-table"
   style="opacity:0;mix-blend-mode:color-dodge;fill:#000000;fill-opacity:1;fill-rule:evenodd;stroke:none;stroke-width:1"
   transform="matrix(3.6052538,0,0,2.91339,63.149039,96.563318)" /><path
   style="fill:#000000"
   d="M 10.837588,267.0728 C 6.5923285,264.93693 5.0745038,261.56381 5.0745038,254.26528 v -5.63845 H 19.865016 34.655528 v 9.94479 9.94478 H 24.181203 c -9.583394,0 -10.718384,-0.12279 -13.343615,-1.4436 z m 37.322321,-8.50118 v -9.94479 h 14.790512 14.790513 v 9.94479 9.94478 H 62.950421 48.159909 Z m 42.87105,9.51705 c -0.235791,-0.23525 -0.42871,-4.71041 -0.42871,-9.94478 v -9.51706 h 14.790511 14.79051 v 9.94479 9.94478 h -14.3618 c -7.89899,0 -14.55472,-0.19248 -14.790511,-0.42773 z m 42.656691,-9.51705 v -9.94479 h 14.79052 14.79051 v 9.94479 9.94478 h -14.79051 -14.79052 z m 42.7247,9.11189 c -0.17619,-0.4581 -0.23945,-4.86107 -0.14058,-9.78439 l 0.17976,-8.95149 14.62974,-0.17244 14.62975,-0.17245 v 6.51271 c 0,5.54859 -0.20511,6.84381 -1.38551,8.74939 -2.41218,3.89409 -5.0972,4.62129 -17.12281,4.63747 -8.00026,0.0108 -10.54557,-0.18238 -10.79035,-0.8188 z M 5.5032143,235.36712 c -0.2357907,-0.23525 -0.4287105,-4.7104 -0.4287105,-9.94478 v -9.51705 H 19.865016 34.655528 v 9.94478 9.94479 H 20.293727 c -7.898991,0 -14.5547219,-0.19248 -14.7905127,-0.42774 z m 42.6566947,-9.505 v -9.95683 h 14.807262 14.807261 l -0.177515,9.78438 -0.177516,9.78439 -14.629746,0.17244 -14.629746,0.17245 z m 42.87105,9.505 c -0.235791,-0.23525 -0.42871,-4.7104 -0.42871,-9.94478 v -9.51705 h 14.790511 14.79051 v 9.94478 9.94479 h -14.3618 c -7.89899,0 -14.55472,-0.19248 -14.790511,-0.42774 z m 42.656691,-9.51705 v -9.94478 h 14.79052 14.79051 v 9.94478 9.94479 h -14.79051 -14.79052 z m 42.87105,9.51705 c -0.23579,-0.23525 -0.42871,-4.7104 -0.42871,-9.94478 v -9.51705 h 14.79052 14.79051 v 9.94478 9.94479 h -14.3618 c -7.89899,0 -14.55473,-0.19248 -14.79052,-0.42774 z M 5.0745038,192.80773 v -9.62399 H 19.865016 34.655528 v 9.62399 9.62398 H 19.865016 5.0745038 Z m 43.0854052,0 v -9.62399 h 14.790512 14.790513 v 9.62399 9.62398 H 62.950421 48.159909 Z m 42.44234,0 v -9.62399 h 14.790511 14.79051 v 9.62399 9.62398 H 105.39276 90.602249 Z m 43.085401,0 v -9.62399 h 14.79052 14.79051 v 9.62399 9.62398 h -14.79051 -14.79052 z m 42.44234,0 v -9.62399 h 14.79052 14.79051 v 9.62399 9.62398 H 190.92051 176.12999 Z M 219.2154,173.61996 V 155.7154 l 3.37609,-0.42402 c 16.43481,-2.06413 31.15248,-5.45258 39.38778,-9.06826 2.82949,-1.24228 5.50625,-2.41553 5.94836,-2.60724 0.63125,-0.27373 0.80383,3.18499 0.80383,16.11002 0,16.29445 -0.0147,16.47322 -1.47157,17.92679 -3.75209,3.74354 -11.9009,7.1667 -23.90026,10.04005 -7.25317,1.73683 -19.70763,3.83179 -22.77986,3.83179 -1.35786,0 -1.36437,-0.0855 -1.36437,-17.90457 z M 5.0745038,160.08618 V 150.4622 H 19.865016 34.655528 v 9.62398 9.62398 H 19.865016 5.0745038 Z m 43.0854052,0 v -9.62398 h 14.790512 14.790513 v 9.62398 9.62398 H 62.950421 48.159909 Z m 42.44234,0 v -9.62398 h 14.790511 14.79051 v 9.62398 9.62398 H 105.39276 90.602249 Z m 43.085401,0 v -9.62398 h 14.79052 14.79051 v 9.62398 9.62398 h -14.79051 -14.79052 z m 42.44234,0 v -9.62398 h 14.79052 14.79051 v 9.62398 9.62398 h -14.79051 -14.79052 z m 43.08541,-33.58197 c 0,-15.05936 -0.25683,-17.65512 -2.20703,-22.306 -0.36753,-0.87649 0.32059,-1.09826 4.58493,-1.47765 8.92615,-0.79415 18.33383,-2.37643 26.88159,-4.521231 7.04047,-1.766591 10.38721,-2.89786 19.45274,-6.575435 0.63146,-0.256164 0.80383,3.445083 0.80383,17.260666 v 17.58676 l -2.08996,2.01051 c -3.89616,3.74805 -14.33618,8.02112 -25.57843,10.46918 -6.28285,1.36812 -17.78628,3.1704 -20.23577,3.1704 h -1.6119 z M 5.1984941,123.88088 C 5.4177939,109.32947 5.5410584,108.88277 10.21249,105.71067 l 2.125934,-1.4436 92.988666,10e-4 c 87.24598,9.4e-4 93.12688,0.0703 95.22658,1.1228 1.23086,0.61699 2.89479,2.10283 3.69763,3.30188 1.39819,2.08818 1.45972,2.73048 1.45972,15.23797 v 13.0579 H 105.35598 5.0009515 Z M 172.2716,90.117787 c -14.9207,-1.416764 -30.40653,-4.535595 -39.59559,-7.974517 -5.92944,-2.219035 -11.21037,-5.440842 -11.91825,-7.271116 -0.31597,-0.816951 -0.57449,-9.292887 -0.57449,-18.835413 0,-13.643785 0.17172,-17.273354 0.80384,-16.991024 10.78093,4.815198 22.25141,7.930832 36.81551,9.999899 37.69116,5.354642 84.07206,1.706785 106.35556,-8.364862 2.25946,-1.021225 4.21277,-1.856773 4.34069,-1.856773 0.12793,0 0.23259,8.09727 0.23259,17.993934 v 17.993934 l -1.52994,1.526454 c -4.96489,4.953565 -21.63637,10.04563 -42.19853,12.888936 -8.74247,1.208897 -43.2425,1.791547 -52.73139,0.890548 z m -2.25073,-52.626564 c -14.8712,-1.183099 -27.97041,-3.519945 -37.69035,-6.723806 -15.71089,-5.178585 -15.60365,-12.232015 0.26766,-17.605343 31.45039,-10.6477107 102.98719,-9.7323751 128.39245,1.642822 4.92422,2.204819 8.01887,5.499112 7.41904,7.897681 -0.63392,2.534939 -2.0746,3.798606 -7.05046,6.184199 -8.27064,3.965219 -24.22664,7.136078 -43.39772,8.62422 -9.80725,0.761282 -38.27056,0.749541 -47.94062,-0.01977 z"
   id="path1" /></svg>
