<?xml version="1.0" encoding="UTF-8"?>
<svg width="130" height="130" version="1.1" viewBox="0 0 130 130" xmlns="http://www.w3.org/2000/svg" xmlns:cc="http://creativecommons.org/ns#" xmlns:dc="http://purl.org/dc/elements/1.1/" xmlns:rdf="http://www.w3.org/1999/02/22-rdf-syntax-ns#" xmlns:xlink="http://www.w3.org/1999/xlink">
 <defs>
  <linearGradient id="linearGradient3914" x1="101.1" x2="83.647" y1="82.566" y2="111.95" gradientTransform="translate(0 8.0007)" gradientUnits="userSpaceOnUse">
   <stop stop-color="#c87137" offset="0"/>
   <stop stop-color="#c87137" offset=".1484"/>
   <stop stop-color="#da9e79" offset=".31252"/>
   <stop stop-color="#c87137" offset=".53076"/>
   <stop stop-color="#c87137" offset=".60666"/>
   <stop stop-color="#190e07" offset="1"/>
  </linearGradient>
  <linearGradient id="linearGradient3963" x1="-122.82" x2="-127.78" y1="184.05" y2="163.03" gradientTransform="translate(.45866 7.602)" gradientUnits="userSpaceOnUse">
   <stop stop-color="#98562a" offset="0"/>
   <stop stop-color="#deaa87" stop-opacity=".99899" offset="1"/>
  </linearGradient>
  <linearGradient id="linearGradient3833" x1="33.661" x2="49.279" y1="80.86" y2="108.36" gradientTransform="translate(0 8.0007)" gradientUnits="userSpaceOnUse">
   <stop stop-color="#c9763b" offset="0"/>
   <stop stop-color="#deaa87" offset=".15408"/>
   <stop stop-color="#deaa87" offset=".36042"/>
   <stop stop-color="#915a35" offset=".72084"/>
   <stop stop-color="#24140a" offset="1"/>
  </linearGradient>
  <radialGradient id="radialGradient3529" cx="67.517" cy="77.064" r="34.607" gradientTransform="matrix(.88747 0 0 .36547 7.5974 48.899)" gradientUnits="userSpaceOnUse">
   <stop stop-color="#fdff3e" offset="0"/>
   <stop stop-color="#f70320" offset=".38903"/>
   <stop offset="1"/>
  </radialGradient>
  <filter id="filter3873" x="-.067569" y="-.13469" width="1.1351" height="1.2694" color-interpolation-filters="sRGB">
   <feGaussianBlur stdDeviation="1.7409123"/>
  </filter>
  <linearGradient id="linearGradient1823" x1="171.9" x2="171.44" y1="107.18" y2="1.7865" gradientUnits="userSpaceOnUse">
   <stop stop-color="#952b00" offset="0"/>
   <stop stop-color="#ed0c0c" stop-opacity=".99608" offset=".36521"/>
   <stop stop-color="#ff7707" stop-opacity=".76863" offset=".61325"/>
   <stop stop-color="#fbff54" stop-opacity="0" offset="1"/>
  </linearGradient>
  <linearGradient id="linearGradient1833" x1="175.36" x2="169.82" y1="104.71" y2="7.6592" gradientUnits="userSpaceOnUse">
   <stop stop-color="#b40019" offset="0"/>
   <stop stop-color="#f61025" offset=".074893"/>
   <stop stop-color="#fa6e0d" offset=".50001"/>
   <stop stop-color="#fcbe0b" offset=".64742"/>
   <stop stop-color="#ffee1c" stop-opacity="0" offset="1"/>
  </linearGradient>
  <linearGradient id="linearGradient3519" x1="165.08" x2="166.1" y1="93.564" y2="42.48" gradientUnits="userSpaceOnUse">
   <stop stop-color="#fd5" offset="0"/>
   <stop stop-color="#fd5" stop-opacity=".56717" offset="1"/>
  </linearGradient>
  <linearGradient id="linearGradient3930" x1="25.753" x2="25.533" y1="118.58" y2="97.146" gradientTransform="matrix(1.0063 0 0 1.0063 .84178 6.5494)" gradientUnits="userSpaceOnUse">
   <stop stop-color="#25150b" offset="0"/>
   <stop stop-color="#c87137" offset="1"/>
  </linearGradient>
  <linearGradient id="linearGradient2084" x1="174.61" x2="173.91" y1="98.351" y2="74.081" gradientUnits="userSpaceOnUse">
   <stop stop-color="#fffdf6" offset="0"/>
   <stop stop-color="#fd5" offset="1"/>
  </linearGradient>
 </defs>
 <metadata>
  <rdf:RDF>
   <cc:Work rdf:about="">
    <dc:format>image/svg+xml</dc:format>
    <dc:type rdf:resource="http://purl.org/dc/dcmitype/StillImage"/>
    <dc:title/>
   </cc:Work>
  </rdf:RDF>
 </metadata>
 <circle cx=".0005459" cy=".00094714" r="1.3967e-12" fill="#151515" stroke="#000"/>
 <rect width="130" height="130" fill="none" stop-color="#000000" style="font-variation-settings:normal;paint-order:stroke fill markers"/>
 <g>
  <path d="m29.342 50.228c1.0826 0.01624 2.0518 0.26659 2.873 0.74219l0.01-0.01367 84.151 48.662c-2.3613-1.1179-5.7049-0.50814-9.2109 1.6797-6.8828 4.2954-12.463 13.357-12.463 20.24 2.8e-4 2.557 0.78717 4.561 2.2539 5.7402 1.2e-4 1e-3 -1.2e-4 3e-3 0 4e-3l-84.483-48.717 0.043-0.05859c-1.524-1.1686-2.3438-3.2017-2.3438-5.8125-3.4e-4 -6.8823 5.5785-15.944 12.461-20.24 2.3776-1.4837 4.7055-2.2563 6.709-2.2266z" fill="url(#linearGradient3914)" stop-color="#000000" style="paint-order:stroke fill markers"/>
  <ellipse transform="matrix(-.84833 .52946 0 1 0 0)" cx="-126.13" cy="180.48" rx="14.691" ry="12.462" fill="url(#linearGradient3963)" stop-color="#000000" style="paint-order:stroke fill markers"/>
  <path d="m101.05 49.459c-1.0826 0.01624-2.0518 0.26659-2.873 0.74219l-0.0098-0.01367-84.151 48.662c2.3613-1.1179 5.7049-0.50814 9.2109 1.6797 6.8828 4.2954 12.463 13.357 12.463 20.24-2.79e-4 2.557-0.78717 4.561-2.2539 5.7402-1.24e-4 1e-3 1.25e-4 3e-3 0 4e-3l84.483-48.717-0.043-0.05859c1.524-1.1686 2.3438-3.2017 2.3438-5.8125 3.4e-4 -6.8823-5.5785-15.944-12.461-20.24-2.3776-1.4837-4.7055-2.2563-6.709-2.2266z" fill="url(#linearGradient3833)" stop-color="#000000" style="paint-order:stroke fill markers"/>
  <path transform="matrix(1.1453 0 0 1.3167 -9.8127 -14.971)" d="m98.435 77.064c0 5.6433-7.8461 2.1294-14.14 8.3292-5.0386 4.9632-10.952 7.1809-16.778 7.1809-10.119 0-14.088-5.3258-19.728-9.0953-3.8779-2.5916-11.19-2.9249-11.19-6.4149 0-3.2407 7.075-2.4902 10.463-4.9784 5.5674-4.0888 9.8396-10.532 20.455-10.532 6.8237 0 6.7261 4.8005 11.84 6.6788 7.6833 2.8218 19.078 3.6885 19.078 8.8314z" fill="url(#radialGradient3529)" filter="url(#filter3873)" opacity=".89972" stop-color="#000000" style="paint-order:stroke fill markers"/>
  <path transform="matrix(1.0838 0 0 .89611 -123.12 -.51563)" d="m173.99 1.5273a1.1739 1.1739 0 0 0-0.36523 0.048828c-0.27522 0.082022-0.43429 0.12668-0.625 0.19922-0.19072 0.072538-0.39245 0.18474-0.53125 0.27734-0.27761 0.1852-0.57996 0.4139-1.7715 1.1113-0.17593 0.10305-0.26823 0.18553-0.30273 0.21094-7e-3 0.0054-0.0702 0.049421-0.125 0.089844-0.0191 0.014049-0.0503 0.038888-0.082 0.064453-0.074 0.042292-0.14057 0.082164-0.21485 0.125a1.1739 1.1739 0 0 0-0.0469 0.029297c-0.38653 0.24783-0.79447 0.53062-1.1894 0.88477-0.62904 0.50235-1.1855 1.051-1.6973 1.6055-0.71115 0.76388-1.3543 1.589-1.9258 2.459a1.1739 1.1739 0 0 0-0.01 0.013672c-0.6931 1.0876-1.3583 2.2444-1.8594 3.5176a1.1739 1.1739 0 0 0-2e-3 0.0039c-0.12992 0.33326-0.36414 0.91047-0.5039 1.334-0.323 0.97875-0.44998 1.9326-0.56836 2.8164a1.1739 1.1739 0 0 0-4e-3 0.0332c-0.0662 0.63249 0.0207 1.2907 6e-3 1.9336-0.5709-0.71446-1.1549-1.4094-1.7363-2.0703a1.1739 1.1739 0 0 0-0.01-0.0098c-0.70434-0.78182-1.4641-1.4651-2.2246-2.1074a1.1739 1.1739 0 0 0-0.50977-0.25c-0.22619-0.049-0.4912-0.09687-0.79297-0.11133-8.3e-4 -4e-5 -1e-3 -0.0019-2e-3 -2e-3l0.082 0.0059c-0.0618-0.0075-0.068-0.0075-0.10351-0.01172-6.6e-4 -7.8e-5 -1e-3 7.6e-5 -2e-3 0-0.0962-0.02406-0.1641-0.03547-0.3125-0.0625-0.19555-0.03556-0.2408-0.0342-0.14257-0.01758-0.12264-0.02059-0.30878-0.0638-0.55664-0.09375a1.1739 1.1739 0 0 0-0.19532-0.0059c-7e-3 3.2e-4 -0.0104 0.0014-0.0176 2e-3 -0.12657 0.0011-0.21767 7.33e-4 -0.2246 0-0.0105-0.0011-0.13485-0.02766-0.29688-0.05859a1.1739 1.1739 0 0 0-0.56641-0.14844c0.0159 6.2e-5 5e-3 -7.31e-4 -0.0332-2e-3a1.1739 1.1739 0 0 0-0.0371 0h-2e-3a1.1739 1.1739 0 0 0-0.35938 0.05664 1.1739 1.1739 0 0 0-4e-3 0 1.1739 1.1739 0 0 0-0.0156 2e-3c0.0734-0.02299 0.10767-0.02768-0.0215-0.0078a1.1739 1.1739 0 0 0-0.0664 0.01367 1.1739 1.1739 0 0 0-8e-3 0c-0.16943 0.01911-0.17946 0.0258-0.11914 0.01953 4e-3 -3.47e-4 0.0284-9.71e-4 0.0527-2e-3a1.1739 1.1739 0 0 0-0.39749 0.20125c2e-3 -0.0014 5e-3 -5.51e-4 8e-3 -2e-3a1.1739 1.1739 0 0 0-0.0195 0.01563c-0.0108 0.0073 0.026-0.02274 0.0117-0.01367a1.1739 1.1739 0 0 0-6e-3 0.0039 1.1739 1.1739 0 0 0-0.0234 0.01758c-6e-3 4e-3 -0.0164 0.0082-0.0215 0.01172a1.1739 1.1739 0 0 0-0.082 0.06445c-2e-5 2.2e-5 0.0406-0.02477 0.0606-0.03711-0.0419 0.02756-0.0957 0.06246-0.0957 0.0625a1.1739 1.1739 0 0 0-0.0566 0.05469c-0.12442 0.12806-0.05 0.05188-0.0117 0.02149-0.10597 0.06122-0.13711 0.07713-0.16602 0.08789a1.1739 1.1739 0 0 0-0.57812 1.7324c0.2887 0.45078 0.53808 0.89312 0.72851 1.3438 0.62169 1.479 1.1463 2.945 1.3926 4.4336 0.098 0.64068 0.17745 1.0854 0.2168 1.6504 0.0761 1.0925-0.015 2.2653-0.0762 3.5-1.7e-4 0.0035-2e-3 0.0063-2e-3 0.0098-0.0732 0.81394-0.0817 1.073-0.19922 1.8477-0.20803 1.3709-0.56658 2.7403-0.97851 4.123-6e-4 2e-3 -1e-3 0.0039-2e-3 0.0059-0.80572 2.5492-1.8051 5.0486-2.8691 7.5449a1.1739 1.1739 0 0 0-0.0137 0.03711c-0.63593 1.6431-1.2666 3.2924-1.877 4.9512l6e-3 -0.01172c-0.59505 1.5598-1.2386 3.1326-1.8066 4.7637a1.1739 1.1739 0 0 0-0.0215 0.07031c-0.18086 0.64502-0.29994 1.0245-0.44726 1.7441-0.27854 1.3605-0.35255 2.6975-0.42969 3.9668a1.1739 1.1739 0 0 0-2e-3 0.04687c-0.0207 1.0734 0.0904 2.1467 0.14843 3.2207-0.19539-0.14367-0.38317-0.26895-0.58984-0.42578l-0.01-0.0078c-0.32893-0.25379-0.65319-0.47164-0.95899-0.67773l-0.0137-0.0098c-0.53252-0.36889-1.0204-0.6218-1.3828-0.875a1.1739 1.1739 0 0 0-0.0703-0.04492c-0.6585-0.39249-1.3125-0.776-1.9512-1.1641a1.1739 1.1739 0 0 0-0.0332-0.01758c-0.50361-0.28397-1.0063-0.56895-1.5098-0.85352-0.28665-0.23677-0.58417-0.44656-0.84961-0.57422-0.31306-0.15057-0.65043-0.31527-1.1641-0.26172-0.34112 0.03555-0.6636 0.20892-0.85156 0.36133s-0.29087 0.28093-0.39258 0.39844c-0.18982 0.21931-0.38723 0.44421-0.71094 0.73438-0.12977 0.07631-0.26124 0.15271-0.40039 0.23633-0.0109 0.0065-0.0227 0.01266-0.0586 0.03711-0.0179 0.01223-0.0897 0.06821-0.0898 0.06836-1e-4 7.6e-5 -0.11128 0.10541-0.11133 0.10547l-0.0312 0.03516-0.0391 0.04687s0.0715 0.0553 0.0859 0.06641a1.1739 1.1739 0 0 0-0.2011 0.46483c-0.0188-0.0033-0.10938-0.01953-0.10938-0.01953l-0.0176 0.17578 0.19531 0.67774s0.18675 0.16124 0.32422 0.28125c0.0607 0.05302 0.14258 0.125 0.14258 0.125l0.125 0.05273 2e-3 -0.0039c0.20023 0.10427 0.42849 0.23617 0.66406 0.36914 0.30295 0.31296 0.5866 0.7076 0.84961 1.1699 0.56483 1.002 1.0517 2.0682 1.4746 3.1602 0.43172 1.1371 0.83191 2.2939 1.2266 3.4609 0.30319 0.9006 0.5875 1.8104 0.85352 2.7246 4e-4 0.0014 2e-3 0.0025 2e-3 0.0039 0.20163 0.822 0.36923 1.7093 0.64453 2.6348l-0.0117-0.03906c0.2309 0.88844 0.45114 1.7725 0.64649 2.6562 0.26535 1.2384 0.55302 2.4583 0.8164 3.668 0.39027 1.8155 0.81773 3.6689 1.4883 5.4941 0.1948 0.53788 0.51698 1.4542 0.76757 2.0566 0.56752 1.3643 1.2369 2.6274 1.8262 3.8652a1.1739 1.1739 0 0 0 0.0195 0.03711c0.98057 1.8875 2.0924 3.7489 3.4766 5.4531a1.1739 1.1739 0 0 0 0.0137 0.01758c0.21586 0.25541 0.4486 0.55426 0.73438 0.86719 1.4878 1.6291 3.2487 2.8684 4.9355 4.0195a1.1739 1.1739 0 0 0 0.0254 0.01758c2.4042 1.5529 4.851 3.0661 7.3848 4.4531a1.1739 1.1739 0 0 0 0.0215 0.0117c1.6361 0.8553 3.29 1.6913 4.9766 2.4766a1.1739 1.1739 0 0 0 0.0644 0.0273c0.93515 0.37063 1.9757 0.8095 3.1992 0.95312a1.1739 1.1739 0 0 0 0.0195 2e-3c0.97812 0.0976 1.9875 0.13743 3.0312 0.0234a1.1739 1.1739 0 0 0 0.57227-0.22265l0.1875-0.13867c0.33772 0.0431 0.6679 0.0991 1.0352 0.0918 1.1005 0.0522 2.2153 0.0763 3.3477 0.0176 1.2238-0.0641 2.4358-0.17067 3.6367-0.29102a1.1739 1.1739 0 0 0 0.0508-6e-3c1.1525-0.16565 2.3324-0.42241 3.4844-0.90626 0.85463-0.31712 1.7282-0.62731 2.6074-0.9707a1.1739 1.1739 0 0 0 0.0137-6e-3c1.8077-0.73496 3.4544-1.7273 5.0098-2.7441a1.1739 1.1739 0 0 0 0.0156-0.01c1.0058-0.68005 2.0564-1.446 2.9473-2.4746a1.1739 1.1739 0 0 0 0.0312-0.03711c1.1178-1.4061 2.1293-2.9298 2.9297-4.5801a1.1739 1.1739 0 0 0 0.0215-0.04687c0.65687-1.5236 1.3435-3.1117 1.7734-4.8516 0.34583-1.3095 0.70411-2.7169 0.71485-4.248 0.035-1.1951-0.0126-2.3651-0.0605-3.5078a1.1739 1.1739 0 0 0 0-2e-3c-0.0538-1.2274-0.12387-2.4455-0.18945-3.6582a1.1739 1.1739 0 0 0-2e-3 -0.0293c-0.0907-1.1642-0.22392-2.3135-0.36718-3.4512a1.1739 1.1739 0 0 0-4e-3 -0.02539c-0.14339-0.96558-0.28542-2.0263-0.68164-3.1055l-2e-3 -0.0059c-0.3789-1.0451-0.76866-2.0389-1.0625-3.0215a1.1739 1.1739 0 0 0-0.0156-0.04687c-0.45538-1.3183-0.89571-2.6378-1.3106-3.9629l-4e-3 -0.01563c-0.28682-0.96678-0.55959-1.9227-0.78516-2.877-0.17696-0.85388-0.29259-1.6739-0.26172-2.4512a1.1739 1.1739 0 0 0 2e-3 -0.02539c0.0207-1.0905 0.0586-2.136 0.22265-3.1211 0.19437-1.0552 0.43596-2.0588 0.8086-2.9922a1.1739 1.1739 0 0 0 0.0117-0.0293c0.33649-0.91363 0.65748-1.7386 1.1074-2.4043h-2e-3c0.35589-0.5247 0.80031-1.0042 1.3106-1.4629 0.56119-0.47618 1.2004-0.95032 1.8379-1.5215a1.1739 1.1739 0 0 0 0.0391-0.03906c-5e-3 0.0054 0.10845-0.10252 0.20899-0.20312 0.0503-0.0503 0.10176-0.10257 0.15234-0.15625 0.0506-0.05368 0.0464 0.0051 0.21875-0.27539 0.29979-0.48796 0.25111-1.3787-0.14844-1.8125s-0.86105-0.54217-1.3203-0.51953a1.1739 1.1739 0 0 0-4e-3 0c-0.98729 0.05207-1.9121 0.26822-2.7793 0.52344-1.9831 0.52218-3.6228 1.5267-5.1934 2.5098a1.1739 1.1739 0 0 0-0.0176 0.01172c-0.88735 0.57921-1.7473 1.2574-2.4902 2.1094-1e-3 0.0014-3e-3 0.0025-4e-3 0.0039-0.79799 0.8803-1.5358 1.8124-2.2305 2.7754-0.0233-0.16689-0.0638-0.31958-0.084-0.49023a1.1739 1.1739 0 0 0-4e-3 -0.03125c-0.15951-1.0935-0.29869-2.2223-0.50781-3.3711l-2e-3 -0.0078c-0.17971-1.0243-0.34286-2.1021-0.63281-3.2051-0.2552-1.126-0.56781-2.213-0.86523-3.2754a1.1739 1.1739 0 0 0-4e-3 -0.01172c-0.41622-1.4287-0.86059-2.8566-1.3574-4.2734l-6e-3 -0.01563c-0.48865-1.4596-0.97107-2.9477-1.541-4.4297a1.1739 1.1739 0 0 0-4e-3 -0.0059c-0.59017-1.5043-1.1384-3.0687-1.8066-4.6289l-6e-3 -0.01563c-0.4221-1.0448-0.86253-2.0988-1.3496-3.1406a1.1739 1.1739 0 0 0-0.00491-0.012981c-0.48245-0.99643-0.97258-1.9394-1.3691-2.8809a1.1739 1.1739 0 0 0-0.0156-0.03516c-0.27325-0.59556-0.56209-1.1975-0.88671-1.7969-0.19739-0.36758-0.42168-0.77282-0.73633-1.1758l0.0996 0.15039c-0.14324-0.2563-0.31711-0.60015-0.61524-0.96289l0.11133 0.16211c-0.0858-0.14943-0.19436-0.40542-0.39258-0.72656a1.1739 1.1739 0 0 0-0.0254-0.03906c-0.11751-0.17423-0.23389-0.37325-0.35156-0.58594-0.20463-0.4534-0.41583-0.84864-0.57227-1.1973-1e-3 -0.0023-3e-3 -0.0055-4e-3 -0.0078-0.20513-0.4971-0.39067-1.026-0.58203-1.5723l-8e-3 -0.01953c-0.19335-0.58312-0.40746-1.1837-0.68359-1.7871l0.0352 0.08203c-0.21054-0.57089-0.42752-1.0113-0.5293-1.3711a1.1739 1.1739 0 0 0-0.0137-0.04687c-0.201-0.61085-0.40194-1.2278-0.60938-1.8477-0.13353-0.50803-0.22448-0.91184-0.21875-1.2188 0.035-0.36066 0.097-0.759 0.14453-1.2148a1.1739 1.1739 0 0 0 4e-3 -0.070312c0.0176-0.41077 0.0464-0.77007 0.11328-1.0723a1.1739 1.1739 0 0 0 4e-3 -0.017578c0.0908-0.44017 0.14147-0.76578 0.21875-0.9707a1.1739 1.1739 0 0 0 0.0156-0.041016c0.19063-0.56741 0.38889-1.1996 0.47461-1.9082a1.1739 1.1739 0 0 0 6e-3 -0.083984c8e-3 -0.17081 0.0372-0.4774-0.0176-0.86523-0.0548-0.38784-0.22736-0.95844-0.76172-1.3438a1.1739 1.1739 0 0 0 0-0.00195c-0.4314-0.31083-0.65401-0.27769-0.49023-0.2207a1.1739 1.1739 0 0 0-0.35547-0.064453zm-3.7715 6.3887c-0.065 0.41709-0.0974 0.81528-0.11133 1.1758-0.066 0.42476-0.13551 0.87536-0.16602 1.3633a1.1739 1.1739 0 0 0-2e-3 0.08984c0.0111 0.78555 0.22273 1.4287 0.37109 1.9551a1.1739 1.1739 0 0 0 0.0215 0.06836c0.21042 0.60133 0.40145 1.2335 0.61133 1.8848l-0.0156-0.05469c0.17972 0.66835 0.44308 1.1668 0.58984 1.5664a1.1739 1.1739 0 0 0 0.0449 0.10547c0.21769 0.45121 0.39541 0.97394 0.58789 1.5449a1.1739 1.1739 0 0 0 8e-3 0.02344c0.19882 0.55235 0.39682 1.1453 0.65625 1.7578a1.1739 1.1739 0 0 0 0.01 0.02539c0.21425 0.4747 0.42961 0.8821 0.58203 1.248a1.1739 1.1739 0 0 0 0.0391 0.08203c0.15617 0.30566 0.32599 0.58571 0.49609 0.84766l-0.0195-0.0293c0.0811 0.13344 0.18225 0.35914 0.34766 0.65039a1.1739 1.1739 0 0 0 0.10742 0.1582c0.12034 0.14898 0.24069 0.34923 0.38672 0.61328a1.1739 1.1739 0 0 0 0.0977 0.14844c0.18624 0.24145 0.35572 0.52216 0.53124 0.8457a1.1739 1.1739 0 0 0 0.00733 0.013681c0.29388 0.52467 0.56604 1.0689 0.82812 1.6289 0.46261 1.0195 0.96221 1.9891 1.4238 2.9434 0.44737 0.9892 0.87202 2.0042 1.3144 3.0293a1.1739 1.1739 0 0 0 0.0117 0.02344c0.65408 1.429 1.1789 2.9733 1.7891 4.543 0.5266 1.4169 1.0042 2.875 1.5195 4.3457 0.4728 1.3667 0.89455 2.7529 1.2773 4.1543 0.29532 1.0928 0.60397 2.1415 0.82422 3.1719a1.1739 1.1739 0 0 0 0.0176 0.06836c0.25465 0.91885 0.39003 1.937 0.58984 3.0215 0.19656 1.064 0.34029 2.1561 0.48828 3.2695l-6e-3 -0.05078c0.0671 0.76444 0.18603 1.5242 0.36719 2.2812a1.1739 1.1739 0 0 0 6e-3 0.02344c0.0789 0.30088 0.1192 0.63985 0.13867 1.0117 0.0159 0.44697 0.0142 0.91201 0.0117 1.3926a1.1739 1.1739 0 0 0 0.01 0.14453c-0.0145 0.08361-0.0602 0.24302 0 0.5625a1.1739 1.1739 0 0 0 2e-3 0.0098c0.0591 0.30081 0.23331 0.71006 0.61719 0.9707 0.38387 0.26065 0.82536 0.26718 1.1035 0.21484 0.55631-0.10467 0.82164-0.32956 1.1211-0.54297 0.5989-0.42682 1.2214-0.97226 1.3984-1.082a1.1739 1.1739 0 0 0 0.44336-0.49805c0.15455-0.32892 0.23265-0.52328 0.29492-0.61524a1.1739 1.1739 0 0 0 0.01342-0.021525c0.29781-0.46209 0.72187-0.94106 1.1699-1.5098l-0.0234 0.02734c0.77947-0.92849 1.4519-1.882 2.1289-2.7715a1.1739 1.1739 0 0 0 0.0273-0.03711c0.49532-0.70615 1.0716-1.3579 1.6445-2.0117-0.38729 0.7557-0.73892 1.5238-0.98828 2.209-1e-3 0.0026-9.2e-4 0.0052-2e-3 0.0078-0.46057 1.1663-0.71594 2.341-0.91797 3.4824a1.1739 1.1739 0 0 0-6e-3 0.03516c-0.17243 1.182-0.21268 2.3412-0.24023 3.4609-0.0478 1.1093 0.13344 2.1481 0.33789 3.1035a1.1739 1.1739 0 0 0 8e-3 0.02734c0.24876 1.04 0.54224 2.0601 0.85742 3.0645a1.1739 1.1739 0 0 0 2e-3 0.0059c0.4367 1.362 0.9038 2.6992 1.3535 4.0273 0.31719 1.0979 0.70986 2.1273 1.0508 3.1211a1.1739 1.1739 0 0 0 8e-3 0.02344c0.2771 0.75668 0.40868 1.6292 0.55469 2.5879 4.4e-4 0.0029 2e-3 0.0049 2e-3 0.0078 0.13959 1.1076 0.26868 2.2044 0.34766 3.2891 0.0523 1.2217 0.14495 2.4145 0.19531 3.5801 0.0326 1.1518 0.0716 2.2731 0.0352 3.3652a1.1739 1.1739 0 0 0 0 0.02539c-0.014 1.1544-0.30063 2.3542-0.63867 3.6191a1.1739 1.1739 0 0 0-4e-3 0.01367c-0.37266 1.4694-0.99112 2.9181-1.6406 4.4121-0.72273 1.4329-1.6215 2.7797-2.6523 4.0254-0.61808 0.64886-1.3756 1.2177-2.1973 1.7676-0.1546 0.0748-0.24161 0.11724-0.55079 0.25196-1e-3 5.7e-4 -6.2e-4 1e-3 -2e-3 2e-3 -0.82081 0.33416-1.6802 0.63561-2.5586 0.96094a1.1739 1.1739 0 0 0-0.0488 0.0195c-0.90713 0.38285-1.875 0.63115-2.8906 0.79687-1.1439 0.13912-2.2934 0.23648-3.4492 0.29493-1.0641 0.0514-2.1247 0.0593-3.1777 0.01a1.1739 1.1739 0 0 0-0.0469-2e-3c-0.80883-6e-3 -1.6652-0.16726-2.6016-0.34375a1.1739 1.1739 0 0 0-0.88867 0.1914l-0.61719 0.42969c-0.15427-5e-3 -0.32293-7e-3 -0.45703-0.0195-0.80594-0.0845-1.6515-0.38341-2.5684-0.73633-1.637-0.71079-3.2507-1.5087-4.8594-2.3398l-6e-3 -4e-3c-2.4693-1.2968-4.8664-2.7495-7.2266-4.2793-2e-3 -0.0016-4e-3 -0.0043-6e-3 -0.0059-1.6266-1.1191-3.1842-2.2788-4.4414-3.6504-0.19527-0.21303-0.40416-0.47518-0.64453-0.75781-1.2234-1.5342-2.2585-3.2317-3.1934-5.0098l-2e-3 -0.0059c-4.3e-4 -8.07e-4 -2e-3 -0.0011-2e-3 -2e-3 -0.94303-1.8287-1.7639-3.7132-2.4707-5.6484v-2e-3c-0.59286-1.634-0.98059-3.372-1.3398-5.1582a1.1739 1.1739 0 0 0-2e-3 -0.01367c-0.26379-1.2359-0.53621-2.4583-0.7832-3.6758a1.1739 1.1739 0 0 0-4e-3 -0.01758c-0.20219-0.92777-0.42623-1.8475-0.66601-2.7617a1.1739 1.1739 0 0 0-8e-3 -0.03516c-0.23283-0.79163-0.40037-1.6608-0.63672-2.582a1.1739 1.1739 0 0 0-0.0137-0.04687c-0.28038-0.93031-0.56208-1.8847-0.89649-2.8418l4e-3 0.0059c-0.10321-0.3015-0.22175-0.59783-0.32813-0.89844 0.14187 0.08896 0.30137 0.20388 0.42969 0.2832l-0.0176-0.0098c0.0853 0.05482 0.26801 0.24465 0.54297 0.51367 0.087 0.09843 0.22716 0.32912 0.52344 0.64453 0.12737 0.14778 0.30725 0.4762 0.71484 0.86914a1.1739 1.1739 0 0 0 0.12891 0.10742c0.0665 0.04785 0.0918 0.07243 0.19141 0.23633 0.14059 0.23447 0.29437 0.47169 0.45898 0.70703 0.0871 0.1413 0.1964 0.41613 0.35937 0.76172 0.0438 0.10377 6e-3 -0.0092 0.0625 0.17578a1.1739 1.1739 0 0 0 0.33985 0.53125c0.25115 0.94676 0.50791 1.8939 0.85156 2.834 0.15855 0.45145 0.31377 0.92831 0.49805 1.4199 0.14876 0.39687 0.30628 0.77026 0.45312 1.127a1.1739 1.1739 0 0 0 2.2578-0.37109c0.0192-0.29755 0.0767-0.60166 0.043-1.0508l4e-3 0.04883c-0.0163-0.47891-7e-3 -0.98836-6e-3 -1.5254a1.1739 1.1739 0 0 0-2e-3 -0.0625c-0.0175-0.33782 0.0706-0.73327 0.15625-1.3633a1.1739 1.1739 0 0 0 2e-3 0c0.0761-0.56 0.17927-1.0006 0.32617-1.5312a1.1739 1.1739 0 0 0-2e-3 -0.63086c-0.49415-1.7556-0.8653-3.5582-1.1816-5.3867-0.35547-2.2348-0.47006-4.5084-0.4043-6.7891 0.0857-1.25 0.17904-2.4611 0.42188-3.5898 0.13623-0.63323 0.22307-0.87362 0.41797-1.5234 0.54476-1.5392 1.1815-3.0765 1.7852-4.6641a1.1739 1.1739 0 0 0 0-2e-3c0.62316-1.6483 1.2069-3.2911 1.832-4.8965l4e-3 -0.01172c1.0144-2.5259 2.0579-5.0783 2.8965-7.7422a1.1739 1.1739 0 0 0 4e-3 -0.01172c0.43891-1.4478 0.84202-2.9437 1.0762-4.5039 0.13011-0.86695 0.14554-1.192 0.2168-2.0215a1.1739 1.1739 0 0 0 2e-3 -0.04687c0.0384-0.84201 0.0458-1.7763 0.0488-2.6992 0.27354 0.4028 0.54346 0.77346 0.83203 1.1914 0.45321 0.68617 0.88271 1.3644 1.2461 2.0469 0.25971 0.56228 0.50439 1.1401 0.74804 1.7305a1.1739 1.1739 0 0 0 0.0176 0.03906c0.17201 0.37764 0.33992 0.90425 0.69531 1.4805a1.1739 1.1739 0 0 0 0.0547 0.08008c0.042 0.0571 0.11728 0.24069 0.22656 0.58008 3.2e-4 9.92e-4 -3.2e-4 9.58e-4 0 2e-3 0.0236 0.12416 0.0375 0.27307 0.15039 0.54688 0.13187 0.31979 0.45313 0.70638 0.81055 0.91016a1.1739 1.1739 0 0 0 1.2168-0.0332c0.72444-0.46609 1.54-0.92161 2.3476-1.5137 0.24318-0.17837 0.40946-0.47069 0.4668-0.67773 0.0573-0.20704 0.0504-0.34032 0.0469-0.42188-7e-3 -0.16312 0.0134-0.18068-0.0117 0.05273 0.0567-0.53025 0.0675-1.05 0.0488-1.5625a1.1739 1.1739 0 0 0-4e-3 -0.0625c-0.11537-1.2886-0.44629-2.4587-0.71485-3.5508a1.1739 1.1739 0 0 0-2e-3 -0.0078c-0.24718-0.97581-0.52479-1.8789-0.68316-2.7402-0.1091-0.59335-0.12356-0.81338-0.19922-1.457a1.1739 1.1739 0 0 0-2e-3 -0.01563c-0.17191-1.3178-0.12904-2.6606 0.0254-4.041 0.11434-0.67148 0.18272-1.2779 0.31445-1.7773 0.14103-0.53474 0.38446-1.1075 0.64258-1.7441l2e-3 -2e-3c2.6e-4 -6.28e-4 -2.5e-4 -0.0013 0-2e-3 0.43104-1.0525 1.0168-2.0684 1.6777-3.0605 1e-3 -0.00173 8e-4 -0.00413 2e-3 -0.00586 0.24494-0.35572 0.53091-0.64827 0.79297-0.97852zm-12.65 7.625c-3e-3 0.0065-0.0273 0.03776-0.0371 0.04687 0.0185-0.02301 0.0221-0.02825 0.0371-0.04687zm-0.34766 0.32226c-0.0156 0.01367-0.0495 0.03581-0.0508 0.0332 0.0214-0.01366 0.0254-0.01703 0.0508-0.0332zm-21.66 40.48c0.24343 0.18702 0.48829 0.375 0.48829 0.375s-0.23378-0.04105-0.44336-0.07813zm0.48829 0.37695c5e-5 0 0.1979 1.0619 0.20898 1.1211-0.057 0.01834-0.071 0.05109-0.29883 0.01758-0.23269-0.03408-0.28605-0.08355-0.17969-0.04297l-0.0332-0.22656c0.1023-0.29399 0.30274-0.86914 0.30274-0.86914zm19.514 22.814-1.0781 0.4668s-1.0469 0.5312-1.0469 0.53125l-0.0137-0.02734c3e-3 0.0085 1e-3 0.0063 0.0273 0.06055a1.1739 1.1739 0 0 0 0.0117 0.02148l4e-3 0.0059a1.1739 1.1739 0 0 0 0.0977 0.16016l-0.0937-0.1543 1.043-0.53711s1.0606-0.50192 1.0606-0.50195c-4e-3 -0.0075-3e-3 -0.0068-4e-3 -0.0078-9.9e-4 -0.0021-1e-3 -0.0028-2e-3 -0.0039-1e-3 -0.0022-5e-4 -0.0048-2e-3 -0.0078-8.3e-4 -0.0017-3e-3 -0.0039-4e-3 -0.0059z" fill="url(#linearGradient1823)" opacity=".86253" stop-color="#000000" style="paint-order:stroke fill markers"/>
  <path transform="matrix(1.0838 0 0 .89611 -123.12 -.51563)" d="m171.78 4.043c-0.14065 0.028371-0.2172 0.068839-0.29102 0.10938-0.14762 0.081072-0.26777 0.17352-0.40625 0.28711-0.27695 0.22718-0.60144 0.53854-0.95117 0.89844-0.69945 0.71979-1.483 1.6226-2.0039 2.377-1.8991 2.7504-2.8375 5.1553-3.1348 8.0781-0.25679 2.5245-0.0368 4.5162 0.89844 8.3105 0.44425 1.8024 0.6875 3.2788 0.6875 3.8301v0.75195l-0.79102 0.50195c-0.46346 0.29403-0.64374 0.37029-0.79101 0.43945-0.17227-0.44543-0.45404-1.0902-0.84571-1.959-0.45286-1.0045-0.93627-2.0486-1.1934-2.5508-0.45583-0.89038-1.4664-2.4211-2.4141-3.7637-0.47385-0.67127-0.92801-1.2858-1.2852-1.7344-0.17858-0.2243-0.32928-0.40471-0.4668-0.54688-0.0688-0.07108-0.12785-0.12988-0.22852-0.20117-0.0503-0.03564-0.10658-0.08095-0.24218-0.12109-0.13561-0.04014-0.47522-0.04626-0.69532 0.17383-4.8e-4 4.8e-4 -0.0789 0.09334-0.10156 0.13086-0.0227 0.03752-0.0378 0.06881-0.0488 0.0957-0.0221 0.05378-0.0306 0.0893-0.0371 0.11914-0.013 0.05968-0.0137 0.09492-0.0156 0.125-4e-3 0.06016-2e-3 0.10126 0 0.14648 4e-3 0.09044 0.011 0.1869 0.0234 0.30273 0.0249 0.23167 0.0652 0.5276 0.11718 0.84766 0.59165 3.6462-0.14851 8.5901-2.1504 13.846-0.52154 1.3692-1.9951 5.2358-3.2754 8.5898-0.64168 1.6811-1.2522 3.3262-1.7207 4.6289-0.46847 1.3027-0.77905 2.1797-0.88086 2.6172-0.9394 4.0373-0.66092 9.7523 0.68555 15.227 0.36507 1.4843 0.37193 1.4584 0.16796 2.4316-0.092 0.43888-0.10918 1.1922-0.15234 1.875-0.0469-0.14007-0.0881-0.24336-0.13476-0.38672-0.98888-3.0387-1.7052-4.4088-3.2129-6.1094-0.62441-0.70431-1.8018-1.6785-2.8437-2.4648-0.52096-0.39318-0.99595-0.72886-1.3633-0.94922-0.18366-0.11018-0.30889-0.19254-0.53711-0.25586-0.0571-0.01583-0.12389-0.03303-0.23046-0.0332-0.10658-1.78e-4 -0.28304 0.016-0.46094 0.16211-0.17791 0.14611-0.25778 0.39981-0.25781 0.54883-4e-5 0.14901 0.0334 0.23194 0.0605 0.29883 1.695 4.1715 2.569 7.2267 4.1348 14.484 0.49096 2.2758 1.199 5.054 1.6133 6.293 1.5226 4.5541 4.541 9.9785 7.0723 12.58 0.66592 0.68439 1.9164 1.7541 2.875 2.4707 2.0804 1.5552 5.2167 3.4598 8.2442 5.0957 3.0274 1.6359 5.8894 2.9906 7.5918 3.4492 0.66939 0.18032 1.1864 0.28264 1.6777 0.26563 0.49128-0.017 0.94736-0.18839 1.3164-0.45117 0.2019-0.14376 0.20518-0.13969 0.25-0.14453 0.0448-5e-3 0.24141 0.011 0.6543 0.0996 0.98831 0.21195 2.9152 0.20354 4.9707 0.1289 2.0555-0.0746 4.0749-0.2247 5.1211-0.49023 2.1701-0.55082 5.0088-1.657 6.2754-2.5293 3.207-2.2088 5.8887-7.1738 6.9629-12.508 0.26503-1.316 0.29892-2.2664 0.20703-5.6309-0.17828-6.5263-0.40854-7.8468-2.4629-14.104-1.0658-3.2454-1.6531-5.1653-1.9375-6.6016-0.28441-1.4362-0.28172-2.3931-0.15625-3.8613 0.3286-3.8453 1.6484-7.1512 3.2832-8.6953 0.55516-0.52434 1.3082-1.1969 1.6074-1.4375l0.61914-0.49609a0.67597 0.67597 0 0 0-0.5156-1.1973l-0.72656 0.10156c-0.49504 0.06995-1.3218 0.2767-1.9941 0.48438-1.0245 0.31644-1.5936 0.68303-2.5332 1.6309-0.64974 0.65544-1.6953 1.8989-2.4062 2.8535-0.68151 0.91507-1.696 2.232-2.2344 2.8965-0.56955 0.70287-1.1154 1.4247-1.3594 1.8984-0.0509 0.09889-0.56448 0.6686-1.0625 1.0566-0.19681 0.15335-0.37651 0.2685-0.54297 0.37109-0.0292-0.21461-0.0596-0.40513-0.0918-0.91406-0.11479-1.8172-0.85565-6.8871-1.3359-9.1953-1.6565-7.9611-6.5045-20.625-10.355-27.02-0.65859-1.0936-1.3938-2.4906-1.5508-2.8887-1.2767-3.2367-1.9965-5.155-2.3594-6.457-0.36292-1.302-0.38367-1.9468-0.28321-2.8594 0.0781-0.70986 0.3278-2.041 0.53516-2.8418 0.11414-0.4408 0.2025-0.85484 0.25586-1.1875 0.0267-0.16633 0.0461-0.31055 0.0527-0.44727 3e-3 -0.06836 4e-3 -0.13278-6e-3 -0.2207-0.01-0.087928 0.0386-0.21349-0.21094-0.46289-0.22746-0.22763-0.53104-0.22173-0.67169-0.19336z" fill="url(#linearGradient1833)" opacity=".86253" stop-color="#000000" style="paint-order:stroke fill markers"/>
  <path transform="matrix(1.0838 0 0 .89611 -123.12 -.51563)" d="m168.04 38.006c-0.17517-0.01046-0.31857 0.0055-0.43554 0.02734-0.23395 0.04367-0.37017 0.10741-0.47266 0.1582-0.40996 0.20318-0.42611 0.28628-0.50586 0.36328-0.1595 0.15401-0.25042 0.26386-0.36719 0.40625-0.23353 0.28479-0.50917 0.65426-0.8164 1.0859-0.46191 0.649-2.0595 2.6045-3.3555 4.0742-3.4732 3.939-4.4173 5.1466-5.2774 6.8086-0.66869 1.2922-0.89648 2.2269-0.89648 3.6543 0 1.1651 0.241 3.0532 0.55469 4.8887 0.35453 2.0744 0.50604 3.5542 0.50586 4.7012v0.9043c-0.23005 0.14202-0.44579 0.27544-0.60938 0.37695-0.0823 0.05107-0.15047 0.09402-0.20312 0.12695-0.0527 0.03294 4e-3 -0.0093-0.1543 0.09961-4.8e-4 3.3e-4 -0.47425 0.48384-0.47461 0.48438s-0.17233 0.31732-0.21289 0.44531c-0.0811 0.25598-0.0841 0.42003-0.084 0.54297 2.1e-4 0.24587 0.0309 0.34616 0.0508 0.42969 0.0398 0.16705 0.0691 0.23292 0.0957 0.30078 0.0532 0.13573 0.10004 0.23428 0.15625 0.34961 0.11242 0.23065 0.25532 0.49742 0.41992 0.78906 1.2547 2.2232 1.699 4.0533 2.2637 9.8359 0.4177 4.2772 0.89691 6.9144 1.7559 9.4375 1.6727 4.9134 3.921 8.7241 6.9688 11.619 1.7393 1.6521 2.9533 2.5568 5.7754 4.3242 0.65677 0.41131 1.2746 0.77051 1.7793 1.0371 0.25235 0.1333 0.46995 0.24101 0.69726 0.33594 0.11366 0.0475 0.22104 0.0927 0.4043 0.14063 0.0916 0.024 0.20073 0.0523 0.39453 0.0644 0.19381 0.0122 0.50835 0.0706 1.0488-0.25v2e-3c0.25646-0.15204 0.23212-0.15463 0.35547-0.24414 0.12335-0.0895 0.27892-0.20442 0.46094-0.33984 0.36403-0.27085 0.83142-0.62243 1.3223-0.9961 0.93865-0.71457 2.5349-1.8759 3.4688-2.5215 0.94727-0.65478 1.8238-1.3252 2.5312-1.9316 0.70743-0.6064 1.188-0.92108 1.6641-1.8105 0.29243-0.54643 0.32622-0.77822 0.51757-1.3477 0.19136-0.56943 0.4178-1.2784 0.65039-2.0312 0.46519-1.5057 0.94622-3.1511 1.1953-4.168 0.35815-1.4621 0.48418-2.5901 0.48437-4.2891v-2.0996a1.7769 1.7769 0 0 0-0.0957-0.57031l-1.8379-5.4141c-1.0155-2.9929-2.0712-6.0015-2.4824-7.0137-1.0202-2.5114-1.0544-3.4143-0.58204-4.5449-0.0803 0.19222 0.15715-0.23114 0.57813-0.64844 0.42098-0.41729 1.0206-0.93298 1.7188-1.459 0.28132-0.21194 0.52903-0.40899 0.73438-0.58789 0.10267-0.08945 0.18972-0.16729 0.30468-0.28906 0.0575-0.06088 0.11898-0.11643 0.23828-0.29883 0.0596-0.0912 0.14579-0.20116 0.23243-0.51172 0.0216-0.07764 0.042-0.16948 0.0547-0.2832s-2e-3 -0.40936-2e-3 -0.41016c-9e-5 -7.97e-4 -0.14814-0.52865-0.14844-0.5293-2.9e-4 -6.5e-4 -0.36082-0.51903-0.36133-0.51953-5e-4 -5.02e-4 -0.60269-0.39616-0.60351-0.39648s-0.31032-0.0966-0.41992-0.11133c-0.21922-0.02947-0.34042-0.01575-0.4336-0.0059-0.18636 0.01979-0.26109 0.04726-0.32812 0.06641-0.13407 0.03829-0.1997 0.06494-0.27149 0.09375-0.14358 0.05762-0.27907 0.11839-0.4375 0.19336-0.31684 0.14994-0.70997 0.35014-1.1387 0.57812-0.65109 0.34626-2.4287 1.1297-3.666 1.5977-0.73852 0.27931-1.4203 0.5685-1.9863 0.83789-0.56603 0.2694-0.88745 0.3364-1.4824 0.90625-0.57051 0.54642-0.81655 1.032-1.1699 1.6719-3e-3 0.0054-5e-3 0.01215-8e-3 0.01758-0.26244-2.9548-1.2022-5.4012-3.5273-8.207-2.3859-2.8792-4.4654-6.6096-4.8652-8.1973-3e-3 -0.01349-0.11599-1.1337-0.0742-2.0332 0.0664-1.4291 0.12035-1.6269 0.99024-4.2012 0.27857-0.82436 0.53069-1.5952 0.7168-2.1836 0.0931-0.29418 0.16923-0.53963 0.22656-0.73633 0.0287-0.09835 0.0521-0.18283 0.0742-0.26953 0.0221-0.0867 0.0762 0.08634 0.0762-0.53906 0-0.16439-9e-3 -0.39838-0.15234-0.72461-0.0719-0.16311-0.34503-0.51492-0.34571-0.51562-6.8e-4 -7.09e-4 -0.58308-0.40391-0.58398-0.4043-9e-4 -3.87e-4 -0.42249-0.13211-0.59766-0.14258z" fill="url(#linearGradient3519)" opacity=".86253" stop-color="#000000" style="paint-order:stroke fill markers"/>
  <path transform="matrix(1.0838 0 0 .89611 -123.12 -.51563)" d="m174.44 66.482c-2.3033 1.0721-2.5742 1.4185-3.623 2.8516a1.0648 1.0648 0 0 0-4e-3 0.0059c-0.60011 0.82979-1.1504 1.6932-1.6426 2.6016-0.57293 1.0344-1.2351 2.0913-1.793 3.2715-2e-3 0.0043-4e-3 0.0093-6e-3 0.01367-0.71701 1.4037-1.4168 2.8549-1.9551 4.4043a1.0648 1.0648 0 0 0-0.0117 0.03711c-0.50214 1.6329-1.0445 3.4399-0.77734 5.4336 9e-5 6.82e-4 -1e-4 0.0013 0 2e-3 0.0323 0.27895 0.0581 0.59242 0.10937 0.93555 0.29914 2.0041 0.90238 3.8768 1.4356 5.6895a1.0648 1.0648 0 0 0 0.01 0.03125c0.37082 1.1312 0.75599 2.2678 1.209 3.4023 0.0395 0.09904 0.0552 0.12848 0.0898 0.21289a1.0648 1.0648 0 0 0-0.24804 1.168c0.12858 0.31476 0.1053 0.25768 0.1621 0.41602 0.069 0.38234 0.13464 0.75809 0.1836 1.127l-6e-3 -0.04688c0.0369 0.41608 0.10451 0.86226 0.2539 1.3203 0.0867 0.32357 0.17234 0.69213 0.32032 1.0996a1.0648 1.0648 0 0 0 8e-3 0.0234c0.16055 0.41188 0.34929 0.77292 0.52148 1.1016a1.0648 1.0648 0 0 0 0.041 0.0703c0.1639 0.26209 0.34113 0.60552 0.61133 0.98047a1.0648 1.0648 0 0 0 0.0234 0.0312c0.28646 0.36711 0.62929 0.68859 1.0156 0.95117a1.0648 1.0648 0 0 0 0.0312 0.0215c0.27272 0.17118 0.70624 0.58059 1.4629 0.75391a1.0648 1.0648 0 0 0 0.0703 0.0137c0.66789 0.10673 1.2377-0.0125 1.6836-0.10352a1.0648 1.0648 0 0 0 0.0566-0.0137c1.7077-0.4484 3.129-1.3166 4.4707-2.1523a1.0648 1.0648 0 0 0 0.0137-8e-3c0.63366-0.40721 1.2854-0.84658 1.9062-1.3828a1.0648 1.0648 0 0 0 0.01-0.01c0.53678-0.47515 1.0696-1.0091 1.5254-1.6426a1.0648 1.0648 0 0 0 0.0273-0.04297c0.34775-0.53663 0.61864-1.0767 0.86914-1.5977l4e-3 -0.0098c0.34533-0.62573 0.68504-1.2798 0.97656-1.9727 0.34646-0.81176 0.64289-1.6623 0.83985-2.5586 0.19812-0.87952 0.40412-1.8351 0.39843-2.877a1.0648 1.0648 0 0 0 0-0.02539c-0.0213-0.71781-0.072-1.4561-0.19922-2.209-0.0944-0.64266-0.20545-1.3328-0.44335-2.043-0.18076-0.65791-0.41245-1.2764-0.65039-1.8633l-2e-3 -0.0039c-0.234-0.58197-0.46699-1.1847-0.72851-1.793a1.0648 1.0648 0 0 0-8e-3 -0.01563c-0.23392-0.52158-0.47469-1.1045-0.78906-1.6992-0.27066-0.70152-0.46989-1.3498-0.50586-1.9688-0.0155-0.54416 3e-3 -1.0654 0.082-1.5527 0.0842-0.42471 0.23523-0.88081 0.39844-1.4043a1.0648 1.0648 0 0 0 0.0391-0.17383c0.0306-0.22605 0.0442-0.45504-0.0254-0.73633s-0.27982-0.65175-0.63086-0.84766-0.7115-0.183-0.96093-0.12891c-0.24944 0.05409-0.43587 0.14611-0.61329 0.25l4e-3 -0.0039c-0.42774 0.24795-1.0157 0.45635-1.666 0.79297a1.0648 1.0648 0 0 0-0.0254 0.01367c-0.0954 0.05277-0.20242 0.11031-0.32031 0.17773-0.34949 0.19988-0.69812 0.39935-1.0469 0.59961-0.25443-0.54747-0.50824-1.0962-0.66602-1.6504-0.16151-0.58627-0.226-1.2004-0.2207-1.8477 0.0327-0.77238 0.0867-1.511 0.22461-2.2031 0.0995-0.46989 0.51798-1.3768 0.0762-2.4629a1.0648 1.0648 0 0 0-0.17188-0.28516c0.19155 0.2281 0.12955 0.19057 0.0488 0.04297-0.0404-0.0738-0.0888-0.20169-0.32226-0.38281-0.23349-0.18112-0.82334-0.2811-1.1504-0.12891zm-2.8691 8.7129c0.0298 0.12659 0.0142 0.25025 0.0508 0.37695a1.0648 1.0648 0 0 0 2e-3 0.0078c0.26898 0.9074 0.64731 1.7393 1.0215 2.5195a1.0648 1.0648 0 0 0 0.0449 0.08203c0.23058 0.38974 0.53875 0.81192 1.0976 1.0195 0.55891 0.20761 1.1222 0.07059 1.5625-0.12305a1.0648 1.0648 0 0 0 0.10547-0.05273l1.5449-0.89258c-0.0463 0.53622-0.0822 1.0724-0.0488 1.5879a1.0648 1.0648 0 0 0 0 0.0059c0.0706 1.0082 0.38247 1.887 0.68165 2.6777a1.0648 1.0648 0 0 0 0.0508 0.11328c0.26607 0.51298 0.50401 1.0902 0.7832 1.6992 0.23652 0.58379 0.47368 1.1611 0.69922 1.7344a1.0648 1.0648 0 0 0 2e-3 0.0059c0.22496 0.56004 0.42683 1.105 0.57422 1.6426a1.0648 1.0648 0 0 0 0.0234 0.07227c0.16272 0.46278 0.23987 1.0299 0.3457 1.6855a1.0648 1.0648 0 0 0 0 0.0078c0.0992 0.58886 0.13653 1.215 0.16016 1.873-5e-3 0.7199-0.16768 1.4878-0.36524 2.3223a1.0648 1.0648 0 0 0-4e-3 0.01367c-0.15808 0.70825-0.41968 1.415-0.73633 2.1289a1.0648 1.0648 0 0 0-4e-3 0.0098c-0.2517 0.58277-0.5696 1.167-0.90625 1.7676a1.0648 1.0648 0 0 0-0.0391 0.08008c-0.23233 0.50906-0.4593 0.95951-0.72461 1.3027a1.0648 1.0648 0 0 0-6e-3 0.0059c-0.32557 0.42898-0.74299 0.83104-1.209 1.2285-0.0593 0.049-0.22503 0.15632-0.39063 0.26953-0.29348 0.12032-0.5461 0.22771-0.70898 0.27734-0.29028 0.0793-0.57949 0.11328-0.86524 0.11524-0.015-4e-3 -0.18309-0.11158-0.27343-0.16407a1.0648 1.0648 0 0 0 0.24218-1.2246c-0.55303-1.1937-1.0852-2.4055-1.6152-3.623a1.0648 1.0648 0 0 0-6e-3 -0.01172c-0.86042-1.91-1.6072-3.8346-2.2852-5.8242-0.53661-1.8217-1.0774-3.5871-1.3125-5.3496-0.0344-0.25814-0.0556-0.55081-0.0879-0.875a1.0648 1.0648 0 0 0-2e-3 -0.02344c-0.16942-1.3992 0.25562-2.846 0.75586-4.4258 0.48386-1.3638 1.1447-2.6945 1.8418-4.043z" fill="#fd5" opacity=".86253" stop-color="#000000" style="paint-order:stroke fill markers"/>
  <path transform="matrix(1.0838 0 0 .89611 -123.12 -.51563)" d="m173.1 101.16c-0.4035-0.29229-0.73363-0.57188-0.73363-0.62131 0-0.0494 0.22737-0.22815 0.50526-0.39714l0.50525-0.30728-1.279-2.9163c-2.779-6.3367-4.151-10.951-4.151-13.96 0-2.0684 1.2709-5.6519 3.2998-9.3042l1.0312-1.8564 0.0974 1.6444c0.10823 1.827 0.7538 3.7678 1.5168 4.5602l0.42451 0.44083 1.9525-1.0339c1.0739-0.56867 1.9896-0.99684 2.035-0.95149 0.0453 0.04535 6.7e-4 0.29754-0.0993 0.56042-0.0999 0.26288-0.18173 1.1453-0.18173 1.961 0 1.6084 0.0642 1.8239 1.7364 5.8302 2.0078 4.8102 1.9448 7.9533-0.24928 12.44-1.0989 2.2473-2.1289 3.499-3.352 4.074-1.1501 0.54061-2.161 0.48658-3.0583-0.16344z" fill="url(#linearGradient2084)" opacity=".86253" stop-color="#000000" style="paint-order:stroke fill markers"/>
  <path d="m27.222 126.91c-7.1414-2.4694-14.013-10.802-15.69-19.026-1.1903-5.8371 0.94286-9.5097 5.5237-9.5097 5.5347 0 12.578 5.873 16.428 13.698 3.4682 7.0488 3.1738 12.883-0.7495 14.854-1.5517 0.7796-3.224 0.77451-5.5124-0.0168z" fill="url(#linearGradient3930)" stop-color="#000000" style="paint-order:stroke fill markers"/>
 </g>
</svg>
