<?xml version="1.0" encoding="UTF-8" standalone="no"?>
<svg
   width="40"
   height="40"
   viewBox="0 0 39.999998 39.999998"
   id="svg24280"
   version="1.1"
   inkscape:version="1.3 (0e150ed6c4, 2023-07-21)"
   sodipodi:docname="lm_08_active.svg"
   inkscape:export-filename="/home/stefano/Pictures/mapplusbern/png/lm_06.png"
   inkscape:export-xdpi="96"
   inkscape:export-ydpi="96"
   xmlns:inkscape="http://www.inkscape.org/namespaces/inkscape"
   xmlns:sodipodi="http://sodipodi.sourceforge.net/DTD/sodipodi-0.dtd"
   xmlns="http://www.w3.org/2000/svg"
   xmlns:svg="http://www.w3.org/2000/svg"
   xmlns:rdf="http://www.w3.org/1999/02/22-rdf-syntax-ns#"
   xmlns:cc="http://creativecommons.org/ns#"
   xmlns:dc="http://purl.org/dc/elements/1.1/">
  <sodipodi:namedview
     pagecolor="#ffffff"
     bordercolor="#666666"
     borderopacity="1"
     objecttolerance="10"
     gridtolerance="10"
     guidetolerance="10"
     inkscape:pageopacity="0"
     inkscape:pageshadow="2"
     inkscape:window-width="1268"
     inkscape:window-height="1355"
     id="namedview15087"
     showgrid="false"
     inkscape:zoom="1"
     inkscape:cx="0.5"
     inkscape:cy="-2"
     inkscape:window-x="8"
     inkscape:window-y="40"
     inkscape:window-maximized="0"
     inkscape:current-layer="svg24280"
     fit-margin-top="0"
     fit-margin-left="0"
     fit-margin-right="0"
     fit-margin-bottom="0"
     inkscape:showpageshadow="2"
     inkscape:pagecheckerboard="0"
     inkscape:deskcolor="#d1d1d1" />
  <defs
     id="defs24282">
    <inkscape:path-effect
       effect="bend_path"
       id="path-effect19497"
       is_visible="true"
       bendpath="m 2.3320562,88.525182 12.5826248,-1.25182 7.560615,1.4379"
       prop_scale="0.94624843"
       scale_y_rel="false"
       vertical="false"
       bendpath-nodetypes="ccc" />
    <clipPath
       clipPathUnits="userSpaceOnUse"
       id="clipPath16880">
      <circle
         r="19.187979"
         cy="24.775345"
         cx="24.499756"
         id="circle16882"
         style="color:#000000;clip-rule:nonzero;display:inline;overflow:visible;visibility:visible;opacity:1;isolation:auto;mix-blend-mode:normal;color-interpolation:sRGB;color-interpolation-filters:linearRGB;solid-color:#000000;solid-opacity:1;vector-effect:none;fill:#3f65ca;fill-opacity:1;fill-rule:evenodd;stroke:none;stroke-width:0.8991856;stroke-linecap:butt;stroke-linejoin:bevel;stroke-miterlimit:4;stroke-dasharray:none;stroke-dashoffset:0;stroke-opacity:1;marker:none;paint-order:normal;color-rendering:auto;image-rendering:auto;shape-rendering:auto;text-rendering:auto;enable-background:accumulate" />
    </clipPath>
    <clipPath
       clipPathUnits="userSpaceOnUse"
       id="clipPath16185">
      <circle
         style="color:#000000;clip-rule:nonzero;display:inline;overflow:visible;visibility:visible;opacity:1;isolation:auto;mix-blend-mode:normal;color-interpolation:sRGB;color-interpolation-filters:linearRGB;solid-color:#000000;solid-opacity:1;vector-effect:none;fill:#3f65ca;fill-opacity:1;fill-rule:evenodd;stroke:none;stroke-width:2.46614099;stroke-linecap:butt;stroke-linejoin:bevel;stroke-miterlimit:4;stroke-dasharray:none;stroke-dashoffset:0;stroke-opacity:1;marker:none;paint-order:normal;color-rendering:auto;image-rendering:auto;shape-rendering:auto;text-rendering:auto;enable-background:accumulate"
         id="circle16187"
         cx="-192.808"
         cy="179.43561"
         r="52.625687" />
    </clipPath>
    <clipPath
       clipPathUnits="userSpaceOnUse"
       id="clipPath27801-6-2">
      <rect
         style="color:#000000;clip-rule:nonzero;display:inline;overflow:visible;visibility:visible;opacity:1;isolation:auto;mix-blend-mode:normal;color-interpolation:sRGB;color-interpolation-filters:linearRGB;solid-color:#000000;solid-opacity:1;fill:#ff5555;fill-opacity:1;fill-rule:nonzero;stroke:none;stroke-width:0.1;stroke-linecap:round;stroke-linejoin:round;stroke-miterlimit:4;stroke-dasharray:none;stroke-dashoffset:0;stroke-opacity:1;color-rendering:auto;image-rendering:auto;shape-rendering:auto;text-rendering:auto;enable-background:accumulate"
         id="rect27803-0-3"
         width="27.210461"
         height="21.991693"
         x="-235.04272"
         y="1030.5667" />
    </clipPath>
    <clipPath
       clipPathUnits="userSpaceOnUse"
       id="clipPath27801-7">
      <rect
         style="color:#000000;clip-rule:nonzero;display:inline;overflow:visible;visibility:visible;opacity:1;isolation:auto;mix-blend-mode:normal;color-interpolation:sRGB;color-interpolation-filters:linearRGB;solid-color:#000000;solid-opacity:1;fill:#ff5555;fill-opacity:1;fill-rule:nonzero;stroke:none;stroke-width:0.1;stroke-linecap:round;stroke-linejoin:round;stroke-miterlimit:4;stroke-dasharray:none;stroke-dashoffset:0;stroke-opacity:1;color-rendering:auto;image-rendering:auto;shape-rendering:auto;text-rendering:auto;enable-background:accumulate"
         id="rect27803-5"
         width="27.210461"
         height="21.991693"
         x="-235.04272"
         y="1030.5667" />
    </clipPath>
    <clipPath
       clipPathUnits="userSpaceOnUse"
       id="clipPath27797-1">
      <rect
         style="color:#000000;clip-rule:nonzero;display:inline;overflow:visible;visibility:visible;opacity:1;isolation:auto;mix-blend-mode:normal;color-interpolation:sRGB;color-interpolation-filters:linearRGB;solid-color:#000000;solid-opacity:1;fill:#ff5555;fill-opacity:1;fill-rule:nonzero;stroke:none;stroke-width:0.1;stroke-linecap:round;stroke-linejoin:round;stroke-miterlimit:4;stroke-dasharray:none;stroke-dashoffset:0;stroke-opacity:1;color-rendering:auto;image-rendering:auto;shape-rendering:auto;text-rendering:auto;enable-background:accumulate"
         id="rect27799-3"
         width="87.314026"
         height="88.808838"
         x="-386.56873"
         y="955.32452"
         transform="matrix(0.99966259,0.02597517,-0.0019307,0.99999814,0,0)" />
    </clipPath>
    <clipPath
       id="clipPath27801-6-2-9"
       clipPathUnits="userSpaceOnUse">
      <rect
         y="1030.5667"
         x="-235.04272"
         height="21.991693"
         width="27.210461"
         id="rect27803-0-3-5"
         style="color:#000000;clip-rule:nonzero;display:inline;overflow:visible;visibility:visible;opacity:1;isolation:auto;mix-blend-mode:normal;color-interpolation:sRGB;color-interpolation-filters:linearRGB;solid-color:#000000;solid-opacity:1;fill:#ff5555;fill-opacity:1;fill-rule:nonzero;stroke:none;stroke-width:0.1;stroke-linecap:round;stroke-linejoin:round;stroke-miterlimit:4;stroke-dasharray:none;stroke-dashoffset:0;stroke-opacity:1;color-rendering:auto;image-rendering:auto;shape-rendering:auto;text-rendering:auto;enable-background:accumulate" />
    </clipPath>
    <clipPath
       id="clipPath27801-7-7"
       clipPathUnits="userSpaceOnUse">
      <rect
         y="1030.5667"
         x="-235.04272"
         height="21.991693"
         width="27.210461"
         id="rect27803-5-4"
         style="color:#000000;clip-rule:nonzero;display:inline;overflow:visible;visibility:visible;opacity:1;isolation:auto;mix-blend-mode:normal;color-interpolation:sRGB;color-interpolation-filters:linearRGB;solid-color:#000000;solid-opacity:1;fill:#ff5555;fill-opacity:1;fill-rule:nonzero;stroke:none;stroke-width:0.1;stroke-linecap:round;stroke-linejoin:round;stroke-miterlimit:4;stroke-dasharray:none;stroke-dashoffset:0;stroke-opacity:1;color-rendering:auto;image-rendering:auto;shape-rendering:auto;text-rendering:auto;enable-background:accumulate" />
    </clipPath>
    <clipPath
       id="clipPath27797-1-6"
       clipPathUnits="userSpaceOnUse">
      <rect
         transform="matrix(0.99966259,0.02597517,-0.0019307,0.99999814,0,0)"
         y="955.32452"
         x="-386.56873"
         height="88.808838"
         width="87.314026"
         id="rect27799-3-4"
         style="color:#000000;clip-rule:nonzero;display:inline;overflow:visible;visibility:visible;opacity:1;isolation:auto;mix-blend-mode:normal;color-interpolation:sRGB;color-interpolation-filters:linearRGB;solid-color:#000000;solid-opacity:1;fill:#ff5555;fill-opacity:1;fill-rule:nonzero;stroke:none;stroke-width:0.1;stroke-linecap:round;stroke-linejoin:round;stroke-miterlimit:4;stroke-dasharray:none;stroke-dashoffset:0;stroke-opacity:1;color-rendering:auto;image-rendering:auto;shape-rendering:auto;text-rendering:auto;enable-background:accumulate" />
    </clipPath>
    <clipPath
       id="clipPath27801-6"
       clipPathUnits="userSpaceOnUse">
      <rect
         y="1030.5667"
         x="-235.04272"
         height="21.991693"
         width="27.210461"
         id="rect27803-0"
         style="color:#000000;clip-rule:nonzero;display:inline;overflow:visible;visibility:visible;opacity:1;isolation:auto;mix-blend-mode:normal;color-interpolation:sRGB;color-interpolation-filters:linearRGB;solid-color:#000000;solid-opacity:1;fill:#ff5555;fill-opacity:1;fill-rule:nonzero;stroke:none;stroke-width:0.1;stroke-linecap:round;stroke-linejoin:round;stroke-miterlimit:4;stroke-dasharray:none;stroke-dashoffset:0;stroke-opacity:1;color-rendering:auto;image-rendering:auto;shape-rendering:auto;text-rendering:auto;enable-background:accumulate" />
    </clipPath>
    <clipPath
       id="clipPath27801"
       clipPathUnits="userSpaceOnUse">
      <rect
         y="1030.5667"
         x="-235.04272"
         height="21.991693"
         width="27.210461"
         id="rect27803"
         style="color:#000000;clip-rule:nonzero;display:inline;overflow:visible;visibility:visible;opacity:1;isolation:auto;mix-blend-mode:normal;color-interpolation:sRGB;color-interpolation-filters:linearRGB;solid-color:#000000;solid-opacity:1;fill:#ff5555;fill-opacity:1;fill-rule:nonzero;stroke:none;stroke-width:0.1;stroke-linecap:round;stroke-linejoin:round;stroke-miterlimit:4;stroke-dasharray:none;stroke-dashoffset:0;stroke-opacity:1;color-rendering:auto;image-rendering:auto;shape-rendering:auto;text-rendering:auto;enable-background:accumulate" />
    </clipPath>
    <clipPath
       id="clipPath27797"
       clipPathUnits="userSpaceOnUse">
      <rect
         transform="matrix(0.99966259,0.02597517,-0.0019307,0.99999814,0,0)"
         y="955.32452"
         x="-386.56873"
         height="88.808838"
         width="87.314026"
         id="rect27799"
         style="color:#000000;clip-rule:nonzero;display:inline;overflow:visible;visibility:visible;opacity:1;isolation:auto;mix-blend-mode:normal;color-interpolation:sRGB;color-interpolation-filters:linearRGB;solid-color:#000000;solid-opacity:1;fill:#ff5555;fill-opacity:1;fill-rule:nonzero;stroke:none;stroke-width:0.1;stroke-linecap:round;stroke-linejoin:round;stroke-miterlimit:4;stroke-dasharray:none;stroke-dashoffset:0;stroke-opacity:1;color-rendering:auto;image-rendering:auto;shape-rendering:auto;text-rendering:auto;enable-background:accumulate" />
    </clipPath>
    <clipPath
       id="clipPath31559-3"
       clipPathUnits="userSpaceOnUse">
      <path
         inkscape:connector-curvature="0"
         id="path31561-8"
         d="m -621.15625,629.56075 0,-38.17113 37.5,0 0,38.17113"
         style="display:inline;fill:#d50025;fill-opacity:1;fill-rule:evenodd;stroke:none;stroke-width:1.24999988px;stroke-linecap:butt;stroke-linejoin:miter;stroke-opacity:1" />
    </clipPath>
    <clipPath
       id="clipPath31559"
       clipPathUnits="userSpaceOnUse">
      <path
         inkscape:connector-curvature="0"
         id="path31561"
         d="m -621.15625,629.56075 0,-38.17113 37.5,0 0,38.17113"
         style="display:inline;fill:#d50025;fill-opacity:1;fill-rule:evenodd;stroke:none;stroke-width:1.24999988px;stroke-linecap:butt;stroke-linejoin:miter;stroke-opacity:1" />
    </clipPath>
    <clipPath
       id="clipPath31559-31"
       clipPathUnits="userSpaceOnUse">
      <path
         inkscape:connector-curvature="0"
         id="path31561-7"
         d="m -621.15625,629.56075 0,-38.17113 37.5,0 0,38.17113"
         style="display:inline;fill:#d50025;fill-opacity:1;fill-rule:evenodd;stroke:none;stroke-width:1.24999988px;stroke-linecap:butt;stroke-linejoin:miter;stroke-opacity:1" />
    </clipPath>
    <clipPath
       id="clipPath31862-2-8-3"
       clipPathUnits="userSpaceOnUse">
      <path
         inkscape:connector-curvature="0"
         id="path31864-8-3-5"
         d="m -579.46875,629.17466 0,-37.625 37.4375,0 0,37.625"
         style="display:inline;fill:#ffff00;fill-opacity:1;fill-rule:evenodd;stroke:none;stroke-width:1.24999988px;stroke-linecap:butt;stroke-linejoin:miter;stroke-opacity:1" />
    </clipPath>
    <clipPath
       clipPathUnits="userSpaceOnUse"
       id="clipPath18">
      <circle
         r="19.5"
         cy="-48.161839"
         cx="22.226372"
         id="circle18"
         style="color:#000000;clip-rule:nonzero;display:inline;overflow:visible;visibility:visible;isolation:auto;mix-blend-mode:normal;color-interpolation:sRGB;color-interpolation-filters:linearRGB;solid-color:#000000;solid-opacity:1;vector-effect:none;fill:#aaeeff;fill-opacity:1;fill-rule:evenodd;stroke:#004455;stroke-width:1.67861;stroke-linecap:round;stroke-linejoin:round;stroke-miterlimit:4;stroke-dasharray:none;stroke-dashoffset:0;stroke-opacity:1;marker:none;paint-order:stroke fill markers;color-rendering:auto;image-rendering:auto;shape-rendering:auto;text-rendering:auto;enable-background:accumulate" />
    </clipPath>
  </defs>
  <metadata
     id="metadata24285">
    <rdf:RDF>
      <cc:Work
         rdf:about="">
        <dc:format>image/svg+xml</dc:format>
        <dc:type
           rdf:resource="http://purl.org/dc/dcmitype/StillImage" />
      </cc:Work>
    </rdf:RDF>
  </metadata>
  <circle
     r="19.5"
     cy="20"
     cx="20"
     id="path849"
     style="color:#000000;clip-rule:nonzero;display:inline;overflow:visible;visibility:visible;opacity:1;isolation:auto;mix-blend-mode:normal;color-interpolation:sRGB;color-interpolation-filters:linearRGB;solid-color:#000000;solid-opacity:1;vector-effect:none;fill:#aaeeff;fill-opacity:1;fill-rule:evenodd;stroke:#004455;stroke-width:1.67861009;stroke-linecap:round;stroke-linejoin:round;stroke-miterlimit:4;stroke-dasharray:none;stroke-dashoffset:0;stroke-opacity:1;marker:none;paint-order:stroke fill markers;color-rendering:auto;image-rendering:auto;shape-rendering:auto;text-rendering:auto;enable-background:accumulate" />
  <g
     id="g18"
     transform="translate(-2.2263718,68.161839)"
     clip-path="url(#clipPath18)">
    <path
       style="fill:#87deaa;fill-opacity:1;stroke:none;stroke-width:0.861333;stroke-linecap:round"
       d="m 16.695211,-20.862971 c -1.086449,1.325124 -2.867039,1.98139 -4.545883,2.093324 -0.396209,0.02642 -0.805051,0.181957 -1.188627,0.07925 -1.4584206,-0.390511 -4.0025226,-2.750186 -4.8293956,-4.107027 -0.119138,-0.195496 -0.151189,-0.434226 -0.259635,-0.63585 -0.09975,-0.185451 -0.287013,-0.32122 -0.361139,-0.518314 -0.06316,-0.167959 0.0055,-0.362519 -0.03581,-0.537141 -0.06218,-0.262731 -0.206188,-0.501097 -0.271832,-0.76298 -0.08849,-0.353034 0.0077,-0.734466 -0.07264,-1.089448 -0.05908,-0.261125 -0.221676,-0.49231 -0.274752,-0.754723 -0.135451,-0.669679 -0.089,-1.309352 -0.241244,-1.981896 -0.112255,-0.496002 -0.1899952,-1.000682 -0.3308567,-1.489331 -0.054354,-0.18855 -0.1679022,-0.354726 -0.2518533,-0.532088 -0.09178,-0.255788 -0.2053846,-0.504765 -0.2753181,-0.767365 -0.078185,-0.293597 -0.033637,-0.623258 -0.1676413,-0.895944 -0.1570432,-0.319582 -0.48897,-0.523707 -0.6782057,-0.825344 -0.1856171,-0.29587 -1.1040424,-2.246086 -1.2190338,-2.600578 -0.056617,-0.174545 0.024641,-0.376306 -0.036622,-0.549276 -0.085524,-0.241473 -0.2870063,-0.427349 -0.392018,-0.661005 -0.07502,-0.166915 -0.083377,-0.357046 -0.1432413,-0.529978 -0.30575152,-0.883305 -0.55786252,-1.182462 -1.31505022,-2.012227 -1.64856858,-1.806583 -0.5629426,0.07769 -3.23311488,-2.060322 -0.8514367,-0.681749 -1.4548213,-2.586916 -1.9671219,-3.518452 -1.2635478,-2.297556 0.030337,0.506119 -0.7621057,-1.087908 -0.3901023,-0.78468 -0.6196873,-1.66094 -1.0673092,-2.414732 -0.2192376,-0.369196 -0.4554206,-0.728485 -0.7009505,-1.080742 -0.1578383,-0.22645 -0.3823239,-0.408174 -0.508109,-0.653877 -0.1447035,-0.282659 -0.1762758,-0.611006 -0.2910154,-0.907094 -0.1217164,-0.314087 -0.2965037,-0.605918 -0.4171774,-0.920406 -0.4549621,-1.185671 -0.3222824,-3.177201 0.3014309,-4.24934 0.9269236,-1.593344 2.5320442,-2.33535 4.1373431,-3.047984 1.3368356,-0.593457 1.165066,-0.635863 2.5450447,-1.080825 0.7353317,-0.412795 1.60166208,-0.293753 2.37445308,-0.54268 0.2893848,-0.09322 0.5202427,-0.328758 0.81119412,-0.416968 1.1313005,-0.342991 2.8415671,-0.429321 4.0360794,-0.508962 0.404647,-0.02698 3.609947,-0.349454 3.91024,-0.260708 0.25306,0.07479 0.457924,0.262404 0.684913,0.396969 2.6999757,1.600629 0.8448887,0.374535 2.8836627,2.040121 1.34959,1.102556 2.177154,1.624532 3.121614,3.126971 0.13088,0.208201 0.28692,0.405781 0.374824,0.635456 0.09568,0.249981 0.07814,0.533216 0.168849,0.785042 0.09675,0.268586 0.286433,0.496606 0.388821,0.763095 0.246885,0.64258 0.44461,1.304886 0.608096,1.973566 0.301134,1.231674 0.151914,2.458449 0.631549,3.657882 0.677346,1.69384 1.262828,2.705122 2.177119,4.20431 0.106794,0.175111 1.416134,1.965195 1.511531,2.256239 0.04471,0.136416 0.0191,0.286475 0.02865,0.429713 0.121008,0.174685 0.264068,0.335999 0.363024,0.524058 0.212196,0.403261 0.375124,2.356611 0.408418,2.855984 0.05421,0.813054 0.330466,3.103972 0.25919,3.887468 -0.03666,0.402897 -0.236504,0.775741 -0.308175,1.173901 -0.273312,1.518352 -0.31801,3.074143 -0.578005,4.591578 -0.07086,0.41355 -0.152734,0.82721 -0.178675,1.245984 -0.04493,0.725351 0.05431,1.481963 0.03735,2.209497 -0.0085,0.365895 -0.122096,0.72322 -0.143231,1.088606 -0.0041,0.07165 0.04209,0.148663 0.01432,0.214856 -0.09042,0.215629 -1.494949,2.325581 -1.642243,2.357427 -0.245117,0.05299 -0.506596,-0.0075 -0.750673,0.05005 -0.324276,0.07651 -0.331904,0.242919 -0.604896,0.3546 -0.03031,0.01239 -0.06535,0.0044 -0.09803,0.0065 -0.107428,0.0072 -0.225199,-0.02505 -0.322284,0.02149 -0.18921,0.09071 -0.246052,0.325741 -0.468447,0.340569"
       id="path13" />
    <path
       style="fill:#aaffcc;fill-opacity:1;stroke:none;stroke-width:0.861333;stroke-linecap:round"
       d="m 18.681346,-25.046613 c -0.646017,0.373531 -2.83627,1.308881 -3.622273,1.112802 -0.593287,-0.148004 -0.995111,-0.735397 -1.456447,-1.086465 -0.291245,-0.221631 -0.620487,-0.38883 -0.920848,-0.597939 -0.265679,-0.184963 0.05149,-0.031 -0.243506,-0.415388 -0.0927,-0.120791 -0.247225,-0.183056 -0.343772,-0.300797 -0.34309,-0.418396 -0.751525,-1.065333 -0.967418,-1.55484 -0.09878,-0.223978 -0.222078,-0.968707 -0.293678,-1.167888 -0.04236,-0.09344 -0.40671,-0.869003 -0.509228,-1.154579 -0.09999,-0.278543 -0.134238,-0.583254 -0.272156,-0.845099 -0.3543686,-0.672775 -0.8716606,-1.379563 -1.3309046,-1.977963 -0.0618,-0.08053 -0.187361,-0.108037 -0.229181,-0.200531 -0.272502,-0.602693 -0.203222,-1.537575 -0.360556,-2.14982 -0.102828,-0.400146 -0.355813,-0.779822 -0.51104,-1.159259 -0.187178,-0.457533 -0.310061,-0.965127 -0.630254,-1.360753 -0.184318,-0.227738 -0.42095,-0.409343 -0.607091,-0.635592 -1.260776,-1.532457 -0.01528,-0.530337 -2.2369032,-2.266156 -2.1750152,-1.699398 -0.832314,-0.547089 -2.6763191,-1.697029 -0.1322087,-0.08245 -0.2221935,-0.221288 -0.3517796,-0.307797 -0.027607,-0.01843 -0.066243,0.0044 -0.099359,0.0066 -0.068451,-0.0287 -0.15014032,-0.03652 -0.20536512,-0.08612 -0.1046235,-0.09398 -0.1881518,-0.4124 -0.2445954,-0.507981 -0.2532225,-0.428807 -0.523493,-0.856085 -0.6302536,-1.360752 -0.066851,-0.316006 -9.739e-4,-0.650154 -0.064463,-0.966853 -0.1726591,-0.861246 -0.3594352,-1.660705 -0.5134651,-2.520674 -0.034694,-0.193715 0.015706,-0.462367 -0.042975,-0.644568 -0.015559,-0.04831 -0.095367,-0.05329 -0.1145901,-0.100266 -0.1551438,-0.379091 -0.24095138,-0.784568 -0.40171148,-1.161311 -0.593483,-1.390828 -0.3568725,-0.567272 -0.7233571,-1.138734 -0.2737191,-0.426811 -0.7255333,-2.005358 -0.5908931,-2.521492 0.1711024,-0.655911 1.2556992,-1.989973 1.66786758,-2.601704 0.3516201,-0.287196 0.2503213,-0.785794 0.4724356,-1.12739 0.098397,-0.151326 0.2919952,-0.216858 0.4110067,-0.352569 0.377394,-0.430347 0.6484099,-0.983647 1.09680592,-1.369115 0.1889601,-0.162441 1.0085938,-0.374887 1.0488368,-0.392296 0.2573973,-0.11134 0.4912976,-0.273411 0.7509651,-0.379351 0.8921435,-0.36398 2.365367,-0.48363 3.333498,-0.440924 0.67019,0.02956 1.270696,0.326957 1.923766,0.434098 0.254093,0.04169 0.519193,0.0014 0.770241,0.05865 0.126529,0.02885 0.209866,0.170942 0.337589,0.193935 1.0090798,0.181651 0.7812828,-0.01993 1.6332548,1.51e-4 0.948845,0.02237 1.859951,0.163446 2.80513,0.2649 0.757658,0.08133 1.583419,10e-4 2.333818,0.190297 0.65465,0.165109 0.498871,1.254935 0.764736,1.875533 0.05108,0.11922 0.171287,0.196791 0.236892,0.308675 0.533359,0.909594 0.02458,0.145732 0.387026,0.945846 0.190871,0.421353 0.355194,0.464251 0.494176,0.938203 0.04039,0.137755 -0.0217,0.295275 0.02865,0.429712 0.08455,0.225799 0.264542,0.405191 0.365931,0.623952 0.110054,0.237458 0.146503,0.505838 0.265684,0.73885 0.137012,0.267873 0.384883,0.474162 0.497462,0.753186 0.11568,0.286711 0.07524,0.618067 0.174006,0.911037 0.961192,2.851253 -0.116824,-1.205546 0.669826,1.540882 0.07371,0.257346 0.07763,0.533462 0.168883,0.785124 0.237086,0.653904 0.694893,1.209293 0.963663,1.850825 0.08643,0.206306 0.08335,0.441165 0.156587,0.652517 -0.06004,0.401748 0.37849,0.528675 0.487013,0.830774 0.04854,0.135103 0.0033,0.288406 0.02865,0.429712 0.03226,0.180132 0.116,0.349019 0.143241,0.529978 0.106163,0.705264 -0.0029,1.470118 0.144513,2.167479 0.05479,0.259258 0.178938,0.498847 0.268407,0.748271 0.02431,0.364662 0.0038,0.735111 0.07294,1.093984 0.0434,0.225282 0.208473,0.413618 0.260532,0.637058 0.170605,0.732238 0.02501,1.54335 0.152377,2.285444 0.05101,0.297219 0.116594,0.591753 0.174895,0.887628 0.06377,0.406643 0.122869,0.814045 0.1913,1.21993 0.153166,0.908504 0.480823,1.729936 0.632141,2.63287 0.0865,0.516142 0.07231,1.084606 0.107169,1.607382 0.01671,0.250665 0.122504,0.511423 0.05014,0.751996 -0.126191,0.419512 -0.48047,0.734608 -0.680371,1.124419 -0.381034,0.74303 -0.422358,1.128527 -1.067479,1.683112 -0.408394,0.35108 -1.054941,0.393973 -1.471829,0.752356 -0.393059,0.337897 -0.683024,0.678574 -1.119043,0.934666 -0.547614,0.321637 -0.738322,0.149167 -1.13873,0.723357 -0.09337,0.133896 0.142791,0.725442 0.199788,0.893781 z"
       id="path14" />
    <path
       style="fill:#ccffaa;fill-opacity:1;stroke:none;stroke-width:0.861333;stroke-linecap:round"
       d="m 21.051123,-33.681924 c -0.425714,0.05186 -0.851429,0.103702 -1.277143,0.155557 -0.217373,0.08945 -0.42161,0.22233 -0.65212,0.268339 -0.570318,0.113833 -1.160558,0.07738 -1.740838,0.116067 -0.04985,0.0033 -0.954546,0.128987 -1.07428,0.07163 -0.594966,-0.285033 -1.043698,-0.808955 -1.59191,-1.175959 -0.414621,-0.277572 -0.964868,-0.494153 -1.286228,-0.911179 -0.02163,-0.02806 -0.0047,-0.07069 -0.0071,-0.106051 -0.08065,-0.137577 -0.140768,-0.289468 -0.241953,-0.412731 -0.161015,-0.19615 -0.418064,-0.300306 -0.572953,-0.501327 -0.52751,-0.684627 -0.875504,-3.040657 -1.341032,-3.90674 -0.08496,-0.158059 -0.260185,-0.25342 -0.350934,-0.408225 -0.07483,-0.127656 -0.06124,-0.294894 -0.136079,-0.42255 -0.09075,-0.154806 -0.241685,-0.265872 -0.350934,-0.408225 -0.104252,-0.135842 -0.8360796,-1.753845 -0.8809226,-1.883567 -0.765395,-2.214136 0.6414136,1.200699 -0.523759,-1.36927 -0.0741,-0.163431 0.0054,-0.362491 -0.03581,-0.53714 -0.05212,-0.220914 -0.134587,-0.439635 -0.257831,-0.630243 -0.125129,-0.193523 -0.330568,-0.324091 -0.466847,-0.509931 -0.318702,-0.434604 -0.431958,-0.933125 -0.743247,-1.363085 -0.517343,-0.714564 -0.977879,-1.43998 -1.455237,-2.192037 -0.168397,-0.265303 -0.283301,-0.593979 -0.487332,-0.831319 -0.06617,-0.07698 -0.16738,-0.120004 -0.229181,-0.200531 -0.108144,-0.140908 0.0055,-0.358853 -0.03545,-0.531686 -0.07445,-0.314066 -0.21171,-0.297419 -0.150404,-0.637405 0.138495,-0.768047 0.71345,-1.32783 1.167963,-1.913381 1.600248,-2.061608 3.301671,-2.995613 5.8093376,-3.558405 0.438702,-0.09845 0.897241,-0.09511 1.333098,-0.205481 0.224426,-0.05683 0.422507,-0.191839 0.642816,-0.262976 0.550522,-0.177763 1.67747,-0.340431 2.286123,-0.260329 0.308856,0.04064 0.519197,0.265105 0.778121,0.376266 1.216905,0.522442 -0.201077,-0.296726 1.12482,0.695881 0.129478,0.09693 0.325745,0.08114 0.447473,0.187643 0.165689,0.144964 0.465263,0.902339 0.501282,1.045528 0.05253,0.208828 -0.0066,0.435009 0.04297,0.644569 0.261482,1.106417 1.047053,1.928242 1.409438,2.984079 0.165945,0.483492 0.128602,1.928854 0.165098,2.47623 0.09348,1.402101 0.202879,2.822927 0.538069,4.193204 0.06638,0.271385 0.202777,0.520961 0.290263,0.786298 0.127101,0.385484 0.16075,0.798663 0.297862,1.180703 0.103709,0.288967 0.276643,0.549876 0.380298,0.838864 0.07429,0.207116 0.07404,0.436477 0.151076,0.642589 0.05637,0.150821 0.195221,0.263235 0.244719,0.416446 0.04413,0.136604 0.0014,0.288766 0.02865,0.429712 0.08543,0.441993 0.327856,0.818882 0.408235,1.267649 0.11566,0.645725 0.09324,1.398467 0.136477,2.046964 0.07333,1.099885 0.05784,1.925268 -0.444039,2.903936 -0.09802,0.191135 -0.142483,0.501915 -0.279309,0.666056 -0.16664,0.199909 -1.377985,0.651331 -1.571348,0.745567 z"
       id="path15" />
    <path
       style="fill:#87deaa;fill-opacity:1;stroke:none;stroke-width:0.667407;stroke-linecap:round"
       d="m 29.843347,-69.18497 c 0.946786,-0.912963 2.498481,-1.365107 3.96151,-1.442226 0.345276,-0.0182 0.701562,-0.125362 1.035829,-0.0546 1.270941,0.269048 3.487999,1.89478 4.208577,2.829596 0.103823,0.134689 0.131754,0.299166 0.226259,0.438078 0.08693,0.127769 0.250117,0.221309 0.314715,0.3571 0.05504,0.115717 -0.0048,0.249762 0.03121,0.370071 0.05419,0.181012 0.179683,0.345238 0.236888,0.525666 0.07711,0.243228 -0.0067,0.506021 0.0633,0.750591 0.05149,0.179906 0.19318,0.339184 0.239433,0.519977 0.118039,0.461385 0.07756,0.902097 0.210232,1.365456 0.09783,0.341728 0.165571,0.689434 0.288325,1.026096 0.04736,0.129904 0.146318,0.244394 0.219478,0.36659 0.07998,0.176229 0.178982,0.347765 0.239926,0.528687 0.06813,0.202278 0.02932,0.429403 0.14609,0.617274 0.136855,0.22018 0.426113,0.360815 0.591023,0.568632 0.161756,0.203844 0.962117,1.547474 1.062326,1.791706 0.04934,0.120255 -0.02147,0.259262 0.03191,0.378432 0.07453,0.166366 0.250112,0.294428 0.341624,0.455409 0.06538,0.114998 0.07266,0.245992 0.124828,0.365136 0.266447,0.608565 0.486149,0.814674 1.146,1.386353 1.436646,1.244671 0.490577,-0.05353 2.817498,1.419488 0.741985,0.469701 1.267804,1.782293 1.714249,2.424089 1.101119,1.582934 -0.02644,-0.348698 0.664136,0.74953 0.339956,0.540616 0.540027,1.144328 0.930108,1.663664 0.191054,0.254363 0.396875,0.5019 0.610842,0.744593 0.137548,0.156016 0.333177,0.281217 0.442792,0.450498 0.126102,0.194742 0.153616,0.420961 0.253606,0.624956 0.106069,0.216394 0.258387,0.417456 0.363549,0.634127 0.396476,0.816885 0.280852,2.188978 -0.262682,2.927644 -0.807768,1.097757 -2.20655,1.608973 -3.605488,2.099952 -1.164985,0.408871 -1.015297,0.438087 -2.217879,0.744651 -0.640804,0.284401 -1.395769,0.202385 -2.069217,0.373887 -0.252185,0.06423 -0.453366,0.226502 -0.706915,0.287276 -0.985872,0.236308 -2.476284,0.295787 -3.517241,0.350657 -0.35263,0.01859 -3.145889,0.240761 -3.407579,0.179618 -0.220529,-0.05153 -0.399058,-0.180787 -0.596867,-0.273497 -2.352894,-1.102777 -0.736279,-0.258042 -2.512968,-1.405571 -1.176101,-0.759622 -1.897281,-1.119245 -2.720331,-2.154372 -0.114055,-0.143443 -0.250036,-0.279569 -0.32664,-0.437807 -0.08338,-0.172228 -0.06809,-0.367367 -0.147144,-0.540866 -0.08431,-0.185046 -0.249612,-0.342144 -0.338838,-0.525745 -0.215148,-0.442715 -0.387455,-0.89902 -0.529925,-1.359717 -0.262423,-0.84858 -0.132386,-1.693784 -0.550364,-2.520151 -0.590273,-1.166995 -1.100491,-1.863733 -1.89725,-2.89662 -0.09306,-0.120645 -1.23409,-1.353949 -1.317224,-1.554468 -0.03896,-0.09399 -0.01664,-0.197371 -0.02497,-0.296057 -0.105452,-0.120352 -0.230122,-0.231492 -0.316357,-0.361058 -0.184918,-0.277832 -0.326902,-1.623621 -0.355916,-1.967671 -0.04724,-0.560166 -0.287984,-2.138527 -0.225871,-2.678328 0.03195,-0.277581 0.206102,-0.534458 0.268559,-0.808776 0.238178,-1.04609 0.27713,-2.117975 0.503703,-3.163434 0.06175,-0.284921 0.1331,-0.569918 0.155706,-0.858438 0.03915,-0.499741 -0.04733,-1.02102 -0.03255,-1.522265 0.0074,-0.252089 0.106401,-0.498273 0.124819,-0.750011 0.0036,-0.04936 -0.03668,-0.102424 -0.01248,-0.148028 0.0788,-0.148561 1.302773,-1.602243 1.431133,-1.624184 0.213607,-0.03651 0.441473,0.0052 0.654174,-0.03448 0.28259,-0.05271 0.289237,-0.167363 0.527136,-0.244307 0.02641,-0.0085 0.05695,-0.003 0.08543,-0.0045 0.09362,-0.005 0.19625,0.01726 0.280855,-0.01481 0.164887,-0.0625 0.214422,-0.224424 0.408228,-0.23464"
       id="path16" />
    <path
       style="fill:#aaffcc;fill-opacity:1;stroke:none;stroke-width:0.667407;stroke-linecap:round"
       d="m 28.11253,-66.302589 c 0.562971,-0.25735 2.471667,-0.901773 3.15663,-0.766681 0.51702,0.101969 0.867189,0.506662 1.26922,0.748536 0.253806,0.152695 0.540724,0.26789 0.802473,0.411958 0.231526,0.127433 -0.04487,0.02136 0.212204,0.286188 0.08078,0.08322 0.215444,0.126119 0.29958,0.207238 0.298986,0.28826 0.654916,0.733977 0.843056,1.07123 0.08608,0.154313 0.19353,0.667405 0.255926,0.804633 0.03691,0.06438 0.354427,0.598712 0.443767,0.795464 0.08714,0.191906 0.116981,0.401841 0.23717,0.582243 0.308815,0.463518 0.759609,0.95047 1.159817,1.362746 0.05386,0.05548 0.163276,0.07443 0.19972,0.138159 0.237472,0.415234 0.177098,1.059335 0.314206,1.48115 0.08961,0.275686 0.310074,0.537269 0.445346,0.798688 0.163117,0.315224 0.270203,0.664938 0.549235,0.937511 0.160624,0.156903 0.366837,0.282022 0.52905,0.4379 1.098703,1.055808 0.01331,0.365383 1.949349,1.561301 1.895417,1.170825 0.72532,0.376925 2.332278,1.169192 0.115213,0.05681 0.19363,0.15246 0.306558,0.212062 0.02406,0.0127 0.05772,-0.003 0.08659,-0.0045 0.05965,0.01977 0.13084,0.02516 0.178966,0.05933 0.09117,0.06475 0.163964,0.284129 0.213152,0.349981 0.220671,0.295433 0.456198,0.589812 0.549235,0.93751 0.05826,0.217717 8.48e-4,0.447933 0.05617,0.666127 0.150464,0.593368 0.31323,1.144167 0.447459,1.736655 0.03023,0.133463 -0.01369,0.318554 0.03745,0.444084 0.01356,0.03328 0.08311,0.03672 0.09986,0.06908 0.1352,0.26118 0.209976,0.54054 0.350071,0.800102 0.517191,0.958231 0.310997,0.39083 0.630369,0.784547 0.238533,0.294058 0.632267,1.381621 0.514934,1.737219 -0.149107,0.451899 -1.094279,1.37102 -1.453463,1.792481 -0.306419,0.197868 -0.218142,0.541384 -0.411704,0.776732 -0.08575,0.104258 -0.254459,0.149407 -0.358171,0.242908 -0.32888,0.296493 -0.565057,0.677697 -0.955812,0.943271 -0.164669,0.111916 -0.878939,0.258284 -0.914009,0.270278 -0.224308,0.07671 -0.428142,0.188371 -0.654428,0.261359 -0.777459,0.25077 -2.061299,0.333204 -2.904977,0.303781 -0.584037,-0.02036 -1.107348,-0.225261 -1.676466,-0.299078 -0.221429,-0.02872 -0.452451,-9.64e-4 -0.671227,-0.04041 -0.110263,-0.01988 -0.182887,-0.117773 -0.294191,-0.133615 -0.879363,-0.125151 -0.68085,0.01373 -1.423301,-1.04e-4 -0.82687,-0.01541 -1.620854,-0.112608 -2.44453,-0.182506 -0.660261,-0.05603 -1.379871,-6.89e-4 -2.033806,-0.131108 -0.570494,-0.113755 -0.434741,-0.864606 -0.666429,-1.292176 -0.04451,-0.08214 -0.149268,-0.135582 -0.206439,-0.212666 -0.464796,-0.626678 -0.02142,-0.100404 -0.337274,-0.651654 -0.166335,-0.290298 -0.309534,-0.319853 -0.43065,-0.646389 -0.0352,-0.09491 0.01891,-0.203434 -0.02497,-0.296056 -0.07368,-0.155568 -0.230535,-0.279162 -0.318891,-0.429881 -0.09591,-0.1636 -0.12767,-0.348504 -0.23153,-0.509041 -0.119399,-0.184555 -0.335406,-0.326681 -0.433513,-0.518919 -0.100809,-0.197533 -0.06557,-0.425826 -0.151638,-0.627672 -0.83763,-1.964412 0.101807,0.830579 -0.58372,-1.061613 -0.06423,-0.177302 -0.06765,-0.367536 -0.147173,-0.540922 -0.206608,-0.450517 -0.605564,-0.83316 -0.839784,-1.275153 -0.07532,-0.142137 -0.07264,-0.303947 -0.136457,-0.449561 0.05232,-0.27679 -0.329836,-0.364238 -0.424408,-0.572374 -0.0423,-0.09308 -0.0029,-0.198701 -0.02497,-0.296056 -0.02811,-0.124105 -0.101088,-0.240462 -0.124827,-0.365136 -0.09252,-0.485902 0.0025,-1.012859 -0.125936,-1.493316 -0.04775,-0.17862 -0.155936,-0.343688 -0.233903,-0.515532 -0.02118,-0.251239 -0.0033,-0.506466 -0.06356,-0.753716 -0.03782,-0.155212 -0.181674,-0.284968 -0.227041,-0.438911 -0.148673,-0.504486 -0.0218,-1.063313 -0.132789,-1.574589 -0.04445,-0.204774 -0.101605,-0.407697 -0.152412,-0.611544 -0.05557,-0.280163 -0.107074,-0.560849 -0.166708,-0.840489 -0.133477,-0.625927 -0.419013,-1.191864 -0.550879,-1.813954 -0.07538,-0.355603 -0.06302,-0.747255 -0.09339,-1.107429 -0.01456,-0.172699 -0.106756,-0.352352 -0.04369,-0.518098 0.109969,-0.289029 0.418705,-0.506119 0.592909,-0.774685 0.332052,-0.511921 0.368064,-0.777515 0.930254,-1.159604 0.355895,-0.241882 0.919329,-0.271434 1.282626,-0.518347 0.342531,-0.232799 0.595221,-0.467513 0.97519,-0.643952 0.477218,-0.221596 0.643411,-0.10277 0.992346,-0.498367 0.08137,-0.09225 -0.124435,-0.499804 -0.174105,-0.615783 z"
       id="path17" />
    <path
       style="fill:#ccffaa;fill-opacity:1;stroke:none;stroke-width:0.667407;stroke-linecap:round"
       d="m 26.047388,-60.353167 c 0.370988,-0.03573 0.741978,-0.07145 1.112966,-0.107173 0.18943,-0.06163 0.367412,-0.153177 0.56829,-0.184876 0.497004,-0.07843 1.011368,-0.05331 1.517053,-0.07997 0.04344,-0.0023 0.831839,-0.08887 0.936182,-0.04935 0.518483,0.196378 0.90953,0.557342 1.38727,0.810194 0.361321,0.191238 0.840834,0.340454 1.120883,0.62777 0.01885,0.01933 0.0041,0.0487 0.0062,0.07307 0.07028,0.09479 0.122672,0.199433 0.21085,0.284357 0.140317,0.13514 0.364322,0.2069 0.4993,0.345396 0.459699,0.471684 0.762958,2.094905 1.168642,2.691605 0.07404,0.108897 0.226739,0.174598 0.305822,0.281253 0.06521,0.08795 0.05337,0.203171 0.118586,0.291122 0.07908,0.106656 0.210616,0.183176 0.305821,0.281252 0.09085,0.09359 0.728602,1.208337 0.767681,1.297711 0.667003,1.525461 -0.558961,-0.827239 0.456429,0.943378 0.06457,0.112598 -0.0047,0.249744 0.03121,0.370071 0.04542,0.152202 0.117286,0.302893 0.224687,0.434215 0.109044,0.13333 0.288073,0.223287 0.406834,0.351324 0.277733,0.299427 0.376429,0.64289 0.647702,0.939117 0.450839,0.492309 0.852173,0.992095 1.268167,1.510236 0.146749,0.182784 0.246882,0.40923 0.424685,0.572749 0.05766,0.05304 0.145863,0.08268 0.19972,0.138159 0.09424,0.09708 -0.0048,0.247237 0.03089,0.366313 0.06488,0.21638 0.184494,0.204911 0.131069,0.439149 -0.120691,0.529157 -0.621736,0.914828 -1.017821,1.318251 -1.394536,1.420375 -2.877241,2.063871 -5.062548,2.451615 -0.382307,0.06783 -0.7819,0.06553 -1.161728,0.141569 -0.195576,0.03915 -0.368194,0.13217 -0.560182,0.181181 -0.479752,0.122473 -1.461831,0.234545 -1.992242,0.179358 -0.269152,-0.028 -0.452454,-0.182648 -0.678093,-0.259234 -1.060472,-0.359944 0.175228,0.204433 -0.980225,-0.479437 -0.112833,-0.06678 -0.28387,-0.0559 -0.38995,-0.12928 -0.14439,-0.09987 -0.405453,-0.621679 -0.436842,-0.720331 -0.04578,-0.143876 0.0058,-0.299706 -0.03745,-0.444086 -0.227869,-0.762282 -0.912455,-1.32849 -1.228255,-2.055924 -0.144613,-0.333109 -0.11207,-1.328912 -0.143875,-1.706034 -0.08146,-0.965998 -0.176799,-1.944897 -0.4689,-2.888969 -0.05785,-0.186975 -0.17671,-0.358924 -0.25295,-0.541731 -0.110762,-0.265585 -0.140085,-0.550251 -0.259572,-0.813463 -0.09038,-0.199088 -0.24108,-0.378845 -0.33141,-0.577947 -0.06474,-0.142696 -0.06452,-0.300717 -0.131655,-0.442721 -0.04912,-0.103911 -0.170126,-0.18136 -0.213261,-0.286917 -0.03846,-0.09412 -0.0012,-0.198949 -0.02497,-0.296056 -0.07445,-0.304518 -0.28571,-0.564181 -0.355756,-0.873365 -0.100792,-0.444882 -0.08125,-0.963494 -0.118933,-1.410286 -0.0639,-0.757781 -0.05041,-1.326441 0.386958,-2.000708 0.08542,-0.131686 0.124166,-0.345802 0.243403,-0.458889 0.145219,-0.137731 1.200845,-0.448744 1.369352,-0.513669 z"
       id="path18" />
  </g>
  <path
     style="fill:#373a5a;stroke-width:0.186194;fill-opacity:1"
     d="M 19.72048,36.075481 C 19.475999,35.969137 19.38762,35.788303 19.3596,35.337068 l -0.02464,-0.396665 -1.034537,-0.02464 c -0.805173,-0.01917 -1.059411,-0.04101 -1.146736,-0.09853 -0.122822,-0.08089 -0.306541,-0.420423 -0.306541,-0.566531 0,-0.146107 0.183713,-0.485636 0.306541,-0.566535 0.08733,-0.05751 0.341563,-0.07935 1.146736,-0.09853 l 1.034537,-0.02463 0.01384,-0.605368 0.01384,-0.605373 -0.151743,-0.127686 c -0.08346,-0.07023 -0.206828,-0.236385 -0.274151,-0.369237 -0.135347,-0.2671 -0.100581,0.159319 -0.535656,-6.568632 -0.09462,-1.463129 -0.185386,-2.81888 -0.201706,-3.012777 l -0.02969,-0.352543 -0.32876,-0.02886 C 17.660125,21.874657 14.231325,21.850553 9.7901451,21.615436 5.3489642,21.380322 1.6724659,21.166127 1.6201478,21.139451 l -0.095123,-0.0485 v -1.485964 c 0,-1.221392 0.011652,-1.520894 0.065433,-1.68217 0.078166,-0.234395 0.2058095,-0.4144 0.3784732,-0.533742 0.1166204,-0.0806 0.7998377,-0.08879 8.487073,-0.101543 7.235218,-0.012 8.164609,0.128921 8.164609,0.06765 0,-0.225894 -0.363671,-1.896811 -0.911793,-4.189312 -0.48388,-2.023806 -0.535449,-2.398076 -0.50229,-3.6455126 0.01958,-0.7363728 0.05181,-1.1006467 0.127618,-1.4419665 0.218123,-0.9821302 0.586901,-1.8567998 1.121805,-2.660712 0.299549,-0.4501952 1.10601,-1.3245947 1.37501,-1.4908451 0.196792,-0.1216213 0.23656,-0.1062436 0.641692,0.248286 1.070377,0.9366592 1.90209,2.4235437 2.209281,3.9496029 0.263672,1.3098722 0.194303,2.6938523 -0.219119,4.3717643 -0.513767,2.085156 -1.083435,4.642929 -1.083435,4.864537 0,0.0535 1.278578,-0.08494 8.16461,-0.0735 7.69912,0.01276 8.370272,0.02083 8.487073,0.101855 0.167599,0.116233 0.343184,0.352972 0.39894,0.537862 0.02793,0.09262 0.04497,0.720219 0.04497,1.656411 v 1.507298 l -0.09513,0.04855 c -0.05231,0.02669 -0.62781,0.07526 -1.278873,0.107943 -3.295685,0.165386 -15.236136,0.653518 -15.251679,0.669242 -0.0099,0.01 -0.161122,2.190649 -0.336152,4.84596 -0.242781,3.683132 -0.336357,4.870938 -0.394667,5.009606 -0.04203,0.09997 -0.167518,0.280582 -0.278848,0.401364 l -0.202418,0.219596 0.01393,0.583913 0.01393,0.583908 1.034538,0.02463 c 1.14936,0.02738 1.223089,0.04707 1.37514,0.367492 0.09985,0.210441 0.09894,0.386622 -0.0031,0.601711 -0.149903,0.315902 -0.216819,0.333532 -1.369644,0.360918 l -1.036913,0.02464 -0.02464,0.396665 c -0.02838,0.457126 -0.11727,0.634194 -0.371727,0.740512 -0.206519,0.08629 -0.346276,0.08575 -0.54825,-0.0021 z m -4.491941,-5.296595 c -1.434698,-0.199518 -2.05016,-0.303541 -2.080638,-0.351665 -0.06107,-0.09644 -0.05493,-1.606235 0.0074,-1.830864 0.06431,-0.231549 0.313715,-0.521498 0.524269,-0.609473 0.123872,-0.05175 0.557248,-0.06655 1.948715,-0.06655 h 1.789422 l 0.08685,1.465593 c 0.04777,0.806078 0.09715,1.515474 0.109757,1.576438 0.02068,0.10008 0.0049,0.110306 -0.162777,0.105343 -0.102118,-0.003 -1.102489,-0.132993 -2.223035,-0.288821 z m 7.185034,0.109582 c -6.12e-4,-0.260785 0.148395,-2.614662 0.177661,-2.808033 l 0.02424,-0.160106 h 1.780338 c 1.71355,0 1.788436,0.004 1.996199,0.104493 0.129875,0.06287 0.268527,0.184018 0.348085,0.304131 0.13001,0.196293 0.132452,0.214962 0.145917,1.11478 0.0075,0.503332 -0.0066,0.945751 -0.03152,0.98316 -0.03163,0.0476 -0.671698,0.154258 -2.132032,0.355299 -1.147752,0.158007 -2.136703,0.288124 -2.197666,0.289149 -0.0955,0.0018 -0.110895,-0.02369 -0.11122,-0.182875 z"
     id="path1"
     sodipodi:nodetypes="sscssssscccsssscssscssscsssssssssssssscsssssscccsssscssssssssscssssssscssscsscss" />
  <circle
     style="fill:#000000;fill-opacity:1;stroke-width:1.13262;stroke-linecap:round"
     id="path3"
     cx="20"
     cy="20"
     r="7.1775713" />
  <path
     style="fill:#fffe2a;fill-opacity:1;stroke-width:0.0626842"
     d="m 19.612779,26.624512 c -1.501895,-0.09062 -2.952216,-0.698485 -4.054428,-1.699294 l -0.120937,-0.109805 0.344066,-0.60336 c 0.189237,-0.331846 0.419077,-0.733965 0.510754,-0.893597 0.09167,-0.159631 0.280781,-0.49175 0.420228,-0.738044 0.742925,-1.312125 1.211115,-2.122676 1.225028,-2.12081 0.01669,0.0021 0.157619,0.24626 1.143482,1.979839 0.344967,0.606606 0.670359,1.177551 0.723099,1.26877 0.05274,0.09121 0.155032,0.270337 0.227319,0.398046 0.07228,0.127707 0.191217,0.336677 0.264291,0.464383 0.07308,0.127708 0.198661,0.347875 0.279083,0.489265 0.418636,0.735968 0.699434,1.22938 0.749549,1.317074 0.03081,0.05393 0.05017,0.103257 0.04298,0.109616 -0.0357,0.03163 -0.549675,0.105972 -0.914611,0.132287 -0.207318,0.01501 -0.637591,0.01783 -0.8399,0.0057 z M 21.738695,26.2975 c -0.02572,-0.0494 -0.07908,-0.144677 -0.118594,-0.211749 -0.03951,-0.06707 -0.301198,-0.524973 -0.581509,-1.017557 -0.717471,-1.260778 -1.218533,-2.139927 -1.486149,-2.607552 -0.126435,-0.220946 -0.229899,-0.405661 -0.229899,-0.410483 0,-0.0047 1.571036,-0.0087 3.49119,-0.0087 2.261889,0 3.491187,0.0057 3.491187,0.01619 0,0.07344 -0.269616,0.726956 -0.407282,0.987201 -0.337021,0.637116 -0.702646,1.134493 -1.201414,1.634342 -0.534887,0.536048 -1.074515,0.928032 -1.723123,1.251689 -0.321883,0.160619 -0.52148,0.244231 -0.832189,0.348607 -0.375711,0.126206 -0.346595,0.124905 -0.402212,0.01807 z m -6.686853,-1.879481 c -0.04561,-0.05084 -0.152044,-0.178889 -0.236525,-0.284558 -0.666863,-0.834117 -1.12662,-1.832857 -1.329511,-2.888157 -0.165176,-0.859135 -0.150345,-1.845168 0.04036,-2.682661 l 0.02737,-0.120248 h 2.528059 2.528057 l -0.05302,0.09536 c -0.02918,0.05245 -0.132379,0.233438 -0.229361,0.402194 -0.09698,0.168753 -0.214192,0.373996 -0.260461,0.45609 -0.106266,0.188536 -1.081837,1.901383 -2.035702,3.574118 -0.40313,0.706943 -0.765612,1.343194 -0.80551,1.413888 -0.0399,0.0707 -0.07666,0.12806 -0.08168,0.127477 -0.0051,-7.1e-4 -0.04645,-0.04267 -0.09206,-0.0935 z m 6.530017,-3.143695 c 0.118991,-0.202963 0.31694,-0.540675 0.439892,-0.750477 0.122944,-0.209806 0.262919,-0.448634 0.311046,-0.530729 0.04813,-0.08211 0.174937,-0.298534 0.28181,-0.480975 0.193767,-0.330761 0.379874,-0.648 0.481618,-0.820965 0.0295,-0.05018 0.0907,-0.154656 0.135963,-0.232193 0.04527,-0.07755 0.157064,-0.267851 0.248425,-0.422924 0.09136,-0.155073 0.295143,-0.502117 0.452844,-0.771213 0.157704,-0.269094 0.413585,-0.705701 0.568629,-0.970236 0.155041,-0.264534 0.311925,-0.533212 0.348627,-0.597066 0.03672,-0.06385 0.06914,-0.119161 0.07208,-0.122898 0.01953,-0.02486 0.360243,0.397228 0.565637,0.70073 0.616844,0.911481 0.971903,1.870689 1.109109,2.996289 0.0411,0.337179 0.04094,1.121613 -3.19e-4,1.459497 -0.02968,0.243253 -0.0861,0.571848 -0.135993,0.791947 l -0.02726,0.120248 h -2.53424 -2.534242 z m 0.344407,-1.915591 c -0.08436,-0.143668 -0.282294,-0.48512 -0.439857,-0.758775 -0.157559,-0.273656 -0.336504,-0.583384 -0.397653,-0.688286 -0.06114,-0.104898 -0.21224,-0.366121 -0.335768,-0.580481 -0.123526,-0.214365 -0.273337,-0.47185 -0.332914,-0.572191 -0.05958,-0.100332 -0.135457,-0.23095 -0.168618,-0.290242 -0.06007,-0.107399 -0.335288,-0.584335 -0.56467,-0.978529 -0.06635,-0.114029 -0.258779,-0.446143 -0.427627,-0.738044 -0.168846,-0.291896 -0.331543,-0.571772 -0.361544,-0.621942 -0.02999,-0.05018 -0.07277,-0.124798 -0.09502,-0.165853 -0.02224,-0.04105 -0.08603,-0.151739 -0.141722,-0.245983 -0.05569,-0.09424 -0.101252,-0.176896 -0.101252,-0.183676 0,-0.01455 0.31424,-0.07439 0.572193,-0.108909 1.941929,-0.259851 3.913945,0.362773 5.359391,1.69212 0.147648,0.135779 0.155186,0.145934 0.133373,0.179327 -0.01272,0.0195 -0.06416,0.106302 -0.114336,0.192957 -0.05018,0.08666 -0.194187,0.332951 -0.320037,0.547315 -0.233967,0.398505 -0.587993,1.002436 -0.78751,1.3434 -0.235597,0.402625 -0.563717,0.961611 -0.671739,1.144381 -0.062,0.104897 -0.20188,0.34373 -0.310839,0.530729 -0.247238,0.424307 -0.330427,0.563897 -0.336059,0.563897 -0.0025,0 -0.07343,-0.117557 -0.157789,-0.261216 z m -8.248652,-1.359987 c 0.01984,-0.08035 0.136912,-0.399831 0.205753,-0.561587 0.346319,-0.813674 0.807147,-1.496041 1.433009,-2.121904 0.613567,-0.613565 1.281967,-1.068864 2.073982,-1.412741 0.296948,-0.128933 0.758344,-0.283558 0.767164,-0.257101 0.0032,0.0093 0.0341,0.06428 0.06891,0.1223 0.03482,0.058 0.177343,0.303244 0.316733,0.544969 0.139393,0.241732 0.318836,0.55146 0.398774,0.688288 0.07993,0.136835 0.269927,0.465216 0.422204,0.72975 0.152274,0.264534 0.327374,0.5668 0.389113,0.671704 0.06174,0.104897 0.228243,0.392236 0.370012,0.63853 0.141767,0.246289 0.328192,0.567215 0.414281,0.713164 0.08609,0.145948 0.153485,0.270959 0.149762,0.277802 -0.0037,0.0067 -1.584951,0.01241 -3.513862,0.01241 h -3.507111 z"
     id="path2" />
</svg>
