<?xml version="1.0" encoding="UTF-8" standalone="no"?>
<svg
   xmlns:dc="http://purl.org/dc/elements/1.1/"
   xmlns:cc="http://creativecommons.org/ns#"
   xmlns:rdf="http://www.w3.org/1999/02/22-rdf-syntax-ns#"
   xmlns:svg="http://www.w3.org/2000/svg"
   xmlns="http://www.w3.org/2000/svg"
   xmlns:sodipodi="http://sodipodi.sourceforge.net/DTD/sodipodi-0.dtd"
   xmlns:inkscape="http://www.inkscape.org/namespaces/inkscape"
   width="40"
   height="40"
   viewBox="0 0 39.999998 39.999998"
   id="svg24280"
   version="1.1"
   inkscape:version="0.92.2 (unknown)"
   sodipodi:docname="lm_04_active.svg"
   inkscape:export-filename="/home/stefano/Pictures/mapplusbern/png/lm_04_active.png"
   inkscape:export-xdpi="96"
   inkscape:export-ydpi="96">
  <sodipodi:namedview
     pagecolor="#ffffff"
     bordercolor="#666666"
     borderopacity="1"
     objecttolerance="10"
     gridtolerance="10"
     guidetolerance="10"
     inkscape:pageopacity="0"
     inkscape:pageshadow="2"
     inkscape:window-width="2560"
     inkscape:window-height="1353"
     id="namedview15087"
     showgrid="false"
     inkscape:zoom="0.70710678"
     inkscape:cx="-743.70447"
     inkscape:cy="-17.131997"
     inkscape:window-x="0"
     inkscape:window-y="24"
     inkscape:window-maximized="1"
     inkscape:current-layer="svg24280"
     fit-margin-top="0"
     fit-margin-left="0"
     fit-margin-right="0"
     fit-margin-bottom="0" />
  <defs
     id="defs24282">
    <inkscape:path-effect
       effect="spiro"
       id="path-effect18753"
       is_visible="true" />
    <inkscape:path-effect
       effect="spiro"
       id="path-effect18749"
       is_visible="true" />
    <inkscape:path-effect
       effect="spiro"
       id="path-effect18743"
       is_visible="true" />
    <inkscape:path-effect
       effect="bend_path"
       id="path-effect19497"
       is_visible="true"
       bendpath="m 2.3320562,88.525182 12.5826248,-1.25182 7.560615,1.4379"
       prop_scale="0.94624843"
       scale_y_rel="false"
       vertical="false"
       bendpath-nodetypes="ccc" />
    <clipPath
       clipPathUnits="userSpaceOnUse"
       id="clipPath16880">
      <circle
         r="19.187979"
         cy="24.775345"
         cx="24.499756"
         id="circle16882"
         style="color:#000000;clip-rule:nonzero;display:inline;overflow:visible;visibility:visible;opacity:1;isolation:auto;mix-blend-mode:normal;color-interpolation:sRGB;color-interpolation-filters:linearRGB;solid-color:#000000;solid-opacity:1;vector-effect:none;fill:#3f65ca;fill-opacity:1;fill-rule:evenodd;stroke:none;stroke-width:0.8991856;stroke-linecap:butt;stroke-linejoin:bevel;stroke-miterlimit:4;stroke-dasharray:none;stroke-dashoffset:0;stroke-opacity:1;marker:none;paint-order:normal;color-rendering:auto;image-rendering:auto;shape-rendering:auto;text-rendering:auto;enable-background:accumulate" />
    </clipPath>
    <clipPath
       clipPathUnits="userSpaceOnUse"
       id="clipPath16185">
      <circle
         style="color:#000000;clip-rule:nonzero;display:inline;overflow:visible;visibility:visible;opacity:1;isolation:auto;mix-blend-mode:normal;color-interpolation:sRGB;color-interpolation-filters:linearRGB;solid-color:#000000;solid-opacity:1;vector-effect:none;fill:#3f65ca;fill-opacity:1;fill-rule:evenodd;stroke:none;stroke-width:2.46614099;stroke-linecap:butt;stroke-linejoin:bevel;stroke-miterlimit:4;stroke-dasharray:none;stroke-dashoffset:0;stroke-opacity:1;marker:none;paint-order:normal;color-rendering:auto;image-rendering:auto;shape-rendering:auto;text-rendering:auto;enable-background:accumulate"
         id="circle16187"
         cx="-192.808"
         cy="179.43561"
         r="52.625687" />
    </clipPath>
    <clipPath
       clipPathUnits="userSpaceOnUse"
       id="clipPath27801-6-2">
      <rect
         style="color:#000000;clip-rule:nonzero;display:inline;overflow:visible;visibility:visible;opacity:1;isolation:auto;mix-blend-mode:normal;color-interpolation:sRGB;color-interpolation-filters:linearRGB;solid-color:#000000;solid-opacity:1;fill:#ff5555;fill-opacity:1;fill-rule:nonzero;stroke:none;stroke-width:0.1;stroke-linecap:round;stroke-linejoin:round;stroke-miterlimit:4;stroke-dasharray:none;stroke-dashoffset:0;stroke-opacity:1;color-rendering:auto;image-rendering:auto;shape-rendering:auto;text-rendering:auto;enable-background:accumulate"
         id="rect27803-0-3"
         width="27.210461"
         height="21.991693"
         x="-235.04272"
         y="1030.5667" />
    </clipPath>
    <clipPath
       clipPathUnits="userSpaceOnUse"
       id="clipPath27801-7">
      <rect
         style="color:#000000;clip-rule:nonzero;display:inline;overflow:visible;visibility:visible;opacity:1;isolation:auto;mix-blend-mode:normal;color-interpolation:sRGB;color-interpolation-filters:linearRGB;solid-color:#000000;solid-opacity:1;fill:#ff5555;fill-opacity:1;fill-rule:nonzero;stroke:none;stroke-width:0.1;stroke-linecap:round;stroke-linejoin:round;stroke-miterlimit:4;stroke-dasharray:none;stroke-dashoffset:0;stroke-opacity:1;color-rendering:auto;image-rendering:auto;shape-rendering:auto;text-rendering:auto;enable-background:accumulate"
         id="rect27803-5"
         width="27.210461"
         height="21.991693"
         x="-235.04272"
         y="1030.5667" />
    </clipPath>
    <clipPath
       clipPathUnits="userSpaceOnUse"
       id="clipPath27797-1">
      <rect
         style="color:#000000;clip-rule:nonzero;display:inline;overflow:visible;visibility:visible;opacity:1;isolation:auto;mix-blend-mode:normal;color-interpolation:sRGB;color-interpolation-filters:linearRGB;solid-color:#000000;solid-opacity:1;fill:#ff5555;fill-opacity:1;fill-rule:nonzero;stroke:none;stroke-width:0.1;stroke-linecap:round;stroke-linejoin:round;stroke-miterlimit:4;stroke-dasharray:none;stroke-dashoffset:0;stroke-opacity:1;color-rendering:auto;image-rendering:auto;shape-rendering:auto;text-rendering:auto;enable-background:accumulate"
         id="rect27799-3"
         width="87.314026"
         height="88.808838"
         x="-386.56873"
         y="955.32452"
         transform="matrix(0.99966259,0.02597517,-0.0019307,0.99999814,0,0)" />
    </clipPath>
    <clipPath
       id="clipPath27801-6-2-9"
       clipPathUnits="userSpaceOnUse">
      <rect
         y="1030.5667"
         x="-235.04272"
         height="21.991693"
         width="27.210461"
         id="rect27803-0-3-5"
         style="color:#000000;clip-rule:nonzero;display:inline;overflow:visible;visibility:visible;opacity:1;isolation:auto;mix-blend-mode:normal;color-interpolation:sRGB;color-interpolation-filters:linearRGB;solid-color:#000000;solid-opacity:1;fill:#ff5555;fill-opacity:1;fill-rule:nonzero;stroke:none;stroke-width:0.1;stroke-linecap:round;stroke-linejoin:round;stroke-miterlimit:4;stroke-dasharray:none;stroke-dashoffset:0;stroke-opacity:1;color-rendering:auto;image-rendering:auto;shape-rendering:auto;text-rendering:auto;enable-background:accumulate" />
    </clipPath>
    <clipPath
       id="clipPath27801-7-7"
       clipPathUnits="userSpaceOnUse">
      <rect
         y="1030.5667"
         x="-235.04272"
         height="21.991693"
         width="27.210461"
         id="rect27803-5-4"
         style="color:#000000;clip-rule:nonzero;display:inline;overflow:visible;visibility:visible;opacity:1;isolation:auto;mix-blend-mode:normal;color-interpolation:sRGB;color-interpolation-filters:linearRGB;solid-color:#000000;solid-opacity:1;fill:#ff5555;fill-opacity:1;fill-rule:nonzero;stroke:none;stroke-width:0.1;stroke-linecap:round;stroke-linejoin:round;stroke-miterlimit:4;stroke-dasharray:none;stroke-dashoffset:0;stroke-opacity:1;color-rendering:auto;image-rendering:auto;shape-rendering:auto;text-rendering:auto;enable-background:accumulate" />
    </clipPath>
    <clipPath
       id="clipPath27797-1-6"
       clipPathUnits="userSpaceOnUse">
      <rect
         transform="matrix(0.99966259,0.02597517,-0.0019307,0.99999814,0,0)"
         y="955.32452"
         x="-386.56873"
         height="88.808838"
         width="87.314026"
         id="rect27799-3-4"
         style="color:#000000;clip-rule:nonzero;display:inline;overflow:visible;visibility:visible;opacity:1;isolation:auto;mix-blend-mode:normal;color-interpolation:sRGB;color-interpolation-filters:linearRGB;solid-color:#000000;solid-opacity:1;fill:#ff5555;fill-opacity:1;fill-rule:nonzero;stroke:none;stroke-width:0.1;stroke-linecap:round;stroke-linejoin:round;stroke-miterlimit:4;stroke-dasharray:none;stroke-dashoffset:0;stroke-opacity:1;color-rendering:auto;image-rendering:auto;shape-rendering:auto;text-rendering:auto;enable-background:accumulate" />
    </clipPath>
    <clipPath
       id="clipPath27801-6"
       clipPathUnits="userSpaceOnUse">
      <rect
         y="1030.5667"
         x="-235.04272"
         height="21.991693"
         width="27.210461"
         id="rect27803-0"
         style="color:#000000;clip-rule:nonzero;display:inline;overflow:visible;visibility:visible;opacity:1;isolation:auto;mix-blend-mode:normal;color-interpolation:sRGB;color-interpolation-filters:linearRGB;solid-color:#000000;solid-opacity:1;fill:#ff5555;fill-opacity:1;fill-rule:nonzero;stroke:none;stroke-width:0.1;stroke-linecap:round;stroke-linejoin:round;stroke-miterlimit:4;stroke-dasharray:none;stroke-dashoffset:0;stroke-opacity:1;color-rendering:auto;image-rendering:auto;shape-rendering:auto;text-rendering:auto;enable-background:accumulate" />
    </clipPath>
    <clipPath
       id="clipPath27801"
       clipPathUnits="userSpaceOnUse">
      <rect
         y="1030.5667"
         x="-235.04272"
         height="21.991693"
         width="27.210461"
         id="rect27803"
         style="color:#000000;clip-rule:nonzero;display:inline;overflow:visible;visibility:visible;opacity:1;isolation:auto;mix-blend-mode:normal;color-interpolation:sRGB;color-interpolation-filters:linearRGB;solid-color:#000000;solid-opacity:1;fill:#ff5555;fill-opacity:1;fill-rule:nonzero;stroke:none;stroke-width:0.1;stroke-linecap:round;stroke-linejoin:round;stroke-miterlimit:4;stroke-dasharray:none;stroke-dashoffset:0;stroke-opacity:1;color-rendering:auto;image-rendering:auto;shape-rendering:auto;text-rendering:auto;enable-background:accumulate" />
    </clipPath>
    <clipPath
       id="clipPath27797"
       clipPathUnits="userSpaceOnUse">
      <rect
         transform="matrix(0.99966259,0.02597517,-0.0019307,0.99999814,0,0)"
         y="955.32452"
         x="-386.56873"
         height="88.808838"
         width="87.314026"
         id="rect27799"
         style="color:#000000;clip-rule:nonzero;display:inline;overflow:visible;visibility:visible;opacity:1;isolation:auto;mix-blend-mode:normal;color-interpolation:sRGB;color-interpolation-filters:linearRGB;solid-color:#000000;solid-opacity:1;fill:#ff5555;fill-opacity:1;fill-rule:nonzero;stroke:none;stroke-width:0.1;stroke-linecap:round;stroke-linejoin:round;stroke-miterlimit:4;stroke-dasharray:none;stroke-dashoffset:0;stroke-opacity:1;color-rendering:auto;image-rendering:auto;shape-rendering:auto;text-rendering:auto;enable-background:accumulate" />
    </clipPath>
    <clipPath
       id="clipPath31559-3"
       clipPathUnits="userSpaceOnUse">
      <path
         inkscape:connector-curvature="0"
         id="path31561-8"
         d="m -621.15625,629.56075 0,-38.17113 37.5,0 0,38.17113"
         style="display:inline;fill:#d50025;fill-opacity:1;fill-rule:evenodd;stroke:none;stroke-width:1.24999988px;stroke-linecap:butt;stroke-linejoin:miter;stroke-opacity:1" />
    </clipPath>
    <clipPath
       id="clipPath31559"
       clipPathUnits="userSpaceOnUse">
      <path
         inkscape:connector-curvature="0"
         id="path31561"
         d="m -621.15625,629.56075 0,-38.17113 37.5,0 0,38.17113"
         style="display:inline;fill:#d50025;fill-opacity:1;fill-rule:evenodd;stroke:none;stroke-width:1.24999988px;stroke-linecap:butt;stroke-linejoin:miter;stroke-opacity:1" />
    </clipPath>
    <clipPath
       id="clipPath31559-31"
       clipPathUnits="userSpaceOnUse">
      <path
         inkscape:connector-curvature="0"
         id="path31561-7"
         d="m -621.15625,629.56075 0,-38.17113 37.5,0 0,38.17113"
         style="display:inline;fill:#d50025;fill-opacity:1;fill-rule:evenodd;stroke:none;stroke-width:1.24999988px;stroke-linecap:butt;stroke-linejoin:miter;stroke-opacity:1" />
    </clipPath>
    <clipPath
       id="clipPath31862-2-8-3"
       clipPathUnits="userSpaceOnUse">
      <path
         inkscape:connector-curvature="0"
         id="path31864-8-3-5"
         d="m -579.46875,629.17466 0,-37.625 37.4375,0 0,37.625"
         style="display:inline;fill:#ffff00;fill-opacity:1;fill-rule:evenodd;stroke:none;stroke-width:1.24999988px;stroke-linecap:butt;stroke-linejoin:miter;stroke-opacity:1" />
    </clipPath>
    <inkscape:path-effect
       effect="spiro"
       id="path-effect18753-5"
       is_visible="true" />
    <inkscape:path-effect
       effect="spiro"
       id="path-effect18749-2"
       is_visible="true" />
    <inkscape:path-effect
       effect="spiro"
       id="path-effect18743-2"
       is_visible="true" />
    <inkscape:path-effect
       effect="spiro"
       id="path-effect18743-3"
       is_visible="true" />
    <inkscape:path-effect
       effect="spiro"
       id="path-effect18749-5"
       is_visible="true" />
    <inkscape:path-effect
       effect="spiro"
       id="path-effect18753-54"
       is_visible="true" />
    <inkscape:path-effect
       effect="spiro"
       id="path-effect18743-2-2"
       is_visible="true" />
    <inkscape:path-effect
       effect="spiro"
       id="path-effect18749-2-5"
       is_visible="true" />
    <inkscape:path-effect
       effect="spiro"
       id="path-effect18753-5-9"
       is_visible="true" />
  </defs>
  <metadata
     id="metadata24285">
    <rdf:RDF>
      <cc:Work
         rdf:about="">
        <dc:format>image/svg+xml</dc:format>
        <dc:type
           rdf:resource="http://purl.org/dc/dcmitype/StillImage" />
        <dc:title />
      </cc:Work>
    </rdf:RDF>
  </metadata>
  <circle
     style="color:#000000;clip-rule:nonzero;display:inline;overflow:visible;visibility:visible;opacity:1;isolation:auto;mix-blend-mode:normal;color-interpolation:sRGB;color-interpolation-filters:linearRGB;solid-color:#000000;solid-opacity:1;vector-effect:none;fill:#0066cc;fill-opacity:1;fill-rule:evenodd;stroke:none;stroke-width:1.67861009;stroke-linecap:round;stroke-linejoin:round;stroke-miterlimit:4;stroke-dasharray:none;stroke-dashoffset:0;stroke-opacity:1;marker:none;paint-order:stroke fill markers;color-rendering:auto;image-rendering:auto;shape-rendering:auto;text-rendering:auto;enable-background:accumulate"
     id="path849"
     cx="20"
     cy="20"
     r="19.5" />
  <path
     transform="matrix(0.79572314,0,0,0.7848086,499.20217,-461.81401)"
     style="fill:#ffffff;fill-opacity:1;stroke-width:0.33473551;stroke-miterlimit:4;stroke-dasharray:none"
     d="m -602.56212,610.11261 c -0.14053,-0.0473 -0.37887,-0.20893 -0.52964,-0.35972 -0.41651,-0.41648 -0.45133,-0.69286 -0.42309,-3.35849 l 0.0242,-2.29388 0.19623,-0.33374 c 0.5275,-0.89724 1.78593,-0.9387 2.39357,-0.0791 l 0.22199,0.31413 0.0211,2.52801 c 0.0209,2.50728 0.0197,2.53085 -0.14798,2.86012 -0.31823,0.62482 -1.09458,0.9442 -1.75645,0.72245 z m -8.69357,-2.16047 c -0.42003,-0.15439 -0.64127,-0.34173 -0.83383,-0.70584 -0.19119,-0.36153 -0.21698,-0.77992 -0.0697,-1.1318 0.15633,-0.37366 2.26679,-3.99149 2.44309,-4.18804 0.22026,-0.24558 0.6947,-0.44943 1.046,-0.44943 0.87771,0 1.57857,0.8414 1.38982,1.66862 -0.079,0.34631 -2.25698,4.16628 -2.53519,4.44652 -0.39427,0.39723 -0.95667,0.53777 -1.44015,0.35997 z m 16.86644,-0.36772 c -0.36606,-0.16343 -0.55515,-0.43497 -1.77701,-2.55218 -1.13066,-1.95911 -1.17042,-2.04211 -1.17005,-2.44182 0,-0.23103 0.0515,-0.5117 0.1163,-0.63574 0.44799,-0.85794 1.65283,-1.04794 2.29605,-0.36205 0.18363,0.19586 1.97313,3.21916 2.39174,4.04087 0.49391,0.96939 -0.15659,2.06043 -1.22406,2.05286 -0.22605,0 -0.51088,-0.0473 -0.63297,-0.10194 z m -23.45684,-6.24872 c -0.83824,-0.38079 -1.12662,-1.45591 -0.57476,-2.14283 0.1279,-0.15912 0.55331,-0.46724 1.0259,-0.74301 3.55295,-2.07281 3.61411,-2.10093 4.21402,-1.93295 0.93376,0.26148 1.33923,1.34478 0.80806,2.15892 -0.18586,0.28496 -0.31845,0.37012 -2.88388,1.85288 -1.76748,1.02152 -1.97485,1.0862 -2.58934,0.80699 z m 14.54052,0.0593 c -2.3581,-0.21908 -4.50073,-1.22986 -6.17852,-2.91456 -1.41485,-1.42074 -2.31142,-3.07981 -2.7501,-5.08889 -0.0979,-0.44823 -0.14504,-1.26081 -0.14094,-2.05323 4.09234,-3.91089 19.63193,-2.04575 19.92446,-0.2465 0.0694,1.00473 -0.0233,2.06493 -0.30871,3.16781 -0.3824,1.33161 -1.2738,2.8916 -2.30011,4.02538 -0.79121,0.874 -2.1888,1.84548 -3.39082,2.35709 -0.81531,0.34708 -2.10663,0.66603 -3.06339,0.75678 -0.86206,0.0817 -0.87052,0.0817 -1.79122,0 z m 15.34056,-0.0293 c -0.25245,-0.10984 -3.57783,-2.0077 -4.03646,-2.30368 -0.36106,-0.23311 -0.59606,-0.69751 -0.59606,-1.17791 0,-0.90798 0.87405,-1.59655 1.73294,-1.36525 0.34451,0.0927 4.08219,2.2273 4.38335,2.50332 0.469,0.42975 0.56529,1.23038 0.21329,1.77324 -0.36133,0.55729 -1.13176,0.81611 -1.69706,0.57028 z"
     id="path16653-7"
     inkscape:connector-curvature="0"
     clip-path="none"
     sodipodi:nodetypes="cccccccccccccccsccccccccccccccccccccccccccccccccscccc" />
  <path
     style="display:inline;fill:#ffe680;fill-opacity:1;stroke-width:0.79024702;stroke-miterlimit:4;stroke-dasharray:none"
     d="m 21.337662,34.630682 c -0.0048,-0.09653 -0.13436,-0.62258 -0.241654,-0.987453 -0.148357,-0.5046 -0.519416,-1.469672 -0.727688,-1.892661 -0.664248,-1.348968 -1.378648,-2.267962 -2.855253,-3.672858 -0.51614,-0.491078 -1.463703,-1.293027 -1.873675,-1.585759 -0.07432,-0.05306 -0.198446,-0.143448 -0.275829,-0.200841 -0.247112,-0.183291 -0.900672,-0.600331 -1.253934,-0.800175 -0.588556,-0.332938 -1.446975,-0.696972 -1.946641,-0.825525 -0.08559,-0.02198 -0.157353,-0.04441 -0.159422,-0.04991 -0.01097,-0.02856 0.420404,0.05965 0.750359,0.153447 0.864552,0.245816 1.876305,0.70292 2.811098,1.269985 0.337021,0.204418 0.338899,0.20565 0.803672,0.518419 0.481572,0.324071 0.516829,0.349713 1.129769,0.82182 0.491414,0.378491 1.018175,0.81697 1.374206,1.143914 0.08989,0.08252 0.16964,0.137618 0.177168,0.122391 0.02451,-0.0496 -0.04018,-0.634415 -0.112119,-1.013689 -0.187186,-0.986765 -0.560149,-1.856655 -1.185762,-2.765673 -0.420253,-0.610582 -0.80789,-1.023243 -1.51045,-1.607941 -0.827303,-0.688496 -2.103851,-1.330885 -3.215023,-1.617889 -0.611958,-0.158085 -0.680694,-0.170609 -1.272641,-0.231614 -0.63015,-0.06506 -0.994806,-0.07188 -1.474451,-0.02762 -0.9564515,0.08816 -1.4837137,0.296459 -2.2718466,0.544995 -0.5720054,0.180396 -1.4565934,0.464027 -2.1275241,0.91227 -0.2526268,0.168764 -0.2211622,0.207275 -0.1722985,0.268514 0.1046454,0.13111 0.8322804,0.511585 1.5132663,1.09713 2.1255611,1.827742 1.9263122,2.116269 2.8146159,2.802396 0.663761,0.512675 1.56592,1.01686 2.498461,1.396284 0.368746,0.150048 0.476996,0.188706 0.940999,0.336172 0.391375,0.124377 1.458862,0.371966 1.517991,0.352089 0.01044,-0.0039 0.07217,0.007 0.137606,0.02212 0.407848,0.09776 1.68258,0.196708 2.425937,0.188309 l 0.305812,-0.0039 0.157289,0.158045 c 0.854138,0.858211 1.669105,2.152541 2.164607,3.437869 0.181927,0.471906 0.49591,1.519733 0.549256,1.832976 0.0016,0.01272 0.131383,0.0088 0.287113,-0.008 0.345368,-0.03814 0.32031,-0.03116 0.316986,-0.08825 z"
     id="path27065-6-3"
     inkscape:connector-curvature="0"
     sodipodi:nodetypes="ssssssscsssssscsssssssscssssssscsscss"
     inkscape:transform-center-x="-7.2988541"
     inkscape:transform-center-y="-3.0959202" />
  <path
     style="display:inline;fill:#ffe680;fill-opacity:1;stroke-width:0.79024702;stroke-miterlimit:4;stroke-dasharray:none"
     d="m 18.515668,34.630629 c 0.0048,-0.09653 0.134357,-0.622582 0.241653,-0.987455 0.148354,-0.504602 0.519416,-1.469673 0.727689,-1.892659 0.664247,-1.348972 1.378644,-2.267965 2.855254,-3.672851 0.516137,-0.491078 1.463702,-1.293035 1.873673,-1.585768 0.07432,-0.05306 0.198445,-0.143446 0.27583,-0.200842 0.247112,-0.183291 0.900671,-0.600322 1.253931,-0.800167 0.588555,-0.332946 1.446976,-0.696981 1.946642,-0.825524 0.08559,-0.02198 0.157355,-0.04441 0.159423,-0.04991 0.01097,-0.02856 -0.420397,0.05965 -0.750359,0.153445 -0.864552,0.245828 -1.876308,0.70293 -2.811099,1.269985 -0.33702,0.204434 -0.338898,0.205653 -0.803673,0.518423 -0.481571,0.324071 -0.516829,0.349709 -1.129766,0.821826 -0.491416,0.378484 -1.018177,0.816964 -1.374206,1.143907 -0.08989,0.08252 -0.169641,0.137625 -0.177169,0.12239 -0.02451,-0.0496 0.04018,-0.634407 0.112117,-1.013689 0.187186,-0.986758 0.560149,-1.856654 1.185771,-2.765674 0.420246,-0.610581 0.80788,-1.023241 1.510443,-1.607938 0.827305,-0.68849 2.103851,-1.33089 3.215023,-1.617894 0.611959,-0.158074 0.680694,-0.170601 1.27264,-0.231609 0.63015,-0.06506 0.994807,-0.07188 1.47445,-0.02754 0.95646,0.08815 1.483715,0.296454 2.271845,0.544989 0.572008,0.180402 1.456596,0.464024 2.127526,0.91226 0.252626,0.168773 0.221164,0.207283 0.172299,0.268523 -0.104647,0.13111 -0.832279,0.511585 -1.513268,1.09713 -2.125558,1.827741 -1.92631,2.116267 -2.814616,2.802394 -0.663759,0.512676 -1.565919,1.016863 -2.498459,1.396277 -0.368746,0.150056 -0.476995,0.188709 -0.940997,0.336181 -0.391378,0.124376 -1.458863,0.371967 -1.517994,0.352089 -0.01041,-0.0039 -0.07217,0.007 -0.137604,0.02212 -0.407847,0.09776 -1.682581,0.196705 -2.425939,0.188307 l -0.305811,-0.0039 -0.157292,0.158044 c -0.854136,0.858213 -1.6691,2.15254 -2.164604,3.43786 -0.181919,0.471908 -0.495911,1.519743 -0.549256,1.832984 -0.0016,0.01273 -0.131381,0.0088 -0.287113,-0.008 -0.345367,-0.03814 -0.32031,-0.03116 -0.316984,-0.08826 z"
     id="path27065-6-8-5"
     inkscape:connector-curvature="0"
     sodipodi:nodetypes="ssssssscsssssscsssssssscssssssscsscss"
     inkscape:transform-center-x="7.2988575"
     inkscape:transform-center-y="-3.0958708" />
  <g
     id="g19832"
     transform="translate(0.17061555)"
     style="fill:#ffd92e;fill-opacity:1">
    <path
       inkscape:transform-center-y="-4.7459401"
       inkscape:transform-center-x="-10.263054"
       sodipodi:nodetypes="ssssssscsssssscsssssssscssssssscsscss"
       inkscape:connector-curvature="0"
       id="path27065-6-8-5-0"
       d="m 17.69433,37.551177 c 0.04539,-0.09745 0.399494,-0.585052 0.663039,-0.915956 0.36444,-0.457639 1.151411,-1.29627 1.543354,-1.644697 1.250002,-1.111186 2.37136,-1.758368 4.481721,-2.586498 0.737664,-0.289476 2.050157,-0.718311 2.595272,-0.84797 0.09881,-0.0235 0.264594,-0.06456 0.368386,-0.09124 0.331442,-0.0852 1.179628,-0.24077 1.627367,-0.298516 0.745958,-0.0962 1.782974,-0.111261 2.351641,-0.03415 0.09739,0.01324 0.180733,0.02023 0.18517,0.01544 0.02328,-0.02482 -0.458116,-0.114833 -0.83738,-0.156575 -0.993763,-0.109289 -2.227775,-0.06265 -3.428603,0.129541 -0.432931,0.06929 -0.435377,0.06975 -1.045354,0.197072 -0.632021,0.131919 -0.679096,0.143546 -1.508532,0.372898 -0.664981,0.183848 -1.391533,0.414683 -1.895423,0.602206 -0.127206,0.04732 -0.232478,0.07064 -0.233844,0.05179 -0.0044,-0.06137 0.307427,-0.636728 0.540589,-0.997304 0.606633,-0.938079 1.355653,-1.677861 2.381371,-2.351997 0.688988,-0.452803 1.261382,-0.71538 2.230364,-1.023129 1.141018,-0.362368 2.725524,-0.488866 3.990626,-0.318579 0.696737,0.09377 0.772802,0.109692 1.408218,0.295069 0.676474,0.197222 1.055008,0.343118 1.53055,0.589933 0.948396,0.491901 1.404232,0.927599 2.111955,1.514141 0.513642,0.425722 1.306024,1.088862 1.809262,1.831992 0.189485,0.27981 0.140924,0.30629 0.0649,0.34889 -0.162789,0.09119 -1.071957,0.178032 -2.019069,0.495701 -2.956238,0.991629 -2.871962,1.372427 -4.074833,1.70678 -0.898803,0.249823 -2.039652,0.390929 -3.159475,0.390752 -0.442814,-4.1e-5 -0.570543,-0.0056 -1.110407,-0.04826 -0.455361,-0.03599 -1.658927,-0.228558 -1.711509,-0.273834 -0.0091,-0.0084 -0.07728,-0.02308 -0.151026,-0.03496 -0.461166,-0.07031 -1.81591,-0.502932 -2.578209,-0.823306 l -0.313431,-0.132219 -0.228319,0.09686 c -1.239834,0.525969 -2.622192,1.517655 -3.67166,2.634027 -0.385308,0.40988 -1.148191,1.357706 -1.334505,1.658042 -0.007,0.01244 -0.139046,-0.04601 -0.292432,-0.128639 -0.339811,-0.18412 -0.316924,-0.166418 -0.289552,-0.223852 z"
       style="display:inline;fill:#ffd92e;fill-opacity:1;stroke-width:0.87898648;stroke-miterlimit:4;stroke-dasharray:none" />
    <path
       inkscape:transform-center-y="-4.7459401"
       inkscape:transform-center-x="10.263054"
       sodipodi:nodetypes="ssssssscsssssscsssssssscssssssscsscss"
       inkscape:connector-curvature="0"
       id="path27065-6-8-5-0-9"
       d="m 21.964439,37.551176 c -0.04539,-0.09745 -0.399494,-0.585052 -0.663039,-0.915956 -0.36444,-0.457639 -1.151411,-1.296269 -1.543354,-1.644697 -1.250002,-1.111186 -2.37136,-1.758368 -4.481721,-2.586498 -0.737664,-0.289476 -2.050157,-0.718311 -2.595272,-0.84797 -0.09881,-0.0235 -0.264594,-0.06456 -0.368386,-0.09124 -0.331442,-0.0852 -1.179628,-0.24077 -1.627367,-0.298516 -0.7459581,-0.0962 -1.7829741,-0.111261 -2.3516411,-0.03415 -0.09739,0.01324 -0.180733,0.02023 -0.18517,0.01544 -0.02328,-0.02482 0.458116,-0.114833 0.83738,-0.156575 0.993763,-0.109289 2.2277751,-0.06265 3.4286031,0.129541 0.432931,0.06929 0.435377,0.06975 1.045354,0.197072 0.632021,0.131919 0.679096,0.143546 1.508532,0.372898 0.664981,0.183848 1.391533,0.414684 1.895423,0.602206 0.127206,0.04732 0.232478,0.07064 0.233844,0.05179 0.0044,-0.06137 -0.307427,-0.636728 -0.540589,-0.997304 -0.606633,-0.938079 -1.355653,-1.677861 -2.381371,-2.351997 -0.688988,-0.452803 -1.261382,-0.71538 -2.230364,-1.023129 -1.141018,-0.362368 -2.7255241,-0.488866 -3.9906261,-0.318579 -0.696737,0.09377 -0.772802,0.109692 -1.408218,0.295069 -0.676474,0.197222 -1.055008,0.343118 -1.53055,0.589933 -0.9483959,0.491901 -1.4042319,0.927599 -2.1119549,1.514141 -0.5136421,0.425722 -1.3060241,1.088862 -1.8092621,1.831992 -0.18948499,0.27981 -0.14092399,0.30629 -0.0649,0.34889 0.162789,0.09119 1.071957,0.178032 2.0190691,0.495701 2.9562379,0.991629 2.8719619,1.372427 4.0748329,1.70678 0.898803,0.249823 2.039652,0.390929 3.1594751,0.390752 0.442814,-4.1e-5 0.570543,-0.0056 1.110407,-0.04826 0.455361,-0.03599 1.658927,-0.228558 1.711509,-0.273834 0.0091,-0.0084 0.07728,-0.02308 0.151026,-0.03496 0.461166,-0.07031 1.81591,-0.502932 2.578209,-0.823306 l 0.313431,-0.132219 0.228319,0.09686 c 1.239834,0.525969 2.622192,1.517655 3.67166,2.634027 0.385308,0.40988 1.148191,1.357706 1.334505,1.658042 0.007,0.01244 0.139046,-0.04601 0.292432,-0.12864 0.339811,-0.18412 0.316924,-0.166418 0.289552,-0.223852 z"
       style="display:inline;fill:#ffd92e;fill-opacity:1;stroke-width:0.87898648;stroke-miterlimit:4;stroke-dasharray:none" />
  </g>
</svg>
