<?xml version="1.0" encoding="UTF-8" standalone="no"?>
<!-- Created with Inkscape (http://www.inkscape.org/) -->

<svg
   xmlns:dc="http://purl.org/dc/elements/1.1/"
   xmlns:cc="http://creativecommons.org/ns#"
   xmlns:rdf="http://www.w3.org/1999/02/22-rdf-syntax-ns#"
   xmlns:svg="http://www.w3.org/2000/svg"
   xmlns="http://www.w3.org/2000/svg"
   xmlns:xlink="http://www.w3.org/1999/xlink"
   xmlns:sodipodi="http://sodipodi.sourceforge.net/DTD/sodipodi-0.dtd"
   xmlns:inkscape="http://www.inkscape.org/namespaces/inkscape"
   width="40"
   height="40"
   viewBox="0 0 40 40.000001"
   id="svg35919"
   version="1.1"
   inkscape:version="0.92.2 (unknown)"
   sodipodi:docname="lm_01_active.svg"
   inkscape:export-filename="/home/stefano/Pictures/mapplusbern/png/lm_01_active.png"
   inkscape:export-xdpi="96"
   inkscape:export-ydpi="96">
  <defs
     id="defs35921">
    <clipPath
       clipPathUnits="userSpaceOnUse"
       id="clipPath27801-6-2">
      <rect
         style="color:#000000;clip-rule:nonzero;display:inline;overflow:visible;visibility:visible;opacity:1;isolation:auto;mix-blend-mode:normal;color-interpolation:sRGB;color-interpolation-filters:linearRGB;solid-color:#000000;solid-opacity:1;fill:#ff5555;fill-opacity:1;fill-rule:nonzero;stroke:none;stroke-width:0.1;stroke-linecap:round;stroke-linejoin:round;stroke-miterlimit:4;stroke-dasharray:none;stroke-dashoffset:0;stroke-opacity:1;color-rendering:auto;image-rendering:auto;shape-rendering:auto;text-rendering:auto;enable-background:accumulate"
         id="rect27803-0-3"
         width="27.210461"
         height="21.991693"
         x="-235.04272"
         y="1030.5667" />
    </clipPath>
    <clipPath
       clipPathUnits="userSpaceOnUse"
       id="clipPath27801-7">
      <rect
         style="color:#000000;clip-rule:nonzero;display:inline;overflow:visible;visibility:visible;opacity:1;isolation:auto;mix-blend-mode:normal;color-interpolation:sRGB;color-interpolation-filters:linearRGB;solid-color:#000000;solid-opacity:1;fill:#ff5555;fill-opacity:1;fill-rule:nonzero;stroke:none;stroke-width:0.1;stroke-linecap:round;stroke-linejoin:round;stroke-miterlimit:4;stroke-dasharray:none;stroke-dashoffset:0;stroke-opacity:1;color-rendering:auto;image-rendering:auto;shape-rendering:auto;text-rendering:auto;enable-background:accumulate"
         id="rect27803-5"
         width="27.210461"
         height="21.991693"
         x="-235.04272"
         y="1030.5667" />
    </clipPath>
    <clipPath
       clipPathUnits="userSpaceOnUse"
       id="clipPath27797-1">
      <rect
         style="color:#000000;clip-rule:nonzero;display:inline;overflow:visible;visibility:visible;opacity:1;isolation:auto;mix-blend-mode:normal;color-interpolation:sRGB;color-interpolation-filters:linearRGB;solid-color:#000000;solid-opacity:1;fill:#ff5555;fill-opacity:1;fill-rule:nonzero;stroke:none;stroke-width:0.1;stroke-linecap:round;stroke-linejoin:round;stroke-miterlimit:4;stroke-dasharray:none;stroke-dashoffset:0;stroke-opacity:1;color-rendering:auto;image-rendering:auto;shape-rendering:auto;text-rendering:auto;enable-background:accumulate"
         id="rect27799-3"
         width="87.314026"
         height="88.808838"
         x="-386.56873"
         y="955.32452"
         transform="matrix(0.99966259,0.02597517,-0.0019307,0.99999814,0,0)" />
    </clipPath>
    <linearGradient
       id="linearGradient39294"
       inkscape:collect="always">
      <stop
         id="stop39296"
         offset="0"
         style="stop-color:#000000;stop-opacity:1" />
      <stop
         id="stop39298"
         offset="1"
         style="stop-color:#242424;stop-opacity:0" />
    </linearGradient>
    <clipPath
       clipPathUnits="userSpaceOnUse"
       id="clipPath27801-6">
      <rect
         style="color:#000000;clip-rule:nonzero;display:inline;overflow:visible;visibility:visible;opacity:1;isolation:auto;mix-blend-mode:normal;color-interpolation:sRGB;color-interpolation-filters:linearRGB;solid-color:#000000;solid-opacity:1;fill:#ff5555;fill-opacity:1;fill-rule:nonzero;stroke:none;stroke-width:0.1;stroke-linecap:round;stroke-linejoin:round;stroke-miterlimit:4;stroke-dasharray:none;stroke-dashoffset:0;stroke-opacity:1;color-rendering:auto;image-rendering:auto;shape-rendering:auto;text-rendering:auto;enable-background:accumulate"
         id="rect27803-0"
         width="27.210461"
         height="21.991693"
         x="-235.04272"
         y="1030.5667" />
    </clipPath>
    <clipPath
       clipPathUnits="userSpaceOnUse"
       id="clipPath27801">
      <rect
         style="color:#000000;clip-rule:nonzero;display:inline;overflow:visible;visibility:visible;opacity:1;isolation:auto;mix-blend-mode:normal;color-interpolation:sRGB;color-interpolation-filters:linearRGB;solid-color:#000000;solid-opacity:1;fill:#ff5555;fill-opacity:1;fill-rule:nonzero;stroke:none;stroke-width:0.1;stroke-linecap:round;stroke-linejoin:round;stroke-miterlimit:4;stroke-dasharray:none;stroke-dashoffset:0;stroke-opacity:1;color-rendering:auto;image-rendering:auto;shape-rendering:auto;text-rendering:auto;enable-background:accumulate"
         id="rect27803"
         width="27.210461"
         height="21.991693"
         x="-235.04272"
         y="1030.5667" />
    </clipPath>
    <clipPath
       clipPathUnits="userSpaceOnUse"
       id="clipPath27797">
      <rect
         style="color:#000000;clip-rule:nonzero;display:inline;overflow:visible;visibility:visible;opacity:1;isolation:auto;mix-blend-mode:normal;color-interpolation:sRGB;color-interpolation-filters:linearRGB;solid-color:#000000;solid-opacity:1;fill:#ff5555;fill-opacity:1;fill-rule:nonzero;stroke:none;stroke-width:0.1;stroke-linecap:round;stroke-linejoin:round;stroke-miterlimit:4;stroke-dasharray:none;stroke-dashoffset:0;stroke-opacity:1;color-rendering:auto;image-rendering:auto;shape-rendering:auto;text-rendering:auto;enable-background:accumulate"
         id="rect27799"
         width="87.314026"
         height="88.808838"
         x="-386.56873"
         y="955.32452"
         transform="matrix(0.99966259,0.02597517,-0.0019307,0.99999814,0,0)" />
    </clipPath>
    <linearGradient
       inkscape:collect="always"
       xlink:href="#linearGradient39294"
       id="linearGradient27921"
       gradientUnits="userSpaceOnUse"
       gradientTransform="matrix(-0.8126706,0,0,1.2164827,-311.60616,-663.41095)"
       x1="-544.68628"
       y1="623.82446"
       x2="-572.91199"
       y2="609.70654" />
  </defs>
  <sodipodi:namedview
     id="base"
     pagecolor="#ffffff"
     bordercolor="#666666"
     borderopacity="1.0"
     inkscape:pageopacity="0.0"
     inkscape:pageshadow="2"
     inkscape:zoom="7.919596"
     inkscape:cx="-47.103665"
     inkscape:cy="18.857619"
     inkscape:document-units="px"
     inkscape:current-layer="layer1"
     showgrid="false"
     units="px"
     inkscape:window-width="2560"
     inkscape:window-height="1353"
     inkscape:window-x="0"
     inkscape:window-y="24"
     inkscape:window-maximized="1" />
  <metadata
     id="metadata35924">
    <rdf:RDF>
      <cc:Work
         rdf:about="">
        <dc:format>image/svg+xml</dc:format>
        <dc:type
           rdf:resource="http://purl.org/dc/dcmitype/StillImage" />
        <dc:title />
      </cc:Work>
    </rdf:RDF>
  </metadata>
  <g
     inkscape:label="Layer 1"
     inkscape:groupmode="layer"
     id="layer1"
     transform="translate(0,-1012.3622)">
    <circle
       style="color:#000000;clip-rule:nonzero;display:inline;overflow:visible;visibility:visible;opacity:1;isolation:auto;mix-blend-mode:normal;color-interpolation:sRGB;color-interpolation-filters:linearRGB;solid-color:#000000;solid-opacity:1;vector-effect:none;fill:#0066cc;fill-opacity:1;fill-rule:evenodd;stroke:none;stroke-width:1.67861009;stroke-linecap:round;stroke-linejoin:round;stroke-miterlimit:4;stroke-dasharray:none;stroke-dashoffset:0;stroke-opacity:1;marker:none;paint-order:stroke fill markers;color-rendering:auto;image-rendering:auto;shape-rendering:auto;text-rendering:auto;enable-background:accumulate"
       id="path849"
       cx="20"
       cy="1032.3622"
       r="19.5" />
    <g
       transform="matrix(0.89909881,0,0,0.89084053,-101.99871,952.42076)"
       id="g35897">
      <path
         sodipodi:nodetypes="ccccc"
         inkscape:connector-curvature="0"
         id="rect27780-6"
         d="m -235.06708,1031.1592 27.26039,-0.5863 0.25571,20.4623 -25.35232,1.0504 z"
         clip-path="url(#clipPath27801-6)"
         style="color:#000000;clip-rule:nonzero;display:inline;overflow:visible;visibility:visible;opacity:1;isolation:auto;mix-blend-mode:normal;color-interpolation:sRGB;color-interpolation-filters:linearRGB;solid-color:#000000;solid-opacity:1;fill:#333333;fill-opacity:1;fill-rule:nonzero;stroke:none;stroke-width:0.1;stroke-linecap:round;stroke-linejoin:round;stroke-miterlimit:4;stroke-dasharray:none;stroke-dashoffset:0;stroke-opacity:1;color-rendering:auto;image-rendering:auto;shape-rendering:auto;text-rendering:auto;enable-background:accumulate"
         transform="matrix(1.1058124,-0.22774633,0.30762722,0.81866845,59.686285,-807.44311)" />
      <g
         style="display:inline"
         id="g28544"
         transform="matrix(1.2384071,-0.46876422,0.53726696,1.0805075,-442.49576,-1020.0739)">
        <rect
           transform="matrix(0.81912718,0,0,0.81912718,198.14352,182.63746)"
           clip-path="url(#clipPath27801)"
           y="1030.5729"
           x="-235.01715"
           height="21.991693"
           width="27.210461"
           id="rect27780"
           style="color:#000000;clip-rule:nonzero;display:inline;overflow:visible;visibility:visible;opacity:1;isolation:auto;mix-blend-mode:normal;color-interpolation:sRGB;color-interpolation-filters:linearRGB;solid-color:#000000;solid-opacity:1;fill:#cccccc;fill-opacity:1;fill-rule:nonzero;stroke:none;stroke-width:0.1;stroke-linecap:round;stroke-linejoin:round;stroke-miterlimit:4;stroke-dasharray:none;stroke-dashoffset:0;stroke-opacity:1;color-rendering:auto;image-rendering:auto;shape-rendering:auto;text-rendering:auto;enable-background:accumulate" />
        <g
           transform="matrix(0.25534537,-0.00527033,4.9299731e-4,0.20283031,104.29381,833.02448)"
           clip-path="url(#clipPath27797)"
           id="g24987"
           style="display:inline">
          <path
             style="fill:#666666;fill-opacity:1;fill-rule:evenodd;stroke:none;stroke-width:1px;stroke-linecap:butt;stroke-linejoin:miter;stroke-opacity:1"
             d="m -371.15394,993.80552 25.81075,-25.97201 37.90955,38.23219 -27.74656,25.0042 z"
             id="path24693"
             inkscape:connector-curvature="0"
             clip-path="none" />
          <path
             style="color:#000000;font-style:normal;font-variant:normal;font-weight:normal;font-stretch:normal;font-size:medium;line-height:normal;font-family:sans-serif;text-indent:0;text-align:start;text-decoration:none;text-decoration-line:none;text-decoration-style:solid;text-decoration-color:#000000;letter-spacing:normal;word-spacing:normal;text-transform:none;writing-mode:lr-tb;direction:ltr;baseline-shift:baseline;text-anchor:start;white-space:normal;clip-rule:nonzero;display:inline;overflow:visible;visibility:visible;opacity:1;isolation:auto;mix-blend-mode:normal;color-interpolation:sRGB;color-interpolation-filters:linearRGB;solid-color:#000000;solid-opacity:1;fill:#ffffff;fill-opacity:1;fill-rule:evenodd;stroke:none;stroke-width:3;stroke-linecap:butt;stroke-linejoin:miter;stroke-miterlimit:4;stroke-dasharray:none;stroke-dashoffset:0;stroke-opacity:1;color-rendering:auto;image-rendering:auto;shape-rendering:auto;text-rendering:auto;enable-background:accumulate"
             d="m -389.67421,974.4288 -2.73736,2.73736 62.74396,63.86894 2.73736,-2.7372 z"
             id="path24606"
             inkscape:connector-curvature="0"
             sodipodi:nodetypes="ccccc"
             clip-path="none" />
          <path
             style="color:#000000;font-style:normal;font-variant:normal;font-weight:normal;font-stretch:normal;font-size:medium;line-height:normal;font-family:sans-serif;text-indent:0;text-align:start;text-decoration:none;text-decoration-line:none;text-decoration-style:solid;text-decoration-color:#000000;letter-spacing:normal;word-spacing:normal;text-transform:none;writing-mode:lr-tb;direction:ltr;baseline-shift:baseline;text-anchor:start;white-space:normal;clip-rule:nonzero;display:inline;overflow:visible;visibility:visible;opacity:1;isolation:auto;mix-blend-mode:normal;color-interpolation:sRGB;color-interpolation-filters:linearRGB;solid-color:#000000;solid-opacity:1;fill:#ffffff;fill-opacity:1;fill-rule:evenodd;stroke:none;stroke-width:3;stroke-linecap:butt;stroke-linejoin:miter;stroke-miterlimit:4;stroke-dasharray:none;stroke-dashoffset:0;stroke-opacity:1;color-rendering:auto;image-rendering:auto;shape-rendering:auto;text-rendering:auto;enable-background:accumulate"
             d="m -366.31694,943.31581 -2.73736,2.73736 67.24396,67.18133 2.73736,-2.7372 z"
             id="path24606-9"
             inkscape:connector-curvature="0"
             clip-path="none"
             sodipodi:nodetypes="ccccc" />
          <path
             style="color:#000000;font-style:normal;font-variant:normal;font-weight:normal;font-stretch:normal;font-size:medium;line-height:normal;font-family:sans-serif;text-indent:0;text-align:start;text-decoration:none;text-decoration-line:none;text-decoration-style:solid;text-decoration-color:#000000;letter-spacing:normal;word-spacing:normal;text-transform:none;writing-mode:lr-tb;direction:ltr;baseline-shift:baseline;text-anchor:start;white-space:normal;clip-rule:nonzero;display:inline;overflow:visible;visibility:visible;opacity:1;isolation:auto;mix-blend-mode:normal;color-interpolation:sRGB;color-interpolation-filters:linearRGB;solid-color:#000000;solid-opacity:1;fill:#ffffff;fill-opacity:1;fill-rule:evenodd;stroke:none;stroke-width:3;stroke-linecap:butt;stroke-linejoin:miter;stroke-miterlimit:4;stroke-dasharray:none;stroke-dashoffset:0;stroke-opacity:1;color-rendering:auto;image-rendering:auto;shape-rendering:auto;text-rendering:auto;enable-background:accumulate"
             d="m -313.68973,930.26172 -59.58148,61.63325 2.7827,2.69198 59.5815,-61.63577 z"
             id="path24606-8"
             inkscape:connector-curvature="0" />
          <path
             style="color:#000000;font-style:normal;font-variant:normal;font-weight:normal;font-stretch:normal;font-size:medium;line-height:normal;font-family:sans-serif;text-indent:0;text-align:start;text-decoration:none;text-decoration-line:none;text-decoration-style:solid;text-decoration-color:#000000;letter-spacing:normal;word-spacing:normal;text-transform:none;writing-mode:lr-tb;direction:ltr;baseline-shift:baseline;text-anchor:start;white-space:normal;clip-rule:nonzero;display:inline;overflow:visible;visibility:visible;opacity:1;isolation:auto;mix-blend-mode:normal;color-interpolation:sRGB;color-interpolation-filters:linearRGB;solid-color:#000000;solid-opacity:1;fill:#ffffff;fill-opacity:1;fill-rule:evenodd;stroke:none;stroke-width:3;stroke-linecap:butt;stroke-linejoin:miter;stroke-miterlimit:4;stroke-dasharray:none;stroke-dashoffset:0;stroke-opacity:1;color-rendering:auto;image-rendering:auto;shape-rendering:auto;text-rendering:auto;enable-background:accumulate"
             d="m -359.22151,1007.2049 -26.61733,26.94 2.75248,2.7223 26.61734,-26.9399 z"
             id="path24606-8-9"
             inkscape:connector-curvature="0"
             clip-path="none" />
          <path
             style="color:#000000;font-style:normal;font-variant:normal;font-weight:normal;font-stretch:normal;font-size:medium;line-height:normal;font-family:sans-serif;text-indent:0;text-align:start;text-decoration:none;text-decoration-line:none;text-decoration-style:solid;text-decoration-color:#000000;letter-spacing:normal;word-spacing:normal;text-transform:none;writing-mode:lr-tb;direction:ltr;baseline-shift:baseline;text-anchor:start;white-space:normal;clip-rule:nonzero;display:inline;overflow:visible;visibility:visible;opacity:1;isolation:auto;mix-blend-mode:normal;color-interpolation:sRGB;color-interpolation-filters:linearRGB;solid-color:#000000;solid-opacity:1;fill:#ffffff;fill-opacity:1;fill-rule:evenodd;stroke:none;stroke-width:3;stroke-linecap:butt;stroke-linejoin:miter;stroke-miterlimit:4;stroke-dasharray:none;stroke-dashoffset:0;stroke-opacity:1;color-rendering:auto;image-rendering:auto;shape-rendering:auto;text-rendering:auto;enable-background:accumulate"
             d="m -309.62438,1004.3959 -26.61733,26.94 2.75248,2.7223 26.61734,-26.9399 z"
             id="path24606-8-9-5"
             inkscape:connector-curvature="0"
             clip-path="none" />
        </g>
      </g>
      <path
         inkscape:connector-curvature="0"
         id="path14290-1"
         d="m 134.08884,94.811578 c 1.95531,-0.66767 3.55776,-1.223676 3.56104,-1.235633 0.008,-0.02877 -3.70419,-2.684286 -3.77017,-2.697132 -0.0422,-0.0085 -3.38648,5.113053 -3.35567,5.138617 0.006,0.0056 1.6095,-0.538183 3.5648,-1.205852 z m 10.57913,-6.047255 c 3.39625,-2.346277 6.17829,-4.280207 6.1823,-4.297649 0.004,-0.01763 -0.11312,-0.118305 -0.26027,-0.224174 l -0.26758,-0.192404 -0.13906,0.08827 c -0.14187,0.08982 -12.02995,8.30749 -12.19672,8.430885 -0.0845,0.06261 -0.0712,0.08305 0.17059,0.263529 0.14419,0.107729 0.27873,0.196197 0.29897,0.196733 0.0203,0 2.81556,-1.918799 6.21181,-4.265077 z m -1.25212,-0.666147 c 3.32242,-2.289818 6.12005,-4.21774 6.21695,-4.284268 l 0.17622,-0.121125 -0.18678,-0.132547 c -0.10275,-0.0729 -0.30702,-0.233113 -0.45395,-0.356114 -0.14694,-0.123099 -0.42334,-0.32866 -0.61426,-0.456948 l -0.34713,-0.233283 -0.1668,0.105756 c -0.0918,0.05838 -2.73305,1.876582 -5.86955,4.040932 -3.13652,2.164363 -5.86865,4.048094 -6.0714,4.185985 l -0.36864,0.250796 0.2409,0.178135 c 0.13247,0.09814 0.26869,0.178741 0.30268,0.179389 0.0341,0 0.27748,0.182337 0.54103,0.403845 0.26358,0.221396 0.49739,0.402604 0.51961,0.402604 0.0221,0 2.7587,-1.873479 6.08112,-4.163283 z m -1.96263,-1.642002 c 3.40786,-2.348336 6.19885,-4.281603 6.20222,-4.296239 0.003,-0.01495 -0.12238,-0.119574 -0.27947,-0.233522 l -0.28559,-0.207013 -0.12812,0.08221 c -0.4327,0.277376 -12.30505,8.484749 -12.30824,8.508735 -0.004,0.03003 0.4921,0.387587 0.56326,0.405607 0.0219,0.0056 2.82806,-1.911326 6.23591,-4.259634 z m 11.44219,-3.371908 c 0.66569,-0.459021 1.31767,-0.908708 1.44885,-0.999347 0.66292,-0.457865 1.03005,-1.106682 0.96905,-1.712478 -0.045,-0.446866 -0.29612,-0.790007 -0.85119,-1.162915 -0.61987,-0.416508 -1.12427,-0.55234 -1.92201,-0.517511 -0.51646,0.02242 -0.92578,0.115767 -1.40047,0.319339 -0.28606,0.122676 -1.65789,1.032272 -3.13823,2.080859 l -0.14178,0.100538 1.87479,1.35212 c 1.03111,0.743686 1.89183,1.357082 1.91273,1.363033 0.0209,0.0056 0.5826,-0.364645 1.24826,-0.823596 z"
         style="display:inline;fill:url(#linearGradient27921);fill-opacity:1" />
      <path
         style="display:inline;fill:#666666;fill-opacity:1;fill-rule:evenodd;stroke:none;stroke-width:1px;stroke-linecap:butt;stroke-linejoin:miter;stroke-opacity:1"
         d="m 133.09098,88.144314 4.63228,4.009896 12.35276,-14.343689 -4.64805,-4.025745 z"
         id="path39308"
         inkscape:connector-curvature="0" />
      <path
         id="path14271-1"
         d="m 133.08243,88.140436 c 0.0723,0.01904 4.60904,3.955185 4.60773,3.997558 -5.4e-4,0.01777 -1.54743,0.841955 -3.43815,1.831728 -0.44339,0.23207 -0.41799,0.215233 -0.8086,0.419595 l -1.78726,-1.579959 c 0.65696,-2.219526 1.39785,-4.679342 1.42628,-4.668922 z m -1.67976,5.545241 1.25621,1.108726 c -0.71081,0.370271 -1.85262,0.970991 -1.85625,0.961867 -0.01,-0.0099 0.36219,-1.254781 0.60004,-2.070593 z"
         style="fill:#ffffff"
         inkscape:connector-curvature="0" />
      <path
         id="path14269-9"
         d="m 143.89339,85.006069 c 2.99721,-3.477748 5.4495,-6.344174 5.4495,-6.370105 0,-0.02538 -0.14731,-0.175244 -0.32736,-0.332185 l -0.32734,-0.285244 -0.12461,0.130432 c -0.12714,0.133957 -10.61738,12.313649 -10.76257,12.496521 -0.0736,0.09321 -0.0547,0.123663 0.24273,0.390647 0.17736,0.15931 0.33996,0.290658 0.36133,0.291504 0.0213,0 2.49113,-2.844061 5.48835,-6.32181 z"
         style="fill:#ffffff;fill-opacity:1"
         inkscape:connector-curvature="0" />
      <path
         id="path14267-3"
         d="m 142.41824,84.018679 c 2.93339,-3.394032 5.40349,-6.251644 5.48911,-6.350293 l 0.1557,-0.179305 -0.22807,-0.196423 c -0.12546,-0.108435 -0.37857,-0.345581 -0.56251,-0.527776 -0.18394,-0.182351 -0.52375,-0.487251 -0.75514,-0.677414 l -0.4207,-0.345736 -0.1495,0.155926 c -0.0823,0.08644 -2.41472,2.781525 -5.18332,5.989625 -2.76861,3.207931 -5.18065,6.000144 -5.36009,6.204534 l -0.32626,0.371667 0.29587,0.264051 c 0.16273,0.145759 0.3252,0.265065 0.36104,0.265925 0.0359,0 0.33527,0.270311 0.66543,0.598605 0.33015,0.32811 0.61935,0.596743 0.64265,0.596743 0.0233,0 2.44241,-2.776956 5.3758,-6.170975 z"
         style="fill:#ffffff;fill-opacity:1"
         inkscape:connector-curvature="0" />
      <path
         id="path14265-3"
         d="m 139.96152,81.584935 c 3.00892,-3.480808 5.47075,-6.346387 5.47075,-6.368088 0,-0.022 -0.1574,-0.177275 -0.34977,-0.346075 l -0.34977,-0.30693 -0.11452,0.121971 c -0.38707,0.411149 -10.86324,12.576331 -10.86077,12.611921 0.003,0.04399 0.61013,0.574549 0.68918,0.601157 0.0244,0.01692 2.50604,-2.83288 5.51496,-6.313674 z"
         style="fill:#ffffff;fill-opacity:1"
         inkscape:connector-curvature="0" />
      <path
         id="path14290-7-10"
         d="m 151.15511,76.58693 c 0.58768,-0.68029 1.16324,-1.346859 1.27898,-1.481268 0.58509,-0.678597 0.81355,-1.640394 0.60308,-2.538315 -0.15523,-0.662325 -0.50175,-1.170939 -1.17444,-1.723617 -0.75125,-0.617415 -1.31345,-0.818759 -2.14227,-0.767066 -0.53661,0.03384 -0.9436,0.171677 -1.39262,0.473348 -0.27057,0.181688 -1.49045,1.529915 -2.79059,3.084225 l -0.12448,0.149143 2.29445,2.004109 c 1.26196,1.102311 2.31357,2.011569 2.33693,2.020381 0.0233,0.01692 0.5233,-0.540467 1.11099,-1.22077 z"
         style="fill:#b3b3b3"
         inkscape:connector-curvature="0" />
      <path
         style="fill:#ffffff;fill-rule:evenodd;stroke:none;stroke-width:0.59850949px;stroke-linecap:butt;stroke-linejoin:miter;stroke-opacity:1"
         d="m 145.41223,73.784734 4.64803,4.073307 1.38654,-1.616677 -4.69532,-4.025689 z"
         id="path39310"
         inkscape:connector-curvature="0" />
    </g>
  </g>
</svg>
