<?xml version="1.0" encoding="UTF-8"?>
<!-- Created with Inkscape (http://www.inkscape.org/) -->
<svg width="40" height="40" version="1.1" viewBox="0 0 10.583 10.583" xml:space="preserve" xmlns="http://www.w3.org/2000/svg"><circle cx="5.2915" cy="5.2915" r="5.1867" fill="#e6e6e6"/><g transform="matrix(.99487 0 0 .99487 -79.921 -300.94)"><g transform="matrix(.96069 0 0 .96069 63.993 66.653)"><g transform="matrix(1.1117,0,0,1.1117,-19.378,230.44)"><g transform="translate(-15.351 .81053)" fill-rule="evenodd" stroke="#000"><g stroke-width=".13229"><rect x="51.83" y="14.574" width="2.2171" height="7.8673" color="#000000" color-rendering="auto" fill="#c5c5c5" image-rendering="auto" shape-rendering="auto" solid-color="#000000" stroke-linejoin="bevel" stroke-opacity=".96707" style="isolation:auto;mix-blend-mode:normal;paint-order:normal"/><rect x="50.641" y="17.359" width="2.2171" height="5.0821" color="#000000" color-rendering="auto" fill="#f2f2f2" image-rendering="auto" shape-rendering="auto" solid-color="#000000" stroke-linejoin="bevel" stroke-opacity=".96707" style="isolation:auto;mix-blend-mode:normal;paint-order:normal"/><path d="m52.933 14.54v-1.6435" fill="#999"/></g><g fill="#666" stroke-opacity=".96707"><g transform="matrix(.10013 0 0 .098119 34.112 -3.4422)" stroke-width="1.3347"><g shape-rendering="auto" stroke-linejoin="bevel"><rect x="205.35" y="237.57" width="25.809" height="26.226" color="#000000" color-rendering="auto" fill="#d7d7d7" image-rendering="auto" solid-color="#000000" style="isolation:auto;mix-blend-mode:normal;paint-order:normal"/><rect x="231.16" y="254.96" width="3.7123" height="8.8388" color="#000000" color-rendering="auto" fill="#999" image-rendering="auto" solid-color="#000000" style="isolation:auto;mix-blend-mode:normal;paint-order:normal"/><rect x="196.11" y="245.59" width="17.854" height="18.208" color="#000000" color-rendering="auto" fill="#f2f2f2" image-rendering="auto" solid-color="#000000" style="isolation:auto;mix-blend-mode:normal;paint-order:normal"/></g><path d="m199.53 238.12h36.5l-12.625-12.625z" fill="#adadad"/></g><g transform="matrix(.079042 0 0 .079042 28.318 1.5482)" stroke-width="1.6737"><path d="m259.72 232.4-6.8781 25.669h13.731z" fill="#e6e6e6"/><g fill="#666"><path d="m259.88 249.69v14.64"/><path d="m259.72 257.94-4.9839-6.8529"/><path d="m259.96 253.88 4.1234-4.3437"/></g><path d="m272.36 223.27-9.326 34.805h18.618z" fill="#e6e6e6"/><g fill="#666"><path d="m272.57 239.02v25.302"/><path d="m272.69 251.15-5.8767-7.5298"/><path d="m272.32 245.53 5.0683-5.0683"/></g></g></g></g></g></g></g></svg>
