<?xml version="1.0" encoding="UTF-8"?>
<!-- Created with Inkscape (http://www.inkscape.org/) -->
<svg width="40" height="40" version="1.1" viewBox="0 0 10.583 10.583" xml:space="preserve" xmlns="http://www.w3.org/2000/svg"><circle cx="5.2915" cy="5.2915" r="5.1867" fill="#f2f2f2"/><path d="m5.137 10.327c-0.077342-0.017875-0.20955-0.058608-0.29379-0.090509-0.13314-0.050415-1.1176-0.53595-1.9741-0.97362-0.44308-0.22641-0.46274-0.22401-0.99667 0.12151-0.36674 0.23732-0.43588 0.26122-0.54155 0.18721-0.059291-0.04153-0.085166-0.094582-0.61564-1.2622-0.19326-0.42538-0.39797-0.87427-0.45493-0.99754-0.17969-0.38893-0.17662-0.39342 0.46814-0.68585 0.92971-0.42168 1.3825-0.60088 1.6665-0.65952 0.24341-0.050268 0.78501-0.051169 1.0231-0.0016697 0.34818 0.072328 0.58764 0.24559 0.99775 0.72193 0.1092 0.12684 0.23705 0.25578 0.28412 0.28653 0.17515 0.11446 0.82035 0.23667 1.4247 0.26985 0.47433 0.026051 0.61936 0.067397 0.77369 0.22061 0.22 0.21842 0.18416 0.58793-0.07358 0.75866-0.1886 0.12492-0.26947 0.13395-1.1955 0.13351-0.82037-2.738e-4 -0.85376-0.0022446-1.207-0.065879-0.1998-0.036009-0.44237-0.084484-0.53904-0.10772-0.12367-0.029731-0.19313-0.035769-0.23432-0.02039-0.19944 0.074518-0.21548 0.30603-0.027917 0.40302 0.072483 0.037485 0.64873 0.15919 0.97705 0.20636 0.14223 0.020448 0.49336 0.030302 1.0781 0.030302 0.7685 0 0.88429-0.00485 1.0178-0.04274 0.3318-0.094125 0.5814-0.28628 0.70215-0.54056 0.067205-0.14152 0.072758-0.14632 0.46303-0.40057 0.21726-0.14154 0.67414-0.44116 1.0153-0.66583 0.70542-0.46457 0.78186-0.50781 0.96535-0.54612 0.17658-0.036871 0.30541 8.486e-4 0.42254 0.12365 0.20998 0.22017 0.12139 0.58491-0.21849 0.89958-0.13034 0.12067-0.74576 0.53762-1.8188 1.2322-0.24804 0.16056-0.59607 0.3859-0.77341 0.50076-0.89287 0.5783-1.3993 0.87284-1.6214 0.94298-0.15662 0.049466-0.52407 0.061167-0.69316 0.022062zm2.257-2.917c-0.034509-0.073458-0.10602-0.18273-0.15892-0.24282l-0.096172-0.10926 0.053692-0.033809c1.2071-0.76006 1.2342-0.77448 1.477-0.7855 0.20255-0.00921 0.32895 0.024909 0.44875 0.12105l0.067456 0.054145-0.46588 0.30584c-0.65743 0.43158-1.2117 0.79384-1.2395 0.81009-0.013014 0.0076152-0.051909-0.046271-0.086424-0.11973zm-0.92112-0.58987c-0.06445-0.01004-0.22265-0.020223-0.35155-0.022621-0.1289-0.0025183-0.29021-0.011242-0.35847-0.019637l-0.12411-0.015258 0.53425-0.331c0.63722-0.3948 0.63346-0.39282 0.86449-0.4562 0.2664-0.073084 0.67751-0.045063 0.81511 0.055556 0.037045 0.027083-0.028494 0.074013-0.58949 0.42208-0.34714 0.21538-0.64059 0.39019-0.65211 0.38847-0.011514-0.0016697-0.073673-0.011352-0.13812-0.021395z" fill="#999" stroke-width=".088579"/><g transform="matrix(.68491 0 0 .68491 -38.119 -21.484)"><path d="m63.382 32.358c-2.4726 0-4.4769 2.0049-4.4769 4.4766 0 2.4725 2.0044 4.4772 4.4769 4.4772 2.4708 0 4.4749-2.0047 4.4749-4.4772 0-2.4716-2.0042-4.4766-4.4749-4.4766" fill="#a6a6a6" stop-color="#000000" stroke="#ccc" stroke-linejoin="bevel" stroke-opacity=".96707" stroke-width=".13229" style="-inkscape-stroke:none;font-variation-settings:normal;paint-order:normal"/><g fill="#f2f2f2" stroke-width=".37528"><path d="m62.919 33.788h0.21829v-0.25874h-0.19109v-0.66659h0.27235v-0.34122l0.0155-0.03546c0.04872-0.0016 0.09778-0.0041 0.14788-0.0041 0.21691 0 0.4302 0.01601 0.63956 0.04717v0.22432h0.31212v0.85041h-0.23774l-0.20486 0.20366-0.49545 0.4977-0.25823 0.25806-0.21829-0.21778v-0.55743z"/><path d="m62.083 32.68 0.08143 0.08074-0.14358 0.14289h-0.2448v0.24446h0.51714v1.1291h-0.39475v-0.81653h-0.272v-0.39492h-0.17663v0.23137l-0.17043 0.17095h-0.40146l-0.11035-0.11087c0.39181-0.29662 0.83633-0.52729 1.3154-0.67726"/><path d="m63.504 38.997h-0.36652l-0.19092 0.2727v0.61147l-0.55794 0.40869v0.73457l-0.62527-0.5712v-1.4972l-0.6671-0.62578v-0.76126l-0.46242-0.33965h-0.40852l-0.29214-0.29387v-0.40078l-0.19711-0.12205-0.05509 0.14925 0.0952 0.05458v0.34052l-0.24446-0.29955-0.12206-0.4767-0.10897-0.02701v-0.83204c0.2176-0.58481 0.55743-1.1124 0.98988-1.5478l1.3628 0.01309-0.05389 0.2856-0.40784 0.02668 0.0408 0.13635 0.09572 0.10897-0.10914 0.17663-0.32726-0.04011 0.19109 0.25858 0.32571 0.23017 0.10932 0.2584 0.13548-0.04045v-0.66659h0.36788v0.08148h0.38131v0.46293h-0.16286v0.19023h-0.16337v0.12222h0.23034l-0.14891 0.1503-0.06129-0.06197-0.14392 0.14324v0.12204l-0.12877 0.12999-0.16268 0.16286-0.19092 0.19074-0.1286 0.12878v0.40869h-0.17784v-0.21812h-0.5843v0.24498l0.5712 0.54451h1.1429v0.10966h0.40818l0.44882 0.57086h0.35343v0.9923z"/><path d="m66.974 36.467v0.35394h-0.58566l-0.28612-0.28559v-0.19058h-0.17026v0.26649l0.38871 0.38718h0.44159v0.31934l-0.4018 0.4018v1.1288h-0.3054v0.57809l-0.23843 0.23792h-0.55917v-0.51369l-0.30264-0.3023v-0.94703l-0.37617-0.37579h-0.78588l-0.30988-0.30936v-0.78312l0.26563-0.26478h0.44916l0.28578-0.28595h0.34035v0.14996h1.0474v-0.18317h-0.26529l0.15666-0.15666 0.1496-0.14926h0.25754l-0.16234-0.16218h-0.24377l-0.2572 0.25704v0.20004l-0.27441-0.27493h-0.17009l0.25083 0.251h-0.20348l-0.16372-0.16302v-0.10933l-0.24446-0.24481-0.18334 0.1837-0.15666 0.15735v0.28475h-0.31297v-0.57052h0.11569v-0.10294l0.0742-0.0742-0.13548-0.13634-0.17715 0.17697-0.14186-0.14324 0.07489-0.07437v-0.40815h0.28491v0.16267l0.24446 0.24549h0.17715v-0.19074h0.54434v-0.19075h0.21795v-0.27205h-0.23137v-0.25892h-0.1224v0.51714l-0.09555 0.09537-0.19023-0.08213-0.32657-0.08074 0.02668-0.3128 0.32675-0.24549 0.19092-0.32589 0.35411-0.08212-0.04166 0.1632 0.23189 0.0408-0.01412 0.1632 0.25892-0.02737 0.12206-0.08212 0.02703-0.13514h0.54502c0.82805 0.79208 1.3456 1.9078 1.3456 3.1423 0 0.06662-0.0021 0.13222-0.0046 0.19884l-0.9472-0.947-0.09589 0.09503z"/></g></g></svg>
