<?xml version="1.0" encoding="UTF-8" standalone="no"?>
<!-- Created with Inkscape (http://www.inkscape.org/) -->

<svg
   xmlns:dc="http://purl.org/dc/elements/1.1/"
   xmlns:cc="http://creativecommons.org/ns#"
   xmlns:rdf="http://www.w3.org/1999/02/22-rdf-syntax-ns#"
   xmlns:svg="http://www.w3.org/2000/svg"
   xmlns="http://www.w3.org/2000/svg"
   xmlns:sodipodi="http://sodipodi.sourceforge.net/DTD/sodipodi-0.dtd"
   xmlns:inkscape="http://www.inkscape.org/namespaces/inkscape"
   width="40"
   height="40"
   viewBox="0 0 40 40.000001"
   id="svg35919"
   version="1.1"
   inkscape:version="0.92.2 (unknown)"
   sodipodi:docname="lm_03.svg"
   inkscape:export-filename="/home/stefano/Pictures/mapplusbern/png/lm_03.png"
   inkscape:export-xdpi="96"
   inkscape:export-ydpi="96">
  <defs
     id="defs35921">
    <clipPath
       clipPathUnits="userSpaceOnUse"
       id="clipPath27801-6-2">
      <rect
         style="color:#000000;clip-rule:nonzero;display:inline;overflow:visible;visibility:visible;opacity:1;isolation:auto;mix-blend-mode:normal;color-interpolation:sRGB;color-interpolation-filters:linearRGB;solid-color:#000000;solid-opacity:1;fill:#ff5555;fill-opacity:1;fill-rule:nonzero;stroke:none;stroke-width:0.1;stroke-linecap:round;stroke-linejoin:round;stroke-miterlimit:4;stroke-dasharray:none;stroke-dashoffset:0;stroke-opacity:1;color-rendering:auto;image-rendering:auto;shape-rendering:auto;text-rendering:auto;enable-background:accumulate"
         id="rect27803-0-3"
         width="27.210461"
         height="21.991693"
         x="-235.04272"
         y="1030.5667" />
    </clipPath>
    <clipPath
       clipPathUnits="userSpaceOnUse"
       id="clipPath27801-7">
      <rect
         style="color:#000000;clip-rule:nonzero;display:inline;overflow:visible;visibility:visible;opacity:1;isolation:auto;mix-blend-mode:normal;color-interpolation:sRGB;color-interpolation-filters:linearRGB;solid-color:#000000;solid-opacity:1;fill:#ff5555;fill-opacity:1;fill-rule:nonzero;stroke:none;stroke-width:0.1;stroke-linecap:round;stroke-linejoin:round;stroke-miterlimit:4;stroke-dasharray:none;stroke-dashoffset:0;stroke-opacity:1;color-rendering:auto;image-rendering:auto;shape-rendering:auto;text-rendering:auto;enable-background:accumulate"
         id="rect27803-5"
         width="27.210461"
         height="21.991693"
         x="-235.04272"
         y="1030.5667" />
    </clipPath>
    <clipPath
       clipPathUnits="userSpaceOnUse"
       id="clipPath27797-1">
      <rect
         style="color:#000000;clip-rule:nonzero;display:inline;overflow:visible;visibility:visible;opacity:1;isolation:auto;mix-blend-mode:normal;color-interpolation:sRGB;color-interpolation-filters:linearRGB;solid-color:#000000;solid-opacity:1;fill:#ff5555;fill-opacity:1;fill-rule:nonzero;stroke:none;stroke-width:0.1;stroke-linecap:round;stroke-linejoin:round;stroke-miterlimit:4;stroke-dasharray:none;stroke-dashoffset:0;stroke-opacity:1;color-rendering:auto;image-rendering:auto;shape-rendering:auto;text-rendering:auto;enable-background:accumulate"
         id="rect27799-3"
         width="87.314026"
         height="88.808838"
         x="-386.56873"
         y="955.32452"
         transform="matrix(0.99966259,0.02597517,-0.0019307,0.99999814,0,0)" />
    </clipPath>
    <clipPath
       clipPathUnits="userSpaceOnUse"
       id="clipPath27801-6">
      <rect
         style="color:#000000;clip-rule:nonzero;display:inline;overflow:visible;visibility:visible;opacity:1;isolation:auto;mix-blend-mode:normal;color-interpolation:sRGB;color-interpolation-filters:linearRGB;solid-color:#000000;solid-opacity:1;fill:#ff5555;fill-opacity:1;fill-rule:nonzero;stroke:none;stroke-width:0.1;stroke-linecap:round;stroke-linejoin:round;stroke-miterlimit:4;stroke-dasharray:none;stroke-dashoffset:0;stroke-opacity:1;color-rendering:auto;image-rendering:auto;shape-rendering:auto;text-rendering:auto;enable-background:accumulate"
         id="rect27803-0"
         width="27.210461"
         height="21.991693"
         x="-235.04272"
         y="1030.5667" />
    </clipPath>
    <clipPath
       clipPathUnits="userSpaceOnUse"
       id="clipPath27801">
      <rect
         style="color:#000000;clip-rule:nonzero;display:inline;overflow:visible;visibility:visible;opacity:1;isolation:auto;mix-blend-mode:normal;color-interpolation:sRGB;color-interpolation-filters:linearRGB;solid-color:#000000;solid-opacity:1;fill:#ff5555;fill-opacity:1;fill-rule:nonzero;stroke:none;stroke-width:0.1;stroke-linecap:round;stroke-linejoin:round;stroke-miterlimit:4;stroke-dasharray:none;stroke-dashoffset:0;stroke-opacity:1;color-rendering:auto;image-rendering:auto;shape-rendering:auto;text-rendering:auto;enable-background:accumulate"
         id="rect27803"
         width="27.210461"
         height="21.991693"
         x="-235.04272"
         y="1030.5667" />
    </clipPath>
    <clipPath
       clipPathUnits="userSpaceOnUse"
       id="clipPath27797">
      <rect
         style="color:#000000;clip-rule:nonzero;display:inline;overflow:visible;visibility:visible;opacity:1;isolation:auto;mix-blend-mode:normal;color-interpolation:sRGB;color-interpolation-filters:linearRGB;solid-color:#000000;solid-opacity:1;fill:#ff5555;fill-opacity:1;fill-rule:nonzero;stroke:none;stroke-width:0.1;stroke-linecap:round;stroke-linejoin:round;stroke-miterlimit:4;stroke-dasharray:none;stroke-dashoffset:0;stroke-opacity:1;color-rendering:auto;image-rendering:auto;shape-rendering:auto;text-rendering:auto;enable-background:accumulate"
         id="rect27799"
         width="87.314026"
         height="88.808838"
         x="-386.56873"
         y="955.32452"
         transform="matrix(0.99966259,0.02597517,-0.0019307,0.99999814,0,0)" />
    </clipPath>
  </defs>
  <sodipodi:namedview
     id="base"
     pagecolor="#ffffff"
     bordercolor="#666666"
     borderopacity="1.0"
     inkscape:pageopacity="0.0"
     inkscape:pageshadow="2"
     inkscape:zoom="22.627417"
     inkscape:cx="8.2441996"
     inkscape:cy="21.495256"
     inkscape:document-units="px"
     inkscape:current-layer="g20511"
     showgrid="false"
     units="px"
     inkscape:window-width="2560"
     inkscape:window-height="1353"
     inkscape:window-x="0"
     inkscape:window-y="24"
     inkscape:window-maximized="1"
     inkscape:snap-global="false" />
  <metadata
     id="metadata35924">
    <rdf:RDF>
      <cc:Work
         rdf:about="">
        <dc:format>image/svg+xml</dc:format>
        <dc:type
           rdf:resource="http://purl.org/dc/dcmitype/StillImage" />
        <dc:title />
      </cc:Work>
    </rdf:RDF>
  </metadata>
  <g
     inkscape:label="Layer 1"
     inkscape:groupmode="layer"
     id="layer1"
     transform="translate(0,-1012.3622)">
    <circle
       style="color:#000000;clip-rule:nonzero;display:inline;overflow:visible;visibility:visible;opacity:1;isolation:auto;mix-blend-mode:normal;color-interpolation:sRGB;color-interpolation-filters:linearRGB;solid-color:#000000;solid-opacity:1;vector-effect:none;fill:#e6e6e6;fill-opacity:1;fill-rule:evenodd;stroke:none;stroke-width:1.67861009;stroke-linecap:round;stroke-linejoin:round;stroke-miterlimit:4;stroke-dasharray:none;stroke-dashoffset:0;stroke-opacity:1;marker:none;paint-order:stroke fill markers;color-rendering:auto;image-rendering:auto;shape-rendering:auto;text-rendering:auto;enable-background:accumulate"
       id="path849"
       cx="20"
       cy="1032.3622"
       r="19.5" />
    <g
       transform="matrix(0.94780607,0,0,0.94999997,-47.392623,1014.4699)"
       id="g20511">
      <path
         style="fill:#ffffff;fill-rule:evenodd;stroke:none;stroke-width:1.05384922px;stroke-linecap:butt;stroke-linejoin:miter;stroke-opacity:1"
         d="m 60.882838,35.751294 1.083329,-5.357143 3.061581,-6.203007 4.239114,-5.122181 5.369543,-3.806391 3.485494,-1.550752 4.239113,-1.221805 2.625895,-0.293703 2.307962,-0.129229 1.978252,-0.04699 -0.57699,0.30545 -1.495465,0.669644 -1.342386,0.845864 -1.448364,1.033835 -1.259958,0.975094 -1.153981,1.280545 -0.977351,1.186561 -0.93025,1.668232 -0.718295,1.656486 -0.706517,2.020677 -0.211956,3.406954 0.57699,4.887218 1.530791,4.945959 L 61.53048,36.79688 Z"
         id="path1624"
         inkscape:connector-curvature="0" />
      <path
         inkscape:connector-curvature="0"
         id="path19466"
         d="m 66.707798,37.458371 c -2.88339,-0.08607 -5.931726,-0.277616 -6.025757,-0.378638 -0.02511,-0.02699 -0.143222,-0.388756 -0.262432,-0.80391 l -0.216747,-0.754832 0.12392,-0.737538 c 0.425939,-2.535077 1.134221,-4.668894 2.424429,-7.303986 0.749478,-1.530719 1.145704,-2.22747 1.995939,-3.509773 1.149798,-1.734094 2.140801,-2.932458 3.642248,-4.404358 1.126626,-1.104456 1.851992,-1.718103 3.023581,-2.557904 3.421499,-2.452532 7.45991,-4.049171 11.847982,-4.684252 1.612431,-0.233368 2.523751,-0.299931 4.496541,-0.32843 l 1.960797,-0.02832 -0.576705,0.253455 c -2.622984,1.152777 -4.517325,2.392547 -6.172743,4.039825 -2.297056,2.285753 -3.600978,4.970498 -3.978693,8.192037 -0.09989,0.851917 -0.111688,2.709826 -0.02292,3.607487 0.2086,2.109323 0.782875,4.349621 1.735425,6.77008 l 0.401707,1.020752 -0.07327,0.666437 c -0.05376,0.488976 -0.09703,0.678718 -0.162501,0.712566 -0.116942,0.06046 -1.732074,0.165051 -3.607124,0.233591 -1.713747,0.06263 -8.402554,0.05992 -10.553689,-0.0043 z m 3.777413,-3.275817 V 32.22629 h -0.861653 c -0.5038,0 -0.87624,0.02353 -0.896782,0.0567 -0.01934,0.03118 -0.05094,0.911505 -0.07027,1.956266 l -0.03513,1.899564 h 0.931919 0.931913 z m 9.470134,1.752319 c 0.01726,-0.01721 -0.07197,-0.321461 -0.198333,-0.676059 -1.941995,-5.44981 -2.272389,-9.637409 -1.040489,-13.187849 1.196197,-3.447553 3.66879,-6.307039 7.359569,-8.511134 0.812295,-0.485093 1.083592,-0.709386 0.628928,-0.519961 -0.514223,0.214239 -2.387024,1.392025 -3.264589,2.053073 -1.587172,1.195571 -2.943121,2.602691 -3.899062,4.046197 -2.061848,3.11347 -2.67962,7.132786 -1.814816,11.8075 0.275218,1.487705 0.836045,3.507931 1.357524,4.890111 0.04413,0.116941 0.08712,0.129457 0.444352,0.129457 0.21753,0 0.409643,-0.0141 0.426916,-0.03131 z m -17.84454,-1.049251 c 0.865877,-4.012155 2.465343,-7.861648 4.595354,-11.059769 1.120151,-1.681866 2.115707,-2.880288 3.58523,-4.315796 4.207513,-4.110135 9.570166,-6.533515 15.793672,-7.13715 0.380624,-0.03692 0.715849,-0.08933 0.744942,-0.116471 0.111941,-0.104412 -0.171694,-0.123795 -0.84999,-0.05807 -11.492752,1.113481 -19.585458,7.392384 -23.431278,18.179671 -0.51111,1.433634 -1.224199,4.040041 -1.381928,5.051094 -0.04213,0.270051 -0.01947,0.283658 0.497885,0.299098 l 0.262575,0.0079 z m 8.59506,-5.735365 c 0.03789,-0.362709 0.122207,-0.964694 0.187367,-1.337739 0.06516,-0.373051 0.133163,-0.762424 0.151121,-0.865271 l 0.03267,-0.186995 h -0.751081 c -0.63454,0 -0.756573,0.01422 -0.786414,0.09184 -0.122677,0.318952 -0.553723,2.525525 -0.553723,2.834569 0,0.119999 0.02057,0.12307 0.82559,0.12307 h 0.825594 z m 1.252261,-5.266867 c 0.171069,-0.427213 0.311895,-0.79702 0.312949,-0.821791 0.001,-0.02476 -0.289696,-0.03772 -0.646112,-0.02877 l -0.648029,0.01628 -0.35792,0.776754 c -0.196853,0.427213 -0.359393,0.796968 -0.361199,0.821676 -0.0017,0.0247 0.310042,0.03765 0.692995,0.02877 l 0.696282,-0.01615 z m 1.450161,-2.804941 c 0.184345,-0.276899 0.343852,-0.522871 0.354463,-0.546602 0.01065,-0.02374 -0.226806,-0.04316 -0.52759,-0.04316 h -0.546874 l -0.380659,0.510064 c -0.209359,0.280538 -0.380654,0.52651 -0.380654,0.546605 0,0.02008 0.25788,0.03653 0.573071,0.03653 h 0.57307 z m 1.559249,-1.983373 c 0.199094,-0.19687 0.361989,-0.378112 0.361989,-0.40276 0,-0.02463 -0.201819,-0.04482 -0.448492,-0.04482 h -0.44849 l -0.4006,0.402761 -0.4006,0.402761 h 0.487098 0.487103 z m 1.486712,-1.382557 c 0.17083,-0.134493 0.312049,-0.263953 0.313821,-0.287684 0.0016,-0.02375 -0.168478,-0.04316 -0.37833,-0.04316 -0.344983,0 -0.407812,0.01922 -0.655572,0.200685 -0.478533,0.350461 -0.478832,0.374687 -0.0047,0.374687 0.400031,0 0.424691,-0.0084 0.724723,-0.244535 z m 1.387027,-1.050052 0.379062,-0.258919 h -0.379914 c -0.3453,0 -0.413942,0.02144 -0.753359,0.235308 -0.205398,0.129416 -0.373448,0.245929 -0.373448,0.258917 0,0.013 0.168436,0.0236 0.374298,0.0236 0.349007,0 0.399911,-0.0175 0.753361,-0.258914 z m 1.400469,-0.877444 0.384228,-0.215765 -0.33151,-0.01726 c -0.291264,-0.01516 -0.377028,0.0081 -0.706461,0.191946 -0.206222,0.115064 -0.374952,0.219922 -0.374952,0.233019 0,0.0131 0.145004,0.02382 0.322233,0.02382 0.265608,0 0.389759,-0.03792 0.706462,-0.215766 z m 1.624143,-0.848676 0.374859,-0.195796 -0.318331,-0.0029 c -0.249374,-0.0022 -0.405538,0.0399 -0.720884,0.194291 l -0.402546,0.197083 0.346022,0.0015 c 0.283468,0.0012 0.413791,-0.0339 0.72088,-0.194291 z m 1.585939,-0.723527 0.346022,-0.16811 -0.346022,0.01993 c -0.215313,0.01244 -0.465841,0.07579 -0.663212,0.167801 l -0.317185,0.147877 0.317185,3.28e-4 c 0.233592,2.19e-4 0.408384,-0.04401 0.663212,-0.167802 z m 1.730112,-0.656631 0.519035,-0.194435 -0.263117,-0.0038 c -0.224168,-0.0033 -1.219902,0.277061 -1.312593,0.369538 -0.01618,0.01615 0.09814,0.02798 0.254093,0.02628 0.174725,-0.0018 0.482754,-0.07773 0.802582,-0.197539 z m 2.220312,-0.71709 c 0.539369,-0.165601 0.543563,-0.168266 0.27037,-0.171841 -0.228385,-0.0031 -1.276683,0.243326 -1.361305,0.319858 -0.01324,0.01192 0.10356,0.02139 0.259517,0.02097 0.155953,-4.48e-4 0.530091,-0.07647 0.831418,-0.168981 z m 1.577613,-0.437875 c 0.19489,-0.04938 0.451665,-0.115113 0.570612,-0.14606 0.222232,-0.05783 0.29653,-0.16691 0.113679,-0.16691 -0.129531,0 -1.395601,0.324799 -1.440435,0.369532 -0.06678,0.06663 0.411013,0.0309 0.756144,-0.05656 z"
         style="fill:#999999;stroke-width:0.0576038" />
      <path
         style="fill:#999999;fill-opacity:1;stroke-width:0.1897268"
         d="m 60.527845,36.892041 c 0,-0.335074 -0.924781,-0.563828 -2.279356,-0.563828 -1.354581,0 -2.279362,0.228754 -2.279362,0.563828 0,0.121802 0.849718,0.194201 2.279362,0.194201 1.429638,0 2.279356,-0.0724 2.279356,-0.194201 z"
         id="path19695"
         inkscape:connector-curvature="0" />
      <path
         style="fill:#999999;fill-opacity:1;stroke-width:0.1897268"
         d="m 59.388166,30.066909 c 0,-5.528027 -0.02312,-5.92748 -0.383753,-6.632765 -0.249888,-0.488683 -0.51358,-0.750482 -0.755924,-0.750482 -0.242345,0 -0.506043,0.261799 -0.75593,0.750482 -0.36064,0.705285 -0.383748,1.104738 -0.383748,6.632765 v 5.882287 h 1.139678 1.139677 z"
         id="path19693"
         inkscape:connector-curvature="0" />
      <path
         style="fill:#999999;fill-opacity:1;stroke-width:0.1897268"
         d="m 58.629207,13.918937 6.56e-4,-8.385712 3.0858,-0.8102276 C 69.181299,2.7627712 73.443806,1.5830111 73.44111,1.4776726 73.42567,0.87522176 72.930078,0.96403556 66.124749,2.7887918 61.057494,4.1475061 58.93125,4.6405496 58.485748,4.5601547 L 57.868428,4.448753 v 8.927948 c 0,8.801608 0.0052,8.927948 0.37989,8.927948 0.374158,0 0.379904,-0.126611 0.380718,-8.385711 z"
         id="path19691"
         inkscape:connector-curvature="0" />
      <path
         style="fill:#999999;fill-opacity:1;stroke-width:0.1897268"
         d="m 60.581378,6.8944105 c 0.812973,-1.0092243 1.454033,-1.8334926 1.424594,-1.8317062 -0.225744,0.013695 -2.86073,0.7444683 -2.928632,0.8122118 -0.04762,0.047539 -0.0613,0.7092383 -0.03036,1.4704416 l 0.0563,1.3840074 z"
         id="path19689"
         inkscape:connector-curvature="0" />
      <path
         style="fill:#999999;fill-opacity:1;stroke-width:0.1897268"
         d="m 58.770839,3.828447 c 0.475917,-0.5393052 0.283601,-0.8535738 -0.52235,-0.8535738 -0.819,0 -1.012594,0.3433737 -0.488433,0.8663201 0.340313,0.3395244 0.703962,0.3349388 1.010783,-0.012751 z"
         id="path19615"
         inkscape:connector-curvature="0" />
      <path
         style="fill:none;fill-opacity:1;fill-rule:evenodd;stroke:none;stroke-width:1.33736455px;stroke-linecap:butt;stroke-linejoin:miter;stroke-opacity:1"
         d="M 69.758322,4.1480841 64.06795,32.200292 H 79.800158 L 72.519828,3.688896 Z"
         id="path19697"
         inkscape:connector-curvature="0" />
      <path
         style="fill:#ffffff;fill-opacity:1;stroke-width:0.1897268"
         d="m 71.829648,4.3956234 c 0.956512,-0.3376216 1.614539,-1.0806516 1.614539,-1.8231036 0,-0.4538749 -0.06805,-0.551021 -0.332404,-0.4744816 -0.182825,0.052931 -0.717051,0.1930354 -1.187165,0.3113346 -0.470119,0.1183001 -1.29755,0.3408951 -1.838738,0.4946567 -0.978828,0.2781021 -0.982952,0.2825135 -0.787294,0.8424815 0.332143,0.9505871 1.111033,1.1503398 2.531062,0.6491124 z"
         id="path19687"
         inkscape:connector-curvature="0" />
    </g>
  </g>
</svg>
