<?xml version="1.0" encoding="UTF-8"?>
<svg width="40" height="40" version="1.1" viewBox="0 0 40 40" xmlns="http://www.w3.org/2000/svg" xmlns:cc="http://creativecommons.org/ns#" xmlns:dc="http://purl.org/dc/elements/1.1/" xmlns:rdf="http://www.w3.org/1999/02/22-rdf-syntax-ns#" xmlns:xlink="http://www.w3.org/1999/xlink">
 <defs>
  <clipPath id="clipPath3151">
   <rect transform="scale(-1,1)" x="-75.543" y="221.35" width="13.229" height="9.9219" color="#000000" color-rendering="auto" fill="#f00" fill-rule="evenodd" image-rendering="auto" shape-rendering="auto" solid-color="#000000" style="isolation:auto;mix-blend-mode:normal;paint-order:markers fill stroke"/>
  </clipPath>
  <clipPath id="clipPath3147">
   <rect y="287.08" width="13.229" height="9.9219" color="#000000" color-rendering="auto" fill="#f00" fill-rule="evenodd" image-rendering="auto" shape-rendering="auto" solid-color="#000000" style="isolation:auto;mix-blend-mode:normal;paint-order:markers fill stroke"/>
  </clipPath>
  <clipPath id="clipPath3143">
   <rect y="287.08" width="13.229" height="9.9219" color="#000000" color-rendering="auto" fill="#f00" fill-rule="evenodd" image-rendering="auto" shape-rendering="auto" solid-color="#000000" style="isolation:auto;mix-blend-mode:normal;paint-order:markers fill stroke"/>
  </clipPath>
  <clipPath id="clipPath3139">
   <rect y="287.08" width="13.229" height="9.9219" color="#000000" color-rendering="auto" fill="#f00" fill-rule="evenodd" image-rendering="auto" shape-rendering="auto" solid-color="#000000" style="isolation:auto;mix-blend-mode:normal;paint-order:markers fill stroke"/>
  </clipPath>
  <clipPath id="clipPath3135">
   <rect y="287.08" width="13.229" height="9.9219" color="#000000" color-rendering="auto" fill="#f00" fill-rule="evenodd" image-rendering="auto" shape-rendering="auto" solid-color="#000000" style="isolation:auto;mix-blend-mode:normal;paint-order:markers fill stroke"/>
  </clipPath>
  <clipPath id="clipPath3131">
   <rect y="287.08" width="13.229" height="9.9219" color="#000000" color-rendering="auto" fill="#f00" fill-rule="evenodd" image-rendering="auto" shape-rendering="auto" solid-color="#000000" style="isolation:auto;mix-blend-mode:normal;paint-order:markers fill stroke"/>
  </clipPath>
  <clipPath id="clipPath55">
   <circle cx="6.5337" cy="292.05" r="5.0271" color="#000000" color-rendering="auto" fill="url(#linearGradient56)" fill-rule="evenodd" image-rendering="auto" shape-rendering="auto" solid-color="#000000" stroke="#05164d" stroke-linecap="round" stroke-linejoin="round" stroke-width=".52917" style="isolation:auto;mix-blend-mode:normal;paint-order:normal"/>
  </clipPath>
  <linearGradient id="linearGradient56" x1="17.881" x2="17.881" y1="11.992" y2="37.797" gradientTransform="matrix(.26458 0 0 .26458 1.2421 286.76)" gradientUnits="userSpaceOnUse">
   <stop stop-color="#81d4fa" offset="0"/>
   <stop stop-color="#81d4fa" stop-opacity="0" offset="1"/>
  </linearGradient>
 </defs>
 <metadata>
  <rdf:RDF>
   <cc:Work rdf:about="">
    <dc:format>image/svg+xml</dc:format>
    <dc:type rdf:resource="http://purl.org/dc/dcmitype/StillImage"/>
   </cc:Work>
  </rdf:RDF>
 </metadata>
 <g transform="matrix(3.7795 0 0 3.7795 -4.6945 -1083.8)" clip-path="url(#clipPath55)">
  <g transform="matrix(-1,0,0,1,75.543,65.732)" clip-path="url(#clipPath3151)">
   <rect x="62.273" y="221.25" width="13.24" height="9.1605" clip-path="none" color="#000000" color-rendering="auto" fill="#8ed4f7" fill-opacity=".96407" fill-rule="evenodd" image-rendering="auto" shape-rendering="auto" solid-color="#000000" style="isolation:auto;mix-blend-mode:normal;paint-order:markers fill stroke"/>
   <path d="m68.335 230.41h3.7987l-2.1066-1.1061c0-0.663-0.53748-1.2003-1.2005-1.2003-0.66268 0-1.2002 0.53732-1.2002 1.2003 0 0.48768 0.29103 0.9183 0.70852 1.1061" fill="#fdeef8"/>
   <g fill="#fff">
    <path d="m71.961 227.63c0-0.80938-0.6562-1.4657-1.4657-1.4657-0.80938 0-1.4657 0.65636-1.4657 1.4657 0 0.80954 0.65636 1.4657 1.4657 1.4657 0.80954 0 1.4657-0.6562 1.4657-1.4657"/>
    <path d="m74.278 228.02c0-0.47203-0.38287-0.85474-0.85506-0.85474-0.47203 0-0.85491 0.38271-0.85491 0.85474 0 0.47235 0.38287 0.85507 0.85491 0.85507 0.47219 0 0.85506-0.38272 0.85506-0.85507"/>
    <path d="m70.22 226.25c0-0.47203-0.38288-0.85475-0.85491-0.85475-0.47219 0-0.85507 0.38272-0.85507 0.85475 0 0.47235 0.38288 0.85506 0.85507 0.85506 0.47203 0 0.85491-0.38271 0.85491-0.85506"/>
    <path d="m65.568 224.44c-0.06608 0-0.12963 0.01-0.19002 0.0273-0.06845-0.48088-0.48152-0.85048-0.98121-0.85048-0.46223 0-0.85048 0.31617-0.96035 0.74394-0.06513-0.0188-0.13374-0.0294-0.20503-0.0294-0.40817 0-0.73888 0.33087-0.73888 0.73888 0 0.40817 0.33071 0.73887 0.73888 0.73887h2.3366c0.37797 0 0.68449-0.30636 0.68449-0.68465 0-0.37797-0.30652-0.68449-0.68449-0.68449"/>
   </g>
   <path d="m76.605 230.41-2.0361-3.3951-2.0464 3.3951h4.0825" fill="#676767"/>
   <path d="m72.507 230.41 2.0639-3.3951v3.3951h-2.0639" fill="#a5a2a1"/>
   <path d="m69.753 223.33c-0.0024-0.34351-0.28154-0.63249-0.62537-0.63249-0.0694 0-0.13595 0.0115-0.19808 0.0323-0.0969-0.35379-0.42066-0.61415-0.80543-0.61415-0.12773 0-0.2485 0.0288-0.35679 0.08-0.17357-0.5408-0.68023-0.93205-1.2787-0.93205-0.65588 0-1.2017 0.4703-1.319 1.0922-0.02893-3e-3 -0.05802-5e-3 -0.08789-5e-3 -0.44136 0-0.7991 0.35774-0.7991 0.79911 0 0.058 0.0065 0.12567 0.01834 0.18005h5.4521" fill="#eefbfd"/>
   <path d="m61.056 230.41 5.6377-7.8976 5.6097 7.8976h-11.248" fill="#c5c9cc"/>
   <path d="m65.703 226.67 0.56388 1.1088 0.68829-1.2658 0.78393 0.86787 0.82408-0.56673s0.6562 0.61083 0.73239 0.58902c0.07604-0.0215 0.61368-0.38841 0.61368-0.38841l0.0021 1e-3 -3.2174-4.506-3.5557 4.9552 0.05975 0.0435 0.81049-0.48958 0.51456 0.93917 1.1801-1.2885" fill="#fff"/>
   <path d="m61.056 230.41 5.6377-7.8976v7.8976h-5.6377" fill="#464646"/>
   <path d="m63.198 227.51 0.66805-0.20503 0.65699 0.65462 1.1801-1.2885 0.56388 1.1088 0.42698-0.7852v-4.4834l-3.5557 4.9552 0.05976 0.0435" fill="#a7b0b3"/>
   <path d="m68.861 230.41-3.5006-4.6669-3.518 4.6669h7.0185" fill="#c5c9cc"/>
   <path d="m75.212 230.41-2.4206-4.101-2.4324 4.101h4.853" fill="#cbc9c6"/>
   <path d="m72.794 230.41v-4.101l-2.4351 4.101h2.4351" fill="#bcbcbc"/>
   <path d="m65.36 230.41v-4.6669l-3.518 4.6669h3.518" fill="#676767"/>
   <path d="m64.052 228.4 0.35142 0.25784 0.40501-0.29356 0.24787 0.36469 0.31079-0.28455 0.25103 0.19571 0.25926-0.19571s0.43093 0.40011 0.46492 0.39126c0.03399-9e-3 0.34003-0.3824 0.34003-0.3824l0.3062 0.16899 0.34636-0.25467-1.9748-2.6264-1.9926 2.6371 0.32154 0.22605 0.36296-0.2044" fill="#fff"/>
   <path d="m63.689 228.6 0.36296-0.2044 0.35142 0.25784 0.40501-0.29356 0.24787 0.36469 0.30383-0.27269v-2.7151l-1.9926 2.6371 0.32154 0.22605" fill="#adaca8"/>
   <path d="m71.282 230.41-2.1464-2.0669-2.157 2.0669h4.3035" fill="#fff"/>
   <path d="m69.135 230.41v-2.0669l-2.157 2.0669h2.157" fill="#a7b0b3"/>
  </g>
  <rect x=".019738" y="296.09" width="7.4309" height=".98806" clip-path="url(#clipPath3147)" color="#000000" color-rendering="auto" fill="#396753" fill-rule="evenodd" image-rendering="auto" shape-rendering="auto" solid-color="#000000" style="isolation:auto;mix-blend-mode:normal;paint-order:markers fill stroke"/>
  <path transform="translate(2.1958)" d="m1.4583 297.08c-0.05069-0.0246-0.07533-0.0951-0.05244-0.15044 0.02501-0.0605 0.05515-0.0712 0.28609-0.10367l0.1992-0.0277-0.01032-0.0479c-0.0056-0.0263-0.01338-0.0725-0.01714-0.10215-0.0039-0.03 0.08649-0.79544 0.20044-1.7012 0.11395-0.90573 0.2029-1.6519 0.19768-1.6582-0.0049-7e-3 -0.15955-0.043-0.34294-0.0814-0.1834-0.0386-0.35547-0.0802-0.38239-0.0925-0.05915-0.027-0.12258-0.10769-0.13652-0.17363-0.02405-0.11353 0.2912-1.3854 0.39235-1.583 0.08126-0.15883 0.24021-0.31156 0.41337-0.39737 0.12209-0.0605 0.1483-0.0675 0.27016-0.0727 0.1176-6e-3 0.14391-8.5e-4 0.20473 0.0303 0.03839 0.0199 0.08458 0.0584 0.10264 0.0856l0.03282 0.0495 0.06828-0.0696c0.29849-0.30468 0.75167-0.30873 1.1106-0.01 0.12864 0.10714 0.18763 0.18948 0.51042 0.71307l0.27837 0.45156 0.20931 0.01c0.11512 7e-3 0.28511 0.01 0.37775 0.01 0.16436 0 0.16843-8.5e-4 0.16829-0.035-6e-5 -0.0192-0.0106-0.19853-0.0236-0.39847-0.021-0.32592-0.0209-0.36729 3.4e-4 -0.39979 0.0454-0.0693 0.16734-0.0655 0.20311 7e-3 9e-3 0.019 0.0256 0.17975 0.0358 0.35706 0.0101 0.17732 0.0225 0.35825 0.0273 0.40206l9e-3 0.0796 0.0686 0.01c0.17617 0.0242 0.2889 0.13915 0.29105 0.29694 2e-3 0.1456-0.0917 0.25531-0.25326 0.29681l-0.0707 0.0182 3e-3 0.0679c0.0169 0.31351 0.19517 3.2226 0.19772 3.2256 2e-3 2e-3 0.27274-0.0623 0.60204-0.14318l0.59872-0.14722 0.98347 0.124 0.5042-0.17314c0.45779-0.15722 0.50833-0.17143 0.54905-0.15464 0.0247 0.01 0.0528 0.0357 0.0624 0.057 0.0243 0.0534 0.0246 1.3251 2.9e-4 1.3784-0.01 0.0207-0.0343 0.0456-0.0551 0.0551-0.0522 0.0239-7.7654 0.0225-7.8147-8.5e-4zm2.0612-0.51105c0.49985-0.0695 0.91006-0.12741 0.91156-0.12861 2e-3 -8.8e-4 -5e-3 -0.0303-0.0134-0.0644-9e-3 -0.0341-0.094-0.39484-0.18916-0.80161l-0.17298-0.7396-0.40241-0.3525c-0.37943-0.33236-0.40516-0.35189-0.45053-0.34238-0.0265 7e-3 -0.0526 0.0146-0.058 0.0202-6e-3 7e-3 -0.14397 0.56932-0.3078 1.2529-0.16384 0.68358-0.30163 1.2558-0.30622 1.2716-0.0071 0.0246-0.0017 0.0275 0.03592 0.0196 0.02433-6e-3 0.45324-0.0657 0.9531-0.13528zm1.9394-0.33884c0.17374-0.0423 0.31854-0.0794 0.32178-0.0826 7e-3 -7e-3 -0.19571-3.3265-0.20365-3.3349-3e-3 -2e-3 -0.23727 0.01-0.52058 0.0297-0.55474 0.0381-0.58229 0.0365-0.66509-0.0373-0.0203-0.0182-0.1095-0.11927-0.1981-0.22463-0.094-0.11192-0.16406-0.18293-0.16822-0.17088-0.0308 0.089-0.14817 0.82435-0.14817 0.92819 0 0.0386 0.0724 0.12179 0.46579 0.53618 0.25619 0.26981 0.47996 0.51837 0.49729 0.5523 0.0255 0.0499 0.0507 0.22531 0.1324 0.92041 0.12324 1.0488 0.1127 0.97838 0.14496 0.96834 0.0142-6e-3 0.16787-0.0426 0.34161-0.0849zm-1.676-5.6778c-0.27716-0.0597-0.49801-0.29465-0.54597-0.58083-0.0643-0.38344 0.20097-0.74908 0.58997-0.81331 0.46668-0.0772 0.88361 0.34 0.81035 0.81063-0.0448 0.28819-0.2839 0.53413-0.57226 0.5888-0.10401 0.0196-0.17175 0.0183-0.28209-6e-3z" clip-path="url(#clipPath3143)" stroke-width=".015536"/>
  <g fill-rule="evenodd">
   <path d="m0.018018 296.78 1.2323-2e-3 0.78028-0.10382 2.6868-0.40031 2.2633-0.56419 0.99905 0.11775 1.0582-0.36248 0.85944-0.13447 0.97727 0.26702 2.4044 0.46379v1.0214h-13.261z" clip-path="url(#clipPath3139)" color="#000000" color-rendering="auto" fill="#4f9072" image-rendering="auto" shape-rendering="auto" solid-color="#000000" style="isolation:auto;mix-blend-mode:normal;paint-order:markers fill stroke"/>
   <path transform="translate(2.1823)" d="m2.816 291.05s-0.049609-0.26872-0.26458-0.30179c-0.21497-0.0331-0.31006-0.0413-0.44235 0.0165-0.13229 0.0579-0.64079 0.49609-0.76068 0.88056s-0.14883 1.079-0.12816 1.2237c0.020671 0.14469 0.12816 0.38447 0.1819 0.43822 0.053743 0.0537 0.15296 0.11989 0.23564 0.14056 0.082682 0.0207 0.3638 0.0744 0.3638 0.0744s0.024805 8e-3 0.053743-0.0165c0.028939-0.0248 0.76068-2.4557 0.76068-2.4557z" clip-path="url(#clipPath3135)" fill="#f00"/>
   <path transform="translate(2.1823)" d="m3.8367 288.87a0.71766 0.72789 0 0 0-0.71779 0.72812 0.71766 0.72789 0 0 0 0.055811 0.27854l1.3219-0.56379a0.71766 0.72789 0 0 0-0.65991-0.44287z" clip-path="url(#clipPath3131)" color="#000000" color-rendering="auto" fill="#f00" image-rendering="auto" shape-rendering="auto" solid-color="#000000" style="isolation:auto;mix-blend-mode:normal;paint-order:markers fill stroke"/>
  </g>
 </g>
 <circle cx="20" cy="20" r="19" color="#000000" color-rendering="auto" fill="none" image-rendering="auto" shape-rendering="auto" solid-color="#000000" stroke="#05164d" stroke-linecap="round" stroke-linejoin="round" stroke-width="2" style="isolation:auto;mix-blend-mode:normal;paint-order:normal"/>
</svg>
