<?xml version="1.0" encoding="utf-8"?>
<!-- Generator: Adobe Illustrator 15.0.2, SVG Export Plug-In . SVG Version: 6.00 Build 0)  -->
<!DOCTYPE svg PUBLIC "-//W3C//DTD SVG 1.1//EN" "http://www.w3.org/Graphics/SVG/1.1/DTD/svg11.dtd">
<svg version="1.1"
	 id="Ebene_1" xmlns:dc="http://purl.org/dc/elements/1.1/" xmlns:cc="http://creativecommons.org/ns#" xmlns:rdf="http://www.w3.org/1999/02/22-rdf-syntax-ns#"
	 xmlns="http://www.w3.org/2000/svg" xmlns:xlink="http://www.w3.org/1999/xlink" x="0px" y="0px" width="32px" height="32px"
	 viewBox="0 0 32 32" enable-background="new 0 0 32 32" xml:space="preserve">
<path fill="#333333" d="M27.646,0.203c-0.269-0.27-0.707-0.27-0.977,0L24.395,2.48l5.127,5.126l2.274-2.276
	c0.271-0.269,0.272-0.708,0.004-0.978c-0.001,0-0.001,0-0.004-0.001L27.646,0.203z M28.542,8.584l-5.125-5.126l-8.988,8.988h0.286
	c0.381,0,0.69,0.31,0.69,0.692v0.69h0.692c0.382,0,0.691,0.31,0.691,0.691v0.692h0.69c0.383,0,0.691,0.309,0.691,0.69v0.691h0.691
	c0.381,0,0.689,0.309,0.689,0.692v0.286L28.542,8.584z M18.216,18.909c-0.028-0.076-0.044-0.159-0.044-0.239v-0.693H17.48
	c-0.383,0-0.69-0.309-0.69-0.689v-0.692h-0.691c-0.383,0-0.692-0.309-0.692-0.691v-0.69h-0.69c-0.383,0-0.691-0.31-0.691-0.692
	v-0.691h-0.692c-0.082,0-0.164-0.015-0.241-0.044l-0.246,0.247c-0.068,0.065-0.12,0.144-0.153,0.232L9.928,21.18
	c-0.143,0.354,0.031,0.756,0.385,0.897c0.165,0.067,0.349,0.067,0.513,0l6.914-2.767c0.088-0.031,0.168-0.084,0.232-0.15
	l0.246-0.247v-0.004H18.216z"/>
<path fill="#333333" d="M28.124,12.168c0.131,0,0.255,0.026,0.383,0.039c-0.268-0.881-0.644-1.712-1.082-2.504l-1.4,1.401
	c0.22,0.447,0.418,0.906,0.577,1.384c0,0,0.001,0,0.001,0c-1.357,0.59-2.311,1.941-2.311,3.513c0,1.571,0.952,2.922,2.31,3.512
	c-1.109,3.336-3.755,5.976-7.093,7.084c-0.592-1.354-1.94-2.304-3.509-2.304c-1.572,0-2.923,0.953-3.513,2.311c0,0,0-0.001,0-0.001
	c-3.335-1.109-5.975-3.755-7.083-7.093c0,0-0.001,0-0.001,0C6.756,18.918,7.707,17.569,7.707,16c0-1.571-0.952-2.922-2.308-3.512
	c1.11-3.335,3.755-5.975,7.093-7.083c0.592,1.353,1.94,2.303,3.509,2.303c1.569,0,2.918-0.95,3.509-2.304c0,0,0,0,0,0.001
	c0.479,0.159,0.938,0.357,1.385,0.577l1.409-1.41c-0.794-0.44-1.627-0.817-2.511-1.085c0.013,0.13,0.039,0.256,0.039,0.39
	c0-2.112-1.719-3.831-3.831-3.831c-1.979,0-3.593,1.514-3.792,3.441C8.043,4.75,4.759,8.043,3.493,12.207
	c0.128-0.013,0.252-0.039,0.383-0.039c-2.112,0-3.831,1.719-3.831,3.832c0,2.112,1.719,3.831,3.831,3.831
	c-0.134,0-0.26-0.026-0.39-0.039c1.264,4.165,4.557,7.449,8.721,8.715c-0.013-0.128-0.039-0.252-0.039-0.383
	c0,2.112,1.719,3.831,3.832,3.831c2.112,0,3.831-1.719,3.831-3.831c0,0.134-0.026,0.26-0.039,0.391
	c4.165-1.265,7.449-4.558,8.716-8.723c1.93-0.195,3.447-1.812,3.447-3.792C31.955,13.887,30.236,12.168,28.124,12.168z"/>
</svg>
