<?xml version="1.0" encoding="utf-8"?>
<!-- Generator: Adobe Illustrator 15.0.2, SVG Export Plug-In . SVG Version: 6.00 Build 0)  -->
<!DOCTYPE svg PUBLIC "-//W3C//DTD SVG 1.1//EN" "http://www.w3.org/Graphics/SVG/1.1/DTD/svg11.dtd">
<svg version="1.1"
	 id="Ebene_1" xmlns:dc="http://purl.org/dc/elements/1.1/" xmlns:cc="http://creativecommons.org/ns#" xmlns:rdf="http://www.w3.org/1999/02/22-rdf-syntax-ns#"
	 xmlns="http://www.w3.org/2000/svg" xmlns:xlink="http://www.w3.org/1999/xlink" x="0px" y="0px" width="32px" height="32px"
	 viewBox="0 0 32 32" enable-background="new 0 0 32 32" xml:space="preserve">
<path fill="#333333" d="M5.729,29.7c-0.156,0.889,0.72,1.582,1.491,1.188l8.78-4.512l8.777,4.512
	c0.773,0.395,1.648-0.299,1.492-1.184l-1.66-9.461l7.045-6.712c0.66-0.628,0.318-1.776-0.564-1.9l-9.797-1.392l-4.367-8.654
	c-0.242-0.512-0.854-0.73-1.366-0.487c-0.214,0.102-0.386,0.273-0.487,0.487l-4.368,8.656l-9.796,1.392
	c-0.882,0.124-1.224,1.272-0.566,1.9l7.046,6.712l-1.659,9.459V29.7z M15.539,24.167l-7.372,3.787l1.388-7.914
	c0.066-0.369-0.056-0.746-0.325-1.008l-5.813-5.541l8.104-1.152c0.34-0.052,0.634-0.267,0.785-0.576l3.69-7.315l3.695,7.315
	c0.15,0.31,0.445,0.524,0.785,0.576l8.104,1.15l-5.811,5.539c-0.271,0.262-0.395,0.641-0.328,1.012l1.389,7.914l-7.372-3.787
	c-0.289-0.15-0.633-0.15-0.922,0H15.539z"/>
</svg>
