<?xml version="1.0" encoding="utf-8"?>
<!-- Generator: Adobe Illustrator 15.0.2, SVG Export Plug-In . SVG Version: 6.00 Build 0)  -->
<!DOCTYPE svg PUBLIC "-//W3C//DTD SVG 1.1//EN" "http://www.w3.org/Graphics/SVG/1.1/DTD/svg11.dtd">
<svg version="1.1"
	 id="Ebene_1" xmlns:dc="http://purl.org/dc/elements/1.1/" xmlns:cc="http://creativecommons.org/ns#" xmlns:rdf="http://www.w3.org/1999/02/22-rdf-syntax-ns#"
	 xmlns="http://www.w3.org/2000/svg" xmlns:xlink="http://www.w3.org/1999/xlink" x="0px" y="0px" width="32px" height="32px"
	 viewBox="0 0 32 32" enable-background="new 0 0 32 32" xml:space="preserve">
<circle fill="#333333" cx="6.635" cy="25.314" r="5.98"/>
<path fill="#333333" d="M27.647,0.203c-0.269-0.27-0.707-0.27-0.977,0L24.394,2.48l5.127,5.126l2.275-2.276
	c0.271-0.269,0.272-0.708,0.004-0.978c-0.001,0-0.001,0-0.004-0.001L27.647,0.203z M28.542,8.584l-5.125-5.126l-8.988,8.988h0.286
	c0.381,0,0.69,0.31,0.69,0.692v0.69h0.692c0.382,0,0.691,0.31,0.691,0.691v0.692h0.69c0.383,0,0.692,0.309,0.692,0.69v0.691h0.691
	c0.381,0,0.69,0.309,0.69,0.692v0.286L28.542,8.584z M18.216,18.909c-0.029-0.076-0.044-0.159-0.044-0.239v-0.693h-0.692
	c-0.382,0-0.69-0.309-0.69-0.69v-0.692h-0.691c-0.383,0-0.692-0.309-0.692-0.691v-0.69h-0.69c-0.383,0-0.691-0.31-0.691-0.692
	v-0.691h-0.692c-0.082,0-0.164-0.015-0.241-0.044l-0.246,0.247c-0.068,0.065-0.12,0.144-0.153,0.232l-2.766,6.914
	c-0.143,0.354,0.031,0.756,0.385,0.897c0.165,0.067,0.349,0.067,0.513,0l6.914-2.767c0.088-0.031,0.168-0.083,0.232-0.15
	l0.247-0.247V18.909z"/>
</svg>
