<?xml version="1.0" encoding="utf-8"?>
<!-- Generator: Adobe Illustrator 15.0.2, SVG Export Plug-In . SVG Version: 6.00 Build 0)  -->
<!DOCTYPE svg PUBLIC "-//W3C//DTD SVG 1.1//EN" "http://www.w3.org/Graphics/SVG/1.1/DTD/svg11.dtd">
<svg version="1.1"
	 id="Ebene_1" xmlns:dc="http://purl.org/dc/elements/1.1/" xmlns:cc="http://creativecommons.org/ns#" xmlns:rdf="http://www.w3.org/1999/02/22-rdf-syntax-ns#"
	 xmlns="http://www.w3.org/2000/svg" xmlns:xlink="http://www.w3.org/1999/xlink" x="0px" y="0px" width="32px" height="32px"
	 viewBox="0 0 32 32" enable-background="new 0 0 32 32" xml:space="preserve">
<path fill="#993333" d="M16.707,16l5.146-5.146c0.001,0,0.001,0,0.002-0.001c0.194-0.195,0.193-0.512-0.002-0.707c0,0,0,0,0-0.001
	c-0.195-0.195-0.513-0.194-0.707,0.001L16,15.292l-5.146-5.146c-0.195-0.195-0.512-0.196-0.707-0.001c0,0,0,0-0.001,0.001
	c-0.195,0.195-0.196,0.512-0.001,0.707c0,0,0,0,0.001,0.001L15.292,16l-5.146,5.146c-0.195,0.195-0.195,0.512,0,0.707
	s0.513,0.195,0.708,0L16,16.707l5.146,5.146c0.195,0.195,0.512,0.195,0.707,0s0.195-0.512,0-0.707L16.707,16z"/>
</svg>
