<?xml version="1.0" encoding="utf-8"?>
<!-- Generator: Adobe Illustrator 15.0.2, SVG Export Plug-In . SVG Version: 6.00 Build 0)  -->
<!DOCTYPE svg PUBLIC "-//W3C//DTD SVG 1.1//EN" "http://www.w3.org/Graphics/SVG/1.1/DTD/svg11.dtd">
<svg version="1.1"
	 id="Ebene_1" xmlns:dc="http://purl.org/dc/elements/1.1/" xmlns:cc="http://creativecommons.org/ns#" xmlns:rdf="http://www.w3.org/1999/02/22-rdf-syntax-ns#"
	 xmlns="http://www.w3.org/2000/svg" xmlns:xlink="http://www.w3.org/1999/xlink" x="0px" y="0px" width="32px" height="32px"
	 viewBox="0 0 32 32" enable-background="new 0 0 32 32" xml:space="preserve">
<path fill="#333333" d="M16,7.543l10.547,10.547v7.396c0,1.455-1.181,2.637-2.637,2.637H8.09c-1.456,0-2.637-1.182-2.637-2.637
	v-7.396L16,7.543z"/>
<path fill="#333333" d="M28.927,16.075l-4.138-4.138V6.149c0-0.484-0.393-0.879-0.879-0.879h-1.758
	c-0.485,0-0.879,0.395-0.879,0.879v2.272l-4.03-4.03c-0.687-0.686-1.799-0.686-2.485,0L3.074,16.075c-0.344,0.344-0.344,0.9,0,1.244
	c0.343,0.343,0.899,0.343,1.242,0L16,5.634l11.684,11.684c0.344,0.343,0.899,0.343,1.243,0C29.27,16.975,29.27,16.418,28.927,16.075
	z"/>
</svg>
