<?xml version="1.0" encoding="utf-8"?>
<!-- Generator: Adobe Illustrator 15.0.2, SVG Export Plug-In . SVG Version: 6.00 Build 0)  -->
<!DOCTYPE svg PUBLIC "-//W3C//DTD SVG 1.1//EN" "http://www.w3.org/Graphics/SVG/1.1/DTD/svg11.dtd">
<svg version="1.1"
	 id="Ebene_1" xmlns:dc="http://purl.org/dc/elements/1.1/" xmlns:cc="http://creativecommons.org/ns#" xmlns:rdf="http://www.w3.org/1999/02/22-rdf-syntax-ns#"
	 xmlns="http://www.w3.org/2000/svg" xmlns:xlink="http://www.w3.org/1999/xlink" x="0px" y="0px" width="32px" height="32px"
	 viewBox="0 0 32 32" enable-background="new 0 0 32 32" xml:space="preserve">
<path fill="#333333" d="M26.671,0.203c0.269-0.27,0.708-0.271,0.978-0.001c0,0.001,0,0.001,0,0.001l4.148,4.148
	c0.271,0.27,0.271,0.708,0.003,0.978C31.799,5.33,31.799,5.33,31.797,5.33L17.971,19.158c-0.066,0.066-0.146,0.117-0.232,0.152
	l-6.914,2.766c-0.354,0.142-0.757-0.031-0.899-0.385c-0.066-0.166-0.066-0.35,0-0.515l2.766-6.914
	c0.035-0.087,0.086-0.167,0.152-0.231L26.671,0.203z M25.372,3.458l3.171,3.171l1.788-1.788L27.16,1.67L25.372,3.458z M27.564,7.606
	l-3.17-3.17l-8.989,8.988v0.405h0.691c0.382,0,0.691,0.31,0.691,0.691v0.691h0.69c0.383,0,0.691,0.31,0.691,0.691v0.691h0.404
	L27.564,7.606z M14.068,14.763l-0.147,0.146l-2.113,5.282l5.284-2.111l0.146-0.146c-0.271-0.102-0.449-0.357-0.449-0.646v-0.691
	h-0.691c-0.382,0-0.691-0.309-0.691-0.69v-0.691h-0.691C14.426,15.212,14.168,15.032,14.068,14.763z"/>
<path fill="#333333" d="M27.188,12.836c-0.906,0-1.734,0.311-2.409,0.817l-0.715-0.589l-1.356,1.357l0.856,0.705
	c-0.258,0.531-0.415,1.12-0.415,1.749c0,1.385,0.701,2.607,1.767,3.335c-0.001,0-0.001,0-0.001,0l-1.31,3.487
	c-0.159-0.02-0.315-0.049-0.479-0.049c-1.778,0-3.275,1.163-3.813,2.763c0-0.001,0-0.001,0-0.001l-8.649-0.724
	c-0.287-1.825-1.792-3.233-3.66-3.381l-0.847-5.211c1.448-0.614,2.466-2.05,2.466-3.72c0-0.844-0.262-1.627-0.707-2.276l2.581-2.87
	c0.569,0.307,1.21,0.498,1.901,0.498c0.907,0,1.736-0.312,2.411-0.819c-0.001,0-0.001,0.002-0.002,0.002l2.281,1.879l1.356-1.357
	L16.02,6.436c0.257-0.531,0.415-1.12,0.415-1.749c0-2.227-1.812-4.039-4.038-4.039c-2.227,0-4.039,1.812-4.039,4.039
	c0,0.845,0.263,1.628,0.708,2.277l0,0l-2.581,2.87c-0.569-0.307-1.209-0.497-1.9-0.497c-2.227,0-4.039,1.812-4.039,4.039
	c0,2.119,1.646,3.843,3.723,4.007l0.848,5.211c-1.448,0.614-2.466,2.05-2.466,3.72c0,2.228,1.812,4.039,4.039,4.039
	c1.778,0,3.274-1.163,3.812-2.763c0,0.001,0,0.001,0,0.001l8.649,0.724c0.304,1.929,1.962,3.413,3.976,3.413
	c2.227,0,4.038-1.812,4.038-4.039c0-1.385-0.701-2.607-1.766-3.335l1.311-3.487c0.159,0.02,0.315,0.049,0.479,0.049
	c2.227,0,4.038-1.812,4.038-4.039C31.226,14.648,29.414,12.836,27.188,12.836z M12.396,2.559c1.173,0,2.128,0.955,2.128,2.128
	s-0.955,2.129-2.128,2.129c-1.174,0-2.129-0.955-2.129-2.129S11.223,2.559,12.396,2.559z M4.584,15.504
	c-1.174,0-2.129-0.955-2.129-2.129s0.955-2.128,2.129-2.128c1.173,0,2.128,0.955,2.128,2.128S5.757,15.504,4.584,15.504z
	 M6.688,28.441c-1.174,0-2.129-0.955-2.129-2.129s0.955-2.129,2.129-2.129s2.128,0.955,2.128,2.129S7.862,28.441,6.688,28.441z
	 M23.125,29.816c-1.174,0-2.129-0.955-2.129-2.129s0.955-2.129,2.129-2.129s2.128,0.955,2.128,2.129S24.299,29.816,23.125,29.816z
	 M27.188,19.004c-1.174,0-2.129-0.955-2.129-2.129s0.955-2.129,2.129-2.129s2.128,0.955,2.128,2.129S28.361,19.004,27.188,19.004z"
	/>
</svg>
