<?xml version="1.0" encoding="utf-8"?>
<!-- Generator: Adobe Illustrator 15.0.2, SVG Export Plug-In . SVG Version: 6.00 Build 0)  -->
<!DOCTYPE svg PUBLIC "-//W3C//DTD SVG 1.1//EN" "http://www.w3.org/Graphics/SVG/1.1/DTD/svg11.dtd">
<svg version="1.1"
	 id="Ebene_1" xmlns:dc="http://purl.org/dc/elements/1.1/" xmlns:cc="http://creativecommons.org/ns#" xmlns:rdf="http://www.w3.org/1999/02/22-rdf-syntax-ns#"
	 xmlns="http://www.w3.org/2000/svg" xmlns:xlink="http://www.w3.org/1999/xlink" x="0px" y="0px" width="32px" height="32px"
	 viewBox="0 0 32 32" enable-background="new 0 0 32 32" xml:space="preserve">
<rect y="0.013" shape-rendering="auto" image-rendering="auto" color-rendering="auto" fill="none" width="32" height="32"/>
<path fill="#333333" d="M31.125,1.819c0-0.521-0.424-0.945-0.945-0.944c-0.063,0-0.125,0.005-0.184,0.019l-9.27,1.852l-9.268-1.852
	c-0.123-0.024-0.248-0.024-0.372,0L1.634,2.784c-0.441,0.088-0.76,0.476-0.76,0.926v26.47c0,0.521,0.424,0.945,0.946,0.945
	c0.062,0,0.124-0.006,0.185-0.018l9.268-1.854l9.27,1.854c0.121,0.021,0.246,0.021,0.369,0l9.453-1.891
	c0.443-0.088,0.76-0.479,0.76-0.928V1.819z M10.328,27.514V2.972l0.945-0.188l0.946,0.188v24.542l-0.76-0.152
	c-0.123-0.023-0.248-0.023-0.372,0L10.328,27.514z M19.781,29.027V4.485l0.762,0.15c0.121,0.025,0.246,0.025,0.369,0l0.76-0.15
	v24.542l-0.945,0.189L19.781,29.027z"/>
</svg>
