<?xml version="1.0" encoding="utf-8"?>
<!-- Generator: Adobe Illustrator 15.0.2, SVG Export Plug-In . SVG Version: 6.00 Build 0)  -->
<!DOCTYPE svg PUBLIC "-//W3C//DTD SVG 1.1//EN" "http://www.w3.org/Graphics/SVG/1.1/DTD/svg11.dtd">
<svg version="1.1"
	 id="Ebene_1" xmlns:dc="http://purl.org/dc/elements/1.1/" xmlns:cc="http://creativecommons.org/ns#" xmlns:rdf="http://www.w3.org/1999/02/22-rdf-syntax-ns#"
	 xmlns="http://www.w3.org/2000/svg" xmlns:xlink="http://www.w3.org/1999/xlink" x="0px" y="0px" width="32px" height="32px"
	 viewBox="0 0 32 32" enable-background="new 0 0 32 32" xml:space="preserve">
<path fill="#333333" d="M27.646,0.203c-0.269-0.27-0.707-0.27-0.977,0L24.395,2.48l5.127,5.126l2.274-2.276
	c0.271-0.269,0.272-0.708,0.004-0.978c-0.001,0-0.001,0-0.004-0.001L27.646,0.203z M28.542,8.584l-5.125-5.126l-8.988,8.988h0.286
	c0.381,0,0.69,0.31,0.69,0.692v0.69h0.692c0.382,0,0.691,0.31,0.691,0.691v0.692h0.69c0.383,0,0.691,0.309,0.691,0.69v0.691h0.691
	c0.381,0,0.689,0.309,0.689,0.692v0.286L28.542,8.584z M18.216,18.909c-0.028-0.076-0.044-0.159-0.044-0.239v-0.693H17.48
	c-0.383,0-0.69-0.309-0.69-0.689v-0.692h-0.691c-0.383,0-0.692-0.309-0.692-0.691v-0.69h-0.69c-0.383,0-0.691-0.31-0.691-0.692
	v-0.691h-0.692c-0.082,0-0.164-0.015-0.241-0.044l-0.246,0.247c-0.068,0.065-0.12,0.144-0.153,0.232L9.928,21.18
	c-0.143,0.354,0.031,0.756,0.385,0.897c0.165,0.067,0.349,0.067,0.513,0l6.914-2.767c0.088-0.031,0.168-0.084,0.232-0.15
	l0.246-0.247v-0.004H18.216z"/>
<path fill="#333333" d="M27.188,12.836c-0.906,0-1.734,0.311-2.409,0.817l-0.715-0.589l-1.356,1.357l0.856,0.705
	c-0.258,0.531-0.415,1.12-0.415,1.749c0,1.385,0.701,2.607,1.767,3.335c-0.001,0-0.001,0-0.001,0l-1.31,3.487
	c-0.159-0.02-0.315-0.049-0.479-0.049c-1.778,0-3.275,1.163-3.813,2.763c0-0.001,0-0.001,0-0.001l-8.649-0.724
	c-0.287-1.825-1.792-3.233-3.66-3.381l-0.847-5.211c1.448-0.614,2.466-2.05,2.466-3.72c0-0.844-0.262-1.627-0.707-2.276l2.581-2.87
	c0.569,0.307,1.21,0.498,1.901,0.498c0.907,0,1.736-0.312,2.411-0.819c-0.001,0-0.001,0.002-0.002,0.002l2.281,1.879l1.356-1.357
	L16.02,6.436c0.257-0.531,0.415-1.12,0.415-1.749c0-2.227-1.812-4.039-4.038-4.039c-2.227,0-4.039,1.812-4.039,4.039
	c0,0.845,0.263,1.628,0.708,2.277l0,0l-2.581,2.87c-0.569-0.307-1.209-0.497-1.9-0.497c-2.227,0-4.039,1.812-4.039,4.039
	c0,2.119,1.646,3.843,3.723,4.007l0.848,5.211c-1.448,0.614-2.466,2.05-2.466,3.72c0,2.228,1.812,4.039,4.039,4.039
	c1.778,0,3.274-1.163,3.812-2.763c0,0.001,0,0.001,0,0.001l8.649,0.724c0.304,1.929,1.962,3.413,3.976,3.413
	c2.227,0,4.038-1.812,4.038-4.039c0-1.385-0.701-2.607-1.766-3.335l1.311-3.487c0.159,0.02,0.315,0.049,0.479,0.049
	c2.227,0,4.038-1.812,4.038-4.039C31.226,14.648,29.414,12.836,27.188,12.836z"/>
</svg>
