<?xml version="1.0" encoding="utf-8"?>
<!-- Generator: Adobe Illustrator 15.0.2, SVG Export Plug-In . SVG Version: 6.00 Build 0)  -->
<!DOCTYPE svg PUBLIC "-//W3C//DTD SVG 1.1//EN" "http://www.w3.org/Graphics/SVG/1.1/DTD/svg11.dtd">
<svg version="1.1"
	 id="Ebene_1" xmlns:dc="http://purl.org/dc/elements/1.1/" xmlns:cc="http://creativecommons.org/ns#" xmlns:rdf="http://www.w3.org/1999/02/22-rdf-syntax-ns#"
	 xmlns="http://www.w3.org/2000/svg" xmlns:xlink="http://www.w3.org/1999/xlink" x="0px" y="0px" width="32px" height="32px"
	 viewBox="0 0 32 32" enable-background="new 0 0 32 32" xml:space="preserve">
<path fill="#333333" d="M23.486,10.423l-3.401-3.397l-4.369-4.374C13.947,0.884,11.606,0,9.266,0S4.583,0.884,2.814,2.652
	c-3.538,3.538-3.538,9.366,0,12.903h0.002c1.44,1.438,2.909,2.909,4.369,4.369c0.971,0.972,1.933,1.932,2.903,2.903l0.496,0.496
	l0.99,0.992l4.963-4.963l-0.992-0.99l-3.398-3.399c-1.462-1.462-2.928-2.932-4.372-4.373c-0.862-0.864-0.864-2.113,0-2.977
	c0.432-0.432,0.961-0.647,1.49-0.647c0.529,0,1.058,0.215,1.49,0.647l4.369,4.373l3.399,3.398l0.992,0.989l4.962-4.961
	L23.486,10.423z M12.077,6.291c-0.77-0.772-1.77-1.196-2.813-1.196c-1.042,0-2.042,0.424-2.813,1.196
	c-1.602,1.601-1.603,4.018,0.001,5.625c0.963,0.961,1.936,1.934,2.91,2.91l1.46,1.46l-2.315,2.315l0,0l-1.198-1.198l-3.172-3.171
	l-0.097-0.097c-1.297-1.347-2.009-3.127-2.009-5.03c0-1.949,0.747-3.771,2.105-5.128c1.357-1.357,3.179-2.104,5.129-2.104
	c1.949,0,3.769,0.747,5.126,2.104l4.37,4.373l-2.315,2.315L12.077,6.291z"/>
<rect x="1.88" y="20.66" transform="matrix(0.7046 0.7096 -0.7096 0.7046 16.0962 4.5236)" fill="#333333" width="1.47" height="1.871"/>
<rect x="5.645" y="24.94" transform="matrix(0.7045 0.7097 -0.7097 0.7045 20.3925 2.7714)" fill="#333333" width="2.447" height="1.87"/>
<rect x="3.346" y="22.627" transform="matrix(0.7049 0.7093 -0.7093 0.7049 18.061 3.7118)" fill="#333333" width="2.447" height="1.871"/>
<rect x="16.283" y="23.597" transform="matrix(0.7083 0.7059 -0.7059 0.7083 22.7282 -4.8388)" fill="#333333" width="1.872" height="2.968"/>
<rect x="19.077" y="20.795" transform="matrix(0.7082 0.7061 -0.7061 0.7082 21.571 -7.6273)" fill="#333333" width="1.87" height="2.968"/>
<rect x="21.869" y="17.995" transform="matrix(0.7076 0.7066 -0.7066 0.7076 20.4303 -10.4186)" fill="#333333" width="1.871" height="2.966"/>
<rect x="24.664" y="15.193" transform="matrix(0.7081 0.7061 -0.7061 0.7081 19.2457 -13.2088)" fill="#333333" width="1.873" height="2.967"/>
<rect x="27.458" y="12.389" transform="matrix(0.7083 0.7059 -0.7059 0.7083 18.0766 -15.9968)" fill="#333333" width="1.871" height="2.969"/>
<rect x="29.722" y="10.868" transform="matrix(0.7083 0.7059 -0.7059 0.7083 17.1339 -18.2576)" fill="#333333" width="1.871" height="1.469"/>
<path fill="#333333" d="M14.915,28.717l1.22-1.223l-1.325-1.323l-1.219,1.223l-1.95-1.949L9.693,27.39l-0.725-0.729l-1.327,1.317
	l0.729,0.734L8.363,28.72l2.615,2.615L11.64,32l0.741-0.743l2.537-2.537L14.915,28.717z M11.64,28.091l0.63,0.629l-0.254,0.254
	l0-0.001l-0.375,0.375l-0.374-0.376l-0.003,0.003L11.01,28.72L11.64,28.091z"/>
</svg>
