<?xml version="1.0" encoding="utf-8"?>
<!-- Generator: Adobe Illustrator 15.0.2, SVG Export Plug-In . SVG Version: 6.00 Build 0)  -->
<!DOCTYPE svg PUBLIC "-//W3C//DTD SVG 1.1//EN" "http://www.w3.org/Graphics/SVG/1.1/DTD/svg11.dtd">
<svg version="1.1"
	 id="Ebene_1" xmlns:dc="http://purl.org/dc/elements/1.1/" xmlns:cc="http://creativecommons.org/ns#" xmlns:rdf="http://www.w3.org/1999/02/22-rdf-syntax-ns#"
	 xmlns="http://www.w3.org/2000/svg" xmlns:xlink="http://www.w3.org/1999/xlink" x="0px" y="0px" width="32px" height="32px"
	 viewBox="0 0 32 32" enable-background="new 0 0 32 32" xml:space="preserve">
<path fill="#333333" d="M25.169,21.562c-1.199-3.019-1.8-5.195-2.238-6.786c-0.65-2.358-1.021-3.701-2.592-4.247
	c0.98-1.065,1.553-2.477,1.553-3.987c0-3.248-2.644-5.891-5.893-5.891c-3.248,0-5.892,2.643-5.892,5.891
	c0,1.511,0.573,2.923,1.553,3.987c-1.57,0.547-1.94,1.89-2.591,4.247c-0.438,1.591-1.039,3.768-2.238,6.786
	c-0.166,0.419,0.001,0.896,0.394,1.118l2.396,1.361c0.232,0.133,0.514,0.154,0.764,0.061c0.251-0.095,0.447-0.296,0.535-0.549
	l0.031-0.091v6.984c0,0.499,0.404,0.903,0.903,0.903h8.293c0.499,0,0.903-0.404,0.903-0.903v-6.984l0.031,0.091
	c0.088,0.253,0.284,0.454,0.535,0.549c0.25,0.094,0.531,0.072,0.764-0.061l2.396-1.361C25.168,22.458,25.335,21.98,25.169,21.562z"
	/>
</svg>
