<?xml version="1.0" encoding="utf-8"?>
<!-- Generator: Adobe Illustrator 15.0.2, SVG Export Plug-In . SVG Version: 6.00 Build 0)  -->
<!DOCTYPE svg PUBLIC "-//W3C//DTD SVG 1.1//EN" "http://www.w3.org/Graphics/SVG/1.1/DTD/svg11.dtd">
<svg version="1.1"
	 id="Ebene_1" xmlns:dc="http://purl.org/dc/elements/1.1/" xmlns:cc="http://creativecommons.org/ns#" xmlns:rdf="http://www.w3.org/1999/02/22-rdf-syntax-ns#"
	 xmlns="http://www.w3.org/2000/svg" xmlns:xlink="http://www.w3.org/1999/xlink" x="0px" y="0px" width="32px" height="32px"
	 viewBox="0 0 32 32" enable-background="new 0 0 32 32" xml:space="preserve">
<path fill="#333333" d="M28.926,16.075l-4.136-4.136V6.15c0-0.484-0.395-0.879-0.879-0.879h-1.76c-0.484,0-0.879,0.395-0.879,0.879
	v2.271l-4.029-4.029c-0.687-0.687-1.8-0.687-2.486,0L3.075,16.075c-0.343,0.344-0.343,0.901,0,1.243
	c0.343,0.344,0.899,0.344,1.243,0l1.136-1.136v9.304c0,1.455,1.181,2.638,2.637,2.638h15.821c1.455,0,2.636-1.183,2.636-2.638
	v-9.305l1.137,1.137c0.343,0.344,0.898,0.344,1.242,0C29.27,16.976,29.27,16.419,28.926,16.075z M24.79,25.485
	c0,0.484-0.395,0.879-0.879,0.879H8.09c-0.485,0-0.878-0.395-0.878-0.879V14.423L16,5.635l8.79,8.789V25.485z"/>
</svg>
