<?xml version="1.0" encoding="utf-8"?>
<!-- Generator: Adobe Illustrator 15.0.2, SVG Export Plug-In . SVG Version: 6.00 Build 0)  -->
<!DOCTYPE svg PUBLIC "-//W3C//DTD SVG 1.1//EN" "http://www.w3.org/Graphics/SVG/1.1/DTD/svg11.dtd">
<svg version="1.1"
	 id="Ebene_1" xmlns:dc="http://purl.org/dc/elements/1.1/" xmlns:cc="http://creativecommons.org/ns#" xmlns:rdf="http://www.w3.org/1999/02/22-rdf-syntax-ns#"
	 xmlns="http://www.w3.org/2000/svg" xmlns:xlink="http://www.w3.org/1999/xlink" x="0px" y="0px" width="32px" height="32px"
	 viewBox="0 0 32 32" enable-background="new 0 0 32 32" xml:space="preserve">
<path fill="#333333" d="M16,6.773c-2.215,0.006-4.353,0.806-6.029,2.251c-1.284,1.107-2.216,2.549-2.457,3.997
	c-2.812,0.621-4.935,3.07-4.935,6.029c0,3.436,2.865,6.176,6.344,6.176h14.941c3.044,0,5.557-2.398,5.557-5.412
	c0-2.746-2.084-4.98-4.754-5.359C24.259,10.127,20.512,6.773,16,6.773z M19.948,18.271l-3.355,3.355
	c-0.326,0.327-0.858,0.329-1.186,0.003c0-0.001,0-0.001,0-0.003l-3.355-3.355c-0.328-0.327-0.328-0.858,0-1.186
	c0.327-0.328,0.858-0.328,1.187,0l1.923,1.923v-6.363c0-0.464,0.375-0.839,0.839-0.839s0.839,0.375,0.839,0.839v6.363l1.923-1.923
	c0.328-0.328,0.859-0.328,1.187,0C20.276,17.412,20.276,17.943,19.948,18.271z"/>
</svg>
