<?xml version="1.0" encoding="utf-8"?>
<!-- Generator: Adobe Illustrator 15.0.2, SVG Export Plug-In . SVG Version: 6.00 Build 0)  -->
<!DOCTYPE svg PUBLIC "-//W3C//DTD SVG 1.1//EN" "http://www.w3.org/Graphics/SVG/1.1/DTD/svg11.dtd">
<svg version="1.1"
	 id="Ebene_1" xmlns:dc="http://purl.org/dc/elements/1.1/" xmlns:cc="http://creativecommons.org/ns#" xmlns:rdf="http://www.w3.org/1999/02/22-rdf-syntax-ns#"
	 xmlns="http://www.w3.org/2000/svg" xmlns:xlink="http://www.w3.org/1999/xlink" x="0px" y="0px" width="32px" height="32px"
	 viewBox="0 0 32 32" enable-background="new 0 0 32 32" xml:space="preserve">
<path fill="#333333" d="M8.25,8.249c0-4.28,3.47-7.75,7.75-7.749c4.28,0,7.75,3.47,7.75,7.749c0,3.908-2.906,7.202-6.781,7.69
	v10.717c0,0.534-0.434,0.969-0.969,0.969c-0.535,0-0.969-0.435-0.969-0.969V15.943c-3.877-0.49-6.783-3.788-6.781-7.696V8.249z"/>
<path fill="#333333" d="M13.08,24.863c0.088,0.525-0.271,1.025-0.796,1.111c-1.38,0.231-2.48,0.572-3.208,0.958
	c-0.267,0.129-0.509,0.301-0.717,0.511c-0.045,0.054-0.083,0.112-0.109,0.177v0.005l0.004,0.016c0.007,0.022,0.019,0.045,0.03,0.064
	c0.077,0.113,0.172,0.209,0.281,0.291c0.32,0.25,0.843,0.522,1.576,0.765c1.453,0.484,3.525,0.802,5.858,0.802
	c2.333,0,4.405-0.315,5.858-0.802c0.734-0.244,1.256-0.515,1.576-0.765c0.111-0.079,0.207-0.178,0.283-0.291
	c0.012-0.02,0.021-0.042,0.029-0.064l0.004-0.016v-0.007c-0.027-0.064-0.064-0.125-0.109-0.175
	c-0.209-0.212-0.451-0.384-0.717-0.511c-0.729-0.386-1.828-0.727-3.207-0.958c-0.531-0.071-0.902-0.56-0.83-1.09
	c0.072-0.529,0.561-0.899,1.09-0.828c0.02,0.004,0.037,0.006,0.057,0.009c1.492,0.246,2.814,0.637,3.793,1.151
	c0.893,0.471,1.861,1.247,1.861,2.408c0,0.825-0.504,1.457-1.055,1.893c-0.561,0.442-1.318,0.802-2.162,1.082
	c-1.701,0.567-3.988,0.9-6.471,0.9c-2.482,0-4.771-0.333-6.471-0.9c-0.845-0.28-1.602-0.64-2.163-1.082
	c-0.551-0.436-1.054-1.067-1.054-1.893c0-1.161,0.969-1.938,1.861-2.408c0.979-0.515,2.301-0.905,3.792-1.151
	C12.494,23.977,12.991,24.335,13.08,24.863z"/>
</svg>
