<?xml version="1.0" encoding="utf-8"?>
<!-- Generator: Adobe Illustrator 15.0.2, SVG Export Plug-In . SVG Version: 6.00 Build 0)  -->
<!DOCTYPE svg PUBLIC "-//W3C//DTD SVG 1.1//EN" "http://www.w3.org/Graphics/SVG/1.1/DTD/svg11.dtd">
<svg version="1.1"
	 id="Ebene_1" xmlns:dc="http://purl.org/dc/elements/1.1/" xmlns:cc="http://creativecommons.org/ns#" xmlns:rdf="http://www.w3.org/1999/02/22-rdf-syntax-ns#"
	 xmlns="http://www.w3.org/2000/svg" xmlns:xlink="http://www.w3.org/1999/xlink" x="0px" y="0px" width="32px" height="32px"
	 viewBox="0 0 32 32" enable-background="new 0 0 32 32" xml:space="preserve">
<path fill="#333333" d="M4.404,7.718c0-1.373,1.112-2.484,2.485-2.484h4.579c1.587,0,2.915,0.928,3.828,1.961
	c0.679,0.768,1.5,1.352,2.361,1.352h7.453c1.373,0,2.485,1.112,2.485,2.484v1.061c0.944,0.439,1.556,1.451,1.417,2.561l-1.06,8.488
	c-0.259,2.074-2.023,3.629-4.114,3.627H8.158c-2.089,0-3.851-1.556-4.11-3.627l-1.06-8.488c-0.134-1.071,0.438-2.105,1.416-2.561
	V7.718z M6.061,11.859h19.877v-0.828c0-0.458-0.37-0.828-0.829-0.828h-7.453c-1.597,0-2.833-1.042-3.601-1.911
	c-0.749-0.849-1.667-1.402-2.587-1.402H6.889c-0.458,0-0.828,0.371-0.828,0.828V11.859z M5.453,13.516
	c-0.457,0-0.828,0.371-0.828,0.828c0,0.035,0.002,0.068,0.007,0.103l1.06,8.486c0.155,1.246,1.213,2.178,2.467,2.178h15.684
	c1.252,0,2.311-0.932,2.465-2.178l1.062-8.486c0.057-0.454-0.265-0.868-0.72-0.924c-0.034-0.004-0.068-0.006-0.102-0.006H5.453z"/>
</svg>
