<?xml version="1.0" encoding="utf-8"?>
<!-- Generator: Adobe Illustrator 15.0.2, SVG Export Plug-In . SVG Version: 6.00 Build 0)  -->
<!DOCTYPE svg PUBLIC "-//W3C//DTD SVG 1.1//EN" "http://www.w3.org/Graphics/SVG/1.1/DTD/svg11.dtd">
<svg version="1.1"
	 id="Ebene_1" xmlns:dc="http://purl.org/dc/elements/1.1/" xmlns:cc="http://creativecommons.org/ns#" xmlns:rdf="http://www.w3.org/1999/02/22-rdf-syntax-ns#"
	 xmlns="http://www.w3.org/2000/svg" xmlns:xlink="http://www.w3.org/1999/xlink" x="0px" y="0px" width="32px" height="32px"
	 viewBox="0 0 32 32" enable-background="new 0 0 32 32" xml:space="preserve">
<path fill="#333333" d="M1.394,5.045c0-2.017,1.635-3.651,3.651-3.651h21.91c2.017,0,3.651,1.635,3.651,3.651v21.91
	c0,2.017-1.635,3.651-3.651,3.651H5.045c-2.017,0-3.651-1.635-3.651-3.651V5.045z M17.697,13.422l-4.18,0.524l-0.149,0.693
	l0.82,0.151c0.537,0.129,0.642,0.321,0.526,0.855l-1.347,6.334c-0.356,1.637,0.19,2.407,1.475,2.407c0.995,0,2.15-0.46,2.675-1.092
	l0.16-0.76c-0.365,0.321-0.898,0.45-1.253,0.45c-0.502,0-0.686-0.354-0.553-0.974L17.697,13.422z M16,11.436
	c1.009,0,1.826-0.817,1.826-1.826c0-1.008-0.817-1.826-1.826-1.826s-1.826,0.818-1.826,1.826C14.174,10.619,14.991,11.436,16,11.436
	z"/>
</svg>
