<?xml version="1.0" encoding="utf-8"?>
<!-- Generator: Adobe Illustrator 15.0.2, SVG Export Plug-In . SVG Version: 6.00 Build 0)  -->
<!DOCTYPE svg PUBLIC "-//W3C//DTD SVG 1.1//EN" "http://www.w3.org/Graphics/SVG/1.1/DTD/svg11.dtd">
<svg version="1.1"
	 id="Ebene_1" xmlns:dc="http://purl.org/dc/elements/1.1/" xmlns:cc="http://creativecommons.org/ns#" xmlns:rdf="http://www.w3.org/1999/02/22-rdf-syntax-ns#"
	 xmlns="http://www.w3.org/2000/svg" xmlns:xlink="http://www.w3.org/1999/xlink" x="0px" y="0px" width="32px" height="32px"
	 viewBox="0 0 32 32" enable-background="new 0 0 32 32" xml:space="preserve">
<path fill="#333333" d="M28.031,20.531c-0.086,0-0.165,0.021-0.249,0.025l-2.161-6.789c1.136-0.691,1.888-1.928,1.888-3.381
	c0-2.227-1.743-3.971-3.97-3.971c-1.586,0-2.913,0.895-3.553,2.209c0,0,0,0,0,0l-5.643-1.238c0.001,0.039,0.011,0.074,0.011,0.112
	c0-2.226-1.743-3.969-3.968-3.969c-2.227,0-3.971,1.744-3.971,3.969c0,1.268,0.577,2.365,1.477,3.087l-3.169,6.812
	c0.001,0,0.002,0,0.003,0.002c-0.245-0.047-0.497-0.074-0.758-0.074C1.743,17.326,0,19.068,0,21.295
	c0,2.225,1.743,3.969,3.969,3.969s3.969-1.744,3.969-3.969c0-1.268-0.577-2.365-1.476-3.088l3.169-6.813
	c0.244,0.046,0.496,0.074,0.756,0.074c1.585,0,2.912-0.894,3.552-2.208l5.643,1.238c-0.001-0.038-0.011-0.073-0.011-0.111
	c0,2.225,1.743,3.968,3.969,3.968c0.086,0,0.165-0.019,0.249-0.024l2.161,6.789c-1.137,0.691-1.888,1.93-1.888,3.383
	c0,2.225,1.744,3.969,3.97,3.969S32,26.727,32,24.502C32,22.275,30.257,20.531,28.031,20.531z M3.969,23.348
	c-1.15,0-2.052-0.902-2.052-2.053s0.901-2.053,2.052-2.053c1.151,0,2.052,0.902,2.052,2.053S5.12,23.348,3.969,23.348z
	 M10.387,9.551c-1.151,0-2.054-0.901-2.054-2.052s0.902-2.052,2.054-2.052c1.15,0,2.051,0.901,2.051,2.052
	S11.537,9.551,10.387,9.551z M23.539,12.438c-1.15,0-2.052-0.9-2.052-2.051c0-1.151,0.901-2.054,2.052-2.054
	c1.151,0,2.053,0.902,2.053,2.054C25.592,11.538,24.69,12.438,23.539,12.438z M28.031,26.553c-1.15,0-2.053-0.9-2.053-2.051
	s0.902-2.053,2.053-2.053s2.052,0.902,2.052,2.053S29.182,26.553,28.031,26.553z"/>
</svg>
