<?xml version="1.0" encoding="utf-8"?>
<!-- Generator: Adobe Illustrator 15.0.2, SVG Export Plug-In . SVG Version: 6.00 Build 0)  -->
<!DOCTYPE svg PUBLIC "-//W3C//DTD SVG 1.1//EN" "http://www.w3.org/Graphics/SVG/1.1/DTD/svg11.dtd">
<svg version="1.1"
	 id="Ebene_1" xmlns:dc="http://purl.org/dc/elements/1.1/" xmlns:cc="http://creativecommons.org/ns#" xmlns:rdf="http://www.w3.org/1999/02/22-rdf-syntax-ns#"
	 xmlns="http://www.w3.org/2000/svg" xmlns:xlink="http://www.w3.org/1999/xlink" x="0px" y="0px" width="32px" height="32px"
	 viewBox="0 0 32 32" enable-background="new 0 0 32 32" xml:space="preserve">
<path fill="#333333" d="M27.646,0.203c-0.269-0.27-0.707-0.27-0.977,0L24.395,2.48l5.127,5.126l2.274-2.276
	c0.271-0.269,0.272-0.708,0.004-0.978c-0.001,0-0.001,0-0.004-0.001L27.646,0.203z M28.542,8.584l-5.125-5.126l-8.988,8.988h0.286
	c0.381,0,0.69,0.31,0.69,0.692v0.69h0.692c0.382,0,0.691,0.31,0.691,0.691v0.692h0.69c0.383,0,0.691,0.309,0.691,0.69v0.691h0.691
	c0.381,0,0.689,0.309,0.689,0.692v0.286L28.542,8.584z M18.216,18.909c-0.028-0.076-0.044-0.159-0.044-0.239v-0.693H17.48
	c-0.383,0-0.69-0.309-0.69-0.689v-0.692h-0.691c-0.383,0-0.692-0.309-0.692-0.691v-0.69h-0.69c-0.383,0-0.691-0.31-0.691-0.692
	v-0.691h-0.692c-0.082,0-0.164-0.015-0.241-0.044l-0.246,0.247c-0.068,0.065-0.12,0.144-0.153,0.232L9.928,21.18
	c-0.143,0.354,0.031,0.756,0.385,0.897c0.165,0.067,0.349,0.067,0.513,0l6.914-2.767c0.088-0.031,0.168-0.084,0.232-0.15
	l0.246-0.247v-0.004H18.216z"/>
<path fill="#333333" d="M25.625,22.586c-1.873,0-3.438,1.287-3.893,3.02L10.62,25.422c-0.369-1.63-1.725-2.873-3.404-3.095
	L5.87,9.909c1.552-0.564,2.669-2.04,2.669-3.784c0-2.227-1.812-4.039-4.039-4.039S0.461,3.898,0.461,6.125
	c0,2.046,1.535,3.724,3.511,3.986l1.346,12.418c-1.551,0.564-2.668,2.039-2.668,3.783c0,2.228,1.812,4.039,4.039,4.039
	c1.873,0,3.437-1.287,3.892-3.02l11.113,0.184c0.407,1.799,2.012,3.148,3.933,3.148c2.228,0,4.039-1.812,4.039-4.039
	S27.853,22.586,25.625,22.586z"/>
</svg>
