<?xml version="1.0" encoding="utf-8"?>
<!-- Generator: Adobe Illustrator 15.0.2, SVG Export Plug-In . SVG Version: 6.00 Build 0)  -->
<!DOCTYPE svg PUBLIC "-//W3C//DTD SVG 1.1//EN" "http://www.w3.org/Graphics/SVG/1.1/DTD/svg11.dtd">
<svg version="1.1"
	 id="Ebene_1" xmlns:dc="http://purl.org/dc/elements/1.1/" xmlns:cc="http://creativecommons.org/ns#" xmlns:rdf="http://www.w3.org/1999/02/22-rdf-syntax-ns#"
	 xmlns="http://www.w3.org/2000/svg" xmlns:xlink="http://www.w3.org/1999/xlink" x="0px" y="0px" width="32px" height="32px"
	 viewBox="0 0 32 32" enable-background="new 0 0 32 32" xml:space="preserve">
<path fill="#333333" d="M8.697,1.395c-2.017,0-3.651,1.635-3.651,3.651v21.908c0,2.017,1.635,3.651,3.651,3.651h14.605
	c2.017,0,3.651-1.635,3.651-3.651V5.046c0-2.017-1.635-3.651-3.651-3.651H8.697z M8.697,3.22h14.605
	c1.009,0,1.826,0.817,1.826,1.826v21.908c0,1.009-0.817,1.826-1.826,1.826H8.697c-1.008,0-1.826-0.817-1.826-1.826V5.046
	C6.872,4.038,7.689,3.22,8.697,3.22z"/>
<path fill="#333333" d="M9.798,23.461c-0.356-0.141-0.643-0.417-0.8-0.767c-0.355-0.707-0.237-1.417,0.146-2.013
	c0.361-0.56,0.96-1.035,1.638-1.437c0.858-0.485,1.765-0.881,2.706-1.177c0.731-1.313,1.378-2.671,1.939-4.065
	c-0.335-0.762-0.598-1.554-0.785-2.365c-0.157-0.73-0.217-1.453-0.084-2.074c0.137-0.646,0.5-1.227,1.187-1.503
	c0.351-0.14,0.73-0.219,1.1-0.14c0.376,0.079,0.695,0.324,0.871,0.666c0.16,0.3,0.218,0.65,0.232,0.982
	c0.012,0.342-0.021,0.721-0.086,1.121c-0.153,0.932-0.494,2.071-0.95,3.277c0.505,1.077,1.104,2.108,1.788,3.078
	c0.813-0.064,1.63-0.034,2.436,0.091c0.665,0.119,1.341,0.354,1.754,0.849c0.218,0.262,0.352,0.583,0.364,0.946
	c0.015,0.35-0.086,0.695-0.252,1.027c-0.144,0.307-0.367,0.568-0.646,0.76c-0.274,0.18-0.602,0.268-0.931,0.253
	c-0.603-0.026-1.195-0.36-1.703-0.763c-0.619-0.512-1.178-1.095-1.663-1.733c-1.235,0.139-2.454,0.387-3.646,0.742
	c-0.546,0.966-1.17,1.888-1.864,2.756c-0.529,0.639-1.11,1.194-1.69,1.438C10.524,23.56,10.145,23.577,9.798,23.461z M12.315,19.99
	c-0.303,0.139-0.583,0.285-0.838,0.435c-0.599,0.355-0.988,0.699-1.181,0.999c-0.171,0.266-0.175,0.456-0.073,0.659
	c0.019,0.039,0.036,0.066,0.047,0.08c0.022-0.005,0.044-0.012,0.064-0.022c0.25-0.101,0.648-0.428,1.16-1.043
	C11.785,20.742,12.059,20.372,12.315,19.99z M15.31,17.562c0.61-0.143,1.225-0.26,1.843-0.351c-0.333-0.509-0.643-1.032-0.931-1.567
	C15.937,16.292,15.632,16.931,15.31,17.562L15.31,17.562z M19.776,18.386c0.272,0.296,0.538,0.545,0.793,0.747
	c0.438,0.348,0.744,0.462,0.909,0.469c0.045,0.004,0.091-0.006,0.127-0.028c0.078-0.061,0.136-0.14,0.173-0.229
	c0.066-0.11,0.102-0.235,0.108-0.365c-0.001-0.043-0.018-0.084-0.048-0.116c-0.095-0.112-0.365-0.276-0.946-0.382
	C20.523,18.421,20.15,18.389,19.776,18.386L19.776,18.386z M16.143,11.983c0.153-0.496,0.275-1,0.365-1.511
	c0.057-0.343,0.078-0.627,0.068-0.85c0.002-0.122-0.018-0.245-0.057-0.361c-0.092,0.011-0.182,0.036-0.266,0.073
	c-0.159,0.063-0.289,0.194-0.358,0.516c-0.073,0.351-0.054,0.857,0.084,1.501c0.044,0.202,0.099,0.415,0.165,0.631H16.143z"/>
</svg>
