<?xml version="1.0" encoding="utf-8"?>
<!-- Generator: Adobe Illustrator 15.0.2, SVG Export Plug-In . SVG Version: 6.00 Build 0)  -->
<!DOCTYPE svg PUBLIC "-//W3C//DTD SVG 1.1//EN" "http://www.w3.org/Graphics/SVG/1.1/DTD/svg11.dtd">
<svg version="1.1"
	 id="Ebene_1" xmlns:dc="http://purl.org/dc/elements/1.1/" xmlns:cc="http://creativecommons.org/ns#" xmlns:rdf="http://www.w3.org/1999/02/22-rdf-syntax-ns#"
	 xmlns="http://www.w3.org/2000/svg" xmlns:xlink="http://www.w3.org/1999/xlink" x="0px" y="0px" width="32px" height="32px"
	 viewBox="0 0 32 32" enable-background="new 0 0 32 32" xml:space="preserve">
<path fill="#333333" d="M28.124,19.831c-2.113,0-3.832-1.719-3.832-3.831c0-2.113,1.719-3.832,3.832-3.832
	c2.112,0,3.831,1.719,3.831,3.832C31.955,18.112,30.236,19.831,28.124,19.831z M28.124,14.079c-1.06,0-1.922,0.862-1.922,1.921
	s0.862,1.921,1.922,1.921S30.045,17.06,30.045,16S29.184,14.079,28.124,14.079z"/>
<path fill="#333333" d="M16,31.955c-2.113,0-3.832-1.719-3.832-3.831c0-2.113,1.719-3.832,3.832-3.832
	c2.112,0,3.831,1.719,3.831,3.832C19.831,30.236,18.112,31.955,16,31.955z M16,26.202c-1.06,0-1.921,0.862-1.921,1.922
	S14.94,30.045,16,30.045s1.921-0.861,1.921-1.921S17.06,26.202,16,26.202z"/>
<path fill="#333333" d="M16,7.707c-2.113,0-3.832-1.719-3.832-3.831S13.887,0.045,16,0.045c2.112,0,3.831,1.719,3.831,3.831
	S18.112,7.707,16,7.707z M16,1.955c-1.06,0-1.921,0.862-1.921,1.921S14.94,5.797,16,5.797s1.921-0.862,1.921-1.921
	S17.06,1.955,16,1.955z"/>
<path fill="#333333" d="M3.876,19.831c-2.112,0-3.831-1.719-3.831-3.831c0-2.113,1.719-3.832,3.831-3.832S7.707,13.887,7.707,16
	C7.707,18.112,5.988,19.831,3.876,19.831z M3.876,14.079c-1.059,0-1.921,0.862-1.921,1.921s0.862,1.921,1.921,1.921
	S5.796,17.06,5.796,16S4.935,14.079,3.876,14.079z"/>
<path fill="#333333" d="M3.876,12.168c0.542,0,1.055,0.116,1.522,0.319c1.11-3.335,3.755-5.975,7.093-7.083
	c-0.206-0.469-0.323-0.984-0.323-1.528c0-0.134,0.026-0.26,0.04-0.39C8.043,4.75,4.759,8.043,3.493,12.207
	C3.621,12.194,3.745,12.168,3.876,12.168z"/>
<path fill="#333333" d="M28.124,19.831c-0.541,0-1.055-0.116-1.522-0.319c-1.109,3.336-3.755,5.976-7.093,7.084
	c0.205,0.469,0.322,0.984,0.322,1.528c0,0.134-0.026,0.26-0.039,0.391c4.165-1.265,7.449-4.558,8.716-8.723
	C28.38,19.806,28.255,19.831,28.124,19.831z"/>
<path fill="#333333" d="M12.168,28.124c0-0.541,0.116-1.055,0.319-1.522c-3.335-1.109-5.975-3.755-7.083-7.093
	c-0.469,0.205-0.984,0.322-1.528,0.322c-0.134,0-0.26-0.026-0.39-0.039c1.264,4.165,4.557,7.449,8.721,8.715
	C12.194,28.379,12.168,28.255,12.168,28.124z"/>
<path fill="#333333" d="M26.671,0.203c0.269-0.27,0.708-0.271,0.978-0.001c0,0.001,0,0.001,0,0.001l4.148,4.148
	c0.271,0.27,0.271,0.708,0.003,0.978C31.799,5.33,31.799,5.33,31.797,5.33L17.971,19.158c-0.066,0.066-0.146,0.117-0.232,0.152
	l-6.914,2.766c-0.354,0.142-0.757-0.031-0.899-0.385c-0.066-0.166-0.066-0.35,0-0.515l2.766-6.914
	c0.035-0.087,0.086-0.167,0.152-0.231L26.671,0.203z M25.372,3.458l3.171,3.171l1.788-1.788L27.16,1.67L25.372,3.458z M27.564,7.606
	l-3.17-3.17l-8.989,8.988v0.405h0.691c0.382,0,0.691,0.31,0.691,0.691v0.691h0.69c0.383,0,0.691,0.31,0.691,0.691v0.691h0.404
	L27.564,7.606z M14.068,14.763l-0.147,0.146l-2.113,5.282l5.284-2.111l0.146-0.146c-0.271-0.102-0.449-0.357-0.449-0.646v-0.691
	h-0.691c-0.382,0-0.691-0.309-0.691-0.69v-0.691h-0.691C14.426,15.212,14.168,15.032,14.068,14.763z"/>
<path fill="#333333" d="M20.894,5.981l1.409-1.41c-0.794-0.44-1.627-0.817-2.511-1.085c0.013,0.13,0.039,0.256,0.039,0.39
	c0,0.543-0.117,1.059-0.322,1.528C19.987,5.563,20.446,5.762,20.894,5.981z"/>
<path fill="#333333" d="M26.024,11.104c0.22,0.447,0.418,0.906,0.577,1.384c0.468-0.203,0.981-0.319,1.522-0.319
	c0.131,0,0.255,0.026,0.383,0.039c-0.268-0.881-0.644-1.712-1.082-2.504L26.024,11.104z"/>
</svg>
