<?xml version="1.0" encoding="utf-8"?>
<!-- Generator: Adobe Illustrator 15.0.2, SVG Export Plug-In . SVG Version: 6.00 Build 0)  -->
<!DOCTYPE svg PUBLIC "-//W3C//DTD SVG 1.1//EN" "http://www.w3.org/Graphics/SVG/1.1/DTD/svg11.dtd">
<svg version="1.1"
	 id="Ebene_1" xmlns:dc="http://purl.org/dc/elements/1.1/" xmlns:cc="http://creativecommons.org/ns#" xmlns:rdf="http://www.w3.org/1999/02/22-rdf-syntax-ns#"
	 xmlns="http://www.w3.org/2000/svg" xmlns:xlink="http://www.w3.org/1999/xlink" x="0px" y="0px" width="32px" height="32px"
	 viewBox="0 0 32 32" enable-background="new 0 0 32 32" xml:space="preserve">
<path fill="#333333" d="M23.486,10.423l-3.401-3.397l-4.369-4.374C13.947,0.884,11.606,0,9.266,0S4.583,0.884,2.814,2.652
	c-3.538,3.538-3.538,9.366,0,12.903h0.002c1.44,1.438,2.909,2.909,4.369,4.369c0.971,0.972,1.933,1.932,2.903,2.903l0.496,0.496
	l0.99,0.992l4.963-4.963l-0.992-0.99l-3.398-3.399c-1.462-1.462-2.928-2.932-4.372-4.373c-0.862-0.864-0.864-2.113,0-2.977
	c0.432-0.432,0.961-0.647,1.49-0.647c0.529,0,1.058,0.215,1.49,0.647l4.369,4.373l3.399,3.398l0.992,0.989l4.962-4.961
	L23.486,10.423z M12.077,6.291c-0.77-0.772-1.77-1.196-2.813-1.196c-1.042,0-2.042,0.424-2.813,1.196
	c-1.602,1.601-1.603,4.018,0.001,5.625c0.963,0.961,1.936,1.934,2.91,2.91l1.46,1.46l-2.315,2.315l0,0l-1.198-1.198l-3.172-3.171
	l-0.097-0.097c-1.297-1.347-2.009-3.127-2.009-5.03c0-1.949,0.747-3.771,2.105-5.128c1.357-1.357,3.179-2.104,5.129-2.104
	c1.949,0,3.769,0.747,5.126,2.104l4.37,4.373l-2.315,2.315L12.077,6.291z"/>
<polygon fill="#333333" points="31.84,11.743 30.514,10.421 14.809,26.171 13.59,27.394 11.64,25.444 9.693,27.39 8.968,26.661 
	2.76,20.414 1.434,21.733 7.642,27.979 8.371,28.713 8.363,28.72 10.978,31.335 11.64,32 12.38,31.257 14.917,28.72 14.915,28.717 
	16.134,27.494 "/>
</svg>
