<?xml version="1.0" encoding="utf-8"?>
<!-- Generator: Adobe Illustrator 15.0.2, SVG Export Plug-In . SVG Version: 6.00 Build 0)  -->
<!DOCTYPE svg PUBLIC "-//W3C//DTD SVG 1.1//EN" "http://www.w3.org/Graphics/SVG/1.1/DTD/svg11.dtd">
<svg version="1.1"
	 id="Ebene_1" xmlns:dc="http://purl.org/dc/elements/1.1/" xmlns:cc="http://creativecommons.org/ns#" xmlns:rdf="http://www.w3.org/1999/02/22-rdf-syntax-ns#"
	 xmlns="http://www.w3.org/2000/svg" xmlns:xlink="http://www.w3.org/1999/xlink" x="0px" y="0px" width="32px" height="32px"
	 viewBox="0 0 32 32" enable-background="new 0 0 32 32" xml:space="preserve">
<path fill="#333333" d="M16.418,5.938c-0.261-0.139-0.574-0.139-0.835,0L2.224,13.063c-0.436,0.233-0.599,0.772-0.367,1.207
	c0.083,0.154,0.21,0.281,0.367,0.365l5.204,2.777L2.22,20.188c-0.434,0.233-0.597,0.772-0.365,1.207
	c0.083,0.153,0.21,0.282,0.365,0.365l13.359,7.125c0.263,0.14,0.576,0.14,0.839,0l13.361-7.125c0.432-0.233,0.596-0.772,0.363-1.207
	c-0.082-0.153-0.209-0.282-0.363-0.365l-5.205-2.776l5.205-2.777c0.434-0.232,0.598-0.771,0.365-1.207
	c-0.082-0.152-0.209-0.281-0.365-0.365L16.418,5.938z M22.682,18.421l4.787,2.554l-11.467,6.116L4.534,20.975l4.787-2.554
	l6.263,3.34c0.261,0.14,0.574,0.14,0.835,0L22.682,18.421z M16.001,19.966L4.534,13.849l11.468-6.115l11.467,6.115L16.001,19.966z"
	/>
<path fill="#333333" d="M23.964,3.121c0.147-0.148,0.387-0.148,0.535-0.001c0,0.001,0,0.001,0,0.001L26.5,5.122l2.001-2.001
	c0.147-0.148,0.387-0.148,0.535,0c0.147,0.148,0.147,0.387,0,0.535l-2.002,2.001l2.002,2.001c0.147,0.148,0.147,0.387,0,0.535
	c-0.148,0.148-0.388,0.148-0.535,0L26.5,6.191l-2.001,2.001c-0.148,0.148-0.388,0.148-0.535,0c-0.147-0.147-0.147-0.387,0-0.535
	l2.001-2.001l-2.001-2.001C23.816,3.508,23.815,3.269,23.964,3.121C23.963,3.121,23.963,3.121,23.964,3.121z"/>
</svg>
