<?xml version="1.0" encoding="utf-8"?>
<!-- Generator: Adobe Illustrator 15.0.2, SVG Export Plug-In . SVG Version: 6.00 Build 0)  -->
<!DOCTYPE svg PUBLIC "-//W3C//DTD SVG 1.1//EN" "http://www.w3.org/Graphics/SVG/1.1/DTD/svg11.dtd">
<svg version="1.1"
	 id="Ebene_1" xmlns:dc="http://purl.org/dc/elements/1.1/" xmlns:cc="http://creativecommons.org/ns#" xmlns:rdf="http://www.w3.org/1999/02/22-rdf-syntax-ns#"
	 xmlns="http://www.w3.org/2000/svg" xmlns:xlink="http://www.w3.org/1999/xlink" x="0px" y="0px" width="32px" height="32px"
	 viewBox="0 0 32 32" enable-background="new 0 0 32 32" xml:space="preserve">
<path fill="#333333" d="M28.031,20.531c-0.086,0-0.165,0.021-0.249,0.025l-2.161-6.79c1.136-0.691,1.888-1.928,1.888-3.381
	c0-2.227-1.743-3.971-3.97-3.971c-1.586,0-2.913,0.895-3.553,2.209l-5.644-1.238c-0.059-2.17-1.771-3.857-3.957-3.857
	c-2.227,0-3.971,1.744-3.971,3.969c0,1.268,0.577,2.365,1.477,3.087l-3.169,6.812c0.001,0,0.002,0,0.003,0.002
	c-0.245-0.047-0.497-0.073-0.758-0.073C1.743,17.326,0,19.068,0,21.295c0,2.225,1.743,3.969,3.969,3.969
	c1.708,0,3.123-1.031,3.693-2.514l16.443,2.191c0.215,2.009,1.852,3.531,3.927,3.531c2.226,0,3.968-1.746,3.968-3.971
	C32,22.275,30.257,20.531,28.031,20.531z M24.336,23.046L7.888,20.854c-0.119-1.076-0.635-2.011-1.426-2.646l3.169-6.813
	c0.244,0.046,0.496,0.074,0.756,0.074c1.585,0,2.912-0.894,3.552-2.208l5.642,1.238c0.059,2.17,1.771,3.857,3.959,3.857
	c0.086,0,0.165-0.019,0.249-0.024l2.161,6.789C25.219,21.564,24.651,22.237,24.336,23.046z"/>
</svg>
