<?xml version="1.0" encoding="UTF-8" standalone="no"?>
<svg
   inkscape:version="1.3.1 (9b9bdc1480, 2023-11-25, custom)"
   sodipodi:docname="poi_green.svg"
   id="svg4460"
   height="105"
   width="75"
   version="1.1"
   xmlns:inkscape="http://www.inkscape.org/namespaces/inkscape"
   xmlns:sodipodi="http://sodipodi.sourceforge.net/DTD/sodipodi-0.dtd"
   xmlns="http://www.w3.org/2000/svg"
   xmlns:svg="http://www.w3.org/2000/svg"
   xmlns:rdf="http://www.w3.org/1999/02/22-rdf-syntax-ns#"
   xmlns:cc="http://creativecommons.org/ns#"
   xmlns:dc="http://purl.org/dc/elements/1.1/">
  <sodipodi:namedview
     inkscape:document-rotation="0"
     inkscape:current-layer="svg4460"
     inkscape:window-maximized="1"
     inkscape:window-y="0"
     inkscape:window-x="0"
     inkscape:cy="105.13614"
     inkscape:cx="14.665842"
     inkscape:zoom="8.08"
     showgrid="true"
     id="namedview11"
     inkscape:window-height="2075"
     inkscape:window-width="3840"
     inkscape:pageshadow="2"
     inkscape:pageopacity="0"
     guidetolerance="10"
     gridtolerance="10"
     objecttolerance="10"
     borderopacity="1"
     bordercolor="#666666"
     pagecolor="#ffffff"
     inkscape:showpageshadow="2"
     inkscape:pagecheckerboard="0"
     inkscape:deskcolor="#d1d1d1">
    <inkscape:grid
       id="grid1"
       units="px"
       originx="0"
       originy="0"
       spacingx="1"
       spacingy="1"
       empcolor="#0099e5"
       empopacity="0.30196078"
       color="#0099e5"
       opacity="0.14901961"
       empspacing="5"
       dotted="false"
       gridanglex="30"
       gridanglez="30"
       visible="true" />
  </sodipodi:namedview>
  <defs
     id="defs4462" />
  <metadata
     id="metadata4465">
    <rdf:RDF>
      <cc:Work
         rdf:about="">
        <dc:format>image/svg+xml</dc:format>
        <dc:type
           rdf:resource="http://purl.org/dc/dcmitype/StillImage" />
      </cc:Work>
    </rdf:RDF>
  </metadata>
  <path
     d="m 37.469922,2.1462954 c -19.41539,0 -35.3236253,15.8126366 -35.3236253,35.1113526 0,7.477467 2.3954074,14.42617 6.4505076,20.139378 L 33.159304,99.723122 c 3.439856,4.479578 5.72714,3.628838 8.587318,-0.23599 l 27.0909,-45.957994 c 0.547304,-0.986886 0.976124,-2.037793 1.350537,-3.110861 1.672161,-4.071224 2.602405,-8.512443 2.602403,-13.160629 0,-19.298716 -15.905151,-35.1113526 -35.32054,-35.1113526 z m 0,16.4523166 c 10.454625,0 18.768757,8.267234 18.768759,18.659036 0,10.391803 -8.314134,18.655972 -18.768759,18.655972 -10.45463,0 -18.771842,-8.264169 -18.771842,-18.655972 0,-10.391802 8.317212,-18.659036 18.771842,-18.659036 z"
     style="fill:#32cd32;stroke:#000000;stroke-width:4.29259"
     id="path4135" />
</svg>
