<?xml version="1.0" encoding="UTF-8" standalone="no"?>
<svg
   inkscape:version="1.3.1 (9b9bdc1480, 2023-11-25, custom)"
   sodipodi:docname="smiley_purple.svg"
   id="svg4460"
   height="100"
   width="100"
   version="1.1"
   xmlns:inkscape="http://www.inkscape.org/namespaces/inkscape"
   xmlns:sodipodi="http://sodipodi.sourceforge.net/DTD/sodipodi-0.dtd"
   xmlns="http://www.w3.org/2000/svg"
   xmlns:svg="http://www.w3.org/2000/svg"
   xmlns:rdf="http://www.w3.org/1999/02/22-rdf-syntax-ns#"
   xmlns:cc="http://creativecommons.org/ns#"
   xmlns:dc="http://purl.org/dc/elements/1.1/">
  <sodipodi:namedview
     inkscape:document-rotation="0"
     inkscape:current-layer="svg4460"
     inkscape:window-maximized="1"
     inkscape:window-y="0"
     inkscape:window-x="0"
     inkscape:cy="66.512231"
     inkscape:cx="31.952387"
     inkscape:zoom="11.313709"
     showgrid="false"
     id="namedview11"
     inkscape:window-height="2075"
     inkscape:window-width="3840"
     inkscape:pageshadow="2"
     inkscape:pageopacity="0"
     guidetolerance="10"
     gridtolerance="10"
     objecttolerance="10"
     borderopacity="1"
     bordercolor="#666666"
     pagecolor="#ffffff"
     inkscape:showpageshadow="2"
     inkscape:pagecheckerboard="0"
     inkscape:deskcolor="#d1d1d1" />
  <defs
     id="defs4462" />
  <metadata
     id="metadata4465">
    <rdf:RDF>
      <cc:Work
         rdf:about="">
        <dc:format>image/svg+xml</dc:format>
        <dc:type
           rdf:resource="http://purl.org/dc/dcmitype/StillImage" />
      </cc:Work>
    </rdf:RDF>
  </metadata>
  <path
     style="fill:#ffffff;stroke:#f6f6f6;stroke-width:2.89134"
     id="path1"
     sodipodi:type="arc"
     sodipodi:cx="50.043491"
     sodipodi:cy="49.928516"
     sodipodi:rx="44.131271"
     sodipodi:ry="42.438133"
     sodipodi:start="0"
     sodipodi:end="6.240011"
     sodipodi:open="true"
     sodipodi:arc-type="arc"
     d="M 94.174763,49.928516 A 44.131271,42.438133 0 0 1 50.519816,92.364178 44.131271,42.438133 0 0 1 5.9225023,50.844564 44.131271,42.438133 0 0 1 48.614738,7.5126296 44.131271,42.438133 0 0 1 94.133638,48.096849" />
  <path
     inkscape:connector-curvature="0"
     style="color:#000000;font-style:normal;font-variant:normal;font-weight:normal;font-stretch:normal;font-size:medium;line-height:normal;font-family:sans-serif;font-variant-ligatures:normal;font-variant-position:normal;font-variant-caps:normal;font-variant-numeric:normal;font-variant-alternates:normal;font-feature-settings:normal;text-indent:0;text-align:start;text-decoration:none;text-decoration-line:none;text-decoration-style:solid;text-decoration-color:#000000;letter-spacing:normal;word-spacing:normal;text-transform:none;writing-mode:lr-tb;direction:ltr;text-orientation:mixed;dominant-baseline:auto;baseline-shift:baseline;text-anchor:start;white-space:normal;shape-padding:0;clip-rule:nonzero;display:inline;overflow:visible;visibility:visible;opacity:1;isolation:auto;mix-blend-mode:normal;color-interpolation:sRGB;color-interpolation-filters:linearRGB;solid-color:#000000;solid-opacity:1;vector-effect:none;fill:#8000ff;fill-opacity:1;fill-rule:nonzero;stroke:none;stroke-width:11.1071;stroke-linecap:round;stroke-linejoin:round;stroke-miterlimit:4;stroke-dasharray:none;stroke-dashoffset:20;stroke-opacity:1;paint-order:normal;color-rendering:auto;image-rendering:auto;shape-rendering:auto;text-rendering:auto;enable-background:accumulate"
     d="M 50.047649,0 C 22.524967,0 0.09529885,22.455475 0.09529885,50.009825 c 0,27.554351 22.42966815,50.009825 49.95235015,50.009825 C 77.570332,100.01965 100,77.564176 100,50.009825 100,22.455475 77.570332,0 50.047649,0 Z m 0,11.112877 c 21.523399,0 38.852246,17.348784 38.852246,38.896948 0,21.548164 -17.328847,38.896949 -38.852246,38.896949 -21.523399,0 -38.852245,-17.348785 -38.852245,-38.896949 0,-21.548164 17.328846,-38.896948 38.852245,-38.896948 z M 35.362862,32.555343 a 8.5343527,8.5441722 0 0 0 -8.534781,8.544599 8.5343527,8.5441722 0 0 0 8.534781,8.544601 8.5343527,8.5441722 0 0 0 8.534781,-8.544601 8.5343527,8.5441722 0 0 0 -8.534781,-8.544599 z m 29.369575,0 a 8.5343527,8.5441722 0 0 0 -8.534781,8.544599 8.5343527,8.5441722 0 0 0 8.534781,8.544601 8.5343527,8.5441722 0 0 0 8.534782,-8.544601 8.5343527,8.5441722 0 0 0 -8.534782,-8.544599 z m -30.592054,30.31469 a 4.6855646,4.6909558 0 0 0 -2.749635,8.420328 c 4.812091,3.785764 11.372571,5.627868 18.3447,5.746611 6.972125,0.118732 13.660353,-1.513054 18.728369,-5.053704 A 4.6857605,4.6911519 0 1 0 63.099958,64.289739 C 60.257481,66.275567 55.188167,67.74654 49.893429,67.656365 44.59869,67.566207 39.726512,65.91386 37.183413,63.913161 a 4.6855646,4.6909558 0 0 0 -3.04303,-1.043128 z"
     id="path939" />
</svg>
