<?xml version="1.0" encoding="utf-8"?>
<!-- Generator: Adobe Illustrator 15.0.2, SVG Export Plug-In . SVG Version: 6.00 Build 0)  -->
<!DOCTYPE svg PUBLIC "-//W3C//DTD SVG 1.1//EN" "http://www.w3.org/Graphics/SVG/1.1/DTD/svg11.dtd">
<svg version="1.1" id="Ebene_1" xmlns="http://www.w3.org/2000/svg" xmlns:xlink="http://www.w3.org/1999/xlink" x="0px" y="0px"
	 width="16px" height="16px" viewBox="0 0 16 16" enable-background="new 0 0 16 16" xml:space="preserve">
<g>
	<path fill="#7F95AD" d="M0,0.72v3.2h3.201v-3.2H0z M2.4,3.12H0.799v-1.6H2.4V3.12z"/>
	<path fill="#7F95AD" d="M14.64,12.08H14.16H12.8v3.199H16V12.08H14.64z M15.2,14.48H13.6V12.88H15.2V14.48z"/>
	<g>
		<rect x="1.36" y="3.92" fill="#333333" width="0.48" height="0.4"/>
		<rect x="3.6" y="2.08" fill="#333333" width="0.96" height="0.48"/>
		<rect x="5.04" y="2.08" fill="#333333" width="0.96" height="0.48"/>
		<rect x="6.48" y="2.08" fill="#333333" width="0.96" height="0.48"/>
		<rect x="7.92" y="2.08" fill="#333333" width="0.96" height="0.48"/>
		<rect x="9.36" y="2.08" fill="#333333" width="0.96" height="0.48"/>
		<rect x="10.8" y="2.08" fill="#333333" width="0.96" height="0.48"/>
		<rect x="12.24" y="2.08" fill="#333333" width="0.96" height="0.48"/>
		<rect x="13.68" y="2.08" fill="#333333" width="0.96" height="0.48"/>
		<rect x="14.16" y="3.04" fill="#333333" width="0.479" height="0.96"/>
		<rect x="14.16" y="4.48" fill="#333333" width="0.479" height="0.96"/>
		<rect x="1.36" y="4.799" fill="#333333" width="0.48" height="0.96"/>
		<rect x="14.16" y="5.92" fill="#333333" width="0.479" height="0.96"/>
		<rect x="1.36" y="6.24" fill="#333333" width="0.48" height="0.96"/>
		<rect x="14.16" y="7.36" fill="#333333" width="0.479" height="0.96"/>
		<rect x="1.36" y="7.68" fill="#333333" width="0.48" height="0.96"/>
		<rect x="14.16" y="8.799" fill="#333333" width="0.479" height="0.96"/>
		<rect x="1.36" y="9.12" fill="#333333" width="0.48" height="0.96"/>
		<rect x="14.16" y="10.24" fill="#333333" width="0.479" height="0.96"/>
		<rect x="1.36" y="10.56" fill="#333333" width="0.48" height="0.96"/>
		<rect x="1.36" y="12" fill="#333333" width="0.48" height="0.96"/>
		<rect x="14.16" y="11.68" fill="#333333" width="0.479" height="0.4"/>
		<polygon fill="#333333" points="1.36,13.44 1.36,13.92 2.32,13.92 2.32,13.44 1.84,13.44 1.6,13.44 		"/>
		<rect x="2.799" y="13.44" fill="#333333" width="0.96" height="0.479"/>
		<rect x="4.24" y="13.44" fill="#333333" width="0.96" height="0.479"/>
		<rect x="5.68" y="13.44" fill="#333333" width="0.96" height="0.479"/>
		<rect x="7.12" y="13.44" fill="#333333" width="0.96" height="0.479"/>
		<rect x="8.56" y="13.44" fill="#333333" width="0.959" height="0.479"/>
		<rect x="10" y="13.44" fill="#333333" width="0.96" height="0.479"/>
		<rect x="11.44" y="13.44" fill="#333333" width="0.96" height="0.479"/>
	</g>
</g>
</svg>
