<?xml version="1.0" encoding="utf-8"?>
<!-- Generator: Adobe Illustrator 15.0.2, SVG Export Plug-In . SVG Version: 6.00 Build 0)  -->
<!DOCTYPE svg PUBLIC "-//W3C//DTD SVG 1.1//EN" "http://www.w3.org/Graphics/SVG/1.1/DTD/svg11.dtd">
<svg version="1.1" id="Ebene_1" xmlns="http://www.w3.org/2000/svg" xmlns:xlink="http://www.w3.org/1999/xlink" x="0px" y="0px"
	 width="16px" height="16px" viewBox="7 7 16 16" enable-background="new 7 7 16 16" xml:space="preserve">
<g>
	<path fill="#98AABD" d="M7,7.72v3.2h3.201v-3.2H7z M9.4,10.12H7.799v-1.6H9.4V10.12z"/>
	<path fill="#98AABD" d="M21.64,19.08H21.16H19.8v3.199H23V19.08H21.64z M22.2,21.48H20.6V19.88H22.2V21.48z"/>
	<g>
		<rect x="8.36" y="10.92" fill="#666666" width="0.48" height="0.4"/>
		<rect x="10.6" y="9.08" fill="#666666" width="0.96" height="0.479"/>
		<rect x="12.04" y="9.08" fill="#666666" width="0.96" height="0.479"/>
		<rect x="13.48" y="9.08" fill="#666666" width="0.96" height="0.479"/>
		<rect x="14.92" y="9.08" fill="#666666" width="0.96" height="0.479"/>
		<rect x="16.36" y="9.08" fill="#666666" width="0.961" height="0.479"/>
		<rect x="17.8" y="9.08" fill="#666666" width="0.96" height="0.479"/>
		<rect x="19.24" y="9.08" fill="#666666" width="0.96" height="0.479"/>
		<rect x="20.679" y="9.08" fill="#666666" width="0.961" height="0.479"/>
		<rect x="21.16" y="10.04" fill="#666666" width="0.479" height="0.96"/>
		<rect x="21.16" y="11.48" fill="#666666" width="0.479" height="0.96"/>
		<rect x="8.36" y="11.799" fill="#666666" width="0.48" height="0.96"/>
		<rect x="21.16" y="12.92" fill="#666666" width="0.479" height="0.96"/>
		<rect x="8.36" y="13.24" fill="#666666" width="0.48" height="0.96"/>
		<rect x="21.16" y="14.36" fill="#666666" width="0.479" height="0.961"/>
		<rect x="8.36" y="14.679" fill="#666666" width="0.48" height="0.96"/>
		<rect x="21.16" y="15.8" fill="#666666" width="0.479" height="0.96"/>
		<rect x="8.36" y="16.12" fill="#666666" width="0.48" height="0.96"/>
		<rect x="21.16" y="17.24" fill="#666666" width="0.479" height="0.96"/>
		<rect x="8.36" y="17.56" fill="#666666" width="0.48" height="0.96"/>
		<rect x="8.36" y="19" fill="#666666" width="0.48" height="0.96"/>
		<rect x="21.16" y="18.679" fill="#666666" width="0.479" height="0.401"/>
		<polygon fill="#666666" points="8.36,20.44 8.36,20.92 9.321,20.92 9.321,20.44 8.84,20.44 8.6,20.44 		"/>
		<rect x="9.799" y="20.44" fill="#666666" width="0.96" height="0.479"/>
		<rect x="11.24" y="20.44" fill="#666666" width="0.96" height="0.479"/>
		<rect x="12.679" y="20.44" fill="#666666" width="0.961" height="0.479"/>
		<rect x="14.12" y="20.44" fill="#666666" width="0.96" height="0.479"/>
		<rect x="15.56" y="20.44" fill="#666666" width="0.96" height="0.479"/>
		<rect x="17" y="20.44" fill="#666666" width="0.96" height="0.479"/>
		<rect x="18.44" y="20.44" fill="#666666" width="0.96" height="0.479"/>
	</g>
</g>
</svg>
