<?xml version="1.0" encoding="UTF-8"?>
<!-- Created with Inkscape (http://www.inkscape.org/) -->
<svg width="32" height="32" version="1.1" viewBox="0 0 8.4667 8.4667" xmlns="http://www.w3.org/2000/svg" xmlns:cc="http://creativecommons.org/ns#" xmlns:dc="http://purl.org/dc/elements/1.1/" xmlns:rdf="http://www.w3.org/1999/02/22-rdf-syntax-ns#">
 <metadata>
  <rdf:RDF>
   <cc:Work rdf:about="">
    <dc:format>image/svg+xml</dc:format>
    <dc:type rdf:resource="http://purl.org/dc/dcmitype/StillImage"/>
    <dc:title/>
   </cc:Work>
  </rdf:RDF>
 </metadata>
 <g transform="translate(-85.99 -126.19)">
  <g fill="none" stroke="#333" stroke-linejoin="round" stroke-width=".30112">
   <path d="m86.839 133.78 3.2284 0.059 3.5182-2.7552"/>
   <path d="m86.814 133.89-0.01114-4.2291 2.185-2.3732"/>
   <path d="m89.032 127.28 3.8747 0.059"/>
   <path d="m92.881 127.3 0.69665 3.7963"/>
  </g>
  <g fill="#555555" shape-rendering="auto">
   <path d="m94.352 130.87a0.76406 0.76191 76.183 0 1-0.55739 0.92392 0.76406 0.76191 76.183 0 1-0.92235-0.55998 0.76406 0.76191 76.183 0 1 0.55739-0.92392 0.76406 0.76191 76.183 0 1 0.92235 0.55998z" color="#000000" color-rendering="auto" image-rendering="auto" solid-color="#000000" style="isolation:auto;mix-blend-mode:normal"/>
   <path d="m87.555 133.62a0.76406 0.76191 76.183 0 1-0.55738 0.92392 0.76406 0.76191 76.183 0 1-0.92235-0.55998 0.76406 0.76191 76.183 0 1 0.55739-0.92392 0.76406 0.76191 76.183 0 1 0.92235 0.55998z" color="#000000" color-rendering="auto" image-rendering="auto" solid-color="#000000" style="isolation:auto;mix-blend-mode:normal"/>
   <path d="m87.555 129.41a0.76406 0.76191 76.183 0 1-0.55738 0.92392 0.76406 0.76191 76.183 0 1-0.92235-0.55998 0.76406 0.76191 76.183 0 1 0.55739-0.92392 0.76406 0.76191 76.183 0 1 0.92235 0.55998z" color="#000000" color-rendering="auto" image-rendering="auto" solid-color="#000000" style="isolation:auto;mix-blend-mode:normal"/>
   <path d="m93.643 127.05a0.76406 0.76191 76.183 0 1-0.55738 0.92392 0.76406 0.76191 76.183 0 1-0.92235-0.55999 0.76406 0.76191 76.183 0 1 0.55739-0.92391 0.76406 0.76191 76.183 0 1 0.92234 0.55998z" color="#000000" color-rendering="auto" image-rendering="auto" solid-color="#000000" style="isolation:auto;mix-blend-mode:normal"/>
   <path d="m89.697 127.08a0.76406 0.76191 76.183 0 1-0.55739 0.92392 0.76406 0.76191 76.183 0 1-0.92235-0.55998 0.76406 0.76191 76.183 0 1 0.55739-0.92392 0.76406 0.76191 76.183 0 1 0.92235 0.55998z" color="#000000" color-rendering="auto" image-rendering="auto" solid-color="#000000" style="isolation:auto;mix-blend-mode:normal"/>
   <path d="m90.886 133.59a0.76406 0.76191 76.183 0 1-0.55739 0.92391 0.76406 0.76191 76.183 0 1-0.92235-0.55998 0.76406 0.76191 76.183 0 1 0.55738-0.92391 0.76406 0.76191 76.183 0 1 0.92235 0.55998z" color="#000000" color-rendering="auto" image-rendering="auto" solid-color="#000000" style="isolation:auto;mix-blend-mode:normal"/>
  </g>
  <path d="m87.673 129.96 1.5318-1.5669h2.8999l0.52619 2.0346-2.5023 2.1983h-2.4438z" fill="#555555" fill-rule="evenodd"/>
  <g fill="#808080" aria-label="A">
   <path d="m89.462 129.81-0.36997 1.0032h0.74129zm-0.15393-0.2687h0.30921l0.76829 2.0159h-0.28355l-0.18363-0.51715h-0.90872l-0.18363 0.51715h-0.2876z" fill="#fff" stroke-width=".12962px"/>
  </g>
  <g fill="#808080" aria-label="2">
   <path d="m90.59 130.68h0.60844v0.14671h-0.81816v-0.14671q0.09925-0.10271 0.27013-0.27531 0.17174-0.17347 0.21576-0.22353 0.08371-0.0941 0.11651-0.1588 0.03366-0.0656 0.03366-0.12859 0-0.1027-0.07249-0.16743-0.07163-0.0647-0.18728-0.0647-0.08199 0-0.17347 0.0285-0.09062 0.0285-0.19418 0.0863v-0.17606q0.10529-0.0423 0.19677-0.0639t0.16743-0.0216q0.20022 0 0.31932 0.10012 0.1191 0.10011 0.1191 0.26754 0 0.0794-0.03021 0.15103-0.02934 0.0708-0.10788 0.16743-0.02158 0.025-0.13722 0.14499-0.11565 0.1191-0.32623 0.334z" fill="#fff" stroke-width=".082852px"/>
  </g>
 </g>
</svg>
