<?xml version="1.0" encoding="UTF-8"?>
<!-- Created with Inkscape (http://www.inkscape.org/) -->
<svg width="32" height="32" version="1.1" viewBox="0 0 8.4667 8.4667" xmlns="http://www.w3.org/2000/svg" xmlns:cc="http://creativecommons.org/ns#" xmlns:dc="http://purl.org/dc/elements/1.1/" xmlns:rdf="http://www.w3.org/1999/02/22-rdf-syntax-ns#">
 <metadata>
  <rdf:RDF>
   <cc:Work rdf:about="">
    <dc:format>image/svg+xml</dc:format>
    <dc:type rdf:resource="http://purl.org/dc/dcmitype/StillImage"/>
    <dc:title/>
   </cc:Work>
  </rdf:RDF>
 </metadata>
 <g transform="translate(-85.99,-126.19)" fill="none" stroke="#999" stroke-width=".26457px" style="font-variant-east_asian:normal">
  <path d="m86.87 133.79 3.9996-0.0149 2.3711-2.2057" style="font-variant-east_asian:normal"/>
  <path d="m86.792 133.87 0.04826-3.4584 3.3545-3.3176" style="font-variant-east_asian:normal"/>
  <path d="m90.133 127.02 3.0862 4.5399" style="font-variant-east_asian:normal"/>
 </g>
 <path d="M 7.83,5.22 A 0.62481,0.62306 76.183 0 1 7.3742,5.97554 0.62481,0.62306 76.183 0 1 6.61995,5.51761 0.62481,0.62306 76.183 0 1 7.07575,4.76208 0.62481,0.62306 76.183 0 1 7.83,5.22 Z" color="#000000" color-rendering="auto" fill="#999" image-rendering="auto" shape-rendering="auto" solid-color="#000000" stroke="#999" stroke-linecap="round" stroke-width=".31749" style="font-variant-east_asian:normal;isolation:auto;mix-blend-mode:normal;paint-order:markers stroke fill"/>
 <path d="m6.3968 0.96189-3.1794 3.2738-0.14155 0.31271 0.95392 0.94686 0.31616-0.1852 3.1765-3.2594z" fill="#333" fill-rule="evenodd" stroke-width=".026591"/>
 <path d="m3.767 4.7821-0.55658-0.54012 2.9741-3.0656 1.1288 1.0952-1.4802 1.5252c-0.8141 0.83883-1.4868 1.5253-1.4948 1.5254-0.0080578 1.218e-4 -0.26512-0.24284-0.57123-0.5399zm2.9539-2.4341c-0.054168-0.053021-0.10546-0.096297-0.11398-0.096168-0.0085223 1.292e-4 -0.5281 0.52866-1.1546 1.1745l-1.1391 1.1743 0.21269 0.20793 2.2935-2.3641z" color="#000000" color-rendering="auto" fill="#b3b3b3" fill-rule="evenodd" image-rendering="auto" shape-rendering="auto" solid-color="#000000" stroke-width=".026591" style="isolation:auto;mix-blend-mode:normal;paint-order:markers stroke fill"/>
 <g fill-rule="evenodd" stroke-width=".026591">
  <path d="m6.956 1.51-0.56437-0.54856 0.39217-0.40089c0.2157-0.22049 0.42564-0.42464 0.46652-0.45367 0.10193-0.072344 0.1948-0.075167 0.29293-0.0088956 0.07841 0.052954 0.75905 0.7126 0.81779 0.79258 0.052832 0.071918 0.063952 0.15641 0.030422 0.2311-0.016314 0.036338-0.18798 0.22679-0.44875 0.49789l-0.42233 0.43904z" color="#000000" color-rendering="auto" fill="#c5c5c5" image-rendering="auto" shape-rendering="auto" solid-color="#000000" style="isolation:auto;mix-blend-mode:normal;paint-order:markers stroke fill"/>
  <path d="m2.9608 5.6201-0.18346-0.17615 0.028275-0.09721c0.039033-0.12447 0.25304-0.78044 0.26509-0.79971 0.0079-0.012633 0.01882-0.00909 0.049859 0.016162 0.11343 0.092288 0.74426 0.7153 0.85504 0.84443 0.032955 0.038416 0.055231 0.074762 0.049506 0.080771-0.022637 0.023746-0.86686 0.30214-0.88752 0.29509-6e-3 -0.00204-0.067362-0.056805-0.17679-0.16335z" color="#000000" color-rendering="auto" fill="#c5c5c5" image-rendering="auto" shape-rendering="auto" solid-color="#000000" style="isolation:auto;mix-blend-mode:normal;paint-order:markers stroke fill"/>
  <path d="m2.9209 4.9619 0.70787 0.70122-0.99391 0.25056z" fill="#333"/>
 </g>
 <g fill="#999" shape-rendering="auto" stroke="#999" stroke-linecap="round" stroke-width=".31749">
  <path d="m1.465 7.47a0.62481 0.62306 76.183 0 1-0.4558 0.75553 0.62481 0.62306 76.183 0 1-0.75425-0.45792 0.62481 0.62306 76.183 0 1 0.4558-0.75554 0.62481 0.62306 76.183 0 1 0.75425 0.45793z" color="#000000" color-rendering="auto" image-rendering="auto" solid-color="#000000" style="font-variant-east_asian:normal;isolation:auto;mix-blend-mode:normal;paint-order:markers stroke fill"/>
  <path d="m1.465 4.02a0.62481 0.62306 76.183 0 1-0.4558 0.75554 0.62481 0.62306 76.183 0 1-0.75425-0.45793 0.62481 0.62306 76.183 0 1 0.4558-0.75553 0.62481 0.62306 76.183 0 1 0.75425 0.45792z" color="#000000" color-rendering="auto" image-rendering="auto" solid-color="#000000" style="font-variant-east_asian:normal;isolation:auto;mix-blend-mode:normal;paint-order:markers stroke fill"/>
  <path d="M 4.83,0.72 A 0.62481,0.62306 76.183 0 1 4.3742,1.47553 0.62481,0.62306 76.183 0 1 3.61995,1.01761 0.62481,0.62306 76.183 0 1 4.07575,0.26207 0.62481,0.62306 76.183 0 1 4.83,0.72 Z" color="#000000" color-rendering="auto" image-rendering="auto" solid-color="#000000" style="font-variant-east_asian:normal;isolation:auto;mix-blend-mode:normal;paint-order:markers stroke fill"/>
  <path d="m5.517 7.44a0.62481 0.62306 76.183 0 1-0.4558 0.75553 0.62481 0.62306 76.183 0 1-0.75425-0.45792 0.62481 0.62306 76.183 0 1 0.4558-0.75554 0.62481 0.62306 76.183 0 1 0.75425 0.45793z" color="#000000" color-rendering="auto" image-rendering="auto" solid-color="#000000" style="font-variant-east_asian:normal;isolation:auto;mix-blend-mode:normal;paint-order:markers stroke fill"/>
 </g>
</svg>
