<?xml version="1.0" encoding="UTF-8" standalone="no"?>
<!-- Created with Inkscape (http://www.inkscape.org/) -->

<svg
   width="32"
   height="32"
   version="1.1"
   viewBox="0 0 8.4667 8.4667"
   id="svg3721"
   sodipodi:docname="btn_collaboration.svg"
   inkscape:version="1.1.1 (1:1.1+202109281944+c3084ef5ed)"
   xmlns:inkscape="http://www.inkscape.org/namespaces/inkscape"
   xmlns:sodipodi="http://sodipodi.sourceforge.net/DTD/sodipodi-0.dtd"
   xmlns:xlink="http://www.w3.org/1999/xlink"
   xmlns="http://www.w3.org/2000/svg"
   xmlns:svg="http://www.w3.org/2000/svg"
   xmlns:rdf="http://www.w3.org/1999/02/22-rdf-syntax-ns#"
   xmlns:cc="http://creativecommons.org/ns#"
   xmlns:dc="http://purl.org/dc/elements/1.1/">
  <sodipodi:namedview
     pagecolor="#ffffff"
     bordercolor="#666666"
     borderopacity="1"
     objecttolerance="10"
     gridtolerance="10"
     guidetolerance="10"
     inkscape:pageopacity="0"
     inkscape:pageshadow="2"
     inkscape:window-width="2560"
     inkscape:window-height="1371"
     id="namedview3723"
     showgrid="false"
     inkscape:zoom="9.3691649"
     inkscape:cx="-22.413951"
     inkscape:cy="43.120172"
     inkscape:window-x="0"
     inkscape:window-y="32"
     inkscape:window-maximized="1"
     inkscape:current-layer="svg3721"
     inkscape:pagecheckerboard="0" />
  <defs
     id="defs3695">
    <linearGradient
       id="linearGradient1066"
       x1="173.47"
       x2="175.39"
       y1="66.591"
       y2="68.517"
       gradientUnits="userSpaceOnUse"
       gradientTransform="matrix(1.0433932,0,0,1.0433932,-177.64421,-71.104624)">
      <stop
         stop-color="#e6e6e6"
         offset="0"
         id="stop3680" />
      <stop
         stop-color="#e6e6e6"
         stop-opacity="0"
         offset="1"
         id="stop3682" />
    </linearGradient>
    <linearGradient
       id="linearGradient1074"
       x1="105.65"
       x2="105.65"
       y1="78.013"
       y2="76.365997"
       gradientUnits="userSpaceOnUse"
       gradientTransform="matrix(1.0436259,0,0,0.99394,-106.31154,-72.125168)"
       xlink:href="#linearGradient1082">
      <stop
         stop-color="#ececec"
         offset="0"
         id="stop3685" />
      <stop
         stop-color="#ececec"
         stop-opacity="0"
         offset="1"
         id="stop3687" />
    </linearGradient>
    <linearGradient
       id="linearGradient1082"
       x1="-107.27"
       x2="-107.27"
       y1="190.16"
       y2="188.44"
       gradientUnits="userSpaceOnUse"
       gradientTransform="matrix(1.0436259,0,0,0.99394,106.31154,-178.60591)">
      <stop
         stop-color="#ececec"
         offset="0"
         id="stop3690" />
      <stop
         stop-color="#ececec"
         stop-opacity="0"
         offset="1"
         id="stop3692" />
    </linearGradient>
  </defs>
  <metadata
     id="metadata3697">
    <rdf:RDF>
      <cc:Work
         rdf:about="">
        <dc:format>image/svg+xml</dc:format>
        <dc:type
           rdf:resource="http://purl.org/dc/dcmitype/StillImage" />
      </cc:Work>
    </rdf:RDF>
  </metadata>
  <rect
     id="rect3699"
     style="color:#000000;isolation:auto;mix-blend-mode:normal;solid-color:#000000;fill:#ffffff;fill-rule:evenodd;paint-order:markers stroke fill;color-rendering:auto;image-rendering:auto;shape-rendering:auto"
     height="8.4666996"
     width="8.4666996"
     y="2.4414062e-006"
     x="-2.1362305e-006" />
  <path
     d="M 4.0481757,0.50633375 C 3.8635715,0.53841917 3.7175301,0.61870805 3.5987538,0.75028842 3.2215617,1.1692066 3.4077476,1.8369751 3.947099,2.0007162 4.0915588,2.045681 4.3066667,2.037622 4.4463061,1.9846735 4.9551538,1.78719 5.0996136,1.1194968 4.7176012,0.7261867 4.5537847,0.55770055 4.2776693,0.46626462 4.0481757,0.50633375 Z"
     id="path4"
     style="stroke-width:0.000753179;fill:#4d4d4d" />
  <path
     d="m 1.4542272,1.1371965 c -0.1573391,0.065828 -0.2535954,0.1589207 -0.3242436,0.3130212 -0.027265,0.059426 -0.033742,0.1075539 -0.035324,0.2199282 0,0.1316557 0.00482,0.1541005 0.052949,0.2520137 0.101152,0.2070489 0.2857561,0.3226619 0.5168315,0.3226619 0.2311506,0 0.4157548,-0.1155376 0.5168314,-0.3226619 0.048128,-0.097913 0.052949,-0.120358 0.052949,-0.2520137 C 2.2326377,1.5449676 2.2278173,1.5128068 2.1876729,1.4310116 2.1282471,1.3089966 2.0255135,1.206263 1.9083941,1.1517328 1.7768891,1.09065 1.5810625,1.084248 1.4542272,1.1371965 Z"
     id="path6"
     style="stroke-width:0.000753179;fill:#333333" />
  <path
     d="m 6.4976644,1.1243171 c -0.1059723,0.033742 -0.2327323,0.128417 -0.2969785,0.22151 -0.2054672,0.3033805 -0.091511,0.7046742 0.2439547,0.8587747 0.1316557,0.059426 0.3242436,0.059426 0.4558993,0 C 7.1637759,2.0825868 7.3034153,1.7936673 7.2280221,1.5240292 7.1734166,1.3361864 7.0209732,1.1773409 6.8411894,1.1243171 c -0.096332,-0.028847 -0.2504321,-0.028847 -0.343525,0 z"
     id="path8"
     style="stroke-width:0.000753179;fill:#333333" />
  <path
     d="m 3.8796142,2.3298554 c -0.4028754,0.07223 -0.7464004,0.248775 -0.8330913,0.4285589 -0.033742,0.069066 -0.033742,0.088273 -0.033742,1.1556778 v 1.0866867 h 0.1332374 c 0.07223,0 0.1685614,0.00482 0.2135262,0.00964 l 0.080289,0.00964 0.2134509,1.0465422 c 0.1171942,0.574677 0.2247481,1.0930901 0.2375522,1.1540976 l 0.024102,0.1075539 h 0.2856808 0.2857561 l 0.016043,-0.075468 c 0.00964,-0.043383 0.1091357,-0.5617962 0.22151,-1.1540962 l 0.2054672,-1.0787029 0.070648,-0.00964 c 0.040144,-0.00482 0.128417,-0.00964 0.1974082,-0.00964 h 0.1268354 v -1.088193 c 0,-1.2375485 0.00806,-1.1556779 -0.1396394,-1.2889153 C 4.9149341,2.3811469 4.3258728,2.2479849 3.8796142,2.3298554 Z"
     id="path10"
     style="stroke-width:0.000753179;fill:#4d4d4d" />
  <path
     d="m 1.4509885,2.3924446 c -0.3402862,0.064171 -0.60035895,0.2038856 -0.66294813,0.356329 -0.0176244,0.041726 -0.0224447,0.2247486 -0.0224447,0.9036641 v 0.850791 H 0.92451641 1.0834372 l 0.00964,0.043383 c 0.00482,0.025683 0.075469,0.4237385 0.1541004,0.8876214 0.080289,0.463883 0.1492801,0.8620134 0.1541004,0.8860398 l 0.00964,0.044965 h 0.2535954 0.2535953 l 0.00964,-0.043308 C 1.9325712,6.2962467 1.998399,5.915816 2.0737922,5.4743777 2.1492608,5.0329395 2.218252,4.6332274 2.2278927,4.586681 L 2.2439357,4.503229 H 2.4044378 2.5633586 V 3.6492744 c 0,-0.8314343 -0.00158,-0.855536 -0.033742,-0.9229456 C 2.4173172,2.4935212 1.847462,2.3169761 1.4509885,2.3924446 Z"
     id="path12"
     style="stroke-width:0.000753179;fill:#333333" />
  <path
     d="m 6.5201091,2.3843856 c -0.3466882,0.054606 -0.6613664,0.2118692 -0.7255373,0.364388 -0.016043,0.041726 -0.020863,0.2263303 -0.020863,0.9036641 v 0.850791 H 5.9326295 6.093132 l 0.016043,0.083452 c 0.00964,0.046546 0.078632,0.4462585 0.1541004,0.8876214 0.075468,0.4414382 0.1412211,0.821869 0.1460414,0.8458954 l 0.00964,0.044965 h 0.2535954 0.2535953 l 0.00964,-0.043308 C 6.940609,6.2961714 7.0064368,5.9157406 7.08183,5.4743024 7.1572986,5.0328642 7.2262898,4.6332274 7.2359305,4.586681 L 7.2519735,4.503229 H 7.4124759 7.5713967 V 3.652438 c 0,-0.9438086 0.00324,-0.9117231 -0.105897,-1.0176954 C 7.2921929,2.4662561 6.813849,2.3394208 6.5201091,2.3843856 Z"
     id="path14"
     style="stroke-width:0.000753179;fill:#333333" />
  <path
     d="m 7.3403211,5.4999858 c -0.00482,0.012879 -0.017624,0.088273 -0.030504,0.1685615 l -0.024102,0.1460414 0.089854,0.094675 c 0.1011519,0.107554 0.2006468,0.255177 0.2295689,0.3387046 0.00964,0.030504 0.014461,0.094675 0.011222,0.1412211 -0.032085,0.3787737 -0.6276241,0.7929468 -1.4879804,1.0289178 -1.1749593,0.3242436 -2.6163933,0.3242436 -3.7913525,0 C 1.7817094,7.2656634 1.3113491,7.0281107 1.0625741,6.776097 0.91969606,6.633219 0.86034555,6.5240833 0.84912319,6.3892643 0.8394825,6.2689063 0.87804526,6.1741564 0.9951646,6.0184743 L 1.0706331,5.920561 1.0465314,5.7776829 C 1.0048053,5.5337283 1.0192663,5.5481893 0.91013069,5.6428639 0.78811569,5.7488362 0.68056173,5.8916389 0.60675018,6.0441577 0.55696505,6.148473 0.54898136,6.1822154 0.54416101,6.3122141 0.53452032,6.5032203 0.57466476,6.6364576 0.68538207,6.8033621 0.84754151,7.0457351 1.1107776,7.2496207 1.505594,7.4390452 2.9775317,8.1453011 5.4847893,8.1468828 6.9551453,7.4422085 7.4688134,7.1950152 7.786655,6.9012754 7.8909702,6.5770318 7.9230557,6.4775369 7.927876,6.4373924 7.921474,6.3089754 7.915072,6.1789767 7.9054313,6.1420709 7.8572278,6.040919 7.7608962,5.8418538 7.6293159,5.6894104 7.4078059,5.5240876 7.3628411,5.4903451 7.3451414,5.4839431 7.3403211,5.4999858 Z"
     id="path16"
     style="stroke-width:0.000753179" />
</svg>
