<?xml version="1.0" encoding="UTF-8"?>
<!-- Created with Inkscape (http://www.inkscape.org/) -->
<svg width="32" height="32" version="1.1" viewBox="0 0 8.4667 8.4667" xmlns="http://www.w3.org/2000/svg" xmlns:cc="http://creativecommons.org/ns#" xmlns:dc="http://purl.org/dc/elements/1.1/" xmlns:rdf="http://www.w3.org/1999/02/22-rdf-syntax-ns#">
 <metadata>
  <rdf:RDF>
   <cc:Work rdf:about="">
    <dc:format>image/svg+xml</dc:format>
    <dc:type rdf:resource="http://purl.org/dc/dcmitype/StillImage"/>
    <dc:title/>
   </cc:Work>
  </rdf:RDF>
 </metadata>
 <path d="m4.2058 0.34398a0.32413 0.32413 0 0 0-0.28369 0.32409v0.64819a0.32413 0.32413 0 1 0 0.64823 0v-0.64819a0.32413 0.32413 0 0 0-0.36454-0.32409zm-2.5524 1.0331a0.32413 0.32413 0 0 0-0.16194 0.55705l0.45567 0.45576a0.32413 0.32413 0 1 0 0.45579-0.45576l-0.45579-0.45577a0.32413 0.32413 0 0 0-0.23286-0.1013 0.32413 0.32413 0 0 0-0.030623 0 0.32413 0.32413 0 0 0-0.030623 0zm5.0843 0a0.32413 0.32413 0 0 0-0.19244 0.1013l-0.45579 0.45577a0.32413 0.32413 0 1 0 0.45579 0.45576l0.45579-0.45576a0.32413 0.32413 0 0 0-0.23298-0.55705 0.32413 0.32413 0 0 0-0.030623 0zm-2.4915 0.58742c-1.2462 0-2.2687 1.0224-2.2687 2.2687 0 1.2463 1.0224 2.2687 2.2687 2.2687 1.2464 0 2.2687-1.0224 2.2687-2.2687 0-1.2463-1.0223-2.2687-2.2687-2.2687zm0 0.64819c0.89272 0 1.6205 0.72774 1.6205 1.6205 0 0.89274-0.72773 1.6205-1.6205 1.6205s-1.6205-0.72774-1.6205-1.6205c0-0.89274 0.72773-1.6205 1.6205-1.6205zm-3.6258 1.2964a0.32553 0.32553 0 0 0 0.061246 0.64818h0.64823a0.32413 0.32413 0 1 0 0-0.64818h-0.64823a0.32413 0.32413 0 0 0-0.030623 0 0.32445 0.32445 0 0 0-0.030623 0zm6.4819 0a0.32553 0.32553 0 0 0 0.061246 0.64818h0.64823a0.32413 0.32413 0 1 0 0-0.64818h-0.64823a0.32413 0.32413 0 0 0-0.030623 0 0.32445 0.32445 0 0 0-0.030623 0zm-4.9728 2.0762a0.32413 0.32413 0 0 0-0.18239 0.1013l-0.45567 0.44564a0.32587 0.32587 0 1 0 0.45567 0.46589l0.45579-0.45577a0.32413 0.32413 0 0 0-0.2734-0.55703zm4.122 0a0.32413 0.32413 0 0 0-0.16206 0.55703l0.45579 0.45577a0.32588 0.32588 0 1 0 0.45579-0.46589l-0.45579-0.44564a0.32413 0.32413 0 0 0-0.26336-0.1013 0.32413 0.32413 0 0 0-0.030623 0zm-2.0457 0.84063a0.32413 0.32413 0 0 0-0.28369 0.32409v0.64819a0.32413 0.32413 0 1 0 0.64823 0v-0.64819a0.32413 0.32413 0 0 0-0.36454-0.32409z" fill="#f2f2f2" stroke-width=".3241" style="text-indent:0;text-transform:none"/>
 <path transform="scale(.26458)" d="m14.434 21.919c-2.7069-0.7821-4.5064-3.1473-4.4955-5.9084 0.00706-1.7771 0.53792-3.0434 1.8139-4.3268 0.62328-0.62689 0.93308-0.85464 1.5844-1.1647 1.0713-0.51004 1.6703-0.64411 2.823-0.63189 2.257 0.023908 4.2603 1.2668 5.3176 3.2991 0.47804 0.91885 0.67159 1.7223 0.67341 2.7956 0.0018 1.048-0.12668 1.6643-0.53066 2.5459-0.78781 1.7192-2.4689 3.092-4.2426 3.4644-0.75836 0.15924-2.2691 0.12168-2.9436-0.07319z" fill="#fff" stroke="#fff" stroke-linecap="round" stroke-linejoin="round" stroke-width=".095879" style="paint-order:fill markers stroke"/>
</svg>
