<?xml version="1.0" encoding="UTF-8"?>
<svg width="32" height="32" version="1.1" viewBox="0 0 8.4667 8.4667" xmlns="http://www.w3.org/2000/svg" xmlns:cc="http://creativecommons.org/ns#" xmlns:dc="http://purl.org/dc/elements/1.1/" xmlns:rdf="http://www.w3.org/1999/02/22-rdf-syntax-ns#">
 <metadata>
  <rdf:RDF>
   <cc:Work rdf:about="">
    <dc:format>image/svg+xml</dc:format>
    <dc:type rdf:resource="http://purl.org/dc/dcmitype/StillImage"/>
   </cc:Work>
  </rdf:RDF>
 </metadata>
 <rect x="1.0747" y="2.8664" width="4.8703" height="4.4939" ry=".33732" fill="#555" stop-color="#000000" stroke-linejoin="bevel" stroke-width="1.1774" style="paint-order:stroke fill markers"/>
 <path d="m1.7602 1.1218h3.2294l0.19846 0.22585 0.28009 0.29195v4.5159h-3.708z" fill="#fff" stop-color="#000000" stroke-linejoin="bevel" stroke-width="1.144" style="paint-order:stroke fill markers"/>
 <path d="m1.777 6.1264c-0.010786-0.023639-0.012943-0.066315-0.018004-0.36292-0.0032-0.18486-0.00581-1.1289-0.00581-2.0978-2.6e-5 -0.96894 0.00261-1.938 0.00581-2.1535l0.00593-0.39183 0.021666-0.047965c0.012741-0.028199 0.038165-0.065894 0.061704-0.091473 0.022034-0.023937 0.056275-0.051733 0.076104-0.061788 0.028694-0.014558 0.053999-0.019763 0.12387-0.025537 0.048298-0.003979 0.42361-0.009142 0.83402-0.01141 0.41041-0.002174 0.98451-0.001351 1.2758 0.001892l0.52957 0.00602 0.04665 0.047379c0.02566 0.026052 0.12612 0.13437 0.22324 0.24069 0.097118 0.10632 0.25331 0.2803 0.3471 0.38663 0.093787 0.10632 0.19766 0.22614 0.23084 0.26626l0.060329 0.072949 1.601e-4 1.231 1.588e-4 1.231h-0.24632l-2.619e-4 -0.038298c-1.588e-4 -0.021064-0.0032-0.48803-0.00687-1.0377-0.00355-0.54967-0.0096-1.0369-0.013499-1.0826-0.00379-0.045777-0.010311-0.086695-0.014388-0.090927-0.00403-0.00422-0.027177-0.010111-0.05132-0.01304-0.024147-0.0029443-0.1722-0.0074097-0.32901-0.0098653-0.15681-0.0024451-0.30049-0.0076092-0.31928-0.011386-0.024511-0.0049375-0.044624-0.01613-0.071126-0.039608l-0.036947-0.03271-0.00415-0.39213c-0.00261-0.25272-0.00688-0.40182-0.011912-0.41939-0.00426-0.014991-0.014128-0.030782-0.021844-0.035071-0.00842-0.00464-0.11319-0.010894-0.2584-0.015452-0.15487-0.00484-0.56654-0.00599-1.1243-0.00312-0.48398 0.00243-0.91543 0.00703-0.95878 0.010112-0.043344 0.00307-0.081366 0.00821-0.084472 0.011435-0.00308 0.00324-0.00818 0.034308-0.011141 0.069089-0.00308 0.034784-0.00722 1.06-0.00936 2.2782l-0.00391 2.215-0.082492 0.17044c-0.045371 0.093741-0.094167 0.18931-0.10844 0.21238-0.014282 0.023071-0.028789 0.041947-0.032274 0.041947-0.00343 0-0.011852-0.012061-0.018596-0.026811z" fill="#333" stroke-width=".0071661"/>
 <path d="m2.3262 4.2908 1.1218-1.9881 1.1218 0.91208 0.53897 1.7774-1.4744 0.81856z" fill="#b3b3b3"/>
 <path d="m1.4674 7.5833c-0.39891-0.00456-0.4166-0.00532-0.44702-0.019735-0.017423-0.00824-0.051368-0.030432-0.07544-0.049301-0.024072-0.01887-0.058183-0.052988-0.075808-0.075821-0.017624-0.022828-0.040132-0.058415-0.049993-0.07907-0.012587-0.02635-0.020434-0.060093-0.026265-0.11307-0.006282-0.056604-0.008059-0.57926-0.007112-2.087l0.001304-2.0115 0.029915-0.058187c0.016451-0.032006 0.0437-0.07451 0.060542-0.094459 0.016854-0.019953 0.051925-0.050882 0.077965-0.068741 0.026028-0.017865 0.062782-0.037849 0.08165-0.044426 0.021737-0.00759 0.049856-0.010556 0.12629-0.014947 0.066313-0.00381 0.19049-0.00108 0.24567-0.00115l0.10598-1.372e-4 -0.00186 0.15724v0.16711l-0.13551 0.00271c-0.10309 0.00189-0.14003 0.00518-0.15439 0.013446-0.010431 0.00597-0.039504 0.028908-0.064714 0.050973l-0.045833 0.040121-5.238e-4 3.8516 0.037939 0.03447c0.020848 0.01895 0.050123 0.041938 0.065033 0.051066 0.025459 0.015586 0.036019 0.016728 0.17345 0.01895l0.14635 0.00242 0.25207-0.52759c0.13864-0.29017 0.37281-0.77871 0.52039-1.0856s0.29988-0.6179 0.33845-0.69103c0.038568-0.073138 0.087589-0.16074 0.10893-0.19467 0.021346-0.033928 0.051961-0.075318 0.068033-0.091975 0.016059-0.016645 0.039859-0.034892 0.05285-0.040518 0.017007-0.00736 0.084246-0.012307 0.24049-0.017621 0.11928-0.00406 0.60335-0.010648 1.0757-0.014612 0.47236-0.00397 1.0353-0.00723 1.2509-0.00728 0.21983-2.16e-5 0.39374-0.00288 0.3959-0.00651 0.00214-0.00355 0.00605-0.22056 0.00866-0.48224l0.00474-0.47578 0.035355 0.00484c0.019438 0.00271 0.051391 0.012795 0.070995 0.022474 0.019591 0.0097 0.053951 0.032602 0.076329 0.050911 0.022389 0.018299 0.054817 0.053178 0.072086 0.077481 0.017269 0.024317 0.036315 0.06111 0.042336 0.081789 0.00758 0.025998 0.012943 0.092787 0.017423 0.21632 0.00355 0.098299 0.00663 0.23781 0.00675 0.31003 1.6e-4 0.072219 0.00237 0.14854 0.00474 0.16961l0.0045 0.038298 0.60267 1.111e-4c0.33147 5.42e-5 0.63859 0.0032 0.6825 0.00697 0.057188 0.00491 0.088822 0.01136 0.11151 0.022746 0.018004 0.00903 0.040784 0.028872 0.052743 0.045926 0.011615 0.016509 0.025767 0.041524 0.031515 0.055566 0.00581 0.014043 0.012066 0.046869 0.014021 0.072949l0.00355 0.047417-0.080394 0.16778c-0.044211 0.092294-0.13355 0.27448-0.19853 0.40488-0.064975 0.1304-0.19582 0.39137-0.29077 0.57994-0.094949 0.18857-0.24066 0.47581-0.3238 0.6383-0.083144 0.16249-0.1923 0.37423-0.24257 0.47052-0.050266 0.096292-0.10664 0.20134-0.12526 0.23344-0.020824 0.035881-0.055102 0.079654-0.088999 0.11365-0.03033 0.03041-0.078889 0.071774-0.10794 0.09192l-0.052803 0.03663-2.1436 0.00363c-1.179 0.00188-2.3305 0.0016-2.5589-0.00108z" fill="#4d4d4d" stroke-width=".0071661"/>
</svg>
