<svg xmlns="http://www.w3.org/2000/svg" width="40" height="45" viewBox="0 0 10.583333 11.90625">
    <g fill="#fff">
        <path d="M1.834 10.627l3.621.067 3.946-3.09M1.727 10.747l.066-4.744 2.346-4.55" fill="none" stroke="gray"
            stroke-width=".3378063" stroke-linejoin="round" />
        <path
            d="M6.412 7.802l-.402.541.423.572h-.216l-.323-.437-.324.437h-.216l.432-.582-.395-.53h.216l.295.395.295-.396zM4.044 5.279q-.077.198-.15.259-.074.06-.198.06H3.55v-.153h.108q.075 0 .117-.035.042-.036.092-.17l.033-.083-.45-1.094h.194l.347.87.348-.87h.194z"
            style="line-height:10.18297863px" font-weight="400" font-size="8.689" font-family="sans-serif"
            letter-spacing="0" word-spacing="0" fill="#555555" stroke-width=".407" />
        <path d="M4.293 1.42l4.346.066M8.663 1.466l.728 6.147" fill="none" stroke="gray" stroke-width=".3378063"
            stroke-linejoin="round" />
        <path
            d="M10.26 7.363a.857.855 76.183 0 1-.624 1.036.857.855 76.183 0 1-1.035-.628.857.855 76.183 0 1 .625-1.036.857.855 76.183 0 1 1.035.628zM2.637 10.45a.857.855 76.183 0 1-.625 1.036.857.855 76.183 0 1-1.035-.628.857.855 76.183 0 1 .625-1.036.857.855 76.183 0 1 1.035.628zM2.637 5.726a.857.855 76.183 0 1-.625 1.036.857.855 76.183 0 1-1.035-.628.857.855 76.183 0 1 .625-1.036.857.855 76.183 0 1 1.035.628zM9.466 1.165a.857.855 76.183 0 1-.625 1.037.857.855 76.183 0 1-1.035-.628.857.855 76.183 0 1 .625-1.037.857.855 76.183 0 1 1.035.628zM5.04 1.202a.857.855 76.183 0 1-.626 1.036.857.855 76.183 0 1-1.034-.628.857.855 76.183 0 1 .625-1.036.857.855 76.183 0 1 1.034.628zM6.372 10.416a.857.855 76.183 0 1-.625 1.036.857.855 76.183 0 1-1.034-.628.857.855 76.183 0 1 .625-1.036.857.855 76.183 0 1 1.034.628z"
            style="isolation:auto;mix-blend-mode:normal" color="#000" overflow="visible" fill="#555555" />
    </g>
</svg>