<svg xmlns="http://www.w3.org/2000/svg" width="32" height="32" viewBox="0 0 8.4666664 8.4666664"><path style="isolation:auto;mix-blend-mode:normal;marker:none" color="#000" overflow="visible" fill="#fff" fill-rule="evenodd" paint-order="markers stroke fill" d="M0 0h8.467v8.468H0z"/><g transform="matrix(1.08686 0 0 1.08686 -20.768 -11.547)"><g stroke="#b3b3b3" stroke-width=".122" fill="#fff" fill-rule="evenodd"><path d="M20.635 10.964h3.946l1.501 1.842v5.269h-5.447z" style="isolation:auto;mix-blend-mode:normal;marker:none" color="#000" overflow="visible" stroke-linecap="round"/><path d="M24.633 11.142v1.59h1.364z" stroke-linecap="square"/></g><rect rx="0" ry="0" y="14.685" x="19.894" height="2.345" width="5.319" style="isolation:auto;mix-blend-mode:normal" color="#000" overflow="visible" fill="#e6e6e6"/><g style="line-height:2.39203882px;-inkscape-font-specification:'Arial, Bold';font-variant-ligatures:normal;font-variant-caps:normal;font-variant-numeric:normal;font-feature-settings:normal;text-align:start" font-weight="700" font-size="2.041" font-family="Arial" letter-spacing="0" word-spacing="0" fill="#fff" stroke-width=".096"><path d="M20.687 16.572v-1.46h.474q.269 0 .35.021.126.033.211.144.085.11.085.284 0 .134-.05.226-.048.092-.124.145-.074.051-.152.068-.106.021-.306.021h-.193v.551zm.295-1.214v.415h.162q.174 0 .233-.023.059-.023.092-.072.034-.048.034-.113 0-.08-.047-.132-.047-.052-.119-.065-.053-.01-.212-.01zM22.05 15.111h.54q.181 0 .277.028.129.038.22.135.092.096.14.237.048.14.048.345 0 .18-.045.31-.055.16-.157.259-.076.075-.207.117-.098.03-.261.03h-.555zm.295.247v.968h.22q.124 0 .179-.014.071-.018.118-.06.048-.043.078-.141.03-.099.03-.268 0-.17-.03-.26-.03-.091-.084-.142-.054-.05-.136-.069-.062-.014-.243-.014zM23.528 16.572v-1.46h1.002v.246h-.707v.346h.61v.248h-.61v.62z" style="-inkscape-font-specification:'Arial, Bold';font-variant-ligatures:normal;font-variant-caps:normal;font-variant-numeric:normal;font-feature-settings:normal;text-align:start"/></g></g></svg>