<?xml version="1.0" encoding="UTF-8"?>
<!-- Created with Inkscape (http://www.inkscape.org/) -->
<svg width="32" height="32" version="1.1" viewBox="0 0 8.4667 8.4667" xmlns="http://www.w3.org/2000/svg" xmlns:cc="http://creativecommons.org/ns#" xmlns:dc="http://purl.org/dc/elements/1.1/" xmlns:rdf="http://www.w3.org/1999/02/22-rdf-syntax-ns#">
 <metadata>
  <rdf:RDF>
   <cc:Work rdf:about="">
    <dc:format>image/svg+xml</dc:format>
    <dc:type rdf:resource="http://purl.org/dc/dcmitype/StillImage"/>
    <dc:title/>
   </cc:Work>
  </rdf:RDF>
 </metadata>
 <g>
  <g fill-rule="evenodd" stroke-width=".026591">
   <path d="m6.3976 0.97669-3.1794 3.2738-0.14154 0.31271 0.95391 0.94685 0.31616-0.18519 3.1764-3.2593z" fill="#333"/>
   <g shape-rendering="auto">
    <path d="m3.7679 4.7969-0.55658-0.54011 2.974-3.0657 1.1288 1.0952-1.4801 1.5251c-0.81408 0.83882-1.4867 1.5252-1.4948 1.5254-0.0080576 1.219e-4 -0.26512-0.24283-0.57123-0.53989zm2.9538-2.434c-0.054167-0.05302-0.10546-0.096296-0.11398-0.096166-0.0085221 1.292e-4 -0.52809 0.52866-1.1546 1.1745l-1.1391 1.1743 0.21269 0.20793 2.2935-2.3641z" color="#000000" color-rendering="auto" fill="#999" image-rendering="auto" solid-color="#000000" style="isolation:auto;mix-blend-mode:normal;paint-order:markers stroke fill"/>
    <path d="m6.9569 1.5248-0.56436-0.54856 0.39216-0.40089c0.21569-0.22049 0.42563-0.42464 0.46652-0.45366 0.10193-0.072343 0.19479-0.075166 0.29293-0.0088956 0.078409 0.052954 0.75904 0.71259 0.81778 0.79257 0.052831 0.071917 0.063952 0.1564 0.030421 0.2311-0.016314 0.036338-0.18798 0.22679-0.44875 0.49788l-0.42233 0.43903z" color="#000000" color-rendering="auto" fill="#555555" image-rendering="auto" solid-color="#000000" style="isolation:auto;mix-blend-mode:normal;paint-order:markers stroke fill"/>
    <path d="m2.9617 5.6348-0.18346-0.17615 0.028274-0.097208c0.039033-0.12447 0.25304-0.78043 0.26509-0.7997 0.0079-0.012633 0.01882-0.00909 0.049858 0.016161 0.11343 0.092287 0.74425 0.71529 0.85502 0.84442 0.032955 0.038415 0.05523 0.074761 0.049505 0.08077-0.022637 0.023746-0.86684 0.30213-0.88751 0.29508-6e-3 -0.00204-0.067361-0.056804-0.17679-0.16335z" color="#000000" color-rendering="auto" fill="#c5c5c5" image-rendering="auto" solid-color="#000000" style="isolation:auto;mix-blend-mode:normal;paint-order:markers stroke fill"/>
   </g>
   <path d="m2.9218 4.9767 0.70786 0.70121-0.99389 0.25056z" fill="#333"/>
  </g>
  <path d="m3.3199 8.0556h-0.71234l-0.28316-0.73668h-1.2964l-0.26769 0.73668h-0.69465l1.2632-3.2432h0.69244zm-1.2057-1.2831-0.44688-1.2035-0.43802 1.2035z" fill="#555555" stroke-width=".21238px"/>
 </g>
</svg>
