<?xml version="1.0" encoding="UTF-8"?>
<svg width="48" height="48" version="1.1" viewBox="0 0 48 48" xmlns="http://www.w3.org/2000/svg" xmlns:cc="http://creativecommons.org/ns#" xmlns:dc="http://purl.org/dc/elements/1.1/" xmlns:rdf="http://www.w3.org/1999/02/22-rdf-syntax-ns#">
 <metadata>
  <rdf:RDF>
   <cc:Work rdf:about="">
    <dc:format>image/svg+xml</dc:format>
    <dc:type rdf:resource="http://purl.org/dc/dcmitype/StillImage"/>
    <dc:title/>
   </cc:Work>
  </rdf:RDF>
 </metadata>
 <path d="M0 0h48v48H0z" fill="#fff" fill-rule="evenodd"/>
 <path d="M6.084 5.229A1.842 1.842 0 0 0 4.242 7.07v3.458a1.842 1.842 0 0 0 1.838 1.842l1.74.004.582.002 2.625 5.533 2.721 5.733L13 24.994c-.314.568-.61 1.108-.836 1.522-.226.414-.289.502-.451.844a5.45 5.45 0 0 0-.416 1.255c-.158.782-.157 1.203-.014 1.975.267 1.44 1.144 2.614 2.299 3.397-1.107.76-1.958 1.878-2.256 3.246a1.842 1.842 0 0 0 0 .002c-.059.27-.09.647-.09 1.082 0 .438.032.823.09 1.09.466 2.141 2.21 3.817 4.375 4.167.782.127 1.1.116 1.863-.044 2.46-.517 4.262-2.696 4.262-5.211 0-1.302-.6-2.418-1.424-3.368 1.836.003 3.981.005 6.485.006l2.935.002c-.054.067-.13.104-.183.176-.385.511-.604.93-.801 1.541a5.565 5.565 0 0 0-.244 1.64c0 .385.032.753.086 1.018.327 1.626 1.392 3.041 2.886 3.768a5.7 5.7 0 0 0 1.64.496 1.842 1.842 0 0 0 .007 0c.265.039.224.02.273.022l.149.002c.102 0 .22 0 .344-.002a5.528 5.528 0 0 0 1.591-.266 5.402 5.402 0 0 0 2.01-1.23 5.427 5.427 0 0 0 1.506-2.737 1.842 1.842 0 0 0 0-.004c.057-.265.088-.647.088-1.066 0-.416-.03-.79-.088-1.057a1.842 1.842 0 0 0 0-.002c-.191-.883-.655-1.683-1.242-2.367a1.842 1.842 0 0 0 1.342-1.772v-3.48a1.842 1.842 0 0 0-1.842-1.842h-4.592c.32-.091.646-.189.928-.326a5.316 5.316 0 0 0 2.093-1.812c.213-.317.116-.19.176-.295l.239-.428c.198-.357.473-.85.798-1.438a2490.925 2490.925 0 0 0 5.434-9.877l.219-.402.066-.125.033-.068c.008-.017.018-.034.04-.084.01-.025.023-.053.052-.137.029-.083-.002-1.182-.002-1.193l-.29-.541c-.001 0-.125-.145-.165-.184-.08-.078-.121-.11-.154-.135-.066-.05-.094-.068-.117-.084l-.092-.058a34.464 34.464 0 0 0-.492-.281 152.726 152.726 0 0 0-2.452-1.338c-.048-.026-.088-.047-.136-.07a1.672 1.672 0 0 0-.227-.098c-.037-.014-.083-.03-.184-.055a5.397 5.397 0 0 0-.22-.041l-.545.016-.621.23s-.218.149-.281.205c-.127.113-.18.18-.221.23-.083.103-.108.148-.135.19-.054.084-.086.142-.139.232-.104.182-.264.469-.546.977-.564 1.016-1.607 2.906-3.545 6.424l-1.998 3.627h-9.924a16359.86 16359.86 0 0 1-6.108-12.871 1.842 1.842 0 0 0-.002-.002l-.806-1.704a1.842 1.842 0 0 0-1.664-1.052h-5.68z" fill="#333"/>
 <path d="M15.852 41.9c-1.45-.235-2.556-1.29-2.871-2.74-.042-.193-.048-.276-.048-.698 0-.417.007-.507.047-.693.335-1.539 1.565-2.633 3.102-2.76a3.458 3.458 0 0 1 1.812.339 3.491 3.491 0 0 1 1.946 3.114c0 1.65-1.162 3.066-2.798 3.41a4.588 4.588 0 0 1-1.19.028zm17.482.019a3.673 3.673 0 0 1-1.104-.33c-.99-.481-1.668-1.37-1.89-2.474-.04-.2-.048-.3-.048-.653.001-.462.036-.704.156-1.079a4.03 4.03 0 0 1 .517-.994c.205-.273.558-.615.811-.788a3.468 3.468 0 0 1 4.469.47c.451.474.75 1.048.896 1.72.04.182.046.278.046.671 0 .4-.006.486-.047.677a3.464 3.464 0 0 1-.985 1.804c-.403.39-.81.64-1.313.809-.39.13-.584.162-1.04.17a5.942 5.942 0 0 1-.468-.004zM16.079 33.24c-1.549-.12-2.841-1.295-3.129-2.843a4.467 4.467 0 0 1 .008-1.272c.06-.296.15-.57.275-.832.054-.115.61-1.133 1.235-2.262l1.17-2.118.033-.065-3.123-6.583-3.124-6.582-1.742-.005-1.741-.005v-3.46h5.679l.805 1.704c.652 1.38 5.892 12.422 6.457 13.608l.152.318h12.178l2.523-4.58c3.878-7.035 4.168-7.558 4.197-7.564.034-.005 3.002 1.623 3.012 1.652.01.03-6.702 12.214-6.845 12.427-.334.497-.81.909-1.37 1.181-.263.128-.467.2-.792.277l-.229.055-6.71.006-6.71.006-.802 1.451c-.743 1.347-.801 1.46-.809 1.568a.343.343 0 0 0 .052.23.33.33 0 0 0 .17.173l.112.058h20.188v3.48l-10.456-.003c-5.75-.002-10.55-.01-10.664-.02z" fill="#fff"/>
 <path d="M24.357 4.711c-.695 0-1.254.596-1.254 1.337v2.854H20.25c-.741 0-1.339.559-1.339 1.253v1.91c0 .696.598 1.255 1.339 1.255h2.853v2.853c0 .741.56 1.337 1.254 1.337h1.909c.695 0 1.255-.596 1.255-1.337V13.32h2.854c.74 0 1.337-.56 1.337-1.254v-1.91c0-.695-.596-1.254-1.337-1.254H27.52V6.048c0-.741-.56-1.337-1.255-1.337h-1.909z" fill="#ff3637" fill-rule="evenodd" overflow="visible" style="isolation:auto;mix-blend-mode:normal"/>
</svg>
