<?xml version="1.0" encoding="UTF-8"?>
<!-- Created with Inkscape (http://www.inkscape.org/) -->
<svg width="32" height="32" version="1.1" viewBox="0 0 8.4667 8.4667" xmlns="http://www.w3.org/2000/svg" xmlns:cc="http://creativecommons.org/ns#" xmlns:dc="http://purl.org/dc/elements/1.1/" xmlns:rdf="http://www.w3.org/1999/02/22-rdf-syntax-ns#">
 <metadata>
  <rdf:RDF>
   <cc:Work rdf:about="">
    <dc:format>image/svg+xml</dc:format>
    <dc:type rdf:resource="http://purl.org/dc/dcmitype/StillImage"/>
    <dc:title/>
   </cc:Work>
  </rdf:RDF>
 </metadata>
 <path d="m0.80932 7.6435 3.4805-2.7859 3.4172-4.0654" fill="none" stroke="#333" stroke-linejoin="round" stroke-width=".2958"/>
 <g fill="#555555" shape-rendering="auto" stroke-width=".23409">
  <path d="m1.5444 7.4586a0.75054 0.74843 76.183 0 1-0.54754 0.90757 0.75054 0.74843 76.183 0 1-0.90602-0.55006 0.75054 0.74843 76.183 0 1 0.54754-0.90757 0.75054 0.74843 76.183 0 1 0.90602 0.55006z" color="#000000" color-rendering="auto" image-rendering="auto" solid-color="#000000" style="isolation:auto;mix-blend-mode:normal"/>
  <path d="m5.2313 4.4762a0.75054 0.74843 76.183 0 1-0.54754 0.90757 0.75054 0.74843 76.183 0 1-0.90602-0.55006 0.75054 0.74843 76.183 0 1 0.54754-0.90757 0.75054 0.74843 76.183 0 1 0.90602 0.55006z" color="#000000" color-rendering="auto" image-rendering="auto" solid-color="#000000" style="isolation:auto;mix-blend-mode:normal"/>
  <path d="m8.4079 0.61844a0.75054 0.74843 76.183 0 1-0.54754 0.90757 0.75054 0.74843 76.183 0 1-0.90602-0.55009 0.75054 0.74843 76.183 0 1 0.54754-0.90757 0.75054 0.74843 76.183 0 1 0.90602 0.55006z" color="#000000" color-rendering="auto" image-rendering="auto" solid-color="#000000" style="isolation:auto;mix-blend-mode:normal"/>
 </g>
</svg>
