<?xml version="1.0" encoding="UTF-8"?>
<!-- Created with Inkscape (http://www.inkscape.org/) -->
<svg width="32" height="32" version="1.1" viewBox="0 0 8.4667 8.4667" xmlns="http://www.w3.org/2000/svg" xmlns:cc="http://creativecommons.org/ns#" xmlns:dc="http://purl.org/dc/elements/1.1/" xmlns:rdf="http://www.w3.org/1999/02/22-rdf-syntax-ns#" xmlns:xlink="http://www.w3.org/1999/xlink">
 <defs>
  <linearGradient id="linearGradient834" x1="66.199" x2="65.17" y1="131.78" y2="126.62" gradientUnits="userSpaceOnUse">
   <stop stop-color="#ccc" offset="0"/>
   <stop stop-color="#fff" offset="1"/>
  </linearGradient>
 </defs>
 <metadata>
  <rdf:RDF>
   <cc:Work rdf:about="">
    <dc:format>image/svg+xml</dc:format>
    <dc:type rdf:resource="http://purl.org/dc/dcmitype/StillImage"/>
    <dc:title/>
   </cc:Work>
  </rdf:RDF>
 </metadata>
 <g transform="translate(-62.516 -124.72)">
  <path d="m66.47 132.42c-0.42341-0.0385-0.83142-0.1515-1.2111-0.33545-0.93945-0.45512-1.6297-1.3049-1.8767-2.3104-0.23272-0.94733-0.0638-1.9391 0.46908-2.7541 0.21475-0.32845 0.50056-0.63351 0.81988-0.87511 0.40907-0.30949 0.92668-0.54097 1.42-0.63499 0.1059-0.0202 0.11858-0.0212 0.16998-0.0141 0.13301 0.0185 0.23999 0.12366 0.26317 0.25874 0.0076 0.0446 0.0067 0.0611-0.01029 0.16558-0.02768 0.17089-0.03233 0.21169-0.0409 0.35937-0.0086 0.14713-0.0013 0.33965 0.01865 0.49735 0.08576 0.6773 0.42275 1.3178 0.9324 1.7721 0.44296 0.3949 0.97696 0.6399 1.5567 0.71423 0.27686 0.0354 0.52244 0.0302 0.83231-0.0181 0.11166-0.0174 0.15829-0.0124 0.23476 0.0254 0.12187 0.0602 0.18747 0.19025 0.16612 0.32962-0.0194 0.12669-0.08899 0.37728-0.15117 0.54449-0.23719 0.63781-0.64387 1.183-1.1851 1.5888-0.53152 0.39854-1.152 0.63282-1.8269 0.68989-0.11506 0.01-0.45872 8e-3 -0.58078-5e-3zm0.6339-0.62949c0.62233-0.0776 1.1537-0.32025 1.6169-0.73833 0.30989-0.2797 0.57808-0.66765 0.73012-1.0561l0.03185-0.0814-0.19256-5e-3c-0.20843-5e-3 -0.29217-0.0124-0.47233-0.0386-0.89372-0.13332-1.7126-0.6215-2.2666-1.3512-0.20818-0.27423-0.37892-0.58886-0.50195-0.925-0.13828-0.37784-0.21531-0.84597-0.20451-1.243l0.0035-0.12973-0.01837 5e-3c-0.07328 0.0185-0.34611 0.14222-0.47838 0.21714-0.24035 0.13607-0.49405 0.33804-0.68291 0.54347-0.62952 0.68478-0.88749 1.6042-0.70599 2.5162 0.19928 1.0014 0.93494 1.8317 1.9123 2.1583 0.21413 0.0715 0.46584 0.12118 0.71535 0.14097 0.08064 5e-3 0.42869-3e-3 0.5135-0.0124z" fill="#666" stroke-width=".0070801"/>
  <path d="m66.444 132.18c-1.5181-0.23384-2.6618-1.4201-2.8535-2.8803-0.02306-0.18622-0.02297-0.57153 1.69e-4 -0.74956 0.06742-0.51869 0.23771-0.97972 0.51541-1.3954 0.23489-0.35156 0.55284-0.66919 0.90514-0.90421 0.38949-0.23698 0.80695-0.39245 1.2465-0.49784-0.03483 0.79162-0.08144 1.7184 0.71368 2.6268 0.75449 0.86195 1.9362 1.2103 3.0776 1.0954-0.28589 1.6513-1.7782 2.9804-3.605 2.705z" fill="url(#linearGradient834)" stroke="#b3b3b3" stroke-linecap="round" stroke-linejoin="round" stroke-width=".010066" style="paint-order:fill markers stroke"/>
 </g>
</svg>
