<?xml version="1.0" encoding="UTF-8"?>
<!-- Created with Inkscape (http://www.inkscape.org/) -->
<svg width="30" height="30" version="1.1" viewBox="0 0 7.9375 7.9375" xmlns="http://www.w3.org/2000/svg">
 <g transform="translate(-113.14 -119.73)">
  <g transform="matrix(.74788 0 0 .79679 28.526 24.33)">
   <path d="m115.71 129.67c-0.17645-0.026-0.34478-0.0829-0.54046-0.18317-0.15232-0.0779-0.22432-0.13297-0.38593-0.29457-0.16283-0.16281-0.21649-0.23334-0.29722-0.39065-0.39942-0.7783-0.16246-1.6976 0.55899-2.1686 0.51389-0.33546 1.1597-0.35419 1.7327-0.0502 0.18785 0.0997 0.34167 0.0873 0.45489-0.0364 0.0785-0.0859 0.27936-0.44322 0.26988-0.48024-4e-3 -0.0195-0.50522-0.87149-1.1116-1.8933-0.6064-1.0218-1.1352-1.9234-1.175-2.0035-0.17676-0.35495-0.2528-0.69955-0.25254-1.1443 1.6e-4 -0.32661 0.0185-0.45941 0.10421-0.75505 0.0511-0.1763 0.21035-0.54586 0.23475-0.54472 7e-3 3.4e-4 0.67732 1.1375 1.4898 2.5269 0.81246 1.3895 1.4819 2.5263 1.4876 2.5263 6e-3 0 0.67515-1.1368 1.4876-2.5263 0.81245-1.3895 1.4829-2.5266 1.4898-2.5269 0.0244-1e-3 0.18366 0.36842 0.23473 0.54472 0.0857 0.29564 0.10407 0.42844 0.10421 0.75505 2.4e-4 0.45018-0.076 0.79091-0.25848 1.1553-0.0432 0.0862-0.57228 0.98914-1.1759 2.0067-0.60359 1.0175-1.1009 1.8646-1.1052 1.8824-0.0117 0.0512 0.23316 0.44943 0.3161 0.51268 0.1186 0.0904 0.23918 0.0913 0.40553 3e-3 0.3356-0.17846 0.68549-0.25004 1.0174-0.20814 0.78019 0.0985 1.3653 0.68364 1.4638 1.4638 0.059 0.46794-0.10436 0.95851-0.43694 1.311-0.22958 0.24338-0.47057 0.39018-0.78774 0.47987-0.21441 0.0606-0.61429 0.065-0.82002 9e-3 -0.31052-0.0845-0.56756-0.23129-0.77464-0.44215-0.1687-0.17179-0.17594-0.18278-0.68565-1.0421-0.25284-0.42625-0.46645-0.77501-0.47467-0.77501-9e-3 0-0.22183 0.34876-0.47468 0.77501-0.51461 0.86753-0.51597 0.8696-0.69598 1.0523-0.35261 0.35783-0.89287 0.53604-1.3993 0.4616zm0.57614-0.70227c0.2297-0.0831 0.43744-0.26655 0.5377-0.47501 0.20516-0.42654 0.15263-0.81591-0.15486-1.148-0.3899-0.42114-1.0484-0.4192-1.4429 4e-3 -0.2998 0.32183-0.35852 0.74435-0.15835 1.1394 0.1158 0.22848 0.38773 0.44376 0.64273 0.5088 0.14677 0.0374 0.43107 0.0229 0.57565-0.0294zm4.5363 0.0336c0.4405-0.0935 0.787-0.52274 0.78618-0.97383-4.7e-4 -0.26225-0.0878-0.47792-0.27477-0.67863-0.39446-0.42344-1.053-0.42538-1.4429-4e-3 -0.28365 0.30638-0.34852 0.65722-0.19525 1.0559 0.0593 0.15418 0.0869 0.19554 0.21556 0.32272 0.26249 0.2595 0.5645 0.35165 0.91115 0.27805z" fill="#636260" stroke-width=".020806"/>
   <g transform="matrix(.91038 0 0 .91038 10.615 11.354)" stroke-width=".062371">
    <path d="m120.47 125.17c0.27817-0.4895 0.38029-1.1762 0.21954-1.476-0.0993-0.18512-0.4808-0.30102-0.69658-0.21166-0.22474 0.093-0.33672 0.27286-0.36345 0.5833-0.0109 0.1312-0.0537 0.31267-0.0945 0.4032-0.0955 0.21249-0.41234 0.52847-0.6294 0.62833-0.22404 0.10262-4.025 0.11099-4.3462 0.01-0.7672-0.24196-1.0261-1.2208-0.49031-1.8535 0.27092-0.31991 0.56581-0.42038 1.2143-0.41364l0.4761 5e-3 0.14077-0.26209c0.0773-0.14413 0.28117-0.4025 0.4528-0.57411l0.31205-0.31205-1.0594-2e-3c-1.1464-2e-3 -1.5018 0.074-2.0281 0.43654-0.77422 0.53326-1.1404 1.6068-0.85909 2.5184 0.2252 0.72991 0.62145 1.1781 1.3357 1.5106 0.29451 0.13714 0.57134 0.15519 2.5117 0.16367 1.1994 5e-3 2.3145-0.0249 2.478-0.0668 0.59484-0.15259 1.1252-0.55658 1.4264-1.0864z" fill="#0cb1db"/>
    <path d="m123.93 125.26c0.4929-0.82737 0.46985-1.7618-0.0634-2.5728-0.22983-0.3494-0.53429-0.59521-1.014-0.81863-0.29451-0.13713-0.57133-0.15517-2.5116-0.16367-1.1994-5e-3 -2.3145 0.0249-2.478 0.0667-0.3551 0.0911-0.81823 0.34995-1.0617 0.59341-0.51592 0.51593-0.8178 1.5334-0.58419 1.9691 0.0993 0.18511 0.48077 0.301 0.69657 0.21163 0.22474-0.093 0.33669-0.27286 0.36344-0.58329 0.0109-0.13121 0.0537-0.31268 0.0945-0.40321 0.0955-0.21248 0.41235-0.52847 0.62941-0.62829 0.23004-0.10529 4.0294-0.10978 4.3605-6e-3 0.56686 0.17907 0.90648 0.87581 0.70679 1.4502-0.20331 0.5848-0.62314 0.82086-1.4451 0.8123l-0.47611-5e-3 -0.14078 0.2621c-0.0774 0.14413-0.28109 0.40319-0.45273 0.57557l-0.31217 0.31329 1.1389-8e-3c0.95035-7e-3 1.1952-0.0336 1.4787-0.16313 0.44451-0.20324 0.86399-0.55752 1.0704-0.90418z" fill="#6adffb"/>
   </g>
   <path d="m115.71 129.67c-0.17645-0.026-0.34478-0.0829-0.54046-0.18317-0.15232-0.0779-0.22432-0.13297-0.38593-0.29457-0.16283-0.16281-0.21649-0.23334-0.29722-0.39065-0.39942-0.7783-0.16246-1.6976 0.55899-2.1686 0.51389-0.33546 1.1597-0.35419 1.7327-0.0502 0.18785 0.0997 0.34167 0.0873 0.45489-0.0364 0.0785-0.0859 0.27936-0.44322 0.26988-0.48024l0.77714-1.2877c6e-3 0 0.67515-1.1368 1.4876-2.5263 0.81245-1.3895 1.4829-2.5266 1.4898-2.5269 0.0244-1e-3 0.18366 0.36842 0.23473 0.54472 0.0857 0.29564 0.10407 0.42844 0.10421 0.75505 2.4e-4 0.45018-0.076 0.79091-0.25848 1.1553-0.0432 0.0862-0.57228 0.98914-1.1759 2.0067-0.60359 1.0175-1.1009 1.8646-1.1052 1.8824-0.0117 0.0512 0.23316 0.44943 0.3161 0.51268 0.1186 0.0904 0.23918 0.0913 0.40553 3e-3 0.3356-0.17846 0.68549-0.25004 1.0174-0.20814 0.78019 0.0985 1.3653 0.68364 1.4638 1.4638 0.059 0.46794-0.10436 0.95851-0.43694 1.311-0.22958 0.24338-0.47057 0.39018-0.78774 0.47987-0.21441 0.0606-0.61429 0.065-0.82002 9e-3 -0.31052-0.0845-0.56756-0.23129-0.77464-0.44215-0.1687-0.17179-0.17594-0.18278-0.68565-1.0421-0.25284-0.42625-0.46645-0.77501-0.47467-0.77501-9e-3 0-0.22183 0.34876-0.47468 0.77501-0.51461 0.86753-0.51597 0.8696-0.69598 1.0523-0.35261 0.35783-0.89287 0.53604-1.3993 0.4616zm0.57614-0.70227c0.2297-0.0831 0.43744-0.26655 0.5377-0.47501 0.20516-0.42654 0.15263-0.81591-0.15486-1.148-0.3899-0.42114-1.0484-0.4192-1.4429 4e-3 -0.2998 0.32183-0.35852 0.74435-0.15835 1.1394 0.1158 0.22848 0.38773 0.44376 0.64273 0.5088 0.14677 0.0374 0.43107 0.0229 0.57565-0.0294zm4.5363 0.0336c0.4405-0.0935 0.787-0.52274 0.78618-0.97383-4.7e-4 -0.26225-0.0878-0.47792-0.27477-0.67863-0.39446-0.42344-1.053-0.42538-1.4429-4e-3 -0.28365 0.30638-0.34852 0.65722-0.19525 1.0559 0.0593 0.15418 0.0869 0.19554 0.21556 0.32272 0.26249 0.2595 0.5645 0.35165 0.91115 0.27805z" fill="#b3b3b3" stroke-width=".020806"/>
   <path d="m120.82 129c0.4405-0.0935 0.787-0.52274 0.78618-0.97383-4.7e-4 -0.26225-0.0878-0.47792-0.27477-0.67863-0.39446-0.42344-1.053-0.42538-1.4429-4e-3 -0.28365 0.30638-0.34852 0.65722-0.19525 1.0559 0.0593 0.15418 0.0869 0.19554 0.21556 0.32272 0.26249 0.2595 0.5645 0.35165 0.91115 0.27805zm-1.7656-2.932c-0.0117 0.0512 0.23316 0.44943 0.3161 0.51268 0.1186 0.0904 0.23918 0.0913 0.40553 3e-3 0.3356-0.17846 0.68549-0.25004 1.0174-0.20814 0.78019 0.0985 1.3653 0.68364 1.4638 1.4638 0.059 0.46794-0.10436 0.95851-0.43694 1.311-0.22958 0.24338-0.47057 0.39018-0.78774 0.47987-0.21441 0.0606-0.61429 0.065-0.82002 9e-3 -0.31052-0.0845-0.56756-0.23129-0.77464-0.44215-0.1687-0.17179-0.17594-0.18278-0.68565-1.0421-0.25284-0.42625-0.46645-0.77501-0.47467-0.77501z" fill="#636260" stroke-width=".020806"/>
   <circle cx="118.26" cy="125.94" r=".36847" fill="#636260" stroke-width=".26458"/>
  </g>
 </g>
</svg>
