<?xml version="1.0" encoding="utf-8"?>
<!-- Generator: Adobe Illustrator 15.0.2, SVG Export Plug-In . SVG Version: 6.00 Build 0)  -->
<!DOCTYPE svg PUBLIC "-//W3C//DTD SVG 1.1//EN" "http://www.w3.org/Graphics/SVG/1.1/DTD/svg11.dtd">
<svg version="1.1"
	 id="Ebene_1" xmlns:dc="http://purl.org/dc/elements/1.1/" xmlns:cc="http://creativecommons.org/ns#" xmlns:rdf="http://www.w3.org/1999/02/22-rdf-syntax-ns#" xmlns:osb="http://www.openswatchbook.org/uri/2009/osb"
	 xmlns="http://www.w3.org/2000/svg" xmlns:xlink="http://www.w3.org/1999/xlink" x="0px" y="0px" width="32px" height="32px"
	 viewBox="0 0 32 32" enable-background="new 0 0 32 32" xml:space="preserve">
<path fill="#333333" d="M19.765,24.471c0,0.521-0.421,0.941-0.941,0.941H3.765c-0.521,0-0.941-0.421-0.941-0.941V7.529
	c0-0.52,0.421-0.94,0.941-0.94h15.059c0.521,0,0.941,0.421,0.941,0.94v3.765c0,0.521,0.421,0.941,0.941,0.941
	c0.52,0,0.94-0.421,0.94-0.941V7.529c0-1.56-1.265-2.823-2.823-2.823H3.765c-1.56,0-2.824,1.264-2.824,2.823v16.941
	c0,1.559,1.265,2.823,2.824,2.823h15.059c1.559,0,2.823-1.265,2.823-2.823v-3.765c0-0.521-0.421-0.941-0.94-0.941
	c-0.521,0-0.941,0.421-0.941,0.941V24.471z"/>
<path fill="#333333" d="M30.783,16.665c0.367-0.365,0.369-0.963,0.003-1.33c-0.001,0-0.001,0-0.003,0l-5.647-5.648
	c-0.367-0.367-0.963-0.367-1.331,0c-0.367,0.368-0.367,0.966,0,1.333l4.041,4.039H11.294c-0.521,0-0.941,0.421-0.941,0.941
	s0.421,0.941,0.941,0.941h16.552l-4.041,4.04c-0.367,0.368-0.367,0.964,0,1.331c0.368,0.368,0.964,0.368,1.331,0L30.783,16.665z"/>
</svg>
