<svg xmlns="http://www.w3.org/2000/svg" width="32" height="32" viewBox="0 0 8.4666664 8.4666667"><path d="M.85 7.588l3.228.059L7.596 4.89" fill="none" stroke="#999" stroke-width=".301" stroke-linejoin="round"/><path d="M.825 7.694l-.011-4.23 2.185-2.372M3.042 1.086l3.875.059M6.891 1.104L7.588 4.9" fill="none" stroke="#999" stroke-width=".301" stroke-linejoin="round"/><path d="M8.363 4.677a.764.762 76.183 0 1-.558.924.764.762 76.183 0 1-.922-.56.764.762 76.183 0 1 .557-.924.764.762 76.183 0 1 .923.56zM1.566 7.43a.764.762 76.183 0 1-.558.923.764.762 76.183 0 1-.922-.56.764.762 76.183 0 1 .557-.924.764.762 76.183 0 1 .923.56zM1.566 3.217a.764.762 76.183 0 1-.558.924.764.762 76.183 0 1-.922-.56.764.762 76.183 0 1 .557-.924.764.762 76.183 0 1 .923.56zM7.654.859a.764.762 76.183 0 1-.558.924.764.762 76.183 0 1-.922-.56.764.762 76.183 0 1 .557-.924.764.762 76.183 0 1 .923.56zM3.707.891a.764.762 76.183 0 1-.557.924.764.762 76.183 0 1-.922-.56.764.762 76.183 0 1 .557-.924.764.762 76.183 0 1 .922.56zM4.896 7.4a.764.762 76.183 0 1-.557.923.764.762 76.183 0 1-.923-.56.764.762 76.183 0 1 .558-.924.764.762 76.183 0 1 .922.56z" style="isolation:auto;mix-blend-mode:normal" color="#000" overflow="visible" fill="#b3b3b3"/><path d="M1.684 3.766L3.216 2.2h2.9l.526 2.035-2.503 2.198H1.695z" fill="#b3b3b3" fill-rule="evenodd"/><path d="M3.472 3.622l-.37 1.003h.741zm-.154-.269h.31l.768 2.016h-.284l-.184-.517H3.02l-.184.517H2.55z" style="line-height:3.24059653px" font-weight="400" font-size="2.765" font-family="sans-serif" letter-spacing="0" word-spacing="0" fill="#fff" stroke-width=".13"/><path d="M4.6 4.483h.609v.147H4.39v-.147q.099-.103.27-.275.171-.174.215-.224.084-.094.117-.159.034-.065.034-.128 0-.103-.073-.168-.071-.064-.187-.064-.082 0-.174.028-.09.029-.194.087v-.177q.106-.042.197-.063.091-.022.167-.022.2 0 .32.1.119.1.119.268 0 .079-.03.15t-.108.168q-.022.025-.137.145-.116.12-.327.334z" style="line-height:2.0712924px" font-weight="400" font-size="1.768" font-family="sans-serif" letter-spacing="0" word-spacing="0" fill="#fff" stroke-width=".083"/></svg>