<?xml version="1.0" encoding="UTF-8" standalone="no"?>
<!-- Created with Inkscape (http://www.inkscape.org/) -->

<svg
   width="32"
   height="32"
   version="1.1"
   viewBox="0 0 8.4667 8.4667"
   id="svg162"
   sodipodi:docname="btn_help.svg"
   inkscape:version="1.2.2 (732a01da63, 2022-12-09, custom)"
   xmlns:inkscape="http://www.inkscape.org/namespaces/inkscape"
   xmlns:sodipodi="http://sodipodi.sourceforge.net/DTD/sodipodi-0.dtd"
   xmlns="http://www.w3.org/2000/svg"
   xmlns:svg="http://www.w3.org/2000/svg"
   xmlns:rdf="http://www.w3.org/1999/02/22-rdf-syntax-ns#"
   xmlns:cc="http://creativecommons.org/ns#"
   xmlns:dc="http://purl.org/dc/elements/1.1/">
  <defs
     id="defs166" />
  <sodipodi:namedview
     id="namedview164"
     pagecolor="#ffffff"
     bordercolor="#000000"
     borderopacity="0.25"
     inkscape:showpageshadow="2"
     inkscape:pageopacity="0.0"
     inkscape:pagecheckerboard="0"
     inkscape:deskcolor="#d1d1d1"
     showgrid="false"
     inkscape:zoom="58.5"
     inkscape:cx="16"
     inkscape:cy="16"
     inkscape:window-width="3840"
     inkscape:window-height="2075"
     inkscape:window-x="0"
     inkscape:window-y="0"
     inkscape:window-maximized="1"
     inkscape:current-layer="svg162" />
  <metadata
     id="metadata148">
    <rdf:RDF>
      <cc:Work
         rdf:about="">
        <dc:format>image/svg+xml</dc:format>
        <dc:type
           rdf:resource="http://purl.org/dc/dcmitype/StillImage" />
        <dc:title />
      </cc:Work>
    </rdf:RDF>
  </metadata>
  <g
     fill="#555555"
     style="font-variant-ligatures:normal;font-variant-caps:normal;font-variant-numeric:normal;font-feature-settings:normal;fill:#f5f5f5"
     aria-label="?"
     id="g158"
     transform="matrix(2.2035621,0,0,1.7080506,-193.74332,-219.16386)">
    <path
       d="m 90.326,131.64 h -0.62172 q -0.0024,-0.13409 -0.0024,-0.16335 0,-0.30233 0.09996,-0.49738 0.09996,-0.19505 0.39985,-0.43886 0.29989,-0.24381 0.3584,-0.31939 0.09021,-0.11947 0.09021,-0.26332 0,-0.19993 -0.16092,-0.34134 -0.15848,-0.14385 -0.42911,-0.14385 -0.26088,0 -0.43642,0.14873 -0.17554,0.14872 -0.24137,0.45349 l -0.62904,-0.078 q 0.02682,-0.43643 0.3706,-0.74119 0.34621,-0.30477 0.90698,-0.30477 0.59003,0 0.93868,0.30964 0.34865,0.30721 0.34865,0.71681 0,0.22675 -0.12922,0.42911 -0.12678,0.20237 -0.54614,0.55102 -0.21699,0.18042 -0.27063,0.29014 -0.0512,0.10971 -0.04632,0.39253 z m -0.62172,0.92161 v -0.68511 h 0.68511 v 0.68511 z"
       fill="#555555"
       stroke-width="0.23406px"
       style="font-variant-ligatures:normal;font-variant-caps:normal;font-variant-numeric:normal;font-feature-settings:normal;fill:#f5f5f5"
       id="path156" />
  </g>
</svg>
