<?xml version="1.0" encoding="UTF-8"?>
<!-- Created with Inkscape (http://www.inkscape.org/) -->
<svg width="32" height="32" version="1.1" viewBox="0 0 8.4667 8.4667" xmlns="http://www.w3.org/2000/svg" xmlns:cc="http://creativecommons.org/ns#" xmlns:dc="http://purl.org/dc/elements/1.1/" xmlns:rdf="http://www.w3.org/1999/02/22-rdf-syntax-ns#">
 <metadata>
  <rdf:RDF>
   <cc:Work rdf:about="">
    <dc:format>image/svg+xml</dc:format>
    <dc:type rdf:resource="http://purl.org/dc/dcmitype/StillImage"/>
    <dc:title/>
   </cc:Work>
  </rdf:RDF>
 </metadata>
 <g transform="translate(-85.99 -126.19)">
  <g transform="matrix(.7766 0 0 .7766 -4.4385 31.941)">
   <g transform="matrix(.99157 0 0 .99157 -349.81 61.25)">
    <g transform="matrix(.97702 0 0 .97702 12.66 1.5193)">
     <path d="m472.07 67.227c-0.21003 0-2.041 0.46982-2.3402 0.70331-0.3938 0.30727-0.6437 0.82098-0.56975 1.1711 0.1776 0.8419 1.5351 1.5357 3.4886 1.7834 0.16876 0.0214 0.38562 0.03347 0.61992 0.04015l0.66116 0.56479 0.69345-0.59222c0.58931-0.0339 1.1639-0.09093 1.5367-0.17131 1.3601-0.29325 2.3176-0.86304 2.5354-1.509 0.14033-0.41637-0.0697-0.92713-0.52714-1.2842-0.30178-0.23559-2.2514-0.70598-2.4625-0.70598-0.0565 0-0.0914 0.32143-0.0914 0.84183 0 0.92823-0.0961 1.1788-0.5402 1.412-0.36681 0.19254-2.0058 0.19254-2.3725 0-0.44428-0.23324-0.5402-0.48373-0.5402-1.412 0-0.5204-0.0351-0.84183-0.0914-0.84183z" fill="#d5d5d5" stroke="#555555" stroke-width=".40964"/>
     <path d="m473.93 60.691c-0.40206 0-0.64999 0.11024-0.91697 0.40719-0.24245 0.26967-0.34149 0.55691-0.31326 0.90969 0.0411 0.5126 0.32507 0.88506 0.82397 1.0807v-4.68e-4c0.1668 0.06547 0.58795 0.07007 0.79296 0.0086 0.24624-0.07379 0.55261-0.33129 0.69445-0.58413 0.25967-0.46282 0.19542-1.0145-0.16413-1.4145-0.26701-0.29694-0.51492-0.40718-0.91702-0.40718zm0.0432 2.6917c-1.4234 0-1.5297 0.01929-1.7474 0.32448-0.10792 0.1514-0.14294 0.67776-0.15765 1.7386-0.0109 0.77439 3e-3 1.1615 0.0441 1.2621 0.0847 0.20452 0.37024 0.43967 0.58212 0.4794l0.17936 0.0337v0.98488c0 0.8274 0.013 0.99749 0.0804 1.0648 0.0573 0.05732 0.17984 0.08044 0.43213 0.08044h0.3522l0.0142-1.1289c0.0122-1.0108 0.0228-1.1351 0.10276-1.1854 0.0651-0.04102 0.11317-0.04102 0.1783 0 0.0799 0.05034 0.0911 0.17468 0.10328 1.1854l0.0137 1.1289h0.3522c0.52527 0 0.51256 0.02839 0.51256-1.1452v-0.98489l0.17991-0.0337c0.21185-0.03975 0.4969-0.27488 0.58156-0.4794 0.0413-0.10057 0.0555-0.48767 0.0446-1.2621-0.0148-1.0609 7e-3 -1.5872-0.10051-1.7386-0.2177-0.30523-0.32398-0.32448-1.7474-0.32448z" fill="#969696"/>
     <g fill="#1a1a1a" fill-rule="evenodd">
      <path d="m473.03 63.406 0.9365 1.6318 0.94263-1.6327-0.90699-0.01232z"/>
      <path d="m472.88 67.213-0.41963-2.5333h0.32971z"/>
      <path d="m475.02 67.236 0.41963-2.5333h-0.32971z"/>
     </g>
    </g>
   </g>
  </g>
 </g>
</svg>
