<?xml version="1.0" encoding="UTF-8" standalone="no"?>
<!-- Created with Inkscape (http://www.inkscape.org/) -->

<svg
   width="32"
   height="32"
   version="1.1"
   viewBox="0 0 8.4667 8.4667"
   id="svg3721"
   sodipodi:docname="btn_3d.svg"
   inkscape:version="1.1.2 (0a00cf5339, 2022-02-04)"
   xmlns:inkscape="http://www.inkscape.org/namespaces/inkscape"
   xmlns:sodipodi="http://sodipodi.sourceforge.net/DTD/sodipodi-0.dtd"
   xmlns:xlink="http://www.w3.org/1999/xlink"
   xmlns="http://www.w3.org/2000/svg"
   xmlns:svg="http://www.w3.org/2000/svg"
   xmlns:rdf="http://www.w3.org/1999/02/22-rdf-syntax-ns#"
   xmlns:cc="http://creativecommons.org/ns#"
   xmlns:dc="http://purl.org/dc/elements/1.1/">
  <sodipodi:namedview
     pagecolor="#ffffff"
     bordercolor="#666666"
     borderopacity="1"
     objecttolerance="10"
     gridtolerance="10"
     guidetolerance="10"
     inkscape:pageopacity="0"
     inkscape:pageshadow="2"
     inkscape:window-width="1920"
     inkscape:window-height="1011"
     id="namedview3723"
     showgrid="false"
     inkscape:zoom="13.25"
     inkscape:cx="8.2264151"
     inkscape:cy="13.660377"
     inkscape:window-x="0"
     inkscape:window-y="32"
     inkscape:window-maximized="0"
     inkscape:current-layer="svg3721"
     inkscape:pagecheckerboard="0" />
  <defs
     id="defs3695">
    <linearGradient
       id="linearGradient1066"
       x1="173.47"
       x2="175.39"
       y1="66.591"
       y2="68.517"
       gradientUnits="userSpaceOnUse"
       gradientTransform="matrix(1.0433932,0,0,1.0433932,-177.64421,-71.104624)">
      <stop
         stop-color="#e6e6e6"
         offset="0"
         id="stop3680" />
      <stop
         stop-color="#e6e6e6"
         stop-opacity="0"
         offset="1"
         id="stop3682" />
    </linearGradient>
    <linearGradient
       id="linearGradient1074"
       x1="105.65"
       x2="105.65"
       y1="78.013"
       y2="76.365997"
       gradientUnits="userSpaceOnUse"
       gradientTransform="matrix(1.0436259,0,0,0.99394,-106.31154,-72.125168)"
       xlink:href="#linearGradient1082">
      <stop
         stop-color="#ececec"
         offset="0"
         id="stop3685" />
      <stop
         stop-color="#ececec"
         stop-opacity="0"
         offset="1"
         id="stop3687" />
    </linearGradient>
    <linearGradient
       id="linearGradient1082"
       x1="-107.27"
       x2="-107.27"
       y1="190.16"
       y2="188.44"
       gradientUnits="userSpaceOnUse"
       gradientTransform="matrix(1.0436259,0,0,0.99394,106.31154,-178.60591)">
      <stop
         stop-color="#ececec"
         offset="0"
         id="stop3690" />
      <stop
         stop-color="#ececec"
         stop-opacity="0"
         offset="1"
         id="stop3692" />
    </linearGradient>
  </defs>
  <metadata
     id="metadata3697">
    <rdf:RDF>
      <cc:Work
         rdf:about="">
        <dc:format>image/svg+xml</dc:format>
        <dc:type
           rdf:resource="http://purl.org/dc/dcmitype/StillImage" />
        <dc:title />
      </cc:Work>
    </rdf:RDF>
  </metadata>
  <rect
     id="rect3699"
     style="color:#000000;isolation:auto;mix-blend-mode:normal;solid-color:#000000;fill:#ffffff;fill-rule:evenodd;paint-order:markers stroke fill;color-rendering:auto;image-rendering:auto;shape-rendering:auto"
     height="8.4666996"
     width="8.4666996"
     y="2.4414062e-006"
     x="-2.1362305e-006" />
  <rect
     id="rect3701"
     style="fill:#ffffff;stroke:#333333;stroke-width:0.28439018;stroke-linecap:round;stroke-linejoin:round;paint-order:fill markers stroke;fill-opacity:1;stroke-opacity:1"
     height="3.5737112"
     width="4.1200266"
     y="2.2960894"
     x="0.58706349"
     transform="matrix(0.86556547,0.50079578,0,1,0,0)" />
  <rect
     id="rect3703"
     style="fill:#ffffff;stroke:#333333;stroke-width:0.28439018;stroke-linecap:round;stroke-linejoin:round;paint-order:fill markers stroke;stroke-opacity:1"
     height="3.5737112"
     width="4.1200266"
     y="7.330451"
     x="-9.4265766"
     transform="matrix(-0.86556547,0.50079578,0,1,0,0)" />
  <rect
     id="rect3705"
     style="fill:#ffffff;stroke:#333333;stroke-width:0.28356296;stroke-linecap:round;stroke-linejoin:round;paint-order:fill markers stroke;stroke-opacity:1"
     height="4.1466532"
     width="4.1466532"
     y="-2.412837"
     x="2.633255"
     transform="matrix(0.86371274,0.50398443,-0.86371274,0.50398443,0,0)" />
  <g
     transform="matrix(1.062,-0.603908,0,0.99394,-91.945187,-125.38208)"
     style="font-variant-ligatures:normal;font-variant-caps:normal;font-variant-numeric:normal;font-feature-settings:normal;fill:#4f4f4f"
     aria-label="D"
     id="g3711">
    <path
       d="m 92.692,186.55 c 0.31722,0 0.57859,0.10158 0.78413,0.30474 0.20554,0.20198 0.3083,0.46157 0.3083,0.77878 v 0.42949 c 0,0.3184 -0.10277,0.57859 -0.3083,0.78056 -0.20554,0.20079 -0.4676,0.29949 -0.78413,0.30118 l -1.0349,0.006 v -0.31187 l 0.27623,-0.0535 v -1.8623 l -0.27623,-0.0535 v -0.31365 h 0.27623 z m -0.23833,0.40652 v 1.7946 l 0.2116,-0.006 c 0.18455,-0.005 0.33266,-0.063 0.4384,-0.18891 0.10574,-0.12593 0.15861,-0.29048 0.15861,-0.49364 v -0.43305 c 0,-0.20078 -0.05287,-0.36414 -0.15861,-0.49008 -0.10574,-0.12594 -0.25385,-0.19375 -0.4384,-0.18891 z"
       style="font-variant-ligatures:normal;font-variant-caps:normal;font-variant-numeric:normal;font-feature-settings:normal;fill:#4f4f4f;stroke-width:0.091245"
       id="path3709"
       inkscape:connector-curvature="0" />
  </g>
  <g
     id="g3717"
     aria-label="3"
     style="font-variant-ligatures:normal;font-variant-caps:normal;font-variant-numeric:normal;font-feature-settings:normal;fill:#4f4f4f"
     transform="matrix(1.0337,0.53222,0,0.96742,-85.99,-126.19)">
    <path
       inkscape:connector-curvature="0"
       id="path3715"
       style="font-variant-ligatures:normal;font-variant-caps:normal;font-variant-numeric:normal;font-feature-settings:normal;fill:#4f4f4f;stroke-width:0.096884"
       d="m 84.99,88.767 h 0.31033 q 0.19679,0 0.2914,-0.10218 0.09461,-0.10407 0.09461,-0.28762 0,-0.16652 -0.09461,-0.2668 -0.09461,-0.10029 -0.27437,-0.10029 -0.15516,0 -0.26113,0.09083 -0.10597,0.09083 -0.10597,0.23842 h -0.5355 l -0.0038,-0.01135 q -0.01135,-0.32357 0.24788,-0.53361 0.25924,-0.21004 0.64336,-0.21004 0.42764,0 0.6812,0.20436 0.25545,0.20436 0.25545,0.58281 0,0.17976 -0.11353,0.3425 -0.11353,0.16084 -0.31222,0.25167 0.22896,0.08137 0.34817,0.24978 0.1211,0.16841 0.1211,0.39169 0,0.37845 -0.27627,0.59605 -0.27437,0.21572 -0.70391,0.21572 -0.38412,0 -0.66039,-0.20247 -0.27437,-0.20436 -0.26491,-0.57524 l 0.0038,-0.01135 h 0.5355 q 0,0.15895 0.11353,0.26302 0.11353,0.10218 0.28762,0.10218 0.19112,0 0.30086,-0.10596 0.11164,-0.10596 0.11164,-0.28762 0,-0.21761 -0.10975,-0.3179 -0.10786,-0.10218 -0.31979,-0.10218 h -0.31033 z" />
  </g>
</svg>
