<?xml version="1.0" encoding="UTF-8"?>
<!-- Created with Inkscape (http://www.inkscape.org/) -->
<svg width="30" height="30" version="1.1" viewBox="0 0 7.9375 7.9375" xmlns="http://www.w3.org/2000/svg">
 <path d="m1.0639 7.8583c-0.26326-0.06874-0.46975-0.27207-0.5392-0.53095-0.035083-0.13076-0.035083-5.5339 0-5.6646 0.070351-0.26222 0.27727-0.46377 0.54589-0.5317 0.071185-0.018001 0.18439-0.023155 0.5088-0.023155h0.41724v-0.16316c0-0.26228 0.058789-0.42232 0.21268-0.57896 0.095055-0.096755 0.2208-0.16819 0.35644-0.20249 0.13346-0.03375 3.2095-0.035116 3.2747-0.001469 0.050806 0.026213 1.5968 1.5294 1.6213 1.5764 0.012318 0.023655 0.017197 0.67165 0.017197 2.2839 0 2.4771 0.00553 2.3317-0.095773 2.5163-0.058158 0.10594-0.19605 0.23726-0.30585 0.29128-0.15449 0.076006-0.2246 0.084798-0.6763 0.084798h-0.41724v0.16316c0 0.26228-0.058789 0.42232-0.21268 0.57896-0.095055 0.096755-0.2208 0.16819-0.35644 0.20249-0.13403 0.033892-4.2207 0.033195-4.3507-7.618e-4zm4.3064-0.49872c0.023647-0.017147 0.05746-0.049966 0.075123-0.072933 0.032028-0.041646 0.032125-0.047398 0.03617-2.1425l0.00407-2.1007h-0.4174c-0.45187 0-0.52196-0.00879-0.67646-0.084798-0.10984-0.05402-0.24773-0.18534-0.30589-0.29128-0.086413-0.15741-0.095777-0.22298-0.095777-0.6707v-0.40533l-1.4162 0.00403c-1.4028 0.00397-1.4166 0.0043-1.4592 0.035192-0.023657 0.017147-0.05746 0.049966-0.075113 0.072933l-0.032115 0.041755-0.00446 2.7094c-0.00242 1.4902-4.132e-4 2.7313 0.00456 2.7581 0.011154 0.060591 0.076597 0.13785 0.13934 0.1645 0.038934 0.016538 0.41975 0.019585 2.1139 0.016896 2.0601-0.00327 2.0665-0.00337 2.1094-0.034452zm1.4952-0.96776c0.023638-0.017147 0.057421-0.049966 0.075084-0.072932 0.032028-0.041646 0.032125-0.047398 0.036169-2.1425l0.00407-2.1007h-0.4174c-0.45187 0-0.52196-0.00879-0.67646-0.084798-0.1098-0.05402-0.24769-0.18534-0.30585-0.29128-0.086413-0.15741-0.095773-0.22298-0.095773-0.6707v-0.40533l-1.4162 0.004027c-1.4028 0.003972-1.4166 0.004299-1.4592 0.035192-0.093271 0.06762-0.1068 0.10128-0.1125 0.27986l-0.00524 0.16528h0.90548c0.75676 0 0.91239 0.00354 0.94754 0.021702 0.050806 0.026213 1.5968 1.5294 1.6213 1.5764 0.01227 0.023563 0.017197 0.56231 0.017197 1.8795v1.8465l0.41941-0.00446c0.39542-0.00425 0.42187-0.00626 0.46238-0.035649zm-2.05-4.1425-0.31914-0.31017-0.0046558 0.19298c-0.00563 0.23298 0.00145 0.27629 0.055103 0.33819 0.066607 0.076857 0.11184 0.087921 0.36212 0.088577l0.22569 5.987e-4zm1.4952-0.96776-0.31914-0.31017-0.0046557 0.19298c-0.00563 0.23298 0.00145 0.27629 0.055103 0.33819 0.066607 0.076857 0.11184 0.08792 0.36212 0.088576l0.22569 5.985e-4z" stroke-width=".015346"/>
 <g>
  <path transform="scale(.26458)" d="m4.7013 27.857c-0.41994-0.059369-0.56119-0.13688-0.74821-0.41055-0.12574-0.18399-0.13576-0.96023-0.13539-10.487l3.992e-4 -10.289 0.18042-0.22508c0.10914-0.13615 0.30743-0.25446 0.50187-0.29945 0.17861-0.04132 2.5955-0.075217 5.4389-0.076282l5.1175-0.00192 0.02581 1.7077c0.02909 1.9249 0.07871 2.129 0.67931 2.7938 0.73495 0.8135 1.2616 0.96323 3.3883 0.96323h1.557l-0.02684 7.8957c-0.02241 6.5956-0.04533 7.9235-0.13919 8.0646-0.27329 0.41088 0.08535 0.39266-7.9642 0.40448-4.1327 0.0061-7.6767-0.01197-7.8756-0.04009z" fill="#fff"/>
  <path transform="scale(.26458)" d="m18.157 9.6619c-0.56953-0.015812-0.77277-0.088266-0.98394-0.35077-0.18934-0.23537-0.20911-0.37185-0.19049-1.315 0.0059-0.29835 0.01375-0.56576 0.01747-0.59425l0.0068-0.051797 1.0799 1.0492c0.59394 0.57707 1.1296 1.0988 1.1903 1.1593l0.11044 0.11008-0.56751-0.00208c-0.31213-0.00115-0.61046-0.00328-0.66294-0.00473z" fill="#bdbdbd"/>
  <path transform="scale(.26458)" d="m22.619 17.431c-0.0095-3.774-0.02482-6.9437-0.0341-7.0438l-0.016874-0.18202-0.41634-0.4251c-0.44974-0.4592-3.0584-3.0089-4.1668-4.0728-1.1397-1.0938-1.4897-1.4155-1.5851-1.457-0.1231-0.05358-1.757-0.083481-4.7056-0.086115l-2.2561-0.0020152 0.017135-0.51853c0.020318-0.61483 0.055729-0.7644 0.22426-0.94724 0.20402-0.22133 0.2537-0.23966 0.72555-0.26756 0.2309-0.013655 2.6477-0.033987 5.3708-0.045181l4.9509-0.020354 2.3e-5 1.3469c2.9e-5 1.7857 0.02545 2.0366 0.25525 2.5192 0.1485 0.31188 0.25265 0.46031 0.50994 0.72669 0.27286 0.28251 0.52409 0.46888 0.82773 0.61404 0.52097 0.24906 0.87033 0.28547 2.74 0.28557l1.307 5.68e-5 -0.0081 6.3148c-0.0076 5.8974-0.03664 9.3921-0.07954 9.5748-0.02498 0.10637-0.21792 0.31936-0.37009 0.40854-0.11297 0.06621-0.1683 0.07591-0.55834 0.09795-0.23812 0.01346-0.94625 0.02816-1.5736 0.03268l-1.1407 0.0082-0.01722-6.8618z" fill="#bdbdbd"/>
  <path transform="scale(.26458)" d="m23.828 6.0051c-0.42198-0.011339-0.62174-0.047198-0.77723-0.13951-0.068863-0.040887-0.194-0.16161-0.25945-0.25031-0.13454-0.18232-0.16379-0.33141-0.16373-0.83451 2.5e-5 -0.21401 0.01861-1.0904 0.02323-1.095 8.83e-4 -8.712e-4 0.10565 0.099627 0.23282 0.22333 0.12717 0.1237 0.66497 0.64644 1.1951 1.1616s0.9639 0.93794 0.9639 0.9394c0 0.00474-1.0059 5.491e-4 -1.2146-0.00506z" fill="#959595"/>
 </g>
 <g transform="matrix(.35158 0 0 .37056 -38.427 -41.065)" fill="#006782" stroke-width=".062371">
  <path d="m120.47 125.17c0.27817-0.4895 0.38029-1.1762 0.21954-1.476-0.0993-0.18512-0.4808-0.30102-0.69658-0.21166-0.22474 0.093-0.33672 0.27286-0.36345 0.5833-0.0109 0.1312-0.0537 0.31267-0.0945 0.4032-0.0955 0.21249-0.41234 0.52847-0.6294 0.62833-0.22404 0.10262-4.025 0.11099-4.3462 0.01-0.7672-0.24196-1.0261-1.2208-0.49031-1.8535 0.27092-0.31991 0.56581-0.42038 1.2143-0.41364l0.4761 5e-3 0.14077-0.26209c0.0773-0.14413 0.28117-0.4025 0.4528-0.57411l0.31205-0.31205-1.0594-2e-3c-1.1464-2e-3 -1.5018 0.074-2.0281 0.43654-0.77422 0.53326-1.1404 1.6068-0.85909 2.5184 0.2252 0.72991 0.62145 1.1781 1.3357 1.5106 0.29451 0.13714 0.57134 0.15519 2.5117 0.16367 1.1994 5e-3 2.3145-0.0249 2.478-0.0668 0.59484-0.15259 1.1252-0.55658 1.4264-1.0864z"/>
  <path d="m123.93 125.26c0.4929-0.82737 0.46985-1.7618-0.0634-2.5728-0.22983-0.3494-0.53429-0.59521-1.014-0.81863-0.29451-0.13713-0.57133-0.15517-2.5116-0.16367-1.1994-5e-3 -2.3145 0.0249-2.478 0.0667-0.3551 0.0911-0.81823 0.34995-1.0617 0.59341-0.51592 0.51593-0.8178 1.5334-0.58419 1.9691 0.0993 0.18511 0.48077 0.301 0.69657 0.21163 0.22474-0.093 0.33669-0.27286 0.36344-0.58329 0.0109-0.13121 0.0537-0.31268 0.0945-0.40321 0.0955-0.21248 0.41235-0.52847 0.62941-0.62829 0.23004-0.10529 4.0294-0.10978 4.3605-6e-3 0.56686 0.17907 0.90648 0.87581 0.70679 1.4502-0.20331 0.5848-0.62314 0.82086-1.4451 0.8123l-0.47611-5e-3 -0.14078 0.2621c-0.0774 0.14413-0.28109 0.40319-0.45273 0.57557l-0.31217 0.31329 1.1389-8e-3c0.95035-7e-3 1.1952-0.0336 1.4787-0.16313 0.44451-0.20324 0.86399-0.55752 1.0704-0.90418z"/>
 </g>
</svg>
