<?xml version="1.0" encoding="UTF-8"?>
<!-- Created with Inkscape (http://www.inkscape.org/) -->
<svg width="32" height="32" version="1.1" viewBox="0 0 8.4667 8.4667" xmlns="http://www.w3.org/2000/svg" xmlns:cc="http://creativecommons.org/ns#" xmlns:dc="http://purl.org/dc/elements/1.1/" xmlns:rdf="http://www.w3.org/1999/02/22-rdf-syntax-ns#">
 <metadata>
  <rdf:RDF>
   <cc:Work rdf:about="">
    <dc:format>image/svg+xml</dc:format>
    <dc:type rdf:resource="http://purl.org/dc/dcmitype/StillImage"/>
    <dc:title/>
   </cc:Work>
  </rdf:RDF>
 </metadata>
 <g transform="translate(-85.99 -126.19)">
  <g transform="matrix(1.104 0 0 1.104 89.967 113.56)">
   <g transform="matrix(1.6 0 0 1.6 -3.8083 -11.506)">
    <g transform="matrix(.14978 0 0 .14978 -14.227 -13.836)">
     <g transform="matrix(.88479 0 0 .88479 -19.746 -52.713)" fill="#555555">
      <path transform="matrix(1.1302 0 0 1.1302 130.64 272.2)" d="m7.7793 3.8027-3.9766 3.9766 8.2207 8.2207-8.2207 8.2207 3.9766 3.9766 8.2207-8.2207 8.2207 8.2207 3.9766-3.9766-8.2207-8.2207 8.2207-8.2207-3.9766-3.9766-8.2207 8.2207-8.2207-8.2207z" color="#000000" color-rendering="auto" fill="#555555" fill-rule="evenodd" image-rendering="auto" shape-rendering="auto" solid-color="#000000" stroke="#fff" stroke-linecap="round" style="isolation:auto;mix-blend-mode:normal;paint-order:fill markers stroke"/>
     </g>
    </g>
   </g>
  </g>
 </g>
</svg>
