<?xml version="1.0" encoding="UTF-8" standalone="no"?>
<!-- Svg Vector Icons : http://www.onlinewebfonts.com/icon -->

<svg
   version="1.1"
   x="0px"
   y="0px"
   viewBox="0 0 256 256"
   enable-background="new 0 0 256 256"
   xml:space="preserve"
   id="svg33"
   sodipodi:docname="fullscreen.svg"
   inkscape:version="1.2.2 (732a01da63, 2022-12-09, custom)"
   xmlns:inkscape="http://www.inkscape.org/namespaces/inkscape"
   xmlns:sodipodi="http://sodipodi.sourceforge.net/DTD/sodipodi-0.dtd"
   xmlns="http://www.w3.org/2000/svg"
   xmlns:svg="http://www.w3.org/2000/svg"><defs
   id="defs37" /><sodipodi:namedview
   id="namedview35"
   pagecolor="#ffffff"
   bordercolor="#000000"
   borderopacity="0.25"
   inkscape:showpageshadow="2"
   inkscape:pageopacity="0.0"
   inkscape:pagecheckerboard="0"
   inkscape:deskcolor="#d1d1d1"
   showgrid="false"
   inkscape:zoom="7.3125"
   inkscape:cx="128"
   inkscape:cy="128"
   inkscape:window-width="3840"
   inkscape:window-height="2075"
   inkscape:window-x="0"
   inkscape:window-y="0"
   inkscape:window-maximized="1"
   inkscape:current-layer="svg33" />
<metadata
   id="metadata25"> Svg Vector Icons : http://www.onlinewebfonts.com/icon </metadata>
<g
   id="g31"
   style="fill:#ffffff"><g
     id="g29"
     style="fill:#ffffff"><path
       fill="#000000"
       d="M164.9,246l30.2-30.2l-46.5-46.5l0,0l0,0l20.7-20.7l46.5,46.5l30.2-30.2V246H164.9z M169.3,107.4l-20.7-20.7l46.5-46.5L164.9,10H246v81.1l-30.2-30.2L169.3,107.4z M107.4,86.7L107.4,86.7l-20.7,20.7L40.2,60.9L10,91.1V10h81.1L60.9,40.2L107.4,86.7L107.4,86.7z M86.7,148.7l20.7,20.7l-46.5,46.4L91.1,246H10v-81.1l30.2,30.2L86.7,148.7z"
       id="path27"
       style="fill:#ffffff" /></g></g>
</svg>
