<?xml version="1.0" encoding="UTF-8"?>
<!-- Created with Inkscape (http://www.inkscape.org/) -->
<svg width="32" height="32" version="1.1" viewBox="0 0 8.4667 8.4667" xmlns="http://www.w3.org/2000/svg" xmlns:cc="http://creativecommons.org/ns#" xmlns:dc="http://purl.org/dc/elements/1.1/" xmlns:rdf="http://www.w3.org/1999/02/22-rdf-syntax-ns#">
 <metadata>
  <rdf:RDF>
   <cc:Work rdf:about="">
    <dc:format>image/svg+xml</dc:format>
    <dc:type rdf:resource="http://purl.org/dc/dcmitype/StillImage"/>
    <dc:title/>
   </cc:Work>
  </rdf:RDF>
 </metadata>
 <rect y="-1.6136e-7" width="8.4667" height="8.4667" fill="#fff" style="paint-order:markers stroke fill"/>
 <g transform="translate(-85.99 -126.19)">
  <g transform="matrix(.11298 0 0 .11298 85.193 116.01)">
   <circle cx="44.411" cy="127.87" r="27.18" fill="none" stroke="#fff" stroke-linecap="round" stroke-linejoin="round" stroke-width="1.9524" style="paint-order:fill markers stroke"/>
   <path d="m41.606 154.15c-0.3638-0.0649-1.3758-0.24684-2.249-0.40433-3.0009-0.54129-6.9528-2.1886-9.6573-4.0255-5.5204-3.7495-9.507-9.6079-11.015-16.187-0.66642-2.9072-0.66642-8.4699 0-11.377 2.2533-9.8298 9.8773-17.605 19.63-20.018 3.1681-0.7841 8.7795-0.84383 11.89-0.12656 9.8096 2.2618 17.604 9.9044 20.021 19.632 0.83645 3.3663 0.83645 9.0373 0 12.404-1.0205 4.107-3.3978 8.5295-6.3459 11.805-3.1698 3.5221-8.2373 6.4856-13.139 7.6838-2.0403 0.49874-7.6636 0.87715-9.1349 0.61472zm4.166-6.6042c1.186-0.49554 1.9054-1.1173 2.2078-1.9081 0.12522-0.32742 0.39647-0.59532 0.60279-0.59532 0.46535 0 0.70403-0.57479 0.52422-1.2624-0.1024-0.39156 0.11407-0.66879 0.87799-1.1244 0.55764-0.33261 1.1627-0.78783 1.3446-1.0116 0.39502-0.48595 0.44045-2.0588 0.06615-2.2901-0.38402-0.23733-0.3242-1.631 0.10561-2.4605 0.2036-0.39296 0.98071-1.3098 1.7269-2.0374 1.3555-1.3218 2.6654-3.5873 2.6654-4.61 0-0.53835-0.0078-0.53868-1.2568-0.0535-1.2695 0.49311-1.9182 0.48496-1.9182-0.0241 0-0.15283-0.58037-0.84917-1.2897-1.5474-0.70934-0.69824-1.3662-1.5744-1.4597-1.947-0.09352-0.37259-0.52856-1.2428-0.96676-1.9338-0.52886-0.83393-0.68961-1.292-0.47812-1.3625 0.17524-0.0584 0.53747 0.17858 0.80496 0.52666s0.66326 0.86545 0.87952 1.1497c0.21625 0.28425 0.39318 0.64893 0.39318 0.81039 0 0.16145 0.35909 0.63758 0.79797 1.0581s0.91972 1.2167 1.0685 1.7693c0.14881 0.55264 0.38325 1.0048 0.52097 1.0048 0.38273 0 2.8628-1.5782 3.699-2.3539 0.78994-0.73273 1.6806-2.5713 1.4367-2.9659-0.08038-0.13006-0.30314-0.23648-0.49501-0.23648-0.19188 0-0.49047-0.17062-0.66355-0.37917-0.26893-0.32404-0.3949-0.29896-0.8664 0.17255-0.53249 0.53249-0.56415 0.53472-0.90834 0.064-0.19614-0.26824-0.35662-0.38228-0.35662-0.25344 0 0.12885-0.29794-0.16958-0.6621-0.66316-0.46459-0.62971-0.57872-0.9805-0.38259-1.1759 0.19584-0.1951 0.42354-0.0879 0.76063 0.35827 0.32806 0.43417 0.76542 0.64705 1.3748 0.66917 0.49151 0.0178 1.0366 0.12166 1.2113 0.23071 0.31589 0.19716 1.1702 0.11183 2.2217-0.2219 0.39189-0.12438 0.84266 0.0601 1.5646 0.64021 0.67746 0.54441 1.0546 0.70651 1.1362 0.48834 0.07533-0.20141 0.195-0.12377 0.31219 0.20257 0.4508 1.2553 2.1373 4.6299 2.3139 4.63 0.32401 2.6e-4 0.54158-1.2964 0.38226-2.2782-0.15319-0.94401 0.49313-4.2012 0.95179-4.7966 0.19199-0.24924 0.36176-0.18568 0.70666 0.26458 0.24967 0.32595 0.53656 0.81803 0.63751 1.0935 0.10096 0.27549 0.2671 0.41735 0.36921 0.31524s0.32838 0.20827 0.50281 0.68973c0.20621 0.56918 0.32419 0.69574 0.33728 0.3618 0.01992-0.50839 0.02432-0.50839 0.43556 0 0.38795 0.47962 0.40578 0.43039 0.26953-0.74402-0.08025-0.69169-0.38625-1.7288-0.68001-2.3046-0.29376-0.57582-0.53411-1.5015-0.53411-2.0571 0-1.2653-1.4932-4.4417-2.9938-6.3683-2.6859-3.4486-4.8324-5.4229-7.7402-7.1194-2.2741-1.3268-6.6888-3.0344-6.3256-2.4467 0.08661 0.14014 0.32202 0.25481 0.52313 0.25481 0.2011 0 0.4506 0.13746 0.55443 0.30546 0.11697 0.18926 0.07258 0.23365-0.11668 0.11668-0.1821-0.11255-0.30546-0.0185-0.30546 0.23301 0 0.34697-0.09891 0.36886-0.55757 0.1234-0.78841-0.42195-1.0901 0.0173-0.6261 0.91161 0.48439 0.93366 0.48372 0.95567-0.029 0.95567-0.23041 0-0.36967 0.14777-0.30947 0.32837 0.2165 0.6495-0.60462 1.0996-2.2638 1.2409-0.11773 0.01-0.1568 0.11086-0.08684 0.22406 0.06997 0.11321-0.07933 0.47966-0.33178 0.81434-0.41152 0.54556-0.49483 0.56532-0.80545 0.19104-0.29705-0.35792-0.26637-0.41746 0.2151-0.41746 0.98304 0 0.60573-0.45381-0.7445-0.89545-1.5414-0.50415-2.0535-0.36545-3.6857 0.99826-0.62903 0.52554-1.2473 0.95552-1.3739 0.95552-0.33547 0-0.83022 1.0244-0.64191 1.3291 0.10486 0.16968 0.32849 0.16997 0.64449 8.5e-4 0.38048-0.20362 0.51188-0.15199 0.6148 0.24156 0.07199 0.27529 0.0085 0.62297-0.1412 0.77262-0.1864 0.1864-0.09731 0.22639 0.28287 0.12697 0.6127-0.16023 1.5279-1.3615 1.4219-1.8664-0.07993-0.38071 0.87732-1.3985 1.3153-1.3985 0.17053 0 0.08801 0.24042-0.18669 0.54397-0.40545 0.44802-0.43602 0.63406-0.1733 1.0547 0.42352 0.67816 0.40291 1.0471-0.05849 1.0471-0.20761 0-0.41597 0.19855-0.46302 0.44123-0.0622 0.32081-0.43776 0.47072-1.376 0.54929l-1.2905 0.10805 0.18266-0.72778c0.16032-0.63878 0.13209-0.68582-0.23085-0.3846-0.22743 0.18875-0.41351 0.49331-0.41351 0.6768s-0.20836 0.40987-0.46302 0.50306c-0.25466 0.0932-0.9988 0.46303-1.6536 0.82187-0.65484 0.35885-1.4075 0.65367-1.6725 0.65518-0.43238 2e-3 -0.44035 0.0443-0.07747 0.40718 0.28648 0.28647 0.33799 0.57588 0.17662 0.99218-0.12531 0.32326-0.32857 0.57103-0.45169 0.55059-0.12312-0.0204-0.58677-0.1139-1.0303-0.20772-0.73075-0.15456-0.84874-0.0819-1.2568 0.77373-0.52448 1.0998-0.56996 1.6361-0.15062 1.7759 0.50492 0.16831 0.01431 1.1076-0.82818 1.5855-0.43694 0.2479-0.79443 0.63179-0.79443 0.8531 0 0.22132-0.34524 0.58092-0.76719 0.79912-1.2609 0.65206-2.5816 2.3917-2.6215 3.4533-0.01925 0.51212-0.15765 1.1603-0.30755 1.4404-0.41488 0.77522-0.33368 1.4049 0.38309 2.9705 0.98529 2.1522 1.8135 2.8215 3.5777 2.8917 0.80036 0.0318 1.8323-0.0336 2.2931-0.14529 0.67989-0.16483 0.92802-0.0979 1.3156 0.3547 0.2627 0.30682 0.73426 0.55785 1.0479 0.55785 0.88121 0 1.1951 0.55726 0.89781 1.5939-0.19564 0.68214-0.16376 1.0187 0.13587 1.4346 0.21531 0.29887 0.58258 0.80704 0.81617 1.1293 0.56054 0.77325 0.98544 2.694 0.68172 3.0816-0.57371 0.73223-0.55261 1.6646 0.05808 2.5661 0.33909 0.50059 0.7097 1.2078 0.82359 1.5716 0.11388 0.3638 0.54741 1.0755 0.9634 1.5816 0.41598 0.5061 0.75634 1.0716 0.75634 1.2568 0 0.47897 2.1656 0.43378 3.3723-0.0704zm3.2841-7.0014c0-0.3638 0.06005-0.51263 0.13345-0.33073s0.0734 0.47956 0 0.66146-0.13345 0.0331-0.13345-0.33073zm-2.0671-2.2604c-0.08617-0.22456-0.09756-0.46741-0.02529-0.53966 0.07225-0.0723 0.19488 0.11147 0.2725 0.40829 0.16488 0.63048-0.01831 0.72783-0.2472 0.13137zm0.96703-2.1136c0-0.40034 0.69758-0.83752 0.94368-0.59142 0.06991 0.0699 0.05204 0.32274-0.03972 0.56185-0.2105 0.54857-0.90396 0.57125-0.90396 0.0296zm-6.4222-14.411c-0.37-0.29104-0.83849-0.52916-1.0411-0.52916-0.64233 0-0.98253-0.54955-0.73813-1.1924 0.21335-0.56115 0.14837-0.60352-1.1111-0.72453-0.73571-0.0707-1.8188-0.0204-2.4069 0.11172-1.1732 0.26359-1.9065 0.11635-1.6321-0.32768 0.0967-0.15647 0.34794-0.21844 0.55831-0.13772 0.21762 0.0835 0.7701-0.22233 1.2818-0.70956 1.509-1.437 1.7601-1.599 2.5781-1.6633 0.60477-0.0476 1.035 0.17636 1.8403 0.95789 0.63513 0.61637 0.97389 1.1448 0.85612 1.3353-0.12293 0.1989-0.0821 0.24563 0.11057 0.12655 0.168-0.10383 0.30546-0.36738 0.30546-0.58566 0-0.24872 0.12265-0.32107 0.32855-0.19382 0.1807 0.11168-0.11978-0.24527-0.66774-0.79323s-0.92467-1.1122-0.83712-1.2538c0.17932-0.29016 1.9212 1.0526 1.951 1.5039 0.03377 0.51288 0.84341 1.9589 1.0968 1.9589 0.24632 0 0.34553-0.374 0.26414-0.99573-0.06322-0.48291 0.78675-0.73598 1.0486-0.31223 0.12123 0.19616 0.16496 0.4464 0.09716 0.5561-0.26549 0.42958 1.106 0.96917 2.2087 0.86896 1.2342-0.11217 1.3986 0.18567 0.87008 1.5759-0.2408 0.63334-0.34438 0.66442-1.9369 0.58108-0.9254-0.0484-1.9334-0.22229-2.24-0.38637-0.64999-0.34786-1.3895-0.14054-1.3895 0.38954 0 0.52583-0.61202 0.45538-1.3951-0.1606zm-0.45697-2.6458c-0.20985-0.1297-0.44108-0.17628-0.51384-0.10352-0.07276 0.0728 0.0394 0.23841 0.24926 0.3681 0.20985 0.1297 0.44108 0.17628 0.51384 0.10352 0.07276-0.0728-0.03941-0.2384-0.24926-0.3681zm-1.3415-1.537c-0.01661-0.63575-0.04295-0.65532-0.24599-0.18282-0.31587 0.73507-0.31587 1.2536 0 1.0583 0.14552-0.0899 0.25622-0.48392 0.24599-0.87551zm13.353 0.80937c-0.1621-0.52459-0.29249-0.75319-1.0127-1.7756-0.55907-0.79359-0.35024-1.5214 0.48358-1.6854 0.3545-0.0697 0.41118 0.0475 0.27849 0.57617-0.14058 0.56012-0.02864 0.73531 0.71719 1.1224 0.48608 0.25226 0.73511 0.50887 0.5534 0.57023-0.25307 0.0855-0.23759 0.24404 0.06615 0.67768 0.55203 0.78814 0.49909 0.97754-0.27324 0.97754-0.40697 0-0.7259-0.18167-0.81284-0.46302zm-7.2486-0.97554c0-0.34072 0.2304-0.90057 0.51201-1.2441 0.50755-0.61918 0.51543-0.62002 0.90441-0.0959 0.37706 0.50807 0.83254 0.39974 0.83254-0.19803 0-0.15764 0.1678-0.34256 0.37289-0.41093 0.25266-0.0842 0.321 0.0109 0.21194 0.29514-0.10267 0.26756 0.01312 0.47468 0.31982 0.57202 0.26442 0.0839 0.68376 0.3769 0.93186 0.65105 0.42658 0.47135 0.42336 0.50725-0.05905 0.66036-0.28058 0.0891-0.78861 0.0589-1.1289-0.067-0.39305-0.1454-1.0345-0.10382-1.7581 0.11398-1.1159 0.33585-1.1393 0.33017-1.1393-0.27661zm9.0167-2.1554c0.0127-0.30822 0.07539-0.37092 0.15985-0.15985 0.07643 0.191 0.06703 0.4192-0.02088 0.50712-0.08792 0.0879-0.15045-0.0683-0.13896-0.34727zm-9.8601-4.5243c0.191-0.0764 0.4192-0.067 0.50712 0.0209s-0.06835 0.15046-0.34727 0.13897c-0.30823-0.0127-0.37092-0.0754-0.15985-0.15985zm6.6304-3.4573c-0.32911-0.41965-0.31975-0.429 0.0999-0.0999 0.44073 0.34564 0.58089 0.56291 0.36312 0.56291-0.05494 0-0.2633-0.20836-0.46302-0.46302zm1.8018 37.298c0.40654-0.25853 1.9356-3.491 1.9359-4.0924 2.56e-4 -0.56919-0.41607-0.60968-0.62663-0.0609-0.08486 0.22114-0.57385 0.64962-1.0866 0.95217-0.70087 0.41353-0.93235 0.72754-0.93235 1.2648 0 0.39309-0.13487 0.84957-0.29972 1.0144-0.64345 0.64345 0.21477 1.4273 1.0094 0.92198zm-30.598-6.3712c-0.23252-1.1015-0.23855-1.691-0.02309-2.2541 0.37759-0.98687 0.19861-1.4947-1.3164-3.735-1.1967-1.7697-1.2668-1.9765-1.5695-4.6305-0.17427-1.528-0.34426-3.0162-0.37776-3.3073-0.0335-0.29104-0.1608 0.42334-0.2829 1.5875-0.41704 3.9763 0.63047 9.3792 2.5614 13.212 0.67646 1.3426 0.82958 1.5012 1.0571 1.0947 0.18161-0.32453 0.16612-0.94865-0.04882-1.9669zm46.672-8.7361c-0.1077-0.52665-0.17128-1.2592-0.14129-1.628s-0.14135-1.0236-0.38075-1.4552c-0.3814-0.6876-0.41282-0.70286-0.2538-0.12327 0.09982 0.3638 0.23832 1.0186 0.30778 1.4552 0.097 0.60958 0.0615 0.70166-0.15297 0.39687-0.35422-0.50337-0.37852 0.0161-0.03964 0.84745 0.13626 0.33427 0.33679 1.084 0.44563 1.6661 0.1561 0.83483 0.22037 0.9253 0.30437 0.42837 0.05857-0.34649 0.01836-1.0609-0.08933-1.5875zm-3.7056-0.64719c-0.23602-0.61506-0.62396-0.29696-0.44985 0.36886 0.08454 0.32328 0.24 0.44928 0.38071 0.30857 0.1308-0.13081 0.16192-0.43565 0.06914-0.67743zm-27.329-15.788c-0.05252-0.21828-0.12657-0.75406-0.16455-1.1906-0.07901-0.90819-0.48904-0.97126-0.62437-0.096-0.04987 0.32251-0.27782 0.87202-0.50656 1.2211-0.41314 0.63053-0.40991 0.63416 0.48755 0.54857 0.64369-0.0614 0.87598-0.20026 0.80794-0.48303zm-1.6122-0.55182c0.16243-0.30351 0.24873-0.59843 0.19178-0.65538-0.16005-0.16004-1.2622 0.67616-1.2622 0.95762 0 0.46924 0.77463 0.25052 1.0705-0.30224zm-10.563-1.4431c0.20854 0.0749 0.64705-0.25935 1.0257-0.7819 0.65737-0.90713 1.0583-1.1614 1.0583-0.67106 0 0.47081 0.88234-0.0749 1.9896-1.2304 0.60277-0.62908 1.0464-1.1934 0.98574-1.254-0.12611-0.12611 0.99119-0.79916 1.3903-0.83751 0.66724-0.0641 1.8892-0.4739 2.249-0.75419 0.21828-0.17007 0.90152-0.54103 1.5183-0.82436s1.1228-0.60444 1.1245-0.71358c0.0057-0.37117-1.4483-0.18856-2.5767 0.3236-1.2083 0.54845-1.4806 0.84446-0.55394 0.60214 0.39091-0.10223 0.51095-0.0528 0.38126 0.15706-0.1041 0.16844-0.41335 0.30626-0.68722 0.30626s-0.57152 0.11906-0.66146 0.26458-0.35024 0.26458-0.57846 0.26458c-1.0753 0-3.9734 1.8043-5.8763 3.6586-1.1065 1.0782-1.8186 1.8252-1.5824 1.6599 0.23622-0.1653 0.5934-0.24166 0.79375-0.16968zm8.9853-6.282c0.06063-0.0412 0.34837-0.24953 0.63941-0.46302 0.48948-0.35904 0.50193-0.35342 0.16604 0.0749-0.19972 0.25466-0.48745 0.46302-0.63941 0.46302s-0.22668-0.0337-0.16604-0.0749zm-6.9096 5.5733c0.0046-0.10458-0.17018-0.1216-0.38846-0.0378s-0.39688 0.40044-0.39688 0.70372c0 0.54167 0.0069 0.54234 0.38846 0.0378 0.21365-0.28247 0.39225-0.59915 0.39688-0.70372zm9.526-1.7841c0.33363-0.21099 0.32414-0.27136-0.06615-0.42113-0.5427-0.20825-1.2494 0.0195-1.2494 0.40264 0 0.33839 0.79206 0.34952 1.3155 0.0185zm-3.882-0.71342c0.7802-0.40418 1.2719-0.51999 3.0957-0.72912 0.86605-0.0993 1.4238-0.25228 1.5875-0.43542 0.2673-0.29901 2.7225-1.5718 3.0319-1.5718 0.1757 0 0.31945-0.17859 0.31945-0.39687s-0.21454-0.39687-0.47676-0.39687c-0.29514 0-0.42374-0.13819-0.33757-0.36274 0.07656-0.1995-0.04754-0.43439-0.27578-0.52197-0.45582-0.17492-2.0953 0.0805-1.8826 0.29328 0.23208 0.23208-1.0488 1.0808-2.9255 1.9384-1.716 0.78418-3.2741 1.9295-3.2741 2.4067 0 0.3072 0.18213 0.27141 1.1376-0.22357zm14.766-0.86123c-0.216-0.13677-0.30843-0.46381-0.22321-0.7897 0.14136-0.54057-0.16617-0.77754-0.43808-0.33758-0.25428 0.41143 0.16508 1.3688 0.59779 1.3648 0.35211-3e-3 0.36387-0.0473 0.06349-0.2375zm-4.5385-1.5658c-0.65596-0.10212-0.90467 0.0709-0.66333 0.46137 0.11628 0.18815 0.33989 0.1726 0.69832-0.0485 0.52119-0.32156 0.52079-0.32632-0.03498-0.41283zm-5.6101-2.0512c-0.25214-0.25214-0.75763 0.15626-0.56973 0.46029 0.11169 0.18072 0.25968 0.17615 0.4497-0.0139 0.15578-0.15577 0.20979-0.35666 0.12003-0.44642z" fill="#f2f2f2" stroke-width=".26458"/>
   <g fill="#808080">
    <g fill-rule="evenodd" shape-rendering="auto">
     <path transform="matrix(.26458 0 0 .26458 85.99 122.75)" d="m-163.46 94.763c-0.46806-0.17374-0.92852-0.48464-1.0232-0.69088-0.88682-1.931-1.5062-2.9521-3.0206-4.98-2.1639-2.8974-2.7876-3.9505-3.8404-6.4848-0.45351-1.0916-1.5081-3.1162-2.3435-4.4991-0.83541-1.3829-1.6938-3.0294-1.9076-3.659-0.73085-2.1527-0.37696-4.6398 0.91862-6.4562 0.47487-0.66576 0.56153-1.0877 0.52966-2.5788-0.0458-2.1416-0.8383-5.3786-1.8517-7.5634-0.40723-0.8779-1.5666-2.7342-2.5764-4.125s-1.9648-2.7745-2.1224-3.0749c-0.38643-0.73676-0.34663-2.6308 0.0936-4.4539 0.45982-1.9043 0.46419-3.1656 0.0147-4.2414-0.43068-1.0308-1.3355-1.5326-3.3477-1.8567-1.8978-0.30563-2.3236-0.53125-4.112-2.1787-1.7608-1.622-2.3947-1.7655-5.3198-1.2043-3.2439 0.62236-9.953 0.63086-11.99 0.01521-4.3099-1.3024-6.9931-4.2123-9.9442-10.784-2.1335-4.751-2.6142-7.3327-1.7688-9.5 1.062-2.7228 1.3184-3.6749 1.5494-5.7549 0.13776-1.2402 0.49259-2.8692 0.78853-3.62 1.3331-3.382 5.3592-8.0158 8.6339-9.9369 2.0137-1.1814 3.2296-2.3782 3.4757-3.4214 0.20506-0.86931 1.4239-2.0913 3.647-3.6564 1.8823-1.3252 2.9804-2.7828 3.1719-4.2105 0.12534-0.93446 0.0756-1.0454-0.65332-1.4558-1.4482-0.81542-1.3487-2.4254 0.37487-6.0639 1.8287-3.8604 1.9854-3.9325 6.5101-2.9942l2.465 0.51117 0.69183-0.81942c1.5938-1.8877 1.5314-4.0964-0.16037-5.6768-0.78808-0.73618-0.6459-1.0262 0.50315-1.0262 0.48406 0 1.6306-0.30019 2.5478-0.66709 2.0803-0.83216 10.772-5.237 11.33-5.7423 0.22701-0.20531 0.48316-0.74862 0.56922-1.2074 0.17072-0.91003 1.877-3.0198 2.3118-2.8584 0.18121 0.06727 0.0865 0.8601-0.28839 2.4127-0.30706 1.2719-0.49013 2.3102-0.40681 2.3074 0.0833-0.0028 1.7827-0.1643 3.7765-0.35884 4.4722-0.43638 5.4305-0.72998 6.1555-1.886 0.87057-1.3881 1.5316-2 2.1606-2 1.4367 0 1.5468-1.3247 0.30893-3.7167-0.48125-0.92995-0.875-1.8692-0.875-2.0873s0.50625-1.0699 1.125-1.8931c1.0584-1.4079 1.4472-2.553 0.86697-2.553-0.71683 0-2.0347 0.82157-3.1732 1.9782-1.4348 1.4576-2.0688 2.6085-2.0688 3.7554 0 2.2826-3.8865 6.7664-5.865 6.7664-0.47475 0-0.47489 0.0071 0.0199-0.98481 0.45857-0.91921 0.36517-2.7636-0.17277-3.4117-0.36812-0.44356-1.3372-0.38112-2.676 0.1724-1.7078 0.70608-2.2097-0.88011-1.0166-3.2129 0.48666-0.95156 0.87906-1.3245 1.9716-1.8736 0.75019-0.3771 2.939-1.93 4.864-3.4509s4.2312-3.1811 5.125-3.6894c1.559-0.8866 1.7214-0.92411 4-0.9241 1.9617 1e-5 2.7448 0.12572 4.5 0.72233 4.8855 1.6607 6.4486 3.1374 3.333 3.1488-2.0413 0.0075-2.2963 0.45867-1.057 1.8701 1.1136 1.2683 1.7359 1.1778 2.9486-0.4288 1.1172-1.48 1.5255-2.3968 1.5255-3.425 0-0.69115 0.0399-0.71079 2.0341-1.0024 3.0761-0.44979 5.0564-1.1432 6.1144-2.141 0.86345-0.81433 0.91033-0.93595 0.76621-1.9874-0.17412-1.2703 0.17503-1.6316 1.5767-1.6316 0.47266 0 0.8329-0.15275 0.92475-0.39212 0.0828-0.21567-0.30919-1.3688-0.87101-2.5625-1.2354-2.625-1.4232-3.339-1.0576-4.0221 0.3627-0.67772 1.4615-0.68698 2.7625-0.02329 0.53904 0.275 1.2514 0.5 1.5831 0.5 0.51285 0 0.62756-0.15358 0.76727-1.0272 0.13012-0.81371 0.25368-1.0019 0.59445-0.90548 0.2366 0.06697 0.58488 0.16361 0.77394 0.21475 0.62074 0.1679 0.55825-0.43684-0.11467-1.1098-0.36306-0.36307-1.0694-0.73391-1.5696-0.8241-1.0936-0.19718-1.7845-0.52895-1.7845-0.85696 0-0.41185 0.90222-0.27051 3.4345 0.53802 5.1406 1.6414 13.747 5.3835 18.611 8.0927 10.92 6.0816 20.189 14.393 29.782 26.702 3.1244 4.0093 5.298 7.5063 7.8018 12.551 2.6358 5.3113 3.7629 8.6419 4.2466 12.549 0.42088 3.3996 0.80097 4.8142 2.1363 7.9508 0.52684 1.2375 1.2377 3.2184 1.5796 4.4021 0.62296 2.1564 1.3415 7.1233 1.0697 7.395-0.07957 0.07957-0.63411-0.39593-1.2323-1.0567-1.1002-1.2152-1.679-1.3289-1.679-0.3298 0 0.85031-0.54088 0.38489-1.0454-0.89959-0.69219-1.7622-1.3797-2.6362-2.0202-2.5682-0.43529 0.04619-0.73464-0.3038-1.5548-1.8178-2.7146-5.0113-4.2013-6.0598-5.3632-3.7823-0.69358 1.3595-1.686 4.9286-2.442 8.7823-0.58397 2.9767-0.6659 4.0241-0.69416 8.875-0.03193 5.4803-0.21494 6.9685-0.98472 8.0077-0.36242 0.48925-0.36693 0.4892-0.73528-0.0077-1.1681-1.5758-6.0958-11.519-7.8038-15.746-0.78385-1.9401-1.5386-2.8668-1.7844-2.191-0.14156 0.38912-0.92959 0.40329-1.651 0.029695-0.30034-0.15554-1.5134-0.99791-2.6957-1.8719-3.4205-2.5287-4.3125-2.7415-7.7254-1.8432-3.104 0.81696-4.9312 0.89714-6.677 0.293-0.82604-0.28587-2.5814-0.63021-3.9009-0.7652-2.9736-0.30422-3.8262-0.70132-5.7942-2.6985-1.7106-1.736-2.3778-1.9455-3.0292-0.95134-0.38451 0.58683-0.38345 0.7069 0.0154 1.7512 0.73068 1.9132 3.5776 5.4714 4.1897 5.2365 0.18835-0.072275 0.74108 0.36173 1.2766 1.0024 0.52111 0.62342 1.1608 1.1299 1.427 1.1299 0.26542 0 1.2274-0.675 2.1378-1.5 0.91035-0.825 1.756-1.5 1.8793-1.5s0.64627 0.37752 1.1623 0.83892c1.1366 1.0163 1.6629 1.2956 2.8414 1.5081 0.49675 0.089538 1.1063 0.38726 1.3546 0.6616 0.40194 0.44414 0.41877 0.6402 0.15356 1.7891-0.4119 1.7844-2.2881 5.5036-3.7593 7.4523-1.326 1.7562-3.058 3.2384-6.777 5.7993-2.8776 1.9816-7.3838 4.6111-8.2726 4.8273-0.83032 0.202-1.1746-0.30597-2.2175-3.2717-1.0501-2.9862-2.3144-5.0448-4.6993-7.6516-1.0927-1.1944-2.1159-2.5163-2.2737-2.9375s-0.42373-1.1291-0.59097-1.5732c-0.40606-1.0781-4.3651-6.3576-5.5343-7.3801-0.60043-0.52512-1.1912-0.8125-1.6703-0.8125-0.6588 0-0.7413 0.084388-0.7413 0.75831 0 0.82499 0.7041 2.341 2.2928 4.9365 1.3224 2.1606 2.7763 5.0524 3.4632 6.8884 0.68969 1.8436 2.2961 3.9664 5.9057 7.8043 3.2265 3.4306 4.2257 4.7014 4.4738 5.6896 0.0947 0.37734 0.40384 0.81004 0.68696 0.96157 0.89908 0.48117 3.4518 0.04612 6.755-1.1512 4.3363-1.5719 4.28-1.5728 4.374 0.06921 0.0917 1.6021-0.37427 3.1207-1.8927 6.1683-2.2163 4.4482-4.3244 7.3169-8.9074 12.121-5.6408 5.913-6.6491 7.7234-6.8248 12.254-0.10481 2.7031-0.0853 2.7847 1.0486 4.393 0.68682 0.97413 0.83179 4.2677 0.27253 6.1915-0.5578 1.9188-1.2247 2.6057-4.9379 5.0864-4.2125 2.8143-4.3036 2.9319-4.1261 5.3291 0.0864 1.1672 0.026 2.2021-0.15987 2.7416-0.29135 0.8453-0.54608 1.0368-2.4318 1.828-0.71514 0.30004-1.0937 0.76177-1.99 2.427-1.4758 2.742-3.3132 4.4068-6.6268 6.0043-1.375 0.6629-3.2312 1.391-4.125 1.6181-2.15 0.54613-7.5821 0.74652-8.726 0.32192zm24.627-26.579c0.16503-0.65752-0.0137-2.3077-0.27864-2.5727-0.0821-0.08211-0.25395 0.0162-0.38187 0.21848-0.26703 0.42225-0.32312 2.5765-0.0736 2.8261 0.32262 0.32263 0.57545 0.1601 0.73407-0.4719zm-7.4007-8.8695c0-1.2628-0.59999-2.742-1.1122-2.742-0.56649 0-0.50066 1.5486 0.11732 2.76 0.64537 1.265 0.99492 1.2587 0.99492-0.018zm5.2962-7.7104c0.71214-0.6363 0.80548-0.87211 0.81644-2.0625 0.0118-1.2864-0.0173-1.3475-0.68042-1.4237-0.80459-0.09246-2.3054 0.75049-2.7219 1.5289-0.41126 0.76844-0.30933 1.985 0.19735 2.3555 0.7 0.51185 1.5237 0.37453 2.3886-0.3982zm-22.121-53.594c0.13026-0.17188 0.37616-0.79934 0.54645-1.3944 0.25304-0.88421 0.47563-1.1512 1.2183-1.4615 0.99191-0.41445 2.3967-0.30604 3.5234 0.2719 2.2979 1.1787 12.337 2.1259 14.508 1.3689 0.91555-0.31916 1.4561-1.2348 2.2501-3.8112 0.6528-2.1183 0.6641-2.9377 0.051-3.696-0.4511-0.55791-0.68017-0.5985-4.1875-0.74207-3.9252-0.16068-5.5899-0.52179-7.1074-1.5418-0.78024-0.52444-0.86355-0.70246-0.9779-2.0894-0.0687-0.83388-0.2734-1.6947-0.45478-1.913-0.7554-0.90894-3.2511-0.69556-3.7971 0.32464-0.13644 0.25495-0.24808 1.2096-0.24808 2.1214 0 1.7651-0.28902 2.625-0.88223 2.625-0.765 0-3.1755-4.0761-3.9472-6.6744-0.2121-0.7142-0.63508-1.6359-0.93996-2.0483-1.1624-1.5723-5.3385-4.5273-6.398-4.5273-0.59571 0-0.35482 1.2526 0.4721 2.455 0.44261 0.64352 1.6956 2.0982 2.7845 3.2325 1.5634 1.6288 1.8697 2.0625 1.4566 2.0625-0.40861 0-0.55911 0.20522-0.68751 0.9375-0.30507 1.7398-1.3583 2.7907-1.3583 1.3554 0-1.0237-1.2469-2.7528-3.5422-4.912-2.5882-2.4348-3.8026-3.1415-5.693-3.3129-3.0637-0.27781-4.6433 0.52975-9.3394 4.7748-3.9844 3.6017-4.6205 4.0011-6.4468 4.0481-1.6168 0.04164-2.2285 0.38045-2.2285 1.2342 0 1.3995 1.7005 1.6307 6.402 0.87051 2.9394-0.47525 4.0875-0.54124 7.473-0.4295 4.4407 0.14657 6.0246 0.49584 5.9625 1.3148-0.0206 0.27182-0.17896 1.1149-0.35189 1.8734-0.27415 1.2026-0.26084 1.4921 0.10401 2.261 0.46641 0.98287 1.5417 1.7348 2.4809 1.7348 0.90071 0 2.0807 0.55099 4.0121 1.8735 2.8295 1.9374 4.7542 2.5909 5.343 1.814zm43.841-12.946c0.7532-0.4031 0.57911-1.2619-0.63608-3.1378-1.1873-1.8329-1.3633-2.4605-0.75535-2.6938 0.95185-0.36526 0.15094-1.3388-2.2531-2.7386-2.5002-1.4558-2.5695-1.5945-2.2434-4.4835l0.1905-1.6875h-0.93425c-1.9664 0-3.6318 1.4438-3.6339 3.1502-1e-3 1.2637 0.4855 2.3291 2.3156 5.0656 0.95298 1.425 2.0315 3.3375 2.3968 4.25 0.53855 1.3455 0.82929 1.7418 1.5379 2.0963 0.97081 0.48564 3.2523 0.5874 4.0152 0.17909zm-28.322-4.01c3.1032-0.83378 4.7419-0.88225 8.0755-0.23884 1.4263 0.27528 1.8341 0.26272 3.0625-0.09439 1.068-0.31046 1.4171-0.52666 1.4171-0.87747 0-0.71677-2.5373-3.1297-4.0897-3.8892-1.8294-0.89504-1.9818-1.1089-1.7745-2.4907 0.16647-1.1101 0.15334-1.1406-0.49114-1.1406-1.043 0-1.8604 0.68399-2.0457 1.7118-0.40501 2.246-1.1356 2.3443-3.0135 0.40542-1.5322-1.582-1.6914-1.574-3.1742 0.15822-1.8854 2.2027-2.8274 5.5389-1.9869 7.037 0.18765 0.3345 1.1067 0.20163 4.0205-0.58127zm30.715-8.3581c0.23917-0.62326-0.147-2.1231-0.54664-2.1231-0.26974 0-0.36367 0.32286-0.36367 1.25 0 0.95583 0.0901 1.25 0.38284 1.25 0.21057 0 0.44793-0.1696 0.52747-0.37688zm-36.191-17.599c0.56496-0.35784 0.0665-0.7744-0.92179-0.7703-1.0632 0.0044-1.6884 0.31627-1.44 0.71822 0.20306 0.32856 1.8674 0.36525 2.3618 0.05207zm25.28-12.244c0-0.26059-0.52894-0.89297-1.1875-1.4197-1.8618-1.4892-1.8125-1.4608-1.8125-1.043 0 0.49972 2.1969 2.9326 2.6482 2.9326 0.1935 0 0.35183-0.21145 0.35183-0.46988z" color="#000000" color-rendering="auto" image-rendering="auto" solid-color="#000000" style="isolation:auto;mix-blend-mode:normal;paint-order:markers stroke fill"/>
     <path transform="matrix(.26458 0 0 .26458 85.99 122.75)" d="m-185.24-35.113c0-0.14215 0.49918-1.1993 1.1093-2.3492 0.61011-1.1499 1.3305-2.9196 1.6009-3.9327s0.66107-2.0114 0.86821-2.2186c0.33549-0.33549 0.41715-0.29814 0.7478 0.34196 0.20415 0.39522 0.4909 1.6748 0.63723 2.8436s0.34213 2.6588 0.43511 3.3111c0.16851 1.1824 0.16615 1.1873-0.73925 1.5656-1.1344 0.474-4.6593 0.80545-4.6593 0.43812z" color="#000000" color-rendering="auto" image-rendering="auto" solid-color="#000000" style="isolation:auto;mix-blend-mode:normal;paint-order:markers stroke fill"/>
     <path transform="matrix(.26458 0 0 .26458 85.99 122.75)" d="m-189.32-37.094c-0.41323-0.41323-0.074-1.1016 1.0703-2.172 1.2748-1.1924 2.8827-2.125 3.1695-1.8382 0.3263 0.32629-1.2801 3.051-2.1309 3.6144-0.8313 0.55047-1.7768 0.72793-2.1089 0.39583z" color="#000000" color-rendering="auto" image-rendering="auto" solid-color="#000000" style="isolation:auto;mix-blend-mode:normal;paint-order:markers stroke fill"/>
     <path transform="matrix(.26458 0 0 .26458 85.99 122.75)" d="m-240.31 65.357c-0.35118-0.53066-1.2703-2.2246-2.0424-3.7642-5.5278-11.022-8.9524-24.219-9.8991-38.146-0.44591-6.5599 0.26025-16.478 1.1112-15.608 0.0583 0.059583 0.51258 3.5958 1.0096 7.8583 1.5381 13.191 1.4153 12.823 7.2295 21.666 2.7037 4.112 4.3113 7.233 4.5518 8.8373 0.12039 0.80286-0.0126 1.6691-0.52217 3.401-0.60256 2.0479-0.66622 2.5921-0.53637 4.5847 0.081 1.2436 0.37743 3.4181 0.65866 4.8324 0.61202 3.0778 0.66073 5.5395 0.1299 6.566-0.50954 0.98534-0.92515 0.92947-1.6906-0.22725z" color="#000000" color-rendering="auto" image-rendering="auto" solid-color="#000000" style="isolation:auto;mix-blend-mode:normal;paint-order:markers stroke fill"/>
     <path transform="matrix(.26458 0 0 .26458 85.99 122.75)" d="m-125.92 82.774c-1.5745-0.4121-2.0441-2.1044-0.97964-3.5304 0.72806-0.97533 1.0704-2.0671 1.2882-4.1077 0.20217-1.8944 0.79654-2.8449 2.4927-3.9861 3.2749-2.2034 4.257-3.0302 5.0284-4.233 0.88288-1.3766 1.3713-1.7193 1.8161-1.2745 0.86371 0.86372-0.30708 4.6123-3.3749 10.805-2.3527 4.7495-3.2282 5.9718-4.5081 6.294-0.55481 0.13963-1.3005 0.15328-1.7629 0.03227z" color="#000000" color-rendering="auto" image-rendering="auto" solid-color="#000000" style="isolation:auto;mix-blend-mode:normal;paint-order:markers stroke fill"/>
     <path transform="matrix(.26458 0 0 .26458 85.99 122.75)" d="m-63.195 28.884c-0.31946-1.4777-0.96634-3.8554-1.4375-5.284-1.1187-3.3916-1.1133-4.2781 0.01834-3.0277 0.24887 0.275 0.56052 0.5 0.69255 0.5 0.30049 0 0.05825-2.1154-0.58467-5.1058-0.47195-2.1952-0.46639-2.7277 0.02336-2.238 0.70378 0.70378 1.3218 3.3526 1.5093 6.4688 0.10754 1.7875 0.37813 4.4209 0.60131 5.852 0.4266 2.7355 0.43046 5.3024 0.0082 5.4399-0.1375 0.04476-0.51138-1.1276-0.83084-2.6052z" color="#000000" color-rendering="auto" image-rendering="auto" solid-color="#000000" style="isolation:auto;mix-blend-mode:normal;paint-order:markers stroke fill"/>
     <path transform="matrix(.26458 0 0 .26458 85.99 122.75)" d="m-77.496 25.189c-0.40639-0.48967-0.59184-2.6279-0.26944-3.1068 0.21119-0.31366 0.31766-0.30003 0.75617 0.09682 0.63881 0.57811 0.9207 1.989 0.55692 2.7874-0.3195 0.70122-0.59725 0.76046-1.0437 0.22257z" color="#000000" color-rendering="auto" image-rendering="auto" solid-color="#000000" style="isolation:auto;mix-blend-mode:normal;paint-order:markers stroke fill"/>
     <path transform="matrix(.26458 0 0 .26458 85.99 122.75)" d="m-186.18-53.299c-0.45358-0.32854-0.51304-0.50212-0.30509-0.89068 0.62079-1.16 2.9182-1.5893 4.6445-0.86804 1.0269 0.42905 0.94444 0.69384-0.43508 1.3976-1.4024 0.71542-3.1872 0.8805-3.9043 0.3611z" color="#000000" color-rendering="auto" image-rendering="auto" solid-color="#000000" style="isolation:auto;mix-blend-mode:normal;paint-order:markers stroke fill"/>
    </g>
    <g stroke="#f2f2f2" stroke-linecap="round" stroke-linejoin="round" stroke-width=".016102">
     <path transform="matrix(2.3419 0 0 2.3419 7.0543 90.104)" d="m17.724 7.2853c-0.11311-0.052671-0.22374-0.26469-0.22426-0.42976-2.41e-4 -0.077196 0.02028-0.13023 0.07032-0.18175 0.02417-0.02488 0.05471-0.047908 0.06787-0.051175 0.07892-0.019585 0.1184 0.087309 0.08624 0.2335-0.02393 0.10879-0.01179 0.21538 0.03193 0.28025 0.01066 0.015812 0.04787 0.050195 0.08271 0.076407 0.0743 0.055915 0.08132 0.076309 0.02943 0.085511-0.06081 0.010783-0.10095 0.00717-0.14424-0.012989z" style="paint-order:fill markers stroke"/>
     <path transform="matrix(2.3419 0 0 2.3419 7.0543 90.104)" d="m15.653 6.7789c-0.03162-0.012615-0.05066-0.032832-0.07367-0.078194-0.05457-0.10762-8e-3 -0.17171 0.13169-0.18119 0.10093-0.00685 0.31977 0.02823 0.34181 0.054791 9e-3 0.010829 0.0052 0.017765-0.02404 0.04355-0.05277 0.0466-0.20616 0.13564-0.26545 0.1541-0.05821 0.018116-0.07906 0.019429-0.11035 0.00695z" style="paint-order:fill markers stroke"/>
     <path transform="matrix(2.3419 0 0 2.3419 7.0543 90.104)" d="m11.039 7.7272c-0.02-0.02856-0.01653-0.089841 0.0079-0.1384 0.04491-0.089451 0.17925-0.22196 0.37302-0.36796 0.23434-0.17656 0.50155-0.33735 0.83051-0.49976 0.12119-0.059829 0.33665-0.16616 0.47881-0.23629 0.45835-0.22611 0.77017-0.41975 0.90008-0.55894 0.04537-0.048617 0.05603-0.078183 0.04168-0.11564-0.0091-0.023631-8e-3 -0.027785 0.01149-0.044769 0.07149-0.062348 0.47595-0.12383 0.68415-0.10399 0.0951 0.00906 0.14223 0.026527 0.18382 0.068115 0.05104 0.051035 0.06145 0.099378 0.04186 0.19423-0.01832 0.088685 0.01738 0.12209 0.14452 0.13525 0.08934 0.00924 0.13757 0.031736 0.17596 0.082062 0.0269 0.035273 0.0365 0.10951 0.02044 0.15816-0.01248 0.037824-0.06229 0.089337-0.09204 0.095186-0.12215 0.024019-0.24512 0.074232-0.53992 0.22047-0.35987 0.17852-0.66074 0.35171-0.77814 0.44791-0.12884 0.10559-0.27753 0.14438-0.80137 0.20904-0.72427 0.089402-0.86035 0.12415-1.2513 0.31953-0.30646 0.15314-0.39885 0.18222-0.43138 0.13578z" style="paint-order:fill markers stroke"/>
     <path transform="matrix(2.3419 0 0 2.3419 7.0543 90.104)" d="m13.258 5.8771c-0.05288-0.056073-0.04635-0.13307 0.01657-0.19542 0.06615-0.065545 0.1452-0.078212 0.20006-0.032055 0.02088 0.017574 0.02567 0.028075 0.02567 0.056309 0 0.088134-0.1017 0.20097-0.1812 0.20104-0.02669 2.55e-5 -0.03822-0.00561-0.0611-0.029874z" style="paint-order:fill markers stroke"/>
     <path transform="matrix(2.3419 0 0 2.3419 7.0543 90.104)" d="m7.8627 9.0033c0.030879-0.057644 0.6931-0.71796 0.93003-0.92735 0.58426-0.51636 1.3092-0.99943 1.8343-1.2223 0.15936-0.067629 0.33433-0.11618 0.41872-0.11618 0.10179 0 0.20282-0.043832 0.26276-0.114 0.05874-0.068753 0.17748-0.11453 0.29767-0.11475 0.01883-3.56e-5 0.05697-0.00595 0.08475-0.013139 0.1016-0.0263 0.1724-0.074103 0.19954-0.13472 0.03125-0.069792-0.01048-0.080007-0.17446-0.042706-0.1718 0.039083-0.23305 0.043667-0.23305 0.017443 0-0.026971 0.08517-0.085386 0.24717-0.16953 0.31711-0.1647 0.59638-0.26177 0.89372-0.31066 0.12418-0.020416 0.30012-0.02456 0.35796-0.00843 0.04189 0.01168 0.07742 0.042619 0.07742 0.067421 0 0.051444-0.16133 0.15263-0.55508 0.34814-0.34702 0.17231-0.42279 0.21372-0.57007 0.31154-0.19479 0.12937-0.55951 0.25829-0.89212 0.31532-0.09167 0.01572-0.16349 0.033342-0.20763 0.050949-0.14228 0.056758-0.33524 0.17165-0.41507 0.24715-0.03781 0.03576-0.04465 0.046852-0.04395 0.071323 0.0014 0.050559-0.1159 0.20368-0.35524 0.46359-0.34065 0.36993-0.69179 0.64903-0.83716 0.66542-0.053587 0.00604-0.072249-0.013724-0.081213-0.086011-0.00952-0.076784-0.027473-0.096947-0.07392-0.083031-0.071662 0.021467-0.18815 0.13931-0.34992 0.35399-0.14452 0.19179-0.25788 0.30116-0.36113 0.34843-0.042556 0.019483-0.053372 0.021104-0.099661 0.014933-0.11016-0.014686-0.18499-0.00263-0.28497 0.045905-0.034958 0.01697-0.06679 0.032249-0.070738 0.033953-0.00395 0.0017-0.00337-0.00402 0.00129-0.012712zm4.2916-2.7265c0.04617-0.013896 0.10498-0.053039 0.16666-0.11092 0.06482-0.060836 0.18438-0.2165 0.16629-0.2165-0.01841 0-0.44706 0.31483-0.43912 0.32252 0.0038 0.00368 0.01835 0.00831 0.03234 0.010304 0.01398 0.00199 0.02768 0.00419 0.03043 0.00489 0.0028 6.984e-4 0.02229-0.00393 0.0434-0.010285z" style="paint-order:fill markers stroke"/>
     <path transform="matrix(2.3419 0 0 2.3419 7.0543 90.104)" d="m8.774 9.0829c-0.01124-0.017912-0.01368-0.17866-0.0034586-0.22789 0.012945-0.062358 0.051578-0.14203 0.088906-0.18334 0.067269-0.074458 0.22449-0.10536 0.23913-0.047006 0.010376 0.04134-0.058246 0.16759-0.17801 0.32752-0.095023 0.12688-0.12962 0.15774-0.14657 0.13072z" style="paint-order:fill markers stroke"/>
    </g>
   </g>
   <g transform="matrix(.97986 0 0 .97831 .8576 4.4741)" stroke-linecap="round" stroke-linejoin="round">
    <ellipse cx="44.564" cy="125.83" rx="26.316" ry="26.356" fill="none" stroke="#333" stroke-width="2.3419" style="paint-order:fill markers stroke"/>
    <path transform="matrix(2.3419,0,0,2.3419,7.0543,90.104)" d="m13.778 12.119c-0.06477-0.03779-0.02315-0.26391 0.09665-0.5251 0.06062-0.13217 0.0765-0.10793 0.07772 0.11864 6.68e-4 0.12395-0.0023 0.17013-0.01441 0.22056-0.02231 0.09326-0.05431 0.15222-0.09515 0.17536-0.03762 0.0213-0.04446 0.02242-0.06481 0.01055z" fill="#808080" stroke="#f2f2f2" stroke-width=".016102" style="paint-order:fill markers stroke"/>
    <path transform="matrix(2.3419,0,0,2.3419,7.0543,90.104)" d="m14.504 12.544c-0.0886-0.03064-0.19238-0.11206-0.20454-0.16047-0.0097-0.03849 0.0052-0.04886 0.07028-0.04886 0.0495 0 0.06761 0.0045 0.11762 0.02906 0.07712 0.03792 0.15657 0.11513 0.15657 0.15216 0 0.04502-0.05758 0.05659-0.13994 0.02811z" fill="#808080" stroke="#f2f2f2" stroke-width=".016102" style="paint-order:fill markers stroke"/>
   </g>
  </g>
  <g fill="#333" fill-rule="evenodd" shape-rendering="auto">
   <path transform="matrix(.26458 0 0 .26458 85.99 126.19)" d="m0.85938 1.0508v6.0176h1.1953v-3.9043l3.9648 3.9395 0.83984-0.84766-4.0195-4.002h3.9531v-1.2031h-5.9336z" color="#000000" color-rendering="auto" dominant-baseline="auto" image-rendering="auto" solid-color="#000000" style="font-feature-settings:normal;font-variant-alternates:normal;font-variant-caps:normal;font-variant-ligatures:normal;font-variant-numeric:normal;font-variant-position:normal;isolation:auto;mix-blend-mode:normal;shape-padding:0;text-decoration-color:#000000;text-decoration-line:none;text-decoration-style:solid;text-indent:0;text-orientation:mixed;text-transform:none;white-space:normal"/>
   <path transform="matrix(.26458 0 0 .26458 85.99 126.19)" d="m25.24 0.91016v1.2051h3.9453l-4.0176 4 0.84766 0.84961 3.957-3.9453v3.9082h1.2031v-6.0176h-5.9355z" color="#000000" color-rendering="auto" dominant-baseline="auto" image-rendering="auto" solid-color="#000000" style="font-feature-settings:normal;font-variant-alternates:normal;font-variant-caps:normal;font-variant-ligatures:normal;font-variant-numeric:normal;font-variant-position:normal;isolation:auto;mix-blend-mode:normal;shape-padding:0;text-decoration-color:#000000;text-decoration-line:none;text-decoration-style:solid;text-indent:0;text-orientation:mixed;text-transform:none;white-space:normal"/>
   <path transform="matrix(.26458 0 0 .26458 85.99 126.19)" d="m6.0195 25.184-3.9648 3.9473v-3.9121h-1.1953v6.0176h5.9336v-1.2031h-3.9473l4.0137-4.002-0.83984-0.84766z" color="#000000" color-rendering="auto" dominant-baseline="auto" image-rendering="auto" solid-color="#000000" style="font-feature-settings:normal;font-variant-alternates:normal;font-variant-caps:normal;font-variant-ligatures:normal;font-variant-numeric:normal;font-variant-position:normal;isolation:auto;mix-blend-mode:normal;shape-padding:0;text-decoration-color:#000000;text-decoration-line:none;text-decoration-style:solid;text-indent:0;text-orientation:mixed;text-transform:none;white-space:normal"/>
   <path transform="matrix(.26458 0 0 .26458 85.99 126.19)" d="m26.016 25.322-0.84766 0.85742 4.0234 4h-3.9512v1.1973h5.9355v-6.0098h-1.2031v3.9004l-3.957-3.9453z" color="#000000" color-rendering="auto" dominant-baseline="auto" image-rendering="auto" solid-color="#000000" style="font-feature-settings:normal;font-variant-alternates:normal;font-variant-caps:normal;font-variant-ligatures:normal;font-variant-numeric:normal;font-variant-position:normal;isolation:auto;mix-blend-mode:normal;shape-padding:0;text-decoration-color:#000000;text-decoration-line:none;text-decoration-style:solid;text-indent:0;text-orientation:mixed;text-transform:none;white-space:normal"/>
  </g>
 </g>
</svg>
