<?xml version="1.0" encoding="UTF-8" standalone="no"?>
<!-- Created with Inkscape (http://www.inkscape.org/) -->
<svg xmlns:rdf="http://www.w3.org/1999/02/22-rdf-syntax-ns#" xmlns="http://www.w3.org/2000/svg" height="40" width="40" version="1.1" xmlns:cc="http://creativecommons.org/ns#" xmlns:dc="http://purl.org/dc/elements/1.1/" viewBox="0 0 10.583334 10.583338">
 <metadata>
  <rdf:RDF>
   <cc:Work rdf:about="">
    <dc:format>image/svg+xml</dc:format>
    <dc:type rdf:resource="http://purl.org/dc/dcmitype/StillImage"/>
    <dc:title/>
   </cc:Work>
  </rdf:RDF>
 </metadata>
 <rect style="color-rendering:auto;color:#000000;isolation:auto;mix-blend-mode:normal;paint-order:markers stroke fill;shape-rendering:auto;solid-color:#000000;image-rendering:auto" fill-rule="evenodd" height="10.325" width="10.325" stroke="#999" stroke-linecap="round" y=".13452" x=".12361" stroke-width=".25813" fill="#fff"/>
 <path style="color-rendering:auto;color:#000000;isolation:auto;mix-blend-mode:normal;paint-order:markers stroke fill;shape-rendering:auto;solid-color:#000000;image-rendering:auto" d="m7.2853 4.4646a2.6774 2.6774 0 0 1 -2.6774 2.6774 2.6774 2.6774 0 0 1 -2.6774 -2.6774 2.6774 2.6774 0 0 1 2.6774 -2.6774 2.6774 2.6774 0 0 1 2.6774 2.6774z" fill-rule="evenodd" stroke-width=".72283" fill="#fc0"/>
 <g transform="matrix(1.4199 0 0 1.4199 22.376 2.1789)">
  <g transform="translate(.056056 .044845)">
   <path d="m-10.074 4.8178c-0.03059-0.010936-0.0739-0.032593-0.09621-0.048103-0.02237-0.01551-0.27261-0.2606-0.55608-0.54457-0.45408-0.45487-0.51905-0.52406-0.54521-0.58052-0.04067-0.087986-0.04674-0.20049-0.01522-0.28333l0.0223-0.05861-0.09256-0.093061-0.09263-0.092989-0.05975 0.045316c-0.24816 0.18827-0.56287 0.31885-0.90995 0.37746-0.13623 0.023015-0.46452 0.025946-0.5936 0.00522-0.57259-0.091703-1.05-0.37718-1.3818-0.82618-0.18791-0.25445-0.31692-0.56458-0.37453-0.9003-0.02602-0.15203-0.02587-0.48374 0.000215-0.6387 0.13823-0.81861 0.7154-1.4594 1.5068-1.6728 0.18476-0.049833 0.30771-0.064785 0.53275-0.064785 0.34326 0 0.60746 0.059966 0.90373 0.20511 0.22176 0.10865 0.36331 0.20972 0.54886 0.39189 0.31679 0.31102 0.51667 0.7089 0.59181 1.1781 0.02067 0.12907 0.01778 0.45732-0.0052 0.59356-0.05869 0.34708-0.18927 0.66179-0.37753 0.90995l-0.04533 0.059752 0.09301 0.092582 0.09301 0.092582 0.05868-0.022317c0.08782-0.033404 0.19706-0.026109 0.28884 0.019279 0.06149 0.030404 0.12851 0.093604 0.59543 0.56147 0.60477 0.606 0.5861 0.58204 0.5861 0.75178 0 0.14362-0.024414 0.18847-0.19604 0.36009-0.16195 0.16195-0.2145 0.19225-0.34384 0.19824-0.058873 0.0027-0.095327-0.00157-0.13604-0.016134zm-2.4255-1.6507c0.6698-0.088915 1.2363-0.59396 1.4014-1.2495 0.04839-0.1922 0.06404-0.4663 0.0371-0.64878-0.09906-0.67037-0.5743-1.2117-1.2235-1.3939-0.26217-0.073548-0.60061-0.076264-0.86778-0.006933-0.55701 0.14459-1.0115 0.57602-1.1846 1.1245-0.07912 0.25074-0.09749 0.53828-0.0516 0.80717 0.05632 0.33014 0.2418 0.67323 0.49447 0.91438 0.37803 0.36088 0.87421 0.52206 1.3945 0.45301z" stroke-width=".71475" fill="#666"/>
   <circle style="color-rendering:auto;color:#000000;isolation:auto;mix-blend-mode:normal;paint-order:fill markers stroke;shape-rendering:auto;solid-color:#000000;image-rendering:auto" stroke-width=".63921" fill-opacity=".52395" fill-rule="evenodd" cy="1.497" cx="-12.743" r="1.5106" fill="#fff"/>
   <path d="m-13.133 2.6773c-0.23994-0.047102-0.42957-0.14474-0.60247-0.3102-0.35366-0.33844-0.45079-0.88608-0.23422-1.3212l0.04523-0.090902 0.0067 0.11764c0.01306 0.22974 0.06433 0.41989 0.16652 0.61776 0.19549 0.37852 0.55775 0.6629 0.97121 0.76243 0.1275 0.030698 0.32398 0.049551 0.42779 0.041044l0.07486-0.00616-0.07084 0.043524c-0.08427 0.051748-0.20406 0.10114-0.31749 0.13087-0.10757 0.028233-0.35924 0.036452-0.4673 0.015225z" stroke-width=".010695" fill="#fff"/>
  </g>
 </g>
</svg>
