<?xml version="1.0" encoding="UTF-8"?>
<!-- Created with Inkscape (http://www.inkscape.org/) -->
<svg width="24" height="72" version="1.1" viewBox="0 0 6.35 19.05" xmlns="http://www.w3.org/2000/svg">
 <g transform="translate(-96.846 -138.8)" stroke-width=".26458">
  <path d="m99.572 152.09c0.42227 0 0.76438 0.34237 0.76438 0.76465v1.5293h-1.5288v-1.5293c0-0.42228 0.34237-0.76465 0.76438-0.76465zm1.147 2.2939v-1.5293c0-0.63341-0.51382-1.1467-1.1467-1.1467-0.63288 0-1.147 0.51329-1.147 1.1467v1.5293c-0.42227 0-0.76464 0.34211-0.76464 0.76438v1.9116c0 0.42227 0.34237 0.76464 0.76464 0.76464h2.2937c0.42227 0 0.76438-0.34237 0.76438-0.76464v-1.9116c0-0.42227-0.34211-0.76438-0.76438-0.76438z" fill="#333"/>
  <path d="m101.48 139.3c-0.42227 0-0.76464 0.34211-0.76464 0.76465v1.5288c0.42227 0 0.76464 0.34237 0.76464 0.76464v1.9116c0 0.42227-0.34237 0.76464-0.76464 0.76464h-2.2934c-0.42228 0-0.76465-0.34237-0.76465-0.76464v-1.9116c0-0.42227 0.34237-0.76464 0.76465-0.76464h1.9113v-1.529c0-0.63368 0.51355-1.147 1.1467-1.147s1.1467 0.51329 1.1467 1.147v1.5288c0 0.10557-0.0852 0.1913-0.19103 0.1913-0.10584 0-0.1913-0.0855-0.1913-0.1913v-1.5288c0-0.42227-0.34237-0.76438-0.76438-0.76438zm-3.058 2.6757c-0.21114 0-0.38232 0.17092-0.38232 0.38206v1.9116c0 0.21114 0.17118 0.38206 0.38232 0.38206h2.2934c0.2114 0 0.38232-0.17092 0.38232-0.38206v-1.9116c0-0.21114-0.17092-0.38206-0.38232-0.38206z" fill="#ccc"/>
  <path d="m101.48 145.73c-0.42227 0-0.76464 0.34211-0.76464 0.76465v1.5288c0.42227 0 0.76464 0.34237 0.76464 0.76464v1.9116c0 0.42227-0.34237 0.76464-0.76464 0.76464h-2.2934c-0.42228 0-0.76465-0.34237-0.76465-0.76464v-1.9116c0-0.42227 0.34237-0.76464 0.76465-0.76464h1.9113v-1.529c0-0.63368 0.51355-1.147 1.1467-1.147s1.1467 0.51329 1.1467 1.147v1.5288c0 0.10557-0.0852 0.1913-0.19103 0.1913-0.10584 0-0.1913-0.0855-0.1913-0.1913v-1.5288c0-0.42227-0.34237-0.76438-0.76438-0.76438z" fill="#4d4d4d"/>
 </g>
</svg>
