<?xml version="1.0" encoding="utf-8"?>
<!-- Generator: Adobe Illustrator 15.0.2, SVG Export Plug-In . SVG Version: 6.00 Build 0)  -->
<!DOCTYPE svg PUBLIC "-//W3C//DTD SVG 1.1//EN" "http://www.w3.org/Graphics/SVG/1.1/DTD/svg11.dtd">
<svg version="1.1"
	 id="Ebene_1" xmlns:dc="http://purl.org/dc/elements/1.1/" xmlns:cc="http://creativecommons.org/ns#" xmlns:rdf="http://www.w3.org/1999/02/22-rdf-syntax-ns#"
	 xmlns="http://www.w3.org/2000/svg" xmlns:xlink="http://www.w3.org/1999/xlink" x="0px" y="0px" width="16px" height="16px"
	 viewBox="0 0 16 16" enable-background="new 0 0 16 16" xml:space="preserve">
<path fill="#FFFFFF" d="M2.73,2.73c0.306-0.307,0.804-0.308,1.111-0.001C3.842,2.73,3.842,2.73,3.843,2.73L8,6.889l4.158-4.158
	c0.308-0.307,0.805-0.307,1.112,0c0.306,0.307,0.306,0.806,0,1.112L9.109,8l4.161,4.158c0.306,0.308,0.306,0.805,0,1.112
	c-0.308,0.306-0.805,0.306-1.112,0L8,9.109l-4.157,4.161c-0.307,0.306-0.806,0.306-1.112,0c-0.307-0.308-0.307-0.805,0-1.112
	L6.889,8L2.73,3.843C2.424,3.537,2.423,3.038,2.729,2.731C2.73,2.731,2.73,2.731,2.73,2.73z"/>
</svg>
