<?xml version="1.0" encoding="UTF-8"?>
<!-- Created with Inkscape (http://www.inkscape.org/) -->
<svg width="25" height="25" version="1.1" viewBox="0 0 6.6146 6.6146" xmlns="http://www.w3.org/2000/svg" xmlns:cc="http://creativecommons.org/ns#" xmlns:dc="http://purl.org/dc/elements/1.1/" xmlns:rdf="http://www.w3.org/1999/02/22-rdf-syntax-ns#">
 <metadata>
  <rdf:RDF>
   <cc:Work rdf:about="">
    <dc:format>image/svg+xml</dc:format>
    <dc:type rdf:resource="http://purl.org/dc/dcmitype/StillImage"/>
    <dc:title/>
   </cc:Work>
  </rdf:RDF>
 </metadata>
 <g transform="translate(-14.741 -194.19)">
  <rect x="14.741" y="194.19" width="6.6146" height="6.6146" color="#000000" color-rendering="auto" fill="#4d4d4d" fill-rule="evenodd" image-rendering="auto" shape-rendering="auto" solid-color="#000000" stroke-width=".057163" style="isolation:auto;mix-blend-mode:normal;paint-order:markers stroke fill"/>
  <path d="m16.247 200.16c-0.42843-0.11972-0.79418-0.50283-0.88145-0.92322-0.03674-0.17699-0.01644-0.54326 0.03963-0.71504 0.09113-0.2792 0.1714-0.38142 0.79632-1.0142 0.32399-0.32804 0.64822-0.64369 0.7205-0.70143 0.246-0.19652 0.58154-0.31869 0.87537-0.31869 0.44362 0 0.94601 0.27558 0.98577 0.54072 0.01934 0.12896-0.01675 0.23283-0.10921 0.31401-0.14518 0.12745-0.30677 0.11916-0.49936-0.0255-0.21425-0.16104-0.41559-0.18175-0.66465-0.0683-0.09997 0.0455-0.22166 0.15693-0.7428 0.68003-0.69078 0.69342-0.71879 0.73105-0.73352 0.98554-0.01077 0.18642 0.03292 0.30502 0.15887 0.43096 0.12606 0.12607 0.24456 0.16971 0.43096 0.15873 0.22828-0.0138 0.31187-0.0674 0.71433-0.46121l0.35465-0.347 0.10776 0.0515c0.14806 0.0709 0.28917 0.10011 0.48194 0.10011 0.10878-4e-5 0.18757-0.0124 0.23563-0.0356 0.11819-0.0581-1.0615 1.1-1.2079 1.1859-0.23814 0.13967-0.38323 0.17973-0.67994 0.18777-0.1921 5e-3 -0.30031-2e-3 -0.38293-0.025zm1.7554-1.6929c-0.34315-0.0744-0.66861-0.31133-0.69813-0.50819-0.01934-0.1291 0.01675-0.23283 0.10921-0.31401 0.14518-0.12745 0.30677-0.11916 0.49936 0.0255 0.21439 0.16116 0.41605 0.18183 0.66465 0.068 0.09968-0.0456 0.22316-0.15861 0.7429-0.68004 0.6909-0.6931 0.71865-0.73038 0.73341-0.98527 0.01077-0.18643-0.03292-0.30502-0.15888-0.43096-0.12606-0.12606-0.24456-0.1697-0.43096-0.15873-0.22828 0.0138-0.31187 0.0674-0.71433 0.46122l-0.35465 0.347-0.10603-0.0499c-0.22508-0.10577-0.57389-0.13767-0.71994-0.0659-0.11754 0.0579 1.0628-1.1008 1.2085-1.1862 0.22317-0.1309 0.38658-0.17882 0.64838-0.1902 0.29116-0.0124 0.42949 0.014 0.654 0.12649 0.30541 0.15285 0.54273 0.44788 0.62887 0.78178 0.05132 0.19893 0.04466 0.50136-0.01564 0.70954-0.0913 0.31521-0.17658 0.42731-0.816 1.0725-0.31918 0.32208-0.63946 0.6329-0.71174 0.69072-0.33347 0.26674-0.76424 0.37276-1.163 0.28628z" fill="#fcfcfc" stroke-width=".021421"/>
 </g>
</svg>
