<?xml version="1.0" encoding="utf-8"?>
<!-- Generator: Adobe Illustrator 15.0.2, SVG Export Plug-In . SVG Version: 6.00 Build 0)  -->
<!DOCTYPE svg PUBLIC "-//W3C//DTD SVG 1.1//EN" "http://www.w3.org/Graphics/SVG/1.1/DTD/svg11.dtd">
<svg version="1.1"
	 id="Ebene_1" xmlns:dc="http://purl.org/dc/elements/1.1/" xmlns:cc="http://creativecommons.org/ns#" xmlns:rdf="http://www.w3.org/1999/02/22-rdf-syntax-ns#"
	 xmlns="http://www.w3.org/2000/svg" xmlns:xlink="http://www.w3.org/1999/xlink" x="0px" y="0px" width="24px" height="24px"
	 viewBox="0 0 24 24" enable-background="new 0 0 24 24" xml:space="preserve">
<path fill="#333333" d="M9.833,1.886c1.596,0,2.889,1.294,2.889,2.89v5.78H6.944v-5.78C6.944,3.18,8.238,1.886,9.833,1.886z
	 M14.168,10.556v-5.78c0-2.394-1.942-4.334-4.334-4.334S5.499,2.382,5.499,4.776v5.78c-1.596,0-2.89,1.293-2.89,2.889v7.225
	c0,1.596,1.294,2.89,2.89,2.89h8.669c1.596,0,2.889-1.294,2.889-2.89v-7.225C17.057,11.849,15.764,10.556,14.168,10.556z"/>
</svg>
