<?xml version="1.0" encoding="UTF-8" standalone="no"?>
<!-- Created with Inkscape (http://www.inkscape.org/) -->
<svg xmlns:rdf="http://www.w3.org/1999/02/22-rdf-syntax-ns#" xmlns="http://www.w3.org/2000/svg" height="30" width="30" version="1.1" xmlns:cc="http://creativecommons.org/ns#" xmlns:dc="http://purl.org/dc/elements/1.1/" viewBox="0 0 7.9376042 7.9375002">
 <metadata>
  <rdf:RDF>
   <cc:Work rdf:about="">
    <dc:format>image/svg+xml</dc:format>
    <dc:type rdf:resource="http://purl.org/dc/dcmitype/StillImage"/>
    <dc:title/>
   </cc:Work>
  </rdf:RDF>
 </metadata>
 <path style="color-rendering:auto;color:#000000;isolation:auto;mix-blend-mode:normal;paint-order:markers stroke fill;shape-rendering:auto;solid-color:#000000;image-rendering:auto" d="m-2.7466e-7 0.0000073242h7.9376v7.9376h-7.9376z" fill-rule="evenodd" stroke-width="0" fill="#424242"/>
 <g transform="matrix(.58299 -.58299 .58299 .58299 -7.9128 9.0579)">
  <g aria-label="?" style="font-variant-ligatures:normal;font-variant-numeric:normal;font-variant-caps:normal;font-feature-settings:normal" transform="matrix(.57301 .57301 -.47483 .47483 4.1433 2.4209)" fill="#fff">
   <path style="font-variant-ligatures:normal;font-variant-numeric:normal;font-variant-caps:normal;font-feature-settings:normal" stroke-width=".62162px" d="m10.894-5.2773q0.0065-0.90653 0.26548-1.3274 0.26548-0.42089 1.049-1.0231 0.45974-0.37556 0.7317-0.80941 0.27844-0.43384 0.27844-0.97129 0-0.59572-0.31729-0.93244-0.31081-0.33671-0.89358-0.33671-0.47917 0-0.81588 0.28491-0.33024 0.28491-0.33671 0.83531h-1.8388l-0.012951-0.038851q-0.019426-1.2432 0.81588-1.9037 0.84178-0.66048 2.1886-0.66048 1.4505 0 2.2728 0.73818 0.82883 0.7317 0.82883 1.9944 0 0.82236-0.48564 1.5217-0.47917 0.69933-1.2044 1.172-0.39499 0.30434-0.51802 0.61515-0.12303 0.30434-0.12303 0.84178zm1.8972 2.6808h-1.903v-1.6188h1.9037z" fill="#fff"/>
  </g>
 </g>
</svg>
