<?xml version="1.0" encoding="UTF-8" standalone="no"?>
<svg
   sodipodi:docname="layers.svg"
   inkscape:version="1.4 (1:1.4+202410161351+e7c3feb100)"
   id="svg4460"
   height="35"
   width="35"
   version="1.1"
   xmlns:inkscape="http://www.inkscape.org/namespaces/inkscape"
   xmlns:sodipodi="http://sodipodi.sourceforge.net/DTD/sodipodi-0.dtd"
   xmlns="http://www.w3.org/2000/svg"
   xmlns:svg="http://www.w3.org/2000/svg"
   xmlns:rdf="http://www.w3.org/1999/02/22-rdf-syntax-ns#"
   xmlns:cc="http://creativecommons.org/ns#"
   xmlns:dc="http://purl.org/dc/elements/1.1/">
  <sodipodi:namedview
     inkscape:document-rotation="0"
     inkscape:current-layer="svg4460"
     inkscape:window-maximized="1"
     inkscape:window-y="0"
     inkscape:window-x="0"
     inkscape:cy="49.257777"
     inkscape:cx="28.763665"
     inkscape:zoom="13.906434"
     showgrid="false"
     id="namedview11"
     inkscape:window-height="2075"
     inkscape:window-width="3840"
     inkscape:pageshadow="2"
     inkscape:pageopacity="0"
     guidetolerance="10"
     gridtolerance="10"
     objecttolerance="10"
     borderopacity="1"
     bordercolor="#666666"
     pagecolor="#ffffff"
     inkscape:showpageshadow="2"
     inkscape:pagecheckerboard="0"
     inkscape:deskcolor="#d1d1d1" />
  <defs
     id="defs4462" />
  <metadata
     id="metadata4465">
    <rdf:RDF>
      <cc:Work
         rdf:about="">
        <dc:format>image/svg+xml</dc:format>
        <dc:type
           rdf:resource="http://purl.org/dc/dcmitype/StillImage" />
      </cc:Work>
    </rdf:RDF>
  </metadata>
  <path
     d="m 17.587627,3.5097152 a 1.6469973,0.90383165 0 0 0 -1.18184,0.2648249 L 0.62455448,12.434782 a 1.6469973,0.90383165 0 0 0 0,1.278511 L 16.405787,22.373535 a 1.6469973,0.90383165 0 0 0 2.32964,0 L 34.51666,13.713293 a 1.6469973,0.90383165 0 0 0 0,-1.278511 L 18.735427,3.7745401 a 1.6469973,0.90383165 0 0 0 -1.1478,-0.2648249 z M 17.570609,5.6916255 31.023564,13.074037 17.570609,20.456449 4.1183334,13.074037 Z M 1.7900551,16.344519 0.62455448,16.983775 a 1.6469973,0.90383165 0 0 0 0,1.27851 L 16.405787,26.922527 a 1.6469973,0.90383165 0 0 0 2.32964,0 L 34.51666,18.262285 a 1.6469973,0.90383165 0 0 0 -6.96e-4,-1.27851 l -1.16482,-0.639256 -2.32964,1.27783 0.0014,6.97e-4 -13.452256,7.382397 -13.4529549,-7.382412 0.00135,-6.98e-4 z m 0,4.548992 -1.16550062,0.639256 a 1.6469973,0.90383165 0 0 0 0,1.27851 L 16.405787,31.471519 a 1.6469973,0.90383165 0 0 0 2.32964,0 L 34.51666,22.811277 a 1.6469973,0.90383165 0 0 0 -6.96e-4,-1.27851 l -1.16482,-0.639256 -2.32964,1.277831 0.0014,6.97e-4 -13.452256,7.382396 -13.4529549,-7.382412 0.00135,-6.97e-4 z"
     style="color:#000000;font-style:normal;font-variant:normal;font-weight:normal;font-stretch:normal;font-size:medium;line-height:normal;font-family:sans-serif;font-variant-ligatures:normal;font-variant-position:normal;font-variant-caps:normal;font-variant-numeric:normal;font-variant-alternates:normal;font-variant-east-asian:normal;font-feature-settings:normal;font-variation-settings:normal;text-indent:0;text-align:start;text-decoration:none;text-decoration-line:none;text-decoration-style:solid;text-decoration-color:#000000;letter-spacing:normal;word-spacing:normal;text-transform:none;writing-mode:lr-tb;direction:ltr;text-orientation:mixed;dominant-baseline:auto;baseline-shift:baseline;text-anchor:start;white-space:normal;shape-padding:0;shape-margin:0;inline-size:0;clip-rule:nonzero;display:inline;overflow:visible;visibility:visible;opacity:1;isolation:auto;mix-blend-mode:normal;color-interpolation:sRGB;color-interpolation-filters:linearRGB;solid-color:#000000;solid-opacity:1;vector-effect:none;fill:#000080;fill-opacity:1;fill-rule:nonzero;stroke:none;stroke-width:2.43993;stroke-linecap:round;stroke-linejoin:round;stroke-miterlimit:4;stroke-dasharray:none;stroke-dashoffset:0;stroke-opacity:1;paint-order:normal;color-rendering:auto;image-rendering:auto;shape-rendering:auto;text-rendering:auto;enable-background:accumulate;stop-color:#000000;stop-opacity:1"
     id="path884" />
</svg>
