<?xml version="1.0" encoding="UTF-8" standalone="no"?>
<svg
   sodipodi:docname="save.svg"
   inkscape:version="1.3.1 (9b9bdc1480, 2023-11-25, custom)"
   id="svg4460"
   height="100"
   width="100"
   version="1.1"
   xmlns:inkscape="http://www.inkscape.org/namespaces/inkscape"
   xmlns:sodipodi="http://sodipodi.sourceforge.net/DTD/sodipodi-0.dtd"
   xmlns="http://www.w3.org/2000/svg"
   xmlns:svg="http://www.w3.org/2000/svg"
   xmlns:rdf="http://www.w3.org/1999/02/22-rdf-syntax-ns#"
   xmlns:cc="http://creativecommons.org/ns#"
   xmlns:dc="http://purl.org/dc/elements/1.1/">
  <sodipodi:namedview
     inkscape:document-rotation="0"
     inkscape:current-layer="svg4460"
     inkscape:window-maximized="0"
     inkscape:window-y="23"
     inkscape:window-x="26"
     inkscape:cy="58.247922"
     inkscape:cx="86.70897"
     inkscape:zoom="5.6568542"
     showgrid="false"
     id="namedview11"
     inkscape:window-height="1501"
     inkscape:window-width="1763"
     inkscape:pageshadow="2"
     inkscape:pageopacity="0"
     guidetolerance="10"
     gridtolerance="10"
     objecttolerance="10"
     borderopacity="1"
     bordercolor="#666666"
     pagecolor="#ffffff"
     inkscape:showpageshadow="2"
     inkscape:pagecheckerboard="0"
     inkscape:deskcolor="#d1d1d1" />
  <defs
     id="defs4462">
	
	
	
	
	
	
</defs>
  <metadata
     id="metadata4465">
    <rdf:RDF>
      <cc:Work
         rdf:about="">
        <dc:format>image/svg+xml</dc:format>
        <dc:type
           rdf:resource="http://purl.org/dc/dcmitype/StillImage" />
      </cc:Work>
    </rdf:RDF>
  </metadata>
  <path
     d="m -38.260982,-19.121715 v 4.598864 h -4.896936 v 3.235507 h 4.896936 v 4.5988652 h 3.445217 v -4.5988652 h 4.896936 v -3.235507 h -4.896936 v -4.598864 z"
     style="color:#000000;font-style:normal;font-variant:normal;font-weight:normal;font-stretch:normal;font-size:medium;line-height:normal;font-family:sans-serif;font-variant-ligatures:normal;font-variant-position:normal;font-variant-caps:normal;font-variant-numeric:normal;font-variant-alternates:normal;font-variant-east-asian:normal;font-feature-settings:normal;font-variation-settings:normal;text-indent:0;text-align:start;text-decoration:none;text-decoration-line:none;text-decoration-style:solid;text-decoration-color:#000000;letter-spacing:normal;word-spacing:normal;text-transform:none;writing-mode:lr-tb;direction:ltr;text-orientation:mixed;dominant-baseline:auto;baseline-shift:baseline;text-anchor:start;white-space:normal;shape-padding:0;shape-margin:0;inline-size:0;clip-rule:nonzero;display:inline;overflow:visible;visibility:visible;isolation:auto;mix-blend-mode:normal;color-interpolation:sRGB;color-interpolation-filters:linearRGB;solid-color:#000000;solid-opacity:1;vector-effect:none;fill:#000080;fill-opacity:1;fill-rule:nonzero;stroke:none;stroke-width:4.27676;stroke-linecap:round;stroke-linejoin:round;stroke-miterlimit:4;stroke-dasharray:none;stroke-dashoffset:0;stroke-opacity:1;paint-order:normal;color-rendering:auto;image-rendering:auto;shape-rendering:auto;text-rendering:auto;enable-background:accumulate;stop-color:#000000"
     id="path838"
     sodipodi:nodetypes="ccccccccccccc" />
  <g
     style="fill:#000080;fill-rule:nonzero;stroke:none;stroke-width:0;stroke-linecap:butt;stroke-linejoin:miter;stroke-miterlimit:10;stroke-dasharray:none"
     transform="matrix(1.1029924,0,0,1.115537,0.11092053,0.00823634)"
     id="g7">
	<path
   d="M 88,90 H 2 C 0.896,90 0,89.104 0,88 V 2 C 0,0.896 0.896,0 2,0 h 65.795 c 0.53,0 1.039,0.211 1.414,0.586 L 89.414,20.792 C 89.789,21.167 90,21.675 90,22.206 V 88 c 0,1.104 -0.896,2 -2,2 z M 4,86 H 86 V 23.034 L 66.967,4 H 4 Z"
   style="opacity:1;fill:#000080;fill-rule:nonzero;stroke:none;stroke-width:1;stroke-linecap:butt;stroke-linejoin:miter;stroke-miterlimit:10;stroke-dasharray:none"
   stroke-linecap="round"
   id="path1" />

	<path
   d="M 71.841,90 H 18.159 c -1.104,0 -2,-0.896 -2,-2 V 48.152 c 0,-1.104 0.896,-2 2,-2 h 53.682 c 1.104,0 2,0.896 2,2 V 88 c 0,1.104 -0.896,2 -2,2 z M 20.159,86 H 69.841 V 50.152 H 20.159 Z"
   style="opacity:1;fill:#000080;fill-rule:nonzero;stroke:none;stroke-width:1;stroke-linecap:butt;stroke-linejoin:miter;stroke-miterlimit:10;stroke-dasharray:none"
   stroke-linecap="round"
   id="path2" />

	<path
   d="M 54.427,21.649 H 18.159 c -1.104,0 -2,-0.896 -2,-2 V 2 c 0,-1.104 0.896,-2 2,-2 h 36.268 c 1.104,0 2,0.896 2,2 v 17.649 c 0,1.105 -0.896,2 -2,2 z m -34.268,-4 H 52.427 V 4 H 20.159 Z"
   style="opacity:1;fill:#000080;fill-rule:nonzero;stroke:none;stroke-width:1;stroke-linecap:butt;stroke-linejoin:miter;stroke-miterlimit:10;stroke-dasharray:none"
   stroke-linecap="round"
   id="path3" />

	<path
   d="M 88,90 H 2 C 0.896,90 0,89.104 0,88 V 2 C 0,0.896 0.896,0 2,0 h 65.795 c 0.53,0 1.039,0.211 1.414,0.586 L 89.414,20.792 C 89.789,21.167 90,21.675 90,22.206 V 88 c 0,1.104 -0.896,2 -2,2 z M 4,86 H 86 V 23.034 L 66.967,4 H 4 Z"
   style="opacity:1;fill:#000080;fill-rule:nonzero;stroke:none;stroke-width:1;stroke-linecap:butt;stroke-linejoin:miter;stroke-miterlimit:10;stroke-dasharray:none"
   stroke-linecap="round"
   id="path4" />

	<path
   d="M 62.706,60.304 H 27.293 c -1.104,0 -2,-0.896 -2,-2 0,-1.104 0.896,-2 2,-2 h 35.413 c 1.104,0 2,0.896 2,2 0,1.104 -0.895,2 -2,2 z"
   style="opacity:1;fill:#000080;fill-rule:nonzero;stroke:none;stroke-width:1;stroke-linecap:butt;stroke-linejoin:miter;stroke-miterlimit:10;stroke-dasharray:none"
   stroke-linecap="round"
   id="path5" />

	<path
   d="M 62.706,70.076 H 27.293 c -1.104,0 -2,-0.896 -2,-2 0,-1.104 0.896,-2 2,-2 h 35.413 c 1.104,0 2,0.896 2,2 0,1.104 -0.895,2 -2,2 z"
   style="opacity:1;fill:#000080;fill-rule:nonzero;stroke:none;stroke-width:1;stroke-linecap:butt;stroke-linejoin:miter;stroke-miterlimit:10;stroke-dasharray:none"
   stroke-linecap="round"
   id="path6" />

	<path
   d="M 62.706,79.849 H 27.293 c -1.104,0 -2,-0.896 -2,-2 0,-1.104 0.896,-2 2,-2 h 35.413 c 1.104,0 2,0.896 2,2 0,1.104 -0.895,2 -2,2 z"
   style="opacity:1;fill:#000080;fill-rule:nonzero;stroke:none;stroke-width:1;stroke-linecap:butt;stroke-linejoin:miter;stroke-miterlimit:10;stroke-dasharray:none"
   stroke-linecap="round"
   id="path7" />

</g>
</svg>
