<?xml version="1.0" encoding="UTF-8" standalone="no"?>
<svg
   sodipodi:docname="trash.svg"
   inkscape:version="1.3.1 (9b9bdc1480, 2023-11-25, custom)"
   id="svg4460"
   height="100"
   width="100"
   version="1.1"
   xmlns:inkscape="http://www.inkscape.org/namespaces/inkscape"
   xmlns:sodipodi="http://sodipodi.sourceforge.net/DTD/sodipodi-0.dtd"
   xmlns="http://www.w3.org/2000/svg"
   xmlns:svg="http://www.w3.org/2000/svg"
   xmlns:rdf="http://www.w3.org/1999/02/22-rdf-syntax-ns#"
   xmlns:cc="http://creativecommons.org/ns#"
   xmlns:dc="http://purl.org/dc/elements/1.1/">
  <sodipodi:namedview
     inkscape:document-rotation="0"
     inkscape:current-layer="svg4460"
     inkscape:window-maximized="0"
     inkscape:window-y="23"
     inkscape:window-x="26"
     inkscape:cy="58.247922"
     inkscape:cx="86.70897"
     inkscape:zoom="5.6568542"
     showgrid="false"
     id="namedview11"
     inkscape:window-height="1501"
     inkscape:window-width="1763"
     inkscape:pageshadow="2"
     inkscape:pageopacity="0"
     guidetolerance="10"
     gridtolerance="10"
     objecttolerance="10"
     borderopacity="1"
     bordercolor="#666666"
     pagecolor="#ffffff"
     inkscape:showpageshadow="2"
     inkscape:pagecheckerboard="0"
     inkscape:deskcolor="#d1d1d1" />
  <defs
     id="defs4462">
	
	
	
	
	
	
</defs>
  <metadata
     id="metadata4465">
    <rdf:RDF>
      <cc:Work
         rdf:about="">
        <dc:format>image/svg+xml</dc:format>
        <dc:type
           rdf:resource="http://purl.org/dc/dcmitype/StillImage" />
      </cc:Work>
    </rdf:RDF>
  </metadata>
  <path
     d="m -38.260982,-19.121715 v 4.598864 h -4.896936 v 3.235507 h 4.896936 v 4.5988652 h 3.445217 v -4.5988652 h 4.896936 v -3.235507 h -4.896936 v -4.598864 z"
     style="color:#000000;font-style:normal;font-variant:normal;font-weight:normal;font-stretch:normal;font-size:medium;line-height:normal;font-family:sans-serif;font-variant-ligatures:normal;font-variant-position:normal;font-variant-caps:normal;font-variant-numeric:normal;font-variant-alternates:normal;font-variant-east-asian:normal;font-feature-settings:normal;font-variation-settings:normal;text-indent:0;text-align:start;text-decoration:none;text-decoration-line:none;text-decoration-style:solid;text-decoration-color:#000000;letter-spacing:normal;word-spacing:normal;text-transform:none;writing-mode:lr-tb;direction:ltr;text-orientation:mixed;dominant-baseline:auto;baseline-shift:baseline;text-anchor:start;white-space:normal;shape-padding:0;shape-margin:0;inline-size:0;clip-rule:nonzero;display:inline;overflow:visible;visibility:visible;isolation:auto;mix-blend-mode:normal;color-interpolation:sRGB;color-interpolation-filters:linearRGB;solid-color:#000000;solid-opacity:1;vector-effect:none;fill:#000080;fill-opacity:1;fill-rule:nonzero;stroke:none;stroke-width:4.27676;stroke-linecap:round;stroke-linejoin:round;stroke-miterlimit:4;stroke-dasharray:none;stroke-dashoffset:0;stroke-opacity:1;paint-order:normal;color-rendering:auto;image-rendering:auto;shape-rendering:auto;text-rendering:auto;enable-background:accumulate;stop-color:#000000"
     id="path838"
     sodipodi:nodetypes="ccccccccccccc" />
  <g
     style="fill:#000080;fill-rule:nonzero;stroke:none;stroke-width:0;stroke-linecap:butt;stroke-linejoin:miter;stroke-miterlimit:10;stroke-dasharray:none"
     transform="matrix(1.2205911,0,0,1.1062148,-4.4129865,0.21976656)"
     id="g6">
	<path
   d="M 67.692,90 H 22.308 C 19.266,90 16.79,87.524 16.79,84.482 v -61 c 0,-1.104 0.896,-2 2,-2 h 52.42 c 1.104,0 2,0.896 2,2 v 61 C 73.21,87.524 70.734,90 67.692,90 Z M 20.79,25.482 v 59 c 0,0.837 0.681,1.518 1.518,1.518 h 45.385 c 0.837,0 1.518,-0.681 1.518,-1.518 v -59 z"
   style="opacity:1;fill:#000080;fill-rule:nonzero;stroke:none;stroke-width:1;stroke-linecap:butt;stroke-linejoin:miter;stroke-miterlimit:10;stroke-dasharray:none"
   stroke-linecap="round"
   id="path1" />

	<path
   d="M 73.196,25.482 H 16.804 c -3.042,0 -5.518,-2.475 -5.518,-5.518 v -4.335 c 0,-3.042 2.475,-5.518 5.518,-5.518 h 56.393 c 3.042,0 5.518,2.475 5.518,5.518 v 4.335 c -0.001,3.043 -2.477,5.518 -5.519,5.518 z M 16.804,14.112 c -0.837,0 -1.518,0.681 -1.518,1.518 v 4.335 c 0,0.837 0.681,1.518 1.518,1.518 h 56.393 c 0.837,0 1.518,-0.681 1.518,-1.518 V 15.63 c 0,-0.837 -0.681,-1.518 -1.518,-1.518 z"
   style="opacity:1;fill:#000080;fill-rule:nonzero;stroke:none;stroke-width:1;stroke-linecap:butt;stroke-linejoin:miter;stroke-miterlimit:10;stroke-dasharray:none"
   stroke-linecap="round"
   id="path2" />

	<path
   d="M 57.197,14.112 H 32.803 c -1.104,0 -2,-0.896 -2,-2 V 5.518 C 30.803,2.476 33.278,0 36.321,0 h 17.358 c 3.043,0 5.519,2.476 5.519,5.518 v 6.594 c -10e-4,1.104 -0.896,2 -2.001,2 z m -22.394,-4 H 55.198 V 5.518 C 55.197,4.681 54.516,4 53.679,4 H 36.321 c -0.837,0 -1.518,0.681 -1.518,1.518 z"
   style="opacity:1;fill:#000080;fill-rule:nonzero;stroke:none;stroke-width:1;stroke-linecap:butt;stroke-linejoin:miter;stroke-miterlimit:10;stroke-dasharray:none"
   stroke-linecap="round"
   id="path3" />

	<path
   d="m 45,78.624 c -1.104,0 -2,-0.896 -2,-2 V 34.856 c 0,-1.104 0.896,-2 2,-2 1.104,0 2,0.896 2,2 v 41.768 c 0,1.105 -0.896,2 -2,2 z"
   style="opacity:1;fill:#000080;fill-rule:nonzero;stroke:none;stroke-width:1;stroke-linecap:butt;stroke-linejoin:miter;stroke-miterlimit:10;stroke-dasharray:none"
   stroke-linecap="round"
   id="path4" />

	<path
   d="m 58.222,78.624 c -1.104,0 -2,-0.896 -2,-2 V 34.856 c 0,-1.104 0.896,-2 2,-2 1.104,0 2,0.896 2,2 v 41.768 c 0,1.105 -0.896,2 -2,2 z"
   style="opacity:1;fill:#000080;fill-rule:nonzero;stroke:none;stroke-width:1;stroke-linecap:butt;stroke-linejoin:miter;stroke-miterlimit:10;stroke-dasharray:none"
   stroke-linecap="round"
   id="path5" />

	<path
   d="m 31.779,78.624 c -1.104,0 -2,-0.896 -2,-2 V 34.856 c 0,-1.104 0.896,-2 2,-2 1.104,0 2,0.896 2,2 v 41.768 c 0,1.105 -0.896,2 -2,2 z"
   style="opacity:1;fill:#000080;fill-rule:nonzero;stroke:none;stroke-width:1;stroke-linecap:butt;stroke-linejoin:miter;stroke-miterlimit:10;stroke-dasharray:none"
   stroke-linecap="round"
   id="path6" />

</g>
</svg>
