<svg xmlns="http://www.w3.org/2000/svg" viewBox="0 0 24 24" width="20" height="20" fill="none" stroke="#8B5A2B" stroke-width="1.25" stroke-linecap="round" stroke-linejoin="round" aria-hidden="true">
  <path d="M2 8c2-2.5 4-3.5 6-3.5s3.5 1.5 6 1.5 4-1.5 6-2.5"/>
  <path d="M2 12c2-2.5 4.5-4 7-4s3 2 5.5 2 4-1.5 5.5-2.5"/>
  <path d="M2 16c2.2-3 5-5 7.5-5s3 2.5 5 2.5 3.5-1.5 5.5-2.5"/>
  <path d="M3 19.5c2-2.5 4.5-4 6.5-4s2.8 1.8 4.8 1.8 3.7-1.2 5.2-2.2"/>
  <path d="M9 9c1-1.4 2.2-2.1 3.4-2.1s1.9 1 1.9 1.9"/>
</svg>
