<?xml version="1.0" encoding="UTF-8" standalone="no"?>
<!-- Created with Inkscape (http://www.inkscape.org/) -->

<svg
   xmlns:dc="http://purl.org/dc/elements/1.1/"
   xmlns:cc="http://creativecommons.org/ns#"
   xmlns:rdf="http://www.w3.org/1999/02/22-rdf-syntax-ns#"
   xmlns:svg="http://www.w3.org/2000/svg"
   xmlns="http://www.w3.org/2000/svg"
   xmlns:sodipodi="http://sodipodi.sourceforge.net/DTD/sodipodi-0.dtd"
   xmlns:inkscape="http://www.inkscape.org/namespaces/inkscape"
   width="32"
   height="32"
   viewBox="0 0 8.4666664 8.4666667"
   version="1.1"
   id="svg1719"
   inkscape:version="0.92.2 (unknown)"
   sodipodi:docname="btn_streetview.svg">
  <defs
     id="defs1713" />
  <sodipodi:namedview
     id="base"
     pagecolor="#ffffff"
     bordercolor="#666666"
     borderopacity="1.0"
     inkscape:pageopacity="0.0"
     inkscape:pageshadow="2"
     inkscape:zoom="1"
     inkscape:cx="13.084571"
     inkscape:cy="16.542456"
     inkscape:document-units="px"
     inkscape:current-layer="g5541"
     showgrid="false"
     fit-margin-top="0"
     fit-margin-left="0"
     fit-margin-right="0"
     fit-margin-bottom="0"
     units="px"
     inkscape:window-width="2560"
     inkscape:window-height="1416"
     inkscape:window-x="2560"
     inkscape:window-y="102"
     inkscape:window-maximized="1"
     showguides="true"
     inkscape:guide-bbox="true"
     inkscape:snap-global="false">
    <sodipodi:guide
       position="2.8764863,0.39756376"
       orientation="0,1"
       id="guide3964"
       inkscape:locked="false" />
    <sodipodi:guide
       position="-4.117578,11.294401"
       orientation="0,1"
       id="guide5424"
       inkscape:locked="false" />
  </sodipodi:namedview>
  <metadata
     id="metadata1716">
    <rdf:RDF>
      <cc:Work
         rdf:about="">
        <dc:format>image/svg+xml</dc:format>
        <dc:type
           rdf:resource="http://purl.org/dc/dcmitype/StillImage" />
        <dc:title />
      </cc:Work>
    </rdf:RDF>
  </metadata>
  <g
     inkscape:label="Layer 1"
     inkscape:groupmode="layer"
     id="layer1"
     transform="translate(-85.989586,-126.19255)">
    <g
       id="g5521"
       transform="matrix(0.77659526,0,0,0.77659526,-4.4385353,31.940532)">
      <g
         id="g5519"
         transform="matrix(0.99157,0,0,0.99157,-349.81,61.25)">
        <g
           id="g5541"
           transform="matrix(0.97702402,0,0,0.97702402,12.660005,1.5192696)">
          <path
             style="fill:#abc837;stroke:none;stroke-width:0.4496305;stroke-miterlimit:4;stroke-dasharray:none;stroke-opacity:1"
             inkscape:connector-curvature="0"
             d="m 472.65442,71.672727 c -1.94514,-0.299655 -3.29664,-1.139252 -3.47348,-2.157951 -0.0736,-0.42358 0.17518,-1.044903 0.56731,-1.416735 0.29789,-0.282516 2.12113,-0.85096 2.3302,-0.85096 0.0561,0 0.0911,0.389103 0.0911,1.018758 0,1.123128 0.0953,1.42629 0.53765,1.708453 0.36511,0.23297 1.99722,0.23297 2.36247,0 0.44221,-0.282163 0.5376,-0.585325 0.5376,-1.708453 0,-0.629655 0.0347,-1.018758 0.091,-1.018758 0.21015,0 2.15206,0.569157 2.45261,0.854215 0.45553,0.431985 0.66403,1.049878 0.5243,1.553606 -0.21677,0.781583 -1.17,1.471016 -2.52431,1.82579 -0.83828,0.219583 -2.66589,0.320004 -3.49607,0.192095 z"
             id="path5513"
             sodipodi:nodetypes="cccssccssccccc" />
          <path
             style="fill:#ffcc00;stroke:none;stroke-width:0.24780874;stroke-miterlimit:4;stroke-dasharray:none;stroke-opacity:1"
             inkscape:connector-curvature="0"
             d="m 473.93234,60.691279 c -0.40206,0 -0.64999,0.110245 -0.91697,0.407186 -0.24245,0.269674 -0.34149,0.556906 -0.31326,0.909693 0.0411,0.512595 0.32507,0.885063 0.82397,1.080684 v -4.68e-4 c 0.1668,0.06547 0.58795,0.07007 0.79296,0.0086 0.24624,-0.07379 0.55261,-0.331286 0.69445,-0.584128 0.25967,-0.46282 0.19542,-1.014542 -0.16413,-1.414467 -0.26701,-0.296943 -0.51492,-0.407185 -0.91702,-0.407185 z m 0.0432,2.691707 c -1.42341,0 -1.52972,0.01929 -1.74744,0.324484 -0.10792,0.151396 -0.14294,0.67776 -0.15765,1.738634 -0.0109,0.774389 0.003,1.161514 0.0441,1.262087 0.0847,0.20452 0.37024,0.439666 0.58212,0.479405 l 0.17936,0.0337 v 0.984884 c 0,0.827404 0.013,0.997493 0.0804,1.064782 0.0573,0.05732 0.17984,0.08044 0.43213,0.08044 h 0.3522 l 0.0142,-1.128897 c 0.0122,-1.010766 0.0228,-1.135106 0.10276,-1.185447 0.0651,-0.04102 0.11317,-0.04102 0.1783,0 0.0799,0.05034 0.0911,0.174683 0.10328,1.185447 l 0.0137,1.128897 h 0.3522 c 0.52527,0 0.51256,0.02839 0.51256,-1.145205 v -0.984886 l 0.17991,-0.0337 c 0.21185,-0.03975 0.4969,-0.274875 0.58156,-0.479404 0.0413,-0.100574 0.0555,-0.48767 0.0446,-1.262087 -0.0148,-1.060885 0.007,-1.587247 -0.10051,-1.738634 -0.2177,-0.305226 -0.32398,-0.324484 -1.74745,-0.324484 z"
             id="path5515"
             sodipodi:nodetypes="ccccccccccccccccscsccccccssccccccc" />
          <path
             style="fill:#ff6600;fill-rule:evenodd;stroke:none;stroke-width:0.32660031px;stroke-linecap:butt;stroke-linejoin:miter;stroke-opacity:1"
             d="m 473.03188,63.405577 0.9365,1.631772 0.94263,-1.632689 -0.90699,-0.01232 z"
             id="path3358"
             inkscape:connector-curvature="0"
             sodipodi:nodetypes="ccccc" />
          <path
             style="fill:#ff6600;fill-opacity:1;fill-rule:evenodd;stroke:none;stroke-width:0.48837715px;stroke-linecap:butt;stroke-linejoin:miter;stroke-opacity:1"
             d="m 472.87724,67.212794 -0.41963,-2.53333 h 0.32971 z"
             id="path820"
             inkscape:connector-curvature="0" />
          <path
             style="fill:#ff6600;fill-opacity:1;fill-rule:evenodd;stroke:none;stroke-width:0.48837715px;stroke-linecap:butt;stroke-linejoin:miter;stroke-opacity:1"
             d="m 475.02202,67.236107 0.41963,-2.53333 h -0.32971 z"
             id="path820-1"
             inkscape:connector-curvature="0" />
        </g>
      </g>
    </g>
  </g>
</svg>
