<?xml version="1.0" encoding="UTF-8" standalone="no"?>
<svg
   sodipodi:docname="addgeom.svg"
   inkscape:version="1.4 (1:1.4+202410161351+e7c3feb100)"
   id="svg4460"
   height="100"
   width="100"
   version="1.1"
   xmlns:inkscape="http://www.inkscape.org/namespaces/inkscape"
   xmlns:sodipodi="http://sodipodi.sourceforge.net/DTD/sodipodi-0.dtd"
   xmlns="http://www.w3.org/2000/svg"
   xmlns:svg="http://www.w3.org/2000/svg"
   xmlns:rdf="http://www.w3.org/1999/02/22-rdf-syntax-ns#"
   xmlns:cc="http://creativecommons.org/ns#"
   xmlns:dc="http://purl.org/dc/elements/1.1/">
  <sodipodi:namedview
     inkscape:document-rotation="0"
     inkscape:current-layer="svg4460"
     inkscape:window-maximized="0"
     inkscape:window-y="23"
     inkscape:window-x="26"
     inkscape:cy="58.247922"
     inkscape:cx="21.655145"
     inkscape:zoom="5.6568542"
     showgrid="false"
     id="namedview11"
     inkscape:window-height="1501"
     inkscape:window-width="1763"
     inkscape:pageshadow="2"
     inkscape:pageopacity="0"
     guidetolerance="10"
     gridtolerance="10"
     objecttolerance="10"
     borderopacity="1"
     bordercolor="#666666"
     pagecolor="#ffffff"
     inkscape:showpageshadow="2"
     inkscape:pagecheckerboard="0"
     inkscape:deskcolor="#d1d1d1" />
  <defs
     id="defs4462" />
  <metadata
     id="metadata4465">
    <rdf:RDF>
      <cc:Work
         rdf:about="">
        <dc:format>image/svg+xml</dc:format>
        <dc:type
           rdf:resource="http://purl.org/dc/dcmitype/StillImage" />
      </cc:Work>
    </rdf:RDF>
  </metadata>
  <path
     d="m 23.57899,39.566345 c -4.960093,0 -9.035654,4.412716 -9.035654,9.783139 0,3.133902 1.39337,5.934294 3.534957,7.72938 l -7.230211,16.17887 c -0.540995,-0.111632 -1.0974941,-0.173557 -1.6676443,-0.173557 -4.9600934,0 -9.03565405,4.412716 -9.03565405,9.783139 0,5.370421 4.07556065,9.783137 9.03565405,9.783137 3.6934773,0 6.8674383,-2.456912 8.2524513,-5.926818 l 36.915975,6.00903 c 0.886805,4.388202 4.521848,7.712635 8.826144,7.712635 4.791736,0 8.721343,-4.128846 8.985032,-9.250285 0.03297,-0.175391 0.04996,-0.353869 0.05061,-0.532855 -4.11e-4,-0.183108 -0.01785,-0.365706 -0.05205,-0.545032 -0.269434,-5.115704 -4.195749,-9.238106 -8.983628,-9.238106 -0.09636,0 -0.189765,0.01192 -0.285439,0.01522 L 57.949909,64.589014 c 2.357828,-1.65743 3.965759,-4.479134 4.131147,-7.691319 0.03297,-0.17539 0.04993,-0.353867 0.05062,-0.532851 -4.06e-4,-0.183107 -0.01784,-0.365705 -0.05203,-0.545031 -0.269427,-5.115705 -4.195744,-9.238108 -8.983623,-9.238108 -3.644565,0 -6.804994,2.386454 -8.228548,5.780668 L 32.569648,48.840992 c -0.0023,-0.01219 -0.0046,-0.02437 -0.0071,-0.03654 -0.269357,-5.115717 -4.195725,-9.238112 -8.983603,-9.238112 z m 0,5.456391 c 2.236549,0 3.99616,1.905178 3.99616,4.326748 0,2.421569 -1.759611,4.326747 -3.99616,4.326747 -2.236549,0 -3.996161,-1.905178 -3.996161,-4.326747 0,-2.42157 1.759612,-4.326748 3.996161,-4.326748 z m 29.517032,7.01536 c 2.236549,0 3.99616,1.905178 3.99616,4.326748 0,2.42157 -1.759611,4.326747 -3.99616,4.326747 -2.236549,0 -3.996161,-1.905177 -3.996161,-4.326747 0,-2.42157 1.759612,-4.326748 3.996161,-4.326748 z m -21.696256,2.111611 12.770278,3.655356 c 0.652028,4.695089 4.418697,8.34292 8.925978,8.34292 0.0081,0 0.01584,-0.0015 0.0239,-0.0016 l 4.981842,16.440728 c -1.534963,1.13815 -2.727147,2.777168 -3.387315,4.689083 L 18.058607,81.309869 c -0.32593,-2.168994 -1.310651,-4.108132 -2.726444,-5.558394 l 7.445345,-16.663003 c 0.264823,0.02571 0.530875,0.04415 0.801482,0.04415 3.348948,0 6.271239,-2.020016 7.820776,-4.982915 z M 9.1804377,78.540568 c 2.2365483,0 3.9961603,1.905178 3.9961603,4.326748 0,2.42157 -1.759612,4.326746 -3.9961603,4.326746 -2.2365488,0 -3.9961607,-1.905176 -3.9961607,-4.326746 0,-2.42157 1.7596119,-4.326748 3.9961607,-4.326748 z m 53.9945703,7.794845 c 2.236549,0 3.996161,1.905177 3.996161,4.326747 0,2.421569 -1.759612,4.326746 -3.996161,4.326746 -2.236548,0 -3.99616,-1.905177 -3.99616,-4.326746 0,-2.42157 1.759612,-4.326747 3.99616,-4.326747 z"
     style="color:#000000;font-style:normal;font-variant:normal;font-weight:normal;font-stretch:normal;font-size:medium;line-height:normal;font-family:sans-serif;font-variant-ligatures:normal;font-variant-position:normal;font-variant-caps:normal;font-variant-numeric:normal;font-variant-alternates:normal;font-variant-east-asian:normal;font-feature-settings:normal;font-variation-settings:normal;text-indent:0;text-align:start;text-decoration:none;text-decoration-line:none;text-decoration-style:solid;text-decoration-color:#000000;letter-spacing:normal;word-spacing:normal;text-transform:none;writing-mode:lr-tb;direction:ltr;text-orientation:mixed;dominant-baseline:auto;baseline-shift:baseline;text-anchor:start;white-space:normal;shape-padding:0;shape-margin:0;inline-size:0;clip-rule:nonzero;display:inline;overflow:visible;visibility:visible;isolation:auto;mix-blend-mode:normal;color-interpolation:sRGB;color-interpolation-filters:linearRGB;solid-color:#000000;solid-opacity:1;vector-effect:none;fill:#000000;fill-opacity:1;fill-rule:nonzero;stroke:none;stroke-width:5.24283;stroke-linecap:round;stroke-linejoin:round;stroke-miterlimit:4;stroke-dasharray:none;stroke-dashoffset:0;stroke-opacity:1;color-rendering:auto;image-rendering:auto;shape-rendering:auto;text-rendering:auto;enable-background:accumulate;stop-color:#000000"
     id="path876"
     sodipodi:nodetypes="ssccsssccscccscccccscccsssssssssssccsccccccscccssssssssss"
     inkscape:label="path876" />
  <path
     d="m 56.651078,9.3172919 c -2.495707,1.8574161 -3.01615,5.7812451 -1.153837,8.6992611 1.086749,1.702804 2.758931,2.702617 4.458972,2.876012 l 1.972446,11.49829 c -0.310917,0.141933 -0.612397,0.316679 -0.899273,0.530185 -2.495708,1.857415 -3.01615,5.781245 -1.153838,8.699261 1.862312,2.918016 5.443167,3.789478 7.938875,1.932062 1.858401,-1.383103 2.603415,-3.906625 2.097028,-6.310645 L 90.569763,26.682724 c 1.967903,2.052242 4.949733,2.49735 7.115472,0.885512 2.410995,-1.794372 2.956445,-5.509307 1.31314,-8.390781 -0.0442,-0.107657 -0.0975,-0.210998 -0.15932,-0.308475 -0.0637,-0.09934 -0.13577,-0.19204 -0.21516,-0.276671 -1.909559,-2.678717 -5.314649,-3.448327 -7.723702,-1.655401 -0.04848,0.03608 -0.09135,0.07753 -0.138343,0.115159 L 82.622224,10.042398 C 83.233833,8.2588937 83.064387,6.1235975 82.033707,4.3163258 81.989477,4.2086811 81.936117,4.1053551 81.8744,4.0078458 81.8107,3.9085063 81.738607,3.8158209 81.659219,3.7311872 79.749671,1.0524651 76.344581,0.28285565 73.935524,2.0757811 72.101734,3.440569 71.339096,5.9207396 71.799843,8.2980649 l -7.40886,2.6918521 c -0.0054,-0.0057 -0.01077,-0.01152 -0.01624,-0.01719 C 62.465227,8.2939661 59.060114,7.5243799 56.651057,9.3173061 Z m 1.892124,2.9647261 c 1.125336,-0.837524 2.67136,-0.461273 3.511093,0.854486 0.839732,1.315759 0.615033,3.009861 -0.510303,3.847385 -1.125337,0.837526 -2.671361,0.461273 -3.511093,-0.854484 -0.839733,-1.315759 -0.615033,-3.009862 0.510303,-3.847387 z M 75.827648,5.0405089 c 1.125336,-0.8375246 2.67136,-0.4612727 3.511093,0.8544859 0.839732,1.3157586 0.615033,3.0098603 -0.510303,3.8473851 C 77.703101,10.579905 76.157077,10.203654 75.317344,8.887895 74.477612,7.5721364 74.702311,5.8780338 75.827648,5.0405089 Z m -10.184386,9.2719821 7.693036,-2.795975 c 1.956199,2.306907 5.116392,2.878442 7.384263,1.190591 0.0041,-0.003 0.0075,-0.0068 0.01147,-0.0098 l 8.207837,7.067499 c -0.37765,1.193214 -0.40914,2.530212 -0.07831,3.816265 L 68.348943,34.065838 C 67.432802,33.009369 66.264894,32.32449 65.049617,32.066665 L 63.017534,20.22476 c 0.142164,-0.0852 0.282424,-0.174809 0.418582,-0.276144 1.685048,-1.254087 2.454936,-3.445977 2.207146,-5.636125 z M 62.92151,35.885766 c 1.125336,-0.837525 2.67136,-0.461273 3.511093,0.854486 0.839733,1.315759 0.615033,3.00986 -0.510304,3.847385 -1.125335,0.837524 -2.671359,0.461273 -3.511092,-0.854485 -0.839733,-1.315759 -0.615033,-3.009861 0.510303,-3.847386 z M 92.792316,19.901637 c 1.12534,-0.837525 2.67136,-0.461273 3.51109,0.854485 0.83974,1.315758 0.61504,3.00986 -0.5103,3.847385 -1.12534,0.837525 -2.67136,0.461274 -3.51109,-0.854485 -0.83974,-1.315758 -0.61504,-3.009861 0.5103,-3.847385 z"
     style="color:#000000;font-style:normal;font-variant:normal;font-weight:normal;font-stretch:normal;font-size:medium;line-height:normal;font-family:sans-serif;font-variant-ligatures:normal;font-variant-position:normal;font-variant-caps:normal;font-variant-numeric:normal;font-variant-alternates:normal;font-variant-east-asian:normal;font-feature-settings:normal;font-variation-settings:normal;text-indent:0;text-align:start;text-decoration:none;text-decoration-line:none;text-decoration-style:solid;text-decoration-color:#000000;letter-spacing:normal;word-spacing:normal;text-transform:none;writing-mode:lr-tb;direction:ltr;text-orientation:mixed;dominant-baseline:auto;baseline-shift:baseline;text-anchor:start;white-space:normal;shape-padding:0;shape-margin:0;inline-size:0;clip-rule:nonzero;display:inline;overflow:visible;visibility:visible;isolation:auto;mix-blend-mode:normal;color-interpolation:sRGB;color-interpolation-filters:linearRGB;solid-color:#000000;solid-opacity:1;vector-effect:none;fill:#000000;fill-opacity:1;fill-rule:nonzero;stroke:none;stroke-width:3.32929;stroke-linecap:round;stroke-linejoin:round;stroke-miterlimit:4;stroke-dasharray:none;stroke-dashoffset:0;stroke-opacity:1;color-rendering:auto;image-rendering:auto;shape-rendering:auto;text-rendering:auto;enable-background:accumulate;stop-color:#000000"
     id="path876-3"
     sodipodi:nodetypes="ssccsssccscccscccccscccsssssssssssccsccccccscccssssssssss"
     inkscape:label="path876" />
  <path
     d="m 71.734174,15.551377 v 4.598864 h -4.896936 v 3.235507 h 4.896936 v 4.598865 h 3.445217 v -4.598865 h 4.896936 v -3.235507 h -4.896936 v -4.598864 z"
     style="color:#000000;font-style:normal;font-variant:normal;font-weight:normal;font-stretch:normal;font-size:medium;line-height:normal;font-family:sans-serif;font-variant-ligatures:normal;font-variant-position:normal;font-variant-caps:normal;font-variant-numeric:normal;font-variant-alternates:normal;font-variant-east-asian:normal;font-feature-settings:normal;font-variation-settings:normal;text-indent:0;text-align:start;text-decoration:none;text-decoration-line:none;text-decoration-style:solid;text-decoration-color:#000000;letter-spacing:normal;word-spacing:normal;text-transform:none;writing-mode:lr-tb;direction:ltr;text-orientation:mixed;dominant-baseline:auto;baseline-shift:baseline;text-anchor:start;white-space:normal;shape-padding:0;shape-margin:0;inline-size:0;clip-rule:nonzero;display:inline;overflow:visible;visibility:visible;isolation:auto;mix-blend-mode:normal;color-interpolation:sRGB;color-interpolation-filters:linearRGB;solid-color:#000000;solid-opacity:1;vector-effect:none;fill:#000000;fill-opacity:1;fill-rule:nonzero;stroke:none;stroke-width:4.27676;stroke-linecap:round;stroke-linejoin:round;stroke-miterlimit:4;stroke-dasharray:none;stroke-dashoffset:0;stroke-opacity:1;paint-order:normal;color-rendering:auto;image-rendering:auto;shape-rendering:auto;text-rendering:auto;enable-background:accumulate;stop-color:#000000"
     id="path838"
     sodipodi:nodetypes="ccccccccccccc" />
</svg>
