<?xml version="1.0" encoding="UTF-8"?>
<svg width="32" height="32" version="1.1" viewBox="0 0 32 32" xmlns="http://www.w3.org/2000/svg" xmlns:cc="http://creativecommons.org/ns#" xmlns:dc="http://purl.org/dc/elements/1.1/" xmlns:rdf="http://www.w3.org/1999/02/22-rdf-syntax-ns#">
 <metadata>
  <rdf:RDF>
   <cc:Work rdf:about="">
    <dc:format>image/svg+xml</dc:format>
    <dc:type rdf:resource="http://purl.org/dc/dcmitype/StillImage"/>
   </cc:Work>
  </rdf:RDF>
 </metadata>
 <rect x="-7.1265e-7" y="-.00056749" width="32.001" height="32.001" color="#000000" color-rendering="auto" fill="#fff" fill-rule="evenodd" image-rendering="auto" shape-rendering="auto" solid-color="#000000" stroke-width="4.0866" style="isolation:auto;mix-blend-mode:normal;paint-order:markers stroke fill"/>
 <rect x="2.6441" y="2.8136" width="24.814" height="26.644" ry="4.9831" fill="#f2f2f2" style="paint-order:fill markers stroke"/>
 <path d="m8.659 24.364c-0.10916-0.06062-0.21346-0.23454-0.46249-0.77121-1.0159-2.1894-1.3351-4.2784-1.0047-6.5755 0.09232-0.64184 0.13691-0.85068 0.2685-1.2576 0.32568-1.0071 0.88283-1.9294 1.7592-2.912 1.4808-1.6603 3.6215-2.7594 6.5077-3.3414 1.754-0.3537 3.3263-0.47408 6.1988-0.47461l1.6257-3.13e-4 0.0093-1.5327c0.0086-1.4249 0.0134-1.5405 0.06787-1.6428 0.08268-0.15524 0.2042-0.27836 0.34739-0.35199 0.18035-0.09273 0.49943-0.07103 0.66682 0.04535 0.06705 0.04662 1.4395 1.4045 3.0498 3.0175 2.6776 2.6821 2.9322 2.946 2.979 3.0877 0.02811 0.08522 0.05102 0.20548 0.05084 0.26725-5.06e-4 0.27864 0.01163 0.26519-3.1011 3.371-1.623 1.6194-2.9954 2.9666-3.0498 2.9938-0.34641 0.17349-0.74022 0.02422-0.94306-0.35741-0.05428-0.10214-0.05917-0.21923-0.06802-1.6307l-0.0096-1.5206-2.2227 0.01669c-3.245 0.02432-4.05 0.07663-5.4522 0.35421-0.91765 0.18165-1.9848 0.50058-2.811 0.84011-1.3244 0.54425-2.3774 1.2988-2.8929 2.0728-0.39637 0.59521-0.85483 1.8781-1.0032 2.8073-0.10562 0.66144-0.11166 2.0273-0.01269 2.8783 0.04116 0.35402 0.01385 0.49143-0.11826 0.59536-0.09156 0.07202-0.27005 0.08216-0.37921 0.02154z" fill="#00aad4" stroke-width=".031441"/>
 <path d="m6.7044 30.184c-1.182-0.18677-2.1623-0.68421-3.0731-1.5594-1.0194-0.97958-1.5827-2.1096-1.7412-3.4924-0.050723-0.44262-0.050723-17.493 0-17.935 0.1134-0.98992 0.44752-1.8818 0.98985-2.6422 0.29739-0.41697 0.89906-1.0285 1.3318-1.3535 0.66793-0.50171 1.5077-0.87317 2.3136-1.0234 0.34212-0.063762-0.94446-0.066734 6.2572-0.066734h7.537l0.11718 0.083578c0.23724 0.16921 0.25877 0.26579 0.25877 1.1606 0 0.7581-4e-3 0.80767-0.08056 0.95839-0.04774 0.094122-0.13166 0.18847-0.20588 0.23137-0.12441 0.071905-0.17908 0.072565-7.537 0.090422l-5.7738 0.017958-0.27188 0.077576c-1.1911 0.33984-2.0981 1.2877-2.3422 2.4477-0.077382 0.36789-0.079956 17.609-0.0028471 17.974 0.27196 1.2828 1.3772 2.3228 2.6624 2.5053 0.19632 0.02786 1.1639 0.0361 7.3394 0.02839 8.3491-0.01048 8.71-0.01359 8.9334-0.07734 0.32461-0.09266 0.78946-0.31412 1.0508-0.50062 0.27959-0.19951 0.6775-0.61728 0.87459-0.91825 0.17513-0.26742 0.35104-0.69909 0.42277-1.0375 0.0387-0.18246 0.04987-0.67265 0.05102-2.2387 5.77e-4 -1.1028 0.01612-2.0683 0.03403-2.1455 0.03714-0.16025 0.1231-0.28773 0.26586-0.39442 0.09223-0.06891 0.15514-0.07452 0.94662-0.08433 0.8238-0.01017 0.8524-0.0082 1.009 0.07161 0.11743 0.05985 0.18341 0.12581 0.24331 0.24324l0.08217 0.16112-0.01319 2.2199c-0.01138 1.9133-0.02165 2.2632-0.07451 2.5336-0.23921 1.2233-0.72528 2.1265-1.6334 3.035-0.47828 0.47849-0.90727 0.79876-1.431 1.0683-0.47447 0.24421-0.89463 0.39939-1.3913 0.51386l-0.34727 0.08004-9.0766 0.0066c-7.1663 0.0052-7.499-0.0028-7.7252-0.0387z" fill="#4d4d4d" stroke-width=".035805"/>
</svg>
