<?xml version="1.0" encoding="utf-8"?>
<!-- Generator: Adobe Illustrator 15.0.2, SVG Export Plug-In . SVG Version: 6.00 Build 0)  -->
<!DOCTYPE svg PUBLIC "-//W3C//DTD SVG 1.1//EN" "http://www.w3.org/Graphics/SVG/1.1/DTD/svg11.dtd">
<svg version="1.1"
	 id="Ebene_1" xmlns:dc="http://purl.org/dc/elements/1.1/" xmlns:cc="http://creativecommons.org/ns#" xmlns:rdf="http://www.w3.org/1999/02/22-rdf-syntax-ns#"
	 xmlns="http://www.w3.org/2000/svg" xmlns:xlink="http://www.w3.org/1999/xlink" x="0px" y="0px" width="24px" height="24px"
	 viewBox="0 0 24 24" enable-background="new 0 0 24 24" xml:space="preserve">
<path fill="#333333" d="M17.057,1.887c-1.596,0-2.89,1.293-2.89,2.89v5.778c1.596,0,2.89,1.294,2.89,2.89v7.225
	c0,1.596-1.294,2.89-2.89,2.89H5.499c-1.596,0-2.89-1.294-2.89-2.89v-7.225c0-1.596,1.294-2.89,2.89-2.89h7.224V4.776
	c0-2.395,1.941-4.335,4.334-4.335s4.334,1.94,4.334,4.335v5.778c0,0.399-0.322,0.723-0.722,0.723s-0.723-0.323-0.723-0.723V4.776
	C19.946,3.18,18.652,1.887,17.057,1.887z"/>
</svg>
