<?xml version="1.0" encoding="UTF-8" standalone="no"?>
<!-- Uploaded to: SVG Repo, www.svgrepo.com, Generator: SVG Repo Mixer Tools -->

<svg
   fill="#000000"
   height="800"
   width="800"
   version="1.1"
   id="Capa_1"
   viewBox="0 0 270 270"
   xml:space="preserve"
   sodipodi:docname="export_table.svg"
   inkscape:version="1.4 (1:1.4+202410161351+e7c3feb100)"
   xmlns:inkscape="http://www.inkscape.org/namespaces/inkscape"
   xmlns:sodipodi="http://sodipodi.sourceforge.net/DTD/sodipodi-0.dtd"
   xmlns="http://www.w3.org/2000/svg"
   xmlns:svg="http://www.w3.org/2000/svg"><defs
   id="defs1" /><sodipodi:namedview
   id="namedview1"
   pagecolor="#ffffff"
   bordercolor="#000000"
   borderopacity="0.25"
   inkscape:showpageshadow="2"
   inkscape:pageopacity="0.0"
   inkscape:pagecheckerboard="0"
   inkscape:deskcolor="#d1d1d1"
   inkscape:zoom="0.82864076"
   inkscape:cx="-165.33099"
   inkscape:cy="865.87582"
   inkscape:window-width="3840"
   inkscape:window-height="2075"
   inkscape:window-x="0"
   inkscape:window-y="0"
   inkscape:window-maximized="1"
   inkscape:current-layer="Capa_1" />

<g
   id="db-table"
   style="opacity:0;mix-blend-mode:color-dodge;fill:#000000;fill-opacity:1;fill-rule:evenodd;stroke:none;stroke-width:1"
   transform="matrix(3.6052538,0,0,2.91339,63.149039,96.563318)" /><path
   style="fill:#000000;stroke-width:1.14579"
   d="M 0.31561375,24.751061 C 0.5400659,6.0861226 0.6662256,5.5131491 5.4474066,1.4443207 l 2.1758811,-1.85168213 95.1733223,0.00128 c 89.29572,0.001213 95.31478,0.090236 97.4638,1.44020273 1.25978,0.7914178 2.96281,2.6972748 3.7845,4.2352914 1.43105,2.6784797 1.49402,3.5023524 1.49402,19.5455783 v 16.74921 H 102.82618 0.11343045 Z"
   id="path23" /><path
   style="fill:#000000;stroke-width:1.14579"
   d="M 175.26294,71.191182 V 58.846618 h 15.138 15.13799 v 12.344564 12.344581 h -15.13799 -15.138 z"
   id="path21" /><path
   style="fill:#000000;stroke-width:1.14579"
   d="M 131.82346,71.191182 V 58.846618 h 15.13801 15.13799 v 12.344564 12.344581 h -15.13799 -15.13801 z"
   id="path20" /><path
   style="fill:#000000;stroke-width:1.14579"
   d="M 87.725824,71.191182 V 58.846618 h 15.137996 15.13799 V 71.191182 83.535763 H 102.86382 87.725824 Z"
   id="path19" /><path
   style="fill:#000000;stroke-width:1.14579"
   d="M 44.286353,71.191182 V 58.846618 H 59.42435 74.562347 V 71.191182 83.535763 H 59.42435 44.286353 Z"
   id="path18" /><path
   style="fill:#000000;stroke-width:1.14579"
   d="M 0.18871017,71.191182 V 58.846618 H 15.326707 30.464704 V 71.191182 83.535763 H 15.326707 0.18871017 Z"
   id="path17" /><path
   style="fill:#000000;stroke-width:1.14579"
   d="m 175.26294,113.16276 v -12.3446 h 15.138 15.13799 v 12.3446 12.34457 h -15.13799 -15.138 z"
   id="path15" /><path
   style="fill:#000000;stroke-width:1.14579"
   d="m 131.82346,113.16276 v -12.3446 h 15.13801 15.13799 v 12.3446 12.34457 h -15.13799 -15.13801 z"
   id="path14" /><path
   style="fill:#000000;stroke-width:1.14579"
   d="m 87.725824,113.16276 v -12.3446 h 15.137996 15.13799 v 12.3446 12.34457 H 102.86382 87.725824 Z"
   id="path13" /><path
   style="fill:#000000;stroke-width:1.14579"
   d="m 44.286353,113.16276 v -12.3446 H 59.42435 74.562347 v 12.3446 12.34457 H 59.42435 44.286353 Z"
   id="path12" /><path
   style="fill:#000000;stroke-width:1.14579"
   d="m 0.18871017,113.16276 v -12.3446 H 15.326707 30.464704 v 12.3446 12.34457 H 15.326707 0.18871017 Z"
   id="path11" /><path
   style="fill:#000000;stroke-width:0.864684"
   d="m 131.82346,155.54581 v -12.75607 h 8.62131 8.6213 v 12.75607 12.75606 h -8.6213 -8.62131 z"
   id="path9" /><path
   style="fill:#000000;stroke-width:1.14579"
   d="m 88.164605,167.7532 c -0.24133,-0.30175 -0.438781,-6.04197 -0.438781,-12.75604 v -12.20742 h 15.137996 15.13799 v 12.75607 12.75606 H 103.3026 c -8.084567,0 -14.896664,-0.2469 -15.137995,-0.54867 z"
   id="path8" /><path
   style="fill:#000000;stroke-width:1.14579"
   d="m 44.286353,155.56126 v -12.77152 h 15.15514 15.155139 l -0.181684,12.55032 -0.181688,12.55033 -14.973452,0.22118 -14.973455,0.22121 z"
   id="path7" /><path
   style="fill:#000000;stroke-width:1.14579"
   d="M 0.62749311,167.7532 C 0.38616229,167.45145 0.18871017,161.71123 0.18871017,154.99716 V 142.78974 H 15.326707 30.464704 v 12.75607 12.75606 H 15.76549 c -8.0845677,0 -14.89666739,-0.2469 -15.13799689,-0.54867 z"
   id="path6" /><path
   style="fill:#000000;stroke-width:0.874837"
   d="m 131.82346,197.51737 v -12.75608 h 8.82496 8.82494 v 12.75608 12.75606 h -8.82494 -8.82496 z"
   id="path4" /><path
   style="fill:#000000;stroke-width:1.14579"
   d="m 88.164605,209.72478 c -0.24133,-0.30175 -0.438781,-6.04198 -0.438781,-12.75606 v -12.20743 h 15.137996 15.13799 v 12.75608 12.75606 H 103.3026 c -8.084567,0 -14.896664,-0.2469 -15.137995,-0.54865 z"
   id="path3" /><path
   style="fill:#000000;stroke-width:1.14579"
   d="M 44.286353,197.51737 V 184.76129 H 59.42435 74.562347 v 12.75608 12.75606 H 59.42435 44.286353 Z"
   id="path2" /><path
   style="fill:#000000;stroke-width:1.14579"
   d="M 6.0871913,208.42173 C 1.7421944,205.68208 0.18871017,201.35542 0.18871017,191.99368 v -7.23239 H 15.326707 30.464704 v 12.75608 12.75606 H 19.744297 c -9.8085435,0 -10.9701984,-0.15754 -13.6571057,-1.8517 z"
   id="path1" /><g
   style="fill:#000000;fill-opacity:1;fill-rule:nonzero;stroke:none;stroke-width:0;stroke-linecap:butt;stroke-linejoin:miter;stroke-miterlimit:10;stroke-dasharray:none"
   transform="matrix(1.3997472,0,0,1.4174475,143.64491,142.76842)"
   id="g7">
	<path
   d="M 88,90 H 2 C 0.896,90 0,89.104 0,88 V 2 C 0,0.896 0.896,0 2,0 h 65.795 c 0.53,0 1.039,0.211 1.414,0.586 L 89.414,20.792 C 89.789,21.167 90,21.675 90,22.206 V 88 c 0,1.104 -0.896,2 -2,2 z M 4,86 H 86 V 23.034 L 66.967,4 H 4 Z"
   style="opacity:1;fill:#000000;fill-opacity:1;fill-rule:nonzero;stroke:none;stroke-width:1;stroke-linecap:butt;stroke-linejoin:miter;stroke-miterlimit:10;stroke-dasharray:none"
   stroke-linecap="round"
   id="path1-0" />
	<path
   d="M 71.841,90 H 18.159 c -1.104,0 -2,-0.896 -2,-2 V 48.152 c 0,-1.104 0.896,-2 2,-2 h 53.682 c 1.104,0 2,0.896 2,2 V 88 c 0,1.104 -0.896,2 -2,2 z M 20.159,86 H 69.841 V 50.152 H 20.159 Z"
   style="opacity:1;fill:#000000;fill-opacity:1;fill-rule:nonzero;stroke:none;stroke-width:1;stroke-linecap:butt;stroke-linejoin:miter;stroke-miterlimit:10;stroke-dasharray:none"
   stroke-linecap="round"
   id="path2-7" />
	<path
   d="M 54.427,21.649 H 18.159 c -1.104,0 -2,-0.896 -2,-2 V 2 c 0,-1.104 0.896,-2 2,-2 h 36.268 c 1.104,0 2,0.896 2,2 v 17.649 c 0,1.105 -0.896,2 -2,2 z m -34.268,-4 H 52.427 V 4 H 20.159 Z"
   style="opacity:1;fill:#000000;fill-opacity:1;fill-rule:nonzero;stroke:none;stroke-width:1;stroke-linecap:butt;stroke-linejoin:miter;stroke-miterlimit:10;stroke-dasharray:none"
   stroke-linecap="round"
   id="path3-5" />
	<path
   d="M 88,90 H 2 C 0.896,90 0,89.104 0,88 V 2 C 0,0.896 0.896,0 2,0 h 65.795 c 0.53,0 1.039,0.211 1.414,0.586 L 89.414,20.792 C 89.789,21.167 90,21.675 90,22.206 V 88 c 0,1.104 -0.896,2 -2,2 z M 4,86 H 86 V 23.034 L 66.967,4 H 4 Z"
   style="opacity:1;fill:#000000;fill-opacity:1;fill-rule:nonzero;stroke:none;stroke-width:1;stroke-linecap:butt;stroke-linejoin:miter;stroke-miterlimit:10;stroke-dasharray:none"
   stroke-linecap="round"
   id="path4-3" />
	<path
   d="M 62.706,60.304 H 27.293 c -1.104,0 -2,-0.896 -2,-2 0,-1.104 0.896,-2 2,-2 h 35.413 c 1.104,0 2,0.896 2,2 0,1.104 -0.895,2 -2,2 z"
   style="opacity:1;fill:#000000;fill-opacity:1;fill-rule:nonzero;stroke:none;stroke-width:1;stroke-linecap:butt;stroke-linejoin:miter;stroke-miterlimit:10;stroke-dasharray:none"
   stroke-linecap="round"
   id="path5-5" />
	<path
   d="M 62.706,70.076 H 27.293 c -1.104,0 -2,-0.896 -2,-2 0,-1.104 0.896,-2 2,-2 h 35.413 c 1.104,0 2,0.896 2,2 0,1.104 -0.895,2 -2,2 z"
   style="opacity:1;fill:#000000;fill-opacity:1;fill-rule:nonzero;stroke:none;stroke-width:1;stroke-linecap:butt;stroke-linejoin:miter;stroke-miterlimit:10;stroke-dasharray:none"
   stroke-linecap="round"
   id="path6-6" />
	<path
   d="M 62.706,79.849 H 27.293 c -1.104,0 -2,-0.896 -2,-2 0,-1.104 0.896,-2 2,-2 h 35.413 c 1.104,0 2,0.896 2,2 0,1.104 -0.895,2 -2,2 z"
   style="opacity:1;fill:#000000;fill-opacity:1;fill-rule:nonzero;stroke:none;stroke-width:1;stroke-linecap:butt;stroke-linejoin:miter;stroke-miterlimit:10;stroke-dasharray:none"
   stroke-linecap="round"
   id="path7-2" />
</g></svg>
