<?xml version="1.0" encoding="utf-8"?>
<!-- Generator: Adobe Illustrator 15.0.0, SVG Export Plug-In . SVG Version: 6.00 Build 0)  -->
<!DOCTYPE svg PUBLIC "-//W3C//DTD SVG 1.1//EN" "http://www.w3.org/Graphics/SVG/1.1/DTD/svg11.dtd">
<svg version="1.1" xmlns="http://www.w3.org/2000/svg" xmlns:xlink="http://www.w3.org/1999/xlink" x="0px" y="0px" width="48px"
	 height="48px" viewBox="0 0 48 48" enable-background="new 0 0 48 48" xml:space="preserve">
<g id="Allgemein">
</g>
<g id="hamburger">
	<g>
		<path fill="#666666" d="M48,45c0,1.65-1.35,3-3,3H3c-1.65,0-3-1.35-3-3V3c0-1.65,1.35-3,3-3h42c1.65,0,3,1.35,3,3V45z"/>
	</g>
	<g>
		<path fill="#FFFFFF" d="M8.328,14.657h31.346c0.668,0,1.207-0.54,1.207-1.207v-3.014c0-0.666-0.539-1.205-1.207-1.205H8.328
			c-0.667,0-1.207,0.54-1.207,1.205v3.014C7.121,14.117,7.661,14.657,8.328,14.657z M8.328,26.713h31.346
			c0.668,0,1.207-0.539,1.207-1.206v-3.014c0-0.666-0.539-1.205-1.207-1.205H8.328c-0.667,0-1.207,0.539-1.207,1.205v3.014
			C7.121,26.174,7.661,26.713,8.328,26.713z M8.328,38.77h31.346c0.668,0,1.207-0.537,1.207-1.205v-3.016
			c0-0.667-0.539-1.204-1.207-1.204H8.328c-0.667,0-1.207,0.537-1.207,1.204v3.016C7.121,38.232,7.661,38.77,8.328,38.77z"/>
	</g>
</g>
</svg>
