<?xml version="1.0" encoding="UTF-8" standalone="no"?>
<!-- Created with Inkscape (http://www.inkscape.org/) -->
<svg xmlns:rdf="http://www.w3.org/1999/02/22-rdf-syntax-ns#" xmlns="http://www.w3.org/2000/svg" height="13" width="13" version="1.1" xmlns:cc="http://creativecommons.org/ns#" xmlns:dc="http://purl.org/dc/elements/1.1/" viewBox="0 0 3.4395833 3.4395833">
 <metadata>
  <rdf:RDF>
   <cc:Work rdf:about="">
    <dc:format>image/svg+xml</dc:format>
    <dc:type rdf:resource="http://purl.org/dc/dcmitype/StillImage"/>
    <dc:title/>
   </cc:Work>
  </rdf:RDF>
 </metadata>
 <g transform="translate(-101.1 -149.37)">
  <path d="m102.06 152.73c-0.15612-0.0244-0.30186-0.087-0.42403-0.18212-0.0799-0.0622-0.26171-0.25007-0.30517-0.31537-0.10485-0.15753-0.15467-0.32264-0.15472-0.51281-0.00005-0.20568 0.062-0.38885 0.18794-0.5546 0.0365-0.0479 0.50004-0.51334 0.57203-0.57424 0.12235-0.10349 0.25666-0.16884 0.41629-0.20254 0.0946-0.02 0.2601-0.02 0.35473 0 0.11292 0.0238 0.22674 0.0695 0.31769 0.12738 0.0608 0.0387 0.12841 0.0966 0.20978 0.17967 0.0816 0.0833 0.0944 0.10441 0.0942 0.15561-0.00009 0.0316-0.0276 0.0858-0.053 0.10461-0.0427 0.0316-0.0963 0.0395-0.14117 0.0209-0.0141-0.006-0.0599-0.0451-0.10906-0.0932-0.096-0.0942-0.14311-0.13055-0.21262-0.1643-0.095-0.0461-0.17332-0.0643-0.27992-0.0647-0.0412-0.00019-0.0926 0.003-0.11415 0.007-0.0939 0.0185-0.18884 0.0595-0.26421 0.11407-0.0579 0.0419-0.5448 0.52805-0.58294 0.58199-0.11933 0.16878-0.14747 0.38776-0.0753 0.58616 0.0326 0.0899 0.076 0.15166 0.18171 0.25927 0.11344 0.11545 0.15849 0.15082 0.24497 0.1924 0.23459 0.11277 0.50852 0.0727 0.70191-0.1026 0.0483-0.0438 0.0736-0.0559 0.1168-0.0559 0.1042 0.00006 0.17307 0.11065 0.12547 0.20146-0.0307 0.0586-0.1827 0.17234-0.2965 0.22191-0.15999 0.0697-0.34722 0.0952-0.51068 0.0696zm0.89374-0.9227c-0.14349-0.025-0.28827-0.0884-0.40383-0.1768-0.0727-0.0556-0.20431-0.18818-0.22209-0.22368-0.0263-0.0527-0.0205-0.10485 0.017-0.15004 0.0391-0.0472 0.11479-0.064 0.16721-0.037 0.0133 0.007 0.0638 0.0507 0.11212 0.0976 0.12934 0.12529 0.20997 0.17593 0.33329 0.2093 0.0467 0.0127 0.0701 0.0148 0.15613 0.0144 0.0898-0.0004 0.10741-0.002 0.15747-0.0175 0.1556-0.0472 0.1755-0.0624 0.49367-0.37732 0.26193-0.25925 0.31022-0.31235 0.35177-0.38685 0.06-0.10762 0.0864-0.25953 0.0666-0.38304-0.0104-0.0647-0.0466-0.16313-0.082-0.22239-0.0237-0.0399-0.0583-0.0803-0.13621-0.1598-0.11802-0.12026-0.1664-0.15955-0.24135-0.19598-0.11219-0.0545-0.2561-0.077-0.37513-0.0586-0.11694 0.0181-0.23908 0.076-0.32786 0.15554-0.0542 0.0485-0.0767 0.0593-0.1243 0.0593-0.047 0-0.0864-0.0209-0.11296-0.0599-0.0258-0.038-0.0319-0.0759-0.0191-0.11859 0.0183-0.0612 0.14008-0.16255 0.27429-0.22837 0.13388-0.0657 0.25284-0.093 0.40452-0.093 0.2458 0 0.4433 0.0789 0.63607 0.25417 0.14766 0.13423 0.24019 0.24443 0.29353 0.34958 0.0255 0.0502 0.0613 0.15468 0.0759 0.22094 0.0171 0.0781 0.0174 0.2908 0.00029 0.36988-0.0251 0.11716-0.0714 0.2266-0.13999 0.3311-0.029 0.0441-0.0926 0.11155-0.31732 0.33651-0.16578 0.16593-0.30382 0.29848-0.33653 0.32314-0.10571 0.0797-0.25945 0.1456-0.39093 0.16757-0.0761 0.0127-0.23746 0.0127-0.31036 0.00001z" stroke="#05164d" stroke-width=".13229" fill="#05164d"/>
 </g>
</svg>
