<?xml version="1.0" encoding="UTF-8" standalone="no"?>
<!-- Created with Inkscape (http://www.inkscape.org/) -->

<svg
   width="18"
   height="12"
   version="1.1"
   viewBox="0 0 4.7626 3.1749"
   id="svg3"
   sodipodi:docname="lyrmgr_group_expand_active.svg"
   inkscape:version="1.4 (1:1.4+202410161351+e7c3feb100)"
   xmlns:inkscape="http://www.inkscape.org/namespaces/inkscape"
   xmlns:sodipodi="http://sodipodi.sourceforge.net/DTD/sodipodi-0.dtd"
   xmlns="http://www.w3.org/2000/svg"
   xmlns:svg="http://www.w3.org/2000/svg">
  <defs
     id="defs3" />
  <sodipodi:namedview
     id="namedview3"
     pagecolor="#ffffff"
     bordercolor="#000000"
     borderopacity="0.25"
     inkscape:showpageshadow="2"
     inkscape:pageopacity="0.0"
     inkscape:pagecheckerboard="0"
     inkscape:deskcolor="#d1d1d1"
     inkscape:zoom="155.83333"
     inkscape:cx="9"
     inkscape:cy="6"
     inkscape:window-width="3840"
     inkscape:window-height="2075"
     inkscape:window-x="0"
     inkscape:window-y="0"
     inkscape:window-maximized="1"
     inkscape:current-layer="svg3" />
  <g
     transform="matrix(1.115,0,0,1.115,-145.89,-138.1)"
     id="g3"
     style="fill:#003e51;fill-opacity:1">
    <g
       transform="matrix(.082778 0 0 .077938 119.39 114.2)"
       fill="#333"
       stroke="#fff"
       stroke-width=".026458"
       id="g2"
       style="fill:#003e51;fill-opacity:1">
      <path
         d="m176.88 125.76-7.0466 7.0466c-0.57306 0.57306-0.57306 1.4961 0 2.0691l1.4061 1.4061c0.57306 0.57306 1.4961 0.57306 2.0691 0l3.1766-3.1766v24.127c0 0.97793 0.78734 1.7648 1.7653 1.7648h1.3741c0.97793 0 1.7648-0.78682 1.7648-1.7648v-24.127l3.1771 3.1771c0.57306 0.57306 1.4956 0.57306 2.0686 0l1.4061-1.4061c0.57306-0.57307 0.57306-1.4961 0-2.0691l-7.0466-7.0466c-1.0223-0.92072-3.0903-0.90573-4.1145 0z"
         stop-color="#000000"
         style="paint-order:stroke fill markers;fill:#003e51;fill-opacity:1"
         id="path1" />
      <path
         d="m140.02 125.52h21.974c0.73555 0 1.3277 0.59215 1.3277 1.3277v1.8498c0 0.73555-0.59216 1.3277-1.3277 1.3277h-21.974c-0.73554 0-1.3277-0.59215-1.3277-1.3277v-1.8498c0-0.73555 0.59216-1.3277 1.3277-1.3277zm0 14.029h21.974c0.73555 0 1.3277 0.59215 1.3277 1.3277v1.8498c0 0.73555-0.59216 1.3277-1.3277 1.3277h-21.974c-0.73554 0-1.3277-0.59215-1.3277-1.3277v-1.8498c0-0.73555 0.59216-1.3277 1.3277-1.3277zm0 14.019h21.974c0.73555 0 1.3277 0.59215 1.3277 1.3277v1.8498c0 0.73555-0.59216 1.3277-1.3277 1.3277h-21.974c-0.73554 0-1.3277-0.59215-1.3277-1.3277v-1.8498c0-0.73555 0.59216-1.3277 1.3277-1.3277z"
         stop-color="#000000"
         stroke-width=".026703"
         style="paint-order:stroke fill markers;fill:#003e51;fill-opacity:1"
         id="path2" />
    </g>
  </g>
</svg>
