<svg width="32px" height="32px" enable-background="new 0 0 32 32" version="1.1" viewBox="0 0 32 32" xml:space="preserve" xmlns="http://www.w3.org/2000/svg">

	
	<polygon transform="translate(0 -10.981)" points="1.6 32 3.607 32 28.395 32 29.939 32 30.4 32 30.4 24.32 28.395 24.32 28.395 30.047 25.934 30.047 25.934 25.976 23.928 25.976 23.928 30.047 21.469 30.047 21.469 25.976 19.465 25.976 19.465 30.047 17.004 30.047 17.004 24.32 14.998 24.32 14.998 30.047 12.537 30.047 12.537 25.976 10.531 25.976 10.531 30.047 8.072 30.047 8.072 25.976 6.066 25.976 6.066 30.047 3.607 30.047 3.607 24.32 1.6 24.32" fill="#d6dde5" style="fill:#fff"/>

</svg>
