<svg xmlns="http://www.w3.org/2000/svg" width="48" height="48" viewBox="0 0 48 48.000001">
    <g transform="translate(0 -1004.362)">
        <rect width="48" height="48" y="1004.362" rx="0" ry="0" fill="#f9f9f9" fill-rule="evenodd"/>
        <g transform="matrix(.919 0 0 .91878 57.59 82.44)">
            <path d="M-50.663 1011.05h17.114l8.616 8.8v24.906a3.406 3.406 0 0 1-3.41 3.418h-22.32a3.406 3.406 0 0 1-3.41-3.418v-30.289a3.406 3.406 0 0 1 3.41-3.417z" style="isolation:auto;mix-blend-mode:normal" color="#000" overflow="visible" fill="#fff" stroke="#becbd0" stroke-width="2.177" stroke-linecap="round" stroke-linejoin="round"/>
            <path d="M-33.561 1011.477v9.116h8.344l-8.344-9.035v.04" fill="#fff" fill-rule="evenodd" stroke="#becbd0" stroke-width="1.088"/>
            <rect rx="1.592" ry="1.698" y="1028.691" x="-44.052" height="12.632" width="29.297" style="isolation:auto;mix-blend-mode:normal" color="#000" overflow="visible" fill="#becbd0"/>
            <g style="line-height:125%;-inkscape-font-specification:'sans-serif Bold';text-align:start" font-weight="700" font-size="20" font-family="sans-serif" letter-spacing="0" word-spacing="0" fill="#fff">
                <path d="M-39.256 1031.242h3.076q1.372 0 2.103.656.737.65.737 1.857 0 1.213-.737 1.868-.731.65-2.103.65h-1.223v2.673h-1.853v-7.704zm1.853 1.44v2.152h1.026q.539 0 .832-.28.294-.283.294-.799t-.294-.794q-.293-.28-.832-.28h-1.026zM-30.183 1032.744v4.7h.664q1.136 0 1.733-.603.602-.604.602-1.755 0-1.145-.597-1.744-.597-.598-1.738-.598h-.664zm-1.853-1.502h1.954q1.637 0 2.436.253.803.248 1.376.846.506.521.751 1.203.246.68.246 1.542 0 .872-.246 1.559-.245.68-.75 1.202-.578.599-1.387.851-.809.248-2.426.248h-1.954v-7.704zM-23.854 1031.242h5.001v1.502H-22v1.434h2.96v1.502H-22v3.266h-1.853v-7.704z"/>
            </g>
        </g>
    </g>
</svg>
