<?xml version="1.0" encoding="UTF-8" standalone="no"?>
<!-- Created with Inkscape (http://www.inkscape.org/) -->

<svg
   xmlns:dc="http://purl.org/dc/elements/1.1/"
   xmlns:cc="http://creativecommons.org/ns#"
   xmlns:rdf="http://www.w3.org/1999/02/22-rdf-syntax-ns#"
   xmlns:svg="http://www.w3.org/2000/svg"
   xmlns="http://www.w3.org/2000/svg"
   xmlns:sodipodi="http://sodipodi.sourceforge.net/DTD/sodipodi-0.dtd"
   xmlns:inkscape="http://www.inkscape.org/namespaces/inkscape"
   height="5.2917mm"
   width="5.2917mm"
   version="1.1"
   viewBox="0 0 5.2916665 5.2916665"
   id="svg14"
   sodipodi:docname="pdfrotminus.svg"
   inkscape:version="0.92.3 (unknown)">
  <defs
     id="defs18" />
  <sodipodi:namedview
     pagecolor="#ffffff"
     bordercolor="#666666"
     borderopacity="1"
     objecttolerance="10"
     gridtolerance="10"
     guidetolerance="10"
     inkscape:pageopacity="0"
     inkscape:pageshadow="2"
     inkscape:window-width="926"
     inkscape:window-height="480"
     id="namedview16"
     showgrid="false"
     inkscape:zoom="11.799926"
     inkscape:cx="10.000063"
     inkscape:cy="10.000063"
     inkscape:window-x="0"
     inkscape:window-y="24"
     inkscape:window-maximized="0"
     inkscape:current-layer="g10" />
  <metadata
     id="metadata2">
    <rdf:RDF>
      <cc:Work
         rdf:about="">
        <dc:format>image/svg+xml</dc:format>
        <dc:type
           rdf:resource="http://purl.org/dc/dcmitype/StillImage" />
        <dc:title />
      </cc:Work>
    </rdf:RDF>
  </metadata>
  <g
     transform="translate(-1.077 -229.42)"
     id="g12">
    <g
       transform="matrix(-1 0 0 1 .32102 4.422)"
       id="g10">
      <rect
         style="color-rendering:auto;color:#000000;isolation:auto;mix-blend-mode:normal;paint-order:markers fill stroke;shape-rendering:auto;solid-color:#000000;image-rendering:auto;fill:#ffffff"
         fill-rule="evenodd"
         height="5.2917"
         width="5.2917"
         y="225"
         x="-6.0476"
         fill="#f5f5f5"
         id="rect4" />
      <path
         d="m-4.8272 229.13c-0.57017-0.53839-1.0335-0.99012-1.0297-1.0038 0.014731-0.0524 1.5148-1.6265 1.5416-1.6175 0.056165 0.0187 2.0662 1.9216 2.0613 1.9515-0.00388 0.0238-1.52 1.6554-1.5334 1.6501-0.00182-0.00073-0.46973-0.44179-1.0399-0.98018zm1.8322 0.87207c-0.00889-0.0602-0.023077-0.15721-0.031628-0.21564l-0.015541-0.10626 0.20135-0.0448c0.11075-0.0246 0.27976-0.0819 0.37561-0.12721 0.095843-0.0453 0.18236-0.0727 0.19227-0.0609 0.047386 0.0566 0.21915 0.31062 0.21915 0.32418 0 0.0519-0.75646 0.34004-0.89278 0.34004-0.017787 0-0.039575-0.0493-0.048412-0.10934zm1.2399-0.62223c-0.21734-0.23381-0.21188-0.20465-0.068855-0.36803 0.06971-0.0796 0.16651-0.22166 0.21513-0.31563 0.048617-0.094 0.10138-0.17088 0.11725-0.17094 0.015871-0.00006 0.11087 0.0276 0.21111 0.0614l0.18225 0.0616-0.12906 0.24039c-0.11662 0.21723-0.38015 0.59162-0.41753 0.59318-0.00821 0.00031-0.057864-0.0455-0.1103-0.10193zm0.5122-1.2449-0.18742-0.0271 0.017639-0.1674c0.014298-0.13567-0.00844-0.42813-0.04604-0.59377-0.00821-0.036 0.3274-0.17037 0.37745-0.15117 0.032712 0.0125 0.072732 0.21337 0.10874 0.54564 0.020991 0.19368-0.007525 0.42992-0.051319 0.42478-0.017388-0.002-0.11596-0.016-0.21904-0.0309zm-0.53411-1.3697c-0.25042-0.32458-0.70172-0.6147-1.0631-0.6834l-0.088888-0.0169v0.46051l-0.40342-0.23914c-0.22188-0.13154-0.46888-0.28329-0.54888-0.33725l-0.14545-0.0981 0.20016-0.12398c0.11008-0.0682 0.35708-0.21656 0.54888-0.32968l0.34872-0.20568v0.40486l0.11624 0.0299c0.43471 0.11173 0.62732 0.19567 0.90941 0.39617 0.18637 0.13248 0.42636 0.37686 0.55499 0.56516l0.087144 0.12758-0.17842 0.0981c-0.098135 0.0539-0.18881 0.0981-0.2015 0.0981s-0.073838-0.0658-0.13588-0.14621z"
         fill="#212121"
         id="path6" />
      <path
         d="m-5.5338 228.15 1.2343-1.2875 1.6891 1.5828-1.2225 1.3524z"
         fill-rule="evenodd"
         fill="#bdbdbd"
         id="path8" />
    </g>
  </g>
</svg>
