<?xml version="1.0" encoding="UTF-8"?>
<!-- Created with Inkscape (http://www.inkscape.org/) -->
<svg width="40" height="40" version="1.1" viewBox="0 0 10.583 10.583" xmlns="http://www.w3.org/2000/svg" xmlns:cc="http://creativecommons.org/ns#" xmlns:dc="http://purl.org/dc/elements/1.1/" xmlns:rdf="http://www.w3.org/1999/02/22-rdf-syntax-ns#">
 <metadata>
  <rdf:RDF>
   <cc:Work rdf:about="">
    <dc:format>image/svg+xml</dc:format>
    <dc:type rdf:resource="http://purl.org/dc/dcmitype/StillImage"/>
   </cc:Work>
  </rdf:RDF>
 </metadata>
 <g transform="translate(0 -286.42)" fill="#fff" stroke="#fff" stroke-width=".79372">
  <g transform="matrix(.35278 0 0 -.35278 9.7919 290.71)" fill="#fff" stroke="#fff" stroke-width="2.2499">
   <path d="m0 0h-9.922v9.921c0 0.78-0.638 1.418-1.417 1.418h-2.836c-0.779 0-1.417-0.638-1.417-1.418v-9.921h-9.921c-0.779 0-1.417-0.638-1.417-1.417v-2.835c0-0.78 0.638-1.418 1.417-1.418h9.921v-9.921c0-0.779 0.638-1.417 1.417-1.417h2.836c0.779 0 1.417 0.638 1.417 1.417v9.921h9.922c0.779 0 1.417 0.638 1.417 1.418v2.835c0 0.779-0.638 1.417-1.417 1.417" fill="#fff" stroke="#fff" stroke-width="2.2499"/>
  </g>
 </g>
</svg>
