<?xml version="1.0" encoding="UTF-8" standalone="no"?>
<!-- Created with Inkscape (http://www.inkscape.org/) -->

<svg
   width="100mm"
   height="100mm"
   viewBox="0 0 100 100"
   version="1.1"
   id="svg1"
   xml:space="preserve"
   inkscape:version="1.4 (1:1.4+202410161351+e7c3feb100)"
   sodipodi:docname="printer.svg"
   xmlns:inkscape="http://www.inkscape.org/namespaces/inkscape"
   xmlns:sodipodi="http://sodipodi.sourceforge.net/DTD/sodipodi-0.dtd"
   xmlns="http://www.w3.org/2000/svg"
   xmlns:svg="http://www.w3.org/2000/svg"><sodipodi:namedview
     id="namedview1"
     pagecolor="#ffffff"
     bordercolor="#000000"
     borderopacity="0.25"
     inkscape:showpageshadow="2"
     inkscape:pageopacity="0.0"
     inkscape:pagecheckerboard="0"
     inkscape:deskcolor="#d1d1d1"
     inkscape:document-units="mm"
     inkscape:zoom="1.6658951"
     inkscape:cx="193.28949"
     inkscape:cy="261.72117"
     inkscape:window-width="3840"
     inkscape:window-height="2075"
     inkscape:window-x="0"
     inkscape:window-y="0"
     inkscape:window-maximized="1"
     inkscape:current-layer="layer1" /><defs
     id="defs1" /><g
     inkscape:label="Layer 1"
     inkscape:groupmode="layer"
     id="layer1"
     transform="translate(-53.900282,-66.583064)"><path
       style="fill:#000000;stroke-width:1.0096"
       d="m 75.893263,166.30206 c -1.560787,-0.30326 -3.721682,-1.74641 -4.692307,-3.13376 -1.320478,-1.88738 -1.499251,-3.17387 -1.499616,-10.79158 l -3.32e-4,-6.92073 h -4.897933 c -4.825635,0 -4.920613,-0.0111 -6.434311,-0.7473 -1.607398,-0.78185 -3.057172,-2.22608 -3.881502,-3.86666 -0.456404,-0.90833 -0.49197,-2.35013 -0.568217,-23.03488 -0.04474,-12.13625 -0.0067,-22.687506 0.08459,-23.447238 0.244756,-2.037481 1.762066,-4.209916 3.770134,-5.397946 l 1.572757,-0.930498 5.110471,-0.132925 5.110472,-0.132926 0.158366,-7.443916 c 0.0871,-4.094162 0.257113,-7.743006 0.377801,-8.108554 0.346447,-1.049356 1.650727,-2.808285 2.750439,-3.709202 2.032101,-1.664768 0.936962,-1.608529 31.184175,-1.601385 17.48906,0.004 27.95641,0.104067 28.70062,0.27403 2.57572,0.588252 4.88314,2.992516 5.55894,5.79226 0.25366,1.050854 0.36593,3.519244 0.37262,8.191972 l 0.009,6.687912 5.03246,0.09536 c 4.16919,0.07908 5.20028,0.177439 6.01073,0.573633 1.65044,0.806847 3.11294,2.245756 3.90365,3.84069 l 0.75445,1.521815 0.0747,21.899098 c 0.0481,14.10853 -0.023,22.42224 -0.19982,23.36962 -0.57691,3.09125 -3.11107,5.56965 -6.31634,6.17736 -0.91449,0.17339 -3.26334,0.26737 -5.43545,0.21749 l -3.82505,-0.0878 3.8e-4,6.56681 c 2.2e-4,3.7025 -0.12724,7.1813 -0.2922,7.97563 -0.65407,3.14944 -3.08099,5.65055 -6.1066,6.29329 -1.7084,0.36291 -54.523124,0.3726 -56.387548,0.0104 z m 56.408027,-5.80341 0.87653,-0.77567 0.0811,-21.35669 c 0.055,-14.47834 -0.0104,-21.66834 -0.2032,-22.32432 -0.15902,-0.54126 -0.60865,-1.18552 -1.02047,-1.46219 -0.70326,-0.47247 -1.90671,-0.49813 -26.90501,-0.57366 -14.392846,-0.0435 -26.701761,-0.003 -27.353141,0.0892 -0.789813,0.11223 -1.438011,0.41958 -1.945886,0.92264 l -0.761559,0.75434 0.0095,21.75404 c 0.0102,23.33085 -0.03169,22.61178 1.362023,23.37694 0.520268,0.28563 5.774678,0.35394 27.812523,0.36157 l 27.17107,0.009 z M 84.548037,153.1782 c -1.249991,-0.54256 -1.839075,-1.81046 -1.445582,-3.11138 0.575984,-1.90424 -0.414473,-1.81936 21.229895,-1.81936 h 19.35863 l 0.78455,0.77711 c 1.07108,1.06093 1.07161,2.35234 10e-4,3.53883 l -0.78309,0.86822 -19.14547,0.0588 c -15.892166,0.0488 -19.290738,-0.004 -20.000389,-0.31225 z m -0.410233,-13.31923 c -1.063266,-0.57163 -1.490598,-2.1434 -0.893629,-3.28687 0.863698,-1.65438 0.384714,-1.61735 20.920555,-1.61735 10.96917,0 18.91763,0.10274 19.30751,0.24957 1.90333,0.71678 2.41256,2.89448 1.00329,4.2904 l -0.78455,0.77712 -19.41241,-0.0107 c -16.573753,-0.009 -19.518912,-0.0679 -20.140766,-0.40221 z m 0.459963,-12.86532 c -0.994361,-0.40313 -1.598188,-1.33092 -1.598188,-2.45566 0,-0.87186 0.161836,-1.21262 0.876155,-1.84481 l 0.876154,-0.77543 19.606422,0.0715 19.60641,0.0716 0.64768,0.74592 c 0.69447,0.79982 0.86263,2.21438 0.37133,3.12369 -0.7194,1.33145 -0.46744,1.31577 -20.84667,1.29769 -10.451374,-0.009 -19.244055,-0.11478 -19.539293,-0.23447 z m -14.896095,1.48395 c 0,-6.65219 0.116358,-12.66782 0.259489,-13.41538 0.51385,-2.68385 3.16756,-5.43164 5.717708,-5.92042 1.688554,-0.32364 55.633401,-0.28605 57.060001,0.0398 1.57371,0.3594 3.32734,1.5981 4.35307,3.07482 1.48295,2.13495 1.56799,3.00716 1.57811,16.18493 l 0.009,11.96344 4.09345,-0.0752 c 2.25139,-0.0413 4.43129,-0.20773 4.84419,-0.36976 1.58303,-0.62117 1.53064,0.17249 1.53064,-23.18558 0,-12.95492 -0.10114,-21.660736 -0.25642,-22.065199 -0.14103,-0.367417 -0.56397,-0.867648 -0.93988,-1.111614 -0.63104,-0.409558 -3.99413,-0.443581 -43.84877,-0.443581 -46.505848,0 -43.8867,-0.08079 -44.647895,1.376732 -0.464612,0.889613 -0.668131,41.967432 -0.216165,43.629992 0.468672,1.72402 1.096624,1.95596 5.752842,2.12487 2.221699,0.0806 4.190428,0.17033 4.374952,0.19939 0.264252,0.0416 0.335497,-2.50821 0.335497,-12.00723 z M 133.24698,81.119264 c 0.079,-7.590075 -0.0524,-8.229723 -1.81374,-8.824647 -1.23838,-0.41831 -52.763792,-0.485551 -54.271311,-0.07084 -0.546857,0.150439 -1.241338,0.584625 -1.54329,0.964853 -0.521549,0.65676 -0.549004,1.041921 -0.549004,7.701809 v 7.010464 l 29.054095,-0.06762 29.05409,-0.06762 z"
       id="path1" /></g></svg>
