<?xml version="1.0" encoding="UTF-8" standalone="no"?>
<!-- Created with Inkscape (http://www.inkscape.org/) -->
<svg xmlns:rdf="http://www.w3.org/1999/02/22-rdf-syntax-ns#" xmlns="http://www.w3.org/2000/svg" height="32.593mm" width="32.593mm" version="1.1" xmlns:cc="http://creativecommons.org/ns#" xmlns:dc="http://purl.org/dc/elements/1.1/" viewBox="0 0 32.593452 32.593452">
 <defs>
  <filter id="filter872" style="color-interpolation-filters:sRGB" height="1.048" width="1.048" y="-.024" x="-.024">
   <feGaussianBlur stdDeviation="0.29399731"/>
  </filter>
 </defs>
 <metadata>
  <rdf:RDF>
   <cc:Work rdf:about="">
    <dc:format>image/svg+xml</dc:format>
    <dc:type rdf:resource="http://purl.org/dc/dcmitype/StillImage"/>
    <dc:title/>
   </cc:Work>
  </rdf:RDF>
 </metadata>
 <g transform="translate(-126.96 -176.1)">
  <circle stroke-linejoin="round" style="color-rendering:auto;color:#000000;isolation:auto;mix-blend-mode:normal;paint-order:markers fill stroke;shape-rendering:auto;solid-color:#000000;image-rendering:auto" cx="104.23" stroke-linecap="round" transform="matrix(1.0579 0 0 1.0579 32.996 43.898)" stroke="#424242" filter="url(#filter872)" cy="140.38" r="14.7" stroke-width="1.1608" fill="none"/>
  <circle stroke-linejoin="round" style="color-rendering:auto;color:#000000;isolation:auto;mix-blend-mode:normal;paint-order:markers fill stroke;shape-rendering:auto;solid-color:#000000;image-rendering:auto" cx="143.19" stroke-linecap="round" stroke="#424242" cy="192.34" r="14.7" stroke-width="2.3283" fill="none"/>
  <path d="m143.2 180.32s-3.1291 7.3068-4.2096 10.941c-0.56566 1.9026 0.117 5.6294 4.2096 5.596 4.0926 0.0334 4.7752-3.6934 4.2096-5.596-1.0804-3.6341-4.2096-10.941-4.2096-10.941zm-0.0165 9.6216a2.4054 2.4054 0 0 1 2.405 2.4055 2.4054 2.4054 0 0 1 -2.405 2.405 2.4054 2.4054 0 0 1 -2.4055 -2.405 2.4054 2.4054 0 0 1 2.4055 -2.4055z" fill-rule="evenodd" fill="#cd0119"/>
 </g>
</svg>
