<?xml version="1.0" encoding="UTF-8" standalone="no"?>
<!-- Created with Inkscape (http://www.inkscape.org/) -->

<svg
   xmlns:dc="http://purl.org/dc/elements/1.1/"
   xmlns:cc="http://creativecommons.org/ns#"
   xmlns:rdf="http://www.w3.org/1999/02/22-rdf-syntax-ns#"
   xmlns:svg="http://www.w3.org/2000/svg"
   xmlns="http://www.w3.org/2000/svg"
   xmlns:sodipodi="http://sodipodi.sourceforge.net/DTD/sodipodi-0.dtd"
   xmlns:inkscape="http://www.inkscape.org/namespaces/inkscape"
   width="48"
   height="48"
   viewBox="0 0 48 48.000001"
   id="svg25621"
   version="1.1"
   inkscape:version="0.92.1 unknown"
   sodipodi:docname="pdf_active.svg">
  <defs
     id="defs25623" />
  <sodipodi:namedview
     id="base"
     pagecolor="#ffffff"
     bordercolor="#666666"
     borderopacity="1.0"
     inkscape:pageopacity="0.0"
     inkscape:pageshadow="2"
     inkscape:zoom="11.313708"
     inkscape:cx="-15.175367"
     inkscape:cy="22.858418"
     inkscape:document-units="px"
     inkscape:current-layer="layer1"
     showgrid="false"
     units="px"
     inkscape:window-width="2560"
     inkscape:window-height="1353"
     inkscape:window-x="0"
     inkscape:window-y="24"
     inkscape:window-maximized="1"
     showguides="true"
     inkscape:guide-bbox="true">
    <sodipodi:guide
       position="-97.603956,34.339185"
       orientation="1,0"
       id="guide22103"
       inkscape:locked="false" />
    <sodipodi:guide
       position="-93.782594,35.931419"
       orientation="0,1"
       id="guide22105"
       inkscape:locked="false" />
  </sodipodi:namedview>
  <metadata
     id="metadata25626">
    <rdf:RDF>
      <cc:Work
         rdf:about="">
        <dc:format>image/svg+xml</dc:format>
        <dc:type
           rdf:resource="http://purl.org/dc/dcmitype/StillImage" />
        <dc:title></dc:title>
      </cc:Work>
    </rdf:RDF>
  </metadata>
  <g
     inkscape:label="Layer 1"
     inkscape:groupmode="layer"
     id="layer1"
     transform="translate(0,-1004.3622)">
    <rect
       style="fill:#777767;fill-rule:evenodd;stroke:none;stroke-width:1px;stroke-linecap:butt;stroke-linejoin:miter;stroke-opacity:1;fill-opacity:1"
       id="rect13464"
       width="48"
       height="48"
       x="0"
       y="1004.3622" />
    <g
       id="g22123"
       transform="matrix(0.91900748,0,0,0.91877573,57.590159,82.440248)">
      <path
         sodipodi:nodetypes="sccssssss"
         inkscape:connector-curvature="0"
         id="rect22101"
         d="m -50.662737,1011.0501 17.113997,0 8.616111,8.799 0,24.9073 c 0,1.8932 -1.520867,3.4173 -3.410014,3.4173 l -22.320094,0 c -1.88915,0 -3.41002,-1.5241 -3.41002,-3.4173 l 0,-30.2891 c 0,-1.8931 1.52087,-3.4172 3.41002,-3.4172 z"
         style="color:#000000;clip-rule:nonzero;display:inline;overflow:visible;visibility:visible;opacity:1;isolation:auto;mix-blend-mode:normal;color-interpolation:sRGB;color-interpolation-filters:linearRGB;solid-color:#000000;solid-opacity:1;fill:#ffffff;fill-opacity:1;fill-rule:nonzero;stroke:#666666;stroke-width:2.17653537;stroke-linecap:round;stroke-linejoin:round;stroke-miterlimit:4;stroke-dasharray:none;stroke-dashoffset:0;stroke-opacity:1;color-rendering:auto;image-rendering:auto;shape-rendering:auto;text-rendering:auto;enable-background:accumulate" />
      <path
         inkscape:connector-curvature="0"
         id="path22107"
         d="m -33.561135,1011.4768 0,9.1159 8.344338,0 -8.344338,-9.0352 0,0.04"
         style="fill:#ffffff;fill-opacity:1;fill-rule:evenodd;stroke:#666666;stroke-width:1.08826768px;stroke-linecap:butt;stroke-linejoin:miter;stroke-opacity:1" />
      <rect
         rx="1.5922341"
         ry="1.6983618"
         y="1028.691"
         x="-44.051811"
         height="12.631724"
         width="29.29711"
         id="rect22121"
         style="color:#000000;clip-rule:nonzero;display:inline;overflow:visible;visibility:visible;opacity:1;isolation:auto;mix-blend-mode:normal;color-interpolation:sRGB;color-interpolation-filters:linearRGB;solid-color:#000000;solid-opacity:1;fill:#fdb40c;fill-opacity:1;fill-rule:nonzero;stroke:none;stroke-width:1.03401931;stroke-linecap:butt;stroke-linejoin:miter;stroke-miterlimit:4;stroke-dasharray:none;stroke-dashoffset:0;stroke-opacity:1;color-rendering:auto;image-rendering:auto;shape-rendering:auto;text-rendering:auto;enable-background:accumulate;filter-blend-mode:normal;filter-gaussianBlur-deviation:0" />
      <g
         transform="matrix(0.49286603,0,0,0.5283793,-10.182779,516.38354)"
         id="text22110"
         style="font-style:normal;font-variant:normal;font-weight:bold;font-stretch:normal;font-size:20px;line-height:125%;font-family:sans-serif;-inkscape-font-specification:'sans-serif Bold';text-align:start;letter-spacing:0px;word-spacing:0px;writing-mode:lr-tb;text-anchor:start;fill:#ffffff;fill-opacity:1;stroke:none;stroke-width:1px;stroke-linecap:butt;stroke-linejoin:miter;stroke-opacity:1">
        <path
           inkscape:connector-curvature="0"
           id="path22115"
           d="m -58.987408,974.41119 6.240235,0 q 2.783203,0 4.267578,1.24024 1.49414,1.23047 1.49414,3.51562 0,2.29493 -1.49414,3.53516 -1.484375,1.23047 -4.267578,1.23047 l -2.480469,0 0,5.05859 -3.759766,0 0,-14.58008 z m 3.759766,2.72461 0,4.07227 2.080078,0 q 1.09375,0 1.689453,-0.52734 0.595703,-0.53711 0.595703,-1.51368 0,-0.97656 -0.595703,-1.5039 -0.595703,-0.52735 -1.689453,-0.52735 l -2.080078,0 z"
           style="fill:#ffffff" />
        <path
           inkscape:connector-curvature="0"
           id="path22117"
           d="m -40.579205,977.25299 0,8.89649 1.347657,0 q 2.304687,0 3.515625,-1.14258 1.220703,-1.14258 1.220703,-3.32032 0,-2.16796 -1.210938,-3.30078 -1.210937,-1.13281 -3.52539,-1.13281 l -1.347657,0 z m -3.759765,-2.8418 3.964844,0 q 3.320312,0 4.941406,0.47852 1.630859,0.46875 2.792969,1.60156 1.02539,0.98633 1.523437,2.27539 0.498047,1.28907 0.498047,2.91992 0,1.6504 -0.498047,2.94922 -0.498047,1.28907 -1.523437,2.27539 -1.171875,1.13282 -2.8125,1.61133 -1.640625,0.46875 -4.921875,0.46875 l -3.964844,0 0,-14.58008 z"
           style="fill:#ffffff" />
        <path
           inkscape:connector-curvature="0"
           id="path22119"
           d="m -27.737408,974.41119 10.146485,0 0,2.8418 -6.386719,0 0,2.71484 6.005859,0 0,2.8418 -6.005859,0 0,6.18164 -3.759766,0 0,-14.58008 z"
           style="fill:#ffffff" />
      </g>
    </g>
  </g>
</svg>
