<?xml version="1.0" encoding="UTF-8" standalone="no"?>
<!-- Created with Inkscape (http://www.inkscape.org/) -->

<svg
   xmlns:dc="http://purl.org/dc/elements/1.1/"
   xmlns:cc="http://creativecommons.org/ns#"
   xmlns:rdf="http://www.w3.org/1999/02/22-rdf-syntax-ns#"
   xmlns:svg="http://www.w3.org/2000/svg"
   xmlns="http://www.w3.org/2000/svg"
   xmlns:sodipodi="http://sodipodi.sourceforge.net/DTD/sodipodi-0.dtd"
   xmlns:inkscape="http://www.inkscape.org/namespaces/inkscape"
   width="48"
   height="48"
   viewBox="0 0 48 48.000001"
   id="svg25621"
   version="1.1"
   inkscape:version="0.91 r"
   sodipodi:docname="rl_area_active.svg">
  <defs
     id="defs25623" />
  <sodipodi:namedview
     id="base"
     pagecolor="#ffffff"
     bordercolor="#666666"
     borderopacity="1.0"
     inkscape:pageopacity="0.0"
     inkscape:pageshadow="2"
     inkscape:zoom="11.2"
     inkscape:cx="-22.988516"
     inkscape:cy="33.393742"
     inkscape:document-units="px"
     inkscape:current-layer="layer1"
     showgrid="false"
     units="px"
     inkscape:window-width="2511"
     inkscape:window-height="1416"
     inkscape:window-x="49"
     inkscape:window-y="24"
     inkscape:window-maximized="1" />
  <metadata
     id="metadata25626">
    <rdf:RDF>
      <cc:Work
         rdf:about="">
        <dc:format>image/svg+xml</dc:format>
        <dc:type
           rdf:resource="http://purl.org/dc/dcmitype/StillImage" />
        <dc:title />
      </cc:Work>
    </rdf:RDF>
  </metadata>
  <g
     inkscape:label="Layer 1"
     inkscape:groupmode="layer"
     id="layer1"
     transform="translate(0,-1004.3622)">
    <rect
       style="fill:#777767;fill-rule:evenodd;stroke:none;stroke-width:1px;stroke-linecap:butt;stroke-linejoin:miter;stroke-opacity:1;fill-opacity:1;color:#000000;clip-rule:nonzero;display:inline;overflow:visible;visibility:visible;opacity:1;isolation:auto;mix-blend-mode:normal;color-interpolation:sRGB;color-interpolation-filters:linearRGB;solid-color:#000000;solid-opacity:1;stroke-miterlimit:4;stroke-dasharray:none;stroke-dashoffset:0;filter-blend-mode:normal;filter-gaussianBlur-deviation:0;color-rendering:auto;image-rendering:auto;shape-rendering:auto;text-rendering:auto;enable-background:accumulate"
       id="rect13331"
       width="48"
       height="48"
       x="0"
       y="1004.3622"
       rx="0"
       ry="0" />
    <path
       inkscape:export-ydpi="90"
       inkscape:export-xdpi="90"
       id="path36337-4-2-0-0"
       d="m 10.624014,1020.0028 a 4.1476489,2.8070074 0 0 0 -4.1483118,2.8077 4.1476489,2.8070074 0 0 0 3.6999758,2.7901 l 1.885879,15.0758 a 4.1476489,2.8070074 0 0 0 -3.0346471,2.705 4.1476489,2.8070074 0 0 0 4.1483111,2.8078 4.1476489,2.8070074 0 0 0 4.063744,-2.2523 l 14.458452,-0.9038 a 4.1476489,2.8070074 0 0 0 3.841975,1.7531 4.1476489,2.8070074 0 0 0 4.146706,-2.8078 4.1476489,2.8070074 0 0 0 -2.651731,-2.6135 l 0.764247,-8.4859 a 4.1476489,2.8070074 0 0 0 3.529256,-2.7725 4.1476489,2.8070074 0 0 0 -4.148302,-2.8077 4.1476489,2.8070074 0 0 0 -3.521278,1.3324 l -18.893943,-3.9459 a 4.1476489,2.8070074 0 0 0 -4.140333,-2.6825 z m 3.559562,4.2396 18.852467,3.938 a 4.1476489,2.8070074 0 0 0 3.127183,2.644 l -0.753078,8.3511 a 4.1476489,2.8070074 0 0 0 -3.928127,2.225 l -14.480781,0.9054 a 4.1476489,2.8070074 0 0 0 -3.30269,-1.7065 l -1.890675,-15.0999 a 4.1476489,2.8070074 0 0 0 2.375701,-1.2571 z"
       style="color:#000000;clip-rule:nonzero;display:inline;overflow:visible;visibility:visible;opacity:1;isolation:auto;mix-blend-mode:normal;color-interpolation:sRGB;color-interpolation-filters:linearRGB;solid-color:#000000;solid-opacity:1;fill:#d7d7cb;fill-opacity:1;fill-rule:nonzero;stroke:#666666;stroke-width:6;stroke-linejoin:round;stroke-miterlimit:4;stroke-dasharray:none;stroke-opacity:1;color-rendering:auto;image-rendering:auto;shape-rendering:auto;text-rendering:auto;enable-background:accumulate"
       inkscape:connector-curvature="0" />
    <path
       inkscape:export-ydpi="90"
       inkscape:export-xdpi="90"
       id="path36337-4-2-9-5"
       d="m 10.624014,1020.0028 a 4.1476489,2.8070074 0 0 0 -4.1483118,2.8077 4.1476489,2.8070074 0 0 0 3.6999758,2.7901 l 1.885879,15.0758 a 4.1476489,2.8070074 0 0 0 -3.0346471,2.705 4.1476489,2.8070074 0 0 0 4.1483111,2.8078 4.1476489,2.8070074 0 0 0 4.063744,-2.2523 l 14.458452,-0.9038 a 4.1476489,2.8070074 0 0 0 3.841975,1.7531 4.1476489,2.8070074 0 0 0 4.146706,-2.8078 4.1476489,2.8070074 0 0 0 -2.651731,-2.6135 l 0.764247,-8.4859 a 4.1476489,2.8070074 0 0 0 3.529256,-2.7725 4.1476489,2.8070074 0 0 0 -4.148302,-2.8077 4.1476489,2.8070074 0 0 0 -3.521278,1.3324 l -18.893943,-3.9459 a 4.1476489,2.8070074 0 0 0 -4.140333,-2.6825 z m 3.559562,4.2396 18.852467,3.938 a 4.1476489,2.8070074 0 0 0 3.127183,2.644 l -0.753078,8.3511 a 4.1476489,2.8070074 0 0 0 -3.928127,2.225 l -14.480781,0.9054 a 4.1476489,2.8070074 0 0 0 -3.30269,-1.7065 l -1.890675,-15.0999 a 4.1476489,2.8070074 0 0 0 2.375701,-1.2571 z"
       style="color:#000000;clip-rule:nonzero;display:inline;overflow:visible;visibility:visible;opacity:1;isolation:auto;mix-blend-mode:normal;color-interpolation:sRGB;color-interpolation-filters:linearRGB;solid-color:#000000;solid-opacity:1;fill:#d7d7cb;fill-opacity:1;fill-rule:nonzero;stroke:#ffffff;stroke-width:2;stroke-linejoin:round;stroke-miterlimit:4;stroke-dasharray:none;stroke-opacity:1;color-rendering:auto;image-rendering:auto;shape-rendering:auto;text-rendering:auto;enable-background:accumulate"
       inkscape:connector-curvature="0" />
    <path
       inkscape:export-ydpi="90"
       inkscape:export-xdpi="90"
       inkscape:connector-curvature="0"
       id="path36337-4-2-2"
       d="m 10.624014,1020.0028 a 4.1476489,2.8070073 0 0 0 -4.1483118,2.8077 4.1476489,2.8070073 0 0 0 3.6999758,2.7901 l 1.885879,15.0758 a 4.1476489,2.8070073 0 0 0 -3.0346471,2.705 4.1476489,2.8070073 0 0 0 4.1483111,2.8078 4.1476489,2.8070073 0 0 0 4.063744,-2.2523 l 14.458452,-0.9038 a 4.1476489,2.8070073 0 0 0 3.841975,1.7531 4.1476489,2.8070073 0 0 0 4.146706,-2.8078 4.1476489,2.8070073 0 0 0 -2.651731,-2.6135 l 0.764247,-8.4859 a 4.1476489,2.8070073 0 0 0 3.529255,-2.7725 4.1476489,2.8070073 0 0 0 -4.148301,-2.8077 4.1476489,2.8070073 0 0 0 -3.521278,1.3324 l -18.893943,-3.9459 a 4.1476489,2.8070073 0 0 0 -4.140333,-2.6825 z m 3.559562,4.2397 18.852467,3.9379 a 4.1476489,2.8070073 0 0 0 3.127192,2.644 l -0.753087,8.3511 a 4.1476489,2.8070073 0 0 0 -3.928127,2.225 l -14.480781,0.9054 a 4.1476489,2.8070073 0 0 0 -3.30269,-1.7065 l -1.890675,-15.0999 a 4.1476489,2.8070073 0 0 0 2.375701,-1.257 z"
       style="color:#000000;clip-rule:nonzero;display:inline;overflow:visible;visibility:visible;opacity:1;isolation:auto;mix-blend-mode:normal;color-interpolation:sRGB;color-interpolation-filters:linearRGB;solid-color:#000000;solid-opacity:1;fill:#fdb40c;fill-opacity:1;fill-rule:nonzero;stroke:none;stroke-width:0.83980315;stroke-linejoin:miter;stroke-miterlimit:4;stroke-dasharray:none;stroke-opacity:1;color-rendering:auto;image-rendering:auto;shape-rendering:auto;text-rendering:auto;enable-background:accumulate;stroke-linecap:butt;stroke-dashoffset:0;filter-blend-mode:normal;filter-gaussianBlur-deviation:0" />
    <g
       inkscape:export-ydpi="90"
       inkscape:export-xdpi="90"
       id="g39410-4-6"
       style="display:inline;fill:#fe0000;fill-opacity:1"
       transform="matrix(0.94414343,0,0,0.95619813,-222.15318,669.06322)">
      <path
         style="fill:#fe0000;fill-opacity:1;stroke:#666666;stroke-width:6.31478167;stroke-miterlimit:4;stroke-dasharray:none;stroke-opacity:1"
         d="m 262.44794,380.85287 3.73211,-2.68658 4.07117,-6.51195 c 2.23913,-3.58156 4.04807,-6.61257 4.01989,-6.73556 -0.0658,-0.28698 -5.74102,-3.84472 -6.0277,-3.77868 -0.11868,0.0273 -2.04439,2.97869 -4.27934,6.55853 l -4.06355,6.50882 -0.72921,4.22633 c -0.82512,4.78223 -0.87864,5.2186 -0.63204,5.15277 0.097,-0.0265 1.85597,-1.25607 3.90863,-2.73369 z m -2.08026,-0.56416 c -0.29853,-0.22858 -0.28929,-0.70342 0.056,-2.88304 0.22743,-1.43517 0.52244,-2.63529 0.65574,-2.66692 0.50058,-0.11946 1.59893,0.59231 1.71817,1.11256 0.0952,0.41535 0.2355,0.50346 0.64979,0.40803 0.51938,-0.11964 1.63771,0.56152 1.74749,1.06437 0.0492,0.22547 -3.67811,3.02317 -4.22657,3.17243 -0.13373,0.0366 -0.40404,-0.057 -0.6006,-0.20743 z m 15.45455,-17.88566 c 0.14037,-0.44284 0.12281,-1.17732 -0.0443,-1.90866 -0.4786,-2.08831 -2.19813,-3.16294 -4.27019,-2.66869 -0.5917,0.14126 -1.22836,0.39764 -1.41469,0.56997 -0.97073,0.89767 -1.03829,0.80978 2.18495,2.84245 1.69195,1.06698 3.13021,1.92755 3.19614,1.91236 0.0659,-0.0152 0.22256,-0.35153 0.34807,-0.74743 z"
         id="path36319-7-8-5-7-8-6"
         inkscape:connector-curvature="0"
         inkscape:transform-center-x="-10.287981"
         inkscape:transform-center-y="-15.042343" />
      <path
         style="fill:#fe0000;fill-opacity:1;stroke:#ffffff;stroke-width:3.15739083;stroke-miterlimit:4;stroke-dasharray:none;stroke-opacity:1"
         d="m 262.44794,380.85441 3.73211,-2.68659 4.07117,-6.51195 c 2.23913,-3.58156 4.04807,-6.61257 4.01989,-6.73555 -0.0658,-0.28699 -5.74102,-3.84472 -6.0277,-3.77869 -0.11868,0.0273 -2.04439,2.97869 -4.27934,6.55853 l -4.06355,6.50882 -0.72921,4.22633 c -0.82512,4.78223 -0.87864,5.21861 -0.63204,5.15278 0.097,-0.0265 1.85597,-1.25607 3.90863,-2.73369 z m -2.08026,-0.56417 c -0.29853,-0.22858 -0.28929,-0.70341 0.056,-2.88303 0.22743,-1.43517 0.52244,-2.63529 0.65574,-2.66693 0.50058,-0.11946 1.59893,0.59231 1.71817,1.11257 0.0952,0.41534 0.2355,0.50345 0.64979,0.40802 0.51938,-0.11963 1.63771,0.56153 1.74749,1.06437 0.0492,0.22547 -3.67811,3.02317 -4.22657,3.17244 -0.13373,0.0366 -0.40404,-0.057 -0.6006,-0.20744 z m 15.45455,-17.88566 c 0.14037,-0.44283 0.12281,-1.17731 -0.0443,-1.90866 -0.4786,-2.0883 -2.19813,-3.16293 -4.27019,-2.66869 -0.5917,0.14127 -1.22836,0.39764 -1.41469,0.56997 -0.97073,0.89768 -1.03829,0.80979 2.18495,2.84245 1.69195,1.06698 3.13021,1.92755 3.19614,1.91236 0.0659,-0.0152 0.22256,-0.35153 0.34807,-0.74743 z"
         id="path36319-7-8-5-1-3"
         inkscape:connector-curvature="0"
         inkscape:transform-center-x="-10.287981"
         inkscape:transform-center-y="-15.042343" />
      <path
         style="fill:#fdb40c;fill-opacity:1;color:#000000;clip-rule:nonzero;display:inline;overflow:visible;visibility:visible;opacity:1;isolation:auto;mix-blend-mode:normal;color-interpolation:sRGB;color-interpolation-filters:linearRGB;solid-color:#000000;solid-opacity:1;fill-rule:nonzero;stroke-width:0.88386221;stroke-linecap:butt;stroke-linejoin:miter;stroke-miterlimit:4;stroke-dasharray:none;stroke-dashoffset:0;stroke-opacity:1;filter-blend-mode:normal;filter-gaussianBlur-deviation:0;color-rendering:auto;image-rendering:auto;shape-rendering:auto;text-rendering:auto;enable-background:accumulate"
         d="m 262.44794,380.85595 3.73211,-2.68658 4.07117,-6.51195 c 2.23913,-3.58156 4.04807,-6.61257 4.01989,-6.73555 -0.0658,-0.28699 -5.74102,-3.84472 -6.0277,-3.77869 -0.11868,0.0273 -2.04439,2.97869 -4.27934,6.55853 l -4.06355,6.50882 -0.72921,4.22633 c -0.82512,4.78223 -0.87864,5.2186 -0.63204,5.15277 0.097,-0.0265 1.85597,-1.25606 3.90863,-2.73368 z m -2.08026,-0.56416 c -0.29853,-0.22858 -0.28929,-0.70342 0.056,-2.88304 0.22743,-1.43516 0.52244,-2.63529 0.65574,-2.66692 0.50058,-0.11946 1.59893,0.59231 1.71817,1.11257 0.0952,0.41534 0.2355,0.50345 0.64979,0.40802 0.51938,-0.11963 1.63771,0.56152 1.74749,1.06437 0.0492,0.22547 -3.67811,3.02317 -4.22657,3.17243 -0.13373,0.0366 -0.40404,-0.057 -0.6006,-0.20743 z m 15.45455,-17.88566 c 0.14037,-0.44283 0.12281,-1.17731 -0.0443,-1.90866 -0.4786,-2.0883 -2.19813,-3.16293 -4.27019,-2.66869 -0.5917,0.14126 -1.22836,0.39764 -1.41469,0.56997 -0.97073,0.89767 -1.03829,0.80979 2.18495,2.84245 1.69195,1.06698 3.13021,1.92755 3.19614,1.91236 0.0659,-0.0152 0.22256,-0.35153 0.34807,-0.74743 z"
         id="path36319-7-8-7-3"
         inkscape:connector-curvature="0"
         inkscape:transform-center-x="-10.287981"
         inkscape:transform-center-y="-15.042343" />
    </g>
  </g>
</svg>
