<?xml version="1.0" encoding="UTF-8" standalone="no"?>
<!-- Created with Inkscape (http://www.inkscape.org/) -->

<svg
   xmlns:dc="http://purl.org/dc/elements/1.1/"
   xmlns:cc="http://creativecommons.org/ns#"
   xmlns:rdf="http://www.w3.org/1999/02/22-rdf-syntax-ns#"
   xmlns:svg="http://www.w3.org/2000/svg"
   xmlns="http://www.w3.org/2000/svg"
   xmlns:sodipodi="http://sodipodi.sourceforge.net/DTD/sodipodi-0.dtd"
   xmlns:inkscape="http://www.inkscape.org/namespaces/inkscape"
   width="48"
   height="48"
   viewBox="0 0 48 48.000001"
   id="svg25621"
   version="1.1"
   inkscape:version="0.91 r"
   sodipodi:docname="rl_line_active.svg">
  <defs
     id="defs25623" />
  <sodipodi:namedview
     id="base"
     pagecolor="#ffffff"
     bordercolor="#666666"
     borderopacity="1.0"
     inkscape:pageopacity="0.0"
     inkscape:pageshadow="2"
     inkscape:zoom="3.959798"
     inkscape:cx="24.639308"
     inkscape:cy="22.613574"
     inkscape:document-units="px"
     inkscape:current-layer="layer1"
     showgrid="false"
     units="px"
     inkscape:window-width="865"
     inkscape:window-height="887"
     inkscape:window-x="1412"
     inkscape:window-y="380"
     inkscape:window-maximized="0" />
  <metadata
     id="metadata25626">
    <rdf:RDF>
      <cc:Work
         rdf:about="">
        <dc:format>image/svg+xml</dc:format>
        <dc:type
           rdf:resource="http://purl.org/dc/dcmitype/StillImage" />
        <dc:title />
      </cc:Work>
    </rdf:RDF>
  </metadata>
  <g
     inkscape:label="Layer 1"
     inkscape:groupmode="layer"
     id="layer1"
     transform="translate(0,-1004.3622)">
    <rect
       style="fill:#777767;fill-rule:evenodd;stroke:none;stroke-width:1px;stroke-linecap:butt;stroke-linejoin:miter;stroke-opacity:1;fill-opacity:1"
       id="rect13331"
       width="48"
       height="48"
       x="0"
       y="1004.3622"
       rx="0"
       ry="0" />
    <path
       style="color:#000000;clip-rule:nonzero;display:inline;overflow:visible;visibility:visible;opacity:1;isolation:auto;mix-blend-mode:normal;color-interpolation:sRGB;color-interpolation-filters:linearRGB;solid-color:#000000;solid-opacity:1;fill:#ffffff;fill-opacity:1;fill-rule:nonzero;stroke:#666666;stroke-width:6;stroke-linejoin:round;stroke-miterlimit:4;stroke-dasharray:none;stroke-opacity:1;color-rendering:auto;image-rendering:auto;shape-rendering:auto;text-rendering:auto;enable-background:accumulate"
       d="m 13.663443,1014.9615 a 4.1484511,2.7996736 0 0 0 -4.1475147,2.8004 4.1484511,2.7996736 0 0 0 4.1475147,2.7989 4.1484511,2.7996736 0 0 0 1.618152,-0.2242 l 16.920392,18.6695 a 4.1484511,2.7996736 0 0 0 -1.450587,1.5915 l -14.517098,0.8679 a 4.1484511,2.7996736 0 0 0 -3.798032,-1.6813 4.1484511,2.7996736 0 0 0 -4.1491103,2.7989 4.1484511,2.7996736 0 0 0 4.1491103,2.8004 4.1484511,2.7996736 0 0 0 4.077295,-2.2929 l 14.442101,-0.8646 a 4.1484511,2.7996736 0 0 0 3.849085,1.7581 4.1484511,2.7996736 0 0 0 4.149119,-2.8005 4.1484511,2.7996736 0 0 0 -4.149119,-2.7988 4.1484511,2.7996736 0 0 0 -0.893648,0.069 l -17.102318,-18.8681 a 4.1484511,2.7996736 0 0 0 1.003768,-1.8237 4.1484511,2.7996736 0 0 0 -4.14911,-2.8004 z"
       id="path36337-4-25-3"
       inkscape:connector-curvature="0"
       inkscape:export-xdpi="90"
       inkscape:export-ydpi="90" />
    <path
       style="color:#000000;clip-rule:nonzero;display:inline;overflow:visible;visibility:visible;opacity:1;isolation:auto;mix-blend-mode:normal;color-interpolation:sRGB;color-interpolation-filters:linearRGB;solid-color:#000000;solid-opacity:1;fill:#ffffff;fill-opacity:1;fill-rule:nonzero;stroke:#ffffff;stroke-width:3;stroke-linejoin:round;stroke-miterlimit:4;stroke-dasharray:none;stroke-opacity:1;color-rendering:auto;image-rendering:auto;shape-rendering:auto;text-rendering:auto;enable-background:accumulate"
       d="m 13.663443,1014.963 a 4.1484511,2.7996736 0 0 0 -4.1475147,2.8004 4.1484511,2.7996736 0 0 0 4.1475147,2.7988 4.1484511,2.7996736 0 0 0 1.618152,-0.2242 l 16.920392,18.6696 a 4.1484511,2.7996736 0 0 0 -1.450587,1.5915 l -14.517098,0.8678 a 4.1484511,2.7996736 0 0 0 -3.798032,-1.6812 4.1484511,2.7996736 0 0 0 -4.1491103,2.7988 4.1484511,2.7996736 0 0 0 4.1491103,2.8004 4.1484511,2.7996736 0 0 0 4.077295,-2.2928 l 14.442101,-0.8646 a 4.1484511,2.7996736 0 0 0 3.849085,1.758 4.1484511,2.7996736 0 0 0 4.149119,-2.8004 4.1484511,2.7996736 0 0 0 -4.149119,-2.7988 4.1484511,2.7996736 0 0 0 -0.893648,0.069 l -17.102318,-18.868 a 4.1484511,2.7996736 0 0 0 1.003768,-1.8237 4.1484511,2.7996736 0 0 0 -4.14911,-2.8004 z"
       id="path36337-4-25"
       inkscape:connector-curvature="0"
       inkscape:export-xdpi="90"
       inkscape:export-ydpi="90" />
    <path
       inkscape:connector-curvature="0"
       style="color:#000000;clip-rule:nonzero;display:inline;overflow:visible;visibility:visible;opacity:1;isolation:auto;mix-blend-mode:normal;color-interpolation:sRGB;color-interpolation-filters:linearRGB;solid-color:#000000;solid-opacity:1;fill:#fdb40c;fill-opacity:1;fill-rule:nonzero;stroke:none;stroke-width:1.34134459;stroke-linejoin:round;stroke-miterlimit:4;stroke-dasharray:none;stroke-opacity:1;color-rendering:auto;image-rendering:auto;shape-rendering:auto;text-rendering:auto;enable-background:accumulate"
       d="m 13.663443,1014.9645 a 4.1484511,2.7996736 0 0 0 -4.1475147,2.8004 4.1484511,2.7996736 0 0 0 4.1475147,2.7988 4.1484511,2.7996736 0 0 0 1.618152,-0.2241 l 16.920392,18.6694 a 4.1484511,2.7996736 0 0 0 -1.450587,1.5916 l -14.517098,0.8678 a 4.1484511,2.7996736 0 0 0 -3.798032,-1.6812 4.1484511,2.7996736 0 0 0 -4.1491103,2.7988 4.1484511,2.7996736 0 0 0 4.1491103,2.8005 4.1484511,2.7996736 0 0 0 4.077295,-2.2929 l 14.442101,-0.8647 a 4.1484511,2.7996736 0 0 0 3.849085,1.7582 4.1484511,2.7996736 0 0 0 4.149119,-2.8005 4.1484511,2.7996736 0 0 0 -4.149119,-2.7988 4.1484511,2.7996736 0 0 0 -0.893648,0.069 l -17.102318,-18.868 a 4.1484511,2.7996736 0 0 0 1.003768,-1.8237 4.1484511,2.7996736 0 0 0 -4.14911,-2.8004 z"
       id="path36337-4"
       inkscape:export-xdpi="90"
       inkscape:export-ydpi="90" />
    <g
       id="g39410"
       inkscape:export-xdpi="90"
       inkscape:export-ydpi="90"
       transform="matrix(0.95549658,0,0,0.95627281,-228.3277,668.79323)">
      <path
         inkscape:transform-center-y="-15.042343"
         inkscape:transform-center-x="-10.287981"
         inkscape:connector-curvature="0"
         id="path36319-7-8-5-7"
         d="m 262.44794,380.85287 3.73211,-2.68658 4.07117,-6.51195 c 2.23913,-3.58156 4.04807,-6.61257 4.01989,-6.73556 -0.0658,-0.28698 -5.74102,-3.84472 -6.0277,-3.77868 -0.11868,0.0273 -2.04439,2.97869 -4.27934,6.55853 l -4.06355,6.50882 -0.72921,4.22633 c -0.82512,4.78223 -0.87864,5.2186 -0.63204,5.15277 0.097,-0.0265 1.85597,-1.25607 3.90863,-2.73369 z m -2.08026,-0.56416 c -0.29853,-0.22858 -0.28929,-0.70342 0.056,-2.88304 0.22743,-1.43517 0.52244,-2.63529 0.65574,-2.66692 0.50058,-0.11946 1.59893,0.59231 1.71817,1.11256 0.0952,0.41535 0.2355,0.50346 0.64979,0.40803 0.51938,-0.11964 1.63771,0.56152 1.74749,1.06437 0.0492,0.22547 -3.67811,3.02317 -4.22657,3.17243 -0.13373,0.0366 -0.40404,-0.057 -0.6006,-0.20743 z m 15.45455,-17.88566 c 0.14037,-0.44284 0.12281,-1.17732 -0.0443,-1.90866 -0.4786,-2.08831 -2.19813,-3.16294 -4.27019,-2.66869 -0.5917,0.14126 -1.22836,0.39764 -1.41469,0.56997 -0.97073,0.89767 -1.03829,0.80978 2.18495,2.84245 1.69195,1.06698 3.13021,1.92755 3.19614,1.91236 0.0659,-0.0152 0.22256,-0.35153 0.34807,-0.74743 z"
         style="fill:#ffffff;stroke:#666666;stroke-width:6.2769084;stroke-miterlimit:4;stroke-dasharray:none;stroke-opacity:1" />
      <path
         inkscape:transform-center-y="-15.042343"
         inkscape:transform-center-x="-10.287981"
         inkscape:connector-curvature="0"
         id="path36319-7-8-5"
         d="m 262.44794,380.85441 3.73211,-2.68659 4.07117,-6.51195 c 2.23913,-3.58156 4.04807,-6.61257 4.01989,-6.73555 -0.0658,-0.28699 -5.74102,-3.84472 -6.0277,-3.77869 -0.11868,0.0273 -2.04439,2.97869 -4.27934,6.55853 l -4.06355,6.50882 -0.72921,4.22633 c -0.82512,4.78223 -0.87864,5.21861 -0.63204,5.15278 0.097,-0.0265 1.85597,-1.25607 3.90863,-2.73369 z m -2.08026,-0.56417 c -0.29853,-0.22858 -0.28929,-0.70341 0.056,-2.88303 0.22743,-1.43517 0.52244,-2.63529 0.65574,-2.66693 0.50058,-0.11946 1.59893,0.59231 1.71817,1.11257 0.0952,0.41534 0.2355,0.50345 0.64979,0.40802 0.51938,-0.11963 1.63771,0.56153 1.74749,1.06437 0.0492,0.22547 -3.67811,3.02317 -4.22657,3.17244 -0.13373,0.0366 -0.40404,-0.057 -0.6006,-0.20744 z m 15.45455,-17.88566 c 0.14037,-0.44283 0.12281,-1.17731 -0.0443,-1.90866 -0.4786,-2.0883 -2.19813,-3.16293 -4.27019,-2.66869 -0.5917,0.14127 -1.22836,0.39764 -1.41469,0.56997 -0.97073,0.89768 -1.03829,0.80979 2.18495,2.84245 1.69195,1.06698 3.13021,1.92755 3.19614,1.91236 0.0659,-0.0152 0.22256,-0.35153 0.34807,-0.74743 z"
         style="fill:#ffffff;stroke:#ffffff;stroke-width:3.1384542;stroke-miterlimit:4;stroke-dasharray:none;stroke-opacity:1" />
      <path
         inkscape:transform-center-y="-15.042343"
         inkscape:transform-center-x="-10.287981"
         inkscape:connector-curvature="0"
         id="path36319-7-8"
         d="m 262.44794,380.85595 3.73211,-2.68658 4.07117,-6.51195 c 2.23913,-3.58156 4.04807,-6.61257 4.01989,-6.73555 -0.0658,-0.28699 -5.74102,-3.84472 -6.0277,-3.77869 -0.11868,0.0273 -2.04439,2.97869 -4.27934,6.55853 l -4.06355,6.50882 -0.72921,4.22633 c -0.82512,4.78223 -0.87864,5.2186 -0.63204,5.15277 0.097,-0.0265 1.85597,-1.25606 3.90863,-2.73368 z m -2.08026,-0.56416 c -0.29853,-0.22858 -0.28929,-0.70342 0.056,-2.88304 0.22743,-1.43516 0.52244,-2.63529 0.65574,-2.66692 0.50058,-0.11946 1.59893,0.59231 1.71817,1.11257 0.0952,0.41534 0.2355,0.50345 0.64979,0.40802 0.51938,-0.11963 1.63771,0.56152 1.74749,1.06437 0.0492,0.22547 -3.67811,3.02317 -4.22657,3.17243 -0.13373,0.0366 -0.40404,-0.057 -0.6006,-0.20743 z m 15.45455,-17.88566 c 0.14037,-0.44283 0.12281,-1.17731 -0.0443,-1.90866 -0.4786,-2.0883 -2.19813,-3.16293 -4.27019,-2.66869 -0.5917,0.14126 -1.22836,0.39764 -1.41469,0.56997 -0.97073,0.89767 -1.03829,0.80979 2.18495,2.84245 1.69195,1.06698 3.13021,1.92755 3.19614,1.91236 0.0659,-0.0152 0.22256,-0.35153 0.34807,-0.74743 z"
         style="fill:#fdb40c;fill-opacity:1" />
    </g>
  </g>
</svg>
