<?xml version="1.0" encoding="UTF-8" standalone="no"?>
<svg
   xmlns:dc="http://purl.org/dc/elements/1.1/"
   xmlns:cc="http://creativecommons.org/ns#"
   xmlns:rdf="http://www.w3.org/1999/02/22-rdf-syntax-ns#"
   xmlns:svg="http://www.w3.org/2000/svg"
   xmlns="http://www.w3.org/2000/svg"
   xmlns:sodipodi="http://sodipodi.sourceforge.net/DTD/sodipodi-0.dtd"
   xmlns:inkscape="http://www.inkscape.org/namespaces/inkscape"
   width="48"
   height="48"
   viewBox="0 0 48 48.000001"
   id="svg39621"
   version="1.1"
   inkscape:version="0.91 r13725"
   sodipodi:docname="shop.svg">
  <metadata
     id="metadata39643">
    <rdf:RDF>
      <cc:Work
         rdf:about="">
        <dc:format>image/svg+xml</dc:format>
        <dc:type
           rdf:resource="http://purl.org/dc/dcmitype/StillImage" />
        <dc:title />
      </cc:Work>
    </rdf:RDF>
  </metadata>
  <defs
     id="defs39641" />
  <sodipodi:namedview
     pagecolor="#ffffff"
     bordercolor="#666666"
     borderopacity="1"
     objecttolerance="10"
     gridtolerance="10"
     guidetolerance="10"
     inkscape:pageopacity="0"
     inkscape:pageshadow="2"
     inkscape:window-width="2560"
     inkscape:window-height="1369"
     id="namedview39639"
     showgrid="false"
     inkscape:zoom="6.9532167"
     inkscape:cx="-6.1904265"
     inkscape:cy="-1.1009832"
     inkscape:window-x="0"
     inkscape:window-y="24"
     inkscape:window-maximized="1"
     inkscape:current-layer="svg39621" />
  <path
     fill="#f9f9f9"
     fill-rule="evenodd"
     d="M0 0h48v48H0z"
     id="path39623"
     style="fill:#777767;fill-opacity:1" />
  <g
     id="g40237"
     transform="translate(-70.902436,-67.019341)">
    <path
       id="path40219"
       d="m 76.986328,72.248047 a 1.8419573,1.8419573 0 0 0 -1.841797,1.841797 l 0,1.728515 0,1.730469 a 1.8419573,1.8419573 0 0 0 1.837891,1.841797 l 1.740234,0.0039 0.582032,0.002 2.625,5.533204 2.720703,5.732421 c -0.205807,0.372301 -0.460279,0.831556 -0.748047,1.351563 -0.314107,0.567596 -0.609918,1.107248 -0.835938,1.521484 -0.22602,0.414237 -0.288932,0.501862 -0.451172,0.84375 -0.187589,0.39533 -0.32775,0.818628 -0.416015,1.25586 -0.15797,0.781925 -0.157071,1.202536 -0.01367,1.974609 0.267296,1.439231 1.143453,2.613844 2.298828,3.396484 -1.107122,0.75957 -1.958184,1.8787 -2.255859,3.24609 a 1.8419573,1.8419573 0 0 0 0,0.002 c -0.05863,0.26952 -0.08948,0.64722 -0.08984,1.08203 -4.25e-4,0.43823 0.0318,0.8229 0.08984,1.08984 0.465927,2.1418 2.210806,3.81746 4.375,4.16797 0.781517,0.12655 1.100123,0.1154 1.863281,-0.0449 2.459203,-0.51681 4.261719,-2.69562 4.261719,-5.21094 0,-1.30171 -0.600085,-2.41806 -1.423828,-3.36719 1.835571,0.003 3.98074,0.005 6.484374,0.006 l 2.935546,0.002 c -0.0539,0.0664 -0.1293,0.10374 -0.18359,0.17578 -0.38501,0.51087 -0.603703,0.92937 -0.800784,1.54101 -0.159789,0.49606 -0.243289,1.087 -0.24414,1.64063 -4.36e-4,0.384 0.03248,0.75261 0.08594,1.01758 0.327738,1.62583 1.392884,3.04065 2.886714,3.76757 0.50881,0.24759 1.07279,0.41117 1.64063,0.4961 a 1.8419573,1.8419573 0 0 0 0.006,0 c 0.26549,0.0386 0.22408,0.0202 0.27344,0.0215 0.0494,0.001 0.0971,0.002 0.14844,0.002 0.1021,4.4e-4 0.21978,2.6e-4 0.34375,-0.002 0.53271,-0.009 1.11354,-0.10566 1.5918,-0.26562 0.742,-0.24819 1.4457,-0.68452 2.00976,-1.23047 0.75659,-0.73232 1.28158,-1.70181 1.50586,-2.73633 a 1.8419573,1.8419573 0 0 0 0,-0.004 c 0.057,-0.26542 0.0883,-0.647 0.0879,-1.0664 -4.2e-4,-0.41539 -0.0304,-0.79067 -0.0879,-1.05664 a 1.8419573,1.8419573 0 0 0 0,-0.002 c -0.19125,-0.88331 -0.65466,-1.68292 -1.24219,-2.36718 a 1.8419573,1.8419573 0 0 0 1.3418,-1.77149 l 0,-1.740231 0,-1.740235 a 1.8419573,1.8419573 0 0 0 -1.8418,-1.841797 l -4.59179,0 c 0.32067,-0.09137 0.64614,-0.18893 0.92773,-0.326172 0.8438,-0.411254 1.56841,-1.029712 2.09375,-1.8125 0.21216,-0.31613 0.11577,-0.188639 0.17578,-0.294922 0.06,-0.106282 0.13884,-0.249388 0.23828,-0.427734 0.19889,-0.356691 0.47379,-0.850271 0.79883,-1.4375 0.65009,-1.174458 1.50196,-2.718825 2.34961,-4.257812 0.84765,-1.538988 1.69122,-3.073007 2.32227,-4.22461 0.31552,-0.575801 0.57695,-1.054626 0.76172,-1.394531 0.0924,-0.169953 0.16639,-0.304513 0.21875,-0.402344 0.0262,-0.04891 0.0469,-0.08747 0.0664,-0.125 0.01,-0.01876 0.0173,-0.03579 0.0332,-0.06836 0.008,-0.01628 0.0172,-0.03349 0.0391,-0.08398 0.0109,-0.02525 0.024,-0.05277 0.0527,-0.136719 0.0286,-0.08354 -0.002,-1.182456 -0.002,-1.19336 -0.0142,-0.02642 -0.29089,-0.540856 -0.29102,-0.541015 -1.3e-4,-1.64e-4 -0.12385,-0.144422 -0.16406,-0.183594 -0.0804,-0.07834 -0.12146,-0.109159 -0.1543,-0.134766 -0.0657,-0.05121 -0.0935,-0.06815 -0.11718,-0.08398 -0.0474,-0.03166 -0.0688,-0.0446 -0.0918,-0.05859 -0.0461,-0.028 -0.0853,-0.05073 -0.13281,-0.07813 -0.0951,-0.05479 -0.21563,-0.122712 -0.35938,-0.203125 -0.2875,-0.160826 -0.66391,-0.369272 -1.04101,-0.576172 -0.37711,-0.206899 -0.75445,-0.412079 -1.04493,-0.568359 -0.14524,-0.07814 -0.2677,-0.142464 -0.36523,-0.193359 -0.0488,-0.02545 -0.0885,-0.04656 -0.13672,-0.07031 -0.0241,-0.01188 -0.0466,-0.02435 -0.0977,-0.04687 -0.0255,-0.01126 -0.0542,-0.02393 -0.12891,-0.05078 -0.0374,-0.01342 -0.0831,-0.02986 -0.18359,-0.05469 -0.0503,-0.01241 -0.22049,-0.04099 -0.22071,-0.04102 -2.2e-4,-2.7e-5 -0.54479,0.0156 -0.54492,0.01563 -0.005,0.0018 -0.62049,0.230112 -0.62109,0.230469 -6e-4,3.57e-4 -0.21779,0.148867 -0.28125,0.205078 -0.12694,0.112422 -0.1794,0.179116 -0.22071,0.230468 -0.0826,0.102705 -0.10793,0.147681 -0.13476,0.189454 -0.0537,0.08355 -0.0865,0.141809 -0.13867,0.232421 -0.10435,0.181226 -0.26488,0.468355 -0.54688,0.976563 -0.564,1.016415 -1.60626,2.905782 -3.54492,6.423828 l -1.99805,3.626953 -4.999993,0 -4.923828,0 C 90.267692,85.819613 85.749729,76.298729 85.138672,75.005859 a 1.8419573,1.8419573 0 0 0 -0.002,-0.002 L 84.330031,73.300734 A 1.8419573,1.8419573 0 0 0 82.665969,72.248 l -2.839844,0 -2.839844,0 z"
       style="fill:#666666;fill-opacity:1"
       inkscape:connector-curvature="0" />
    <path
       sodipodi:nodetypes="ccccsssscccsccccsscccsscccccccsccccccccccsccccscccsscccsccccccccscc"
       inkscape:connector-curvature="0"
       id="path40199-4"
       d="m 86.754933,108.91946 c -1.45019,-0.23487 -2.55651,-1.2904 -2.87186,-2.74001 -0.0419,-0.19287 -0.0476,-0.27565 -0.0472,-0.69812 3.5e-4,-0.41707 0.007,-0.50703 0.0469,-0.69288 0.33495,-1.53861 1.56513,-2.63334 3.10206,-2.76052 0.62836,-0.052 1.25119,0.0646 1.81182,0.33923 1.18223,0.57909 1.94591,1.80125 1.94591,3.11417 0,1.64948 -1.16216,3.06568 -2.79783,3.40942 -0.27799,0.0584 -0.91198,0.0737 -1.18987,0.0287 z m 17.481427,0.0186 c -0.42391,-0.0634 -0.76787,-0.16618 -1.10426,-0.32987 -0.98911,-0.48132 -1.66749,-1.36917 -1.89017,-2.47384 -0.0403,-0.19975 -0.0476,-0.30047 -0.0472,-0.65297 7e-4,-0.4617 0.0356,-0.70414 0.1562,-1.07854 0.0962,-0.29856 0.32738,-0.74385 0.51663,-0.99496 0.2051,-0.27213 0.55809,-0.61494 0.81102,-0.78761 1.40542,-0.95945 3.29377,-0.7606 4.46862,0.47056 0.45155,0.47321 0.75068,1.04726 0.8964,1.72027 0.0393,0.1817 0.0459,0.27701 0.0463,0.67028 3.5e-4,0.40009 -0.006,0.48632 -0.047,0.67727 -0.15587,0.71895 -0.48262,1.31689 -0.98574,1.80386 -0.40251,0.3896 -0.80904,0.63996 -1.3127,0.80843 -0.38941,0.13025 -0.58421,0.16205 -1.03924,0.16967 -0.2235,0.004 -0.43449,0.003 -0.46888,-0.003 z m -17.254857,-8.67824 c -1.54887,-0.12082 -2.84138,-1.295331 -3.12885,-2.843205 -0.0588,-0.316532 -0.0546,-0.960931 0.008,-1.272376 0.0598,-0.296275 0.15033,-0.570816 0.27444,-0.832383 0.0544,-0.114616 0.61017,-1.132289 1.23507,-2.261497 0.6249,-1.129209 1.15136,-2.082445 1.1699,-2.118304 l 0.0337,-0.0652 -3.12377,-6.582062 -3.12377,-6.582063 -1.74164,-0.0053 -1.74164,-0.0053 0,-1.729534 0,-1.729534 2.83974,0 2.83974,0 0.80519,1.703604 c 0.6522,1.379918 5.89189,12.422136 6.45718,13.608002 l 0.1515,0.317798 6.08902,0 6.089017,0 2.52354,-4.579415 c 3.87718,-7.035839 4.16749,-7.559069 4.19699,-7.564284 0.0332,-0.0059 3.00139,1.622358 3.01121,1.651821 0.01,0.02894 -6.70167,12.213733 -6.84438,12.426383 -0.33403,0.49772 -0.81086,0.908928 -1.36996,1.181426 -0.26342,0.128386 -0.4674,0.199723 -0.79189,0.27695 l -0.22924,0.05456 -6.710217,0.0062 -6.71022,0.0062 -0.80123,1.451433 c -0.74352,1.346907 -0.80181,1.45982 -0.80935,1.56786 -0.007,0.09746 0.002,0.134979 0.0517,0.230325 0.0487,0.09275 0.0805,0.124673 0.17093,0.171924 l 0.11107,0.05802 10.09421,0 10.094217,0 0,1.740073 0,1.740068 -10.456067,-0.003 c -5.75084,-0.002 -10.54985,-0.0103 -10.66446,-0.0192 z"
       style="fill:#ffffff" />
  </g>
  <path
     style="color:#000000;clip-rule:nonzero;display:inline;overflow:visible;visibility:visible;opacity:1;isolation:auto;mix-blend-mode:normal;color-interpolation:sRGB;color-interpolation-filters:linearRGB;solid-color:#000000;solid-opacity:1;fill:#fdb40c;fill-opacity:1;fill-rule:evenodd;stroke:none;stroke-width:3;stroke-linecap:round;stroke-linejoin:round;stroke-miterlimit:4;stroke-dasharray:none;stroke-dashoffset:0.85000002;stroke-opacity:1;color-rendering:auto;image-rendering:auto;shape-rendering:auto;text-rendering:auto;enable-background:accumulate"
     d="m 24.356973,4.7112343 c -0.694753,0 -1.253726,0.595733 -1.253726,1.3367947 l 0,2.8535731 -2.853573,0 c -0.741063,0 -1.338334,0.5589733 -1.338334,1.2537259 l 0,1.910587 c 0,0.694753 0.597271,1.253726 1.338334,1.253726 l 2.853573,0 0,2.853573 c 0,0.741063 0.558973,1.336795 1.253726,1.336795 l 1.909048,0 c 0.694754,0 1.255264,-0.595732 1.255264,-1.336795 l 0,-2.853573 2.853573,0 c 0.741063,0 1.336795,-0.558973 1.336795,-1.253726 l 0,-1.910587 c 0,-0.6947526 -0.595732,-1.2537259 -1.336795,-1.2537259 l -2.853573,0 0,-2.8535731 c 0,-0.7410617 -0.56051,-1.3367947 -1.255264,-1.3367947 l -1.909048,0 z"
     id="rect40868"
     inkscape:connector-curvature="0" />
</svg>
