<?xml version="1.0" encoding="UTF-8" standalone="no"?>
<!-- Created with Inkscape (http://www.inkscape.org/) -->

<svg
   xmlns:dc="http://purl.org/dc/elements/1.1/"
   xmlns:cc="http://creativecommons.org/ns#"
   xmlns:rdf="http://www.w3.org/1999/02/22-rdf-syntax-ns#"
   xmlns:svg="http://www.w3.org/2000/svg"
   xmlns="http://www.w3.org/2000/svg"
   xmlns:sodipodi="http://sodipodi.sourceforge.net/DTD/sodipodi-0.dtd"
   xmlns:inkscape="http://www.inkscape.org/namespaces/inkscape"
   width="32"
   height="32"
   viewBox="0 0 8.4666664 8.4666667"
   version="1.1"
   id="svg1719"
   inkscape:version="0.92.2 (unknown)"
   sodipodi:docname="btn_ortho_area.svg">
  <defs
     id="defs1713" />
  <sodipodi:namedview
     id="base"
     pagecolor="#ffffff"
     bordercolor="#666666"
     borderopacity="1.0"
     inkscape:pageopacity="0.0"
     inkscape:pageshadow="2"
     inkscape:zoom="32"
     inkscape:cx="22.942063"
     inkscape:cy="13.644354"
     inkscape:document-units="px"
     inkscape:current-layer="layer1"
     showgrid="false"
     fit-margin-top="0"
     fit-margin-left="0"
     fit-margin-right="0"
     fit-margin-bottom="0"
     units="px"
     inkscape:window-width="2560"
     inkscape:window-height="1416"
     inkscape:window-x="2560"
     inkscape:window-y="102"
     inkscape:window-maximized="1"
     showguides="true"
     inkscape:guide-bbox="true"
     inkscape:snap-global="false">
    <sodipodi:guide
       position="13.675651,0.41341145"
       orientation="0,1"
       id="guide3195"
       inkscape:locked="false" />
    <sodipodi:guide
       position="8.9792966,11.426693"
       orientation="0,1"
       id="guide9944"
       inkscape:locked="false" />
    <sodipodi:guide
       position="9.6738278,2.4970052"
       orientation="1,0"
       id="guide9946"
       inkscape:locked="false" />
    <sodipodi:guide
       position="0.97565101,1.3229167"
       orientation="1,0"
       id="guide9948"
       inkscape:locked="false" />
  </sodipodi:namedview>
  <metadata
     id="metadata1716">
    <rdf:RDF>
      <cc:Work
         rdf:about="">
        <dc:format>image/svg+xml</dc:format>
        <dc:type
           rdf:resource="http://purl.org/dc/dcmitype/StillImage" />
        <dc:title />
      </cc:Work>
    </rdf:RDF>
  </metadata>
  <g
     inkscape:label="Layer 1"
     inkscape:groupmode="layer"
     id="layer1"
     transform="translate(-85.989584,-126.19255)">
    <path
       sodipodi:nodetypes="ccc"
       style="fill:none;fill-rule:evenodd;stroke:#808080;stroke-width:0.30112392;stroke-linecap:butt;stroke-linejoin:round;stroke-miterlimit:4;stroke-dasharray:none;stroke-opacity:1"
       d="m 86.839307,133.78017 3.228351,0.059 3.518222,-2.75525"
       id="path6683-9-6"
       inkscape:connector-curvature="0" />
    <path
       sodipodi:nodetypes="ccc"
       style="display:inline;fill:none;fill-rule:evenodd;stroke:#808080;stroke-width:0.30112392;stroke-linecap:butt;stroke-linejoin:round;stroke-miterlimit:4;stroke-dasharray:none;stroke-opacity:1"
       d="m 86.814308,133.88656 -0.01114,-4.22914 2.185015,-2.37322"
       id="path6683-9-6-0"
       inkscape:connector-curvature="0" />
    <path
       sodipodi:nodetypes="cc"
       style="display:inline;fill:none;fill-rule:evenodd;stroke:#808080;stroke-width:0.30112392;stroke-linecap:butt;stroke-linejoin:round;stroke-miterlimit:4;stroke-dasharray:none;stroke-opacity:1"
       d="m 89.031864,127.27808 3.874695,0.059"
       id="path6683-9-6-9"
       inkscape:connector-curvature="0" />
    <path
       sodipodi:nodetypes="cc"
       style="display:inline;fill:none;fill-rule:evenodd;stroke:#808080;stroke-width:0.30112392;stroke-linecap:butt;stroke-linejoin:round;stroke-miterlimit:4;stroke-dasharray:none;stroke-opacity:1"
       d="m 92.880572,127.29633 0.696648,3.79634"
       id="path6683-9-6-0-2"
       inkscape:connector-curvature="0" />
    <path
       inkscape:connector-curvature="0"
       id="path6654-2-8"
       d="m 94.352312,130.86948 a 0.76406194,0.76191481 76.182506 0 1 -0.557387,0.92392 0.76406194,0.76191481 76.182506 0 1 -0.922348,-0.55998 0.76406194,0.76191481 76.182506 0 1 0.557386,-0.92392 0.76406194,0.76191481 76.182506 0 1 0.922349,0.55998 z"
       style="color:#000000;clip-rule:nonzero;display:inline;overflow:visible;visibility:visible;opacity:1;isolation:auto;mix-blend-mode:normal;color-interpolation:sRGB;color-interpolation-filters:linearRGB;solid-color:#000000;solid-opacity:1;fill:#333333;fill-opacity:1;fill-rule:nonzero;stroke:none;stroke-width:0.22731234px;stroke-linecap:butt;stroke-linejoin:miter;stroke-miterlimit:4;stroke-dasharray:none;stroke-dashoffset:0;stroke-opacity:1;color-rendering:auto;image-rendering:auto;shape-rendering:auto;text-rendering:auto;enable-background:accumulate" />
    <path
       inkscape:connector-curvature="0"
       id="path6654-0-0-9-4"
       d="m 87.555227,133.62167 a 0.76406191,0.76191478 76.182506 0 1 -0.557384,0.92392 0.76406191,0.76191478 76.182506 0 1 -0.922348,-0.55998 0.76406191,0.76191478 76.182506 0 1 0.557386,-0.92392 0.76406191,0.76191478 76.182506 0 1 0.922346,0.55998 z"
       style="color:#000000;clip-rule:nonzero;display:inline;overflow:visible;visibility:visible;opacity:1;isolation:auto;mix-blend-mode:normal;color-interpolation:sRGB;color-interpolation-filters:linearRGB;solid-color:#000000;solid-opacity:1;fill:#333333;fill-opacity:1;fill-rule:nonzero;stroke:none;stroke-width:0.22731234px;stroke-linecap:butt;stroke-linejoin:miter;stroke-miterlimit:4;stroke-dasharray:none;stroke-dashoffset:0;stroke-opacity:1;color-rendering:auto;image-rendering:auto;shape-rendering:auto;text-rendering:auto;enable-background:accumulate" />
    <path
       inkscape:connector-curvature="0"
       id="path6654-0-0-9"
       d="m 87.555227,129.40998 a 0.76406194,0.76191481 76.182506 0 1 -0.557384,0.92392 0.76406194,0.76191481 76.182506 0 1 -0.922348,-0.55998 0.76406194,0.76191481 76.182506 0 1 0.557386,-0.92392 0.76406194,0.76191481 76.182506 0 1 0.922346,0.55998 z"
       style="color:#000000;clip-rule:nonzero;display:inline;overflow:visible;visibility:visible;opacity:1;isolation:auto;mix-blend-mode:normal;color-interpolation:sRGB;color-interpolation-filters:linearRGB;solid-color:#000000;solid-opacity:1;fill:#333333;fill-opacity:1;fill-rule:nonzero;stroke:none;stroke-width:0.22731234px;stroke-linecap:butt;stroke-linejoin:miter;stroke-miterlimit:4;stroke-dasharray:none;stroke-dashoffset:0;stroke-opacity:1;color-rendering:auto;image-rendering:auto;shape-rendering:auto;text-rendering:auto;enable-background:accumulate" />
    <path
       inkscape:connector-curvature="0"
       id="path6654-0-0-9-8"
       d="m 93.643412,127.05143 a 0.76406191,0.76191478 76.182506 0 1 -0.557383,0.92392 0.76406191,0.76191478 76.182506 0 1 -0.922348,-0.55999 0.76406191,0.76191478 76.182506 0 1 0.557386,-0.92391 0.76406191,0.76191478 76.182506 0 1 0.922345,0.55998 z"
       style="color:#000000;clip-rule:nonzero;display:inline;overflow:visible;visibility:visible;opacity:1;isolation:auto;mix-blend-mode:normal;color-interpolation:sRGB;color-interpolation-filters:linearRGB;solid-color:#000000;solid-opacity:1;fill:#333333;fill-opacity:1;fill-rule:nonzero;stroke:none;stroke-width:0.22731234px;stroke-linecap:butt;stroke-linejoin:miter;stroke-miterlimit:4;stroke-dasharray:none;stroke-dashoffset:0;stroke-opacity:1;color-rendering:auto;image-rendering:auto;shape-rendering:auto;text-rendering:auto;enable-background:accumulate" />
    <path
       inkscape:connector-curvature="0"
       id="path6654-2-8-8"
       d="m 89.697059,127.08392 a 0.76406191,0.76191478 76.182506 0 1 -0.557386,0.92392 0.76406191,0.76191478 76.182506 0 1 -0.922348,-0.55998 0.76406191,0.76191478 76.182506 0 1 0.557386,-0.92392 0.76406191,0.76191478 76.182506 0 1 0.922348,0.55998 z"
       style="color:#000000;clip-rule:nonzero;display:inline;overflow:visible;visibility:visible;opacity:1;isolation:auto;mix-blend-mode:normal;color-interpolation:sRGB;color-interpolation-filters:linearRGB;solid-color:#000000;solid-opacity:1;fill:#333333;fill-opacity:1;fill-rule:nonzero;stroke:none;stroke-width:0.22731234px;stroke-linecap:butt;stroke-linejoin:miter;stroke-miterlimit:4;stroke-dasharray:none;stroke-dashoffset:0;stroke-opacity:1;color-rendering:auto;image-rendering:auto;shape-rendering:auto;text-rendering:auto;enable-background:accumulate" />
    <path
       inkscape:connector-curvature="0"
       id="path6654-2-8-86"
       d="m 90.885505,133.59162 a 0.76406191,0.76191478 76.182506 0 1 -0.557386,0.92391 0.76406191,0.76191478 76.182506 0 1 -0.922346,-0.55998 0.76406191,0.76191478 76.182506 0 1 0.557384,-0.92391 0.76406191,0.76191478 76.182506 0 1 0.922348,0.55998 z"
       style="color:#000000;clip-rule:nonzero;display:inline;overflow:visible;visibility:visible;opacity:1;isolation:auto;mix-blend-mode:normal;color-interpolation:sRGB;color-interpolation-filters:linearRGB;solid-color:#000000;solid-opacity:1;fill:#333333;fill-opacity:1;fill-rule:nonzero;stroke:none;stroke-width:0.22731234px;stroke-linecap:butt;stroke-linejoin:miter;stroke-miterlimit:4;stroke-dasharray:none;stroke-dashoffset:0;stroke-opacity:1;color-rendering:auto;image-rendering:auto;shape-rendering:auto;text-rendering:auto;enable-background:accumulate" />
    <path
       style="fill:#d1e7ee;fill-opacity:1;fill-rule:evenodd;stroke:none;stroke-width:0.26458332px;stroke-linecap:butt;stroke-linejoin:miter;stroke-opacity:1"
       d="m 87.67338,129.95862 1.53179,-1.56687 h 2.899873 l 0.526187,2.03459 -2.50231,2.19829 h -2.443846 z"
       id="path869"
       inkscape:connector-curvature="0" />
    <g
       aria-label="A"
       style="font-style:normal;font-weight:normal;font-size:2.7653091px;line-height:3.24059653px;font-family:sans-serif;letter-spacing:0px;word-spacing:0px;fill:#4d4d4d;fill-opacity:1;stroke:none;stroke-width:0.12962386px;stroke-linecap:butt;stroke-linejoin:miter;stroke-opacity:1"
       id="text995">
      <path
         d="m 89.461676,129.8147 -0.369968,1.00323 h 0.741287 z m -0.153928,-0.2687 h 0.309207 l 0.768291,2.01592 h -0.283552 l -0.183634,-0.51715 h -0.908717 l -0.183634,0.51715 h -0.287603 z"
         style="fill:#4d4d4d;fill-opacity:1;stroke-width:0.12962386px"
         id="path837" />
    </g>
    <g
       aria-label="2"
       style="font-style:normal;font-weight:normal;font-size:1.7675029px;line-height:2.0712924px;font-family:sans-serif;letter-spacing:0px;word-spacing:0px;fill:#4d4d4d;fill-opacity:1;stroke:none;stroke-width:0.08285169px;stroke-linecap:butt;stroke-linejoin:miter;stroke-opacity:1"
       id="text995-9">
      <path
         d="m 90.589899,130.67566 h 0.608442 v 0.14671 h -0.81816 v -0.14671 q 0.09925,-0.10271 0.270131,-0.27531 0.171744,-0.17347 0.215759,-0.22353 0.08371,-0.0941 0.11651,-0.1588 0.03366,-0.0656 0.03366,-0.12859 0,-0.1027 -0.07249,-0.16743 -0.07163,-0.0647 -0.18728,-0.0647 -0.08199,0 -0.17347,0.0285 -0.09062,0.0285 -0.194184,0.0863 v -0.17606 q 0.105291,-0.0423 0.196773,-0.0639 0.09148,-0.0216 0.167429,-0.0216 0.200225,0 0.319324,0.10012 0.1191,0.10011 0.1191,0.26754 0,0.0794 -0.03021,0.15103 -0.02934,0.0708 -0.107879,0.16743 -0.02158,0.025 -0.137224,0.14499 -0.115647,0.1191 -0.326228,0.334 z"
         style="fill:#4d4d4d;fill-opacity:1;stroke-width:0.08285169px"
         id="path834" />
    </g>
  </g>
</svg>
