<?xml version="1.0" encoding="UTF-8" standalone="no"?>
<!-- Created with Inkscape (http://www.inkscape.org/) -->

<svg
   xmlns:dc="http://purl.org/dc/elements/1.1/"
   xmlns:cc="http://creativecommons.org/ns#"
   xmlns:rdf="http://www.w3.org/1999/02/22-rdf-syntax-ns#"
   xmlns:svg="http://www.w3.org/2000/svg"
   xmlns="http://www.w3.org/2000/svg"
   xmlns:sodipodi="http://sodipodi.sourceforge.net/DTD/sodipodi-0.dtd"
   xmlns:inkscape="http://www.inkscape.org/namespaces/inkscape"
   width="32"
   height="32"
   viewBox="0 0 8.4666664 8.4666667"
   version="1.1"
   id="svg1719"
   inkscape:version="0.92.2 (unknown)"
   sodipodi:docname="btn_home.svg">
  <defs
     id="defs1713">
    <inkscape:path-effect
       effect="spiro"
       id="path-effect831"
       is_visible="true" />
    <inkscape:path-effect
       effect="spiro"
       id="path-effect831-5"
       is_visible="true" />
    <inkscape:path-effect
       effect="spiro"
       id="path-effect831-1"
       is_visible="true" />
    <inkscape:path-effect
       effect="spiro"
       id="path-effect831-5-1"
       is_visible="true" />
  </defs>
  <sodipodi:namedview
     id="base"
     pagecolor="#ffffff"
     bordercolor="#666666"
     borderopacity="1.0"
     inkscape:pageopacity="0.0"
     inkscape:pageshadow="2"
     inkscape:zoom="16"
     inkscape:cx="25.646821"
     inkscape:cy="2.0024007"
     inkscape:document-units="px"
     inkscape:current-layer="layer1"
     showgrid="false"
     fit-margin-top="0"
     fit-margin-left="0"
     fit-margin-right="0"
     fit-margin-bottom="0"
     units="px"
     inkscape:window-width="2560"
     inkscape:window-height="1416"
     inkscape:window-x="2560"
     inkscape:window-y="102"
     inkscape:window-maximized="1"
     showguides="true"
     inkscape:guide-bbox="true"
     inkscape:snap-global="false">
    <sodipodi:guide
       position="2.8764863,0.39756376"
       orientation="0,1"
       id="guide3964"
       inkscape:locked="false" />
  </sodipodi:namedview>
  <metadata
     id="metadata1716">
    <rdf:RDF>
      <cc:Work
         rdf:about="">
        <dc:format>image/svg+xml</dc:format>
        <dc:type
           rdf:resource="http://purl.org/dc/dcmitype/StillImage" />
        <dc:title />
      </cc:Work>
    </rdf:RDF>
  </metadata>
  <g
     inkscape:label="Layer 1"
     inkscape:groupmode="layer"
     id="layer1"
     transform="translate(-85.989586,-126.19255)">
    <g
       id="g856"
       transform="matrix(0.11298096,0,0,0.11298096,85.193167,116.01161)">
      <path
         inkscape:connector-curvature="0"
         id="path2462"
         d="m 41.605732,154.15176 c -0.363802,-0.0649 -1.375833,-0.24684 -2.248958,-0.40433 -3.000862,-0.54129 -6.952825,-2.1886 -9.657291,-4.02549 -5.520385,-3.74948 -9.506985,-9.60793 -11.015187,-16.1872 -0.666425,-2.90717 -0.666425,-8.46991 0,-11.37708 2.253324,-9.82975 9.877344,-17.60458 19.630034,-20.01835 3.168129,-0.7841 8.779485,-0.84383 11.89036,-0.12656 9.809585,2.26177 17.603689,9.90442 20.02066,19.63163 0.836448,3.36633 0.836448,9.0373 0,12.40364 -1.020487,4.10699 -3.397784,8.52947 -6.345907,11.80525 -3.169758,3.52207 -8.237262,6.48562 -13.138802,7.68377 -2.040263,0.49874 -7.663637,0.87715 -9.134909,0.61472 z m 4.166002,-6.60419 c 1.185984,-0.49554 1.905352,-1.11727 2.207813,-1.90814 0.125219,-0.32742 0.396473,-0.59532 0.602787,-0.59532 0.465349,0 0.704032,-0.57479 0.524219,-1.2624 -0.102397,-0.39156 0.114072,-0.66879 0.877993,-1.12443 0.557641,-0.33261 1.162722,-0.78783 1.344623,-1.01161 0.395018,-0.48595 0.440447,-2.05877 0.06615,-2.2901 -0.384016,-0.23733 -0.324199,-1.63101 0.105606,-2.46053 0.203605,-0.39296 0.980707,-1.30978 1.726893,-2.03738 1.355526,-1.32177 2.665417,-3.58729 2.665417,-4.60997 0,-0.53835 -0.0078,-0.53868 -1.25677,-0.0535 -1.269543,0.49311 -1.918229,0.48496 -1.918229,-0.0241 0,-0.15283 -0.580369,-0.84917 -1.289707,-1.54741 -0.709337,-0.69824 -1.366218,-1.57437 -1.459732,-1.94697 -0.09352,-0.37259 -0.528561,-1.24279 -0.966764,-1.93376 -0.52886,-0.83393 -0.68961,-1.29203 -0.478115,-1.36253 0.175241,-0.0584 0.537472,0.17858 0.804955,0.52666 0.267483,0.34808 0.663265,0.86545 0.879515,1.14971 0.216249,0.28425 0.393181,0.64893 0.393181,0.81039 0,0.16145 0.359087,0.63758 0.79797,1.05806 0.438883,0.42048 0.919723,1.21666 1.06853,1.76929 0.14881,0.55264 0.383247,1.00479 0.520973,1.00479 0.38273,0 2.86276,-1.57815 3.699031,-2.35386 0.789945,-0.73273 1.680607,-2.57134 1.436748,-2.96591 -0.08038,-0.13006 -0.303138,-0.23648 -0.495012,-0.23648 -0.191875,0 -0.490471,-0.17062 -0.663548,-0.37917 -0.268933,-0.32404 -0.394896,-0.29896 -0.866405,0.17255 -0.532489,0.53249 -0.564149,0.53472 -0.908338,0.064 -0.196138,-0.26824 -0.356616,-0.38228 -0.356616,-0.25344 0,0.12885 -0.297945,-0.16958 -0.662101,-0.66316 -0.464587,-0.62971 -0.578718,-0.9805 -0.38259,-1.17588 0.195839,-0.1951 0.423537,-0.0879 0.760629,0.35827 0.328057,0.43417 0.765416,0.64705 1.374775,0.66917 0.491514,0.0178 1.036614,0.12166 1.211331,0.23071 0.315892,0.19716 1.170244,0.11183 2.221738,-0.2219 0.391888,-0.12438 0.842664,0.0601 1.564563,0.64021 0.677455,0.54441 1.054616,0.70651 1.136224,0.48834 0.07533,-0.20141 0.194996,-0.12377 0.312193,0.20257 0.450805,1.25528 2.137304,4.62987 2.313926,4.63004 0.324009,2.6e-4 0.541579,-1.29637 0.382255,-2.27816 -0.153192,-0.94401 0.493127,-4.20117 0.951788,-4.79659 0.191989,-0.24924 0.361759,-0.18568 0.706657,0.26458 0.249674,0.32595 0.536556,0.81803 0.637511,1.09352 0.100957,0.27549 0.267102,0.41735 0.369212,0.31524 0.102114,-0.10211 0.328377,0.20827 0.502812,0.68973 0.206211,0.56918 0.324194,0.69574 0.33728,0.3618 0.01992,-0.50839 0.02432,-0.50839 0.435557,0 0.387946,0.47962 0.405778,0.43039 0.269531,-0.74402 -0.08025,-0.69169 -0.386252,-1.72875 -0.680013,-2.30457 -0.293762,-0.57582 -0.534112,-1.50153 -0.534112,-2.05714 0,-1.26531 -1.493247,-4.44173 -2.993765,-6.36831 -2.685918,-3.44856 -4.832422,-5.4229 -7.740195,-7.11939 -2.274065,-1.32677 -6.688804,-3.03438 -6.325624,-2.44674 0.08661,0.14014 0.322022,0.25481 0.523127,0.25481 0.201104,0 0.450598,0.13746 0.554431,0.30546 0.116967,0.18926 0.07258,0.23365 -0.116676,0.11668 -0.182104,-0.11255 -0.305464,-0.0185 -0.305464,0.23301 0,0.34697 -0.09891,0.36886 -0.557572,0.1234 -0.788411,-0.42195 -1.090078,0.0173 -0.626099,0.91161 0.484388,0.93366 0.483719,0.95567 -0.029,0.95567 -0.23041,0 -0.369671,0.14777 -0.30947,0.32837 0.2165,0.6495 -0.604621,1.0996 -2.263786,1.2409 -0.117729,0.01 -0.156805,0.11086 -0.08684,0.22406 0.06997,0.11321 -0.07933,0.47966 -0.331779,0.81434 -0.411515,0.54556 -0.494829,0.56532 -0.805453,0.19104 -0.29705,-0.35792 -0.266372,-0.41746 0.215104,-0.41746 0.983041,0 0.605734,-0.45381 -0.744498,-0.89545 -1.541367,-0.50415 -2.053481,-0.36545 -3.685734,0.99826 -0.629029,0.52554 -1.247297,0.95552 -1.37393,0.95552 -0.335469,0 -0.830224,1.02441 -0.641912,1.3291 0.104864,0.16968 0.32849,0.16997 0.644488,8.5e-4 0.380475,-0.20362 0.511881,-0.15199 0.614796,0.24156 0.07199,0.27529 0.0085,0.62297 -0.141199,0.77262 -0.1864,0.1864 -0.09731,0.22639 0.282867,0.12697 0.612705,-0.16023 1.527941,-1.36151 1.421945,-1.86636 -0.07993,-0.38071 0.877316,-1.39849 1.31533,-1.39849 0.170527,0 0.08801,0.24042 -0.186693,0.54397 -0.405452,0.44802 -0.436019,0.63406 -0.173299,1.05474 0.423516,0.67816 0.402908,1.04713 -0.05849,1.04713 -0.207611,0 -0.415971,0.19855 -0.463021,0.44123 -0.0622,0.32081 -0.43776,0.47072 -1.37605,0.54929 l -1.290503,0.10805 0.182662,-0.72778 c 0.160323,-0.63878 0.132091,-0.68582 -0.230851,-0.3846 -0.227432,0.18875 -0.413512,0.49331 -0.413512,0.6768 0,0.18349 -0.20836,0.40987 -0.463021,0.50306 -0.254661,0.0932 -0.998802,0.46303 -1.653646,0.82187 -0.654843,0.35885 -1.407489,0.65367 -1.672544,0.65518 -0.432383,0.002 -0.440347,0.0443 -0.07747,0.40718 0.286477,0.28647 0.337993,0.57588 0.176617,0.99218 -0.125306,0.32326 -0.328569,0.57103 -0.451694,0.55059 -0.123125,-0.0204 -0.586772,-0.1139 -1.030327,-0.20772 -0.730753,-0.15456 -0.848738,-0.0819 -1.256771,0.77373 -0.524481,1.09985 -0.569962,1.63612 -0.150615,1.7759 0.504916,0.16831 0.01431,1.10756 -0.828178,1.58554 -0.436937,0.2479 -0.794431,0.63179 -0.794431,0.8531 0,0.22132 -0.345237,0.58092 -0.767194,0.79912 -1.260949,0.65206 -2.581551,2.3917 -2.62146,3.45326 -0.01925,0.51212 -0.15765,1.1603 -0.30755,1.44039 -0.414884,0.77522 -0.333677,1.4049 0.383094,2.97054 0.985293,2.15216 1.813463,2.82153 3.577693,2.89166 0.800365,0.0318 1.832276,-0.0336 2.293138,-0.14529 0.679888,-0.16483 0.928017,-0.0979 1.315572,0.3547 0.262703,0.30682 0.73426,0.55785 1.047903,0.55785 0.881206,0 1.195106,0.55726 0.897813,1.59386 -0.195635,0.68214 -0.163761,1.01868 0.135871,1.43461 0.215307,0.29887 0.582584,0.80704 0.816171,1.12928 0.560539,0.77325 0.98544,2.69395 0.681716,3.0816 -0.573714,0.73223 -0.552613,1.66456 0.05808,2.56611 0.339089,0.50059 0.709703,1.20782 0.823587,1.57162 0.113883,0.3638 0.547412,1.07554 0.963398,1.58164 0.415985,0.5061 0.756337,1.07165 0.756337,1.25677 0,0.47897 2.165644,0.43378 3.372252,-0.0704 z m 3.284106,-7.00137 c 0,-0.3638 0.06005,-0.51263 0.133453,-0.33073 0.0734,0.1819 0.0734,0.47956 0,0.66146 -0.0734,0.1819 -0.133453,0.0331 -0.133453,-0.33073 z m -2.067139,-2.26037 c -0.08617,-0.22456 -0.09756,-0.46741 -0.02529,-0.53966 0.07225,-0.0723 0.194881,0.11147 0.272499,0.40829 0.164875,0.63048 -0.01831,0.72783 -0.2472,0.13137 z m 0.967031,-2.11356 c 0,-0.40034 0.697579,-0.83752 0.943681,-0.59142 0.06991,0.0699 0.05204,0.32274 -0.03972,0.56185 -0.210505,0.54857 -0.903962,0.57125 -0.903962,0.0296 z m -6.422197,-14.41149 c -0.369999,-0.29104 -0.838493,-0.52916 -1.041098,-0.52916 -0.642331,0 -0.982528,-0.54955 -0.738132,-1.19235 0.213346,-0.56115 0.148373,-0.60352 -1.111057,-0.72453 -0.735709,-0.0707 -1.818823,-0.0204 -2.40692,0.11172 -1.173151,0.26359 -1.906487,0.11635 -1.632061,-0.32768 0.0967,-0.15647 0.347943,-0.21844 0.558311,-0.13772 0.217623,0.0835 0.770099,-0.22233 1.281755,-0.70956 1.509045,-1.43701 1.760103,-1.59899 2.578105,-1.66334 0.604772,-0.0476 1.035002,0.17636 1.840308,0.95789 0.635131,0.61637 0.973894,1.14475 0.856119,1.33532 -0.12293,0.1989 -0.0821,0.24563 0.11057,0.12655 0.168005,-0.10383 0.305464,-0.36738 0.305464,-0.58566 0,-0.24872 0.122647,-0.32107 0.328553,-0.19382 0.180704,0.11168 -0.119779,-0.24527 -0.66774,-0.79323 -0.547961,-0.54796 -0.924666,-1.11219 -0.837121,-1.25384 0.179324,-0.29016 1.921237,1.05258 1.950956,1.50387 0.03377,0.51288 0.843414,1.95888 1.096814,1.95888 0.246322,0 0.345534,-0.374 0.264141,-0.99573 -0.06322,-0.48291 0.786749,-0.73598 1.048641,-0.31223 0.121232,0.19616 0.164955,0.4464 0.09716,0.5561 -0.265494,0.42958 1.106029,0.96917 2.208702,0.86896 1.234201,-0.11217 1.398643,0.18567 0.870077,1.57591 -0.240795,0.63334 -0.344385,0.66442 -1.936943,0.58108 -0.925397,-0.0484 -1.933385,-0.22229 -2.239972,-0.38637 -0.649988,-0.34786 -1.389516,-0.14054 -1.389516,0.38954 0,0.52583 -0.612024,0.45538 -1.395114,-0.1606 z m -0.45697,-2.64583 c -0.209852,-0.1297 -0.441081,-0.17628 -0.513841,-0.10352 -0.07276,0.0728 0.0394,0.23841 0.249258,0.3681 0.209853,0.1297 0.441081,0.17628 0.513842,0.10352 0.07276,-0.0728 -0.03941,-0.2384 -0.249259,-0.3681 z m -1.341512,-1.53697 c -0.01661,-0.63575 -0.04295,-0.65532 -0.245987,-0.18282 -0.315872,0.73507 -0.315872,1.25355 0,1.05833 0.14552,-0.0899 0.256215,-0.48392 0.245987,-0.87551 z m 13.352659,0.80937 c -0.1621,-0.52459 -0.292489,-0.75319 -1.01273,-1.77555 -0.559073,-0.79359 -0.350245,-1.52142 0.483584,-1.68544 0.354505,-0.0697 0.411176,0.0475 0.278493,0.57617 -0.140582,0.56012 -0.02864,0.73531 0.71719,1.12239 0.486076,0.25226 0.735107,0.50887 0.553402,0.57023 -0.253069,0.0855 -0.23759,0.24404 0.06615,0.67768 0.552032,0.78814 0.499091,0.97754 -0.273243,0.97754 -0.406974,0 -0.7259,-0.18167 -0.812842,-0.46302 z m -7.248647,-0.97554 c 0,-0.34072 0.230405,-0.90057 0.512011,-1.24411 0.507548,-0.61918 0.515432,-0.62002 0.90441,-0.0959 0.377055,0.50807 0.832537,0.39974 0.832537,-0.19803 0,-0.15764 0.167802,-0.34256 0.372891,-0.41093 0.252664,-0.0842 0.320998,0.0109 0.211939,0.29514 -0.102674,0.26756 0.01312,0.47468 0.31982,0.57202 0.264422,0.0839 0.683761,0.3769 0.93186,0.65105 0.426575,0.47135 0.423365,0.50725 -0.05905,0.66036 -0.28058,0.0891 -0.788607,0.0589 -1.128948,-0.067 -0.393052,-0.1454 -1.034466,-0.10382 -1.758138,0.11398 -1.115949,0.33585 -1.139333,0.33017 -1.139333,-0.27661 z m 9.016722,-2.15537 c 0.0127,-0.30822 0.07539,-0.37092 0.159851,-0.15985 0.07643,0.191 0.06703,0.4192 -0.02088,0.50712 -0.08792,0.0879 -0.150453,-0.0683 -0.138964,-0.34727 z m -9.860081,-4.52431 c 0.190995,-0.0764 0.419198,-0.067 0.507119,0.0209 0.08792,0.0879 -0.06835,0.15046 -0.347266,0.13897 -0.308226,-0.0127 -0.370919,-0.0754 -0.159853,-0.15985 z m 6.630442,-3.45728 c -0.329107,-0.41965 -0.319749,-0.429 0.0999,-0.0999 0.44073,0.34564 0.580887,0.56291 0.363125,0.56291 -0.05494,0 -0.2633,-0.20836 -0.463021,-0.46302 z m 1.801797,37.29763 c 0.406537,-0.25853 1.935641,-3.49098 1.935911,-4.09243 2.56e-4,-0.56919 -0.416066,-0.60968 -0.626634,-0.0609 -0.08486,0.22114 -0.57385,0.64962 -1.086641,0.95217 -0.700873,0.41353 -0.932349,0.72754 -0.932349,1.2648 0,0.39309 -0.134872,0.84957 -0.299715,1.01442 -0.643454,0.64345 0.21477,1.42733 1.009428,0.92198 z m -30.598238,-6.37119 c -0.232515,-1.1015 -0.238553,-1.69096 -0.02309,-2.2541 0.377588,-0.98687 0.19861,-1.49468 -1.316418,-3.73504 -1.196717,-1.76966 -1.26683,-1.97651 -1.569533,-4.63053 -0.174271,-1.52797 -0.344262,-3.01625 -0.377758,-3.3073 -0.0335,-0.29104 -0.160801,0.42334 -0.282901,1.5875 -0.417035,3.97626 0.630467,9.37918 2.561448,13.21171 0.676457,1.3426 0.829582,1.50117 1.057074,1.09467 0.181613,-0.32453 0.166122,-0.94865 -0.04882,-1.96691 z m 46.671931,-8.7361 c -0.107699,-0.52665 -0.171278,-1.25925 -0.141288,-1.62801 0.02999,-0.36876 -0.141348,-1.0236 -0.380751,-1.45521 -0.381402,-0.6876 -0.412816,-0.70286 -0.253796,-0.12327 0.09982,0.3638 0.238318,1.01864 0.307784,1.45521 0.097,0.60958 0.0615,0.70166 -0.152974,0.39687 -0.354219,-0.50337 -0.378518,0.0161 -0.03964,0.84745 0.136255,0.33427 0.336788,1.08401 0.445627,1.66609 0.156096,0.83483 0.220374,0.9253 0.304371,0.42837 0.05857,-0.34649 0.01836,-1.06086 -0.08933,-1.5875 z M 65.796056,128.818 c -0.236024,-0.61506 -0.623964,-0.29696 -0.449847,0.36886 0.08454,0.32328 0.239998,0.44928 0.380711,0.30857 0.130802,-0.13081 0.161915,-0.43565 0.06914,-0.67743 z m -27.32853,-15.78847 c -0.05252,-0.21828 -0.126573,-0.75406 -0.164553,-1.19062 -0.07901,-0.90819 -0.489037,-0.97126 -0.624372,-0.096 -0.04987,0.32251 -0.277823,0.87202 -0.506563,1.22111 -0.413136,0.63053 -0.409909,0.63416 0.487549,0.54857 0.643689,-0.0614 0.87598,-0.20026 0.807939,-0.48303 z m -1.612166,-0.55182 c 0.162431,-0.30351 0.248733,-0.59843 0.191784,-0.65538 -0.160046,-0.16004 -1.262245,0.67616 -1.262245,0.95762 0,0.46924 0.77463,0.25052 1.070461,-0.30224 z m -10.56285,-1.4431 c 0.208535,0.0749 0.647049,-0.25935 1.025723,-0.7819 0.657367,-0.90713 1.058333,-1.16137 1.058333,-0.67106 0,0.47081 0.882343,-0.0749 1.989571,-1.23044 0.602773,-0.62908 1.046355,-1.19339 0.985738,-1.25401 -0.126112,-0.12611 0.991193,-0.79916 1.390316,-0.83751 0.667236,-0.0641 1.889205,-0.4739 2.248958,-0.75419 0.218281,-0.17007 0.901525,-0.54103 1.518319,-0.82436 0.616794,-0.28333 1.122809,-0.60444 1.124479,-0.71358 0.0057,-0.37117 -1.448334,-0.18856 -2.576652,0.3236 -1.208269,0.54845 -1.48058,0.84446 -0.553939,0.60214 0.390909,-0.10223 0.510946,-0.0528 0.38126,0.15706 -0.104104,0.16844 -0.413352,0.30626 -0.687217,0.30626 -0.273865,0 -0.571521,0.11906 -0.661458,0.26458 -0.08994,0.14552 -0.350244,0.26458 -0.578459,0.26458 -1.075342,0 -3.973366,1.80433 -5.876327,3.65863 -1.106534,1.07824 -1.818612,1.82519 -1.582395,1.65988 0.236217,-0.1653 0.593404,-0.24166 0.79375,-0.16968 z m 8.985271,-6.28203 c 0.06063,-0.0412 0.348368,-0.24953 0.63941,-0.46302 0.48948,-0.35904 0.501933,-0.35342 0.16604,0.0749 -0.199719,0.25466 -0.487453,0.46302 -0.639409,0.46302 -0.151956,0 -0.226675,-0.0337 -0.166041,-0.0749 z m -6.909629,5.57328 c 0.0046,-0.10458 -0.17018,-0.1216 -0.388461,-0.0378 -0.218281,0.0838 -0.396875,0.40044 -0.396875,0.70372 0,0.54167 0.0069,0.54234 0.388461,0.0378 0.213653,-0.28247 0.392246,-0.59915 0.396875,-0.70372 z m 9.525999,-1.78406 c 0.333627,-0.21099 0.324144,-0.27136 -0.06615,-0.42113 -0.542695,-0.20825 -1.249356,0.0195 -1.249356,0.40264 0,0.33839 0.792057,0.34952 1.315502,0.0185 z m -3.88205,-0.71342 c 0.780198,-0.40418 1.271903,-0.51999 3.095715,-0.72912 0.866049,-0.0993 1.423784,-0.25228 1.5875,-0.43542 0.267302,-0.29901 2.722464,-1.57181 3.031935,-1.57181 0.1757,0 0.319453,-0.17859 0.319453,-0.39687 0,-0.21828 -0.214544,-0.39687 -0.476765,-0.39687 -0.295145,0 -0.423741,-0.13819 -0.337572,-0.36274 0.07656,-0.1995 -0.04754,-0.43439 -0.275781,-0.52197 -0.455821,-0.17492 -2.095333,0.0805 -1.882555,0.29328 0.232082,0.23208 -1.048801,1.08078 -2.925478,1.93839 -1.715992,0.78418 -3.27407,1.92949 -3.27407,2.4067 0,0.3072 0.182133,0.27141 1.137618,-0.22357 z m 14.765585,-0.86123 c -0.215995,-0.13677 -0.30843,-0.46381 -0.223207,-0.7897 0.141361,-0.54057 -0.166167,-0.77754 -0.438079,-0.33758 -0.254275,0.41143 0.165084,1.36884 0.597794,1.36478 0.35211,-0.003 0.363871,-0.0473 0.06349,-0.2375 z m -4.538476,-1.56576 c -0.655958,-0.10212 -0.904673,0.0709 -0.663331,0.46137 0.11628,0.18815 0.339886,0.1726 0.698315,-0.0485 0.521188,-0.32156 0.520786,-0.32632 -0.03498,-0.41283 z m -5.610076,-2.05123 c -0.252137,-0.25214 -0.757632,0.15626 -0.56973,0.46029 0.111686,0.18072 0.25968,0.17615 0.449698,-0.0139 0.155775,-0.15577 0.20979,-0.35666 0.120032,-0.44642 z"
         style="fill:#93c7e6;fill-opacity:1;stroke-width:0.26458332" />
      <path
         inkscape:connector-curvature="0"
         id="path831"
         d="m -163.46478,94.763183 c -0.46806,-0.173737 -0.92852,-0.484635 -1.02324,-0.690885 -0.88682,-1.931047 -1.50616,-2.95212 -3.02063,-4.979952 -2.16388,-2.897368 -2.78759,-3.950523 -3.84044,-6.484765 -0.45351,-1.091608 -1.50809,-3.1162 -2.34349,-4.499093 -0.83541,-1.382892 -1.69381,-3.029447 -1.90755,-3.659007 -0.73085,-2.152658 -0.37696,-4.63985 0.91862,-6.4562 0.47487,-0.66576 0.56153,-1.087653 0.52966,-2.578815 -0.0458,-2.141558 -0.8383,-5.3786 -1.85174,-7.563355 -0.40723,-0.877903 -1.5666,-2.734153 -2.57638,-4.125 -1.00978,-1.390848 -1.96484,-2.774543 -2.12237,-3.074878 -0.38643,-0.73676 -0.34663,-2.630765 0.0936,-4.453935 0.45982,-1.904332 0.46419,-3.165632 0.0147,-4.241425 -0.43068,-1.030767 -1.33554,-1.532607 -3.34771,-1.856657 -1.8978,-0.30563 -2.32363,-0.531253 -4.11201,-2.17868 -1.76075,-1.621973 -2.39474,-1.7655 -5.31977,-1.204313 -3.24387,0.622355 -9.95296,0.630863 -11.99021,0.01521 -4.30989,-1.302445 -6.99309,-4.21228 -9.9442,-10.784133 -2.13347,-4.751042 -2.61415,-7.332732 -1.7688,-9.5 1.06202,-2.72275 1.31839,-3.674937 1.54941,-5.754877 0.13776,-1.2401853 0.49259,-2.8691678 0.78853,-3.6199628 1.33307,-3.3820325 5.35921,-8.01577501 8.63388,-9.9368725 2.01373,-1.18136 3.2296,-2.378245 3.47567,-3.4214125 0.20506,-0.8693075 1.42389,-2.09129 3.64695,-3.6563825 1.88234,-1.3252097 2.98043,-2.7828447 3.17191,-4.2104777 0.12534,-0.934462 0.0756,-1.04537 -0.65332,-1.45577 -1.44822,-0.815417 -1.34869,-2.42538 0.37487,-6.063865 1.82871,-3.860447 1.98537,-3.9325 6.51008,-2.994207 l 2.46502,0.511172 0.69183,-0.819417 c 1.59378,-1.887695 1.53138,-4.096408 -0.16037,-5.676768 -0.78808,-0.736185 -0.6459,-1.02616 0.50315,-1.02616 0.48406,0 1.63055,-0.300192 2.54775,-0.667092 2.08027,-0.832158 10.77169,-5.237018 11.33038,-5.742303 0.22701,-0.20531 0.48316,-0.748622 0.56922,-1.207362 0.17072,-0.91003 1.87702,-3.01983 2.31176,-2.85844 0.18121,0.06727 0.0865,0.860097 -0.28839,2.412697 -0.30706,1.271875 -0.49013,2.310193 -0.40681,2.30737 0.0833,-0.0028 1.78273,-0.164297 3.77648,-0.35884 4.47222,-0.43638 5.43046,-0.729982 6.15548,-1.88603 0.87057,-1.388125 1.53157,-2 2.16059,-2 1.43667,0 1.54678,-1.324702 0.30893,-3.716677 -0.48125,-0.92995 -0.875,-1.869235 -0.875,-2.0873 0,-0.218065 0.50625,-1.069942 1.125,-1.893062 1.05836,-1.40793 1.4472,-2.552961 0.86697,-2.552961 -0.71683,0 -2.03473,0.821567 -3.17322,1.978155 -1.43477,1.457575 -2.06875,2.608458 -2.06875,3.755438 0,2.28261 -3.8865,6.766407 -5.86504,6.766407 -0.47475,0 -0.47489,0.0071 0.0199,-0.984812 0.45857,-0.919213 0.36517,-2.763555 -0.17277,-3.411728 -0.36812,-0.443557 -1.33719,-0.381122 -2.67598,0.172403 -1.70777,0.706077 -2.20967,-0.880108 -1.01661,-3.21286 0.48666,-0.951555 0.87906,-1.324465 1.97155,-1.873638 0.75019,-0.377099 2.93896,-1.929999 4.86395,-3.450889 1.92499,-1.52089 4.23123,-3.181105 5.12498,-3.689365 1.55904,-0.8866 1.7214,-0.92411 4,-0.9241 1.96166,1e-5 2.74483,0.125723 4.5,0.72233 4.88549,1.660652 6.44857,3.137385 3.33295,3.148831 -2.04132,0.0075 -2.29633,0.458669 -1.05705,1.870129 1.11357,1.268291 1.73592,1.177787 2.9486,-0.428801 1.11717,-1.480036 1.5255,-2.396818 1.5255,-3.425015 0,-0.691154 0.0399,-0.710791 2.03409,-1.002388 3.07612,-0.449788 5.05636,-1.143195 6.11437,-2.141032 0.86345,-0.814334 0.91033,-0.93595 0.76621,-1.987429 -0.17412,-1.27033 0.17503,-1.631636 1.57674,-1.631636 0.47266,0 0.8329,-0.152754 0.92475,-0.392125 0.0828,-0.215669 -0.30919,-1.368794 -0.87101,-2.5625 -1.23544,-2.624988 -1.42319,-3.338999 -1.05761,-4.02209 0.3627,-0.677721 1.4615,-0.686983 2.76246,-0.02329 0.53904,0.275 1.25143,0.5 1.58309,0.5 0.51285,0 0.62756,-0.153575 0.76727,-1.027246 0.13012,-0.813712 0.25368,-1.001934 0.59445,-0.905476 0.2366,0.06697 0.58488,0.163608 0.77394,0.214746 0.62074,0.167896 0.55825,-0.436837 -0.11467,-1.109759 -0.36306,-0.363066 -1.06939,-0.733911 -1.5696,-0.824099 -1.09362,-0.197179 -1.78448,-0.52895 -1.78448,-0.856962 0,-0.411849 0.90222,-0.270514 3.43451,0.538024 5.1406,1.64135 13.74669,5.383546 18.61102,8.092651 10.919835,6.081609 20.189457,14.392539 29.781745,26.701626 3.124357,4.009263 5.298032,7.506265 7.801785,12.551495 2.6358,5.311315 3.762857,8.641903 4.246585,12.549155 0.42088,3.3996252 0.800967,4.8142252 2.136305,7.9508452 0.526835,1.2375 1.237652,3.21843 1.579592,4.40206499 0.62296,2.15639251 1.341458,7.12326751 1.069743,7.39498501 -0.07957,0.07957 -0.634113,-0.39593 -1.232315,-1.056665 -1.10015,-1.2151575 -1.67897,-1.3288525 -1.67897,-0.3297975 0,0.8503125 -0.540875,0.3848875 -1.045425,-0.8995925 -0.69219,-1.76218 -1.379673,-2.636165 -2.020163,-2.5682 -0.435287,0.04619 -0.734637,-0.303805 -1.554762,-1.81779501 -2.714613,-5.01131749 -4.201285,-6.05978499 -5.363153,-3.78233749 -0.69358,1.3595275 -1.686005,4.928595 -2.442042,8.7823375 -0.583973,2.97668 -0.665898,4.024115 -0.69416,8.8749998 -0.03193,5.480253 -0.214945,6.968545 -0.984725,8.007725 -0.362415,0.48925 -0.366933,0.489203 -0.73528,-0.0077 -1.168083,-1.575835 -6.095793,-11.5189 -7.803828,-15.7464548 -0.783847,-1.9401025 -1.538585,-2.8668175 -1.784437,-2.191045 -0.141565,0.3891175 -0.929588,0.4032925 -1.65096,0.029695 -0.300335,-0.1555425 -1.513388,-0.9979075 -2.695673,-1.871925 -3.42052,-2.52865251 -4.312507,-2.74147251 -7.725392,-1.8432 -3.10395,0.8169575 -4.93124,0.897145 -6.67696,0.2930025 -0.82604,-0.28587 -2.58145,-0.63020751 -3.9009,-0.76519751 -2.97362,-0.3042225 -3.82625,-0.701315 -5.79418,-2.69850749 -1.71056,-1.7359925 -2.37781,-1.9455475 -3.02924,-0.9513425 -0.38451,0.5868275 -0.38345,0.7069 0.0154,1.7512175 0.73068,1.91324499 3.57756,5.47139 4.18972,5.23648 0.18835,-0.072275 0.74108,0.3617325 1.27662,1.0024075 0.52111,0.6234175 1.16076,1.12987 1.42702,1.12987 0.26542,0 1.22741,-0.675 2.13777,-1.5 0.91035,-0.825 1.75602,-1.5 1.87926,-1.5 0.12324,0 0.64627,0.377515 1.16229,0.83892 1.13664,1.016335 1.66288,1.2956375 2.8414,1.5080625 0.49675,0.089538 1.10631,0.387255 1.35459,0.661595 0.40194,0.4441425 0.41877,0.640195 0.15356,1.789135 -0.4119,1.7844325 -2.28806,5.5036253 -3.75933,7.4522873 -1.32598,1.756213 -3.058,3.238368 -6.777,5.799318 -2.87765,1.98159 -7.38381,4.611075 -8.27255,4.827295 -0.83032,0.202005 -1.17463,-0.30597 -2.21754,-3.27168 -1.0501,-2.986173 -2.31441,-5.04476 -4.69934,-7.651605 -1.09273,-1.19442 -2.11589,-2.516295 -2.27368,-2.9375 -0.15779,-0.421205 -0.42373,-1.129138 -0.59097,-1.573183 -0.40606,-1.0780973 -4.3651,-6.3575798 -5.5343,-7.3801448 -0.60043,-0.5251225 -1.19121,-0.8125 -1.67032,-0.8125 -0.6588,0 -0.7413,0.084388 -0.7413,0.75831 0,0.8249925 0.7041,2.340975 2.29276,4.936545 1.32243,2.1605978 2.77628,5.0523828 3.46315,6.8883928 0.68969,1.84355 2.29609,3.9664 5.90566,7.80431 3.22653,3.43064 4.22574,4.70141 4.47375,5.689557 0.0947,0.37734 0.40384,0.810045 0.68696,0.961568 0.89908,0.481172 3.45179,0.04612 6.75497,-1.15124 4.33633,-1.57186 4.27999,-1.572753 4.37398,0.06921 0.0917,1.602118 -0.37427,3.12073 -1.89273,6.168345 -2.21632,4.448218 -4.32441,7.316878 -8.90736,12.12101 -5.64075,5.912985 -6.64906,7.723433 -6.82475,12.25399 -0.10481,2.703073 -0.0853,2.784738 1.04861,4.39303 0.68682,0.974128 0.83179,4.26771 0.27253,6.19149 -0.5578,1.91877 -1.22472,2.60574 -4.93786,5.086385 -4.21252,2.814253 -4.30358,2.93187 -4.12612,5.329095 0.0864,1.167188 0.026,2.202128 -0.15987,2.741563 -0.29135,0.845297 -0.54608,1.03678 -2.43182,1.827972 -0.71514,0.300045 -1.09372,0.761768 -1.99002,2.427048 -1.47582,2.742017 -3.31316,4.406765 -6.62684,6.004332 -1.375,0.662905 -3.23125,1.39103 -4.125,1.618055 -2.15001,0.54613 -7.58208,0.746525 -8.72602,0.321915 z m 24.62677,-26.579457 c 0.16503,-0.657518 -0.0137,-2.307725 -0.27864,-2.572663 -0.0821,-0.08211 -0.25395,0.0162 -0.38187,0.218475 -0.26703,0.42225 -0.32312,2.576543 -0.0736,2.826093 0.32262,0.322627 0.57545,0.160095 0.73407,-0.471905 z m -7.40074,-8.869458 c 0,-1.26283 -0.59999,-2.74197 -1.11224,-2.74197 -0.56649,0 -0.50066,1.548628 0.11732,2.75996 0.64537,1.265033 0.99492,1.258713 0.99492,-0.018 z m 5.29618,-7.710405 c 0.71214,-0.636295 0.80548,-0.87211 0.81644,-2.0625 0.0118,-1.286435 -0.0173,-1.347477 -0.68042,-1.423682 -0.80459,-0.09246 -2.30536,0.750492 -2.72193,1.528857 -0.41126,0.768443 -0.30933,1.985033 0.19735,2.355525 0.7,0.511853 1.52373,0.374528 2.38856,-0.3982 z m -22.12056,-53.5940648 c 0.13026,-0.171875 0.37616,-0.799345 0.54645,-1.394375 0.25304,-0.8842125 0.47563,-1.15124 1.21827,-1.4615375 0.99191,-0.4144475 2.39667,-0.306045 3.5234,0.2718975 2.29788,1.1786675 12.33654,2.1258825 14.50795,1.3689225 0.91555,-0.3191625 1.45614,-1.2348025 2.25014,-3.8112425 0.6528,-2.118255 0.6641,-2.93766 0.051,-3.6959702 -0.4511,-0.55791 -0.68017,-0.598502 -4.1875,-0.742072 -3.92521,-0.160675 -5.58988,-0.521788 -7.10738,-1.54178 -0.78024,-0.524443 -0.86355,-0.702455 -0.9779,-2.08944 -0.0687,-0.833885 -0.2734,-1.694718 -0.45478,-1.91296 -0.7554,-0.908943 -3.25114,-0.695565 -3.79714,0.324642 -0.13644,0.25495 -0.24808,1.209585 -0.24808,2.121415 0,1.76506 -0.28902,2.625 -0.88223,2.625 -0.765,0 -3.17553,-4.076055 -3.94715,-6.674372 -0.2121,-0.7142 -0.63508,-1.635945 -0.93996,-2.048323 -1.16242,-1.572257 -5.33852,-4.527305 -6.39803,-4.527305 -0.59571,0 -0.35482,1.25265 0.4721,2.454955 0.44261,0.643525 1.69561,2.09817 2.78446,3.232545 1.56345,1.628825 1.86972,2.0625 1.45659,2.0625 -0.40861,0 -0.55911,0.205225 -0.68751,0.9375 -0.30507,1.73978 -1.35827,2.790728 -1.35827,1.35536 0,-1.023705 -1.24689,-2.752812 -3.54217,-4.912047 -2.58817,-2.43476 -3.80263,-3.141485 -5.69301,-3.312898 -3.06373,-0.27781 -4.64333,0.529753 -9.33944,4.774755 -3.98444,3.601695 -4.62047,4.00107 -6.44684,4.048105 -1.61678,0.04164 -2.22854,0.380448 -2.22854,1.234225 0,1.399458 1.70049,1.630678 6.40204,0.87051 2.93937,-0.47525 4.08752,-0.54124 7.47296,-0.4295 4.44066,0.14657 6.02462,0.495843 5.96253,1.31478 -0.0206,0.271815 -0.17896,1.11486 -0.35189,1.8734302 -0.27415,1.20263 -0.26084,1.49212 0.10401,2.260985 0.46641,0.98287 1.54172,1.734795 2.48089,1.734795 0.90071,0 2.08068,0.55099 4.01211,1.87347 2.82951,1.93741 4.7542,2.5908775 5.34297,1.81403 z m 43.84081,-12.9462952 c 0.7532,-0.403097 0.57911,-1.261867 -0.63608,-3.13778 -1.18734,-1.83292 -1.36332,-2.46053 -0.75535,-2.693832 0.95185,-0.365258 0.15094,-1.33877 -2.25307,-2.738638 -2.50015,-1.45585 -2.56951,-1.594452 -2.24338,-4.483455 l 0.1905,-1.6875 h -0.93425 c -1.96635,0 -3.63181,1.443785 -3.63387,3.150195 -0.001,1.263718 0.4855,2.329143 2.3156,5.065648 0.95298,1.424962 2.03152,3.337462 2.39677,4.25 0.53855,1.3455 0.82929,1.741792 1.5379,2.09627 0.97081,0.485637 3.2523,0.5874 4.01523,0.179092 z m -28.32157,-4.009975 c 3.10325,-0.833785 4.74192,-0.88225 8.07553,-0.238842 1.42629,0.275282 1.8341,0.262715 3.0625,-0.09439 1.06795,-0.310457 1.41711,-0.52666 1.41711,-0.87747 0,-0.716772 -2.53733,-3.129702 -4.08974,-3.889222 -1.82939,-0.895038 -1.98175,-1.108888 -1.77453,-2.490695 0.16647,-1.11011 0.15334,-1.140608 -0.49114,-1.140608 -1.04297,0 -1.86039,0.68399 -2.04573,1.71182 -0.40501,2.245968 -1.1356,2.344258 -3.01347,0.405423 -1.53223,-1.58197 -1.69144,-1.574035 -3.17419,0.158217 -1.88538,2.202653 -2.82736,5.538893 -1.98688,7.03704 0.18765,0.334495 1.10668,0.201628 4.02054,-0.58127 z m 30.71545,-8.358112 c 0.23917,-0.623265 -0.147,-2.123118 -0.54664,-2.123118 -0.26974,0 -0.36367,0.32286 -0.36367,1.25 0,0.95583 0.0901,1.25 0.38284,1.25 0.21057,0 0.44793,-0.169597 0.52747,-0.376882 z m -36.19078,-17.598995 c 0.56496,-0.357845 0.0665,-0.774395 -0.92179,-0.770295 -1.06316,0.0044 -1.68844,0.31627 -1.44002,0.718222 0.20306,0.328555 1.86736,0.36525 2.36181,0.05207 z m 25.28047,-12.244007 c 0,-0.260587 -0.52894,-0.892968 -1.1875,-1.419726 -1.86183,-1.489216 -1.8125,-1.460828 -1.8125,-1.043039 0,0.49972 2.19692,2.932649 2.64817,2.932649 0.1935,0 0.35183,-0.211448 0.35183,-0.469884 z"
         style="color:#000000;clip-rule:nonzero;display:inline;overflow:visible;visibility:visible;opacity:1;isolation:auto;mix-blend-mode:normal;color-interpolation:sRGB;color-interpolation-filters:linearRGB;solid-color:#000000;solid-opacity:1;vector-effect:none;fill:#c6e9af;fill-opacity:1;fill-rule:evenodd;stroke:#ff6600;stroke-width:0.25;stroke-linecap:round;stroke-linejoin:miter;stroke-miterlimit:4;stroke-dasharray:none;stroke-dashoffset:0;stroke-opacity:1;marker:none;paint-order:markers stroke fill;color-rendering:auto;image-rendering:auto;shape-rendering:auto;text-rendering:auto;enable-background:accumulate"
         transform="matrix(0.26458333,0,0,0.26458333,85.989586,122.75297)" />
      <path
         inkscape:connector-curvature="0"
         id="path833"
         d="m -185.23875,-35.112797 c 0,-0.142154 0.49918,-1.199287 1.1093,-2.349184 0.61011,-1.149896 1.33051,-2.919604 1.60089,-3.932684 0.27038,-1.01308 0.66107,-2.01144 0.86821,-2.218579 0.33549,-0.335489 0.41715,-0.298145 0.7478,0.341963 0.20415,0.395218 0.4909,1.674829 0.63723,2.843579 0.14633,1.16875 0.34213,2.658762 0.43511,3.311137 0.16851,1.182352 0.16615,1.187347 -0.73925,1.565646 -1.13444,0.474 -4.65929,0.805449 -4.65929,0.438122 z"
         style="color:#000000;clip-rule:nonzero;display:inline;overflow:visible;visibility:visible;opacity:1;isolation:auto;mix-blend-mode:normal;color-interpolation:sRGB;color-interpolation-filters:linearRGB;solid-color:#000000;solid-opacity:1;vector-effect:none;fill:#c6e9af;fill-opacity:1;fill-rule:evenodd;stroke:#ff6600;stroke-width:0.25;stroke-linecap:round;stroke-linejoin:miter;stroke-miterlimit:4;stroke-dasharray:none;stroke-dashoffset:0;stroke-opacity:1;marker:none;paint-order:markers stroke fill;color-rendering:auto;image-rendering:auto;shape-rendering:auto;text-rendering:auto;enable-background:accumulate"
         transform="matrix(0.26458333,0,0,0.26458333,85.989586,122.75297)" />
      <path
         inkscape:connector-curvature="0"
         id="path835"
         d="m -189.32208,-37.094369 c -0.41323,-0.413229 -0.074,-1.101563 1.0703,-2.171954 1.27482,-1.192444 2.88274,-2.125001 3.1695,-1.838239 0.3263,0.326293 -1.2801,3.050953 -2.13094,3.61436 -0.8313,0.550468 -1.77677,0.727932 -2.10886,0.395833 z"
         style="color:#000000;clip-rule:nonzero;display:inline;overflow:visible;visibility:visible;opacity:1;isolation:auto;mix-blend-mode:normal;color-interpolation:sRGB;color-interpolation-filters:linearRGB;solid-color:#000000;solid-opacity:1;vector-effect:none;fill:#c6e9af;fill-opacity:1;fill-rule:evenodd;stroke:#ff6600;stroke-width:0.25;stroke-linecap:round;stroke-linejoin:miter;stroke-miterlimit:4;stroke-dasharray:none;stroke-dashoffset:0;stroke-opacity:1;marker:none;paint-order:markers stroke fill;color-rendering:auto;image-rendering:auto;shape-rendering:auto;text-rendering:auto;enable-background:accumulate"
         transform="matrix(0.26458333,0,0,0.26458333,85.989586,122.75297)" />
      <path
         inkscape:connector-curvature="0"
         id="path837"
         d="m -240.3108,65.357466 c -0.35118,-0.530658 -1.27027,-2.224553 -2.04244,-3.76421 -5.52782,-11.022165 -8.95242,-24.218715 -9.89914,-38.145958 -0.44591,-6.55986 0.26025,-16.478454 1.11125,-15.6083331 0.0583,0.059583 0.51258,3.5958331 1.00958,7.8583331 1.53806,13.191253 1.41527,12.82326 7.22951,21.66596 2.70372,4.11199 4.31127,7.23302 4.55185,8.837313 0.12039,0.80286 -0.0126,1.66914 -0.52217,3.400982 -0.60256,2.04794 -0.66622,2.592075 -0.53637,4.584738 0.081,1.243555 0.37743,3.418122 0.65866,4.832372 0.61202,3.077795 0.66073,5.539543 0.1299,6.56605 -0.50954,0.985338 -0.92515,0.929473 -1.69063,-0.227247 z"
         style="color:#000000;clip-rule:nonzero;display:inline;overflow:visible;visibility:visible;opacity:1;isolation:auto;mix-blend-mode:normal;color-interpolation:sRGB;color-interpolation-filters:linearRGB;solid-color:#000000;solid-opacity:1;vector-effect:none;fill:#c6e9af;fill-opacity:1;fill-rule:evenodd;stroke:#ff6600;stroke-width:0.25;stroke-linecap:round;stroke-linejoin:miter;stroke-miterlimit:4;stroke-dasharray:none;stroke-dashoffset:0;stroke-opacity:1;marker:none;paint-order:markers stroke fill;color-rendering:auto;image-rendering:auto;shape-rendering:auto;text-rendering:auto;enable-background:accumulate"
         transform="matrix(0.26458333,0,0,0.26458333,85.989586,122.75297)" />
      <path
         inkscape:connector-curvature="0"
         id="path839"
         d="m -125.91505,82.773528 c -1.57453,-0.412095 -2.04412,-2.1044 -0.97964,-3.53041 0.72806,-0.975329 1.07043,-2.067057 1.2882,-4.10766 0.20217,-1.894412 0.79654,-2.844865 2.49274,-3.986103 3.27489,-2.203416 4.25698,-3.030153 5.02845,-4.233015 0.88288,-1.376567 1.37128,-1.719316 1.81609,-1.274506 0.86371,0.863715 -0.30708,4.612262 -3.37489,10.805464 -2.35266,4.749493 -3.22818,5.97185 -4.50808,6.293955 -0.55481,0.139627 -1.30053,0.15328 -1.76287,0.03227 z"
         style="color:#000000;clip-rule:nonzero;display:inline;overflow:visible;visibility:visible;opacity:1;isolation:auto;mix-blend-mode:normal;color-interpolation:sRGB;color-interpolation-filters:linearRGB;solid-color:#000000;solid-opacity:1;vector-effect:none;fill:#c6e9af;fill-opacity:1;fill-rule:evenodd;stroke:#ff6600;stroke-width:0.25;stroke-linecap:round;stroke-linejoin:miter;stroke-miterlimit:4;stroke-dasharray:none;stroke-dashoffset:0;stroke-opacity:1;marker:none;paint-order:markers stroke fill;color-rendering:auto;image-rendering:auto;shape-rendering:auto;text-rendering:auto;enable-background:accumulate"
         transform="matrix(0.26458333,0,0,0.26458333,85.989586,122.75297)" />
      <path
         inkscape:connector-curvature="0"
         id="path841"
         d="m -63.194587,28.883937 c -0.31946,-1.477651 -0.966335,-3.85543 -1.4375,-5.283953 -1.118655,-3.391649 -1.113287,-4.278116 0.01834,-3.027686 0.248872,0.275 0.56052,0.5 0.692553,0.5 0.300487,0 0.05825,-2.115415 -0.58467,-5.105802 -0.471951,-2.195168 -0.466392,-2.727707 0.02336,-2.237953 0.703779,0.70378 1.321788,3.352591 1.509261,6.468755 0.107538,1.7875 0.378126,4.420903 0.601306,5.852006 0.426598,2.735483 0.430461,5.302407 0.0082,5.439882 -0.1375,0.04476 -0.511377,-1.127598 -0.830837,-2.605249 z"
         style="color:#000000;clip-rule:nonzero;display:inline;overflow:visible;visibility:visible;opacity:1;isolation:auto;mix-blend-mode:normal;color-interpolation:sRGB;color-interpolation-filters:linearRGB;solid-color:#000000;solid-opacity:1;vector-effect:none;fill:#c6e9af;fill-opacity:1;fill-rule:evenodd;stroke:#ff6600;stroke-width:0.25;stroke-linecap:round;stroke-linejoin:miter;stroke-miterlimit:4;stroke-dasharray:none;stroke-dashoffset:0;stroke-opacity:1;marker:none;paint-order:markers stroke fill;color-rendering:auto;image-rendering:auto;shape-rendering:auto;text-rendering:auto;enable-background:accumulate"
         transform="matrix(0.26458333,0,0,0.26458333,85.989586,122.75297)" />
      <path
         inkscape:connector-curvature="0"
         id="path843"
         d="m -77.495634,25.189003 c -0.406392,-0.489672 -0.591839,-2.627946 -0.269442,-3.106764 0.211194,-0.313661 0.317659,-0.300029 0.756174,0.09682 0.638809,0.578114 0.920701,1.988965 0.556924,2.787369 -0.3195,0.701224 -0.597251,0.760459 -1.043656,0.222573 z"
         style="color:#000000;clip-rule:nonzero;display:inline;overflow:visible;visibility:visible;opacity:1;isolation:auto;mix-blend-mode:normal;color-interpolation:sRGB;color-interpolation-filters:linearRGB;solid-color:#000000;solid-opacity:1;vector-effect:none;fill:#c6e9af;fill-opacity:1;fill-rule:evenodd;stroke:#ff6600;stroke-width:0.25;stroke-linecap:round;stroke-linejoin:miter;stroke-miterlimit:4;stroke-dasharray:none;stroke-dashoffset:0;stroke-opacity:1;marker:none;paint-order:markers stroke fill;color-rendering:auto;image-rendering:auto;shape-rendering:auto;text-rendering:auto;enable-background:accumulate"
         transform="matrix(0.26458333,0,0,0.26458333,85.989586,122.75297)" />
      <path
         inkscape:connector-curvature="0"
         id="path845"
         d="m -186.17713,-53.299226 c -0.45358,-0.328535 -0.51304,-0.502115 -0.30509,-0.89068 0.62079,-1.159957 2.91819,-1.58933 4.64449,-0.868035 1.02686,0.429051 0.94444,0.693839 -0.43508,1.397615 -1.40235,0.715425 -3.18722,0.880503 -3.90432,0.3611 z"
         style="color:#000000;clip-rule:nonzero;display:inline;overflow:visible;visibility:visible;opacity:1;isolation:auto;mix-blend-mode:normal;color-interpolation:sRGB;color-interpolation-filters:linearRGB;solid-color:#000000;solid-opacity:1;vector-effect:none;fill:#c6e9af;fill-opacity:1;fill-rule:evenodd;stroke:#ff6600;stroke-width:0.25;stroke-linecap:round;stroke-linejoin:miter;stroke-miterlimit:4;stroke-dasharray:none;stroke-dashoffset:0;stroke-opacity:1;marker:none;paint-order:markers stroke fill;color-rendering:auto;image-rendering:auto;shape-rendering:auto;text-rendering:auto;enable-background:accumulate"
         transform="matrix(0.26458333,0,0,0.26458333,85.989586,122.75297)" />
    </g>
    <path
       style="color:#000000;font-style:normal;font-variant:normal;font-weight:normal;font-stretch:normal;font-size:medium;line-height:normal;font-family:sans-serif;font-variant-ligatures:normal;font-variant-position:normal;font-variant-caps:normal;font-variant-numeric:normal;font-variant-alternates:normal;font-feature-settings:normal;text-indent:0;text-align:start;text-decoration:none;text-decoration-line:none;text-decoration-style:solid;text-decoration-color:#000000;letter-spacing:normal;word-spacing:normal;text-transform:none;writing-mode:lr-tb;direction:ltr;text-orientation:mixed;dominant-baseline:auto;baseline-shift:baseline;text-anchor:start;white-space:normal;shape-padding:0;clip-rule:nonzero;display:inline;overflow:visible;visibility:visible;opacity:1;isolation:auto;mix-blend-mode:normal;color-interpolation:sRGB;color-interpolation-filters:linearRGB;solid-color:#000000;solid-opacity:1;vector-effect:none;fill:#808080;fill-opacity:1;fill-rule:evenodd;stroke:none;stroke-width:1.20000005;stroke-linecap:butt;stroke-linejoin:miter;stroke-miterlimit:4;stroke-dasharray:none;stroke-dashoffset:0;stroke-opacity:1;color-rendering:auto;image-rendering:auto;shape-rendering:auto;text-rendering:auto;enable-background:accumulate"
       d="M 0.859375 1.0507812 L 0.859375 7.0683594 L 2.0546875 7.0683594 L 2.0546875 3.1640625 L 6.0195312 7.1035156 L 6.859375 6.2558594 L 2.8398438 2.2539062 L 6.7929688 2.2539062 L 6.7929688 1.0507812 L 0.859375 1.0507812 z "
       transform="matrix(0.26458333,0,0,0.26458333,85.989586,126.19255)"
       id="path834" />
    <path
       style="color:#000000;font-style:normal;font-variant:normal;font-weight:normal;font-stretch:normal;font-size:medium;line-height:normal;font-family:sans-serif;font-variant-ligatures:normal;font-variant-position:normal;font-variant-caps:normal;font-variant-numeric:normal;font-variant-alternates:normal;font-feature-settings:normal;text-indent:0;text-align:start;text-decoration:none;text-decoration-line:none;text-decoration-style:solid;text-decoration-color:#000000;letter-spacing:normal;word-spacing:normal;text-transform:none;writing-mode:lr-tb;direction:ltr;text-orientation:mixed;dominant-baseline:auto;baseline-shift:baseline;text-anchor:start;white-space:normal;shape-padding:0;clip-rule:nonzero;display:inline;overflow:visible;visibility:visible;opacity:1;isolation:auto;mix-blend-mode:normal;color-interpolation:sRGB;color-interpolation-filters:linearRGB;solid-color:#000000;solid-opacity:1;vector-effect:none;fill:#808080;fill-opacity:1;fill-rule:evenodd;stroke:none;stroke-width:1.20000005;stroke-linecap:butt;stroke-linejoin:miter;stroke-miterlimit:4;stroke-dasharray:none;stroke-dashoffset:0;stroke-opacity:1;color-rendering:auto;image-rendering:auto;shape-rendering:auto;text-rendering:auto;enable-background:accumulate"
       d="M 25.240234 0.91015625 L 25.240234 2.1152344 L 29.185547 2.1152344 L 25.167969 6.1152344 L 26.015625 6.9648438 L 29.972656 3.0195312 L 29.972656 6.9277344 L 31.175781 6.9277344 L 31.175781 0.91015625 L 25.240234 0.91015625 z "
       transform="matrix(0.26458333,0,0,0.26458333,85.989586,126.19255)"
       id="path834-4" />
    <path
       style="color:#000000;font-style:normal;font-variant:normal;font-weight:normal;font-stretch:normal;font-size:medium;line-height:normal;font-family:sans-serif;font-variant-ligatures:normal;font-variant-position:normal;font-variant-caps:normal;font-variant-numeric:normal;font-variant-alternates:normal;font-feature-settings:normal;text-indent:0;text-align:start;text-decoration:none;text-decoration-line:none;text-decoration-style:solid;text-decoration-color:#000000;letter-spacing:normal;word-spacing:normal;text-transform:none;writing-mode:lr-tb;direction:ltr;text-orientation:mixed;dominant-baseline:auto;baseline-shift:baseline;text-anchor:start;white-space:normal;shape-padding:0;clip-rule:nonzero;display:inline;overflow:visible;visibility:visible;opacity:1;isolation:auto;mix-blend-mode:normal;color-interpolation:sRGB;color-interpolation-filters:linearRGB;solid-color:#000000;solid-opacity:1;vector-effect:none;fill:#808080;fill-opacity:1;fill-rule:evenodd;stroke:none;stroke-width:1.20000005;stroke-linecap:butt;stroke-linejoin:miter;stroke-miterlimit:4;stroke-dasharray:none;stroke-dashoffset:0;stroke-opacity:1;color-rendering:auto;image-rendering:auto;shape-rendering:auto;text-rendering:auto;enable-background:accumulate"
       d="M 6.0195312 25.183594 L 2.0546875 29.130859 L 2.0546875 25.21875 L 0.859375 25.21875 L 0.859375 31.236328 L 6.7929688 31.236328 L 6.7929688 30.033203 L 2.8457031 30.033203 L 6.859375 26.03125 L 6.0195312 25.183594 z "
       transform="matrix(0.26458333,0,0,0.26458333,85.989586,126.19255)"
       id="path834-6" />
    <path
       style="color:#000000;font-style:normal;font-variant:normal;font-weight:normal;font-stretch:normal;font-size:medium;line-height:normal;font-family:sans-serif;font-variant-ligatures:normal;font-variant-position:normal;font-variant-caps:normal;font-variant-numeric:normal;font-variant-alternates:normal;font-feature-settings:normal;text-indent:0;text-align:start;text-decoration:none;text-decoration-line:none;text-decoration-style:solid;text-decoration-color:#000000;letter-spacing:normal;word-spacing:normal;text-transform:none;writing-mode:lr-tb;direction:ltr;text-orientation:mixed;dominant-baseline:auto;baseline-shift:baseline;text-anchor:start;white-space:normal;shape-padding:0;clip-rule:nonzero;display:inline;overflow:visible;visibility:visible;opacity:1;isolation:auto;mix-blend-mode:normal;color-interpolation:sRGB;color-interpolation-filters:linearRGB;solid-color:#000000;solid-opacity:1;vector-effect:none;fill:#808080;fill-opacity:1;fill-rule:evenodd;stroke:none;stroke-width:1.20000005;stroke-linecap:butt;stroke-linejoin:miter;stroke-miterlimit:4;stroke-dasharray:none;stroke-dashoffset:0;stroke-opacity:1;color-rendering:auto;image-rendering:auto;shape-rendering:auto;text-rendering:auto;enable-background:accumulate"
       d="M 26.015625 25.322266 L 25.167969 26.179688 L 29.191406 30.179688 L 25.240234 30.179688 L 25.240234 31.376953 L 31.175781 31.376953 L 31.175781 25.367188 L 29.972656 25.367188 L 29.972656 29.267578 L 26.015625 25.322266 z "
       transform="matrix(0.26458333,0,0,0.26458333,85.989586,126.19255)"
       id="path834-4-9" />
  </g>
</svg>
