<?xml version="1.0" encoding="UTF-8" standalone="no"?>
<!-- Created with Inkscape (http://www.inkscape.org/) -->

<svg
   width="8.2710037mm"
   height="8.2710037mm"
   viewBox="0 0 8.2710037 8.2710037"
   version="1.1"
   id="svg1"
   xml:space="preserve"
   xmlns="http://www.w3.org/2000/svg"
   xmlns:svg="http://www.w3.org/2000/svg"><defs
     id="defs1"><linearGradient
       id="linearGradient925-2"
       x1="38.325001"
       x2="43.738998"
       y1="1053.1"
       y2="1047.7"
       gradientUnits="userSpaceOnUse"
       gradientTransform="matrix(0.31890855,-0.02537599,0.02537599,0.31890855,-32.130605,-327.40989)"><stop
         stop-color="#f3f3f3"
         offset="0"
         id="stop5-47" /><stop
         stop-color="#e6e6e6"
         stop-opacity=".97881"
         offset="0.03896"
         id="stop6-7-9"
         style="stop-color:#787878;stop-opacity:0.97881001;" /><stop
         stop-color="#e6e6e6"
         offset=".22743"
         id="stop7-4-3" /><stop
         stop-color="#c4c4c4"
         offset="0.38791001"
         id="stop8-3-9"
         style="stop-color:#787878;stop-opacity:1;" /><stop
         stop-color="#fbfbfb"
         offset=".62864"
         id="stop9-1-2" /><stop
         stop-color="#e6e6e6"
         offset="0.85145003"
         id="stop10-8"
         style="stop-color:#535353;stop-opacity:1;" /><stop
         stop-color="#b0b0b0"
         stop-opacity=".97458"
         offset="1"
         id="stop11-3"
         style="stop-color:#262626;stop-opacity:0.97457999;" /></linearGradient></defs><g
     id="g5"
     transform="matrix(1.1592574,0,0,1.1592574,-3.1854858,-2.7516245)"><g
       transform="matrix(0.25124699,0,0,0.25124699,-4.29555,-255.95291)"
       id="g14"
       style="display:inline"><path
         d="m 34.65,1042.5 c -3.2967,-10e-5 -5.9693,2.6724 -5.9692,5.9691 -1.02e-4,3.2968 2.6724,5.9693 5.9692,5.9692 l 0.87816,-0.01 h 10.622 c 1.5049,0 2.7164,-1.2115 2.7164,-2.7164 0,-1.5049 -1.2115,-2.7164 -2.7164,-2.7164 -1.8937,0 -2.2773,-0.1378 -2.4097,-0.1476 -1.6951,-0.3062 -2.734,-1.242 -3.5759,-2.6626 -0.92355,-2.231 -3.1002,-3.6859 -5.5149,-3.686 z"
         fill="#ff2a2a"
         style="paint-order:stroke fill markers"
         id="path13" /><circle
         cx="34.544998"
         cy="1048.4"
         r="2.7349"
         fill="#ffaaaa"
         style="paint-order:stroke fill markers"
         id="circle13" /><circle
         cx="34.558998"
         cy="1048.4"
         r="1.5227"
         fill="#f9f9f9"
         style="paint-order:stroke fill markers"
         id="circle14" /></g><path
       d="m 5.81671,5.97556 0.13221,-0.16598 2.27664,2.0804 -0.1436,0.212 -1.71825,-1.4278 z"
       fill="#ffffff"
       id="path14"
       style="display:inline;stroke-width:0.319917" /><path
       d="m 7.0947,4.45329 -0.57503,0.67442 -0.57503,0.67445 0.0783,0.0941 c 0.48081,0.57872 1.29917,1.3329 2.00286,1.84582 0.10306,0.0751 0.18942,0.14025 0.1914,0.14459 0.002,0.004 -0.0237,0.0397 -0.0571,0.0785 l -0.0602,0.07 -0.0818,-0.0587 C 7.30019,7.45747 6.53912,6.77393 6.01051,6.17368 5.90718,6.05633 5.81965,5.96069 5.81557,5.96102 5.81157,5.96133 5.75687,6.02282 5.69353,6.09733 L 5.5783,6.2325 5.6591,6.33451 c 0.27518,0.34637 0.52725,0.60138 1.06481,1.07738 0.56781,0.5029 0.9347,0.7756 1.5036,1.11705 0.0708,0.0424 0.13203,0.0779 0.1353,0.0776 0.003,-2.8e-4 0.30237,-0.3482 0.66428,-0.77369 C 9.6565,7.0929 9.68612,7.05614 9.70614,6.98465 9.73354,6.88685 9.71974,6.76684 9.67144,6.68278 9.64444,6.63578 9.39227,6.41529 8.36632,5.53928 Z m 1.98369,2.25097 c 0.17838,0.0192 0.2423,0.22491 0.10696,0.34377 -0.0376,0.0332 -0.13299,0.049 -0.1837,0.031 -0.0521,-0.019 -0.10654,-0.0764 -0.12048,-0.12771 -0.0135,-0.0498 -3.8e-4,-0.12218 0.0305,-0.16854 0.029,-0.0441 0.11463,-0.0843 0.16675,-0.0784 z"
       fill="url(#linearGradient925)"
       stroke-width="0.0121351"
       id="path15"
       style="display:inline;fill:url(#linearGradient925-2)" /><path
       d="M 6.33258,5.0916 C 6.2322,5.0041 6.21863,4.9876 6.21555,4.94889 c -0.003,-0.0355 0.007,-0.0573 0.0522,-0.1161 0.0827,-0.10735 0.0911,-0.15812 0.0412,-0.2484 C 6.25255,4.48252 6.14115,4.40092 5.91398,4.29518 5.71011,4.20018 5.60748,4.13738 5.48701,4.03368 5.35006,3.91579 5.23657,3.78727 5.15761,3.66059 5.12341,3.60569 5.08801,3.55583 5.07901,3.54978 5.07001,3.54378 5.02781,3.53878 4.98531,3.53828 4.8294,3.53728 4.71863,3.43938 4.69738,3.28394 c -0.009,-0.0678 -0.007,-0.0934 0.0136,-0.14964 0.0287,-0.0788 0.0831,-0.14731 0.14755,-0.18588 0.0344,-0.0204 0.0704,-0.0287 0.14821,-0.0349 0.0928,-0.007 0.11226,-0.004 0.19945,0.0287 0.42511,0.16094 0.93386,0.51937 1.37107,0.96598 0.14051,0.14354 0.38096,0.40316 0.46267,0.49952 l 0.0489,0.0577 -0.30846,0.36165 c -0.16965,0.1989 -0.31422,0.3621 -0.3213,0.36267 -0.007,5.6e-4 -0.064,-0.0435 -0.12641,-0.098 z"
       fill="#c87137"
       stroke-width="0.0121351"
       id="path16"
       style="display:inline" /></g></svg>
