<?xml version="1.0" encoding="UTF-8" standalone="no"?>
<!-- Created with Inkscape (http://www.inkscape.org/) -->

<svg
   width="8.2710037mm"
   height="8.2710037mm"
   viewBox="0 0 8.2710037 8.2710037"
   version="1.1"
   id="svg1"
   xml:space="preserve"
   xmlns="http://www.w3.org/2000/svg"
   xmlns:svg="http://www.w3.org/2000/svg"><defs
     id="defs1" /><path
     style="fill:#fd6e00;fill-opacity:1;stroke:#fd6e00;stroke-width:0.264583;stroke-dasharray:none;stroke-opacity:1"
     d="m 0.83922955,6.0871429 c -0.574152,-0.2931752 -0.500732,-1.5191814 0.143985,-2.404354 0.12541405,-0.1721893 0.53855595,-0.513623 0.62149395,-0.513623 0.0179,0 0.05904,0.086192 0.09144,0.1915383 l 0.0589,0.1915382 0.0067,-0.2217811 c 0.0037,-0.1219796 0.02763,-0.3215826 0.05321,-0.4435622 0.0433,-0.2064232 0.05908,-0.2280226 0.227974,-0.311913 0.219706,-0.1091302 0.494443,-0.1513171 0.742847,-0.1140666 l 0.184601,0.027683 0.0036,0.1689056 0.0036,0.1689055 0.03798,-0.1316004 c 0.07248,-0.2511197 0.537576,-0.5105965 1.003784,-0.5600069 0.47221,-0.050046 1.131852,0.2437917 1.237062,0.5510504 l 0.04813,0.1405569 0.0023,-0.1689055 0.0023,-0.1689056 0.184602,-0.027683 c 0.248403,-0.03725 0.523141,0.00494 0.742846,0.1140666 0.168892,0.08389 0.184679,0.1054898 0.227974,0.311913 0.02558,0.1219796 0.04953,0.3215826 0.05321,0.4435622 l 0.0067,0.2217811 0.0589,-0.1915382 c 0.03239,-0.1053461 0.07354,-0.1915383 0.09144,-0.1915383 0.0179,0 0.133583,0.072355 0.257079,0.1607894 0.516026,0.369518 0.881306,1.1417337 0.888373,1.8780517 0.0029,0.3019977 -0.01235,0.3981569 -0.08787,0.5541714 -0.129063,0.2666288 -0.290783,0.3714208 -0.568336,0.3682801 -0.192676,-0.00218 -0.292735,-0.039035 -0.762434,-0.2808267 -0.685095,-0.3526735 -0.814509,-0.3643294 -1.237033,-0.1114159 -0.361662,0.2164824 -0.557792,0.2677182 -1.024821,0.2677182 -0.46703,0 -0.66316,-0.051236 -1.024821,-0.2677182 C 2.6940535,5.4862797 2.5625415,5.4976235 1.8852295,5.8442876 1.2862566,6.1508555 1.0647296,6.2022886 0.83922955,6.0871429 Z M 1.8347015,5.5979131 c 0.491146,-0.2478912 0.559314,-0.2713878 0.786315,-0.27103 0.25256,3.98e-4 0.33077,0.028881 0.757274,0.2757852 0.120853,0.069962 0.287025,0.1204221 0.473805,0.143875 0.395505,0.049661 0.813958,-0.00772 1.049147,-0.143875 0.426503,-0.2469043 0.504714,-0.2753872 0.757273,-0.2757852 0.227001,-3.578e-4 0.29517,0.023139 0.786315,0.27103 0.295772,0.1492819 0.592204,0.2813076 0.658738,0.2933903 0.521482,0.094702 0.634358,-0.8560015 0.20309,-1.7105501 -0.136585,-0.2706416 -0.455514,-0.6717953 -0.499292,-0.6280175 -0.01329,0.013287 -0.106408,0.3089436 -0.206935,0.6570141 -0.17677,0.6120582 -0.186083,0.6323945 -0.283382,0.6188315 -0.05533,-0.00771 -0.107073,-0.02023 -0.114979,-0.027814 -0.0079,-0.00758 0.0073,-0.299882 0.03371,-0.6495493 0.05256,-0.6950152 0.026,-1.233385 -0.06534,-1.3247293 -0.06989,-0.069895 -0.31201,-0.1406775 -0.482243,-0.1409837 l -0.125014,-2.249e-4 -0.0262,0.3691093 c -0.01441,0.2030101 -0.02645,0.5704611 -0.02675,0.8165577 -6.63e-4,0.5384868 -0.01952,0.622287 -0.147279,0.6543515 -0.05383,0.01351 -0.104387,0.017848 -0.112353,0.00964 -0.008,-0.00821 -0.06385,-0.4141298 -0.124191,-0.9020482 -0.07549,-0.6104444 -0.128977,-0.9091846 -0.171495,-0.9578561 -0.03398,-0.038902 -0.163141,-0.1203195 -0.287018,-0.1809267 -0.320453,-0.1567834 -0.735795,-0.1567834 -1.056249,0 -0.123877,0.060607 -0.252945,0.1420242 -0.286819,0.1809267 -0.04207,0.048314 -0.09749,0.3550908 -0.174875,0.9679371 -0.09906,0.7845486 -0.12215,0.8972054 -0.183873,0.8972054 -0.163295,0 -0.197308,-0.102915 -0.197527,-0.5976569 -1.15e-4,-0.2590087 -0.01193,-0.6478457 -0.02624,-0.8640823 l -0.02604,-0.3931574 -0.124971,2.249e-4 c -0.170951,3.076e-4 -0.412414,0.071198 -0.483026,0.1418102 -0.09311,0.093111 -0.11965,0.6108362 -0.06741,1.3151054 0.02641,0.3561285 0.04222,0.6530483 0.03513,0.6598218 -0.0071,0.00677 -0.05817,0.018626 -0.113503,0.026339 -0.0973,0.013563 -0.106612,-0.00677 -0.283382,-0.6188315 C 1.5785845,3.8616796 1.4854635,3.5660233 1.4721765,3.552736 1.4279265,3.508489 1.1088076,3.911424 0.96955455,4.1873657 c -0.181241,0.3591461 -0.257317,0.6657394 -0.257241,1.0367073 9.8e-5,0.4740206 0.17126,0.7203312 0.46366205,0.6672306 0.06653,-0.012083 0.3629659,-0.1441084 0.6587369,-0.2933903 z"
     id="path3" /></svg>
