<?xml version="1.0" encoding="UTF-8" standalone="no"?>
<!-- Created with Inkscape (http://www.inkscape.org/) -->

<svg
   width="8.2710037mm"
   height="8.2710037mm"
   viewBox="0 0 8.2710037 8.2710037"
   version="1.1"
   id="svg1"
   xml:space="preserve"
   sodipodi:docname="lyr_atm.svg"
   inkscape:version="1.4 (1:1.4+202410161351+e7c3feb100)"
   xmlns:inkscape="http://www.inkscape.org/namespaces/inkscape"
   xmlns:sodipodi="http://sodipodi.sourceforge.net/DTD/sodipodi-0.dtd"
   xmlns="http://www.w3.org/2000/svg"
   xmlns:svg="http://www.w3.org/2000/svg"><sodipodi:namedview
     id="namedview1"
     pagecolor="#ffffff"
     bordercolor="#000000"
     borderopacity="0.25"
     inkscape:showpageshadow="2"
     inkscape:pageopacity="0.0"
     inkscape:pagecheckerboard="0"
     inkscape:deskcolor="#d1d1d1"
     inkscape:document-units="mm"
     inkscape:zoom="25.27152"
     inkscape:cx="15.650028"
     inkscape:cy="15.630243"
     inkscape:window-width="1920"
     inkscape:window-height="995"
     inkscape:window-x="0"
     inkscape:window-y="0"
     inkscape:window-maximized="1"
     inkscape:current-layer="svg1" /><defs
     id="defs1" /><path
     style="fill:#041874;fill-opacity:1;stroke-width:0.132577"
     d="M 1.0995707,7.1472743 C 0.9438539,7.0794545 0.81083837,6.9034485 0.78497523,6.7310903 0.76473986,6.5955328 0.83875684,6.3790101 1.5801621,4.4081691 2.4488727,2.0988846 2.4756623,2.0418898 2.7268962,1.9685361 2.8120425,1.9436847 3.391831,1.9346832 4.451215,1.9417876 l 1.5960334,0.010713 0.114519,0.081691 C 6.3090107,2.1392152 6.3864425,2.2911825 6.3857784,2.473807 6.3851019,2.6597937 4.8028917,6.8898495 4.6868582,7.0158897 4.5223831,7.1945452 4.4995236,7.196711 2.7948962,7.1952376 1.5537424,7.1941636 1.1831235,7.1836656 1.0995359,7.1472705 Z M 4.3367023,6.7470882 C 4.3711971,6.7251772 5.8817079,2.7696081 5.9519403,2.5172756 5.9950351,2.3624092 5.9310726,2.3559023 4.3635298,2.3559023 c -1.1299672,0 -1.4899847,0.010306 -1.5309453,0.043847 -0.060358,0.049415 -1.6085035,4.1533053 -1.6085035,4.2638804 0,0.039121 0.019603,0.079091 0.043854,0.088823 0.07291,0.029405 3.0221282,0.024251 3.0687738,-0.00537 z M 1.7853227,6.4599842 c -0.038573,-0.038586 -0.070159,-0.088312 -0.070159,-0.1105003 0,-0.022196 0.058334,-0.1975597 0.1296006,-0.3897134 0.1385486,-0.3735191 0.2031434,-0.4415471 0.377638,-0.3977502 0.1758574,0.044135 0.1839831,0.1556188 0.039237,0.5372305 -0.071614,0.1887574 -0.1558434,0.3629254 -0.1871765,0.3870414 -0.084166,0.06475 -0.2094669,0.053345 -0.2891434,-0.026306 z M 3.2936614,5.6224571 C 2.9787497,5.5189188 2.7152956,5.2858525 2.5798994,4.9910177 2.4780276,4.7691946 2.4787232,4.3684665 2.5813418,4.1405675 2.8856299,3.464858 3.7462591,3.266284 4.3034537,3.7432213 4.388442,3.8159614 4.4945191,3.9610827 4.5601574,4.094414 4.7076852,4.3941081 4.7160639,4.7038333 4.5845026,4.9914432 4.3933105,5.4090784 4.0829706,5.6238236 3.6459073,5.6409361 3.5004661,5.6466272 3.3420301,5.638315 3.2937879,5.6224714 Z M 3.8373647,5.1657649 C 4.2917609,4.9553874 4.3851753,4.406402 4.0209684,4.0866404 3.5835984,3.7026242 2.94287,3.9873927 2.94287,4.5657926 c 0,0.3136533 0.1593213,0.5219023 0.4910852,0.6419046 0.1056661,0.038216 0.2663471,0.0215 0.4033937,-0.041931 z M 4.8600501,3.5194712 c -0.031934,-0.035283 -0.05805,-0.097073 -0.05805,-0.1373123 0,-0.098375 0.2067477,-0.6423372 0.2734294,-0.7193262 0.1127487,-0.1302394 0.3579717,-0.034286 0.3579717,0.1400758 0,0.098375 -0.2067477,0.6423367 -0.2734293,0.719326 -0.069243,0.079983 -0.2263507,0.078535 -0.299925,-0.00276 z M 0.87076653,3.148545 C 0.64719813,2.9966347 0.62196729,2.8849012 0.634393,2.1023176 0.64640764,1.3483602 0.65336353,1.3222841 0.88682832,1.1478914 0.98297733,1.0761003 1.006912,1.0755688 4.1355381,1.0755688 c 3.1286229,0 3.1525575,5.302e-4 3.248713,0.072323 0.2327059,0.173742 0.2404838,0.2025679 0.252467,0.9365771 C 7.6493654,2.8641066 7.6196445,2.9993881 7.4038857,3.1461033 7.2238548,3.2684321 7.0006532,3.2667405 6.9191998,3.1424357 6.835255,3.0143305 6.8888469,2.8765314 7.0419395,2.8267272 7.105871,2.8059227 7.1723623,2.7664702 7.1897204,2.7390321 7.2071098,2.7115882 7.2215273,2.4416587 7.2218437,2.139178 7.22228,1.6854772 7.2126779,1.5795622 7.1672711,1.5340887 7.1180108,1.4848447 6.7947806,1.478966 4.1355596,1.478966 c -2.6592178,0 -2.9824641,0.00589 -3.0317085,0.055123 -0.045466,0.045472 -0.055015,0.1513885 -0.054573,0.6050893 2.909e-4,0.3024829 0.014861,0.5724159 0.032123,0.5998541 0.017389,0.027444 0.083882,0.0669 0.1477808,0.087695 0.1530927,0.049805 0.206653,0.1876065 0.1227397,0.3157085 -0.080688,0.1231508 -0.3046676,0.1259964 -0.4810941,0.00611 z"
     id="path2" /></svg>
