<?xml version="1.0" encoding="UTF-8" standalone="no"?>
<!-- Created with Inkscape (http://www.inkscape.org/) -->

<svg
   width="8.2710037mm"
   height="8.2710037mm"
   viewBox="0 0 8.2710037 8.2710037"
   version="1.1"
   id="svg1"
   xmlns="http://www.w3.org/2000/svg"
   xmlns:svg="http://www.w3.org/2000/svg">
  <defs
     id="defs1">
    <clipPath
       clipPathUnits="userSpaceOnUse"
       id="clipPath218">
      <path
         d="M 0,5504.926 H 5022.134 V 0 H 0 Z"
         transform="translate(-3385.3409,-4050.13)"
         id="path218" />
    </clipPath>
    <clipPath
       clipPathUnits="userSpaceOnUse"
       id="clipPath220">
      <path
         d="M 0,5504.926 H 5022.134 V 0 H 0 Z"
         transform="translate(-3403.2355,-4009.1417)"
         id="path220" />
    </clipPath>
    <clipPath
       clipPathUnits="userSpaceOnUse"
       id="clipPath222">
      <path
         d="M 0,5504.926 H 5022.134 V 0 H 0 Z"
         transform="translate(-3347.714,-3973.0738)"
         id="path222" />
    </clipPath>
    <clipPath
       clipPathUnits="userSpaceOnUse"
       id="clipPath224">
      <path
         d="M 0,5504.926 H 5022.134 V 0 H 0 Z"
         transform="translate(-3371.4151,-4020.9864)"
         id="path224" />
    </clipPath>
    <clipPath
       clipPathUnits="userSpaceOnUse"
       id="clipPath226">
      <path
         d="M 0,5504.926 H 5022.134 V 0 H 0 Z"
         transform="translate(-3511.3409,-4012.2247)"
         id="path226" />
    </clipPath>
    <clipPath
       clipPathUnits="userSpaceOnUse"
       id="clipPath228">
      <path
         d="M 0,5504.926 H 5022.134 V 0 H 0 Z"
         transform="translate(-3537.2296,-4085.463)"
         id="path228" />
    </clipPath>
  </defs>
  <g
     id="layer1"
     transform="translate(-123.29584,-119.85624)">
    <circle
       style="display:inline;fill:#ffffff;stroke-width:0.264583;stroke-linecap:round;stroke-linejoin:round;paint-order:markers fill stroke"
       id="circle3"
       cx="127.43134"
       cy="123.99174"
       r="4.1355019" />
    <g
       id="g2069"
       transform="matrix(0.02500376,0,0,0.02586769,13.408713,74.417212)"
       style="display:inline;fill:#870200;fill-opacity:1;stroke-width:4.39536">
      <path
         id="path217"
         d="m 0,0 c -7.148,0 -12.967,-5.817 -12.967,-12.967 0,-7.149 5.819,-12.964 12.967,-12.964 7.148,0 12.965,5.815 12.965,12.964 C 12.965,-5.817 7.148,0 0,0"
         style="fill:#870200;fill-opacity:1;fill-rule:nonzero;stroke:none;stroke-width:4.39536"
         transform="matrix(1.3333333,0,0,-1.3333333,4513.7877,1939.7335)"
         clip-path="url(#clipPath218)" />
      <path
         id="path219"
         d="m 0,0 h 71.143 v 15.925 c 0,6.799 -3.692,9.965 -11.618,9.965 L 59.473,25.892 0,30.38 Z"
         style="fill:#870200;fill-opacity:1;fill-rule:nonzero;stroke:none;stroke-width:4.39536"
         transform="matrix(1.3333333,0,0,-1.3333333,4537.6472,1994.3845)"
         clip-path="url(#clipPath220)" />
      <path
         id="path221"
         d="M 0,0 H 13.863 V 15.292 H 131.369 V 0.167 H 144.9 v 51.962 c 0,5.371 -3.548,7.818 -6.847,7.818 -3.299,0 -6.848,-2.447 -6.848,-7.818 V 31.821 H 13.531 v 50.27 c 0,5.065 -3.508,7.371 -6.765,7.371 C 3.506,89.462 0,87.156 0,82.091 Z"
         style="fill:#870200;fill-opacity:1;fill-rule:nonzero;stroke:none;stroke-width:4.39536"
         transform="matrix(1.3333333,0,0,-1.3333333,4463.6185,2042.4751)"
         clip-path="url(#clipPath222)" />
      <path
         id="path223"
         d="M 0,0 C -3.883,-0.017 -5.646,-3.145 -5.639,-6.043 -5.633,-8.922 -3.865,-12.02 0,-12.02 h 21.43 c 3.865,0 5.632,3.098 5.638,5.977 0.008,2.898 -1.756,6.026 -5.64,6.043 z"
         style="fill:#870200;fill-opacity:1;fill-rule:nonzero;stroke:none;stroke-width:4.39536"
         transform="matrix(1.3333333,0,0,-1.3333333,4495.22,1978.5916)"
         clip-path="url(#clipPath224)" />
      <path
         id="path225"
         d="M 0,0 C -2.803,0 -5.074,2.271 -5.074,5.073 V 71.388 H -177.279 V 5.073 c 0,-2.802 -2.272,-5.073 -5.075,-5.073 -2.8,0 -5.072,2.271 -5.072,5.073 v 68.811 c 0,4.218 3.432,7.651 7.651,7.651 H -2.578 c 4.219,0 7.65,-3.433 7.65,-7.651 V 5.073 C 5.072,2.271 2.801,0 0,0"
         style="fill:#870200;fill-opacity:1;fill-rule:nonzero;stroke:none;stroke-width:4.39536"
         transform="matrix(1.3333333,0,0,-1.3333333,4681.7877,1990.2739)"
         clip-path="url(#clipPath226)" />
      <path
         id="path227"
         d="M 0,0 C -1.051,0 -2.117,0.257 -3.104,0.801 L -117.066,63.564 -231.029,0.801 c -3.117,-1.717 -7.035,-0.582 -8.752,2.535 -1.717,3.118 -0.58,7.037 2.535,8.753 l 114.814,63.232 c 3.161,1.74 7.573,1.74 10.733,0 L 3.113,12.089 C 6.23,10.373 7.367,6.454 5.65,3.336 4.477,1.205 2.271,0 0,0"
         style="fill:#870200;fill-opacity:1;fill-rule:nonzero;stroke:none;stroke-width:4.39536"
         transform="matrix(1.3333333,0,0,-1.3333333,4716.306,1892.6228)"
         clip-path="url(#clipPath228)" />
    </g>
  </g>
</svg>
