<?xml version="1.0" encoding="UTF-8" standalone="no"?>
<!-- Created with Inkscape (http://www.inkscape.org/) -->

<svg
   width="8.2710037mm"
   height="8.2710037mm"
   viewBox="0 0 8.2710037 8.2710037"
   version="1.1"
   id="svg1"
   xmlns="http://www.w3.org/2000/svg"
   xmlns:svg="http://www.w3.org/2000/svg">
  <defs
     id="defs1" />
  <g
     id="g36"
     transform="matrix(1.5492761,0,0,1.5492761,-17.290537,-5.0475026)"
     style="fill:#2656e8;fill-opacity:1">
    <path
       style="fill:#2656e8;fill-opacity:1;fill-rule:nonzero;stroke:none;stroke-width:0.264583"
       d="M 13.720093,8.3457441 13.615707,8.277531 V 7.9530032 c 0,-0.1788004 -0.0021,-0.3245279 -0.0041,-0.3245279 -0.0031,0 -0.07441,0.039274 -0.15813,0.086816 -0.222208,0.1250571 -0.190169,0.1188558 -0.299723,0.057878 l -0.09198,-0.05271 0.0021,-0.1157552 0.0031,-0.1157552 0.260449,-0.1477947 c 0.09095,-0.050643 0.181901,-0.1033529 0.270785,-0.1570964 0.0052,-0.00517 0.0072,-0.099219 0.0062,-0.2201415 l -0.0031,-0.2108398 -0.189135,0.1219562 -0.19017,0.1209228 -0.0021,-0.2232422 c -0.0021,-0.1229897 -0.0052,-0.2242757 -0.0093,-0.2242757 -0.0031,0 -0.08785,0.047543 -0.189135,0.1043866 l -0.181902,0.1054198 -10e-4,0.3121256 v 0.3121257 l -0.09922,0.059945 c -0.05374,0.033073 -0.101285,0.060978 -0.10542,0.062012 -0.0041,0.0031 -0.04547,-0.021704 -0.09095,-0.051677 l -0.08475,-0.05271 V 7.1933595 c 0,-0.1167886 -0.0031,-0.2067057 -0.0083,-0.2067057 -0.0052,0 -0.133325,0.069247 -0.28422,0.1550294 -0.151929,0.085783 -0.28112,0.1560629 -0.286288,0.1560629 -0.0052,0 -0.06098,-0.021704 -0.120922,-0.047542 l -0.111621,-0.048576 -0.0031,-0.1343586 -0.0021,-0.1343589 0.15813,-0.085783 0.297656,-0.162264 0.14056,-0.076481 -0.187069,-0.093018 -0.186035,-0.094051 0.0021,-0.12299 0.0031,-0.1240234 0.103353,-0.055811 0.103352,-0.056844 0.07131,0.043408 c 0.276986,0.1653646 0.455786,0.2687175 0.467155,0.2687175 0.01654,0 0.361735,-0.199471 0.364835,-0.2108399 0.0021,-0.00414 -0.08268,-0.05581 -0.186035,-0.1147217 -0.104386,-0.058911 -0.189135,-0.1095539 -0.190169,-0.1126546 0,-0.00206 0.08165,-0.053743 0.180868,-0.1147217 0.145727,-0.089917 0.1788,-0.1136881 0.167431,-0.12299 -0.0072,-0.0062 -0.08992,-0.05581 -0.183968,-0.1105874 l -0.171566,-0.099219 -0.241845,0.1426268 c -0.133326,0.078548 -0.255282,0.1488281 -0.272852,0.1570963 -0.02997,0.01447 -0.03307,0.013436 -0.12609,-0.033073 l -0.09612,-0.047542 -0.0021,-0.1209227 -0.0031,-0.1219566 0.166398,-0.091984 c 0.09198,-0.050643 0.173633,-0.097152 0.181901,-0.1033528 0.01137,-0.00827 -0.04341,-0.041341 -0.273885,-0.1643311 l -0.287321,-0.1550292 0.0021,-0.1364261 0.0021,-0.135392 0.214974,-0.1116211 0.120923,0.071313 c 0.268717,0.1560629 0.446484,0.2594158 0.451652,0.2594158 0.0021,0 0.0052,-0.096118 0.0052,-0.2118734 V 4.4731121 l 0.07338,-0.048576 c 0.04031,-0.026872 0.07855,-0.05271 0.08475,-0.056844 0.0083,-0.00517 0.05064,0.014469 0.116789,0.05271 l 0.104386,0.059945 V 5.115967 l 0.191203,0.1085205 0.192237,0.1095539 0.0031,-0.2191078 c 10e-4,-0.1198896 0.0041,-0.2191084 0.0072,-0.2191084 0.0031,0 0.09095,0.046509 0.195337,0.1023194 0.10542,0.055811 0.19327,0.101286 0.195337,0.101286 10e-4,0 0.0021,-0.096118 0,-0.214974 L 13.600204,4.6684492 13.330453,4.5134198 13.060702,4.3594241 V 4.2457358 l 0.0021,-0.1126546 0.09302,-0.051676 c 0.07958,-0.044442 0.09612,-0.050643 0.115756,-0.042375 0.01137,0.0062 0.09198,0.050643 0.177767,0.099219 0.08682,0.048576 0.159163,0.08785 0.162263,0.08785 0.0021,0 0.0052,-0.1457275 0.0052,-0.3245279 V 3.5760092 l 0.10542,-0.068213 0.106453,-0.068213 0.107487,0.068213 0.107487,0.069246 v 0.3234944 c 0,0.1788004 0.0031,0.3245279 0.0062,0.3245279 0.0041,0 0.08888,-0.045475 0.190169,-0.1023191 l 0.182935,-0.1023195 0.09715,0.065112 0.09819,0.064079 v 0.2005044 l -0.269751,0.1529625 c -0.148828,0.083716 -0.275952,0.1581298 -0.282153,0.1643309 -0.0093,0.00827 -0.0124,0.060978 -0.01033,0.2222087 l 0.0031,0.2118733 0.182934,-0.1126546 c 0.101286,-0.062012 0.186036,-0.1126545 0.188102,-0.1126545 10e-4,0 0.0031,0.1033529 0.0031,0.2294432 0,0.1839683 0.0021,0.2284098 0.0124,0.2263429 0.0072,-0.0031 0.09715,-0.048576 0.199471,-0.1043864 l 0.186036,-0.1012859 0.0031,-0.3400309 0.0021,-0.3410643 0.09405,-0.042375 0.09302,-0.043408 0.09922,0.042375 0.09819,0.042375 v 0.2170411 c 0,0.2025716 10e-4,0.2170409 0.01654,0.2108399 0.0093,-0.0031 0.133328,-0.069247 0.274922,-0.1457275 0.141593,-0.077515 0.269751,-0.1457277 0.283187,-0.1508953 0.02377,-0.011369 0.03411,-0.00723 0.124023,0.047542 l 0.09819,0.060978 V 4.934066 l -0.279052,0.1591633 c -0.153996,0.086816 -0.279053,0.1632976 -0.276986,0.1684652 0.0021,0.00517 0.07855,0.051677 0.170532,0.1023194 l 0.166398,0.095085 0.0031,0.1188558 0.0021,0.1198891 -0.183968,0.1012859 -0.269751,-0.160197 c -0.148828,-0.08785 -0.276986,-0.1591633 -0.284221,-0.1591633 -0.0124,0 -0.340031,0.2025717 -0.367936,0.2273763 -0.0093,0.00827 0.02997,0.037207 0.167432,0.1229898 0.09922,0.060978 0.180867,0.1136882 0.180867,0.1157552 0,0.0031 -0.08372,0.05271 -0.186035,0.1105876 -0.102319,0.058911 -0.181901,0.1095542 -0.177767,0.1136883 0.0052,0.00414 0.09302,0.051676 0.196371,0.1054198 l 0.186035,0.098185 0.556038,-0.3100586 0.08682,0.059945 0.08682,0.060978 -0.0021,0.1157552 -0.0021,0.1167886 -0.147794,0.082682 c -0.08061,0.045476 -0.156063,0.089917 -0.167432,0.098185 -0.01964,0.013436 -0.0083,0.021704 0.251148,0.1746663 l 0.271818,0.160197 V 7.065202 l 10e-4,0.1333254 -0.112654,0.049609 c -0.06098,0.028938 -0.118856,0.048576 -0.127124,0.045475 -0.0072,-0.0031 -0.129191,-0.071313 -0.270785,-0.1508951 -0.08578,-0.050643 -0.173633,-0.099219 -0.261483,-0.1467612 -0.0031,0 -0.0062,0.091984 -0.0062,0.2036053 v 0.2036051 l -0.06511,0.039274 c -0.133325,0.077515 -0.113688,0.075448 -0.217041,0.016536 L 14.84664,7.4083335 14.836306,6.7799481 14.644069,6.6693607 c -0.106453,-0.060978 -0.197404,-0.1105876 -0.201538,-0.1105876 -0.0052,0 -0.0093,0.091984 -0.0093,0.2087726 0,0.1147218 -10e-4,0.2087729 -0.0031,0.2087729 -0.0021,0 -0.08578,-0.049609 -0.187068,-0.111621 l -0.183968,-0.1116211 -0.0021,0.2108398 c -0.0021,0.1209228 10e-4,0.214974 0.0062,0.2201415 0.0052,0.00517 0.126091,0.075448 0.269751,0.1570964 l 0.261483,0.1477947 0.0021,0.1229899 0.0031,0.1219563 -0.09095,0.044442 c -0.03307,0.016536 -0.06615,0.032039 -0.101286,0.044441 -0.0052,0 -0.08682,-0.044441 -0.180867,-0.097151 -0.05788,-0.034106 -0.116789,-0.066146 -0.176734,-0.097152 -0.0031,0 -0.0052,0.1457275 -0.0052,0.3245279 v 0.324528 l -0.107487,0.068213 c -0.05891,0.038241 -0.108521,0.069247 -0.109554,0.069247 -10e-4,0 -0.04858,-0.032039 -0.106454,-0.069247 z m 0.398942,-2.2623942 0.08165,-0.1405599 -0.0217,-0.040308 c -0.0124,-0.020671 -0.05168,-0.089917 -0.08682,-0.1498616 l -0.06408,-0.1126548 -0.189136,-0.0031 -0.189136,-0.00206 -0.08682,0.1477947 c -0.04858,0.081649 -0.08785,0.1529622 -0.08785,0.1581298 0,0.00517 0.04134,0.072347 0.09198,0.1488281 l 0.09302,0.1374593 0.188102,-0.00206 0.189136,-0.0031 0.08165,-0.1405599 z m 0,0"
       id="path8-7" />
    <path
       style="fill:#2656e8;fill-opacity:1;fill-rule:nonzero;stroke:none;stroke-width:0.264583"
       d="M 15.996957,4.6715496 14.100432,5.76709 c 0.03204,0.055811 0.06718,0.1167889 0.07751,0.1353923 l 0.0217,0.040308 -0.08061,0.1405599 v -0.0031 l -0.08165,0.1405599 -0.189136,0.00206 -0.189136,0.0031 -0.09198,-0.1374592 -0.0072,-0.011369 -1.914095,1.1048424 10e-4,0.018603 0.111621,0.047542 c 0.05995,0.026872 0.115755,0.048576 0.120923,0.048576 0.0052,0 0.134359,-0.07028 0.286287,-0.1550291 0.09302,-0.054773 0.188101,-0.1064496 0.284219,-0.156059 0.0052,0 0.0083,0.090951 0.0083,0.2067058 v 0.2067057 l 0.08372,0.053743 c 0.04651,0.028939 0.08785,0.053744 0.09198,0.051677 0.0031,0 0.05064,-0.029973 0.10542,-0.063046 l 0.09819,-0.059945 V 7.0693361 l 10e-4,-0.3121255 0.181901,-0.1043864 c 0.101286,-0.057878 0.186035,-0.10542 0.190169,-0.10542 0.0031,0 0.0072,0.1012857 0.0083,0.2242756 l 0.0031,0.2232422 0.189136,-0.1209228 0.190169,-0.1219562 0.0021,0.2108396 c 0.0021,0.120923 -10e-4,0.2149739 -0.0062,0.2201418 -0.0052,0.00517 -0.12609,0.075448 -0.269751,0.1570963 l -0.261483,0.1477947 -0.0021,0.1167887 -0.0031,0.1147217 0.09302,0.05271 c 0.109554,0.060978 0.07752,0.068213 0.299723,-0.057878 0.08372,-0.047542 0.153996,-0.086816 0.157097,-0.086816 0.0031,0 0.0052,0.1457275 0.0052,0.3245281 V 8.277531 l 0.104387,0.068213 c 0.05788,0.036174 0.105419,0.068213 0.106453,0.068213 0.001,0 0.05064,-0.031006 0.109554,-0.068213 L 14.043657,8.276498 V 7.9519697 c 0,-0.1788006 0.0021,-0.3245281 0.0041,-0.3245281 0.0031,0 0.08268,0.043408 0.176734,0.097152 0.09508,0.05271 0.1757,0.097152 0.180867,0.097152 0.0052,0 0.05168,-0.020672 0.101286,-0.044442 l 0.09095,-0.044442 -0.0021,-0.1219565 -0.0031,-0.1229897 -0.260449,-0.1477947 c -0.09095,-0.050643 -0.180868,-0.1033528 -0.269751,-0.1570963 -0.0052,-0.00517 -0.0083,-0.099219 -0.0072,-0.2201418 l 0.0031,-0.2108396 0.183968,0.1116208 c 0.100252,0.062012 0.185002,0.1126548 0.187069,0.1126548 10e-4,0 0.0031,-0.094051 0.0031,-0.2098063 0,-0.1167887 0.0041,-0.208773 0.0093,-0.208773 0.0052,0 0.09612,0.049609 0.201538,0.1105877 l 0.19327,0.1116211 0.0052,0.3131592 0.0041,0.3141927 0.09198,0.051676 c 0.103353,0.058911 0.08372,0.059945 0.217041,-0.017571 l 0.06511,-0.03824 V 7.1995598 c 0,-0.1116211 0.0031,-0.2036054 0.0062,-0.2036054 0.0031,0 0.120923,0.065112 0.262517,0.1457278 0.14056,0.080615 0.262516,0.1488281 0.270784,0.1519285 0.0083,0.0031 0.06511,-0.016536 0.127124,-0.045475 l 0.111621,-0.049609 V 6.9329103 L 15.726172,6.7716798 C 15.466756,6.6187176 15.454354,6.6104494 15.475025,6.5970136 c 0.01137,-0.00827 0.08682,-0.051676 0.167431,-0.097152 l 0.146761,-0.083716 0.0021,-0.1157552 0.0031,-0.1167887 -0.08785,-0.059945 -0.08682,-0.059945 -0.556039,0.3100586 -0.186035,-0.098185 c -0.06615,-0.033073 -0.131258,-0.069246 -0.195337,-0.1064535 -0.0052,-0.00413 0.07545,-0.054777 0.176734,-0.1126546 0.102319,-0.057878 0.186035,-0.107487 0.186035,-0.1105876 0,-0.00206 -0.08165,-0.05581 -0.179834,-0.1157552 -0.137459,-0.085783 -0.176733,-0.1157553 -0.167432,-0.1240235 0.02584,-0.024805 0.354501,-0.227376 0.367936,-0.227376 0.0072,0 0.135393,0.072347 0.283187,0.1601967 l 0.270785,0.160197 0.183968,-0.1012859 -0.0031,-0.1198891 -0.0021,-0.1198896 -0.166398,-0.094051 c -0.09198,-0.051677 -0.169499,-0.098185 -0.170532,-0.1033528 -0.0021,-0.00517 0.12299,-0.080615 0.275952,-0.1674318 L 16.017627,4.934066 V 4.6839519 Z m 0,0"
       id="path9-5" />
  </g>
</svg>
