<?xml version="1.0" encoding="UTF-8" standalone="no"?>
<!-- Created with Inkscape (http://www.inkscape.org/) -->

<svg
   width="8.2710037mm"
   height="8.2710037mm"
   viewBox="0 0 8.2710037 8.2710037"
   version="1.1"
   id="svg1"
   xmlns="http://www.w3.org/2000/svg"
   xmlns:svg="http://www.w3.org/2000/svg">
  <defs
     id="defs1" />
  <g
     id="layer1"
     transform="translate(-123.29584,-119.85624)">
    <path
       d="m 124.85597,126.38 c -0.3593,-0.0495 -0.6633,-0.20183 -0.90628,-0.45412 -0.21213,-0.22024 -0.34864,-0.48675 -0.4033,-0.78736 -0.0246,-0.13515 -0.0245,-0.37767 1.7e-4,-0.5155 0.12261,-0.68529 0.68788,-1.19594 1.37837,-1.24524 0.10239,-0.008 0.29261,0 0.35605,0.0144 l 0.0289,0.006 0.13944,-0.4617 c 0.19863,-0.65769 0.26306,-0.84911 0.33592,-0.99801 0.0934,-0.19105 0.17338,-0.26416 0.33765,-0.30881 0.047,-0.0127 0.14022,-0.0194 0.3754,-0.0255 0.17205,-0.004 0.31517,-0.008 0.31804,-0.005 0.003,0.004 0.003,0.0693 0.002,0.15014 l -0.003,0.14701 -0.16369,2.5e-4 c -0.25974,0 -0.41354,0.0156 -0.47752,0.0467 -0.0567,0.0276 -0.095,0.0731 -0.12328,0.14598 -0.0168,0.0431 -0.11034,0.36759 -0.11034,0.38258 0,0.004 0.59443,0.008 1.3209,0.005 l 1.32091,-0.004 0.0505,-0.14001 c 0.0278,-0.077 0.0469,-0.14321 0.0425,-0.14708 -0.004,-0.004 -0.11363,-0.0292 -0.24266,-0.0567 -0.29257,-0.062 -0.36013,-0.0825 -0.39835,-0.12073 -0.0293,-0.0292 -0.0295,-0.0305 -0.0139,-0.068 0.009,-0.021 0.016,-0.04 0.016,-0.0421 0,-0.004 0.29976,-0.004 0.66609,-0.004 h 0.6661 l 0.008,0.14141 c 0.004,0.0777 0.004,0.14424 0.001,0.14767 -0.003,0.004 -0.0842,0.009 -0.17943,0.0124 l -0.17317,0.006 -0.0508,0.13943 -0.0508,0.13947 0.20941,0.46533 c 0.11517,0.25592 0.21091,0.46698 0.21274,0.46899 0.002,0.004 0.0541,-0.009 0.11611,-0.0231 0.23496,-0.0557 0.4435,-0.0611 0.66074,-0.0169 0.30753,0.0625 0.54932,0.1929 0.77162,0.41603 0.22792,0.22878 0.36571,0.49108 0.42271,0.80462 0.0246,0.13513 0.0245,0.3777 -1.8e-4,0.51548 -0.1226,0.68529 -0.6879,1.19598 -1.37837,1.24525 -0.54623,0.0391 -1.07088,-0.2193 -1.3665,-0.6729 -0.0993,-0.15224 -0.15547,-0.28421 -0.21829,-0.51236 -0.003,-0.01 -0.0736,-0.0133 -0.30893,-0.0133 -0.16793,0 -0.33583,-0.005 -0.37311,-0.0108 -0.16037,-0.0255 -0.23222,-0.0885 -0.64011,-0.56262 -0.33903,-0.39382 -0.53768,-0.61938 -0.76694,-0.8706 -0.22718,-0.24895 -0.52597,-0.56802 -0.52905,-0.56497 -0.002,0.004 -0.10788,0.33126 -0.10788,0.33698 0,0.004 0.0387,0.0231 0.086,0.0468 0.42039,0.21139 0.7224,0.61897 0.80639,1.08843 0.0247,0.13782 0.0247,0.38035 1.7e-4,0.51545 -0.057,0.31359 -0.19481,0.57585 -0.4227,0.80462 -0.22056,0.2214 -0.46071,0.35156 -0.76697,0.41569 -0.119,0.0251 -0.36688,0.0359 -0.47443,0.0215 z m 0.33957,-0.33438 c 0.16934,-0.0235 0.34364,-0.0899 0.49462,-0.18832 0.0853,-0.0555 0.25361,-0.22268 0.31233,-0.31005 0.31285,-0.46537 0.2671,-1.05769 -0.11391,-1.47458 -0.0936,-0.10239 -0.34374,-0.27495 -0.3643,-0.25127 -0.004,0.005 -0.061,0.18042 -0.12581,0.38975 -0.13377,0.43201 -0.21002,0.6605 -0.23987,0.71903 -0.0302,0.0591 -0.0668,0.084 -0.12417,0.0839 -0.0957,-1.3e-4 -0.15751,-0.0663 -0.15758,-0.1686 -4e-5,-0.07 0.0263,-0.16415 0.19353,-0.69167 0.0673,-0.21218 0.12442,-0.39807 0.12697,-0.41306 l 0.004,-0.0272 -0.0922,-0.008 c -0.39808,-0.0309 -0.79848,0.16176 -1.03862,0.49931 -0.28162,0.39589 -0.28448,0.92918 -0.008,1.34162 0.0587,0.0874 0.22712,0.25453 0.31234,0.31004 0.24733,0.16122 0.53646,0.22767 0.81924,0.18833 z m 4.85927,-0.0355 c 0.63578,-0.12168 1.06041,-0.75935 0.92724,-1.39249 -0.0488,-0.23199 -0.15234,-0.42002 -0.32752,-0.59484 -0.19,-0.18959 -0.41021,-0.29842 -0.67577,-0.33393 -0.16757,-0.0222 -0.49363,0.0131 -0.48461,0.0529 0.002,0.008 0.10809,0.24673 0.23628,0.53107 0.31247,0.69312 0.31132,0.69023 0.30548,0.76071 -0.003,0.0455 -0.0108,0.0619 -0.0326,0.0809 -0.0579,0.0498 -0.0755,0.051 -0.71313,0.0473 -0.32834,-0.004 -0.59698,0 -0.59698,0.004 0,0.004 0.0123,0.0396 0.0274,0.0817 0.13366,0.37207 0.43654,0.65073 0.8136,0.74848 0.16526,0.0428 0.35096,0.0486 0.52057,0.0161 z m -0.42307,-1.15556 c 0,-0.0148 -0.43975,-0.97243 -0.44779,-0.97511 -0.0167,-0.005 -0.12418,0.082 -0.20526,0.1674 -0.1898,0.19989 -0.29665,0.43839 -0.32221,0.71923 l -0.008,0.0804 0.10282,0.004 c 0.14008,0.004 0.8797,0.009 0.8797,0.004 z m -1.30875,-0.0881 c 0.0328,-0.38374 0.16995,-0.69311 0.42431,-0.95719 0.0564,-0.0585 0.14726,-0.13815 0.20202,-0.17695 0.0548,-0.0387 0.0974,-0.0758 0.0949,-0.0821 -0.005,-0.014 -0.24844,-0.55105 -0.26813,-0.59339 -0.01,-0.0206 -0.0158,-0.0251 -0.0211,-0.0156 -0.005,0.0108 -0.56852,1.48298 -0.7035,1.84097 l -0.0246,0.0652 h 0.28926 l 0.006,-0.0808 z m -0.2455,-0.97096 c 0.20102,-0.54038 0.3655,-0.98611 0.3655,-0.99056 0,-0.006 -2.49652,-0.005 -2.55864,0.004 -0.014,0.004 0.23884,0.28368 0.89647,1.00032 0.61242,0.66737 0.91852,0.99373 0.92358,0.98471 0.004,-0.008 0.17205,-0.45566 0.37307,-0.99608 z"
       fill="#173814"
       id="path9-4"
       style="fill:#00008b;fill-opacity:1;stroke-width:0.411906" />
  </g>
</svg>
