<?xml version="1.0" encoding="UTF-8" standalone="no"?>
<!-- Created with Inkscape (http://www.inkscape.org/) -->

<svg
   width="8.2710037mm"
   height="8.2710037mm"
   viewBox="0 0 8.2710037 8.2710037"
   version="1.1"
   id="svg1"
   xmlns="http://www.w3.org/2000/svg"
   xmlns:svg="http://www.w3.org/2000/svg">
  <defs
     id="defs1" />
  <path
     style="fill:#008000;fill-opacity:1;fill-rule:nonzero;stroke:none;stroke-width:0.413693"
     d="m 3.6224525,7.6672394 c 0.117971,-0.050096 0.2375511,-0.219775 0.2375511,-0.3361263 0,-0.042013 -0.088873,-0.4702535 -0.1987668,-0.9534347 C 3.5529597,5.896114 3.4689338,5.4840359 3.4737809,5.4614127 3.4801914,5.4387879 3.6984043,5.2125491 3.956962,4.9588386 L 4.4304474,4.4950488 4.8651488,4.9846953 c 0.240783,0.2682533 0.481566,0.5122683 0.5365097,0.5429719 0.090499,0.050096 0.2230068,0.056554 1.1441211,0.056554 1.0342353,0 1.0423143,0 1.1457379,-0.074333 C 7.9145243,5.3499069 7.903212,5.0153975 7.6721292,4.860262 7.5654784,4.7875405 7.5380066,4.78593 6.7736382,4.78593 H 5.9850329 L 4.9297897,3.5610069 C 4.3512654,2.8871378 3.8713146,2.3231575 3.8648506,2.3086139 c -0.00485,-0.017776 0.114735,-0.029089 0.2666398,-0.029089 h 0.2763339 l 0.4751006,0.5510536 c 0.2617911,0.3038057 0.5155017,0.5833729 0.5623649,0.6189254 0.0905,0.072721 0.2375511,0.087263 0.3377429,0.033929 C 5.8783791,3.4317265 5.9510958,3.2668906 5.9268496,3.157003 5.9090718,3.071351 4.8570636,1.8173458 4.7083918,1.7026103 4.6712258,1.6735234 4.412665,1.6622108 3.7484932,1.6622108 H 2.8386913 L 2.2957177,2.2003357 1.7559761,2.7384614 1.3665229,2.344159 C 0.97707602,1.9498641 0.85910806,1.8577523 0.73790814,1.8577523 c -0.1955349,0 -0.36359809,0.2149266 -0.30865439,0.3926858 0.0371668,0.1211998 1.02130615,1.1473543 1.16836275,1.2168407 0.1971501,0.093736 0.2876463,0.050096 0.6415471,-0.3102694 0.1729117,-0.1777589 0.3280472,-0.3231986 0.3425915,-0.3231986 0.032319,0 0.9194976,1.0293866 0.9194976,1.0665542 0,0.014541 -0.1906863,0.2149262 -0.4250056,0.4476288 -0.4395498,0.4379347 -0.518732,0.5413567 -0.518732,0.6819496 0,0.1405958 0.5268125,2.438529 0.5769076,2.5128658 0.051708,0.079178 0.2310874,0.1761421 0.3248153,0.1745269 0.032319,0 0.106651,-0.022624 0.1648296,-0.048486 z M 2.4912589,1.7543288 C 2.7772885,1.6412097 2.932424,1.2355958 2.8063771,0.93502139 2.7255782,0.74110233 2.4427789,0.55364772 2.2310846,0.55364772 c -0.3118862,0 -0.6156935,0.30542234 -0.6173086,0.62054078 -0.00156,0.1842227 0.1454428,0.4411653 0.3054224,0.5365084 0.1502901,0.087265 0.4136931,0.1066544 0.5720605,0.045247 z m 0,0"
     id="path10" />
</svg>
