<?xml version="1.0" encoding="UTF-8" standalone="no"?>
<!-- Created with Inkscape (http://www.inkscape.org/) -->

<svg
   width="8.2710037mm"
   height="8.2710037mm"
   viewBox="0 0 8.2710037 8.2710037"
   version="1.1"
   id="svg1"
   xmlns="http://www.w3.org/2000/svg"
   xmlns:svg="http://www.w3.org/2000/svg">
  <defs
     id="defs1">
    <clipPath
       id="clip2">
      <path
         d="M 4,3 H 20 V 17 H 4 Z m 0,0"
         id="path5" />
    </clipPath>
    <clipPath
       id="clip3">
      <path
         d="m 23.0625,12.015625 c 0,6.101563 -4.945312,11.046875 -11.046875,11.046875 -6.101563,0 -11.046875,-4.945312 -11.046875,-11.046875 0,-6.101563 4.945312,-11.046875 11.046875,-11.046875 6.101563,0 11.046875,4.945312 11.046875,11.046875 z m 0,0"
         id="path6" />
    </clipPath>
    <clipPath
       id="clip6-5">
      <path
         d="m 0,14 h 22 v 6 H 0 Z m 0,0"
         id="path9" />
    </clipPath>
    <clipPath
       id="clip7-6">
      <path
         d="m 23.0625,12.015625 c 0,6.101563 -4.945312,11.046875 -11.046875,11.046875 -6.101563,0 -11.046875,-4.945312 -11.046875,-11.046875 0,-6.101563 4.945312,-11.046875 11.046875,-11.046875 6.101563,0 11.046875,4.945312 11.046875,11.046875 z m 0,0"
         id="path10-7" />
    </clipPath>
    <clipPath
       id="clip8-7">
      <path
         d="m 23.0625,12.015625 c 0,6.101563 -4.945312,11.046875 -11.046875,11.046875 -6.101563,0 -11.046875,-4.945312 -11.046875,-11.046875 0,-6.101563 4.945312,-11.046875 11.046875,-11.046875 6.101563,0 11.046875,4.945312 11.046875,11.046875 z m 0,0"
         id="path11-4" />
    </clipPath>
    <clipPath
       id="clip9-8">
      <path
         d="m 23.023438,12.011719 c 0,6.097656 -4.941407,11.039062 -11.035157,11.039062 -6.097656,0 -11.039062,-4.941406 -11.039062,-11.039062 0,-6.09375 4.941406,-11.035157 11.039062,-11.035157 6.09375,0 11.035157,4.941407 11.035157,11.035157 z m 0,0"
         id="path13-5" />
    </clipPath>
    <clipPath
       id="clip10">
      <path
         d="M 3,3 H 9 V 9 H 3 Z m 0,0"
         id="path13-6" />
    </clipPath>
    <clipPath
       id="clip11">
      <path
         d="m 23.0625,12.015625 c 0,6.101563 -4.945312,11.046875 -11.046875,11.046875 -6.101563,0 -11.046875,-4.945312 -11.046875,-11.046875 0,-6.101563 4.945312,-11.046875 11.046875,-11.046875 6.101563,0 11.046875,4.945312 11.046875,11.046875 z m 0,0"
         id="path14" />
    </clipPath>
  </defs>
  <g
     id="g3"
     transform="matrix(1.4423262,0,0,1.4423262,-23.038204,-11.489993)">
    <g
       clip-path="url(#clip2)"
       clip-rule="nonzero"
       id="g17"
       transform="matrix(0.26458334,0,0,0.26458334,15.883269,7.7888508)"
       style="fill:#00008b;fill-opacity:1">
      <g
         clip-path="url(#clip3)"
         clip-rule="nonzero"
         id="g16"
         style="fill:#00008b;fill-opacity:1">
        <path
           style="fill:#00008b;fill-opacity:1;fill-rule:nonzero;stroke:none"
           d="M 9.515625,8.238281 C 8.664062,8.144531 7.996094,7.390625 7.855469,6.570312 7.6875,5.71875 8.105469,4.757812 8.902344,4.378906 c 0.769531,-0.394531 1.792968,-0.324218 2.429687,0.28125 0.273438,0.257813 0.515625,0.578125 0.613281,0.941406 0.05859,0.335938 0.03906,0.679688 0.01172,1.015626 C 11.878902,7.15625 11.570313,7.667969 11.097657,7.953125 10.63672,8.261719 10.054689,8.289062 9.515625,8.238281 Z M 7.472656,5.382812 C 7.347656,5.269531 7.308594,5.097656 7.273438,4.9375 7.214844,4.578125 7.261719,4.175781 7.496094,3.882812 c 0.203125,-0.25 0.542968,-0.34375 0.851562,-0.316406 0.230469,0.035156 0.445313,0.136719 0.640625,0.261719 0.09375,0.039063 0.101563,0.125 0,0.160156 C 8.8125,4.109375 8.617188,4.207031 8.453125,4.351562 8.230469,4.546875 8.007812,4.75 7.832031,4.992188 7.75,5.109375 7.71875,5.257812 7.632812,5.375 7.59375,5.433594 7.519531,5.429688 7.472656,5.382812 Z M 5.144531,13.855469 C 4.890625,13.878906 4.632812,13.859375 4.851562,13.566406 5.21875,12.671875 5.550781,11.757812 5.933594,10.867188 6.121094,10.496094 6.21875,10.078125 6.410156,9.707031 6.621094,9.390625 6.613281,8.941406 6.957031,8.746094 7.421875,8.542969 7.949219,8.640625 8.441406,8.675781 c 0.480469,0.050781 0.964844,0.203125 1.3125,0.554688 0.773438,0.636719 1.425782,1.417969 2.253906,1.988281 0.621094,0.277344 1.261719,0.511719 1.898438,0.75 0.3125,0.101562 0.714844,0.136719 0.855469,0.488281 0.21875,0.359375 0.125,0.960938 -0.351563,1.042969 C 13.78125,13.609375 13.21875,13.214844 12.644531,13.035156 12.167969,12.8125 11.648438,12.695312 11.1875,12.449219 10.734375,12.203125 10.433594,11.753906 9.984375,11.515625 c -0.054687,0.367187 0.335937,0.738281 0.101563,1.105469 -0.1875,0.46875 -0.710938,0.210937 -1.050782,0.300781 -0.316406,0.234375 -0.484375,0.566406 -0.652344,0.886719 -0.617187,0.101562 -1.25,0.04297 -1.875,0.0625 -0.453124,-0.0039 -0.910156,-0.0039 -1.363281,-0.01563 z m 11.554688,2.671875 c -0.90625,-0.300782 -1.566407,-1.234375 -1.507813,-2.195313 0.02734,-0.808593 0.546875,-1.566406 1.277344,-1.902343 0.488281,-0.242188 1.070312,-0.285157 1.578125,-0.07813 0.664063,0.230469 1.257813,0.761719 1.421875,1.460938 0.08203,0.390625 0.06641,0.796875 0.0078,1.191406 -0.121093,0.53125 -0.53125,0.933594 -0.929687,1.277344 -0.238281,0.183594 -0.542969,0.269531 -0.839844,0.253906 -0.335937,0.01563 -0.671875,0.01563 -1.007812,-0.0078 z m 0,0"
           id="path16" />
      </g>
    </g>
    <g
       clip-path="url(#clip6-5)"
       clip-rule="nonzero"
       id="g21"
       transform="matrix(0.26458334,0,0,0.26458334,15.883269,7.7888508)"
       style="fill:#00008b;fill-opacity:1">
      <g
         clip-path="url(#clip7-6)"
         clip-rule="nonzero"
         id="g20"
         style="fill:#00008b;fill-opacity:1">
        <path
           style="fill:#00008b;fill-opacity:1;fill-rule:nonzero;stroke:none"
           d="m 16.234375,19.238281 c -0.628906,0.04297 -1.066406,-0.421875 -1.464844,-0.824219 -0.175781,-0.144531 -0.324219,-0.359374 -0.515625,-0.457031 -3.542968,-0.01563 -9.539062,-0.0039 -13.078125,-0.05078 -0.785156,-0.05859 -0.492187,-1.113281 -0.574219,-1.648438 -0.003906,-0.4375 0,-0.878906 0,-1.316406 0.1875,-0.128906 0.328126,-0.386718 0.550782,-0.433594 3.292968,0 9.042968,0 12.335937,0 l 2.96875,2.921876 c 1.402344,0.01953 2.8125,-0.02344 4.214844,0.05859 0.679687,0.214844 0.859375,1.175781 0.253906,1.585938 -0.574219,0.300781 -1.277343,0.113281 -1.90625,0.171875 -0.925781,0.0039 -1.855469,0.01563 -2.785156,-0.0078 z m 0,0"
           id="path19" />
      </g>
    </g>
    <g
       clip-path="url(#clip8-7)"
       clip-rule="nonzero"
       id="g22"
       transform="matrix(0.26458334,0,0,0.26458334,15.883269,7.7888508)"
       style="fill:#00008b;fill-opacity:1">
      <g
         id="use21"
         clip-path="url(#clip9-8)"
         style="fill:#00008b;fill-opacity:1">
        <path
           style="fill:#00008b;fill-opacity:1;fill-rule:nonzero;stroke:none"
           d="M 3.378906,18.789062 3.167969,18.519531 c 0,0 3.417969,0.04687 4.996093,0.0625 1.921876,0.0039 3.839844,0.0039 5.761719,0.0039 l 0.671875,0.671874 H 3.738281 L 3.492188,18.9375 Z m 0,0"
           id="path3" />
      </g>
    </g>
    <g
       clip-path="url(#clip10)"
       clip-rule="nonzero"
       id="g24"
       transform="matrix(0.26458334,0,0,0.26458334,15.883269,7.7888508)"
       style="fill:#00008b;fill-opacity:1">
      <g
         clip-path="url(#clip11)"
         clip-rule="nonzero"
         id="g23"
         style="fill:#00008b;fill-opacity:1">
        <path
           style="fill:#00008b;fill-opacity:1;fill-rule:evenodd;stroke:none"
           d="M 8.101562,4.644531 C 7.984375,4.1875 7.542969,3.859375 7.078125,3.832031 6.492188,3.789062 5.914062,3.980469 5.390625,4.226562 4.855469,4.496094 4.335938,4.847656 3.984375,5.34375 3.769531,5.710938 3.75,6.15625 3.738281,6.574219 3.734375,6.996094 3.792969,7.4375 4.035156,7.792969 4.132812,7.9375 4.292969,8.136719 4.425781,8.191406 4.398438,7.605469 4.347656,7.015625 4.410156,6.429688 4.515625,5.753906 5,5.199219 5.5625,4.84375 6.070312,4.503906 6.597656,4.140625 7.210938,4.027344 7.542969,3.957031 7.9375,4.105469 8.054688,4.445312 8.078125,4.507812 8.09375,4.578125 8.101562,4.644531 Z m 0,0"
           id="path22" />
      </g>
    </g>
    <path
       style="fill:#00008b;fill-opacity:1;fill-rule:nonzero;stroke:none;stroke-width:0.264583"
       d="m 21.540805,12.683643 c 0,-0.139527 -0.09612,-0.252181 -0.214974,-0.252181 -0.118856,0 -0.214974,0.112654 -0.214974,0.252181 0,0.139526 0.09612,0.252181 0.214974,0.252181 0.118856,0 0.214974,-0.112655 0.214974,-0.252181 z m 0,0"
       id="path24" />
  </g>
</svg>
