<?xml version="1.0" encoding="UTF-8" standalone="no"?>
<!-- Created with Inkscape (http://www.inkscape.org/) -->

<svg
   width="8.2710037mm"
   height="8.2710037mm"
   viewBox="0 0 8.2710037 8.2710037"
   version="1.1"
   id="svg1"
   xmlns="http://www.w3.org/2000/svg"
   xmlns:svg="http://www.w3.org/2000/svg">
  <defs
     id="defs1" />
  <g
     id="layer1"
     transform="translate(-123.29584,-119.85624)">
    <path
       style="fill:#00008b;fill-opacity:1;fill-rule:nonzero;stroke:none;stroke-width:0.432"
       d="m 124.31527,127.60684 c 0,-0.14176 0.0591,-1.07831 0.0827,-1.2825 l 0.008,-0.0793 -0.21601,-0.009 -0.21767,-0.008 -0.008,-0.0421 c -0.0152,-0.076 0.005,-0.73238 0.027,-0.88088 0.10464,-0.73406 0.32232,-1.43606 0.63787,-2.05706 0.14007,-0.27169 0.24807,-0.44887 0.39151,-0.63957 0.18225,-0.24299 0.68175,-0.83531 0.7442,-0.88255 0.12153,-0.0894 0.19574,-0.16538 0.20417,-0.20926 0.004,-0.0557 10e-4,-0.11308 -0.006,-0.16875 -0.0122,-0.10463 -0.009,-0.14176 0.005,-0.21262 0.0608,-0.28856 0.32064,-0.49106 0.62776,-0.49106 0.12487,0 0.22781,0.027 0.33075,0.0861 0.26324,0.15019 0.38474,0.459 0.28856,0.73238 -0.0726,0.20418 -0.2818,0.378 -0.48263,0.40163 -0.0388,0.004 -0.0776,0.0152 -0.11308,0.0303 -0.0607,0.0371 -0.22949,0.41682 -0.27169,0.60413 -0.0354,0.16707 -0.0122,0.34087 0.0675,0.49276 0.0541,0.0996 0.20926,0.23962 0.31894,0.29361 l 0.0962,0.0456 0.027,-0.12656 c 0.0912,-0.42188 0.33076,-0.8927 0.65139,-1.27744 0.28349,-0.34256 0.69188,-0.65982 1.05974,-0.8235 l 0.0927,-0.0421 v -0.0641 c 0.001,-0.10463 0.0337,-0.24805 0.0742,-0.33412 0.0944,-0.19238 0.27169,-0.29531 0.54675,-0.31725 0.17044,-0.0135 0.33244,0.0489 0.47588,0.18393 0.18225,0.17382 0.2295,0.40839 0.12487,0.6362 -0.0321,0.0709 -0.14005,0.19068 -0.2025,0.22275 -0.11811,0.0607 -0.14682,0.0675 -0.33581,0.0692 -0.18057,0 -0.18394,0.004 -0.19913,0.0304 -0.0202,0.0388 -0.0186,0.1485 0.001,0.22443 0.009,0.0338 0.0489,0.13502 0.0877,0.22613 0.0388,0.0912 0.0742,0.18226 0.0777,0.20082 0.0186,0.0709 0.15188,0.35607 0.25143,0.53662 0.17551,0.31725 0.30544,0.48769 0.59569,0.78636 0.2582,0.26665 0.45394,0.4354 0.64633,0.56027 0.1451,0.0944 0.17886,0.162 0.11982,0.24638 -0.022,0.0286 -0.0489,0.0541 -0.0793,0.0742 l -0.0506,0.0321 -0.21769,1.24199 -0.2835,1.61833 -0.0675,0.3763 -0.0692,-0.008 c -0.0286,-0.001 -0.0573,-0.006 -0.0844,-0.0152 -0.009,-0.006 0.076,-0.5147 0.26832,-1.61326 0.25988,-1.46812 0.2818,-1.60482 0.26157,-1.61831 -0.008,-0.008 -0.0202,-0.0135 -0.0321,-0.0152 -0.006,0 -0.0556,-0.0304 -0.11309,-0.0675 l -0.0979,-0.0675 -0.0136,0.0337 -0.0186,0.0489 c -0.006,0.0186 -0.0253,0.0186 -0.10806,0.004 -0.0607,-0.0122 -0.0625,-0.0135 -0.0556,-0.0438 0.005,-0.0186 0.0186,-0.0573 0.0321,-0.0877 0.0136,-0.0304 0.0202,-0.0573 0.0152,-0.0607 l -0.0927,-0.0675 c -0.1467,-0.10622 -0.33233,-0.26489 -0.51289,-0.43869 -0.24975,-0.24131 -0.36787,-0.37632 -0.65643,-0.75432 -0.0709,-0.0928 -0.12154,-0.13163 -0.17382,-0.13163 -0.0557,0 -0.20756,0.19239 -0.31388,0.39825 -0.11308,0.23289 -0.19574,0.47926 -0.24806,0.73407 -0.0371,0.24976 -0.0489,0.50119 -0.0337,0.75431 0.0152,0.21769 0.0894,0.67162 0.17213,1.04794 0.11137,0.49782 0.23962,1.16944 0.26661,1.38883 0.0122,0.0927 0.027,0.19068 0.0354,0.21766 l 0.0152,0.0506 0.19068,0.0573 c 0.29531,0.0929 0.3797,0.15358 0.30881,0.22612 l -0.0286,0.0286 h -0.97201 l -0.0136,-0.0456 c -0.006,-0.0252 -0.0321,-0.14174 -0.0557,-0.26154 -0.0641,-0.29026 -0.14682,-0.57714 -0.24976,-0.85725 -0.0776,-0.21769 -0.21093,-0.55351 -0.22612,-0.57039 -0.005,-0.005 -0.0152,0.10289 -0.0253,0.23795 -0.027,0.42355 -0.0759,0.76444 -0.14681,1.03274 -0.0371,0.14176 -0.0456,0.13333 0.15524,0.21938 0.0793,0.0337 0.162,0.0742 0.18224,0.0877 0.0473,0.0337 0.0759,0.0944 0.0591,0.12319 -0.0254,0.0489 -0.0809,0.0506 -1.07157,0.0406 l -0.95006,-0.008 -0.0152,-0.0304 c -0.0136,-0.0371 -0.0254,-0.0759 -0.0337,-0.11639 -0.008,-0.0421 -0.022,-0.0844 -0.0388,-0.1232 -0.0489,-0.0944 -0.29699,-0.78637 -0.36618,-1.02262 l -0.0202,-0.0692 h -0.15694 c -0.15356,0 -0.15695,0 -0.16369,0.027 -0.0304,0.14849 -0.0827,0.34592 -0.14176,0.52649 -0.0742,0.23118 -0.13162,0.42694 -0.13162,0.45563 0,0.0236 0.0676,0.0573 0.25989,0.12993 0.23118,0.0877 0.28855,0.11982 0.28349,0.16201 -0.005,0.022 -0.0186,0.0406 -0.0355,0.0541 -0.0286,0.0202 -0.0726,0.0236 -0.49106,0.0304 l -0.459,0.008 z m 2.34057,-0.19238 c 0.0607,-0.0489 0.11309,-0.26832 0.17211,-0.71719 0.0709,-0.53831 0.0979,-1.00069 0.0709,-1.23187 -0.0136,-0.12995 -0.0709,-0.48263 -0.135,-0.84545 -0.0253,-0.13836 -0.0338,-0.24131 -0.0388,-0.46068 l -0.006,-0.28181 -0.0625,-0.008 c -0.12487,-0.0152 -0.27676,-0.1029 -0.4607,-0.26326 -0.10462,-0.0912 -0.1333,-0.10122 -0.18561,-0.0608 -0.0506,0.0371 -0.0793,0.1148 -0.1164,0.2987 -0.0641,0.33411 -0.0776,0.45899 -0.0759,0.74419 0.001,0.34593 0.0236,0.50118 0.18732,1.29261 0.0371,0.18225 0.0658,0.33413 0.0625,0.33919 -0.004,0.005 -0.0388,0.008 -0.0809,0.008 h -0.0742 l 0.008,0.0406 0.0692,0.33244 c 0.0354,0.16032 0.0777,0.37126 0.0979,0.46912 l 0.0338,0.17719 0.24131,0.0927 c 0.13164,0.0523 0.24638,0.0944 0.25312,0.0962 0.008,0 0.027,-0.009 0.0406,-0.022 z m 0,0"
       id="path14" />
  </g>
</svg>
