<?xml version="1.0" encoding="UTF-8" standalone="no"?>
<!-- Created with Inkscape (http://www.inkscape.org/) -->

<svg
   width="8.2710037mm"
   height="8.2710037mm"
   viewBox="0 0 8.2710037 8.2710037"
   version="1.1"
   id="svg1"
   xmlns="http://www.w3.org/2000/svg"
   xmlns:svg="http://www.w3.org/2000/svg">
  <defs
     id="defs1" />
  <g
     id="g2"
     transform="matrix(1.5375927,0,0,1.5375927,-17.295028,-2.9907925)">
    <path
       style="fill:#02a720;fill-opacity:1;fill-rule:nonzero;stroke:none;stroke-width:0.264583"
       d="M 14.547897,6.005168 V 5.3891849 h -0.466121 c -0.539502,0 -0.668693,-0.040308 -0.875399,-0.2697509 -0.261482,-0.2904215 -0.259416,-0.7069336 0.0062,-1.0076906 0.07441,-0.085783 0.183968,-0.1746662 0.243913,-0.1994709 0.09612,-0.040308 0.106453,-0.059945 0.106453,-0.2025716 0,-0.2966228 0.202572,-0.5343343 0.501262,-0.5880781 0.10852,-0.018603 0.132292,-0.03824 0.132292,-0.1064532 0,-0.1725994 0.286287,-0.406177 0.497127,-0.406177 0.21394,0 0.487825,0.2335776 0.487825,0.4154787 0,0.05271 0.03204,0.075448 0.131259,0.093018 0.305924,0.05581 0.502294,0.2883543 0.502294,0.5942788 0,0.1322917 0.01343,0.1632976 0.07545,0.1839682 0.04134,0.012402 0.143661,0.085783 0.226343,0.1632974 0.414445,0.3813723 0.304891,1.0262942 -0.21394,1.2640057 -0.113688,0.05271 -0.230477,0.065112 -0.607715,0.066146 h -0.465086 v 1.2319657 h -0.28112 V 6.005168 Z m 0,0"
       id="path8" />
    <path
       style="fill:#810200;fill-opacity:1;fill-rule:nonzero;stroke:none;stroke-width:0.264583"
       d="m 14.856922,5.4222578 v 1.0686688 c 0,0.094051 -0.07648,0.1694984 -0.170532,0.1694984 -0.09405,0 -0.170532,-0.075448 -0.170532,-0.1694984 V 5.4222578 c 0,-0.094051 0.07648,-0.1705322 0.170532,-0.1705322 0.09405,0 0.170532,0.076481 0.170532,0.1705322 z m 0,0"
       id="path9" />
    <path
       style="fill:#810200;fill-opacity:1;fill-rule:nonzero;stroke:none;stroke-width:0.264583"
       d="m 11.996115,6.1209232 v 0.2842204 c 0,0.094051 -0.07545,0.1705322 -0.169499,0.1705322 -0.09405,0 -0.170532,-0.076481 -0.170532,-0.1705322 V 6.1209232 c 0,-0.094051 0.07648,-0.1705322 0.170532,-0.1705322 0.09405,0 0.169499,0.076481 0.169499,0.1705322 z m 0,0"
       id="path11" />
    <path
       style="fill:#810200;fill-opacity:1;fill-rule:nonzero;stroke:none;stroke-width:0.264583"
       d="m 11.675721,5.6413659 h 1.586467 c 0.09405,0 0.170532,0.076481 0.170532,0.1705321 0,0.094051 -0.07648,0.1705322 -0.170532,0.1705322 h -1.586467 c -0.09405,0 -0.170532,-0.076481 -0.170532,-0.1705322 0,-0.094051 0.07648,-0.1705321 0.170532,-0.1705321 z m 0,0"
       id="path12" />
    <path
       style="fill:#810200;fill-opacity:1;fill-rule:nonzero;stroke:none;stroke-width:0.264583"
       d="m 13.242551,6.1136884 v 0.2842205 c 0,0.094051 -0.07648,0.1705321 -0.170532,0.1705321 -0.09405,0 -0.170533,-0.076481 -0.170533,-0.1705321 V 6.1136884 c 0,-0.094051 0.07648,-0.1705321 0.170533,-0.1705321 0.09405,0 0.170532,0.076481 0.170532,0.1705321 z m 0,0"
       id="path13" />
    <path
       style="fill:#810200;fill-opacity:1;fill-rule:evenodd;stroke:none;stroke-width:0.264583"
       d="m 14.523093,5.4108889 -0.855762,-0.5343342 0.525032,-0.016536 z m 0.31626,0.0062 0.855761,-0.658358 -0.523999,-0.019637 z m 0,0"
       id="path14" />
  </g>
</svg>
