<?xml version="1.0" encoding="UTF-8" standalone="no"?>
<!-- Created with Inkscape (http://www.inkscape.org/) -->

<svg
   width="8.2710037mm"
   height="8.2710037mm"
   viewBox="0 0 8.2710037 8.2710037"
   version="1.1"
   id="svg1"
   xml:space="preserve"
   xmlns="http://www.w3.org/2000/svg"
   xmlns:svg="http://www.w3.org/2000/svg"><defs
     id="defs1"><linearGradient
       id="linear1-7"
       gradientUnits="userSpaceOnUse"
       x1="11.891"
       y1="14.172"
       x2="11.922"
       y2="15.828"
       gradientTransform="matrix(0.28126003,0,0,0.28126003,12.001527,2.8765724)"><stop
         offset="0"
         style="stop-color:rgb(70.196078%,97.647059%,96.862745%);stop-opacity:1;"
         id="stop6-99" /><stop
         offset="1"
         style="stop-color:rgb(9.803922%,38.039216%,50.588235%);stop-opacity:1;"
         id="stop7-3" /></linearGradient><linearGradient
       id="linear2-2"
       gradientUnits="userSpaceOnUse"
       x1="11.999"
       y1="1039.413"
       x2="11.988"
       y2="1032.42"
       gradientTransform="matrix(0.26458334,0,0,0.26458334,12.202081,-269.02461)"><stop
         offset="0"
         style="stop-color:rgb(0%,100%,98.431373%);stop-opacity:1;"
         id="stop8-4" /><stop
         offset="1"
         style="stop-color:rgb(89.019608%,99.607843%,100%);stop-opacity:0;"
         id="stop9-3" /></linearGradient></defs><g
     id="g2"
     transform="matrix(1.7091,0,0,1.7091,-22.145477,-6.6367853)"><path
       style="fill:#0000ff;fill-opacity:1;fill-rule:nonzero;stroke:none;stroke-width:0.264583"
       d="m 14.644309,4.0791285 c -0.357601,-0.00207 -0.682129,0.2077392 -0.827856,0.5343343 -0.07752,0.1684655 -0.115756,0.3948075 -0.09198,0.5550045 0.01344,0.101286 0.02377,0.121957 0.07545,0.165365 0.04651,0.03927 0.117823,0.04444 0.183968,0.01344 0.06821,-0.03307 0.08475,-0.07131 0.09715,-0.227376 0.02894,-0.382406 0.177767,-0.6077154 0.438216,-0.6635259 0.178801,-0.038241 0.367937,0.0062 0.49196,0.1157553 0.06925,0.060979 0.14056,0.1777666 0.1757,0.2924886 0.01757,0.05478 0.03101,0.102319 0.02894,0.104386 -0.0021,0.0021 -0.03514,-0.0072 -0.07338,-0.02067 -0.08578,-0.02894 -0.221175,-0.03204 -0.320394,-0.0052 -0.283187,0.07338 -0.441317,0.304891 -0.444417,0.645956 -10e-4,0.147794 0.0186,0.206705 0.08268,0.247013 0.03307,0.02067 0.05788,0.02584 0.110588,0.0217 0.05995,-0.0041 0.07441,-0.01137 0.110587,-0.05064 0.05271,-0.05684 0.07235,-0.128157 0.06098,-0.222209 -0.0155,-0.138493 0.04237,-0.24598 0.153996,-0.288354 0.04858,-0.0186 0.06615,-0.01964 0.125057,-0.0072 0.07545,0.01757 0.11989,0.05581 0.15503,0.134359 0.0186,0.04237 0.02274,0.101286 0.02687,0.332796 l 0.0031,0.130225 v 0.453719 l -0.438216,0.0021 -0.813387,-0.01137 c -0.556039,0.0031 -0.622185,0.0041 -0.661459,0.02377 -0.05684,0.02687 -0.07648,0.06718 -0.07648,0.150896 0,0.05581 0.0062,0.07338 0.03824,0.109554 0.04237,0.04961 0.111621,0.07131 0.218074,0.07131 0.08992,0 0.240813,0.04031 0.334863,0.08682 0.121957,0.06201 0.223243,0.144693 0.471289,0.386539 0.332797,0.325562 0.492994,0.424781 0.756544,0.471289 0.06201,0.01033 0.116788,0.02377 0.121956,0.02894 0.0052,0.0052 0.0186,0.04547 0.02997,0.08992 0.03307,0.129191 0.0083,0.230477 -0.07131,0.297656 -0.05788,0.04961 -0.112655,0.06925 -0.273885,0.09715 -0.241846,0.04237 -0.29559,0.07752 -0.29559,0.192237 0,0.04857 0.02687,0.136425 0.04134,0.137459 0.0021,0 0.02584,0.0083 0.05374,0.01757 0.07338,0.02687 1.418001,0.02791 1.481047,0.0031 0.06408,-0.02687 0.09612,-0.07648 0.09612,-0.149862 0,-0.133325 -0.05271,-0.172599 -0.254248,-0.189136 -0.244946,-0.0186 -0.37207,-0.09508 -0.405143,-0.240812 -0.01344,-0.06408 -0.0124,-0.07958 0.0124,-0.16123 0.03101,-0.103353 0.02067,-0.09612 0.209806,-0.146762 0.162264,-0.04341 0.341064,-0.128157 0.461987,-0.219108 0.05271,-0.03927 0.183968,-0.16123 0.292489,-0.269751 0.297656,-0.300756 0.420646,-0.37207 0.756543,-0.430981 0.07855,-0.01343 0.157096,-0.03204 0.174666,-0.03927 0.04548,-0.02067 0.06925,-0.07338 0.06925,-0.148828 0,-0.07648 -0.04134,-0.133325 -0.111621,-0.152963 -0.02791,-0.0083 -0.289388,-0.01447 -0.644922,-0.0155 l -0.599447,-0.0041 -0.624251,0.0124 v -0.334863 c 0.0031,-0.03411 0.0041,-0.09819 0.0041,-0.221176 0,-0.294555 0.01344,-0.365869 0.08165,-0.434082 0.08578,-0.08578 0.245979,-0.08475 0.32246,0.0031 0.04341,0.04858 0.05994,0.09922 0.07751,0.239779 0.0072,0.05374 0.0186,0.118855 0.02481,0.145727 0.02687,0.09715 0.116789,0.145728 0.216007,0.115755 0.09715,-0.02894 0.134362,-0.119889 0.121959,-0.299724 -0.02067,-0.311092 -0.176733,-0.538468 -0.419613,-0.608748 -0.05994,-0.01757 -0.102319,-0.01964 -0.208772,-0.01344 -0.05891,0.0031 -0.116789,0.0083 -0.174667,0.0155 l -0.04237,0.0083 0.03411,-0.09302 c 0.07648,-0.214974 0.185002,-0.3317628 0.360702,-0.3917076 0.06718,-0.022737 0.103353,-0.026872 0.207739,-0.022737 0.110588,0.00413 0.137459,0.010335 0.212907,0.045475 0.218074,0.1023194 0.330729,0.3069576 0.328662,0.5942786 -0.001,0.121956 0.0021,0.148828 0.02584,0.196371 0.03411,0.06615 0.07028,0.08682 0.157096,0.08682 0.07855,0 0.133326,-0.03824 0.157097,-0.109554 0.02377,-0.07131 0.0072,-0.370003 -0.0248,-0.478524 -0.101287,-0.338997 -0.309026,-0.5581051 -0.622185,-0.6552566 -0.08061,-0.024805 -0.120923,-0.029973 -0.266651,-0.028939 -0.152962,0 -0.181901,0.00413 -0.271818,0.03514 -0.128157,0.044442 -0.257348,0.1240234 -0.373103,0.230477 l -0.08992,0.083716 -0.102319,-0.096118 C 15.17761,4.2434597 15.059788,4.1690456 14.944033,4.1318383 14.846881,4.0997991 14.745595,4.0832627 14.644309,4.0832627 Z m 0.746208,2.6055258 c 0.946712,0 1.0573,0.0031 1.047998,0.01964 -0.0062,0.01033 -0.07338,0.08578 -0.149862,0.166398 -0.227376,0.24288 -0.384472,0.3514 -0.591178,0.410311 -0.103353,0.02894 -0.385506,0.04444 -0.498161,0.02584 -0.239779,-0.03824 -0.413411,-0.132291 -0.625285,-0.335896 -0.107487,-0.104388 -0.241845,-0.259417 -0.241845,-0.278021 0,-0.0041 0.475423,-0.0083 1.058333,-0.0083 z m 0,0"
       id="path11" /><path
       style="fill:url(#linear1-7);fill-rule:nonzero;stroke:none;stroke-width:0.264583"
       d="m 15.213783,7.3275093 c -0.204638,-0.02481 -0.382405,-0.103353 -0.560172,-0.24598 -0.101286,-0.08682 -0.19637,-0.179834 -0.286287,-0.279053 -0.04237,-0.04754 -0.09819,-0.118856 -0.09819,-0.125057 0,-0.0072 0.371037,-0.0093 1.258838,-0.0072 0.851628,0.0021 0.962215,0.0031 0.971517,0.01344 0.0062,0.0052 -0.157096,0.183968 -0.264583,0.288355 -0.179834,0.175699 -0.329696,0.269751 -0.511597,0.322461 -0.03927,0.01137 -0.103353,0.0217 -0.179834,0.02997 -0.06408,0.0052 -0.289388,0.0083 -0.329696,0.0031 z m 0,0"
       id="path12" /><path
       style="fill:url(#linear2-2);fill-rule:nonzero;stroke:none;stroke-width:0.264583"
       d="m 14.644309,3.8930934 c -0.357601,-0.00207 -0.682129,0.2077392 -0.827856,0.5343342 -0.07752,0.1684653 -0.114722,0.3937747 -0.09198,0.5539717 0.01447,0.102319 0.02274,0.121956 0.07545,0.166398 0.04651,0.03927 0.117823,0.04444 0.183968,0.01344 0.06821,-0.03307 0.08475,-0.07131 0.09715,-0.227377 0.02997,-0.3824052 0.178801,-0.6087481 0.438216,-0.663525 0.178801,-0.038241 0.367937,0.0062 0.49196,0.1157552 0.07028,0.060978 0.14056,0.1777669 0.176733,0.2924888 0.01757,0.05478 0.02997,0.102319 0.02791,0.104386 -0.0021,0.0021 -0.03411,-0.0072 -0.07235,-0.02067 -0.08578,-0.02894 -0.221176,-0.03101 -0.321428,-0.0052 -0.282153,0.07338 -0.441317,0.304891 -0.443384,0.645955 -10e-4,0.147795 0.0186,0.206706 0.08165,0.247014 0.03307,0.02067 0.05788,0.02584 0.110588,0.0217 0.05995,-0.0041 0.07441,-0.01137 0.110587,-0.05064 0.05271,-0.05684 0.07235,-0.128158 0.06201,-0.222209 -0.01654,-0.137459 0.04134,-0.245979 0.153996,-0.288354 0.04858,-0.0186 0.06615,-0.01964 0.124023,-0.0072 0.07545,0.01757 0.120923,0.05581 0.15503,0.134359 0.0186,0.04237 0.02274,0.101285 0.02791,0.332796 10e-4,0.05271 10e-4,0.09508 0.0031,0.130225 h -10e-4 v 0.639754 h 0.350366 v -0.520904 c 0.0031,-0.03411 0.0041,-0.09922 0.0041,-0.221176 0,-0.295589 0.01343,-0.366902 0.08165,-0.435115 0.08578,-0.08578 0.24598,-0.08475 0.322461,0.0031 0.04341,0.04961 0.05994,0.100253 0.07751,0.240813 0.0072,0.05374 0.0186,0.118855 0.02584,0.144694 0.02687,0.09715 0.116788,0.145727 0.216007,0.115755 0.09715,-0.02894 0.133324,-0.11989 0.121955,-0.29869 -0.02067,-0.312126 -0.177767,-0.539502 -0.419613,-0.608749 -0.05994,-0.01757 -0.103353,-0.02067 -0.208773,-0.01343 -0.05891,0.0031 -0.117822,0.0083 -0.1757,0.0155 l -0.04134,0.0072 0.03307,-0.09302 c 0.07752,-0.2139408 0.185002,-0.331763 0.360702,-0.3917075 0.06821,-0.022738 0.103353,-0.025838 0.208772,-0.022738 0.110588,0.00413 0.13746,0.010335 0.211874,0.045475 0.219108,0.1023194 0.330729,0.306958 0.328662,0.5942785 -0.001,0.121956 0.0031,0.149862 0.02687,0.19637 0.03411,0.06615 0.07028,0.08682 0.157096,0.08682 0.07855,0 0.133325,-0.03824 0.156063,-0.109554 0.02377,-0.07131 0.0083,-0.36897 -0.02377,-0.47749 -0.102321,-0.3400309 -0.31006,-0.5591389 -0.623219,-0.6562908 -0.08061,-0.024805 -0.119889,-0.029972 -0.265617,-0.028939 -0.151929,0 -0.181901,0.00413 -0.271818,0.036173 -0.128158,0.043408 -0.257349,0.12299 -0.373104,0.2294435 L 15.396716,4.263063 15.294397,4.165911 C 15.178644,4.0574242 15.060821,3.9830102 14.945066,3.9458034 14.847914,3.913764 14.746629,3.898261 14.645343,3.8972275 v -0.0031 z m 0,0"
       id="path13" /></g></svg>
