<?xml version="1.0" encoding="UTF-8" standalone="no"?>
<!-- Created with Inkscape (http://www.inkscape.org/) -->

<svg
   width="8.2710037mm"
   height="8.2710037mm"
   viewBox="0 0 8.2710037 8.2710037"
   version="1.1"
   id="svg1"
   xmlns="http://www.w3.org/2000/svg"
   xmlns:svg="http://www.w3.org/2000/svg">
  <defs
     id="defs1">
    <clipPath
       clipPathUnits="userSpaceOnUse"
       id="clipPath308">
      <path
         d="M 0,5504.926 H 5022.134 V 0 H 0 Z"
         transform="translate(0,2.5000001e-5)"
         id="path308" />
    </clipPath>
  </defs>
  <path
     id="path307"
     d="m 2255.576,2565.249 h -18.061 v 83.002 h 18.061 z m -39.152,0 h -18.061 v 83.002 h 18.061 z m -39.153,0 h -18.062 v 83.002 h 18.062 z m 47.209,176.833 c 5.063,-1.045 10.126,-2.791 15.188,-3.836 v -22.274 c -5.062,1.045 -10.125,2.792 -15.188,3.837 z m 68.461,-88.315 -79.945,37.598 c -1.072,0.557 -2.387,0.926 -3.803,1.102 v 25.352 c 4.52,1.595 9.037,1.536 13.556,0.763 0.577,-0.1 1.153,-0.209 1.731,-0.328 5.063,-1.045 10.126,-2.791 15.188,-3.837 0.578,-0.119 1.154,-0.229 1.732,-0.327 5.639,-0.966 11.278,-0.863 16.918,2.245 v 25.384 c -5.64,-3.11 -11.279,-3.212 -16.918,-2.246 -0.578,0.098 -1.154,0.209 -1.732,0.327 -5.062,1.046 -10.125,2.792 -15.188,3.837 -0.578,0.118 -1.154,0.228 -1.731,0.328 -5.64,0.965 -11.278,0.863 -16.919,-2.246 v -2.096 -23.288 -23.83 c -1.506,-0.158 -2.892,-0.544 -3.985,-1.112 l -80.055,-37.654 c -0.778,-0.405 -3.147,-1.635 -2.674,-3.578 0.466,-1.91 3.009,-1.91 3.845,-1.91 h 15.158 v -83.002 h -4.223 c -3.72,0 -6.746,-3.025 -6.746,-6.744 v -15.522 c 0,-3.718 3.026,-6.744 6.746,-6.744 h 146.995 c 3.718,0 6.745,3.026 6.745,6.744 v 15.522 c 0,3.719 -3.027,6.744 -6.745,6.744 h -4.223 v 83.002 h 15.158 c 0.836,0 3.377,0 3.844,1.91 0.475,1.943 -1.895,3.173 -2.729,3.606"
     style="fill:#00008b;fill-opacity:1;fill-rule:nonzero;stroke:none;stroke-width:4.39536"
     transform="matrix(0.03835621,0,0,-0.03835621,-80.531726,105.41012)"
     clip-path="url(#clipPath308)" />
</svg>
