<?xml version="1.0" encoding="UTF-8" standalone="no"?>
<!-- Created with Inkscape (http://www.inkscape.org/) -->

<svg
   width="8.2710037mm"
   height="8.2710037mm"
   viewBox="0 0 8.2710037 8.2710037"
   version="1.1"
   id="svg1"
   xmlns="http://www.w3.org/2000/svg"
   xmlns:svg="http://www.w3.org/2000/svg">
  <defs
     id="defs1" />
  <path
     style="fill:#863a00;fill-opacity:1;stroke-width:0.706519"
     d="m 0.59639593,7.4253481 c -0.0607592,-0.060759 -0.0607592,-0.5724359 0,-0.6331878 0.0348802,-0.03488 0.81543137,-0.045778 3.28037127,-0.045778 H 7.1113653 V 6.6319547 6.5175272 L 4.0693937,6.5169422 C 2.3963098,6.5166211 1.0042776,6.5016868 0.97598946,6.4837695 0.94769856,6.4658398 0.9306885,6.4189041 0.93817283,6.3794527 0.94844407,6.3250794 0.99092191,6.3048945 1.113573,6.2960009 L 1.2753559,6.2843032 V 6.0843344 c 0,-0.2093834 0.045134,-0.2915143 0.1602045,-0.2915143 0.064555,0 0.068661,-0.066799 0.068661,-1.1168823 V 3.5590605 l -0.1144397,-0.0432 C 1.2814426,3.4749647 1.2753548,3.4613208 1.2753548,3.2595638 V 3.0464584 H 0.95876088 c -0.19538144,0 -0.33411857,-0.017523 -0.3623674,-0.045778 -0.0636712,-0.063671 -0.0620481,-0.6953351 0.001905,-0.7441583 0.0827822,-0.063183 3.25826652,-1.46055625 3.31908042,-1.46055625 0.082532,0 0.1043285,0.0825964 0.1043285,0.39528805 v 0.2746236 l 0.2288633,0.2264749 c 0.1258738,0.1245614 0.2288634,0.2541499 0.2288634,0.2879746 0,0.033825 -0.1269064,0.184554 -0.2820138,0.3349522 L 3.9154119,2.5887329 H 2.3449153 0.77441863 l 0.0120684,0.1049022 0.0120684,0.1048894 1.90719237,0.019075 c 1.3984973,0.013991 1.9287982,0.031466 1.9881988,0.065509 0.044548,0.025545 0.1295158,0.1605842 0.1888066,0.3000888 0.1046276,0.246191 0.1056781,0.2551938 0.035668,0.3063867 -0.039666,0.029007 -0.094601,0.052737 -0.1220552,0.052737 -0.040012,0 -0.04992,0.2234857 -0.04992,1.1252439 0,1.0581393 0.00405,1.1252429 0.068661,1.1252429 0.1153347,0 0.1602044,0.082269 0.1602044,0.2937083 v 0.2021641 h 0.1716471 0.1716473 v -0.202163 c 0,-0.2206877 0.044573,-0.2937083 0.1792761,-0.2937083 h 0.087737 V 4.5572166 c 0,-1.0915138 0.00705,-1.2382939 0.060341,-1.2587467 0.084621,-0.032468 0.5223939,-0.027849 0.5715347,0.00597 0.022358,0.015422 0.096235,0.1671769 0.1641974,0.3372507 0.077471,0.193899 0.17257,0.3567308 0.2549742,0.4366008 L 6.7680827,4.2056669 V 4.999206 c 0,0.7508574 0.00394,0.7935379 0.071622,0.7935379 0.091067,0 0.1724028,0.0962 0.1439702,0.1702948 -0.018013,0.046936 -0.1432707,0.058647 -0.7194645,0.067241 l -0.6976543,0.010388 v 0.114428 0.1144279 l 0.8773077,0.019063 0.877309,0.019063 0.011463,0.2193269 0.011463,0.2193269 h 0.1430427 c 0.078676,0 0.1636411,0.020592 0.188815,0.045778 0.060759,0.060747 0.060759,0.5724359 0,0.6331878 -0.066358,0.066357 -7.01313845,0.066357 -7.0794971,0 z M 7.4737326,7.1087542 V 6.9943267 H 4.1366679 c -3.18889269,0 -3.33765321,0.00298 -3.35034807,0.068983 -0.0363723,0.1888805 -0.21068816,0.1800771 3.35824557,0.1696287 l 3.3291672,-0.00979 z M 2.7057511,6.1551575 V 6.0407295 L 2.1049851,6.0302246 1.5042205,6.0197196 v 0.1090435 c 0,0.059972 0.011817,0.1209151 0.02638,0.1354257 0.014515,0.014515 0.284856,0.021665 0.600766,0.015888 l 0.5743829,-0.010505 z m 0.5912306,-0.068661 c 0,-0.2114427 0.044871,-0.2937072 0.1602033,-0.2937072 0.064316,0 0.068661,-0.061284 0.068661,-0.9679976 0,-0.836678 0.00824,-0.9747991 0.060413,-1.0181361 0.043821,-0.036372 0.077865,-0.039142 0.1239676,-0.010026 0.056163,0.035405 0.064733,0.153805 0.073734,1.018135 l 0.010143,0.9780711 h 0.113783 0.1137829 V 4.6675916 3.5423475 H 3.7330871 c -0.3942174,0 -0.4361459,-0.027634 -0.4361459,-0.28742 V 3.0464322 H 3.1271967 2.9574534 l -0.011463,0.2193281 c -0.010984,0.2109317 -0.016183,0.2207236 -0.135403,0.255823 l -0.1239676,0.036503 v 0.9797709 c 0,0.869649 -0.00705,0.9824471 -0.062048,1.0035828 C 2.4702603,5.600648 2.4577588,5.52338 2.4577588,4.510308 V 3.5423105 H 2.3433309 2.2289029 v 1.1252429 1.1252439 h 0.3165928 c 0.1953826,0 0.3341197,0.017536 0.3623672,0.045778 0.025176,0.025176 0.045778,0.1367448 0.045778,0.2479339 V 6.2886717 H 3.1252878 3.2969351 Z M 4.7393282,6.14562 4.7512774,6.0216526 H 4.1385586 3.5258403 v 0.1080771 c 0,0.059434 0.011817,0.1199458 0.02638,0.1344576 0.014515,0.014515 0.2848547,0.021666 0.6007646,0.015888 L 4.7273682,6.2695707 Z M 2.0000905,4.6675486 V 3.5423045 H 1.8665866 1.7330838 v 1.1252441 1.125244 h 0.1335028 0.1335039 z m 2.4793502,0 V 3.5423045 H 4.3650127 4.2505848 v 1.1252441 1.125244 h 0.1144279 0.114428 z m 1.5638967,0 V 3.5423045 H 5.9289095 5.8144815 v 1.1252441 1.125244 h 0.114428 0.1144279 z M 6.5392073,5.0564695 V 4.3201466 L 6.4057047,4.1907502 6.2722008,4.0613537 V 4.9270732 5.7927926 H 6.4057047 6.5392073 Z M 2.7178206,3.1704032 2.7057521,3.065501 2.1049863,3.0549961 1.5042204,3.0444911 v 0.1153943 0.1153943 h 0.6128365 0.6128342 z m 1.9182805,0.019063 C 4.5985117,3.0873818 4.4224764,3.0549193 3.8786748,3.0497685 l -0.3528309,-0.00334 v 0.114428 0.1144279 H 4.0967722 4.6677018 Z M 3.8899552,2.28073 C 3.9038857,2.258193 3.8812412,2.2024118 3.8397604,2.1567625 3.7982198,2.1111156 3.7449333,2.0362698 3.721334,1.990446 3.6600379,1.8714406 3.6680236,1.5490139 3.7344288,1.4612149 c 0.054349,-0.071851 0.082281,-0.360121 0.034892,-0.360121 -0.027623,0 -2.6962014,1.182631 -2.7196419,1.2052599 -0.00872,0.00847 0.6210479,0.015339 1.3995345,0.015339 0.9675129,0 1.4234408,-0.012964 1.4407481,-0.040968 z M 4.1577568,2.012437 C 4.172117,1.9891969 4.1216357,1.9079518 4.0455735,1.8318894 3.9119824,1.6982983 3.9072793,1.6967329 3.9072793,1.7858606 c 0,0.087182 0.1318399,0.2688291 0.1951164,0.2688291 0.016079,0 0.040992,-0.019013 0.055351,-0.042254 z"
     id="path2" />
</svg>
