<?xml version="1.0" encoding="UTF-8" standalone="no"?>
<!-- Created with Inkscape (http://www.inkscape.org/) -->

<svg
   width="8.2710037mm"
   height="8.2710037mm"
   viewBox="0 0 8.2710037 8.2710037"
   version="1.1"
   id="svg1"
   xmlns="http://www.w3.org/2000/svg"
   xmlns:svg="http://www.w3.org/2000/svg">
  <defs
     id="defs1" />
  <g
     id="g1"
     transform="matrix(1.1447352,0,0,1.1447352,-0.59855261,0.40937682)">
    <path
       d="m -2.0645612,-0.8656088 2.5695427,-3.426049 c 0.038811,-0.051727 0.099644,-0.082151 0.1643012,-0.082151 0.064656,0 0.1255271,0.03042 0.1643024,0.082151 l 1.0653337,1.4204713 0.4229945,-0.5639932 c 0.038774,-0.051727 0.099644,-0.08215 0.1643024,-0.08215 0.064656,0 0.1254991,0.030422 0.1643012,0.08215 l 1.92715,2.5695709 c 0.046663,0.062216 0.054162,0.1455163 0.019381,0.2150985 -0.034781,0.069555 -0.1058892,0.1135053 -0.1836907,0.1135053 h -6.3136209 c -0.077804,0 -0.148912,-0.043949 -0.1836894,-0.1135053 -0.034805,-0.06961 -0.027306,-0.1528831 0.019381,-0.2150985 z"
       id="path2"
       style="fill:#deaa87"
       transform="translate(2.8789625,5.7104174)" />
    <path
       d="m -3.1228945,2.5739745 2.5695427,-3.426049 c 0.038811,-0.051727 0.099644,-0.082151 0.1643012,-0.082151 0.064656,0 0.1255271,0.03042 0.1643024,0.082151 L 0.8405855,0.5683968 1.26358,0.0044036 c 0.038774,-0.051727 0.099644,-0.08215 0.1643024,-0.08215 0.064656,0 0.1254991,0.030422 0.1643012,0.08215 l 1.92715,2.5695709 c 0.046663,0.062216 0.054162,0.1455163 0.019381,0.2150985 C 3.5039336,2.858628 3.4328254,2.9025783 3.3550239,2.9025783 H -2.958597 c -0.077804,0 -0.148912,-0.043949 -0.1836894,-0.1135053 -0.034805,-0.06961 -0.027306,-0.1528831 0.019381,-0.2150985 z"
       id="path2-7"
       style="fill:#deaa87"
       transform="translate(3.9372958,2.2708341)" />
    <g
       id="g2"
       transform="translate(-1.1102267,-1.684224)">
      <path
         d="m 1.924628,6.5290326 2.5695427,-3.426049 c 0.038811,-0.051727 0.099644,-0.082151 0.1643012,-0.082151 0.064656,0 0.1255271,0.03042 0.1643024,0.082151 L 5.888108,4.5234549 6.3111025,3.9594617 c 0.038774,-0.051727 0.099644,-0.08215 0.1643024,-0.08215 0.064656,0 0.1254991,0.030422 0.1643012,0.08215 l 1.92715,2.5695709 c 0.046663,0.062216 0.054162,0.1455163 0.019381,0.2150985 -0.034781,0.069555 -0.1058892,0.1135053 -0.1836907,0.1135053 H 2.0889255 c -0.077804,0 -0.148912,-0.043949 -0.1836894,-0.1135053 -0.034805,-0.06961 -0.027306,-0.1528831 0.019381,-0.2150985 z"
         id="path2-1"
         style="fill:#deaa87" />
      <path
         d="m 1.924628,6.5290326 2.5695427,-3.426049 c 0.038811,-0.051727 0.099644,-0.082151 0.1643012,-0.082151 0.064656,0 0.1255271,0.03042 0.1643024,0.082151 L 5.888108,4.5234549 6.3111025,3.9594617 c 0.038774,-0.051727 0.099644,-0.08215 0.1643024,-0.08215 0.064656,0 0.1254991,0.030422 0.1643012,0.08215 l 1.92715,2.5695709 c 0.046663,0.062216 0.054162,0.1455163 0.019381,0.2150985 -0.034781,0.069555 -0.1058892,0.1135053 -0.1836907,0.1135053 H 2.0889255 c -0.077804,0 -0.148912,-0.043949 -0.1836894,-0.1135053 -0.034805,-0.06961 -0.027306,-0.1528831 0.019381,-0.2150985 z M 7.9918002,6.4468809 6.4754049,4.424983 6.0524372,4.9889762 c -0.038774,0.051728 -0.099656,0.082151 -0.1643024,0.082151 -0.064656,0 -0.1254991,-0.030422 -0.1643024,-0.082151 L 4.6584999,3.5685054 2.499684,6.4468814 Z"
         id="path1-8"
         style="fill:#552200;fill-opacity:1;stroke:#000080;stroke-width:0.0273837" />
    </g>
  </g>
</svg>
