<?xml version="1.0" encoding="UTF-8" standalone="no"?>
<!-- Created with Inkscape (http://www.inkscape.org/) -->

<svg
   width="8.2710037mm"
   height="8.2710037mm"
   viewBox="0 0 8.2710037 8.2710037"
   version="1.1"
   id="svg1"
   xmlns="http://www.w3.org/2000/svg"
   xmlns:svg="http://www.w3.org/2000/svg">
  <defs
     id="defs1">
    <clipPath
       clipPathUnits="userSpaceOnUse"
       id="clipPath486">
      <path
         d="M 0,5504.926 H 5022.134 V 0 H 0 Z"
         transform="translate(-2180.046,-1234.293)"
         id="path486" />
    </clipPath>
    <clipPath
       clipPathUnits="userSpaceOnUse"
       id="clipPath488">
      <path
         d="M 0,5504.926 H 5022.134 V 0 H 0 Z"
         transform="translate(-2294.919,-1178.375)"
         id="path488" />
    </clipPath>
  </defs>
  <g
     id="layer1"
     transform="translate(-123.29584,-119.85624)">
    <g
       id="g2"
       transform="matrix(0.48591116,0,0,0.48591116,118.87454,121.53609)">
      <path
         id="path485"
         d="m 0,0 c 0,-0.615 -0.501,-1.117 -1.115,-1.117 h -9.295 c -0.615,0 -1.116,0.502 -1.116,1.117 v 8.18 c 0,0.615 0.501,1.115 1.116,1.115 h 9.295 C -0.501,9.295 0,8.795 0,8.18 Z m 0,-36.906 c 0,-0.615 -0.501,-1.115 -1.115,-1.115 h -9.295 c -0.615,0 -1.116,0.5 -1.116,1.115 v 8.177 c 0,0.616 0.501,1.12 1.116,1.12 h 9.295 c 0.614,0 1.115,-0.504 1.115,-1.12 z m 0,-18.455 c 0,-0.612 -0.501,-1.114 -1.115,-1.114 h -9.295 c -0.615,0 -1.116,0.502 -1.116,1.114 v 8.181 c 0,0.614 0.501,1.114 1.116,1.114 h 9.295 c 0.614,0 1.115,-0.5 1.115,-1.114 z m 0,-18.453 c 0,-0.614 -0.501,-1.116 -1.115,-1.116 h -9.295 c -0.615,0 -1.116,0.502 -1.116,1.116 v 8.181 c 0,0.613 0.501,1.115 1.116,1.115 h 9.295 c 0.614,0 1.115,-0.502 1.115,-1.115 z m 0,-36.907 c 0,-0.611 -0.501,-1.115 -1.115,-1.115 h -9.295 c -0.615,0 -1.116,0.504 -1.116,1.115 v 8.18 c 0,0.613 0.501,1.115 1.116,1.115 h 9.295 c 0.614,0 1.115,-0.502 1.115,-1.115 z M -22.65,55.361 c 0,-0.615 -0.5,-1.117 -1.116,-1.117 h -9.295 c -0.613,0 -1.115,0.502 -1.115,1.117 v 8.18 c 0,0.613 0.502,1.115 1.115,1.115 h 9.295 c 0.616,0 1.116,-0.502 1.116,-1.115 z m 0,-18.455 c 0,-0.611 -0.5,-1.115 -1.116,-1.115 h -9.295 c -0.613,0 -1.115,0.504 -1.115,1.115 v 8.182 c 0,0.613 0.502,1.115 1.115,1.115 h 9.295 c 0.616,0 1.116,-0.502 1.116,-1.115 z M -22.65,0 c 0,-0.615 -0.5,-1.117 -1.116,-1.117 h -9.295 c -0.613,0 -1.115,0.502 -1.115,1.117 v 8.18 c 0,0.615 0.502,1.115 1.115,1.115 h 9.295 c 0.616,0 1.116,-0.5 1.116,-1.115 z m 0,-36.906 c 0,-0.615 -0.5,-1.115 -1.116,-1.115 h -9.295 c -0.613,0 -1.115,0.5 -1.115,1.115 v 8.177 c 0,0.616 0.502,1.12 1.115,1.12 h 9.295 c 0.616,0 1.116,-0.504 1.116,-1.12 z m 0,-18.455 c 0,-0.612 -0.5,-1.114 -1.116,-1.114 h -9.295 c -0.613,0 -1.115,0.502 -1.115,1.114 v 8.181 c 0,0.614 0.502,1.114 1.115,1.114 h 9.295 c 0.616,0 1.116,-0.5 1.116,-1.114 z m 0,-36.905 c 0,-0.615 -0.5,-1.115 -1.116,-1.115 h -9.295 c -0.613,0 -1.115,0.5 -1.115,1.115 v 8.178 c 0,0.611 0.502,1.115 1.115,1.115 h 9.295 c 0.616,0 1.116,-0.504 1.116,-1.115 z m 0,-18.455 c 0,-0.611 -0.5,-1.115 -1.116,-1.115 h -9.295 c -0.613,0 -1.115,0.504 -1.115,1.115 v 8.18 c 0,0.613 0.502,1.115 1.115,1.115 h 9.295 c 0.616,0 1.116,-0.502 1.116,-1.115 z M -45.283,55.361 c 0,-0.615 -0.5,-1.117 -1.113,-1.117 h -9.299 c -0.614,0 -1.115,0.502 -1.115,1.117 v 8.18 c 0,0.613 0.501,1.115 1.115,1.115 h 9.299 c 0.613,0 1.113,-0.502 1.113,-1.115 z m 0,-18.455 c 0,-0.611 -0.5,-1.115 -1.113,-1.115 h -9.299 c -0.614,0 -1.115,0.504 -1.115,1.115 v 8.182 c 0,0.613 0.501,1.115 1.115,1.115 h 9.299 c 0.613,0 1.113,-0.502 1.113,-1.115 z m 0,-18.453 c 0,-0.611 -0.5,-1.115 -1.113,-1.115 h -9.299 c -0.614,0 -1.115,0.504 -1.115,1.115 v 8.18 c 0,0.613 0.501,1.115 1.115,1.115 h 9.299 c 0.613,0 1.113,-0.502 1.113,-1.115 z m 0,-18.453 c 0,-0.615 -0.5,-1.117 -1.113,-1.117 h -9.299 c -0.614,0 -1.115,0.502 -1.115,1.117 v 8.18 c 0,0.615 0.501,1.115 1.115,1.115 h 9.299 c 0.613,0 1.113,-0.5 1.113,-1.115 z m 0,-18.457 c 0,-0.611 -0.5,-1.111 -1.113,-1.111 h -9.299 c -0.614,0 -1.115,0.5 -1.115,1.111 v 8.184 c 0,0.613 0.501,1.113 1.115,1.113 h 9.299 c 0.613,0 1.113,-0.5 1.113,-1.113 z m 0,-18.449 c 0,-0.615 -0.5,-1.115 -1.113,-1.115 h -9.299 c -0.614,0 -1.115,0.5 -1.115,1.115 v 8.177 c 0,0.616 0.501,1.12 1.115,1.12 h 9.299 c 0.613,0 1.113,-0.504 1.113,-1.12 z m 0,-36.908 c 0,-0.614 -0.5,-1.116 -1.113,-1.116 h -9.299 c -0.614,0 -1.115,0.502 -1.115,1.116 v 8.181 c 0,0.613 0.501,1.115 1.115,1.115 h 9.299 c 0.613,0 1.113,-0.502 1.113,-1.115 z m 0,-18.452 c 0,-0.615 -0.5,-1.115 -1.113,-1.115 h -9.299 c -0.614,0 -1.115,0.5 -1.115,1.115 v 8.178 c 0,0.611 0.501,1.115 1.115,1.115 h 9.299 c 0.613,0 1.113,-0.504 1.113,-1.115 z m 0,-18.455 c 0,-0.611 -0.5,-1.115 -1.113,-1.115 h -9.299 c -0.614,0 -1.115,0.504 -1.115,1.115 v 8.18 c 0,0.613 0.501,1.115 1.115,1.115 h 9.299 c 0.613,0 1.113,-0.502 1.113,-1.115 z m 33.757,137.354 c 0,0.613 0.501,1.115 1.116,1.115 h 9.295 C -0.501,27.748 0,27.246 0,26.633 v -8.18 c 0,-0.611 -0.501,-1.115 -1.115,-1.115 h -9.295 c -0.615,0 -1.116,0.504 -1.116,1.115 z M -60.01,69.43 c -0.614,0 -1.114,-0.502 -1.114,-1.114 v -189.63 c 0,-0.614 0.5,-1.118 1.114,-1.118 H 3.201 c 0.613,0 1.114,0.504 1.114,1.118 v 189.63 c 0,0.612 -0.501,1.114 -1.114,1.114 z"
         style="fill:#6a02dc;fill-opacity:0.996078;fill-rule:nonzero;stroke:none;stroke-width:4.39536"
         transform="matrix(0.08026141,0,0,-0.08026141,15.224647,2.9267135)"
         clip-path="url(#clipPath486)" />
      <path
         id="path487"
         d="m 0,0 c 0,-0.613 -0.501,-1.115 -1.117,-1.115 h -9.298 c -0.61,0 -1.112,0.502 -1.112,1.115 v 8.182 c 0,0.611 0.502,1.111 1.112,1.111 h 9.298 C -0.501,9.293 0,8.793 0,8.182 Z m 0,-18.451 c 0,-0.615 -0.501,-1.119 -1.117,-1.119 h -9.298 c -0.61,0 -1.112,0.504 -1.112,1.119 v 8.178 c 0,0.613 0.502,1.115 1.112,1.115 h 9.298 C -0.501,-9.158 0,-9.66 0,-10.273 Z m 0,-36.91 c 0,-0.614 -0.501,-1.116 -1.117,-1.116 h -9.298 c -0.61,0 -1.112,0.502 -1.112,1.116 v 8.177 c 0,0.616 0.502,1.12 1.112,1.12 h 9.298 c 0.616,0 1.117,-0.504 1.117,-1.12 z m -24.297,110.72 c 0,-0.613 -0.5,-1.115 -1.115,-1.115 h -9.295 c -0.613,0 -1.115,0.502 -1.115,1.115 v 8.182 c 0,0.611 0.502,1.113 1.115,1.113 h 9.295 c 0.615,0 1.115,-0.502 1.115,-1.113 z m 0,-36.908 c 0,-0.613 -0.502,-1.113 -1.115,-1.113 h -9.295 c -0.613,0 -1.115,0.5 -1.115,1.113 v 8.182 c 0,0.613 0.502,1.115 1.115,1.115 h 9.295 c 0.613,0 1.115,-0.502 1.115,-1.115 z m 0,-18.451 c 0,-0.613 -0.502,-1.115 -1.115,-1.115 h -9.295 c -0.613,0 -1.115,0.502 -1.115,1.115 v 8.182 c 0,0.611 0.502,1.111 1.115,1.111 h 9.295 c 0.613,0 1.115,-0.5 1.115,-1.111 z m 0,-18.451 c 0,-0.615 -0.502,-1.119 -1.115,-1.119 h -9.295 c -0.613,0 -1.115,0.504 -1.115,1.119 v 8.178 c 0,0.613 0.502,1.115 1.115,1.115 h 9.295 c 0.613,0 1.115,-0.502 1.115,-1.115 z m 0,-18.455 c 0,-0.615 -0.502,-1.117 -1.115,-1.117 h -9.295 c -0.613,0 -1.115,0.502 -1.115,1.117 v 8.177 c 0,0.616 0.502,1.116 1.115,1.116 h 9.295 c 0.613,0 1.115,-0.5 1.115,-1.116 z m 0,-18.455 c 0,-0.614 -0.502,-1.116 -1.115,-1.116 h -9.295 c -0.613,0 -1.115,0.502 -1.115,1.116 v 8.177 c 0,0.616 0.502,1.12 1.115,1.12 h 9.295 c 0.613,0 1.115,-0.504 1.115,-1.12 z m -24.295,92.267 c 0,-0.613 -0.504,-1.115 -1.116,-1.115 h -9.296 c -0.613,0 -1.117,0.502 -1.117,1.115 v 8.18 c 0,0.611 0.504,1.115 1.117,1.115 h 9.296 c 0.612,0 1.116,-0.504 1.116,-1.115 z m 0,-18.455 c 0,-0.613 -0.504,-1.113 -1.116,-1.113 h -9.296 c -0.613,0 -1.117,0.5 -1.117,1.113 v 8.182 c 0,0.613 0.504,1.115 1.117,1.115 h 9.296 c 0.612,0 1.116,-0.502 1.116,-1.115 z m 0,-36.902 c 0,-0.615 -0.504,-1.119 -1.116,-1.119 h -9.296 c -0.613,0 -1.117,0.504 -1.117,1.119 v 8.178 c 0,0.613 0.504,1.115 1.117,1.115 h 9.296 c 0.612,0 1.116,-0.502 1.116,-1.115 z m 0,-18.455 c 0,-0.615 -0.504,-1.117 -1.116,-1.117 h -9.296 c -0.613,0 -1.117,0.502 -1.117,1.117 v 8.177 c 0,0.616 0.504,1.116 1.117,1.116 h 9.296 c 0.612,0 1.116,-0.5 1.116,-1.116 z m 0,-18.455 c 0,-0.614 -0.504,-1.116 -1.116,-1.116 h -9.296 c -0.613,0 -1.117,0.502 -1.117,1.116 v 8.177 c 0,0.616 0.504,1.12 1.117,1.12 h 9.296 c 0.612,0 1.116,-0.504 1.116,-1.12 z m -24.3,110.72 c 0,-0.613 -0.499,-1.115 -1.114,-1.115 h -9.298 c -0.614,0 -1.114,0.502 -1.114,1.115 v 8.182 c 0,0.611 0.5,1.113 1.114,1.113 h 9.298 c 0.615,0 1.114,-0.502 1.114,-1.113 z m 0,-18.453 c 0,-0.613 -0.499,-1.115 -1.114,-1.115 h -9.298 c -0.614,0 -1.114,0.502 -1.114,1.115 v 8.18 c 0,0.611 0.5,1.115 1.114,1.115 h 9.298 c 0.615,0 1.114,-0.504 1.114,-1.115 z m 0,-18.455 c 0,-0.613 -0.499,-1.113 -1.114,-1.113 h -9.298 c -0.614,0 -1.114,0.5 -1.114,1.113 v 8.182 c 0,0.613 0.5,1.115 1.114,1.115 h 9.298 c 0.615,0 1.114,-0.502 1.114,-1.115 z m 0,-18.451 c 0,-0.613 -0.499,-1.115 -1.114,-1.115 h -9.298 c -0.614,0 -1.114,0.502 -1.114,1.115 v 8.182 c 0,0.611 0.5,1.111 1.114,1.111 h 9.298 c 0.615,0 1.114,-0.5 1.114,-1.111 z m 0,-18.451 c 0,-0.615 -0.499,-1.119 -1.114,-1.119 h -9.298 c -0.614,0 -1.114,0.504 -1.114,1.119 v 8.178 c 0,0.613 0.5,1.115 1.114,1.115 h 9.298 c 0.615,0 1.114,-0.502 1.114,-1.115 z m 0,-36.91 c 0,-0.614 -0.499,-1.116 -1.114,-1.116 h -9.298 c -0.614,0 -1.114,0.502 -1.114,1.116 v 8.177 c 0,0.616 0.5,1.12 1.114,1.12 h 9.298 c 0.615,0 1.114,-0.504 1.114,-1.12 z m -16.725,124.75 c -0.612,0 -1.115,-0.502 -1.115,-1.116 V -65.396 c 0,-0.614 0.503,-1.118 1.115,-1.118 H 5.199 c 0.612,0 1.115,0.504 1.115,1.118 V 68.273 c 0,0.614 -0.503,1.116 -1.115,1.116 z"
         style="fill:#6a02dc;fill-opacity:0.996078;fill-rule:nonzero;stroke:none;stroke-width:4.39536"
         transform="matrix(0.08026141,0,0,-0.08026141,24.444516,7.4147692)"
         clip-path="url(#clipPath488)" />
    </g>
  </g>
</svg>
