<?xml version="1.0" encoding="UTF-8" standalone="no"?>
<!-- Created with Inkscape (http://www.inkscape.org/) -->

<svg
   width="8.2710037mm"
   height="8.2710037mm"
   viewBox="0 0 8.2710037 8.2710037"
   version="1.1"
   id="svg1"
   xmlns="http://www.w3.org/2000/svg"
   xmlns:svg="http://www.w3.org/2000/svg">
  <defs
     id="defs1" />
  <g
     id="g2"
     style="fill:#00008b;fill-opacity:1"
     transform="matrix(1.6714092,0,0,1.6714092,-4.1839402,-5.6757172)">
    <path
       style="fill:#00008b;fill-opacity:1;fill-rule:nonzero;stroke:none;stroke-width:0.264583"
       d="m 4.445207,8.2456951 c -0.00103,-0.024805 -0.0031,-0.050643 -0.00517,-0.075448 -0.00103,-0.01447 0.1229899,-0.043408 0.3772381,-0.08785 C 5.2027813,8.0152171 5.828066,7.9046299 6.5567037,7.7764726 6.7789124,7.7371986 6.9949198,7.6927566 7.036261,7.6782876 7.076569,7.6627856 7.1478823,7.6131756 7.1943911,7.5677 7.2574361,7.504655 7.2843081,7.489152 7.2998109,7.504655 7.3339169,7.538761 7.2688049,7.7123942 7.2016259,7.7692384 7.1127429,7.8436524 7.1282459,7.8405514 6.3045232,7.9831789 6.1608646,8.0090182 5.6988772,8.0896322 5.278231,8.16508 4.8565513,8.2394941 4.4968833,8.3004721 4.4803468,8.3004721 c -0.022738,0 -0.033073,-0.015502 -0.034106,-0.054777 z m 0,0"
       id="path13-2" />
    <path
       style="fill:#00008b;fill-opacity:1;fill-rule:nonzero;stroke:none;stroke-width:0.264583"
       d="M 5.798096,7.8002442 C 5.796036,7.7868082 5.793956,7.7733722 5.791896,7.7599372 5.7887932,7.7444348 5.780525,7.6111086 5.7743232,7.4622805 5.7691558,7.340324 5.7619221,7.2194012 5.7515849,7.0974447 L 5.7412502,7.0033935 H 5.2740953 c -0.4960938,0 -0.5477701,-0.00827 -0.5911784,-0.088883 C 4.6705159,6.8928064 4.664314,6.6664633 4.664314,6.309896 c 0,-0.6087484 0.00103,-0.621151 0.093018,-0.7059002 0.1302247,-0.12299 0.3958415,-0.1271241 0.5250325,-0.010335 0.085783,0.078548 0.089917,0.1095539 0.067179,0.516764 -0.011369,0.208773 -0.024805,0.4082439 -0.029972,0.4444175 l -0.0093,0.064079 0.3183268,0.020669 c 0.2036051,0.01447 0.3348633,0.031006 0.3669028,0.047542 0.091984,0.047543 0.098185,0.094051 0.075448,0.5281332 -0.00723,0.1653646 -0.017571,0.3307292 -0.029972,0.4960938 L 6.029604,7.8147127 H 5.9148823 c -0.063045,0 -0.1167887,-0.0062 -0.1167887,-0.013436 z m 0,0"
       id="path14" />
    <path
       style="fill:#00008b;fill-opacity:1;fill-rule:nonzero;stroke:none;stroke-width:0.264583"
       d="M 4.7025556,7.2163005 C 4.6012699,7.1935623 4.4648438,7.0612711 4.4338381,6.9558513 4.4173017,6.9000409 4.4121341,6.5610435 4.4121341,5.6163982 c 0,-1.1988933 -0.00207,-1.2660726 -0.03204,-1.2547037 -0.041341,0.016536 -1.7228923,0.5870443 -1.7290934,0.5870443 -0.0031,0 -0.00517,-0.037207 -0.00517,-0.081649 0,-0.044442 0.0031,-0.080615 0.00517,-0.080615 0.00723,0 0.9343099,-0.3121256 2.4587645,-0.826823 L 6.3406985,3.5452067 V 3.7002361 L 5.8311689,3.8749024 C 5.5510825,3.9699871 5.1552413,4.1033122 4.9526694,4.1715252 l -0.3700031,0.1229897 -0.00413,1.2691732 -0.00517,1.2712404 0.042375,0.078548 c 0.027905,0.053743 0.066146,0.091984 0.1198893,0.1198893 0.075448,0.039274 0.095085,0.041341 0.5002279,0.041341 h 0.4216797 l -0.0062,0.076481 -0.00517,0.077515 -0.4330483,0.00206 c -0.2377117,0.0031 -0.4681887,-0.00517 -0.5115968,-0.015502 z m 0,0"
       id="path15" />
    <path
       style="fill:#00008b;fill-opacity:1;fill-rule:nonzero;stroke:none;stroke-width:0.264583"
       d="M 4.8710208,5.3838543 C 4.7914392,5.3342449 4.7583663,5.2908366 4.734595,5.2009195 c -0.028939,-0.1116208 0,-0.2139402 0.082682,-0.2862874 0.09095,-0.079582 0.1788004,-0.098185 0.2955891,-0.064079 0.078548,0.023771 0.1023194,0.041341 0.1477947,0.1126545 0.047542,0.073381 0.053743,0.097152 0.047542,0.1798339 -0.00827,0.1064535 -0.046509,0.1705324 -0.1395261,0.2335776 -0.076481,0.051677 -0.2191081,0.05581 -0.2976563,0.00723 z m 0,0"
       id="path16" />
    <path
       style="fill:#00008b;fill-opacity:1;fill-rule:nonzero;stroke:none;stroke-width:0.264583"
       d="M 3.9790855,4.1973634 C 3.894336,4.1663574 3.8168216,4.0475018 3.8168216,3.9493165 c 0,-0.2098064 0.197404,-0.3369305 0.3834389,-0.2470134 0.1901693,0.093017 0.2087729,0.3493325 0.033073,0.4671549 -0.058911,0.039274 -0.1839679,0.05271 -0.254248,0.027905 z M 4.589901,3.9348469 C 4.3790612,3.7932536 4.4648438,3.467692 4.7201255,3.4408204 c 0.097152,-0.0093 0.1870689,0.034106 0.2470134,0.1219562 0.03514,0.050643 0.041341,0.078548 0.03514,0.1612305 -0.00413,0.060978 -0.020669,0.1188559 -0.042375,0.1477947 -0.077514,0.1074869 -0.258382,0.1374592 -0.3700029,0.063045 z m 0,0"
       id="path17" />
  </g>
</svg>
