<?xml version="1.0" encoding="UTF-8" standalone="no"?>
<!-- Created with Inkscape (http://www.inkscape.org/) -->

<svg
   width="8.2710037mm"
   height="8.2710037mm"
   viewBox="0 0 8.2710037 8.2710037"
   version="1.1"
   id="svg1"
   sodipodi:docname="lyr_railway_station.svg"
   inkscape:version="1.4 (1:1.4+202410161351+e7c3feb100)"
   xmlns:inkscape="http://www.inkscape.org/namespaces/inkscape"
   xmlns:sodipodi="http://sodipodi.sourceforge.net/DTD/sodipodi-0.dtd"
   xmlns="http://www.w3.org/2000/svg"
   xmlns:svg="http://www.w3.org/2000/svg">
  <sodipodi:namedview
     id="namedview1"
     pagecolor="#ffffff"
     bordercolor="#000000"
     borderopacity="0.25"
     inkscape:showpageshadow="2"
     inkscape:pageopacity="0.0"
     inkscape:pagecheckerboard="0"
     inkscape:deskcolor="#d1d1d1"
     inkscape:document-units="mm"
     inkscape:zoom="25.27152"
     inkscape:cx="15.650028"
     inkscape:cy="15.630243"
     inkscape:window-width="1920"
     inkscape:window-height="995"
     inkscape:window-x="0"
     inkscape:window-y="0"
     inkscape:window-maximized="1"
     inkscape:current-layer="svg1" />
  <defs
     id="defs1" />
  <path
     style="fill:#810200;fill-opacity:1;stroke-width:1.01665"
     d="M 1.9313326,6.7923189 2.5579584,5.7492562 2.4119282,5.6739861 C 2.1188064,5.5228995 1.9020073,5.2083841 1.8180983,4.8125052 1.7579637,4.5287933 1.7580044,1.7738484 1.8181441,1.4903948 1.9382255,0.92445053 2.2877123,0.58335977 2.8549466,0.47850086 c 0.3131548,-0.0578898 2.5491965,-0.0568866 2.8235602,0.001274 0.554087,0.11744261 0.8929753,0.45634628 1.0105811,1.01062754 0.060176,0.2836308 0.060176,3.0384797 0,3.3221103 -0.093694,0.4415792 -0.411665,0.8421479 -0.7486389,0.9431077 -0.083467,0.025008 -0.1517631,0.062088 -0.1517631,0.082401 0,0.020313 0.2649628,0.4780302 0.5888067,1.0171497 L 6.9662981,7.8353889 H 4.1355024 1.3047057 Z m 4.3690432,0.7853269 c 0,-0.011865 -0.061771,-0.1181381 -0.1372739,-0.2361646 L 6.0258281,7.1268878 H 4.1355339 2.2452387 L 2.1079649,7.3414812 c -0.075496,0.1180265 -0.1372738,0.2243006 -0.1372738,0.2361646 0,0.011865 0.97418,0.021571 2.1648428,0.021571 1.1906629,0 2.1648419,-0.00971 2.1648419,-0.021571 z M 5.8231097,6.7234399 C 5.7972259,6.6747313 5.7322519,6.5684568 5.6787325,6.4872753 L 5.581419,6.3396724 H 4.1355319 2.6896448 L 2.5923311,6.4872753 C 2.5388147,6.5684564 2.4738409,6.6747308 2.4479528,6.7234399 l -0.04707,0.088562 h 1.734643 1.7346434 z M 5.369137,5.9854255 5.2993847,5.8673432 H 4.1355349 2.9716851 L 2.901933,5.9854255 2.8321807,6.1035076 H 4.135537 5.4388931 Z M 3.0318646,5.2912769 C 3.381269,5.0848788 3.3263039,4.5623041 2.9397156,4.4151671 2.8077883,4.3649549 2.7676349,4.3647753 2.6290211,4.4137768 2.4084005,4.4917581 2.3052605,4.6432262 2.3052605,4.8892422 c 0,0.1771515 0.014772,0.2104816 0.1470246,0.3316803 0.1175336,0.1077105 0.1794779,0.1347381 0.3088127,0.1347381 0.088987,0 0.2108293,-0.028969 0.2707688,-0.064376 z m 2.9520573,0 C 6.3333263,5.0848788 6.2783613,4.5623041 5.891773,4.4151671 5.7598457,4.3649549 5.7196922,4.3647748 5.5810784,4.4137743 5.3604568,4.4917555 5.2573169,4.6432236 5.2573169,4.8892396 c 0,0.1771516 0.014771,0.2104817 0.1470245,0.3316803 0.1175336,0.1077105 0.179478,0.1347382 0.3088137,0.1347382 0.088987,0 0.2108294,-0.028969 0.2707678,-0.064377 z M 6.1075919,3.336879 6.241335,3.2467827 6.2519489,2.3891208 C 6.2621357,1.5661874 6.2590653,1.5251725 6.175314,1.3762173 6.0683159,1.1858394 5.8022471,1.0465392 5.4344361,0.98833072 c -0.3314249,-0.0524505 -1.9514993,-0.0524505 -2.2829244,0 C 2.7848324,1.0463596 2.5175823,1.1859265 2.4114098,1.3748361 2.3298336,1.519987 2.3249341,1.5764265 2.3249341,2.3719108 c 0,0.8791592 0.00651,0.916298 0.1771234,1.0096133 0.053446,0.029231 0.6235089,0.043442 1.7752534,0.044255 l 1.6965324,0.0012 z"
     id="path2" />
</svg>
