<?xml version="1.0" encoding="UTF-8" standalone="no"?>
<!-- Created with Inkscape (http://www.inkscape.org/) -->

<svg
   width="8.2710037mm"
   height="8.2710037mm"
   viewBox="0 0 8.2710037 8.2710037"
   version="1.1"
   id="svg1"
   xmlns="http://www.w3.org/2000/svg"
   xmlns:svg="http://www.w3.org/2000/svg">
  <defs
     id="defs1" />
  <g
     id="g3"
     transform="matrix(1.2499569,0,0,1.2499569,-2.421435,-2.1097756)">
    <path
       d="M 2.517696,4.9992473 4.628381,2.1850072 c 0.03188,-0.04249 0.08185,-0.067481 0.134961,-0.067481 0.05311,0 0.103111,0.024988 0.134962,0.067481 L 5.773395,3.3518169 6.120853,2.8885391 c 0.03185,-0.04249 0.08185,-0.06748 0.134962,-0.06748 0.05311,0 0.103088,0.024989 0.134961,0.06748 l 1.583008,2.1107082 c 0.03833,0.051106 0.04449,0.1195306 0.01592,0.1766871 -0.02857,0.057134 -0.08698,0.093236 -0.150888,0.093236 H 2.652654 c -0.06391,0 -0.12232,-0.036101 -0.150887,-0.093236 -0.02859,-0.057179 -0.02243,-0.1255819 0.01592,-0.1766871 z M 7.501419,4.9317659 6.255815,3.2709297 5.908379,3.7342074 c -0.03185,0.042491 -0.08186,0.067481 -0.134962,0.067481 -0.05311,0 -0.103088,-0.024989 -0.134962,-0.067481 L 4.763365,2.5673981 2.990061,4.9317663 Z"
       id="path1-8"
       style="fill:#00008b;fill-opacity:1;stroke:#000080;stroke-width:0.0224936" />
    <g
       id="g2"
       transform="matrix(0.82691989,0,0,0.7530794,-11.725991,0.88802577)">
      <path
         d="m 23.496722,8.8077887 h -5.895774 c -0.134026,0 -0.242683,0.1086249 -0.242683,0.2426831 0,0.1340581 0.108657,0.242683 0.242683,0.242683 h 5.895774 c 0.134026,0 0.242683,-0.1086249 0.242683,-0.242683 0,-0.1340582 -0.108657,-0.2426831 -0.242683,-0.2426831 z"
         id="path1-0"
         style="fill:#00008b;fill-opacity:1;stroke-width:0.0323577" />
      <rect
         x="19.798487"
         y="7.625782"
         width="1.1791484"
         height="0.48536611"
         id="rect1"
         style="fill:#00008b;fill-opacity:1;stroke-width:0.0323577" />
      <rect
         x="17.440189"
         y="7.625782"
         width="1.1791484"
         height="0.48536611"
         id="rect2"
         style="fill:#00008b;fill-opacity:1;stroke-width:0.0323577" />
      <path
         d="m 17.480379,6.8487623 h 5.895774 c 0.134026,0 0.242683,-0.108625 0.242683,-0.2426831 0,-0.1340581 -0.108657,-0.242683 -0.242683,-0.242683 h -5.895774 c -0.134026,0 -0.242683,0.1086249 -0.242683,0.242683 0,0.1340581 0.108657,0.2426831 0.242683,0.2426831 z"
         id="path2"
         style="fill:#00008b;fill-opacity:1;stroke-width:0.0323577" />
      <rect
         x="22.156815"
         y="7.625782"
         width="1.1791484"
         height="0.48536611"
         id="rect3"
         style="fill:#00008b;fill-opacity:1;stroke-width:0.0323577" />
    </g>
  </g>
</svg>
