<?xml version="1.0" encoding="UTF-8" standalone="no"?>
<!-- Created with Inkscape (http://www.inkscape.org/) -->

<svg
   width="8.2710037mm"
   height="8.2710037mm"
   viewBox="0 0 8.2710037 8.2710037"
   version="1.1"
   id="svg1"
   xml:space="preserve"
   sodipodi:docname="lyr_bench.svg"
   inkscape:version="1.4 (1:1.4+202410161351+e7c3feb100)"
   xmlns:inkscape="http://www.inkscape.org/namespaces/inkscape"
   xmlns:sodipodi="http://sodipodi.sourceforge.net/DTD/sodipodi-0.dtd"
   xmlns="http://www.w3.org/2000/svg"
   xmlns:svg="http://www.w3.org/2000/svg"><sodipodi:namedview
     id="namedview1"
     pagecolor="#ffffff"
     bordercolor="#000000"
     borderopacity="0.25"
     inkscape:showpageshadow="2"
     inkscape:pageopacity="0.0"
     inkscape:pagecheckerboard="0"
     inkscape:deskcolor="#d1d1d1"
     inkscape:document-units="mm"
     inkscape:zoom="25.27152"
     inkscape:cx="15.630243"
     inkscape:cy="15.630243"
     inkscape:window-width="1920"
     inkscape:window-height="995"
     inkscape:window-x="0"
     inkscape:window-y="0"
     inkscape:window-maximized="1"
     inkscape:current-layer="svg1" /><defs
     id="defs1" /><path
     style="fill:#183612;fill-opacity:1;stroke-width:0.22374"
     d="M 0.95742834,6.1334262 C 0.9776649,5.8947289 1.0120875,5.5077385 1.0339221,5.2734464 L 1.0736217,4.8474617 0.72503083,4.8294667 0.37643997,4.8114715 0.35823597,4.5598802 0.34003321,4.30829 H 0.93541514 1.5307972 V 3.9827015 3.657113 H 1.2052091 0.87962114 V 3.3019261 2.946739 H 1.2052091 1.5307972 V 2.6803498 2.4139593 H 1.2052091 0.87962114 V 2.0587723 1.7035853 H 4.1355017 7.3913819 v 0.355187 0.355187 H 7.0657949 6.7402067 V 2.6803498 2.946739 h 0.3285422 0.3285424 l -0.017754,0.3403879 -0.017754,0.3403877 -0.3107884,0.017898 -0.3107887,0.017885 v 0.3224948 0.3224945 h 0.5953822 0.5953819 l -0.018204,0.2515902 -0.018204,0.2515913 -0.348591,0.017995 -0.3485907,0.017994 0.039699,0.4259847 c 0.021834,0.234292 0.056256,0.6212824 0.076494,0.8599797 L 7.3503686,6.5674156 7.180875,6.5478056 C 7.0176428,6.528926 7.0074764,6.5085267 6.9055332,5.9954188 6.8473152,5.7023902 6.7710921,5.3227836 6.7361489,5.1518496 L 6.6726159,4.8410614 H 4.1355034 1.598391 L 1.534858,5.1518496 C 1.4999141,5.3227836 1.4236913,5.7023902 1.3654735,5.9954188 1.2635301,6.5085279 1.2533634,6.5289236 1.0901285,6.5478087 l -0.16949358,0.01961 z M 6.5034155,3.9826955 V 3.657107 H 4.1355025 1.7675894 v 0.3255885 0.3255873 h 2.3679131 2.367913 z M 1.7083916,3.2688282 c 0,-0.097685 -0.093558,-0.1141878 -0.1479945,-0.026107 -0.048276,0.078112 0.022507,0.1889641 0.092888,0.1454663 0.030308,-0.018735 0.055108,-0.072442 0.055106,-0.1193593 z m 5.0318151,0 c 0,-0.097685 -0.093558,-0.1141878 -0.1479945,-0.026107 -0.048276,0.078112 0.022507,0.1889641 0.092888,0.1454663 0.030308,-0.018735 0.055107,-0.072442 0.055106,-0.1193593 z M 6.5034155,2.6803425 V 2.4139532 H 4.1355025 1.7675894 V 2.6803425 2.946733 h 2.3679131 2.367913 z M 1.6787928,1.9995682 c -0.028641,-0.046348 -0.062695,-0.049784 -0.1021613,-0.01033 -0.032558,0.032554 -0.039865,0.090474 -0.016235,0.128711 0.028641,0.046348 0.062695,0.049784 0.1021602,0.01033 0.032558,-0.032554 0.039864,-0.090474 0.016236,-0.128711 z m 5.0614139,0.059194 c 0,-0.1248535 -0.086125,-0.159304 -0.1479945,-0.059194 -0.043168,0.069842 0.012827,0.1775929 0.092291,0.1775929 0.030638,0 0.055703,-0.053281 0.055703,-0.1183888 z"
     id="path2" /></svg>
