<?xml version="1.0" encoding="UTF-8" standalone="no"?>
<!-- Created with Inkscape (http://www.inkscape.org/) -->

<svg
   width="8.2710037mm"
   height="8.2710037mm"
   viewBox="0 0 8.2710037 8.2710037"
   version="1.1"
   id="svg1"
   xmlns="http://www.w3.org/2000/svg"
   xmlns:svg="http://www.w3.org/2000/svg">
  <defs
     id="defs1">
    <clipPath
       clipPathUnits="userSpaceOnUse"
       id="clipPath662">
      <path
         d="M 0,5504.926 H 5022.134 V 0 H 0 Z"
         transform="translate(-2274.8623,-3370.0558)"
         id="path662" />
    </clipPath>
    <clipPath
       clipPathUnits="userSpaceOnUse"
       id="clipPath664">
      <path
         d="M 0,5504.926 H 5022.134 V 0 H 0 Z"
         transform="translate(-2263.6798,-3392.2384)"
         id="path664" />
    </clipPath>
    <clipPath
       clipPathUnits="userSpaceOnUse"
       id="clipPath666">
      <path
         d="M 0,5504.926 H 5022.134 V 0 H 0 Z"
         transform="translate(-2117.7735,-3379.6212)"
         id="path666" />
    </clipPath>
    <clipPath
       clipPathUnits="userSpaceOnUse"
       id="clipPath668">
      <path
         d="M 0,5504.926 H 5022.134 V 0 H 0 Z"
         transform="translate(-2103.082,-3389.8312)"
         id="path668" />
    </clipPath>
    <clipPath
       clipPathUnits="userSpaceOnUse"
       id="clipPath670">
      <path
         d="M 0,5504.926 H 5022.134 V 0 H 0 Z"
         transform="translate(-2212.7032,-3321.7364)"
         id="path670" />
    </clipPath>
    <clipPath
       clipPathUnits="userSpaceOnUse"
       id="clipPath672">
      <path
         d="M 0,5504.926 H 5022.134 V 0 H 0 Z"
         transform="translate(-2247.124,-3388.1397)"
         id="path672" />
    </clipPath>
  </defs>
  <g
     id="g4"
     transform="matrix(1.2185899,0,0,1.1921373,-13.58941,-2.8914171)">
    <g
       id="g2"
       transform="translate(-0.44208862,1.7683545)">
      <path
         id="path661"
         d="m 0,0 c 0.133,-0.109 0.277,-0.219 0.429,-0.327 0.193,-0.182 0.386,-0.301 0.582,-0.37 0.192,-0.07 0.386,-0.09 0.58,-0.075 C 2.662,-0.665 2.877,0.516 3.414,1.16 3.307,-0.772 3.736,-2.813 2.554,-4.511 2.395,-4.662 2.227,-4.726 2.056,-4.737 1.546,-4.77 1.012,-4.358 0.567,-4.163 c -0.141,0.099 -0.275,0.208 -0.405,0.32 -0.258,0.223 -0.502,0.455 -0.726,0.67 -0.314,0.303 -0.603,0.61 -0.854,0.898 -0.215,0.213 -0.537,0.321 -0.645,0.106 -0.196,-0.483 -0.351,-0.978 -0.467,-1.48 -0.116,-0.503 -0.194,-1.013 -0.235,-1.527 -0.264,-3.543 1.454,-6.979 4.246,-9.233 0.233,-0.18 0.472,-0.333 0.716,-0.441 1.145,0.341 1.806,1.014 2.204,1.866 0.101,0.213 0.185,0.438 0.254,0.675 0.478,3.698 -0.059,7.456 0.692,11.107 0.323,-0.322 0.537,-0.86 0.644,-1.288 0.43,-3.652 0.86,-7.303 2.214,-10.79 0.114,-0.239 0.241,-0.47 0.383,-0.696 0.155,-0.129 0.336,-0.222 0.545,-0.268 0.418,-0.09 0.953,0.01 1.654,0.376 0.173,0.091 0.344,0.185 0.512,0.282 0.169,0.097 0.336,0.195 0.501,0.298 0.329,0.204 0.651,0.419 0.962,0.644 0.427,0.311 0.837,0.641 1.224,0.991 0.556,0.548 1.142,1.069 1.733,1.592 0.295,0.262 0.592,0.524 0.885,0.791 3.884,3.557 5.495,10.323 2.096,14.723 -0.275,0.454 -0.575,0.888 -0.896,1.291 -0.645,0.751 0.857,1.933 1.824,2.576 -0.107,0 -0.214,-0.106 -0.321,-0.106 2.468,0 4.832,0.321 6.763,2.147 0.216,0.108 0.538,0 0.753,0 0.268,-0.053 0.564,-0.296 0.751,-0.631 0.189,-0.335 0.27,-0.765 0.109,-1.192 C 26.823,8.569 27.253,6.1 25.534,6.529 23.602,6.958 22.421,8.892 20.381,8.892 19.414,8.999 17.588,7.817 18.555,7.066 18.877,6.78 19.154,6.46 19.395,6.119 c 3.884,-5.066 1.523,-11.723 -1.152,-16.68 -0.251,-0.409 -0.511,-0.81 -0.783,-1.205 -1.089,-1.574 -2.358,-3.029 -3.88,-4.273 -0.312,-0.28 -0.623,-0.559 -0.932,-0.841 -0.536,-0.537 -0.859,-1.181 -1.002,-1.914 -0.113,-0.519 -0.156,-1.048 -0.141,-1.603 -0.031,-0.433 -0.064,-0.864 -0.097,-1.293 -0.163,-2.148 -0.377,-4.284 -0.721,-6.395 -0.04,-0.356 -0.059,-0.75 -0.063,-1.144 -0.004,-0.394 0.008,-0.789 0.031,-1.148 0.012,-0.384 0.03,-0.767 0.052,-1.149 0.068,-1.149 0.178,-2.3 0.273,-3.452 0.041,-0.46 0.08,-0.921 0.12,-1.382 0.043,-0.351 0.073,-0.7 0.093,-1.047 0.022,-0.348 0.033,-0.695 0.038,-1.041 -0.085,-2.377 0.558,-4.954 3.135,-5.921 0.537,-0.214 0.861,-1.181 0.323,-1.503 -2.363,-1.825 -5.476,-1.825 -8.23,-1.537 -0.478,0.027 -0.938,0.055 -1.385,0.063 -0.447,0.01 -0.88,0 -1.29,-0.042 -0.474,0.017 -0.95,0.03 -1.427,0.039 -1.427,0.032 -2.862,0.04 -4.312,0.081 -1.074,0 -2.04,1.182 -1.288,2.255 0.751,1.075 2.47,1.075 3.032,2.47 0.161,0.43 0.302,0.866 0.429,1.307 0.094,0.331 0.181,0.664 0.261,1.001 0.081,0.336 0.155,0.672 0.226,1.012 0.112,0.502 0.214,1.005 0.307,1.507 0.093,0.504 0.178,1.009 0.258,1.526 0.106,0.498 0.166,0.993 0.2,1.487 -0.031,0.483 -0.04,0.973 -0.035,1.464 0.003,0.492 0.023,0.988 0.049,1.486 -0.028,0.981 0.093,1.997 0.25,3.028 0.079,0.516 0.167,1.035 0.25,1.557 0.055,0.466 0.12,0.979 0.177,1.513 0.057,0.536 0.103,1.094 0.121,1.654 0.205,1.476 -0.167,2.871 -0.773,4.111 -0.201,0.415 -0.429,0.812 -0.67,1.192 -1.72,3.322 -4.726,6.007 -5.557,9.8 -0.091,0.48 -0.147,0.975 -0.166,1.488 -0.065,0.436 -0.122,0.881 -0.159,1.328 -0.073,0.895 -0.061,1.802 0.082,2.732 0.107,1.288 0.321,2.792 1.503,3.651 0.322,0.108 0.752,-0.108 1.074,-0.322 0.805,-0.376 1.422,-1.154 2.107,-1.798 0.172,-0.162 0.346,-0.315 0.53,-0.451 0.346,-0.325 0.841,-0.407 1.236,-0.341 0.396,0.066 0.69,0.282 0.637,0.549 0,0.27 -0.296,0.43 -0.647,0.61 -0.352,0.181 -0.76,0.38 -0.986,0.723 -0.127,0.127 -0.253,0.255 -0.377,0.385 -0.25,0.259 -0.493,0.525 -0.72,0.806 C -0.209,0.163 0,0 0,0"
         style="fill:#285401;fill-opacity:1;fill-rule:nonzero;stroke:none;stroke-width:4.39536"
         transform="matrix(0.03404561,0,0,-0.03404561,17.045761,5.2703958)"
         clip-path="url(#clipPath662)" />
      <path
         id="path663"
         d="m 0,0 c -1.262,-0.14 -2.346,-0.811 -3.151,-1.757 -2.107,-2.535 -2.494,-6.816 -0.116,-9.284 -1.783,-2.289 -2.615,-5.233 -2.199,-8.177 0.476,-3.269 2.794,-6.48 6.243,-6.748 0.149,-1.07 0.416,-2.17 0.968,-3.13 0.542,-0.95 1.352,-1.716 2.482,-2.043 1.813,-0.535 3.715,-0.238 5.44,0.386 1.114,-1.441 2.877,-2.296 4.734,-2.541 0.93,-0.123 1.883,-0.094 2.791,0.092 0.889,0.189 1.781,0.516 2.525,1.053 1.322,-1.085 2.95,-1.681 4.619,-1.778 0.834,-0.048 1.679,0.029 2.501,0.231 2.689,0.743 5.158,2.587 6.227,5.203 2.052,0.148 4.074,0.535 5.829,1.813 0.935,0.684 1.611,1.621 1.963,2.681 0.384,1.125 0.415,2.403 0.146,3.562 1.992,1.383 3.04,3.569 3.308,5.903 0.089,0.777 0.092,1.572 0.013,2.36 -0.199,1.609 -0.644,3.214 -1.417,4.642 0.98,2.139 1.129,4.667 -0.03,6.807 -0.654,1.234 -1.613,2.162 -2.712,2.914 -1.123,0.743 -2.343,1.368 -3.591,1.932 -1.215,3.691 -5.134,5.835 -8.917,5.811 -0.758,-0.006 -1.509,-0.097 -2.232,-0.281 -0.461,0.713 -1.048,1.323 -1.725,1.817 -0.676,0.495 -1.441,0.874 -2.259,1.127 -0.758,0.23 -1.533,0.335 -2.3,0.324 C 18.372,12.908 17.612,12.783 16.884,12.555 15.375,12.06 13.978,11.167 12.907,9.979 10.291,11.524 6.991,11.227 4.345,9.681 1.402,7.956 -0.322,4.567 0.021,1.238 -0.075,0.852 -0.081,0.436 0,0"
         style="fill:#285401;fill-opacity:1;fill-rule:nonzero;stroke:none;stroke-width:4.39536"
         transform="matrix(0.03404561,0,0,-0.03404561,16.665044,4.5151756)"
         clip-path="url(#clipPath664)" />
    </g>
    <g
       id="g3"
       transform="translate(0.26123419,1.4267406)">
      <path
         id="path665"
         d="M 0,0 C 1.237,0.6 2.849,0.385 3.814,-0.582 4.03,-0.903 4.244,-1.44 3.922,-1.548 1.989,-2.407 0.164,-3.48 -0.588,-5.413 c -0.688,-1.942 -0.611,-4.067 0.043,-6.012 0.164,-0.486 0.363,-0.961 0.595,-1.419 0.144,-0.408 0.363,-0.801 0.637,-1.165 0.274,-0.362 0.603,-0.695 0.971,-0.979 1.298,-1.272 3.659,-1.486 4.945,-0.091 0.298,0.297 0.554,0.611 0.781,0.943 0.68,0.993 1.109,2.13 1.614,3.291 0.155,0.316 0.315,0.626 0.486,0.925 0.173,0.3 0.358,0.587 0.558,0.856 0.752,1.073 1.718,1.825 2.437,2.872 0.224,0.297 0.458,0.58 0.708,0.834 0.746,0.763 1.625,1.277 2.654,1.232 -0.148,-0.51 -0.309,-1.013 -0.479,-1.512 -0.171,-0.498 -0.351,-0.991 -0.535,-1.482 -0.704,-2.374 -2.637,-3.984 -3.174,-6.454 -0.09,-0.501 -0.149,-1 -0.189,-1.495 -0.003,-0.337 -0.02,-0.674 -0.047,-1.01 -0.515,-5.012 -1.375,-9.951 -2.233,-14.891 -0.018,-0.412 -0.021,-0.823 -0.014,-1.235 0.033,-2.058 0.309,-4.112 0.174,-6.156 0.052,-0.493 0.21,-0.97 0.472,-1.385 0.412,-1.421 2.205,-1.836 3.122,-2.499 0.306,-0.221 0.514,-0.468 0.541,-0.791 -1.719,-3.006 -6.873,-1.289 -10.028,-1.664 -0.439,-0.002 -0.878,-0.009 -1.316,-0.033 -0.516,-0.009 -1.029,-0.026 -1.54,-0.038 -1.532,-0.037 -3.062,-0.037 -4.619,0.339 -0.859,0.107 -1.718,1.074 -1.074,1.933 0.752,0.752 1.719,0.967 2.548,1.416 0.408,0.211 0.801,0.438 1.126,0.698 0.326,0.26 0.585,0.552 0.729,0.893 0.644,1.718 0.966,3.543 1.316,5.367 0.077,0.544 0.139,1.082 0.205,1.619 0.28,2.653 0.711,5.299 0.854,7.992 0.028,0.495 0.022,0.994 -0.015,1.491 -0.187,2.481 -1.184,4.909 -2.906,6.706 -0.217,0.276 -0.424,0.557 -0.616,0.846 -0.384,0.579 -0.71,1.193 -0.949,1.861 -0.142,0.516 -0.24,1.044 -0.296,1.571 -0.442,4.228 1.863,8.623 5.091,11.457 -0.752,0.537 -1.61,0.215 -2.461,0.333 C -0.167,-0.08 0,0 0,0"
         style="fill:#285401;fill-opacity:1;fill-rule:nonzero;stroke:none;stroke-width:4.39536"
         transform="matrix(0.03404561,0,0,-0.03404561,11.697575,4.944735)"
         clip-path="url(#clipPath666)" />
      <path
         id="path667"
         d="m 0,0 c -1.357,1.323 -1.94,3.332 -1.339,5.252 0.714,2.283 2.877,3.716 5.175,3.618 -0.004,0.911 0.125,1.854 0.403,2.792 1.291,4.366 5.3,7.028 8.953,5.947 0.53,-0.157 1.022,-0.383 1.474,-0.671 1.647,1.739 4.1,2.509 6.42,1.784 1.365,-0.427 2.473,-1.308 3.227,-2.441 1.343,0.848 2.973,1.132 4.532,0.645 2.162,-0.676 3.591,-2.652 3.815,-4.924 0.873,0.094 1.78,0.014 2.675,-0.267 3.443,-1.077 5.376,-4.699 4.314,-8.089 C 39.492,3.145 39.28,2.678 39.02,2.248 c 2.206,-1.646 3.325,-4.117 2.624,-6.36 -0.303,-0.966 -0.907,-1.773 -1.714,-2.388 0.739,-1.475 0.94,-3.147 0.438,-4.75 -0.647,-2.071 -2.327,-3.571 -4.417,-4.224 -0.064,-0.44 -0.165,-0.884 -0.303,-1.326 -1.24,-3.966 -5.038,-6.306 -8.481,-5.228 -0.544,0.17 -1.047,0.415 -1.504,0.723 -1.958,-1.44 -4.671,-1.941 -7.312,-1.115 -1.847,0.578 -3.352,1.709 -4.361,3.122 -1.476,-0.585 -3.182,-0.683 -4.85,-0.162 -2.954,0.925 -4.901,3.519 -5.028,6.321 -0.453,0.068 -0.908,0.17 -1.362,0.313 -4.165,1.303 -6.605,5.353 -5.449,9.047 0.374,1.197 1.08,2.21 2.007,2.987 C -0.548,-0.488 -0.313,-0.224 0,0"
         style="fill:#285401;fill-opacity:1;fill-rule:nonzero;stroke:none;stroke-width:4.39536"
         transform="matrix(0.03404561,0,0,-0.03404561,11.197396,4.5971302)"
         clip-path="url(#clipPath668)" />
    </g>
    <path
       id="path669"
       d="m 0,0 c -0.293,-4.332 -0.019,-8.688 -0.011,-13.042 10e-4,-0.543 -0.001,-1.088 -0.007,-1.632 0.631,-4.808 0.032,-10.814 3.846,-14.126 0.288,-0.31 0.561,-0.63 0.8,-0.967 0.476,-0.673 0.819,-1.421 0.894,-2.33 0.078,-0.568 -0.851,-0.754 -1.432,-0.804 -1.472,-0.145 -2.896,0.03 -4.312,0.274 -0.472,0.082 -0.945,0.172 -1.419,0.26 -3.384,0.649 -6.801,0.457 -10.248,0.342 -2.56,-0.116 -5.621,-1.53 -7.785,0.449 0,1.564 0.889,2.618 2.005,3.522 0.372,0.302 0.768,0.587 1.147,0.883 3.8,2.721 3.126,8.405 3.146,12.723 -0.043,0.623 -0.084,1.246 -0.123,1.866 -0.153,2.484 -0.259,4.955 -0.318,7.421 -0.02,0.821 -0.035,1.643 -0.043,2.464 0.415,2.601 0.277,4.945 -0.256,7.097 -0.179,0.718 -0.401,1.414 -0.66,2.092 -1.15,3.58 -2.96,6.738 -5.167,9.648 -0.552,0.726 -1.128,1.438 -1.727,2.141 -0.156,0.157 -0.31,0.316 -0.464,0.474 -0.635,0.692 -1.387,1.336 -1.958,2.079 -0.119,0.145 -0.246,0.286 -0.377,0.426 -0.163,0.163 -0.322,0.327 -0.478,0.492 -0.157,0.166 -0.31,0.333 -0.456,0.504 -0.381,0.477 -0.755,0.941 -1.121,1.41 -0.123,0.156 -0.244,0.313 -0.364,0.472 -0.109,0.126 -0.212,0.257 -0.312,0.39 -2.87,4.368 -4.911,9.415 -4.588,14.892 0,1.073 -0.43,2.147 -0.645,3.221 -0.322,1.504 0.859,2.578 2.255,2.792 -0.429,0.322 -0.967,0.537 -1.504,0.322 0.967,0.537 2.148,0 3.115,0.644 0.178,0.179 0.298,0.501 0.338,0.851 0.08,0.7 -0.16,1.512 -0.875,1.512 -0.644,-0.054 -1.208,-0.43 -1.785,-0.766 -0.193,-0.111 -0.386,-0.219 -0.586,-0.308 -0.421,-0.215 -0.85,-0.215 -1.28,-0.215 0.08,0.161 0.182,0.308 0.294,0.448 0.337,0.415 0.781,0.749 1.107,1.119 0.11,0.129 0.208,0.265 0.283,0.414 0.073,0.149 0.124,0.31 0.141,0.489 0.323,2.148 -2.576,1.503 -3.972,1.825 2.559,0.689 5.75,-0.607 6.733,-3.049 0.09,-0.222 0.16,-0.453 0.212,-0.693 -0.072,-0.461 -0.105,-0.926 -0.133,-1.393 -0.014,-0.234 -0.025,-0.467 -0.04,-0.7 -0.008,-1.145 -0.974,-2.326 -1.188,-2.862 -2.256,-4.618 0.965,-11.168 4.288,-15.431 0.169,-0.191 0.337,-0.382 0.503,-0.575 0.496,-0.58 0.968,-1.174 1.366,-1.819 0.154,-0.157 0.312,-0.309 0.472,-0.458 0.473,-0.448 0.95,-0.892 1.437,-1.332 0.216,-0.15 0.427,-0.306 0.632,-0.467 0.219,-0.147 0.44,-0.289 0.664,-0.422 1.122,-0.665 2.318,-1.108 3.689,-0.921 0.229,0.043 0.46,0.099 0.694,0.166 1.932,0.645 1.18,3.33 1.354,5.037 -0.02,0.628 -0.07,1.26 -0.137,1.894 -0.068,0.634 -0.155,1.266 -0.254,1.897 -0.134,0.84 -0.293,1.678 -0.471,2.513 -0.118,0.562 -0.246,1.119 -0.358,1.682 -0.094,0.567 -0.15,1.133 -0.159,1.7 0.008,1.464 0.359,2.82 0.892,4.123 0.267,0.652 0.578,1.29 0.914,1.92 3.157,4.147 7.668,10.696 0.473,13.703 -0.107,0 -0.429,0.645 -0.107,0.645 2.254,0 4.617,-1.504 5.368,-3.759 1.397,-4.08 -2.577,-7.087 -3.779,-10.635 -0.258,-0.618 -0.488,-1.244 -0.674,-1.879 -0.372,-1.269 -0.565,-2.578 -0.444,-3.949 0.102,-0.755 0.289,-1.499 0.57,-2.236 0.256,-0.694 0.531,-1.375 0.836,-2.036 0.916,-1.982 2.11,-3.774 3.921,-5.143 0.986,-0.745 1.992,-1.112 2.999,-1.192 1.007,-0.08 2.016,0.127 3.014,0.535 0.591,0.27 1.157,0.58 1.704,0.919 0.548,0.34 1.075,0.709 1.582,1.104 0.451,0.414 0.881,0.841 1.293,1.28 0.412,0.438 0.804,0.886 1.177,1.343 2.727,3.635 4.983,7.715 5.608,12.315 0.065,0.577 0.104,1.161 0.143,1.744 0.15,2.33 0.27,4.644 1.917,6.434 0,-1.074 -0.43,-2.148 -0.43,-3.221 0.017,-0.591 0.041,-1.184 0.065,-1.779 0.023,-0.595 0.046,-1.191 0.063,-1.788 C 11.915,38.241 9.124,31.691 5.222,26.221 4.789,25.647 4.335,25.083 3.861,24.531 3.269,23.835 2.713,23.123 2.206,22.391 0.183,19.465 -1.039,16.229 -0.217,12.365 0.05,11.235 0.104,10.135 0.089,9.029 0.074,7.925 -0.011,6.813 -0.017,5.667 -0.004,5.085 0.006,4.493 0.018,3.892 0.024,2.618 0.021,1.341 0,0"
       style="fill:#285401;fill-opacity:1;fill-rule:nonzero;stroke:none;stroke-width:4.39536"
       transform="matrix(0.03404561,0,0,-0.03404561,14.929514,6.9154577)"
       clip-path="url(#clipPath670)" />
    <path
       id="path671"
       d="m 0,0 c 3.774,1.983 6.183,5.607 5.874,9.548 -0.367,4.685 -4.457,8.334 -9.687,9.094 0.505,1.75 0.727,3.614 0.613,5.536 -0.534,8.927 -8.113,15.701 -16.926,15.128 -1.277,-0.083 -2.511,-0.317 -3.686,-0.681 -2.764,4.021 -7.865,6.515 -13.485,6.075 -3.307,-0.258 -6.28,-1.493 -8.596,-3.362 -2.562,2.184 -6.078,3.404 -9.854,3.109 -5.237,-0.41 -9.528,-3.618 -11.27,-7.896 -1.916,0.539 -4.004,0.76 -6.169,0.59 -8.341,-0.652 -14.662,-6.822 -14.118,-13.782 0.081,-1.026 0.307,-2.012 0.659,-2.946 -5.863,-2.257 -9.727,-6.548 -9.368,-11.151 0.156,-1.981 1.074,-3.782 2.56,-5.297 -2.469,-2.532 -3.832,-5.667 -3.575,-8.956 0.333,-4.251 3.299,-7.828 7.648,-9.945 -0.093,-0.874 -0.108,-1.768 -0.037,-2.675 0.636,-8.138 7.914,-14.207 16.255,-13.555 1.318,0.104 2.584,0.368 3.779,0.773 1.45,-1.431 3.255,-2.623 5.307,-3.505 0.257,-0.112 0.517,-0.217 0.781,-0.317 1.708,-0.491 3.335,-1.118 5.106,-1.246 0.3,-0.037 0.604,-0.067 0.909,-0.092 1.22,-0.097 2.478,-0.1 3.758,-0.001 4.472,0.35 8.477,1.905 11.516,4.207 3.007,-1.735 6.795,-2.628 10.835,-2.312 7.157,0.559 12.95,4.745 14.763,10.084 1.055,-0.058 2.137,-0.047 3.236,0.039 10.089,0.789 17.786,7.573 17.194,15.154 C 3.831,-5.925 2.79,-3.687 1.129,-1.81 0.967,-1.166 0.581,-0.561 0,0"
       style="fill:#285401;fill-opacity:1;fill-rule:nonzero;stroke:none;stroke-width:4.39536"
       transform="matrix(0.03404561,0,0,-0.03404561,16.101394,4.6547175)"
       clip-path="url(#clipPath672)" />
  </g>
</svg>
