<?xml version="1.0" encoding="UTF-8" standalone="no"?>
<!-- Created with Inkscape (http://www.inkscape.org/) -->

<svg
   width="8.2710037mm"
   height="8.2710037mm"
   viewBox="0 0 8.2710037 8.2710037"
   version="1.1"
   id="svg1"
   xmlns="http://www.w3.org/2000/svg"
   xmlns:svg="http://www.w3.org/2000/svg">
  <defs
     id="defs1" />
  <g
     id="g2"
     transform="matrix(1.6727933,0,0,1.4645676,-19.134849,-7.3944106)">
    <path
       style="fill:#280000;fill-opacity:1;fill-rule:nonzero;stroke:none;stroke-width:0.264583"
       d="m 12.843438,5.7031944 2.519743,-0.076481 V 6.6085655 L 12.843438,6.533118 12.352512,6.1238406 Z m 2.417424,2.7006103 h -2.519743 v 0.9808189 h 2.519743 L 15.751788,8.9019657 Z M 12.8145,6.9330934 15.244326,6.9754684 V 7.9562871 L 12.8145,8.0493041 12.324607,7.4994671 Z m 0,0"
       id="path7" />
    <path
       style="fill:#9d9d9d;fill-opacity:1;fill-rule:nonzero;stroke:none;stroke-width:0.264583"
       d="m 13.62892,5.1409548 h 0.343132 V 10.604187 H 13.62892 Z m 0,0"
       id="path8" />
    <path
       style="fill:#ffd400;fill-opacity:1;fill-rule:nonzero;stroke:none;stroke-width:0.264583"
       d="m 12.589191,5.4830528 2.519742,-0.076481 V 6.3873902 L 12.589191,6.3119427 12.098264,5.9036991 Z m 2.418456,2.7006104 h -2.519742 v 0.9808186 h 2.519742 L 15.49754,8.6818242 Z m 0,0"
       id="path9" />
    <path
       style="fill:#1387ff;fill-opacity:1;fill-rule:nonzero;stroke:none;stroke-width:0.264583"
       d="m 12.561285,6.7119184 2.519743,0.068213 V 7.76095 L 12.561285,7.829163 12.070359,7.2793257 Z m 0,0"
       id="path10" />
  </g>
</svg>
