<?xml version="1.0" encoding="UTF-8" standalone="no"?>
<!-- Created with Inkscape (http://www.inkscape.org/) -->

<svg
   width="8.2710037mm"
   height="8.2710037mm"
   viewBox="0 0 8.2710037 8.2710037"
   version="1.1"
   id="svg1"
   sodipodi:docname="lyr_navigation.svg"
   inkscape:version="1.4 (1:1.4+202410161351+e7c3feb100)"
   xmlns:inkscape="http://www.inkscape.org/namespaces/inkscape"
   xmlns:sodipodi="http://sodipodi.sourceforge.net/DTD/sodipodi-0.dtd"
   xmlns="http://www.w3.org/2000/svg"
   xmlns:svg="http://www.w3.org/2000/svg">
  <sodipodi:namedview
     id="namedview1"
     pagecolor="#ffffff"
     bordercolor="#000000"
     borderopacity="0.25"
     inkscape:showpageshadow="2"
     inkscape:pageopacity="0.0"
     inkscape:pagecheckerboard="0"
     inkscape:deskcolor="#d1d1d1"
     inkscape:document-units="mm"
     inkscape:zoom="25.27152"
     inkscape:cx="15.650028"
     inkscape:cy="15.630243"
     inkscape:window-width="1920"
     inkscape:window-height="995"
     inkscape:window-x="0"
     inkscape:window-y="0"
     inkscape:window-maximized="1"
     inkscape:current-layer="svg1" />
  <defs
     id="defs1">
    <clipPath
       clipPathUnits="userSpaceOnUse"
       id="clipPath112">
      <path
         d="M 0,5504.926 H 5022.134 V 0 H 0 Z"
         transform="translate(-3922.3819,-4732.0494)"
         id="path112" />
    </clipPath>
    <clipPath
       clipPathUnits="userSpaceOnUse"
       id="clipPath114">
      <path
         d="M 0,5504.926 H 5022.134 V 0 H 0 Z"
         transform="translate(-3897.5772,-4712.3351)"
         id="path114" />
    </clipPath>
    <clipPath
       clipPathUnits="userSpaceOnUse"
       id="clipPath116">
      <path
         d="M 0,5504.926 H 5022.134 V 0 H 0 Z"
         transform="translate(0,2.5000001e-5)"
         id="path116" />
    </clipPath>
    <clipPath
       clipPathUnits="userSpaceOnUse"
       id="clipPath118">
      <path
         d="M 0,5504.926 H 5022.134 V 0 H 0 Z"
         transform="translate(0,2.5000001e-5)"
         id="path118" />
    </clipPath>
    <clipPath
       clipPathUnits="userSpaceOnUse"
       id="clipPath120">
      <path
         d="M 0,5504.926 H 5022.134 V 0 H 0 Z"
         transform="translate(-4054.8507,-4832.5528)"
         id="path120" />
    </clipPath>
    <clipPath
       clipPathUnits="userSpaceOnUse"
       id="clipPath122">
      <path
         d="M 0,5504.926 H 5022.134 V 0 H 0 Z"
         transform="translate(-4001.2765,-4819.7599)"
         id="path122" />
    </clipPath>
    <clipPath
       clipPathUnits="userSpaceOnUse"
       id="clipPath124">
      <path
         d="M 0,5504.926 H 5022.134 V 0 H 0 Z"
         transform="translate(-3973.0772,-4783.4859)"
         id="path124" />
    </clipPath>
  </defs>
  <path
     style="fill:#00008b;fill-opacity:1;stroke-width:1.19203"
     d="M 2.0201455,7.7258511 C 1.9108005,7.7087657 1.8708019,7.6226463 1.5365484,6.6847324 1.1565696,5.6185136 1.0793929,5.3188359 1.0793929,4.9096007 1.0793929,4.6001885 1.225314,4.023524 1.381706,3.7149016 L 1.5017471,3.4780101 1.2408307,3.4238443 C 1.0881269,3.3921434 0.98720009,3.347819 0.99748133,3.3169741 1.0172213,3.2577349 2.3039535,2.6548366 2.337992,2.6888747 2.3605809,2.7114625 2.269188,3.8849194 2.2302443,4.0723092 2.1983933,4.2255897 2.1562907,4.2049562 2.0017226,3.9603025 1.8728534,3.7563282 1.8599831,3.7480912 1.7994339,3.8308367 1.6702584,4.0073678 1.5846873,4.4184386 1.6150066,4.716804 1.6547131,5.1075516 1.911952,5.6167793 2.2528441,5.9794562 L 2.5229808,6.2668573 3.8035406,4.5192314 C 4.5078481,3.5580372 5.0961996,2.740074 5.110988,2.7015355 5.1280936,2.6569596 5.0179857,2.5052567 4.8083625,2.2845732 4.484886,1.9440355 4.4803158,1.9357366 4.5588991,1.8315556 l 0.080045,-0.1061252 0.408665,0.2851354 C 5.4241665,2.273298 5.4600036,2.2887357 5.5037202,2.2070486 5.53904,2.1410518 5.5275488,2.0720669 5.4587448,1.9371076 5.2437181,1.515344 5.3931832,0.9339481 5.7796537,0.68885824 6.2611599,0.38349606 6.8408049,0.50031369 7.1607125,0.96718697 7.2563251,1.1067306 7.2742412,1.1896858 7.2742412,1.4930754 c 0,0.4667831 -0.1279478,0.68266 -0.5175902,0.8732948 C 6.5338607,2.4753707 6.4537467,2.4911006 6.2358925,2.4686165 6.0204069,2.446377 5.9711283,2.4556893 5.9336402,2.5257368 5.8960438,2.5959927 5.9457629,2.649167 6.2433307,2.8569292 6.632562,3.12869 6.6884479,3.2061333 6.5762743,3.3183065 6.5078399,3.3867373 6.4642116,3.3759066 6.0694708,3.192503 5.7113385,3.0261098 5.6274911,3.0026307 5.5787298,3.0550857 5.5294394,3.1081036 3.242427,6.4414203 3.1366582,6.6143929 3.0918021,6.6877589 3.3490529,6.820442 3.8042153,6.9586932 4.2722171,7.1008446 4.8099669,7.076653 5.1593891,6.8977281 5.4087714,6.7700297 5.6960829,6.5517362 5.6960829,6.4899584 c 0,-0.019483 -0.1177727,-0.061781 -0.2617056,-0.093992 C 5.2904398,6.3637545 5.1798015,6.3160137 5.188514,6.2898737 5.2073362,6.2334215 6.5020455,5.6280915 6.5345176,5.660564 6.5760241,5.7020753 6.4267223,7.1147918 6.3791638,7.1304664 6.353249,7.1390012 6.2715712,7.0502558 6.1976414,6.9332432 L 6.0632269,6.7204925 5.7640595,7.0003481 C 5.5901984,7.1629877 5.3209282,7.3510484 5.1211738,7.4493464 4.5932571,7.7091322 4.2706794,7.757922 3.128637,7.7507181 2.5845277,7.747285 2.0857059,7.7360954 2.0201455,7.7258511 Z m 4.6089132,-5.87893 C 6.7956425,1.7067506 6.8404139,1.5228807 6.7567298,1.3225962 6.62258,1.0015318 6.2771845,0.92502822 6.015883,1.1585019 5.8894527,1.271467 5.8631053,1.3291681 5.8631053,1.4930865 c 0,0.1639184 0.026344,0.2216196 0.1527777,0.3345846 0.1964168,0.1754987 0.4191739,0.182492 0.6131757,0.01925 z"
     id="path2" />
</svg>
