<?xml version="1.0" encoding="UTF-8" standalone="no"?>
<!-- Created with Inkscape (http://www.inkscape.org/) -->

<svg
   width="8.2710037mm"
   height="8.2710037mm"
   viewBox="0 0 8.2710037 8.2710037"
   version="1.1"
   id="svg1"
   xmlns="http://www.w3.org/2000/svg"
   xmlns:svg="http://www.w3.org/2000/svg">
  <defs
     id="defs1" />
  <g
     id="layer1"
     transform="translate(-123.29584,-119.85624)">
    <circle
       style="display:inline;fill:#ffffff;stroke-width:0.264583;stroke-linecap:round;stroke-linejoin:round;paint-order:markers fill stroke"
       id="circle3"
       cx="127.43134"
       cy="123.99174"
       r="4.1355019" />
    <path
       d="m 124.76326,127.66072 c -0.10976,-0.0319 -0.18033,-0.11682 -0.19524,-0.23531 -0.004,-0.0306 -0.006,-0.48216 -0.006,-1.08623 l -2.2e-4,-1.03411 h -0.35582 c -0.33563,0 -0.35561,0 -0.35214,-0.0129 0.003,-0.008 0.1732,-0.6277 0.3804,-1.3794 0.20721,-0.75179 0.37843,-1.37253 0.3805,-1.37946 0.004,-0.0116 -0.003,-0.0129 -0.0591,-0.0129 h -0.0628 l -0.014,0.0486 c -0.008,0.0267 -0.10808,0.38362 -0.22318,0.79312 -0.11516,0.40945 -0.21792,0.76376 -0.2285,0.78731 -0.0235,0.0523 -0.0771,0.11027 -0.12376,0.13365 -0.0483,0.0242 -0.14428,0.0249 -0.19313,0.004 -0.10886,-0.0518 -0.16537,-0.18188 -0.13546,-0.31157 0.006,-0.0254 0.12544,-0.43963 0.26556,-0.91979 0.27843,-0.95415 0.27208,-0.93559 0.36194,-1.05886 0.11155,-0.15319 0.25684,-0.25468 0.43313,-0.30281 l 0.0622,-0.0172 h 1.01034 l 0.0627,0.0198 c 0.14168,0.0452 0.24366,0.11027 0.34969,0.22311 0.0727,0.0775 0.13381,0.16525 0.16929,0.24348 0.0283,0.0623 0.5291,1.7803 0.53538,1.83648 0.0197,0.17473 -0.0844,0.30812 -0.24026,0.30794 -0.0862,-9e-5 -0.15999,-0.0487 -0.20593,-0.13589 -0.0116,-0.022 -0.10603,-0.34525 -0.24542,-0.84031 -0.12454,-0.44239 -0.22777,-0.80569 -0.22929,-0.80724 -0.001,0 -0.0339,-0.004 -0.072,0 l -0.0693,0.004 0.39215,1.38841 c 0.21569,0.76359 0.39225,1.38918 0.39236,1.39017 1.2e-4,0 -0.1644,0.004 -0.3656,0.004 h -0.3658 v 1.05714 c 0,0.74611 -0.003,1.06833 -0.008,1.09524 -0.0229,0.1131 -0.10025,0.18832 -0.21436,0.20851 -0.14465,0.0255 -0.27698,-0.0644 -0.30659,-0.20851 -0.005,-0.0271 -0.008,-0.33992 -0.008,-1.09524 v -1.05718 h -0.16026 v 1.05357 c 0,0.74347 -0.003,1.06474 -0.008,1.09162 -0.0257,0.12697 -0.12441,0.21261 -0.25211,0.21876 -0.0378,0.004 -0.0702,0 -0.0954,-0.008 z m 4.71758,-0.0103 c -0.047,-0.009 -0.11476,-0.0452 -0.15056,-0.0793 -0.0349,-0.0332 -0.059,-0.0712 -0.0825,-0.1305 l -0.015,-0.0379 -0.004,-2.39547 -0.004,-2.39551 -0.061,-0.005 -0.0609,-0.004 -5e-5,0.85094 c -4e-5,0.56153 -0.003,0.86684 -0.008,0.89767 -0.004,0.0255 -0.0132,0.0604 -0.0203,0.0771 -0.0201,0.0469 -0.0708,0.0981 -0.12042,0.12145 -0.0375,0.0181 -0.0519,0.0207 -0.10616,0.0207 -0.054,0 -0.0688,-0.004 -0.10538,-0.0203 -0.053,-0.0249 -0.0937,-0.0671 -0.11901,-0.12325 l -0.0195,-0.043 -0.003,-0.98192 c -10e-4,-0.72268 -1e-5,-0.99901 0.006,-1.04667 0.023,-0.18169 0.1023,-0.34892 0.22543,-0.47503 0.094,-0.0963 0.19646,-0.15673 0.32721,-0.19276 0.0564,-0.0156 0.0599,-0.0156 0.77086,-0.0156 0.669,0 0.71766,0 0.76889,0.0129 0.25638,0.0621 0.464,0.25885 0.55176,0.52294 0.0434,0.13076 0.0406,0.0549 0.0433,1.12922 0.001,0.71829 3.8e-4,0.99342 -0.005,1.02485 -0.0161,0.0865 -0.0632,0.15095 -0.13797,0.18887 -0.0351,0.0181 -0.047,0.0198 -0.10911,0.0198 -0.0634,0 -0.0734,-0.004 -0.1104,-0.0211 -0.0504,-0.0267 -0.0963,-0.0779 -0.11747,-0.13197 l -0.0161,-0.0409 -0.003,-0.88689 -0.003,-0.88694 -0.12158,0.009 -0.004,2.3919 -0.004,2.39198 -0.0153,0.0414 c -0.0479,0.12955 -0.1513,0.20813 -0.28777,0.21868 -0.13435,0.0103 -0.26912,-0.0652 -0.32687,-0.18325 -0.0449,-0.0916 -0.0422,0.004 -0.0423,-1.52123 l -1e-4,-1.3869 -0.10795,0.009 -0.006,2.82719 -0.0149,0.0375 c -0.0244,0.0616 -0.0486,0.0988 -0.0873,0.13471 -0.0798,0.0742 -0.18912,0.10436 -0.29762,0.0823 z m -2.20254,-3.64672 v -3.62561 h 0.66193 v 7.25139 h -0.66193 z m -2.13559,-2.50057 c -0.14979,-0.0224 -0.25339,-0.0742 -0.35233,-0.17549 -0.14957,-0.15323 -0.20513,-0.36111 -0.15285,-0.5719 0.0261,-0.10539 0.0675,-0.18041 0.14591,-0.26514 0.0747,-0.0806 0.15048,-0.12788 0.2561,-0.15948 0.20654,-0.0618 0.42825,0 0.57853,0.16456 0.16458,0.1789 0.20569,0.43486 0.10577,0.65818 -0.0758,0.16943 -0.21104,0.28608 -0.38445,0.33166 -0.0542,0.0143 -0.15726,0.0233 -0.19664,0.0181 z m 4.75202,0 c -0.139,-0.0211 -0.24609,-0.0713 -0.33778,-0.15886 -0.17527,-0.16745 -0.23264,-0.4251 -0.14619,-0.65652 0.0499,-0.1333 0.15581,-0.25281 0.28325,-0.31938 0.0991,-0.0518 0.23709,-0.0724 0.34918,-0.0522 0.34128,0.0614 0.55426,0.40067 0.46711,0.74413 -0.0523,0.2064 -0.21512,0.3716 -0.41894,0.4252 -0.0542,0.0143 -0.15725,0.0233 -0.19663,0.0181 z"
       fill="#ffffff"
       stroke-width="0.35475"
       id="path6"
       style="fill:#000080" />
  </g>
</svg>
