<?xml version="1.0" encoding="UTF-8" standalone="no"?>
<!-- Created with Inkscape (http://www.inkscape.org/) -->

<svg
   width="8.2710037mm"
   height="8.2710037mm"
   viewBox="0 0 8.2710037 8.2710037"
   version="1.1"
   id="svg1"
   xml:space="preserve"
   sodipodi:docname="lyr_diepost_servicepoint.svg"
   inkscape:version="1.4 (1:1.4+202410161351+e7c3feb100)"
   xmlns:inkscape="http://www.inkscape.org/namespaces/inkscape"
   xmlns:sodipodi="http://sodipodi.sourceforge.net/DTD/sodipodi-0.dtd"
   xmlns="http://www.w3.org/2000/svg"
   xmlns:svg="http://www.w3.org/2000/svg"><sodipodi:namedview
     id="namedview1"
     pagecolor="#ffffff"
     bordercolor="#000000"
     borderopacity="0.25"
     inkscape:showpageshadow="2"
     inkscape:pageopacity="0.0"
     inkscape:pagecheckerboard="0"
     inkscape:deskcolor="#d1d1d1"
     inkscape:document-units="mm"
     inkscape:zoom="25.27152"
     inkscape:cx="15.630243"
     inkscape:cy="16.025946"
     inkscape:window-width="1920"
     inkscape:window-height="995"
     inkscape:window-x="0"
     inkscape:window-y="0"
     inkscape:window-maximized="1"
     inkscape:current-layer="svg1" /><defs
     id="defs1"><clipPath
       clipPathUnits="userSpaceOnUse"
       id="clipPath1926"><path
         d="M 0,5504.926 H 5022.134 V 0 H 0 Z"
         transform="translate(-2694.5616,-1979.5664)"
         id="path1926" /></clipPath><clipPath
       clipPathUnits="userSpaceOnUse"
       id="clipPath1928"><path
         d="M 0,5504.926 H 5022.134 V 0 H 0 Z"
         transform="translate(-2833.5519,-1913.1953)"
         id="path1928" /></clipPath><clipPath
       clipPathUnits="userSpaceOnUse"
       id="clipPath1930"><path
         d="M 0,5504.926 H 5022.134 V 0 H 0 Z"
         transform="translate(-2699.5948,-1856.6036)"
         id="path1930" /></clipPath><clipPath
       clipPathUnits="userSpaceOnUse"
       id="clipPath1932"><path
         d="M 0,5504.926 H 5022.134 V 0 H 0 Z"
         transform="translate(-2813.3701,-1909.6953)"
         id="path1932" /></clipPath><clipPath
       clipPathUnits="userSpaceOnUse"
       id="clipPath1932-7"><path
         d="M 0,5504.926 H 5022.134 V 0 H 0 Z"
         transform="translate(-2813.3701,-1909.6953)"
         id="path1932-0" /></clipPath></defs><path
     id="path5"
     style="fill:#e10000;fill-opacity:1;stroke-width:0.196863"
     d="M 1.3146484 5.3231893 C 1.1597864 5.3275299 1.0526614 5.3707191 0.97203369 5.4513468 C 0.87099155 5.552389 0.85325717 5.6019375 0.89296875 5.6761393 C 0.95196357 5.7863722 1.6382631 6.1734407 2.9197184 6.8197388 L 3.8209554 7.2744914 L 5.0999471 7.2744914 L 6.3789388 7.2744914 L 6.5835775 7.5607788 C 6.6960709 7.7183412 6.8273148 7.8771225 6.8750326 7.9132121 C 6.9451107 7.9661931 6.9748796 7.9652937 7.0305786 7.9095947 C 7.1093608 7.8308124 7.4354055 6.1936703 7.3938639 6.0854167 C 7.3788375 6.0462585 6.9950011 5.8762956 6.5412028 5.7071452 C 5.7707303 5.419957 5.6870101 5.3993978 5.2735799 5.4001872 C 4.880033 5.4009277 4.7772271 5.4231838 4.3501221 5.600175 C 3.8723972 5.798143 3.8682596 5.7987772 3.6209676 5.7210978 C 3.2212793 5.5955477 3.1127726 5.5814455 2.9393555 5.6311808 C 2.8092792 5.6684864 2.6562499 5.6411126 2.1946981 5.4994059 C 1.7916476 5.3756602 1.5137568 5.3176085 1.3146484 5.3231893 z M 1.4856974 5.6435832 C 1.5315515 5.6346553 1.8109558 5.7007398 2.1063314 5.7903442 C 2.4017065 5.8799488 2.6840669 5.965121 2.7342 5.97948 C 2.784334 5.993839 2.8256673 6.0349003 2.8256673 6.0709473 C 2.8256673 6.2341463 3.3996494 6.5762896 3.8380086 6.674528 C 3.9745492 6.7051263 4.205221 6.7120144 4.3759603 6.6900309 L 4.6746501 6.6512736 L 4.231783 6.6192342 C 3.865473 6.5927708 3.725644 6.5555331 3.4214966 6.4016764 C 2.9872628 6.1820141 2.8880128 6.0853673 2.9801799 5.9743123 C 3.0525646 5.8870947 3.2349866 5.9099309 3.6209676 6.0533773 L 3.870048 6.1458781 L 4.3506388 5.935555 C 4.9691571 5.6649398 5.3675343 5.6245556 5.8203166 5.7867269 C 5.9922027 5.8482907 6.3380778 5.9702134 6.5887451 6.0575114 C 6.8394124 6.1448095 7.045112 6.2433693 7.0455648 6.2766195 C 7.0460225 6.3098695 7.0066471 6.5652287 6.9582316 6.8445435 C 6.9098144 7.1238596 6.8506355 7.3525228 6.8269735 7.3525228 C 6.8033135 7.3525228 6.784082 7.3337129 6.784082 7.3106649 C 6.784082 7.2876153 6.7076883 7.186225 6.6145833 7.0853556 L 6.4456014 6.9019043 L 5.9505412 6.9478963 C 5.6783881 6.9730873 5.1158799 6.9866587 4.7004883 6.9778687 C 3.8264535 6.9593796 3.9471565 7.0006707 2.361613 6.1649984 C 1.8341736 5.8870076 1.4398434 5.6525132 1.4856974 5.6435832 z " /><path
     style="fill:#e10000;fill-opacity:1;stroke:#e10000;stroke-width:0.0942277;stroke-opacity:1"
     d="M 1.7910688,4.4524538 C 1.7561777,4.4175584 1.751895,4.2157288 1.751895,2.605913 c 0,-1.1981847 0.00869,-1.82361767 0.025801,-1.85558721 0.025242,-0.0471701 0.07898,-0.0482219 2.4673027,-0.0482219 2.3883163,0 2.4420558,0.00106 2.4673017,0.0482219 0.017118,0.031974 0.025811,0.65740251 0.025811,1.85558721 0,1.6098158 -0.0043,1.8116455 -0.039173,1.8465408 -0.035085,0.03508 -0.2919425,0.039176 -2.4539333,0.039176 -2.1619919,0 -2.4188576,-0.00415 -2.4539344,-0.039176 z M 6.2512633,4.2208143 c -0.081008,-0.076504 -1.5424678,-1.312997 -1.5763651,-1.33371 -0.02007,-0.012274 -0.098781,0.039689 -0.2189448,0.1444822 -0.1031923,0.089995 -0.1981152,0.163626 -0.2109501,0.163626 -0.012825,0 -0.1069487,-0.072924 -0.2091472,-0.1620536 C 3.9336619,2.9440347 3.8440419,2.8711072 3.8367009,2.8711072 c -0.012793,0 -1.4965245,1.2529288 -1.5979599,1.3493857 -0.048103,0.045744 -0.00451,0.046757 2.0062623,0.046757 2.0058693,0 2.0542447,-0.00116 2.00626,-0.046438 z M 2.8635218,3.3786116 3.6746819,2.6883544 3.6170381,2.6338165 C 3.5853345,2.6038186 3.2091264,2.246664 2.7810195,1.8401397 2.3529115,1.4336144 1.9967075,1.1010037 1.9894557,1.1010037 c -0.00719,0 -0.01318,0.6743394 -0.01318,1.4985337 0,1.3331411 0.0043,1.4969227 0.038046,1.4839341 0.020928,-0.008 0.4030671,-0.3252148 0.8492045,-0.704857 z M 6.5137335,2.5968675 c 0,-0.8227267 -0.00601,-1.4958667 -0.01318,-1.4958667 -0.00719,0 -0.3634569,0.3326108 -0.7915638,0.7391359 C 5.2808842,2.2466611 4.9046343,2.6038572 4.8728802,2.6339062 l -0.057741,0.054634 0.8256823,0.7020973 c 0.4541256,0.3861535 0.8363094,0.7020972 0.8492979,0.7020972 0.014607,0 0.023611,-0.5708033 0.023611,-1.4958657 z M 5.2947045,1.9112616 6.3197115,0.93894823 5.2823568,0.9324873 c -0.5705445,-0.003563 -1.5043645,-0.003563 -2.0751558,0 L 2.1694009,0.9389373 3.200652,1.9175887 C 3.7678406,2.4558513 4.2404076,2.8933917 4.2507999,2.889906 4.2612109,2.886436 4.7309505,2.4460266 5.2947045,1.9112543 Z"
     id="path4" /></svg>
