<?xml version="1.0" encoding="UTF-8" standalone="no"?>
<!-- Created with Inkscape (http://www.inkscape.org/) -->

<svg
   width="8.2710037mm"
   height="8.2710037mm"
   viewBox="0 0 8.2710037 8.2710037"
   version="1.1"
   id="svg1"
   xml:space="preserve"
   xmlns="http://www.w3.org/2000/svg"
   xmlns:svg="http://www.w3.org/2000/svg"><defs
     id="defs1" /><path
     d="M 3.8120459,7.9473768 V 7.1577454 Q 3.1946523,7.1056379 2.706712,6.8891907 2.2187718,6.6727435 1.9449278,6.2759236 1.6760628,5.8750956 1.686021,5.2898867 l 0.00996,-0.020042 h 1.4140307 q 0,0.356737 0.1394114,0.5771925 0.1443913,0.2204556 0.3883605,0.3246708 0.2439701,0.1002061 0.5576459,0.1002061 0.3037179,0 0.5128351,-0.088182 0.2091172,-0.088182 0.3136759,-0.2485136 0.1095377,-0.1643387 0.1095377,-0.3807867 0,-0.2164472 -0.099581,-0.3767784 Q 4.9323167,5.0173237 4.7082626,4.8890586 4.4842084,4.7607936 4.1058059,4.6445534 3.3689165,4.4281063 2.8859554,4.1876095 2.407973,3.9431043 2.1689821,3.610417 1.93497,3.2777298 1.93497,2.796736 1.93497,2.1233449 2.4677208,1.6944588 3.0054509,1.2615645 3.9116255,1.1854072 V 0.32362671 H 4.7032837 V 1.197432 Q 5.5746053,1.3016475 6.0725034,1.7866494 6.5753805,2.267643 6.5654226,3.0412412 L 6.5504945,3.061283 H 5.136455 q 0,-0.4729771 -0.2439701,-0.7295072 -0.24397,-0.2565299 -0.6572255,-0.2565299 -0.4281923,0 -0.6422887,0.200414 -0.2091172,0.1964057 -0.2091172,0.5250847 0,0.2084307 0.0946,0.3607453 0.0946,0.152315 0.3186547,0.2805798 0.2290331,0.1242576 0.6223725,0.2485133 0.7319106,0.2324802 1.2098927,0.4809937 0.4829613,0.244505 0.7169732,0.573184 0.2389914,0.3246709 0.2389914,0.8016562 0,0.6934326 -0.5377301,1.1143022 -0.5327505,0.416861 -1.4439041,0.4930184 V 7.947377 Z"
     id="text12"
     style="font-weight:bold;font-size:4.9389px;font-family:'Roboto Slab';-inkscape-font-specification:'Roboto Slab Bold';fill:#041874;fill-opacity:1;stroke:#e10000;stroke-width:0"
     aria-label="$" /></svg>
