<?xml version="1.0" encoding="UTF-8" standalone="no"?>
<!-- Created with Inkscape (http://www.inkscape.org/) -->

<svg
   width="8.2710037mm"
   height="8.2710037mm"
   viewBox="0 0 8.2710037 8.2710037"
   version="1.1"
   id="svg1"
   sodipodi:docname="lyr_tram_station.svg"
   inkscape:version="1.4 (1:1.4+202410161351+e7c3feb100)"
   xmlns:inkscape="http://www.inkscape.org/namespaces/inkscape"
   xmlns:sodipodi="http://sodipodi.sourceforge.net/DTD/sodipodi-0.dtd"
   xmlns="http://www.w3.org/2000/svg"
   xmlns:svg="http://www.w3.org/2000/svg">
  <sodipodi:namedview
     id="namedview1"
     pagecolor="#ffffff"
     bordercolor="#000000"
     borderopacity="0.25"
     inkscape:showpageshadow="2"
     inkscape:pageopacity="0.0"
     inkscape:pagecheckerboard="0"
     inkscape:deskcolor="#d1d1d1"
     inkscape:document-units="mm"
     inkscape:zoom="25.27152"
     inkscape:cx="15.650028"
     inkscape:cy="15.630243"
     inkscape:window-width="1920"
     inkscape:window-height="995"
     inkscape:window-x="0"
     inkscape:window-y="0"
     inkscape:window-maximized="1"
     inkscape:current-layer="svg1" />
  <defs
     id="defs1" />
  <path
     style="fill:#155115;fill-opacity:1;stroke-width:0.812115"
     d="M 1.2876204,7.7813867 C 1.272162,7.7488845 1.5164748,7.3912898 1.8305284,6.9867307 L 2.4015356,6.2511685 2.2041262,6.2034358 C 1.9935499,6.1525194 1.7042893,5.9216287 1.656866,5.7666071 1.6410643,5.7149413 1.6348537,4.7445087 1.6430712,3.6100909 l 0.014937,-2.062578 0.1252333,-0.1417088 c 0.256124,-0.28981 0.3260431,-0.2983135 2.4614118,-0.2993478 1.8927759,-9.193e-4 1.9104729,-1.212e-4 2.135714,0.096007 0.1552374,0.066251 0.2651349,0.154944 0.3472275,0.2802278 l 0.1201065,0.1832978 v 2.0049447 c 0,1.9955418 -5.503e-4,2.0058247 -0.1173557,2.1925878 C 6.5968435,6.0769819 6.2947988,6.2391351 6.0286282,6.2402381 L 5.8615252,6.24093 6.4365066,6.9816113 C 6.752746,7.3889859 6.9988432,7.7488845 6.9833884,7.7813867 6.9385496,7.875695 6.7629928,7.8498487 6.6699455,7.7352484 L 6.5845085,7.6300152 H 4.1355031 1.6864984 L 1.6010612,7.7352493 C 1.5080141,7.849855 1.3324606,7.8756972 1.2876186,7.7813867 Z m 5.0906647,-0.387679 c 0,-0.014212 -0.051264,-0.099452 -0.1139209,-0.1894205 L 6.150445,7.0407047 H 4.1355058 2.1205656 l -0.113921,0.1635825 c -0.062657,0.08997 -0.113921,0.1752084 -0.113921,0.1894205 0,0.014211 1.0092512,0.025841 2.2427795,0.025841 1.2335282,0 2.2427791,-0.011624 2.242782,-0.025841 z M 5.908866,6.765617 c 0,-0.012388 -0.037905,-0.069214 -0.084236,-0.1262805 L 5.740394,6.5355845 H 4.1355058 2.5306153 l -0.084235,0.103752 c -0.046329,0.057065 -0.084236,0.1138898 -0.084236,0.1262805 0,0.012387 0.798012,0.022529 1.7733602,0.022529 0.9753481,0 1.7733602,-0.010144 1.7733615,-0.022529 z M 5.5437625,6.2830235 c 0,-0.027023 -0.5041907,-0.042093 -1.4082567,-0.042093 -0.9040659,0 -1.4082564,0.015071 -1.4082564,0.042093 0,0.027022 0.5041905,0.042093 1.4082564,0.042093 0.904066,0 1.4082567,-0.015071 1.4082567,-0.042093 z M 6.1281644,5.9866849 C 6.234434,5.9628652 6.3693925,5.8941191 6.4280704,5.8339159 6.5322636,5.7270146 6.5347303,5.676616 6.5335978,3.6780777 6.5325129,1.8027278 6.5249196,1.6241959 6.442323,1.5419161 6.2628431,1.3630993 6.2017164,1.3580924 4.198126,1.3580924 c -1.836182,0 -1.9323227,0.00387 -2.0565957,0.08276 -0.2493164,0.158271 -0.252758,0.191688 -0.2372732,2.3038176 l 0.014541,1.9844203 0.1275196,0.109515 c 0.070133,0.060233 0.1992265,0.1263338 0.2868668,0.1468899 0.2277648,0.053422 3.5572827,0.054466 3.794972,0.00119 z M 2.6987996,5.674582 c -0.1779095,-0.1435801 -0.1779095,-0.407461 0,-0.5510411 0.1779092,-0.1435801 0.5048822,-0.1435801 0.6827914,0 0.1779083,0.1435801 0.1779083,0.407461 0,0.5510411 -0.0942,0.076023 -0.1843964,0.1033208 -0.3413963,0.1033208 -0.1569996,0 -0.2471955,-0.027297 -0.3413951,-0.1033208 z M 3.1966674,5.4832484 C 3.3093589,5.3133142 3.0603971,5.147034 2.8941533,5.2811998 2.7631452,5.386929 2.8606594,5.5674353 3.0487919,5.5674353 c 0.050625,0 0.1171711,-0.037885 0.1478755,-0.084187 z M 5.0914768,5.6771363 C 4.9754411,5.5965852 4.9463199,5.540799 4.9463199,5.3990615 c 0,-0.1417374 0.029118,-0.1975242 0.1451569,-0.2780749 C 5.4638351,4.8625002 6.0061122,5.122725 5.8878102,5.50313 5.8031498,5.7753626 5.3694808,5.870123 5.0914768,5.6771363 Z m 0.4746388,-0.175848 c 0.045082,-0.036381 0.081966,-0.082383 0.081966,-0.102226 0,-0.054061 -0.1547968,-0.1683738 -0.2280037,-0.1683738 -0.1630223,0 -0.2467897,0.189292 -0.1266675,0.2862353 0.085002,0.068601 0.1747046,0.063459 0.2727091,-0.015634 z M 2.1655154,2.947603 2.179598,2.052634 4.1355104,2.0409112 c 1.0757522,-0.00645 2.009196,-0.00125 2.0743214,0.011538 l 0.1184089,0.023264 -0.014097,0.872423 -0.014097,0.8724232 -2.074306,0.011008 -2.074306,0.011008 z M 6.0131815,2.957637 V 2.2841478 H 4.2137427 2.414303 V 2.9576426 3.6311375 H 4.2137427 6.0131815 Z M 3.2703047,1.9318595 c -0.015076,-0.031699 -0.020205,-0.1595576 -0.0114,-0.2841306 l 0.016001,-0.2264963 0.905899,-0.011538 c 0.6238833,-0.00794 0.9283312,0.00349 0.9779563,0.036725 0.040842,0.027356 0.072057,0.1265979 0.072057,0.2290865 0,0.3287671 0.046981,0.3139893 -0.998213,0.3139893 -0.7432089,0 -0.9405134,-0.011821 -0.962299,-0.057635 z M 4.9178705,1.6948399 c 0,-0.025984 -0.2694811,-0.042093 -0.7041278,-0.042093 -0.4346477,0 -0.7041288,0.016109 -0.7041288,0.042093 0,0.025984 0.2694811,0.042093 0.7041288,0.042093 0.4346467,0 0.7041278,-0.016109 0.7041278,-0.042093 z M 3.526799,1.0001506 C 3.140615,0.8691044 3.2649694,0.43203687 3.6884399,0.43203687 c 0.2931958,0 0.4560174,0.20024919 0.3425606,0.42130537 C 3.9504629,1.0102557 3.7384764,1.0719804 3.526799,1.0001506 Z M 3.7704021,0.72669097 c 0,-0.04677 -0.034768,-0.084187 -0.078232,-0.084187 -0.043465,0 -0.078234,0.037417 -0.078234,0.084187 0,0.0467699 0.034769,0.084187 0.078234,0.084187 0.043465,0 0.078232,-0.037417 0.078232,-0.084187 z M 4.4529135,1.0144391 C 4.0403064,0.89125758 4.1412046,0.43203687 4.580878,0.43203687 c 0.3102977,0 0.4855006,0.23908354 0.3380939,0.46136755 C 4.849237,0.99856253 4.6088452,1.0609916 4.4529135,1.0144391 Z M 4.6570822,0.72669097 c 0,-0.04677 -0.034768,-0.084187 -0.078232,-0.084187 -0.043465,0 -0.078233,0.037417 -0.078233,0.084187 0,0.0467699 0.034769,0.084187 0.078233,0.084187 0.043465,0 0.078232,-0.037417 0.078232,-0.084187 z"
     id="path2" />
</svg>
