<?xml version="1.0" encoding="UTF-8" standalone="no"?>
<!-- Created with Inkscape (http://www.inkscape.org/) -->

<svg
   width="8.2710037mm"
   height="8.2710037mm"
   viewBox="0 0 8.2710037 8.2710037"
   version="1.1"
   id="svg1"
   xmlns="http://www.w3.org/2000/svg"
   xmlns:svg="http://www.w3.org/2000/svg">
  <defs
     id="defs1">
    <clipPath
       id="clip6-2">
      <path
         d="M 0,6 H 24 V 19 H 0 Z m 0,0"
         id="path9-9" />
    </clipPath>
    <clipPath
       id="clip7-0">
      <path
         d="M 23.082031,12 C 23.082031,18.121094 18.121094,23.082031 12,23.082031 5.878906,23.082031 0.917969,18.121094 0.917969,12 0.917969,5.878906 5.878906,0.917969 12,0.917969 18.121094,0.917969 23.082031,5.878906 23.082031,12 Z m 0,0"
         id="path10-9" />
    </clipPath>
  </defs>
  <g
     id="g21"
     transform="matrix(1.2808575,0,0,1.2808575,-2.5286057,-2.2195594)">
    <g
       clip-path="url(#clip6-2)"
       clip-rule="nonzero"
       id="g19"
       transform="matrix(0.26458334,0,0,0.26458334,2.0077534,2.8926001)"
       style="stroke:#2656e8;stroke-width:1.37953;stroke-dasharray:none;stroke-opacity:1">
      <g
         clip-path="url(#clip7-0)"
         clip-rule="nonzero"
         id="g18"
         style="stroke:#2656e8;stroke-width:1.37953;stroke-dasharray:none;stroke-opacity:1">
        <path
           style="fill:none;stroke:#2656e8;stroke-width:1.37953;stroke-linecap:butt;stroke-linejoin:miter;stroke-miterlimit:4;stroke-dasharray:none;stroke-opacity:1"
           d="m 0.472656,1039.9518 c 0,0 1.855469,1.7696 2.996094,1.754 1.121094,-0.012 2.898438,-1.7852 2.898438,-1.7852 0,0 1.613281,1.7031 2.652343,1.7266 1.121094,0.027 2.929688,-1.7305 2.929688,-1.7305 0,0 1.625,1.7539 2.679687,1.7812 1.132813,0.027 2.957032,-1.7578 2.957032,-1.7578 0,0 1.570312,1.7383 2.714843,1.7578 1.214844,0.02 3.238281,-1.7578 3.238281,-1.7578"
           transform="translate(0,-1028.362)"
           id="path17" />
      </g>
    </g>
    <g
       clip-path="url(#clip6-2)"
       clip-rule="nonzero"
       id="g16"
       transform="matrix(0.26458334,0,0,0.26458334,2.0479433,1.6869039)"
       style="stroke:#2656e8;stroke-width:1.37953;stroke-dasharray:none;stroke-opacity:1">
      <g
         clip-path="url(#clip7-0)"
         clip-rule="nonzero"
         id="g15"
         style="stroke:#2656e8;stroke-width:1.37953;stroke-dasharray:none;stroke-opacity:1">
        <path
           style="fill:none;stroke:#2656e8;stroke-width:1.37953;stroke-linecap:butt;stroke-linejoin:miter;stroke-miterlimit:4;stroke-dasharray:none;stroke-opacity:1"
           d="m 0.472656,1039.9518 c 0,0 1.855469,1.7696 2.996094,1.754 1.121094,-0.012 2.898438,-1.7852 2.898438,-1.7852 0,0 1.613281,1.7031 2.652343,1.7266 1.121094,0.027 2.929688,-1.7305 2.929688,-1.7305 0,0 1.625,1.7539 2.679687,1.7812 1.132813,0.027 2.957032,-1.7578 2.957032,-1.7578 0,0 1.570312,1.7383 2.714843,1.7578 1.214844,0.02 3.238281,-1.7578 3.238281,-1.7578"
           transform="translate(0,-1028.362)"
           id="path15" />
      </g>
    </g>
    <g
       clip-path="url(#clip6-2)"
       clip-rule="nonzero"
       id="g20"
       transform="matrix(0.26458334,0,0,0.26458334,2.0479433,0.52139753)"
       style="stroke:#2656e8;stroke-width:1.37953;stroke-dasharray:none;stroke-opacity:1">
      <g
         clip-path="url(#clip7-0)"
         clip-rule="nonzero"
         id="g17"
         style="stroke:#2656e8;stroke-width:1.37953;stroke-dasharray:none;stroke-opacity:1">
        <path
           style="fill:none;stroke:#2656e8;stroke-width:1.37953;stroke-linecap:butt;stroke-linejoin:miter;stroke-miterlimit:4;stroke-dasharray:none;stroke-opacity:1"
           d="m 0.472656,1039.9518 c 0,0 1.855469,1.7696 2.996094,1.754 1.121094,-0.012 2.898438,-1.7852 2.898438,-1.7852 0,0 1.613281,1.7031 2.652343,1.7266 1.121094,0.027 2.929688,-1.7305 2.929688,-1.7305 0,0 1.625,1.7539 2.679687,1.7812 1.132813,0.027 2.957032,-1.7578 2.957032,-1.7578 0,0 1.570312,1.7383 2.714843,1.7578 1.214844,0.02 3.238281,-1.7578 3.238281,-1.7578"
           transform="translate(0,-1028.362)"
           id="path16" />
      </g>
    </g>
  </g>
</svg>
