<?xml version="1.0" encoding="UTF-8" standalone="no"?>
<!-- Created with Inkscape (http://www.inkscape.org/) -->

<svg
   width="8.2710037mm"
   height="8.2710037mm"
   viewBox="0 0 8.2710037 8.2710037"
   version="1.1"
   id="svg1"
   xmlns="http://www.w3.org/2000/svg"
   xmlns:svg="http://www.w3.org/2000/svg">
  <defs
     id="defs1" />
  <path
     style="fill:#00008b;fill-opacity:1;stroke-width:0.80412"
     d="m 1.5426689,7.6839166 c -0.025246,-0.025241 -0.045889,-0.085471 -0.045889,-0.1338478 0,-0.086851 -0.00569,-0.087957 -0.4548174,-0.087957 -0.37945334,0 -0.45866134,-0.010015 -0.47802741,-0.060494 -0.0302676,-0.078901 -0.0302676,-1.6739913 0,-1.7528913 0.0193697,-0.050468 0.0985701,-0.06049 0.47802741,-0.06049 H 1.4967797 V 3.7415886 c 0,-1.8389906 3.568e-4,-1.8473566 0.086052,-2.0172819 C 1.645691,1.5996547 1.7148622,1.5304872 1.8395081,1.4676285 1.9942662,1.3895899 2.0645407,1.3815829 2.5947942,1.3815829 H 3.1794463 V 1.0068086 c 0,-0.24050162 0.016445,-0.39121629 0.045889,-0.42066548 0.065093,-0.0650999 1.7552333,-0.0650999 1.8203327,0 0.029444,0.0294499 0.045889,0.18016386 0.045889,0.42066548 v 0.3747747 h 0.5846521 c 0.5302535,0 0.6005296,0.008 0.7552861,0.086046 0.1246549,0.062858 0.1938186,0.1320263 0.2566768,0.2566782 0.085692,0.1699253 0.086052,0.1782913 0.086052,2.0172819 v 1.8466485 h 0.4548171 c 0.3794548,0 0.4586613,0.010027 0.4780273,0.06049 0.030268,0.078901 0.030268,1.6739909 0,1.752891 -0.01937,0.050466 -0.09857,0.060494 -0.4780273,0.060494 -0.4490967,0 -0.4548174,0.00113 -0.4548174,0.087957 0,0.048377 -0.020643,0.1086078 -0.045889,0.1338478 -0.066352,0.066356 -5.1193027,0.066356 -5.1856568,0 z m 4.9845509,-0.231366 c 0.010039,-0.026296 0.013792,-0.9770912 0.0084,-2.112888 C 6.5270784,3.5666271 6.5189647,3.3097319 6.4781433,3.5231528 6.3973841,3.9455025 6.2224454,4.1056925 5.8169743,4.1286036 L 5.5505005,4.1436608 V 4.422071 c 0,0.2185957 -0.013042,0.2833975 -0.060491,0.3016231 -0.078631,0.030172 -0.7182074,0.030172 -0.7968337,0 -0.04762,-0.01827 -0.060498,-0.083407 -0.060498,-0.3059382 V 4.1350298 H 4.1354981 3.6383475 v 0.2827258 c 0,0.2225307 -0.012893,0.2876681 -0.060491,0.3059385 -0.078631,0.030172 -0.718206,0.030172 -0.7968323,0 -0.047492,-0.018226 -0.06049,-0.083027 -0.06049,-0.3016231 V 4.1436609 L 2.4540594,4.1286033 C 2.0485881,4.1056917 1.873656,3.9455021 1.7928888,3.5231524 c -0.040807,-0.2134209 -0.048933,0.043474 -0.057478,1.8165099 -0.0054,1.1357968 -0.00165,2.0865965 0.0084,2.1128879 0.014392,0.037536 0.5282372,0.047805 2.3917232,0.047805 1.8634845,0 2.3773552,-0.010275 2.3917217,-0.047805 z M 2.4987283,7.0720394 C 2.4661218,7.03944 2.452839,6.8071915 2.452839,6.2702965 c 0,-0.7081499 0.00464,-0.7583508 0.073969,-0.7954403 0.047463,-0.025401 0.623903,-0.039588 1.6086922,-0.039588 0.9847876,0 1.5612258,0.014182 1.6086906,0.039588 0.069291,0.037089 0.073969,0.08729 0.073969,0.7954403 0,0.536895 -0.013343,0.7691456 -0.045889,0.8017429 -0.065962,0.065971 -3.2075723,0.065971 -3.2735425,0 z M 5.580142,6.2861601 5.5906361,5.7029646 H 4.136429 2.6822266 v 0.5672611 c 0,0.3119933 0.011689,0.57894 0.02595,0.5932139 0.014242,0.014272 0.6639156,0.021446 1.443647,0.015937 L 5.5695174,6.8693616 Z M 1.4967797,6.5251739 V 5.8176915 H 1.1334768 0.77017546 v 0.7074824 0.707484 H 1.1334768 1.4967797 Z m 6.0040426,0 V 5.8176915 H 7.1375194 6.774218 v 0.7074824 0.707484 H 7.1375194 7.5008223 Z M 3.4088939,4.0011817 V 3.5231528 H 3.1794403 2.9499867 v 0.4780289 0.4780289 h 0.2294536 0.2294536 z m 1.9121156,0 V 3.5231528 H 5.0915559 4.8621024 V 4.0011817 4.4792106 H 5.0915559 5.3210095 Z M 2.7205332,3.5996373 2.7396624,3.31282 h 0.4397868 0.4397854 l 0.019114,0.2868173 0.019129,0.2868174 H 4.1355072 4.6135361 L 4.6326501,3.5996373 4.6517795,3.31282 h 0.4397868 0.4397854 l 0.019129,0.2868173 0.019129,0.2868174 0.1720898,0.012608 C 5.9277096,3.91269 6.1380534,3.8272364 6.1846337,3.7191073 6.242981,3.5836554 6.4614052,1.9420625 6.4314836,1.8638548 6.4144981,1.8194528 6.3623874,1.7487046 6.3157037,1.7066388 6.2329951,1.6321171 6.1770316,1.6301548 4.1355177,1.6301548 c -2.0415066,0 -2.0974761,0.00197 -2.1801862,0.076485 -0.046683,0.042067 -0.099904,0.115747 -0.1182534,0.1637355 -0.035755,0.093496 0.1674349,1.6203209 0.2417856,1.8168489 0.055979,0.1479699 0.2029335,0.2188953 0.4313556,0.2081892 l 0.1912115,-0.00897 z M 4.8621024,1.2668564 V 1.1521289 H 4.1354981 3.4088939 v 0.1147278 0.1147278 h 0.7266042 0.7266043 z m -0.00734,-0.41110488 c -0.011688,-0.0608569 -0.076937,-0.0669239 -0.7193228,-0.0669239 -0.6423905,0 -0.7076038,0.006068 -0.7193243,0.0669239 -0.011843,0.0618573 0.042561,0.0669239 0.7193243,0.0669239 0.6767588,0 0.7312352,-0.005067 0.7193228,-0.0669239 z"
     id="path2" />
</svg>
