<?xml version="1.0" encoding="UTF-8" standalone="no"?>
<!-- Created with Inkscape (http://www.inkscape.org/) -->

<svg
   width="8.2710037mm"
   height="8.2710037mm"
   viewBox="0 0 8.2710037 8.2710037"
   version="1.1"
   id="svg1"
   xmlns="http://www.w3.org/2000/svg"
   xmlns:svg="http://www.w3.org/2000/svg">
  <defs
     id="defs1">
    <linearGradient
       id="linear1"
       gradientUnits="userSpaceOnUse"
       x1="14.796"
       y1="1044.85"
       x2="10.102"
       y2="1030.35"
       gradientTransform="matrix(0.23406364,0,0,0.23406364,1.331722,-238.71475)">
      <stop
         offset="0"
         style="stop-color:rgb(100%,100%,100%);stop-opacity:1;"
         id="stop5" />
      <stop
         offset="1"
         style="stop-color:rgb(70.588235%,70.588235%,70.588235%);stop-opacity:1;"
         id="stop6" />
    </linearGradient>
    <clipPath
       id="clip2">
      <rect
         width="24"
         height="24"
         id="rect7"
         x="0"
         y="0" />
    </clipPath>
  </defs>
  <g
     id="g3"
     transform="matrix(2.0790843,0,0,2.0790843,-4.4625553,-4.8678755)">
    <path
       style="fill:#173f85;fill-opacity:1;fill-rule:nonzero;stroke:none;stroke-width:0.264583"
       d="M 3.9617227,6.2748268 C 3.632027,6.2396867 3.3178343,6.1177305 3.0522175,5.9203264 2.9529988,5.8469461 2.763863,5.6578103 2.6904824,5.559625 2.3029091,5.0418272 2.2212605,4.3565977 2.4755084,3.7623186 2.5654255,3.5514788 2.6811807,3.3819801 2.8620483,3.2021463 3.0418821,3.0212787 3.2113808,2.90449 3.4232544,2.8156064 4.0175331,2.5603248 4.7027627,2.6419736 5.219527,3.0295469 5.3177123,3.101894 5.5058144,3.2920633 5.5802284,3.3912821 5.9946736,3.9431862 6.0577188,4.6842262 5.7424924,5.2981423 5.4758421,5.8169736 4.9766477,6.1756081 4.4009723,6.2624245 4.2552448,6.2799955 4.1074502,6.2841282 3.9617227,6.2748255 Z m 0,0"
       id="path9-7" />
    <path
       style="fill:url(#linear1);fill-rule:nonzero;stroke:none;stroke-width:0.264583"
       d="M 3.9614737,5.9864723 C 3.6328114,5.9523659 3.3175853,5.8293759 3.0519685,5.6319721 2.9527497,5.5585915 2.7646474,5.3704892 2.691267,5.2712704 2.3026603,4.7545061 2.2210115,4.0692768 2.4762931,3.4749978 2.5651764,3.2631243 2.6819651,3.0936258 2.8617992,2.9137917 3.0416331,2.7329241 3.2111318,2.6171689 3.4230051,2.5272519 4.0172841,2.273004 4.7025136,2.3546528 5.219278,2.7422258 5.3164295,2.814573 5.5055653,3.0037088 5.5799794,3.103961 5.9944243,3.6558654 6.0574697,4.3958716 5.743277,5.0097878 5.4766265,5.528619 4.9763987,5.8872535 4.4007233,5.9740699 4.2549958,5.9916409 4.1082346,5.9957737 3.9614737,5.9854391 Z m 0,0"
       id="path13" />
    <path
       style="fill:#b3b3b3;fill-opacity:1;fill-rule:nonzero;stroke:none;stroke-width:0.264583"
       d="M 4.3737338,5.4107969 C 4.7251335,5.3188129 4.9876499,5.0562965 5.083768,4.7017961 5.10444,4.6263481 5.106506,4.6025771 5.106506,4.4661518 c 0,-0.136426 -0.0031,-0.1612307 -0.022738,-0.2356447 C 5.0403599,4.0589414 4.9514763,3.9018451 4.825386,3.7778216 4.6445184,3.5938534 4.3964715,3.4915343 4.1380892,3.4915343 3.87764,3.4915343 3.634761,3.59282 3.4497593,3.7778216 3.2668245,3.9597227 3.1634719,4.2077696 3.1645054,4.4661518 c 0,0.260449 0.1002522,0.5022948 0.2852539,0.6862631 0.1415934,0.1436602 0.3255616,0.2397786 0.5250325,0.2749184 0.099219,0.018603 0.2945556,0.011369 0.398942,-0.016536 z m 0,0"
       id="path14" />
    <path
       style="fill:#666666;fill-opacity:1;fill-rule:nonzero;stroke:none;stroke-width:0.264583"
       d="M 4.01872,5.1493142 C 3.9319038,5.1327777 3.9008978,5.1214089 3.8109808,5.0759336 3.7489691,5.0438942 3.7169299,5.0201232 3.6538844,4.9570777 3.5391627,4.842356 3.4812851,4.7338356 3.4544135,4.5777727 3.3924018,4.2253395 3.6146105,3.8884093 3.9722113,3.7912574 c 0.085783,-0.023771 0.2532144,-0.021704 0.3431315,0.0031 0.078548,0.022737 0.1725993,0.067179 0.2325438,0.1116211 0.074414,0.054777 0.1591636,0.1539957 0.2025719,0.2377117 0.058911,0.113688 0.076481,0.1891356 0.076481,0.3214272 0,0.1333254 -0.017571,0.2077395 -0.077515,0.3245281 -0.034106,0.066146 -0.05581,0.095085 -0.1250569,0.1632974 -0.067179,0.068213 -0.097152,0.090951 -0.1622639,0.1240235 -0.047543,0.02377 -0.097152,0.043408 -0.1477947,0.058911 -0.08785,0.022738 -0.214974,0.027905 -0.2955893,0.012401 z m 0,0"
       id="path15" />
    <path
       style="fill:#00ffff;fill-opacity:1;fill-rule:nonzero;stroke:none;stroke-width:0.264583"
       d="M 4.2775064,4.8599262 C 4.3942954,4.8154844 4.4873128,4.7235004 4.5317546,4.605678 4.5575938,4.5343646 4.5575938,4.3948382 4.5296909,4.3224913 4.4924838,4.224306 4.4087681,4.1312883 4.3157504,4.0878802 c -0.1126546,-0.05271 -0.2428791,-0.05271 -0.3555339,0 -0.1126545,0.053744 -0.1963703,0.1539957 -0.2284097,0.2738851 -0.01447,0.054777 -0.015502,0.1436605 -0.0031,0.1984375 0.034107,0.1477946 0.1622642,0.2759522 0.3121258,0.3141927 0.051676,0.013435 0.1819011,0.00414 0.236678,-0.015502 z m 0,0"
       id="path16" />
    <path
       style="fill:#ff0000;fill-opacity:1;fill-rule:nonzero;stroke:none;stroke-width:0.264583"
       d="m 4.2140514,2.9230934 c 0.044442,-0.033073 0.058911,-0.060978 0.058911,-0.1157552 0,-0.056844 -0.015502,-0.085783 -0.065112,-0.1198893 -0.043408,-0.026872 -0.098185,-0.026872 -0.1405599,0 -0.093018,0.063045 -0.091984,0.1767334 0.00103,0.2397786 0.024805,0.01757 0.038241,0.019637 0.076481,0.01757 0.026872,-0.0031 0.055811,-0.011369 0.069246,-0.021704 z m 0,0"
       id="path17" />
    <g
       id="use17"
       clip-path="url(#clip2)"
       transform="matrix(0.26458333,0,0,0.26458333,1.0628212,1.6322162)">
      <path
         style="fill:#ffffff;fill-opacity:1;fill-rule:nonzero;stroke:none"
         d="m 12.359375,10.160156 c 0,-0.394531 -0.332031,-0.71875 -0.746094,-0.71875 -0.410156,0 -0.746093,0.324219 -0.746093,0.71875 0,0.398438 0.335937,0.722656 0.746093,0.722656 0.414063,0 0.746094,-0.324218 0.746094,-0.722656 z m 0,0"
         id="path2" />
    </g>
  </g>
</svg>
