<?xml version="1.0" encoding="UTF-8" standalone="no"?>
<!-- Created with Inkscape (http://www.inkscape.org/) -->

<svg
   width="8.2710037mm"
   height="8.2710037mm"
   viewBox="0 0 8.2710037 8.2710037"
   version="1.1"
   id="svg1"
   xmlns="http://www.w3.org/2000/svg"
   xmlns:svg="http://www.w3.org/2000/svg">
  <defs
     id="defs1" />
  <g
     id="g2"
     transform="matrix(1.3439907,0,0,1.3439907,-14.822207,-2.2569682)">
    <path
       d="m 12.964207,4.7566717 c 0,0.3370727 -0.274376,0.612125 -0.612798,0.612125 -0.337747,0 -0.612124,-0.2750523 -0.612124,-0.612125 0,-0.3384209 0.274377,-0.6127987 0.612124,-0.6127987 0.338422,0 0.612798,0.2743778 0.612798,0.6127987"
       id="path2534"
       fill-rule="nonzero"
       fill="#231f20"
       style="fill:#0000ff;fill-opacity:1;stroke-width:0.0564345" />
    <path
       d="M 13.36465,4.5712815 V 4.941387 l 3.107137,0.2298843 v -0.829873 z"
       id="path2536"
       fill-rule="nonzero"
       fill="#231f20"
       style="fill:#0000ff;fill-opacity:1;stroke-width:0.0564345" />
    <path
       d="M 12.699268,3.7872514 13.018813,3.9726405 14.28688,2.2387384 13.56959,1.8241388 Z"
       id="path2538"
       fill-rule="nonzero"
       fill="#231f20"
       style="fill:#0000ff;fill-opacity:1;stroke-width:0.0564345" />
    <path
       d="M 13.137463,4.0906163 13.322178,4.4115097 15.623712,3.3450113 15.208438,2.6263719 Z"
       id="path2540"
       fill-rule="nonzero"
       fill="#231f20"
       style="fill:#0000ff;fill-opacity:1;stroke-width:0.0564345" />
    <path
       d="M 12.699268,5.7254194 13.018813,5.5400291 14.28688,7.2739307 13.56959,7.6885314 Z"
       id="path2542"
       fill-rule="nonzero"
       fill="#231f20"
       style="fill:#0000ff;fill-opacity:1;stroke-width:0.0564345" />
    <path
       d="m 13.137463,5.4220533 0.184715,-0.3208928 2.301534,1.0664973 -0.415274,0.7186394 z"
       id="path2544"
       fill-rule="nonzero"
       fill="#231f20"
       style="fill:#0000ff;fill-opacity:1;stroke-width:0.0564345" />
  </g>
</svg>
