<?xml version="1.0" encoding="UTF-8" standalone="no"?>
<!-- Created with Inkscape (http://www.inkscape.org/) -->

<svg
   width="8.2710037mm"
   height="8.2710037mm"
   viewBox="0 0 8.2710037 8.2710037"
   version="1.1"
   id="svg1"
   inkscape:version="1.3.1 (9b9bdc1480, 2023-11-25, custom)"
   sodipodi:docname="lyr_camping.svg"
   xmlns:inkscape="http://www.inkscape.org/namespaces/inkscape"
   xmlns:sodipodi="http://sodipodi.sourceforge.net/DTD/sodipodi-0.dtd"
   xmlns="http://www.w3.org/2000/svg"
   xmlns:svg="http://www.w3.org/2000/svg">
  <sodipodi:namedview
     id="namedview1"
     pagecolor="#ffffff"
     bordercolor="#000000"
     borderopacity="0.25"
     inkscape:showpageshadow="2"
     inkscape:pageopacity="0.0"
     inkscape:pagecheckerboard="0"
     inkscape:deskcolor="#d1d1d1"
     inkscape:document-units="mm"
     inkscape:zoom="21.594276"
     inkscape:cx="19.472753"
     inkscape:cy="22.436501"
     inkscape:window-width="3200"
     inkscape:window-height="1715"
     inkscape:window-x="0"
     inkscape:window-y="0"
     inkscape:window-maximized="1"
     inkscape:current-layer="layer1" />
  <defs
     id="defs1">
    <clipPath
       clipPathUnits="userSpaceOnUse"
       id="clipPath96">
      <path
         d="M 0,5504.926 H 5022.134 V 0 H 0 Z"
         transform="translate(-985.43162,-4685.7364)"
         id="path96" />
    </clipPath>
    <clipPath
       clipPathUnits="userSpaceOnUse"
       id="clipPath98">
      <path
         d="M 0,5504.926 H 5022.134 V 0 H 0 Z"
         transform="translate(-926.56255,-4741.5646)"
         id="path98" />
    </clipPath>
    <clipPath
       clipPathUnits="userSpaceOnUse"
       id="clipPath100">
      <path
         d="M 0,5504.926 H 5022.134 V 0 H 0 Z"
         transform="translate(-892.6006,-4743.7521)"
         id="path100" />
    </clipPath>
    <clipPath
       clipPathUnits="userSpaceOnUse"
       id="clipPath102">
      <path
         d="M 0,5504.926 H 5022.134 V 0 H 0 Z"
         transform="translate(-981.86042,-4794.2228)"
         id="path102" />
    </clipPath>
    <clipPath
       clipPathUnits="userSpaceOnUse"
       id="clipPath104">
      <path
         d="M 0,5504.926 H 5022.134 V 0 H 0 Z"
         transform="translate(-956.3857,-4795.8644)"
         id="path104" />
    </clipPath>
  </defs>
  <g
     inkscape:label="Layer 1"
     inkscape:groupmode="layer"
     id="layer1"
     transform="translate(-123.29584,-119.85624)">
    <circle
       style="display:inline;fill:#ffffff;stroke-width:0.264583;stroke-linecap:round;stroke-linejoin:round;paint-order:markers fill stroke"
       id="circle3"
       cx="127.43134"
       cy="123.99174"
       r="4.1355019" />
    <g
       id="layer3"
       transform="matrix(1.0553563,0,0,1.0388116,121.86719,118.50146)">
      <g
         id="g2028"
         transform="matrix(0.02109064,0,0,0.02109064,-22.737456,-15.713929)"
         style="stroke-width:12.5451">
        <path
           id="path95"
           d="M 0,0 -11.415,32.275 -28.455,7.792 -52.514,14.38 -6.385,75.229 29.929,-8.194 Z M 111.256,101.019 -4.27,92.918 -67.723,9.213 45.684,-21.839 150.691,60.517 Z"
           style="fill:#285401;fill-opacity:1;fill-rule:nonzero;stroke:none;stroke-width:12.5451"
           transform="matrix(1.3333333,0,0,-1.3333333,1313.9088,1092.2583)"
           clip-path="url(#clipPath96)" />
        <path
           id="path97"
           d="m 0,0 -20.821,24.46 h 15.323 l -19.251,26.843 h 11.481 L -34.914,92.318 -56.561,51.303 h 11.482 L -64.33,24.46 h 15.323 L -69.829,0 -33.962,8.203 Z"
           style="fill:#285401;fill-opacity:1;fill-rule:nonzero;stroke:none;stroke-width:12.5451"
           transform="matrix(1.3333333,0,0,-1.3333333,1235.4167,1017.8207)"
           clip-path="url(#clipPath98)" />
        <path
           id="path99"
           d="M 0,0 -6.694,-1.531 V -20.124 H 4.79 v 18.968 z"
           style="fill:#285401;fill-opacity:1;fill-rule:nonzero;stroke:none;stroke-width:12.5451"
           transform="matrix(1.3333333,0,0,-1.3333333,1190.1341,1014.904)"
           clip-path="url(#clipPath100)" />
        <path
           id="path101"
           d="m 0,0 -15.618,18.348 h 11.493 l -14.439,20.134 h 8.612 L -26.188,69.247 -42.426,38.482 h 8.613 L -48.253,18.348 H -36.76 L -52.378,0 -25.475,6.154 Z"
           style="fill:#285401;fill-opacity:1;fill-rule:nonzero;stroke:none;stroke-width:12.5451"
           transform="matrix(1.3333333,0,0,-1.3333333,1309.1472,947.60973)"
           clip-path="url(#clipPath102)" />
        <path
           id="path103"
           d="M 0,0 -5.021,-1.149 V -15.095 H 3.593 V -0.868 Z"
           style="fill:#285401;fill-opacity:1;fill-rule:nonzero;stroke:none;stroke-width:12.5451"
           transform="matrix(1.3333333,0,0,-1.3333333,1275.1809,945.42093)"
           clip-path="url(#clipPath104)" />
      </g>
    </g>
  </g>
</svg>
