<?xml version="1.0" encoding="UTF-8" standalone="no"?>
<!-- Created with Inkscape (http://www.inkscape.org/) -->

<svg
   width="8.2710037mm"
   height="8.2710037mm"
   viewBox="0 0 8.2710037 8.2710037"
   version="1.1"
   id="svg1"
   xmlns="http://www.w3.org/2000/svg"
   xmlns:svg="http://www.w3.org/2000/svg">
  <defs
     id="defs1" />
  <path
     style="fill:#00008b;fill-opacity:1;fill-rule:nonzero;stroke:none;stroke-width:0.464583"
     d="M 4.3625527,7.7641836 C 4.3081019,7.7115596 4.3026582,7.626257 4.3516628,7.5681855 l 0.034486,-0.043547 0.6115825,-0.00913 c 0.511768,-0.0072 0.6260985,-0.014573 0.7113936,-0.041738 0.1669691,-0.050815 0.1814782,-0.074398 0.1814782,-0.2794756 0,-0.1596996 0.00369,-0.1778486 0.045374,-0.2177726 0.027217,-0.027216 0.063512,-0.043565 0.1016321,-0.045374 0.034486,0 0.072589,0.01633 0.1016322,0.045374 0.041737,0.041737 0.043564,0.054451 0.043564,0.2631419 0,0.2141452 0,0.2177745 -0.058068,0.3066973 -0.048989,0.07078 -0.087111,0.1016321 -0.1978116,0.1578911 -0.074398,0.038099 -0.1814764,0.07622 -0.23592,0.087106 -0.054451,0.00913 -0.3647705,0.018138 -0.6914325,0.018138 H 4.4061412 L 4.3607692,7.764127 Z M 4.9686884,7.3250064 C 4.8743256,7.2850767 4.7962759,7.2124879 4.7472861,7.1217497 4.7291303,7.0745684 4.7200696,7.0237523 4.7200696,6.9729366 c 0,-0.050816 0.083476,-0.4609538 0.1832938,-0.9110191 L 5.0884693,5.2416366 4.9904721,5.1454481 4.5440362,4.7099006 4.1937836,4.366907 3.7945325,4.8169723 C 3.4551683,5.1962605 3.3771323,5.2724828 3.2918373,5.3160363 l -0.099805,0.049008 -0.9418702,0.00544 c -1.0634615,0.00544 -1.0453143,0.0072 -1.1614605,-0.1288518 -0.12703988,-0.1470046 -0.12703988,-0.348437 0,-0.4881756 C 1.2084712,4.6209787 1.1903332,4.622805 2.0051655,4.622805 H 2.7347074 L 3.720133,3.4813082 C 4.2609348,2.853394 4.7055569,2.3325516 4.7037413,2.3234788 4.7019853,2.3162796 4.5930489,2.3089047 4.4605604,2.3089047 H 4.2173707 L 3.7509719,2.8478945 C 3.4932733,3.1437052 3.2573514,3.4014038 3.2246844,3.4213651 3.0032821,3.5502135 2.723805,3.3306198 2.7963976,3.0874459 2.8254398,2.9894485 3.8852655,1.7681013 3.9723743,1.7318048 c 0.049008,-0.021774 0.2123295,-0.027216 0.8475026,-0.027216 0.7749118,0 0.787614,0 0.8602067,0.03993 0.03993,0.021774 0.2794755,0.2468103 0.5299152,0.4990639 0.2522553,0.2522554 0.4645849,0.4591398 0.4754733,0.4591398 0.00913,0 0.195996,-0.1778486 0.4119552,-0.391992 C 7.5220846,1.887886 7.5384181,1.875182 7.6963039,1.9060334 7.7943013,1.9241714 7.912263,2.0457684 7.9285965,2.1473986 7.955813,2.2998465 7.9357971,2.3252474 7.4023106,2.8624234 6.8215795,3.4467818 6.7834693,3.4740036 6.6056204,3.4304483 6.5312228,3.4123098 6.4840239,3.3723805 6.2154439,3.1074175 6.024891,2.9186805 5.9014859,2.8116087 5.8905975,2.8206815 5.8814639,2.8315659 5.6891563,3.0529739 5.462309,3.3143021 L 5.0503539,3.7897754 5.4604951,4.2017305 C 5.6837131,4.428578 5.8815229,4.6409074 5.8978565,4.6735727 5.9668106,4.8114992 5.961368,4.844159 5.7073054,5.9765857 5.5766483,6.5663897 5.45505,7.0781576 5.4387166,7.1162678 5.3806489,7.2487509 5.2245732,7.350374 5.0848346,7.3485602 5.0449049,7.3448709 5.004993,7.3376703 4.9686814,7.3231516 Z M 1.1757989,6.0873255 C 1.0868799,6.0619175 0.94713595,5.9566684 0.87091552,5.8586642 0.77836163,5.7370677 0.72754568,5.6281857 0.51158846,5.0764936 0.37910521,4.7425728 0.32829625,4.590132 0.33555525,4.5592807 c 0.0145745,-0.061702 0.0653383,-0.1088838 0.12703983,-0.1161532 0.0635115,-0.0072 0.12521345,0.025409 0.15244798,0.081667 0.0108899,0.019965 0.10344121,0.2486241 0.2050705,0.5099523 0.10344121,0.2613298 0.19962554,0.4990656 0.21595914,0.5299169 0.03993,0.078032 0.1869216,0.2322908 0.2232179,0.2322908 0.014574,0 0.090745,-0.025409 0.1669516,-0.056259 0.1615259,-0.063511 0.215959,-0.067145 0.2704027,-0.018138 0.054451,0.050815 0.067146,0.1143264 0.032659,0.1796627 -0.0236,0.04718 -0.061702,0.067146 -0.2195884,0.130657 -0.1978118,0.076224 -0.235922,0.083476 -0.3339192,0.054451 z M 6.3551824,1.8607025 C 5.977708,1.8098865 5.6927858,1.4178961 5.7617491,1.045865 5.8034869,0.8117587 5.9523002,0.61939203 6.1646296,0.51776534 6.2717043,0.46695046 6.30073,0.46150668 6.4586247,0.46150668 c 0.156065,0 0.185106,0.005445 0.2921794,0.0562587 C 6.9758359,0.61939749 7.1300924,0.83172165 7.1609437,1.0767162 7.1899859,1.3217127 7.0883549,1.563078 6.8941722,1.7155206 6.7417245,1.8352905 6.5529925,1.886107 6.3551824,1.8588903 Z m 0,0"
     id="path17" />
</svg>
