<?xml version="1.0" encoding="UTF-8" standalone="no"?>
<!-- Created with Inkscape (http://www.inkscape.org/) -->

<svg
   width="8.2710037mm"
   height="8.2710037mm"
   viewBox="0 0 8.2710037 8.2710037"
   version="1.1"
   id="svg1"
   sodipodi:docname="lyr_huts.svg"
   inkscape:version="1.4 (1:1.4+202410161351+e7c3feb100)"
   xmlns:inkscape="http://www.inkscape.org/namespaces/inkscape"
   xmlns:sodipodi="http://sodipodi.sourceforge.net/DTD/sodipodi-0.dtd"
   xmlns="http://www.w3.org/2000/svg"
   xmlns:svg="http://www.w3.org/2000/svg">
  <sodipodi:namedview
     id="namedview1"
     pagecolor="#ffffff"
     bordercolor="#000000"
     borderopacity="0.25"
     inkscape:showpageshadow="2"
     inkscape:pageopacity="0.0"
     inkscape:pagecheckerboard="0"
     inkscape:deskcolor="#d1d1d1"
     inkscape:document-units="mm"
     showguides="true"
     inkscape:zoom="48.303791"
     inkscape:cx="15.630243"
     inkscape:cy="15.630243"
     inkscape:window-width="3200"
     inkscape:window-height="1715"
     inkscape:window-x="0"
     inkscape:window-y="0"
     inkscape:window-maximized="1"
     inkscape:current-layer="svg1">
    <sodipodi:guide
       position="-1.7747054,4.6065656"
       orientation="1,0"
       id="guide1"
       inkscape:locked="false" />
  </sodipodi:namedview>
  <defs
     id="defs1" />
  <circle
     style="display:inline;fill:#ffffff;stroke-width:0.264583;stroke-linecap:round;stroke-linejoin:round;paint-order:markers fill stroke"
     id="circle3"
     cx="4.1355033"
     cy="4.1354976"
     r="4.1355019" />
  <path
     style="fill:#b16b14;fill-opacity:1;fill-rule:nonzero;stroke:none;stroke-width:0.45083"
     d="M 1.0519744,7.6586196 C 0.9657557,7.6216444 0.94803486,7.5582584 0.94803486,7.2782351 c 0,-0.1831551 0.006816,-0.2535954 0.0264109,-0.2905877 0.0511178,-0.098657 0.0511178,-0.098657 0.84177374,-0.098657 H 2.5382584 V 6.6248303 H 1.8267839 c -0.7995165,0 -0.8100808,-0.00511 -0.85411026,-0.1075177 -0.0352713,-0.082811 -0.033397,-0.5212653 0.001704,-0.5899505 0.0511178,-0.098657 0.0511178,-0.098657 0.84177386,-0.098657 H 2.5381903 V 5.564545 H 1.8267157 c -0.8030435,0 -0.8100808,0 -0.85411022,-0.1092217 C 0.95897407,5.4253342 0.95147679,5.3919372 0.95147679,5.3585402 0.95488464,5.3338333 1.0641063,5.2264859 1.2719854,5.0450689 L 1.5854568,4.7703448 H 6.6872345 L 6.9936687,5.0362596 C 7.3264967,5.3250751 7.335306,5.3356395 7.2859943,5.4553914 7.2401587,5.5629092 7.2331726,5.5629092 6.4318841,5.5629092 H 5.7186545 V 5.828824 h 0.7132296 c 0.7977614,0 0.8083257,0.00511 0.8523552,0.1056434 0.033397,0.082811 0.033397,0.5019087 0,0.5829133 C 7.240278,6.6230242 7.2297136,6.6230242 6.4318841,6.6230242 H 5.7186545 V 6.888956 h 0.7220389 c 0.8012715,0 0.7995164,0 0.8435459,0.1092217 0.035271,0.082811 0.033397,0.5212823 -0.0017,0.5881955 -0.051118,0.1003612 -0.031693,0.098657 -1.2485862,0.098657 H 4.9244713 V 5.64572 L 4.8435348,5.5647835 H 3.4153206 L 3.3342137,5.64572 V 7.6832755 H 2.2194708 c -0.9280777,0 -1.1235522,-0.00341 -1.1693367,-0.022833 z m 0,0"
     id="path7" />
  <path
     style="fill:#5f2d12;fill-opacity:1;fill-rule:nonzero;stroke:none;stroke-width:0.45083"
     d="m 3.5984586,6.8168288 c 0,-0.6850467 0.00511,-0.9122312 0.019425,-0.9280777 0.028115,-0.028115 0.9932358,-0.028115 1.0214188,0 0.013631,0.015335 0.019425,0.243031 0.019425,0.9280777 v 0.906949 H 3.5985608 Z m 0,0"
     id="path8" />
  <path
     style="fill:#ffffff;fill-opacity:1;fill-rule:nonzero;stroke:none;stroke-width:0.45083"
     d="M 4.1197409,6.7957001 V 6.6723358 H 3.8714276 l -0.00341,0.1056435 c -0.00682,0.153183 -0.00682,0.153183 0.1320543,0.1479008 l 0.12149,-0.00511 v -0.12507 z m 0,0"
     id="path9" />
  <path
     style="fill:#5f2d12;fill-opacity:1;fill-rule:nonzero;stroke:none;stroke-width:0.45083"
     d="m 5.7152637,2.2874 c 0.00682,0.00511 0.011927,-0.1303504 0.011927,-0.2940977 0,-0.3346001 0.010224,-0.3751195 0.1056435,-0.4332234 0.04754,-0.028115 0.084515,-0.029989 0.4261691,-0.029989 0.3434093,0 0.3751194,0.00341 0.4261861,0.031693 0.1020652,0.061682 0.1020652,0.068668 0.1039395,0.906949 V 3.225991"
     id="path10" />
  <path
     style="fill:#b16b14;fill-opacity:1;fill-rule:nonzero;stroke:none;stroke-width:0.45083"
     d="M 6.8053507,3.044642 7.4463679,3.5993723 C 8.143751,4.2034143 8.1543153,4.2139957 8.115568,4.3407849 8.0891572,4.4252996 7.7862501,4.7493524 7.7070175,4.7740082 7.6259106,4.802123 7.5449741,4.7808239 7.4639865,4.7106222 7.4253074,4.6789291 6.6679801,4.0220484 5.7821769,3.2559971 4.8963565,2.4881737 4.1637703,1.8594759 4.154961,1.8594759 c -0.010224,0 -0.7642962,0.6462993 -1.6747724,1.4370235 C 1.5679745,4.0872065 0.7948689,4.7458423 0.76140378,4.7616888 0.68915729,4.7969601 0.65047816,4.798664 0.58353088,4.7668006 0.50787654,4.7351076 0.21371065,4.414599 0.19258196,4.3388765 0.15202851,4.2049479 0.06052765,4.2930409 2.1262149,2.5003226 3.5333005,1.2781472 4.0457734,0.84316883 4.09333,0.82907736 c 0.042257,-0.0153353 0.088093,-0.0153353 0.1284761,0.005112 0.042257,0.0153353 0.3064341,0.23422174 0.7801598,0.64456134 0.392704,0.3416373 0.7202668,0.6233986 0.727304,0.6251707 z m 0,0"
     id="path12" />
  <path
     style="fill:#b16b14;fill-opacity:1;fill-rule:nonzero;stroke:none;stroke-width:0.45083"
     d="m 1.9096118,4.4975121 c 0,-0.011927 2.1854733,-1.9160314 2.208357,-1.9248237 0.013631,-0.00341 0.4719706,0.3803846 1.0971413,0.9210235 C 5.5884574,3.8159925 5.9600498,4.1400283 6.331625,4.464064 L 6.372179,4.504617 H 4.1409207 c -1.2274576,0 -2.2312578,-0.00511 -2.2312578,-0.00682 z m 0,0"
     id="path13" />
  <path
     style="fill:#5f2d12;fill-opacity:1;fill-rule:nonzero;stroke:none;stroke-width:0.45083"
     d="M 4.2570944,4.0149941 C 4.3804587,3.9638763 4.4613782,3.8424034 4.4596231,3.70856 c 0,-0.3592559 -0.4983815,-0.4596342 -0.635735,-0.1284761 -0.089797,0.2148651 0.06509,0.4578792 0.2923256,0.4596512 0.04754,0 0.095079,-0.00852 0.1409148,-0.024707 z m 0,0"
     id="path14" />
  <path
     style="fill:#5f2d12;fill-opacity:1;fill-rule:nonzero;stroke:none;stroke-width:0.45083"
     d="M 6.1114948,1.4051068 C 6.0322622,1.3645533 5.9635939,1.2589099 5.9635939,1.1779223 5.9652979,1.0564323 6.0692374,0.94019041 6.1978157,0.91904469 6.2576235,0.90882113 6.2576235,0.90882113 6.241777,0.85037644 6.2264416,0.76756561 6.2366652,0.68134693 6.27347,0.60559035 6.3579848,0.43826476 6.5481941,0.35375 6.7295941,0.40481668 l 0.079233,0.0228326 0.033397,-0.0545257 C 6.8897632,0.29559498 6.9989849,0.202305 7.0887819,0.16180267 7.1961292,0.11068487 7.3828796,0.11255919 7.4955773,0.16521052 7.6030951,0.214454 7.7245169,0.33424004 7.7703014,0.4399346 7.8214192,0.5561424 7.8231231,0.74108659 7.7737092,0.85027421 7.6380767,1.1514092 7.2700456,1.2658789 7.009413,1.0897781 l -0.081107,-0.054526 -0.0564,0.04754 C 6.7926735,1.1497563 6.6553029,1.1867316 6.565489,1.1673068 L 6.496821,1.1519718 6.488301,1.2100758 C 6.4763736,1.2981684 6.4196328,1.3738227 6.3404003,1.410832 6.248729,1.4530894 6.2011894,1.4513854 6.1114607,1.4074241 Z m 0,0"
     id="path15" />
</svg>
