<?xml version="1.0" encoding="UTF-8" standalone="no"?>
<!-- Created with Inkscape (http://www.inkscape.org/) -->

<svg
   width="8.2710037mm"
   height="8.2710037mm"
   viewBox="0 0 8.2710037 8.2710037"
   version="1.1"
   id="svg1"
   xmlns="http://www.w3.org/2000/svg"
   xmlns:svg="http://www.w3.org/2000/svg">
  <defs
     id="defs1" />
  <g
     id="g2"
     transform="matrix(1.5034794,0,0,1.5034794,-3.5703564,-3.611302)">
    <path
       style="fill:#f60704;fill-opacity:1;fill-rule:nonzero;stroke:none;stroke-width:0.264583"
       d="m 2.8887912,7.4046533 c 0,-0.1405599 0.01447,-0.1798341 0.08268,-0.2253093 0.03927,-0.025839 0.04754,-0.026872 0.147794,-0.031006 l 0.106454,-0.0031 V 5.2032369 c 0,-1.6691489 0.0021,-1.9523356 0.01344,-2.0081463 0.03101,-0.159163 0.136426,-0.303857 0.272852,-0.374137 0.04031,-0.020671 0.09302,-0.042375 0.118855,-0.047542 0.03101,-0.00723 0.312126,-0.010335 0.880567,-0.010335 0.928108,0 0.883667,-0.0031 1.002522,0.064079 0.06925,0.038241 0.161231,0.1312582 0.198438,0.2005047 0.01343,0.024805 0.03411,0.072347 0.04754,0.1064532 l 0.0217,0.060978 0.0031,0.9735841 0.0021,0.9725504 h 0.07235 c 0.08475,0 0.189136,0.013436 0.256315,0.034106 0.177767,0.054777 0.289388,0.1963706 0.33383,0.4258138 0.0072,0.039274 0.0155,0.1725994 0.01964,0.3389974 0.0052,0.1508953 0.0124,0.3131593 0.01757,0.3617352 0.03721,0.3679362 0.114722,0.5053954 0.270785,0.4785236 0.04961,-0.0093 0.107487,-0.072347 0.133325,-0.1488282 0.06511,-0.1891355 0.08061,-0.3731037 0.08061,-0.9653156 V 5.2311425 L 6.7738252,5.0161685 C 6.5722872,4.7970604 6.5309462,4.7422835 6.4947722,4.6440982 6.4751352,4.5903547 6.4741022,4.5810528 6.4710012,4.2678938 L 6.4689342,3.9485335 6.2198542,3.6787823 C 5.9728402,3.412132 5.9697402,3.4079979 5.9594052,3.3573548 c -0.0155,-0.065112 0.0041,-0.1333251 0.05168,-0.1788004 0.06098,-0.058911 0.138492,-0.065112 0.209806,-0.016537 0.04031,0.026872 0.611849,0.6500895 0.780314,0.8495608 0.182934,0.2170408 0.260449,0.3358967 0.295589,0.455786 l 0.02067,0.071313 v 0.7958173 c 0,0.8474935 -0.0052,0.9911537 -0.04341,1.2030273 -0.06201,0.3483 -0.211873,0.5539723 -0.43925,0.6056486 -0.206705,0.047542 -0.405143,-0.033073 -0.525032,-0.2139405 -0.121957,-0.1829345 -0.185002,-0.5115965 -0.186035,-0.9653157 0,-0.081649 -0.0031,-0.1829345 -0.0072,-0.2253093 -0.02171,-0.1912028 -0.04238,-0.2108396 -0.232548,-0.2232422 l -0.09715,-0.00517 v 1.6371121 h 0.08888 c 0.135393,0 0.190169,0.024805 0.230477,0.1023194 0.01757,0.03514 0.02067,0.055811 0.0248,0.1550294 l 0.0041,0.1147215 h -3.246305 z m 2.465999,-2.8422039 c 0.02481,-0.015503 0.04547,-0.036174 0.06098,-0.059945 l 0.01964,-0.034107 0.0031,-0.5942788 0.0031,-0.5953125 -0.02067,-0.041341 c -0.01343,-0.025838 -0.031,-0.049609 -0.05271,-0.069246 l -0.03307,-0.027905 -0.816488,-0.0031 c -0.797884,-0.00413 -0.817521,-0.00413 -0.850594,0.015503 -0.04237,0.023771 -0.07338,0.063045 -0.08682,0.1095541 -0.0052,0.021704 -0.0093,0.2418456 -0.0093,0.6066812 v 0.5715413 l 0.0217,0.045476 c 0.02377,0.051676 0.06615,0.08785 0.114722,0.098185 0.01757,0.0031 0.38654,0.00517 0.819588,0.00517 l 0.787549,-0.0031 0.04031,-0.024805 z m 0,0"
       id="path8" />
    <path
       style="fill:#f60704;fill-opacity:1;fill-rule:nonzero;stroke:none;stroke-width:0.264583"
       d="m 6.1113332,3.128945 c -0.03824,0.00413 -0.07338,0.020671 -0.100252,0.048576 -0.04858,0.046509 -0.06821,0.1147218 -0.05168,0.1798339 0.01033,0.051677 0.01343,0.054777 0.259416,0.3214275 l 0.250114,0.2687174 0.0021,0.3203941 c 0.0031,0.3121255 0.0041,0.3224609 0.02377,0.3762044 0.03617,0.098185 0.07752,0.1529622 0.279052,0.3720703 l 0.197404,0.214974 -0.001,0.4351155 c 0,0.5922119 -0.01447,0.7761801 -0.07958,0.9653156 -0.02584,0.076481 -0.08371,0.1405598 -0.133323,0.1488281 -0.156063,0.027905 -0.233577,-0.1095539 -0.270785,-0.4774902 -0.0052,-0.048576 -0.0124,-0.2118733 -0.01654,-0.3627686 -0.0062,-0.1653646 -0.01344,-0.2986897 -0.02067,-0.3379637 -0.04444,-0.2294435 -0.156062,-0.3720703 -0.333829,-0.425814 -0.08372,-0.023771 -0.169498,-0.03514 -0.256315,-0.03514 h -0.06615 v 0.3700034 l 0.09095,0.00517 c 0.189136,0.010335 0.21084,0.031006 0.231511,0.2222085 0.0041,0.042375 0.0083,0.1436605 0.0083,0.2242759 0.001,0.4547526 0.06304,0.7834146 0.185002,0.9673829 0.119889,0.1798338 0.318326,0.2604492 0.526066,0.2129067 0.227375,-0.051679 0.376203,-0.2573512 0.439248,-0.6056503 0.03721,-0.2118736 0.04341,-0.3555339 0.04341,-1.2030274 V 4.538678 l -0.0217,-0.072347 C 7.2606172,4.3474754 7.1831022,4.2275861 7.0012012,4.0115787 6.8327362,3.8121074 6.2611952,3.1888898 6.2208872,3.1620179 c -0.03204,-0.023771 -0.07028,-0.03514 -0.109554,-0.033073 z m 0,0"
       id="path10" />
    <path
       style="fill:#810200;fill-opacity:1;fill-rule:nonzero;stroke:none;stroke-width:0.264583"
       d="m 6.4275932,3.9423322 0.01654,0.016536 0.0031,0.3214275 c 0.0021,0.3141927 0.0041,0.3234944 0.02584,0.3782714 0.03824,0.098185 0.08372,0.1529622 0.30179,0.3741375 l 0.206708,0.208773 h 0.380338 V 4.5510805 l -0.02274,-0.071313 c -0.03824,-0.1198894 -0.121956,-0.2408121 -0.31936,-0.4578533 -0.01447,-0.015503 -0.05684,-0.057878 -0.07751,-0.079582 z m 0,0"
       id="path11" />
    <path
       style="fill:#810200;fill-opacity:1;fill-rule:nonzero;stroke:none;stroke-width:0.264583"
       d="m 3.0117812,7.1493717 c -0.01447,0.00517 -0.02894,0.011369 -0.04134,0.020672 -0.06718,0.048576 -0.08165,0.094051 -0.08165,0.2470131 v 0.1250571 h 3.246314 l -0.0041,-0.1260906 c -0.0041,-0.1085205 -0.0072,-0.1322917 -0.02481,-0.1705322 -0.01964,-0.047542 -0.06098,-0.083716 -0.110587,-0.096118 z m 0,0"
       id="path12" />
  </g>
</svg>
