<?xml version="1.0" encoding="UTF-8" standalone="no"?>
<!-- Created with Inkscape (http://www.inkscape.org/) -->

<svg
   width="8.2710037mm"
   height="8.2710037mm"
   viewBox="0 0 8.2710037 8.2710037"
   version="1.1"
   id="svg1"
   xmlns="http://www.w3.org/2000/svg"
   xmlns:svg="http://www.w3.org/2000/svg">
  <defs
     id="defs1" />
  <g
     id="layer1"
     transform="translate(-123.29584,-119.85624)">
    <circle
       style="display:inline;fill:#ffffff;stroke-width:0.264583;stroke-linecap:round;stroke-linejoin:round;paint-order:markers fill stroke"
       id="circle3"
       cx="127.43134"
       cy="123.99174"
       r="4.1355019" />
    <g
       id="g2"
       transform="matrix(1.4492319,0,0,1.3528972,-57.277958,-36.116327)"
       style="display:inline">
      <g
         id="g9"
         transform="matrix(0.19794273,0.08002587,-0.08002587,0.19794273,214.94166,-85.902597)"
         style="fill:#800000">
        <path
           d="m -29.053,1034.1 a 4.7329,4.7496 67.987 0 0 4.7414,4.7295 4.7329,4.7496 67.987 0 0 4.4878,-3.2009 l 8.7414,-0.011 1.1315,-2.2614 -1.5618,-0.4803 -7.25e-4,0.5898 h -0.97108 l 0.0011,-0.9271 h -3.0085 l -0.0011,0.8942 h -2.2637 l 0.001,-0.8278 h -2.0396 a 4.7329,4.7496 67.987 0 0 -4.5047,-3.2562 4.7329,4.7496 67.987 0 0 -4.7531,4.741 z m 1.693,0 a 2.052,2.0593 67.987 0 1 2.0608,-2.0556 2.052,2.0593 67.987 0 1 2.0557,2.0505 2.052,2.0593 67.987 0 1 -2.0608,2.0556 2.052,2.0593 67.987 0 1 -2.0557,-2.0505 z"
           fill="#333333"
           style="fill:#800000;paint-order:stroke fill markers"
           id="path6" />
        <path
           d="m -29.24,1033.5 a 4.7329,4.7496 67.987 0 0 4.7414,4.7295 4.7329,4.7496 67.987 0 0 4.4878,-3.2009 l 8.7414,-0.011 1.1315,-2.2614 -1.5618,-0.4803 -7.25e-4,0.5898 h -0.97108 l 0.0011,-0.9271 h -3.0085 l -0.0011,0.8942 h -2.2637 l 0.001,-0.8278 h -2.0396 a 4.7329,4.7496 67.987 0 0 -4.5047,-3.2562 4.7329,4.7496 67.987 0 0 -4.7531,4.741 z m 1.693,0 a 2.052,2.0593 67.987 0 1 2.0608,-2.0556 2.052,2.0593 67.987 0 1 2.0557,2.0505 2.052,2.0593 67.987 0 1 -2.0608,2.0556 2.052,2.0593 67.987 0 1 -2.0557,-2.0505 z"
           fill="#f9f9f9"
           style="fill:#800000;paint-order:stroke fill markers"
           id="path7-8" />
        <rect
           transform="matrix(0.018215,-0.99983,0.99144,0.1306,0,0)"
           x="-1041.9"
           y="-7.1525002"
           width="6.0061002"
           height="1.3483"
           ry="0.66272998"
           fill="#999999"
           style="fill:#800000;paint-order:stroke fill markers"
           id="rect7" />
        <path
           d="m -28.735,1041 a 1.3456,1.3456 0 0 1 -0.90829,1.0639 v 10.426 a 1.3456,1.3456 0 0 1 0.92932,1.0829 h 8.0611 a 1.3456,1.3456 0 0 1 0.82419,-1.1102 l -1e-6,-10.496 a 1.3456,1.3456 0 0 1 -0.81788,-0.9671 z"
           fill="#333333"
           style="fill:#800000;paint-order:stroke fill markers"
           id="path8-6" />
        <path
           d="m -29.755,1040.1 a 1.3456,1.3456 0 0 1 -0.90829,1.0639 v 10.426 a 1.3456,1.3456 0 0 1 0.92932,1.0828 h 8.0611 a 1.3456,1.3456 0 0 1 0.82419,-1.1101 v -10.496 a 1.3456,1.3456 0 0 1 -0.81788,-0.9672 z"
           fill="#ffffff"
           stroke="#000000"
           stroke-linecap="round"
           stroke-width="0.77057"
           style="fill:#800000;paint-order:stroke fill markers"
           id="path9" />
      </g>
      <g
         fill-opacity="0.99608"
         style="font-variant-ligatures:normal;font-variant-caps:normal;font-variant-numeric:normal;font-feature-settings:normal;fill:#ffffff"
         aria-label="M"
         id="g10"
         transform="matrix(0.19794273,0.08002587,-0.08002587,0.19794273,214.94166,-85.902597)">
        <path
           d="m -28.787,1050.3 0.72186,-6.1196 h 0.02155 l 1.6161,5.2577 c 0.22626,0.7434 0.39864,0.8619 0.76496,0.8619 h 0.02155 c 0.36632,0 0.5387,-0.1185 0.76496,-0.8619 l 1.6161,-5.2577 h 0.02155 l 0.72186,6.1196 h 1.0559 l -0.8727,-6.8738 c -0.06464,-0.5172 -0.44174,-0.7973 -0.84038,-0.7973 -0.44174,0 -0.72186,0.1616 -0.93735,0.8835 l -1.5299,5.0746 h -0.02155 l -1.5299,-5.0746 c -0.21548,-0.7219 -0.49561,-0.8835 -0.93735,-0.8835 -0.39864,0 -0.77573,0.2801 -0.84038,0.7973 l -0.8727,6.8738 z"
           fill-opacity="0.99608"
           stroke-width="0.26935"
           style="font-variant-ligatures:normal;font-variant-caps:normal;font-variant-numeric:normal;font-feature-settings:normal;fill:#ffffff"
           id="path10" />
      </g>
    </g>
  </g>
</svg>
