<?xml version="1.0" encoding="UTF-8" standalone="no"?>
<!-- Created with Inkscape (http://www.inkscape.org/) -->

<svg
   width="8.2710037mm"
   height="8.2710037mm"
   viewBox="0 0 8.2710037 8.2710037"
   version="1.1"
   id="svg1"
   xmlns="http://www.w3.org/2000/svg"
   xmlns:svg="http://www.w3.org/2000/svg">
  <defs
     id="defs1">
    <clipPath
       id="clip6">
      <path
         d="M 9,4 H 24 V 24 H 9 Z m 0,0"
         id="path10" />
    </clipPath>
    <clipPath
       id="clip7">
      <path
         d="m 23.023438,12.011719 c 0,6.097656 -4.941407,11.039062 -11.035157,11.039062 -6.097656,0 -11.039062,-4.941406 -11.039062,-11.039062 0,-6.09375 4.941406,-11.035157 11.039062,-11.035157 6.09375,0 11.035157,4.941407 11.035157,11.035157 z m 0,0"
         id="path11" />
    </clipPath>
    <clipPath
       id="clip8">
      <path
         d="M 5,2 H 21 V 22 H 5 Z m 0,0"
         id="path12" />
    </clipPath>
    <clipPath
       id="clip9">
      <path
         d="m 23.023438,12.011719 c 0,6.097656 -4.941407,11.039062 -11.035157,11.039062 -6.097656,0 -11.039062,-4.941406 -11.039062,-11.039062 0,-6.09375 4.941406,-11.035157 11.039062,-11.035157 6.09375,0 11.035157,4.941407 11.035157,11.035157 z m 0,0"
         id="path13" />
    </clipPath>
  </defs>
  <g
     id="g2"
     transform="matrix(1.1482033,0,0,1.1482033,-2.4905157,-2.0753297)">
    <g
       clip-path="url(#clip6)"
       clip-rule="nonzero"
       id="g21"
       transform="matrix(0.37646907,0,0,0.31986353,0.26828498,1.2917361)"
       style="fill:#999999;fill-opacity:1">
      <g
         clip-path="url(#clip7)"
         clip-rule="nonzero"
         id="g20"
         style="fill:#999999;fill-opacity:1">
        <path
           style="fill:#999999;fill-opacity:1;fill-rule:nonzero;stroke:none"
           d="M 9.160156,22.652344 C 9.136719,22.378906 9.125,22.105469 9.128906,21.828125 c 0.859375,-0.214844 1.71875,-0.429687 2.578125,-0.632813 1.410157,-0.34375 2.5625,-0.625 2.566407,-0.625 0,-0.0039 0.04687,-0.320312 0.09766,-0.707031 0.05078,-0.382812 0.09766,-0.707031 0.101562,-0.714843 0,-0.0078 0.726563,-0.234376 1.617188,-0.5 l 1.613281,-0.484376 0.398437,-1.210937 -0.695312,-1.5625 c -0.378906,-0.863281 -0.691406,-1.570313 -0.691406,-1.582031 0,-0.0078 0.328125,-0.941406 0.730468,-2.066406 l 0.730469,-2.050782 0.808594,-0.339844 c 0.445313,-0.1875 0.816406,-0.347656 0.828125,-0.355468 0.01563,-0.011719 0.207031,-0.847656 0.507812,-2.210938 0.269532,-1.207031 0.492188,-2.207031 0.5,-2.222656 0.0078,-0.023438 0.101563,-0.00391 0.792969,0.160156 0.429688,0.097656 0.796875,0.1875 0.824219,0.191406 l 0.04297,0.011719 0.808593,6.824219 -0.04687,2.066406 -0.726563,2.429688 -1.414063,2.550781 -3.652343,3.46875 -0.05859,0.08594 C 17.3125,22.46875 17.203125,22.5625 17.074219,22.625 l -0.101563,0.05078 -6.214844,0.503907 -1.589843,-0.496094 -0.00391,-0.03516 z m 0,0"
           id="path19" />
      </g>
    </g>
    <g
       clip-path="url(#clip8)"
       clip-rule="nonzero"
       id="g23"
       transform="matrix(0.34884804,0,0,0.31986353,0.58873862,1.2917361)"
       style="fill:#00008b;fill-opacity:1">
      <g
         clip-path="url(#clip9)"
         clip-rule="nonzero"
         id="g22"
         style="fill:#00008b;fill-opacity:1">
        <path
           style="fill:#00008b;fill-opacity:1;fill-rule:nonzero;stroke:none"
           d="M 7.199219,5.894531 C 6.769531,5.839844 6.390625,5.625 6.125,5.292969 5.863281,4.953125 5.742188,4.523438 5.792969,4.09375 5.941406,3.007812 7.101562,2.378906 8.082031,2.855469 8.351562,2.984375 8.5625,3.171875 8.726562,3.421875 9.066406,3.941406 9.074219,4.613281 8.75,5.144531 8.421875,5.671875 7.816406,5.964844 7.199219,5.894531 Z m 5.011719,3.832031 c 0.07031,-0.050781 0.125,-0.097656 0.117187,-0.105468 C 12.28125,9.605469 12.238281,9.59375 12.191406,9.582031 12.054688,9.546875 11.929688,9.484375 11.824219,9.390625 11.539062,9.167969 11.25,8.953125 10.949219,8.746094 c 0,0.00391 0,0.015625 0.01172,0.027344 0.01172,0.00781 0.164062,0.285156 0.347656,0.605468 l 0.371094,0.652344 0.03516,0.06641 0.183594,-0.136718 0.3125,-0.230469 z m -1.417969,2.492188 c 0.878906,-0.359375 1.605469,-0.664062 1.609375,-0.667969 -0.02344,-0.08984 -0.05469,-0.179687 -0.09375,-0.265625 -0.08594,-0.207031 -0.113282,-0.257812 -0.136719,-0.257812 -0.02734,0.0039 -3.191406,1.300781 -3.210937,1.316406 -0.00391,0.0078 0.035156,0.117188 0.089843,0.246094 0.050781,0.128906 0.097657,0.246094 0.105469,0.261718 0.00391,0.01563 0.015625,0.02734 0.023438,0.02734 0.00391,0 0.726562,-0.296875 1.609374,-0.660156 z m -2.65625,9.359375 C 7.71875,21.5 7.382812,21.179688 7.285156,20.765625 7.246094,20.570312 7.257812,20.371094 7.3125,20.179688 7.332031,20.121094 7.730469,19.261719 8.191406,18.265625 l 0.839844,-1.804687 0.011719,-0.1875 C 9.097656,15.445312 9.101562,13.71875 9.050781,13.195312 9.011719,12.773438 8.929688,12.3125 8.886719,12.261719 8.871094,12.234375 8.863281,12.203125 8.863281,12.171875 8.855469,12.089844 8.703125,11.636719 8.566406,11.289062 8.449219,10.992188 8.226562,10.492188 7.882812,9.746094 7.269531,8.433594 7.085938,7.894531 7.066406,7.378906 7.050781,7.074219 7.078125,6.964844 7.199219,6.804688 7.359375,6.589844 7.695312,6.292969 8.023438,6.078125 8.621094,5.683594 9.203125,5.457031 9.625,5.457031 c 0.285156,0 0.660156,0.128907 0.957031,0.328125 0.132813,0.089844 0.164063,0.121094 1.472657,1.402344 0.472656,0.464844 0.863281,0.847656 0.867187,0.847656 0.0078,0 0.261719,0.074219 0.566406,0.164063 0.304688,0.089843 0.5625,0.15625 0.574219,0.152343 0.0078,-0.00781 1.347656,-1 2.976562,-2.203124 1.625,-1.207032 2.960938,-2.1875 2.96875,-2.179688 0.0625,0.070312 0.328126,0.445312 0.324219,0.457031 -0.0039,0.00391 -1.257812,0.9375 -2.789062,2.070313 -0.929688,0.6875 -1.855469,1.375 -2.78125,2.070312 0,0.00391 0.179687,0.058594 0.394531,0.125 0.21875,0.0625 0.4375,0.132813 0.488281,0.160156 0.1875,0.101563 0.332031,0.273438 0.402344,0.476563 0.02734,0.082031 0.03516,0.140625 0.03516,0.269531 0.0078,0.136719 -0.02344,0.277344 -0.09375,0.398438 l -0.03516,0.0625 0.601563,3.320312 c 0.328124,1.824219 0.59375,3.320313 0.589843,3.324219 -0.1875,0.04297 -0.375,0.07813 -0.5625,0.105469 -0.0039,-0.0039 -1.148437,-6.359375 -1.148437,-6.371094 0,-0.0039 -0.07813,-0.0078 -0.175782,-0.0078 -0.109374,0.0039 -0.222656,-0.01172 -0.328124,-0.04688 l -0.15625,-0.05078 -0.992188,0.53125 -1.105469,0.59375 -0.113281,0.05859 -0.136719,-0.25 c -0.125,-0.230469 -0.132812,-0.253906 -0.109375,-0.273437 0.01563,-0.0078 0.394532,-0.214844 0.839844,-0.453126 0.445312,-0.238281 0.808594,-0.4375 0.804688,-0.4375 -0.01563,-0.01562 -0.910157,-0.265624 -0.921876,-0.261718 -0.03125,0.019531 -0.984374,0.730468 -1.007812,0.75 -0.01953,0.01563 0.04687,0.140625 0.410156,0.78125 l 0.433594,0.76562 1.246094,0.550781 c 0.683594,0.300781 1.292968,0.582031 1.355468,0.621094 0.207032,0.125 0.382813,0.347656 0.457032,0.582031 0.01953,0.05469 0.160156,0.898437 0.316406,1.890625 0.246094,1.554688 0.28125,1.804688 0.273438,1.90625 -0.0039,0.148438 -0.04297,0.292969 -0.113282,0.421875 -0.04687,0.105469 -0.113281,0.199219 -0.199218,0.273437 -0.320313,0.332032 -0.824219,0.414063 -1.234376,0.203126 -0.238281,-0.117188 -0.433593,-0.328126 -0.523437,-0.570313 -0.02734,-0.07031 -0.09766,-0.496094 -0.265625,-1.566406 l -0.226562,-1.46875 -1.390626,-0.609375 c -0.765624,-0.332032 -1.390624,-0.605469 -1.394531,-0.605469 -0.0039,0 -0.0039,0.699219 -0.0039,1.550781 0.0078,1.441406 0.0039,1.558594 -0.01953,1.652344 -0.04297,0.148438 -1.871094,4.058594 -1.957032,4.179688 -0.242187,0.332031 -0.648437,0.496093 -1.050781,0.425781 z m 0,0"
           id="path21" />
      </g>
    </g>
  </g>
</svg>
