<?xml version="1.0" encoding="UTF-8" standalone="no"?>
<!-- Created with Inkscape (http://www.inkscape.org/) -->

<svg
   width="8.2710037mm"
   height="8.2710037mm"
   viewBox="0 0 8.2710037 8.2710037"
   version="1.1"
   id="svg1"
   xml:space="preserve"
   sodipodi:docname="lyr_diepost_filiale.svg"
   inkscape:version="1.4 (1:1.4+202410161351+e7c3feb100)"
   xmlns:inkscape="http://www.inkscape.org/namespaces/inkscape"
   xmlns:sodipodi="http://sodipodi.sourceforge.net/DTD/sodipodi-0.dtd"
   xmlns="http://www.w3.org/2000/svg"
   xmlns:svg="http://www.w3.org/2000/svg"><sodipodi:namedview
     id="namedview1"
     pagecolor="#ffffff"
     bordercolor="#000000"
     borderopacity="0.25"
     inkscape:showpageshadow="2"
     inkscape:pageopacity="0.0"
     inkscape:pagecheckerboard="0"
     inkscape:deskcolor="#d1d1d1"
     inkscape:document-units="mm"
     inkscape:zoom="25.27152"
     inkscape:cx="15.669813"
     inkscape:cy="15.630243"
     inkscape:window-width="1920"
     inkscape:window-height="995"
     inkscape:window-x="0"
     inkscape:window-y="0"
     inkscape:window-maximized="1"
     inkscape:current-layer="svg1" /><defs
     id="defs1"><clipPath
       clipPathUnits="userSpaceOnUse"
       id="clipPath1926"><path
         d="M 0,5504.926 H 5022.134 V 0 H 0 Z"
         transform="translate(-2694.5616,-1979.5664)"
         id="path1926" /></clipPath><clipPath
       clipPathUnits="userSpaceOnUse"
       id="clipPath1928"><path
         d="M 0,5504.926 H 5022.134 V 0 H 0 Z"
         transform="translate(-2833.5519,-1913.1953)"
         id="path1928" /></clipPath><clipPath
       clipPathUnits="userSpaceOnUse"
       id="clipPath1930"><path
         d="M 0,5504.926 H 5022.134 V 0 H 0 Z"
         transform="translate(-2699.5948,-1856.6036)"
         id="path1930" /></clipPath><clipPath
       clipPathUnits="userSpaceOnUse"
       id="clipPath1932"><path
         d="M 0,5504.926 H 5022.134 V 0 H 0 Z"
         transform="translate(-2813.3701,-1909.6953)"
         id="path1932" /></clipPath><clipPath
       clipPathUnits="userSpaceOnUse"
       id="clipPath1932-7"><path
         d="M 0,5504.926 H 5022.134 V 0 H 0 Z"
         transform="translate(-2813.3701,-1909.6953)"
         id="path1932-0" /></clipPath></defs><g
     id="g10"
     transform="matrix(1.1302779,0,0,1.1302779,-2.1092441,-1.393848)"><path
       style="fill:#e10000;fill-opacity:1;stroke:#e10000;stroke-width:0.087797;stroke-opacity:1"
       d="M 3.0314348,7.952626 C 2.9989208,7.920112 2.9949318,7.7320562 2.9949318,6.2321014 c 0,-1.1164153 0.00808,-1.6991659 0.024043,-1.7289537 0.023521,-0.043951 0.073591,-0.044931 2.298923,-0.044931 2.2253277,0 2.275399,9.869e-4 2.298922,0.044931 0.015946,0.029792 0.024051,0.6125384 0.024051,1.7289537 0,1.4999548 -0.00396,1.6880108 -0.036503,1.7205246 -0.032686,0.032686 -0.272019,0.036503 -2.286466,0.036503 -2.0144477,0 -2.2537834,-0.00387 -2.286467,-0.036503 z M 7.1872463,7.7367946 C 7.111768,7.665512 5.7500433,6.5134024 5.7184586,6.4941029 5.6997616,6.4826669 5.6264156,6.5310829 5.5144561,6.6287251 5.4183101,6.7125781 5.329861,6.7811845 5.3179017,6.7811845 c -0.011954,0 -0.099653,-0.067948 -0.1948734,-0.1509944 -0.09522,-0.083042 -0.1787247,-0.1509926 -0.1855645,-0.1509926 -0.01192,0 -1.394395,1.1674235 -1.4889076,1.2572977 -0.044823,0.042622 -0.00422,0.043566 1.8693455,0.043566 1.8689807,0 1.9140548,-0.00108 1.8693446,-0.043269 z M 4.0306993,6.9520676 4.7865017,6.3089166 4.7327928,6.2581006 C 4.7032519,6.23015 4.3527177,5.8973691 3.9538266,5.5185879 3.5549355,5.1398057 3.2230404,4.8298938 3.2162832,4.8298938 c -0.00673,0 -0.012283,0.6283195 -0.012283,1.3962671 0,1.2421616 0.00396,1.394766 0.035453,1.3826638 0.019496,-0.00746 0.3755595,-0.3030207 0.7912513,-0.6567544 z M 7.4318036,6.2236732 c 0,-0.7665802 -0.00557,-1.3937821 -0.012283,-1.3937821 -0.00673,0 -0.3386523,0.309912 -0.7375435,0.688694 -0.3988897,0.3787813 -0.7494634,0.7116008 -0.77905,0.7395991 l -0.053798,0.050906 0.7693339,0.6541831 c 0.4231337,0.3598006 0.7792356,0.654183 0.7913377,0.654183 0.013613,0 0.022002,-0.5318492 0.022002,-1.3937813 z M 6.2959666,5.5848561 7.2510232,4.6788977 6.284462,4.672878 c -0.5316083,-0.00332 -1.4017,-0.00332 -1.9335375,0 l -0.9669763,0.00601 0.960874,0.9118639 c 0.528481,0.5015292 0.9687975,0.9092098 0.9784809,0.905962 0.00969,-0.00323 0.4473828,-0.413587 0.9726635,-0.9118641 z"
       id="path4" /><path
       style="fill:#e10000;fill-opacity:1;stroke-width:0.174278"
       d="M 7.0325368,3.8146413 C 6.1490737,3.3076368 5.4166599,2.8928151 5.4049501,2.8928151 c -0.019626,0 -2.3714408,1.2945521 -2.8181995,1.5512753 -0.1077851,0.061936 -0.1959728,0.1051438 -0.1959728,0.096016 0,-0.021279 2.9529929,-2.7730239 2.9929543,-2.7889824 0.016483,-0.00658 0.392501,0.3193359 0.8355929,0.7242642 L 7.0249447,3.2116209 7.0386698,2.9369402 7.052395,2.6622595 H 7.3499174 7.647439 l 1.434e-4,0.5648611 1.434e-4,0.5648612 0.5070794,0.4573517 C 8.6099818,4.6598735 8.6896098,4.7382122 8.650356,4.7368634 8.6440528,4.7366369 7.9159944,4.3216456 7.0325313,3.8146413 Z"
       id="path7" /></g></svg>
