<?xml version="1.0" encoding="UTF-8" standalone="no"?>
<!-- Created with Inkscape (http://www.inkscape.org/) -->

<svg
   width="8.2710037mm"
   height="8.2710037mm"
   viewBox="0 0 8.2710037 8.2710037"
   version="1.1"
   id="svg1"
   xmlns="http://www.w3.org/2000/svg"
   xmlns:svg="http://www.w3.org/2000/svg">
  <defs
     id="defs1" />
  <g
     id="layer1"
     transform="translate(-123.29584,-119.85624)">
    <circle
       style="display:inline;fill:#ffffff;stroke-width:0.264583;stroke-linecap:round;stroke-linejoin:round;paint-order:markers fill stroke"
       id="circle3"
       cx="127.43134"
       cy="123.99174"
       r="4.1355019" />
    <g
       id="g18"
       transform="matrix(0.4428754,0,0,0.41252072,121.70581,119.21053)"
       style="display:inline;fill:#800000">
      <path
         style="fill:#800000;fill-opacity:1;fill-rule:nonzero;stroke:none"
         d="M 8.484375,21.613281 C 8.253906,21.578125 7.9375,21.335938 7.800781,21.097656 7.585938,20.710938 7.585938,20.703125 8.421875,17.558594 8.832031,16.015625 9.175781,14.730469 9.1875,14.695312 c 0.011719,-0.03906 0.058594,0 0.140625,0.105469 0.199219,0.273438 0.503906,0.535157 1.066406,0.921875 0.296875,0.199219 0.539063,0.382813 0.539063,0.402344 0,0.136719 -1.289063,4.890625 -1.355469,5 -0.136719,0.214844 -0.34375,0.378906 -0.589844,0.453125 -0.160156,0.05859 -0.339843,0.07031 -0.507812,0.03516 z M 15.125,21.601562 c -0.324219,-0.08594 -0.65625,-0.386718 -0.738281,-0.675781 -0.121094,-0.636719 -0.234375,-1.277343 -0.335938,-1.917969 -0.164062,-0.976562 -0.304687,-1.8125 -0.316406,-1.863281 -0.01563,-0.06641 -0.523437,-0.433593 -1.738281,-1.257812 C 10.96875,15.191406 10.203125,14.640625 10.085938,14.519531 9.738281,14.15625 9.542969,13.605469 9.605469,13.15625 c 0.054687,-0.410156 1.410156,-5.632812 1.5,-5.777344 0.222656,-0.363281 0.652343,-0.609375 1.058593,-0.609375 0.308594,0 1.714844,0.203125 1.910157,0.273438 0.328125,0.121093 0.488281,0.316406 1.429687,1.746093 l 0.917969,1.390626 h 2.175781 c 0.316406,0.01172 0.859375,0.109374 0.929688,0.660156 -0.03906,0.878906 -0.105469,1.179687 -0.105469,1.179687 l -0.441406,0.21875 c 0,0 -0.589844,-0.01953 -0.589844,-0.02344 0,0 -0.621094,-0.01563 -1.382813,-0.01953 -1.324218,-0.01562 -1.386718,-0.01953 -1.546874,-0.105468 -0.246094,-0.128906 -0.34375,-0.253906 -1.007813,-1.269532 -0.320313,-0.492187 -0.589844,-0.886718 -0.597656,-0.882812 -0.01563,0.019531 -0.859375,3.941406 -0.859375,4.003906 0,0.03125 0.535156,0.4375 1.1875,0.898438 0.648437,0.460937 1.226562,0.890625 1.277344,0.953125 0.05469,0.0625 0.128906,0.195312 0.164062,0.296875 0.113281,0.308594 0.789062,4.46875 0.761719,4.664062 -0.04687,0.277344 -0.261719,0.589844 -0.503907,0.722656 -0.226562,0.125 -0.550781,0.179688 -0.761718,0.125 z M 7.480469,12.75 c -0.5,-0.117188 -0.90625,-0.238281 -0.96875,-0.285156 C 6.441406,12.402344 6.382812,12.324219 6.347656,12.234375 6.296875,12.09375 6.320312,11.972656 6.785156,10.007812 7.285156,7.894531 7.375,7.589844 7.613281,7.140625 8.058594,6.308594 8.886719,5.980469 9.886719,6.242188 c 0.257812,0.070312 0.402343,0.191406 0.460937,0.398437 0.04297,0.132813 -0.03125,0.460937 -0.691406,3.09375 -0.496094,1.984375 -0.761719,2.96875 -0.8125,3.027344 -0.089844,0.09766 -0.3125,0.203125 -0.425781,0.199219 -0.039063,0 -0.460938,-0.09766 -0.9375,-0.210938 z m 5.941406,-6.640625 c -1.027344,-0.195313 -1.691406,-0.96875 -1.699219,-1.972656 -0.01172,-0.894531 0.496094,-1.617188 1.34375,-1.921875 0.351563,-0.125 0.953125,-0.125 1.300782,0 0.835937,0.304687 1.347656,1.023437 1.347656,1.902344 0,0.878906 -0.523438,1.609374 -1.351563,1.894531 -0.25,0.085937 -0.742187,0.136719 -0.941406,0.101562 z m 0,0"
         id="path13" />
      <path
         style="fill:#800000;fill-opacity:1;fill-rule:evenodd;stroke:none"
         d="m 11.945312,3.324219 c 0,0 -0.847656,-0.734375 -2.085937,-0.582031 C 8.621094,2.894531 7.742188,3.75 7.46875,4.121094 7.191406,4.492188 7.101562,5.390625 7.125,5.699219 c 0.019531,0.308593 0.121094,0.914062 0.441406,1.234375 0.320313,0.320312 0.390625,0.355468 0.390625,0.355468 0,0 -0.359375,-0.546874 -0.269531,-0.90625 0.089844,-0.363281 0.617188,-1.191406 1.023438,-1.46875 0.40625,-0.277343 1.28125,-0.761718 1.902343,-0.949218 0.617188,-0.1875 1.332031,-0.640625 1.332031,-0.640625 z m 0,0"
         id="path14" />
      <path
         style="fill:#800000;fill-opacity:1;fill-rule:evenodd;stroke:none"
         d="m 12.066406,3.273438 c 0,0 -0.355468,-1.046876 -1.5,-1.5 C 9.425781,1.320312 8.234375,1.65625 7.808594,1.851562 7.382812,2.050781 6.847656,2.796875 6.707031,3.078125 c -0.140625,0.285156 -0.359375,0.863281 -0.25,1.300781 0.109375,0.433594 0.152344,0.5 0.152344,0.5 0,0 -0.027344,-0.660156 0.234375,-0.933594 0.257812,-0.269531 1.140625,-0.753906 1.628906,-0.804687 0.492188,-0.054687 1.492188,-0.0625 2.117188,0.066406 0.628906,0.132813 1.476562,0.066407 1.476562,0.066407 z m 0,0"
         id="path15" />
      <path
         style="fill:#800000;fill-opacity:0.996078;fill-rule:nonzero;stroke:none"
         d="m 14.6875,10.578125 c 0,0.664063 -0.539062,1.203125 -1.203125,1.203125 -0.664063,0 -1.203125,-0.539062 -1.203125,-1.203125 0,-0.664063 0.539062,-1.203125 1.203125,-1.203125 0.664063,0 1.203125,0.539062 1.203125,1.203125 z m 0,0"
         id="path16" />
      <path
         style="fill:#800000;fill-opacity:0.996078;fill-rule:nonzero;stroke:none"
         d="m 11.96875,13.375 c 0,-0.742188 -0.644531,-1.34375 -1.4375,-1.34375 -0.792969,0 -1.4375,0.601562 -1.4375,1.34375 0,0.742188 0.644531,1.34375 1.4375,1.34375 0.792969,0 1.4375,-0.601562 1.4375,-1.34375 z m 0,0"
         id="path17" />
      <path
         style="fill:#800000;fill-opacity:1;fill-rule:evenodd;stroke:none"
         d="m 12.121094,5.105469 c 0,0 0.695312,-0.265625 1.234375,-0.78125 0.535156,-0.515625 1.023437,-1.625 1.023437,-1.625 l 1.023438,0.027343 c 0,0 0.160156,-0.339843 -0.519532,-0.558593 -0.683593,-0.21875 -1.886718,-0.3125 -2.261718,-0.078125 -0.375,0.234375 -0.828125,0.671875 -0.941406,1.3125 -0.113282,0.636718 -0.09766,1.386718 -0.09766,1.386718 0,0 0.160157,0.300782 -0.09766,0.488282 -0.261719,0.1875 0.08203,0.203125 0.08203,0.203125 z m 0,0"
         id="path18" />
    </g>
  </g>
</svg>
