<?xml version="1.0" encoding="UTF-8" standalone="no"?>
<!-- Created with Inkscape (http://www.inkscape.org/) -->

<svg
   width="8.2710037mm"
   height="8.2710037mm"
   viewBox="0 0 8.2710037 8.2710037"
   version="1.1"
   id="svg1"
   sodipodi:docname="lyr_kindergarten.svg"
   inkscape:version="1.4 (1:1.4+202410161351+e7c3feb100)"
   xmlns:inkscape="http://www.inkscape.org/namespaces/inkscape"
   xmlns:sodipodi="http://sodipodi.sourceforge.net/DTD/sodipodi-0.dtd"
   xmlns="http://www.w3.org/2000/svg"
   xmlns:svg="http://www.w3.org/2000/svg">
  <sodipodi:namedview
     id="namedview1"
     pagecolor="#ffffff"
     bordercolor="#000000"
     borderopacity="0.25"
     inkscape:showpageshadow="2"
     inkscape:pageopacity="0.0"
     inkscape:pagecheckerboard="0"
     inkscape:deskcolor="#d1d1d1"
     inkscape:document-units="mm"
     inkscape:zoom="25.27152"
     inkscape:cx="15.630243"
     inkscape:cy="15.630243"
     inkscape:window-width="1920"
     inkscape:window-height="995"
     inkscape:window-x="0"
     inkscape:window-y="0"
     inkscape:window-maximized="1"
     inkscape:current-layer="svg1" />
  <defs
     id="defs1" />
  <path
     style="fill:#00008b;fill-opacity:1;stroke-width:0.208884"
     d="M 1.9242141,6.8851424 C 1.8441777,6.8385303 1.8274908,6.7482645 1.8274908,6.3617844 V 5.8947614 H 1.6727437 c -0.2688471,0 -0.2873883,-0.063905 -0.2873883,-0.990563 V 4.046278 L 1.0109148,4.4178485 C 0.61478395,4.8109439 0.44115825,4.87672 0.33301935,4.6746609 0.27796905,4.5717985 0.33617735,4.4944817 0.89450583,3.9285554 1.7391981,3.0724098 1.8274908,3.0817012 1.8274908,4.0267339 v 0.5968836 h 0.5803044 0.5803056 l 7.706e-4,-0.5112198 c 8.741e-4,-0.6117154 0.030847,-0.7449611 0.1778688,-0.7916253 0.088449,-0.028075 0.2182659,0.071037 0.6296046,0.4806652 L 4.3145274,4.3174661 4.8327114,3.8014376 C 5.2460471,3.38982 5.373614,3.2926194 5.4631775,3.3210459 5.5249355,3.3406469 5.586908,3.3868229 5.600908,3.4236633 5.614904,3.4605043 5.555761,3.9756121 5.4694808,4.5683525 5.3832038,5.1610918 5.3118687,5.6522773 5.3109693,5.6598767 c -8.741e-4,0.00758 0.3216792,0.01382 0.7168387,0.01382 0.6473134,0 0.7184986,-0.0096 0.7187373,-0.096723 1.453e-4,-0.053193 -0.064853,-0.550863 -0.1444482,-1.1059286 -0.1512747,-1.054978 -0.1428895,-1.173839 0.082803,-1.173839 0.049985,0 0.3600248,0.269969 0.6889636,0.5999319 C 7.851509,4.3762683 7.9681686,4.5237218 7.9532256,4.6294277 7.9404416,4.7198721 7.8928066,4.7676818 7.8028099,4.7804085 7.7033834,4.7944679 7.5916457,4.7204065 7.3468563,4.4781688 6.9646534,4.0999534 6.9744659,4.0688746 7.1337834,5.153006 7.2613325,6.0209577 7.2501494,6.0605603 6.8776744,6.0605603 H 6.6357399 v 0.3552891 c 0,0.249299 -0.025908,0.3811961 -0.086845,0.4421367 C 6.4461461,6.9607349 6.4387563,6.9616191 6.3005078,6.8876208 6.2103785,6.8393792 6.1936032,6.7694484 6.1936032,6.4418132 V 6.0532211 L 6.0416174,6.0707038 C 5.8953387,6.0875296 5.8885957,6.1024985 5.8620003,6.4693864 5.8421301,6.7434757 5.8084911,6.8668033 5.7422867,6.9083184 5.5749771,7.0132272 5.4815987,6.8617568 5.4637345,6.4564828 L 5.4475024,6.0881915 5.1711671,6.0605653 C 4.8246155,6.0259031 4.8251069,6.0285558 4.9748063,5.0042426 5.0378779,4.57266 5.0815342,4.2115995 5.0718201,4.201884 5.0620935,4.19217 4.9196752,4.3203899 4.7553125,4.4868204 4.559524,4.6850722 4.4110827,4.7894227 4.3248566,4.7894227 c -0.087312,0 -0.2600362,-0.1239832 -0.5131084,-0.3683035 L 3.4302603,4.0528133 v 0.8335538 c 0,0.4584535 -0.015095,0.872892 -0.033551,0.9209745 -0.021462,0.055947 -0.1010561,0.087426 -0.221069,0.087426 H 2.9881198 v 0.4587175 c 0,0.4499913 -0.047939,0.5913574 -0.200542,0.5913574 -0.1737293,0 -0.241596,-0.1718825 -0.241596,-0.6118857 0,-0.430557 -0.0024,-0.4381892 -0.1381677,-0.4381892 -0.1357599,0 -0.1381676,0.00758 -0.1381676,0.4381892 0,0.3246641 -0.022498,0.4606906 -0.086845,0.5250381 C 2.082137,6.9586595 2.0552876,6.961489 1.9242305,6.8851539 Z M 2.9881059,5.2868232 V 5.0657542 H 2.4078002 1.8274959 v 0.221069 0.2210677 H 2.4078002 2.9881059 Z M 1.9283713,2.8842082 C 1.6839419,2.7181138 1.5211621,2.3428711 1.5680913,2.0536824 1.6404979,1.607517 2.1138142,1.2622139 2.551603,1.3361776 3.3186136,1.4657635 3.5254791,2.5074857 2.8642591,2.9106363 2.6013302,3.0709466 2.185919,3.059216 1.9283713,2.8842082 Z M 2.7255862,2.4829633 C 2.8806947,2.3431817 2.8538567,2.0036386 2.6766877,1.8642746 2.4835152,1.7123249 2.2947425,1.7196005 2.1289575,1.8853864 1.7259168,2.2884275 2.3016194,2.8650422 2.7255913,2.482965 Z m 2.8733841,0.427673 C 5.0942344,2.6028948 5.0581435,1.9068787 5.5264878,1.5127922 c 0.3982216,-0.3350811 1.017838,-0.192562 1.261229,0.2900976 0.06839,0.1356276 0.1243495,0.3080845 0.1243495,0.3832373 0,0.2227548 -0.2154591,0.6011947 -0.4111314,0.7221269 C 6.259613,3.0573983 5.8414872,3.0585028 5.5989665,2.910614 Z M 6.2449118,2.5531461 C 6.5102725,2.4159221 6.5521198,2.1032281 6.3342707,1.8853848 6.163664,1.714778 5.9665971,1.7125891 5.7729585,1.8791446 5.5267733,2.0909035 5.5870027,2.4595241 5.8877077,2.5814096 6.046252,2.6456736 6.0695354,2.6438306 6.2449106,2.5531406 Z"
     id="path2" />
</svg>
