<?xml version="1.0" encoding="UTF-8" standalone="no"?>
<!-- Created with Inkscape (http://www.inkscape.org/) -->

<svg
   width="8.2710037mm"
   height="8.2710037mm"
   viewBox="0 0 8.2710037 8.2710037"
   version="1.1"
   id="svg1"
   xmlns="http://www.w3.org/2000/svg"
   xmlns:svg="http://www.w3.org/2000/svg">
  <defs
     id="defs1" />
  <g
     id="layer1"
     transform="translate(-123.29584,-119.85624)">
    <g
       id="g2"
       transform="matrix(1.6097029,0,0,1.6097029,105.93335,108.05765)">
      <path
         style="fill:#5e9090;fill-opacity:1;fill-rule:nonzero;stroke:none;stroke-width:0.264583"
         d="m 12.64419,12.00857 c -0.445451,-0.595313 -0.445451,-1.575098 0,-2.169377 l 0.08475,-0.1126546 h 2.213819 l 0.08475,0.1126546 c 0.445451,0.594279 0.445451,1.574064 0,2.169377 l -0.08475,0.112654 H 12.72894 Z m 1.018025,-1.501717 v -0.434082 h -0.792716 l -0.08785,0.182934 c -0.08682,0.178801 -0.1757,0.59738 -0.139526,0.655257 0.0093,0.01654 0.243913,0.02894 0.518831,0.02894 h 0.501261 z m 1.368392,0.404109 c 0.03514,-0.05788 -0.05374,-0.476456 -0.139526,-0.65629 l -0.08888,-0.181901 h -0.792717 v 0.868164 h 0.501261 c 0.274919,0 0.50953,-0.01344 0.519865,-0.02997 z m -1.882055,-1.523421 0.01033,-0.1643308 0.295589,-0.010335 c 0.330729,-0.010336 0.381372,-0.043408 0.381372,-0.2418459 0,-0.1302245 -0.06511,-0.4196125 -0.100252,-0.4402831 -0.01137,-0.00723 -0.396875,0.078548 -0.853695,0.1912028 -0.457853,0.1126548 -1.755965,0.4351157 -1.769401,0.4351157 l 0.181901,-0.3782716 c 0.01137,-0.010335 0.941545,-0.2408121 1.278475,-0.3234944 0.335897,-0.081649 0.619084,-0.1560629 0.628386,-0.1653646 0.0083,-0.00827 -10e-4,-0.048576 -0.02274,-0.08785 -0.08268,-0.1539957 0.05271,-0.350366 0.242879,-0.350366 0.108521,0 0.231511,0.1219562 0.247014,0.2449462 0.01137,0.082682 0.02067,0.08785 0.125057,0.059945 0.09819,-0.025838 0.10852,-0.039274 0.07855,-0.096118 -0.0217,-0.043408 -0.03411,-0.09095 -0.03617,-0.1384927 0,-0.1023194 0.151929,-0.2439128 0.260449,-0.2439128 0.113689,0 0.26045,0.1436603 0.26045,0.254248 v 0.08475 l 0.659391,-0.1653646 0.24908,-0.055811 0.165365,0.099219 0.167432,0.138493 c -0.179834,0.048576 -0.223242,0.067179 -0.676961,0.1798339 -0.45372,0.1116211 -0.828891,0.2077394 -0.835092,0.2118733 -0.0052,0.00517 0.0124,0.1240234 0.03927,0.2645833 0.02791,0.1405599 0.04341,0.3131593 0.03411,0.3834392 l -0.01757,0.1281576 0.37207,0.020671 0.02067,0.3307291 h -1.396298 z m 0,0"
         id="path13" />
      <path
         style="fill:#006000;fill-opacity:1;fill-rule:nonzero;stroke:none;stroke-width:0.264583"
         d="m 13.683919,8.0852949 c 0,0.1529623 -0.124023,0.2780194 -0.278019,0.2780194 -0.153995,0 -0.278019,-0.1250571 -0.278019,-0.2780194 0,-0.1539957 0.124024,-0.2790526 0.278019,-0.2790526 0.153996,0 0.278019,0.1250569 0.278019,0.2790526 z m 0,0"
         id="path14" />
      <path
         style="fill:#006000;fill-opacity:1;fill-rule:nonzero;stroke:none;stroke-width:0.264583"
         d="m 14.361914,7.9395674 c 0,0.1477947 -0.118855,0.2666506 -0.26665,0.2666506 -0.146761,0 -0.26665,-0.1188559 -0.26665,-0.2666506 0,-0.1467609 0.119889,-0.2666505 0.26665,-0.2666505 0.147795,0 0.26665,0.1198896 0.26665,0.2666505 z m 0,0"
         id="path15" />
      <path
         style="fill:#006000;fill-opacity:1;fill-rule:evenodd;stroke:none;stroke-width:0.264583"
         d="m 12.331031,11.223088 c 0,0 1.00769,0.07235 1.512052,0.06821 0.500228,-0.0031 1.49965,-0.08992 1.49965,-0.08992 0,0 -0.04031,0.227376 -0.07338,0.337964 -0.08785,0.288354 -0.317294,0.608748 -0.324528,0.583943 h -2.218986 c 0,0 -0.28112,-0.371036 -0.33383,-0.596345 -0.05168,-0.224276 -0.06098,-0.303858 -0.06098,-0.303858 z m 0,0"
         id="path16" />
    </g>
  </g>
</svg>
