<?xml version="1.0" encoding="UTF-8" standalone="no"?>
<!-- Created with Inkscape (http://www.inkscape.org/) -->

<svg
   width="8.2710037mm"
   height="8.2710037mm"
   viewBox="0 0 8.2710037 8.2710037"
   version="1.1"
   id="svg1"
   xmlns="http://www.w3.org/2000/svg"
   xmlns:svg="http://www.w3.org/2000/svg">
  <defs
     id="defs1" />
  <g
     id="layer1"
     transform="translate(-123.29584,-119.85624)">
    <g
       id="g5"
       transform="matrix(0.91692617,0,0,0.91692617,125.84256,127.86111)">
      <g
         id="g4">
        <path
           style="fill:#6a02dc;fill-opacity:0.996078"
           d="m 3.4254932,-2.8147487 c -0.159177,-0.027358 -0.624306,-0.2337065 -1.033619,-0.4585512 -0.695048,-0.3818051 -0.78244,-0.408628 -1.323032,-0.4060747 -0.4874371,0.0023 -0.6604251,0.044921 -1.0956364,0.2699313 l -0.5168095,0.2671973 v -1.5601612 c 0,-0.8580887 -0.0415389,-1.8372437 0.0139331,-2.1181725 l 0.19478759,-0.5178212 0.32317676,-0.218354 c 0.35447209,-0.2394986 0.70377605,-0.2183692 1.09720535,-0.2184192 0.455777,-5.8e-5 0.60044,0.046062 1.301044,0.4147839 1.203709,0.6335013 1.700147,0.6336599 2.679218,8.557e-4 l 0.509659,-0.3294087 v 2.0167391 2.0167392 l -0.25911,0.2180268 c -0.561409,0.4723945 -1.317172,0.7212845 -1.8908169,0.6226894 z"
           id="path3" />
        <rect
           style="fill:#6a02dc;fill-opacity:0.996078;stroke:#262ecb;stroke-width:0"
           id="rect3"
           width="0.6832279"
           height="6.2696204"
           x="-1.7482597"
           y="-7.4150319" />
        <ellipse
           style="fill:#6a02dc;fill-opacity:0.996078;stroke:#262ecb;stroke-width:0"
           id="path4"
           cx="-1.3865505"
           cy="-7.5255542"
           rx="0.7234177"
           ry="0.69327533" />
        <ellipse
           style="fill:#6a02dc;fill-opacity:0.996078;stroke:#262ecb;stroke-width:0"
           id="ellipse4"
           cx="-1.3865505"
           cy="-0.91431963"
           rx="0.7234177"
           ry="0.69327533" />
      </g>
    </g>
  </g>
</svg>
