<?xml version="1.0" encoding="UTF-8" standalone="no"?>
<!-- Created with Inkscape (http://www.inkscape.org/) -->

<svg
   width="8.2710037mm"
   height="8.2710037mm"
   viewBox="0 0 8.2710037 8.2710037"
   version="1.1"
   id="svg1"
   xmlns="http://www.w3.org/2000/svg"
   xmlns:svg="http://www.w3.org/2000/svg">
  <defs
     id="defs1" />
  <g
     id="layer1"
     transform="translate(-123.29584,-119.85624)">
    <circle
       style="display:inline;fill:#ffffff;stroke-width:0.264583;stroke-linecap:round;stroke-linejoin:round;paint-order:markers fill stroke"
       id="circle3"
       cx="127.43134"
       cy="123.99174"
       r="4.1355019" />
    <path
       d="m 128.09313,127.216 a 41.393839,43.139666 0 0 1 -0.41799,-0.58194 c 0,0 0.17278,-0.27874 0.38318,-0.61399 l 0.38279,-0.60935 0.001,0.13367 10e-4,0.13411 0.15458,-0.005 c 0.085,0 0.48879,-0.008 0.89706,-0.0114 0.40787,-0.005 0.76638,-0.0114 0.79673,-0.0143 a 1.1677676,1.2170193 0 0 0 0.57861,-0.24669 c 0.0627,-0.0502 0.15902,-0.1497 0.2096,-0.21718 0.021,-0.0275 0.0385,-0.0497 0.0397,-0.0497 8e-4,0 -0.0161,0.0316 -0.0385,0.07 -0.0222,0.0379 -0.21608,0.37826 -0.43093,0.75484 -0.61302,1.07533 -0.75141,1.31401 -0.79065,1.36503 -0.0385,0.0498 -0.0976,0.10295 -0.14647,0.13199 -0.0161,0.0101 -0.0527,0.0257 -0.0813,0.0354 -0.0466,0.0168 -0.0619,0.019 -0.14526,0.0228 -0.051,0.005 -0.16469,0.005 -0.25168,0.005 -0.0874,4.3e-4 -0.2869,0 -0.44308,0.005 l -0.28365,0.005 0.004,0.12357 c 0.002,0.0674 0.005,0.12778 0.006,0.13284 0.001,0.005 8.1e-4,0.0101 -10e-4,0.0101 a 36.983351,38.543161 0 0 1 -0.42369,-0.57773 z m -2.50346,0.30194 c -0.18573,-0.0379 -0.35284,-0.16151 -0.47383,-0.34832 -0.18289,-0.28212 -0.2711,-0.544 -0.2796,-0.82737 -0.007,-0.22477 0.0433,-0.45333 0.13636,-0.62411 l 0.0227,-0.0409 h 2.32015 v 1.84957 h -0.84487 c -0.67168,0 -0.85216,0 -0.88088,-0.009 z m -0.84083,-0.68315 c -0.0222,-0.0451 -0.87239,-1.6189 -1.09735,-2.03089 -0.12383,-0.2273 -0.15094,-0.42971 -0.0797,-0.5908 0.01,-0.0215 0.13111,-0.24543 0.2703,-0.49592 a 14.340154,14.944964 0 0 0 0.25006,-0.46007 c -0.001,-0.005 -0.0518,-0.0345 -0.11214,-0.0717 a 2.3662872,2.4660878 0 0 1 -0.10849,-0.0687 c 0.004,-0.005 1.3628,-0.15265 1.36523,-0.15012 0.006,0.006 0.66521,1.27436 0.6636,1.27606 -0.001,0 -0.0583,-0.0262 -0.12746,-0.0607 -0.0951,-0.0477 -0.12664,-0.0607 -0.1311,-0.0556 -0.004,0.005 -0.17804,0.32893 -0.38845,0.72322 -0.21041,0.39387 -0.40262,0.75188 -0.42649,0.79574 -0.0877,0.15982 -0.13352,0.29519 -0.16023,0.47694 -0.0121,0.0806 -0.0134,0.2682 -0.002,0.34832 0.0154,0.11801 0.0498,0.25512 0.0874,0.35254 0.013,0.0338 0.0121,0.0401 -0.002,0.0114 z m 5.31363,-1.34563 c -0.007,-0.005 -0.21607,-0.37784 -0.58226,-1.0437 a 141.30878,147.26862 0 0 1 -0.57054,-1.04414 c 0,-0.005 0.34394,-0.20451 0.76435,-0.4491 0.64134,-0.3732 0.76556,-0.44362 0.77123,-0.43688 0.004,0.005 0.174,0.30868 0.37833,0.67598 0.20393,0.36687 0.38642,0.69454 0.40544,0.72743 0.0761,0.13284 0.10607,0.25428 0.0999,0.40145 a 0.85215469,0.88809518 0 0 1 -0.10522,0.37785 c -0.12745,0.25596 -0.2873,0.44868 -0.48759,0.58785 -0.1578,0.10965 -0.36619,0.18554 -0.55879,0.20241 -0.0769,0.006 -0.1,0.006 -0.11493,0 z m -4.62171,-2.88484 a 33.761673,35.185606 0 0 1 -0.77487,-0.45206 c 0.002,-0.009 0.79025,-1.45485 0.81696,-1.49829 0.0457,-0.0759 0.1485,-0.16742 0.24156,-0.21591 0.0428,-0.0224 0.12063,-0.0506 0.1752,-0.0641 0.14203,-0.035 0.38927,-0.0405 0.57256,-0.0139 a 1.3126258,1.3679871 0 0 1 0.6296,0.27832 c 0.0846,0.0712 0.18897,0.19398 0.23226,0.27242 l 0.0142,0.0262 -0.56203,1.05297 c -0.30914,0.57899 -0.56366,1.05424 -0.56527,1.05635 -0.002,0 -0.35285,-0.19693 -0.78013,-0.44194 z m 3.30423,-0.11548 -0.5855,-0.0148 h -0.057 l 0.10765,-0.0856 c 0.0724,-0.0573 0.10679,-0.0885 0.10522,-0.0936 -0.002,-0.005 -0.20069,-0.34241 -0.44185,-0.75062 l -0.46331,-0.78436 c -0.0971,-0.16446 -0.25814,-0.31037 -0.45197,-0.40905 a 1.3676557,1.4253379 0 0 0 -0.41475,-0.13073 l -0.0579,-0.008 0.0907,-0.005 c 0.0498,0 0.58266,-0.009 1.18395,-0.0135 1.16049,-0.0101 1.12286,-0.0101 1.21915,0.0161 0.0555,0.0152 0.1295,0.0493 0.174,0.0801 0.0404,0.0282 0.10316,0.0907 0.12504,0.12445 0.007,0.0114 0.123,0.2176 0.25734,0.45922 0.13475,0.24121 0.24561,0.44026 0.24682,0.44153 0.001,0 0.0501,-0.0358 0.1085,-0.0826 0.0583,-0.0468 0.10886,-0.0873 0.1125,-0.0894 0.008,-0.005 0.0279,-0.056 -0.26301,0.70677 l -0.24804,0.6511 h -0.10922 c -0.0607,0 -0.34718,-0.005 -0.63811,-0.0126 z"
       fill="#ffffff"
       id="path9"
       style="fill:#008000;fill-opacity:1;stroke-width:0.413076" />
  </g>
</svg>
