<?xml version="1.0" encoding="UTF-8" standalone="no"?>
<!-- Created with Inkscape (http://www.inkscape.org/) -->

<svg
   width="8.2710037mm"
   height="8.2710037mm"
   viewBox="0 0 8.2710037 8.2710037"
   version="1.1"
   id="svg1"
   xmlns="http://www.w3.org/2000/svg"
   xmlns:svg="http://www.w3.org/2000/svg">
  <defs
     id="defs1" />
  <g
     id="g2"
     transform="matrix(1.4997905,0,0,1.4997905,-19.208116,-7.5877761)">
    <g
       transform="matrix(0.26458334,0,0,0.26458334,12.109413,4.5486622)"
       stroke-width="0.12575"
       id="g9"
       style="fill:#008000">
      <path
         d="m 12.545,17.798 h 1.6857 c 1.5696,0 1.7297,-0.02313 2.3235,-0.33552 0.47346,-0.24909 0.72395,-0.49039 0.9725,-0.93677 0.32942,-0.59163 0.33542,-0.64185 0.37436,-3.1352 l 0.03958,-2.5338 -0.4776,-0.08063 c -0.6429,-0.10854 -1.2527,-0.56474 -1.5865,-1.1867 -0.23768,-0.44306 -0.27549,-0.70243 -0.27722,-1.902 l -0.002,-1.389 h 0.97907 V 5.41975 c 0,-0.96092 0.11727,-1.1887 0.61192,-1.1887 0.49465,0 0.61192,0.22781 0.61192,1.1887 v 0.87863 h 1.3186 l 0.04881,-0.91206 c 0.05219,-0.97516 0.1611,-1.1498 0.71923,-1.1533 0.48776,-0.00309 0.6058,0.22815 0.6058,1.1868 v 0.87863 h 0.97907 v 1.3159 c 0,1.0594 -0.04855,1.4218 -0.24908,1.8591 -0.27283,0.59504 -0.93957,1.146 -1.5477,1.2789 l -0.38927,0.08506 -0.03907,2.8021 c -0.0367,2.6316 -0.05615,2.8358 -0.31974,3.357 -0.45173,0.89322 -1.0658,1.5127 -1.8902,1.9065 -0.70947,0.339 -0.90486,0.37029 -2.6327,0.42166 l -1.8664,0.0555"
         fill="#1a1a1a"
         id="path8"
         style="fill:#008000" />
      <path
         d="M 17.952,10.866 17.4744,10.78537 C 16.8315,10.67683 16.2217,10.22063 15.8879,9.59867 15.65022,9.15561 15.61241,8.89624 15.61068,7.69667 l -0.002,-1.389 h 5.8744 v 1.3159 c 0,1.0594 -0.04855,1.4218 -0.24908,1.8591 -0.27283,0.59504 -0.93957,1.146 -1.5477,1.2789 l -0.38927,0.08507"
         fill="#858585"
         id="path9"
         style="fill:#008000" />
    </g>
    <path
       d="m 13.337787,7.9374211 0.0027,-2.1394214 0.02108,-0.045616 c 0.02954,-0.063956 0.102144,-0.1379248 0.166287,-0.1694241 l 0.05439,-0.02671 h 1.953348 l 0.05455,0.026788 c 0.06645,0.032633 0.127067,0.096359 0.16147,0.1697518 l 0.02571,0.054879 0.0053,1.3257731 -2.75e-4,0.1577141 v 2.7858154 h -2.446654 z"
       fill="#2a2a2a"
       stroke-width="0.00967011"
       id="path10"
       style="fill:#008000;fill-opacity:1" />
    <path
       d="m 14.781125,9.150493 c 0.159414,-0.04352 0.282789,-0.1154459 0.401305,-0.2339662 0.114438,-0.1144373 0.188806,-0.2409862 0.235679,-0.4010939 0.01957,-0.066773 0.01995,-0.08922 0.02286,-1.3467699 l 0.003,-1.278853 H 13.67346 l 0.0027,1.278853 c 0.0027,1.2188867 0.0038,1.2818133 0.02097,1.3417163 0.04837,0.1670114 0.119094,0.2880755 0.237456,0.4064224 0.128583,0.1285831 0.265302,0.2037123 0.439831,0.2417051 0.111069,0.024173 0.302496,0.0204 0.40657,-0.00802 z"
       fill="#ffffff"
       stroke-width="0.00967011"
       id="path11" />
    <path
       d="m 14.174906,8.5294729 c -0.01966,-0.029985 -0.01493,-0.051092 0.104125,-0.4646972 0.06859,-0.238322 0.127368,-0.4405077 0.130622,-0.449325 0.0045,-0.012526 -0.05866,-0.016026 -0.29,-0.016026 h -0.29592 l -0.02101,-0.03207 c -0.01156,-0.017641 -0.01825,-0.042708 -0.01483,-0.055708 0.0102,-0.038982 1.033743,-1.3094494 1.067258,-1.3247159 0.03936,-0.017926 0.09612,0.015136 0.09612,0.055964 0,0.015065 -0.0548,0.2174099 -0.121783,0.4496633 -0.06698,0.2322535 -0.121789,0.4274826 -0.121789,0.433826 0,0.00646 0.119742,0.011617 0.272407,0.011723 0.303575,2.1e-4 0.334086,0.00655 0.340092,0.070611 0.003,0.033176 -0.06524,0.1241004 -0.522465,0.6951745 -0.481994,0.6019898 -0.529231,0.6570083 -0.56412,0.6570083 -0.02629,0 -0.04449,-0.00974 -0.05867,-0.031413 z"
       fill="#00ff00"
       stroke-width="0.0128194"
       id="path12"
       style="fill:#00aa00;fill-opacity:1" />
  </g>
</svg>
