<?xml version="1.0" encoding="UTF-8" standalone="no"?>
<!-- Created with Inkscape (http://www.inkscape.org/) -->

<svg
   width="8.2710037mm"
   height="8.2710037mm"
   viewBox="0 0 8.2710037 8.2710037"
   version="1.1"
   id="svg1"
   xmlns="http://www.w3.org/2000/svg"
   xmlns:svg="http://www.w3.org/2000/svg">
  <defs
     id="defs1" />
  <path
     style="fill:#fd6e00;fill-opacity:1;stroke-width:0.585207"
     d="m 0.63103969,7.6399807 c -0.039337,-0.039337 -0.0715206,-0.1037043 -0.0715206,-0.1430397 0,-0.074504 0.11671288,-0.21456 0.17879974,-0.21456 0.0233199,0 0.0357628,-0.5729439 0.0357628,-1.6473105 0,-0.9762705 0.0138867,-1.6732641 0.0340943,-1.7110222 C 0.82922076,3.8847287 1.2570288,3.6915845 1.9256762,3.4195297 2.5215473,3.1770856 3.0291933,2.9634638 3.0537784,2.9448139 3.0791299,2.9255844 3.0984767,2.8329707 3.0984767,2.7308571 V 2.5508096 L 3.5097171,2.1344411 3.9209564,1.7180727 v -0.200964 c 0,-0.1941989 -0.00371,-0.2017568 -0.1072377,-0.2245167 C 3.7070491,1.2691659 3.5991136,1.1572442 3.5991136,1.0700655 c 0,-0.0768115 0.1378356,-0.1887231 0.2324402,-0.1887231 0.071521,0 0.089392,-0.0178783 0.089392,-0.0894002 0,-0.10737976 0.1154383,-0.23243984 0.2145595,-0.23243984 0.099124,0 0.2145606,0.1250591 0.2145606,0.23243984 0,0.0715206 0.017871,0.0894002 0.089392,0.0894002 0.094603,0 0.2324402,0.11191108 0.2324402,0.1887231 0,0.08718 -0.1079417,0.1990978 -0.2146052,0.2225265 C 4.3522536,1.315666 4.3500552,1.320658 4.3500552,1.5373867 v 0.2212419 l 0.4112393,0.4100735 c 0.4065747,0.4054197 0.4112406,0.4119577 0.4112406,0.5761379 0,0.091336 0.020106,0.1813238 0.044696,0.1999739 0.024589,0.01865 0.5322316,0.2322717 1.1281031,0.4747158 0.6686469,0.2720548 1.0964554,0.4651975 1.1174991,0.5045186 0.020205,0.037757 0.034099,0.7347517 0.034099,1.7110222 0,1.0743666 0.012437,1.6473105 0.035754,1.6473105 0.062085,0 0.1787991,0.1400556 0.1787991,0.21456 0,0.039337 -0.032185,0.1037043 -0.071521,0.1430397 -0.070533,0.070526 -0.1191928,0.071521 -3.504479,0.071521 -3.38527867,0 -3.4339521,-9.942e-4 -3.50447878,-0.071521 z M 3.098479,5.3513415 c 0,-1.521643 -0.00947,-1.9307807 -0.044698,-1.9298192 C 3.0291962,3.422166 2.6067809,3.5882084 2.1150811,3.7904441 L 1.2210813,4.1581443 1.2117692,5.7202631 1.2024571,7.282381 H 2.1504663 3.0984817 Z M 1.5635917,6.8029857 C 1.5333952,6.7666029 1.5247747,6.4726304 1.5323948,5.7391261 1.5428308,4.7343427 1.5436707,4.7244965 1.628784,4.6051547 1.7949072,4.3722339 2.1539083,4.2862934 2.4115261,4.4177765 c 0.3337614,0.1703447 0.3616073,0.2761646 0.3635454,1.3815481 0.00135,0.7539255 -0.0072,0.9075089 -0.054097,0.9744593 -0.053266,0.076049 -0.07852,0.079477 -0.5856617,0.079477 -0.411716,0 -0.5393051,-0.011214 -0.5717185,-0.050276 z M 2.3475195,5.6849371 c 0,-0.8532718 -0.012634,-0.9057554 -0.2180748,-0.9057554 -0.1934177,0 -0.2110453,0.07683 -0.2110453,0.9198366 v 0.7608831 h 0.2145599 0.2145602 z m 1.5734394,1.2656805 c 0,-0.3835075 0.046882,-0.4907162 0.2145607,-0.4907162 0.1676838,0 0.2145594,0.1072094 0.2145594,0.4907162 V 7.282381 H 4.5646384 4.7791991 V 5.0198161 2.7572505 L 4.45736,2.4369021 4.1355196,2.1165532 3.8136792,2.4369021 3.49184,2.7572505 V 5.0198161 7.282381 H 3.7063995 3.9209589 Z M 7.0592747,5.7202631 7.0499577,4.1581443 6.1559584,3.7904441 C 5.664258,3.5882084 5.2418429,3.422194 5.2172584,3.4215223 5.1820353,3.4205859 5.1725626,3.8296985 5.1725626,5.3513415 V 7.282381 H 6.1205772 7.0685943 Z M 5.5500671,6.7737839 c -0.046882,-0.06695 -0.055428,-0.2205338 -0.054107,-0.9744593 0.00185,-1.1105778 0.028776,-1.2106907 0.3712774,-1.3854919 0.2773274,-0.1415398 0.6887397,-0.00639 0.8195245,0.2692225 0.050649,0.1067437 0.05922,0.2666691 0.05922,1.1045986 0,0.7143738 -0.011609,0.9914075 -0.042917,1.0226951 -0.029492,0.029494 -0.207752,0.042914 -0.5701322,0.042914 -0.5042767,0 -0.529643,-0.00346 -0.5828889,-0.079477 z M 6.3526383,5.6990183 c 0,-0.6307821 -0.00951,-0.7744726 -0.055663,-0.8403598 C 6.230432,4.7636563 6.0822567,4.7538933 5.9889192,4.8383645 5.929366,4.8922563 5.9235243,4.9673468 5.9235243,5.6787242 V 6.4599017 H 6.138085 6.3526444 Z"
     id="path2" />
</svg>
