<?xml version="1.0" encoding="UTF-8" standalone="no"?>
<!-- Created with Inkscape (http://www.inkscape.org/) -->

<svg
   width="8.2710037mm"
   height="8.2710037mm"
   viewBox="0 0 8.2710037 8.2710037"
   version="1.1"
   id="svg1"
   xmlns="http://www.w3.org/2000/svg"
   xmlns:svg="http://www.w3.org/2000/svg">
  <defs
     id="defs1" />
  <path
     style="fill:#fd6e00;fill-opacity:1;stroke-width:0.503518"
     d="M 5.3878976,7.721884 C 4.948072,7.6778025 4.5948779,7.6160407 4.0525503,7.4883716 3.7205426,7.410214 3.3007313,7.327072 3.1196364,7.3036124 2.6347404,7.2407962 1.6772271,7.2810517 1.2172235,7.3835899 0.722189,7.4939378 0.61009074,7.4939046 0.55418418,7.3833935 0.49727456,7.2709 0.5398075,7.1557814 0.66006019,7.0968496 0.80370802,7.0264519 1.3883269,6.9144283 1.8574588,6.8674088 c 0.7174713,-0.071912 1.4329746,-0.0019 2.4031021,0.2350844 0.2800223,0.068408 0.6705563,0.1445957 0.8678531,0.1693033 0.5079403,0.063609 1.4374734,0.026308 1.8875103,-0.075744 0.4963101,-0.1125464 0.5791708,-0.121713 0.6407391,-0.070874 0.066108,0.054586 0.071869,0.2674817 0.00869,0.3194662 -0.1960644,0.1611765 -1.6588009,0.3392429 -2.2774512,0.27724 z m 0,-1.0572691 C 4.8341721,6.6018148 4.5472895,6.5526456 4.1074274,6.4451515 3.3952878,6.2711177 2.980126,6.2151257 2.4062317,6.2157143 1.8607495,6.2162667 1.5780245,6.247491 1.0397473,6.3666071 0.65890833,6.4508825 0.59060104,6.4418422 0.53793566,6.300196 0.48429572,6.1559289 0.57804201,6.0567798 0.83401367,5.9870575 1.3342574,5.8507996 1.7516592,5.8018076 2.4062317,5.8025204 c 0.7003154,7.534e-4 1.0680051,0.048244 1.802713,0.2327872 0.623622,0.1566418 1.0718018,0.2155133 1.6362637,0.2149347 0.5454824,-5.526e-4 0.8282069,-0.031782 1.3664847,-0.1508932 0.4234924,-0.093714 0.4810511,-0.077308 0.4810511,0.1371058 0,0.1741716 -0.054929,0.205357 -0.5367456,0.3047412 C 6.5740638,6.6612312 5.8213473,6.7137734 5.3878976,6.6646149 Z M 6.9939624,5.7865297 C 6.8784548,5.7097945 6.8695849,5.5912429 6.8695849,4.1242122 V 2.647648 H 5.6074072 4.3452294 v 1.4013727 c 0,1.3528406 -0.00252,1.4038942 -0.073169,1.4741714 -0.097085,0.096592 -0.2377925,0.092903 -0.3088974,-0.0081 C 3.917024,5.4495621 3.90621,5.3164159 3.90621,4.8139835 V 4.1937647 L 3.3295952,3.6209143 2.7529799,3.0480641 2.113541,3.6850398 C 1.4442202,4.3517816 1.361308,4.4055699 1.219837,4.2648166 1.1067736,4.1523265 1.1528934,4.0567696 1.4733174,3.7396267 1.6443519,3.5703441 1.7842891,3.4157187 1.7842891,3.3960148 c 0,-0.019703 -0.069117,-0.1058923 -0.1535919,-0.1915296 L 1.477106,3.0487809 1.1417298,3.376004 C 0.79976753,3.7096536 0.70775981,3.7553369 0.59789427,3.6460285 0.464867,3.5136761 0.52016425,3.4127799 0.97082544,2.9655727 1.2275073,2.7108578 1.4302333,2.53845 1.4730574,2.53845 c 0.040626,0 0.1952822,0.1221239 0.3561532,0.2812406 L 2.1135527,3.1009312 2.3978949,2.8196906 C 2.5542829,2.6650084 2.7135636,2.53845 2.7518518,2.53845 c 0.040686,0 0.2949824,0.2224357 0.6119868,0.535316 L 3.9062109,3.6090818 V 3.128365 2.647648 H 3.7655415 c -0.2590404,0 -0.2617643,-0.011041 -0.2617643,-1.0619039 0,-0.85355477 0.00543,-0.93365321 0.066906,-0.98901478 0.054495,-0.049067 0.1490056,-0.0602403 0.5095749,-0.0602403 0.5447572,0 0.5576514,0.008473 0.5576514,0.36659286 V 1.1552777 H 4.80254 4.9671724 V 0.91868156 c 0,-0.36500963 0.028784,-0.38219266 0.6402351,-0.38219266 0.6114509,0 0.6402349,0.0171816 0.6402349,0.38219266 V 1.155277 H 6.4122743 6.5769061 V 0.90612343 c 0,-0.35552848 0.022004,-0.36977742 0.5699461,-0.36907708 0.2398756,3.0658e-4 0.4556863,0.0129193 0.4795798,0.028039 0.098646,0.0624061 0.1211892,0.25345751 0.1211892,1.02698205 0,0.9873543 -0.019029,1.0538731 -0.3018246,1.055022 L 7.3086032,2.647647 v 1.5105706 c 0,1.4620383 -0.00238,1.5129095 -0.073169,1.5833693 -0.075013,0.074633 -0.1701299,0.092336 -0.2414708,0.044941 z M 7.3086029,1.5920685 V 0.97328053 H 7.143971 6.9793395 V 1.2161097 c 0,0.3624456 -0.020334,0.3759588 -0.5657434,0.3759588 -0.5622193,0 -0.5786476,-0.00989 -0.5985331,-0.3600247 L 5.8003683,0.97328053 H 5.6032799 5.4061915 V 1.2098759 c 0,0.357809 -0.036826,0.3821926 -0.5772175,0.3821926 -0.5637185,0 -0.5934976,-0.018368 -0.5934976,-0.366057 V 0.97328053 H 4.0708442 3.9062123 V 1.5920685 2.2108565 H 5.6074087 7.3086045 Z M 5.4610673,3.9797706 C 5.2757952,3.8984047 5.2049735,3.7898465 5.2049735,3.5872224 c 0,-0.1586182 0.014866,-0.1943774 0.1194779,-0.2873729 0.095185,-0.084617 0.1535777,-0.1062119 0.2871911,-0.1062119 0.3405012,0 0.5410651,0.3786036 0.3371782,0.6364896 C 5.8786101,3.9189316 5.6780644,4.0333114 5.599436,4.0293965 5.5836961,4.028613 5.5214325,4.006281 5.4610673,3.9797706 Z"
     id="path2" />
</svg>
