<?xml version="1.0" encoding="UTF-8" standalone="no"?>
<!-- Created with Inkscape (http://www.inkscape.org/) -->

<svg
   width="8.2710037mm"
   height="8.2710037mm"
   viewBox="0 0 8.2710037 8.2710037"
   version="1.1"
   id="svg1"
   xmlns="http://www.w3.org/2000/svg"
   xmlns:svg="http://www.w3.org/2000/svg">
  <defs
     id="defs1" />
  <g
     id="g2"
     transform="matrix(1.7641532,0,0,1.7641532,-221.97165,-197.08224)"
     style="display:inline">
    <path
       d="m 126.92108,113.32664 c -0.0703,-0.0439 -0.11647,-0.11647 -0.16936,-0.17883 -0.0316,-0.0443 -0.0851,-0.0948 -0.0636,-0.15438 0.0403,-0.0819 0.12136,-0.13237 0.18709,-0.19213 0.1961,-0.16095 0.39098,-0.32313 0.59259,-0.47689 0.0397,-0.0341 0.10241,-0.0718 0.14063,-0.0125 0.0757,0.077 0.15346,0.15591 0.20512,0.25159 0.0347,0.0619 -0.0275,0.11525 -0.07,0.15132 a 22.521958,22.521958 0 0 1 -0.73413,0.59535 c -0.0241,0.0205 -0.0587,0.0321 -0.0887,0.0162 z"
       style="color:#000000;isolation:auto;mix-blend-mode:normal;fill:#e10000;fill-opacity:1"
       overflow="visible"
       fill="#e6e6e6"
       stroke="#ff0000"
       stroke-width="0.00427979"
       id="path9-6" />
    <path
       d="m 129.79955,113.92642 c -0.17058,-0.24715 -0.32802,-0.50134 -0.48805,-0.754 -0.0627,-0.10425 -0.13191,-0.20635 -0.18449,-0.31487 -0.0142,-0.0622 0.0723,-0.0749 0.12075,-0.053 0.23997,0.0602 0.47659,0.13359 0.71442,0.20176 0.11815,0.0367 0.2389,0.0663 0.35461,0.11005 0.0729,0.0271 0.0783,0.11005 0.074,0.16966 -0.0113,0.1151 -0.0494,0.22561 -0.0968,0.33016 -0.0489,0.083 -0.12351,0.14933 -0.19443,0.21552 -0.0699,0.0614 -0.15132,0.11968 -0.25327,0.12686 -0.0249,0.009 -0.0336,-0.0179 -0.0466,-0.0321 z"
       style="color:#000000;isolation:auto;mix-blend-mode:normal;fill:#fd6e00;fill-opacity:1"
       overflow="visible"
       fill="#ffdd55"
       stroke="#ff0000"
       stroke-width="0.00397409"
       id="path10" />
    <path
       d="m 127.8767,115.856 c -0.15438,-0.0153 -0.21476,-0.17685 -0.19687,-0.31334 -0.005,-0.23081 -0.003,-0.46161 -0.004,-0.69272 -0.14475,-0.1397 -0.28201,-0.28797 -0.43639,-0.41728 -0.0917,0.0575 -0.0764,0.28843 -0.12808,0.4104 -0.0107,0.16355 -0.11006,0.28583 -0.22897,0.38885 -0.19412,0.19107 -0.38274,0.3887 -0.59459,0.55943 -0.16355,0.11189 -0.3968,-0.077 -0.33397,-0.26213 0.0896,-0.15591 0.23783,-0.26948 0.35919,-0.40047 0.107,-0.1125 0.22928,-0.21598 0.3297,-0.33168 0.0822,-0.34651 0.14949,-0.697 0.24914,-1.03908 0.0647,-0.15315 0.2224,-0.23493 0.3378,-0.34635 0.1903,-0.15667 0.37754,-0.31793 0.57808,-0.46161 0.18373,-0.0887 0.43043,-0.0437 0.54415,0.13405 0.12075,0.23126 0.17776,0.49019 0.27665,0.73093 0.1689,0.13573 0.35614,0.25266 0.50364,0.41269 0.10807,0.13955 -0.10653,0.35614 -0.24379,0.23784 -0.19611,-0.13405 -0.39069,-0.27208 -0.57074,-0.42691 -0.0749,-0.11877 -0.0978,-0.27361 -0.16661,-0.38824 a 6.2778466,6.2778466 0 0 0 -0.54307,0.44876 c 0.16263,0.19596 0.36378,0.35966 0.51816,0.56341 0.0303,0.25266 0.0128,0.50975 0.018,0.76425 -0.002,0.15132 0.019,0.36653 -0.16569,0.41926 a 0.2201037,0.2201037 0 0 1 -0.10241,0.01 z"
       style="color:#000000;isolation:auto;mix-blend-mode:normal;fill:#e10000;fill-opacity:1"
       overflow="visible"
       stroke="#ff0000"
       stroke-width="0.00427979"
       id="path11-6" />
    <circle
       r="0.38670996"
       cy="112.64462"
       cx="128.57874"
       style="color:#000000;isolation:auto;mix-blend-mode:normal;fill:#e10000;fill-opacity:1;stroke-width:0.15285"
       overflow="visible"
       id="circle11" />
  </g>
</svg>
