<?xml version="1.0" encoding="UTF-8" standalone="no"?>
<!-- Created with Inkscape (http://www.inkscape.org/) -->

<svg
   width="8.2710037mm"
   height="8.2710037mm"
   viewBox="0 0 8.2710037 8.2710037"
   version="1.1"
   id="svg1"
   xmlns="http://www.w3.org/2000/svg"
   xmlns:svg="http://www.w3.org/2000/svg">
  <defs
     id="defs1" />
  <path
     style="fill:#008000;fill-opacity:1;stroke-width:1.21816"
     d="M 4.0288662,7.3270733 C 3.9913588,7.2895659 3.9769723,6.9843565 3.9769723,6.2259607 V 5.1767442 L 3.8147989,5.1339938 C 3.1219563,4.9513555 1.714366,4.6105952 1.7023622,4.6225989 c -0.00817,0.00818 0.092276,0.1748713 0.2232049,0.3704414 l 0.238064,0.355582 -0.012316,0.4375625 c -0.010115,0.361127 -0.025533,0.4458814 -0.087988,0.4851853 -0.055073,0.034652 -0.096296,0.034661 -0.1513621,2.81e-5 C 1.851093,6.2331163 1.833832,6.1498981 1.8237332,5.8460966 L 1.811186,5.4683897 1.4715438,4.9614288 1.1319016,4.4544678 0.77876453,4.3738129 C 0.39719788,4.2866652 0.3024488,4.2080021 0.38754034,4.0490077 c 0.0549882,-0.1027559 0.156286,-0.10736 0.47570903,-0.021624 0.13081906,0.035114 0.25233493,0.064074 0.27003363,0.064356 0.0177,2.822e-4 0.1880961,-0.3108598 0.3786589,-0.6914265 0.3013734,-0.6018597 0.3598321,-0.6919398 0.4490458,-0.6919398 0.1416644,0 0.1660984,0.041603 0.3482303,0.5929354 L 2.4693778,3.7861285 2.8185923,3.79864 c 0.276602,0.00992 0.3591074,0.028248 0.3967974,0.088193 0.03462,0.05506 0.034608,0.096303 -4.01e-5,0.1513619 -0.039384,0.062577 -0.1243567,0.077824 -0.4907962,0.088055 -0.2526893,0.00706 -0.465664,-0.00628 -0.4954982,-0.03105 C 2.2002822,4.071316 2.1307613,3.9051956 2.074577,3.7260437 2.018395,3.5468918 1.9603859,3.4003131 1.9456876,3.4003131 c -0.035206,0 -0.4128699,0.771321 -0.3880278,0.7924764 0.010479,0.00897 1.1673395,0.3021919 2.5706796,0.6516025 1.40334,0.3494107 2.5855838,0.6455348 2.6272086,0.6580536 0.068741,0.020675 0.075684,-0.019189 0.075684,-0.4348608 V 4.6099643 L 6.5708068,4.7414212 6.310393,4.872878 5.8680556,4.6447397 C 5.4940477,4.4518421 5.4257196,4.4006287 5.4257196,4.3131989 c 0,-0.2093584 0.1195631,-0.2127431 0.5189077,-0.014689 L 6.3138648,4.4816332 6.6580764,4.3085673 C 7.0338226,4.1196454 7.0393981,4.1181124 7.133945,4.1777299 c 0.051748,0.032633 0.069241,0.1828014 0.08649,0.7426756 l 0.021623,0.7017712 0.2858564,0.072045 c 0.3531335,0.089002 0.3844598,0.1080083 0.3844598,0.2332546 0,0.1892535 -0.088731,0.2096628 -0.4786752,0.1101017 L 7.0766997,5.9464297 6.782489,6.2383859 6.4882784,6.5303425 6.4759507,6.9176418 c -0.00999,0.3131251 -0.026824,0.396416 -0.088013,0.4349041 -0.055073,0.034645 -0.096284,0.034645 -0.151361,-1.83e-5 -0.06265,-0.03942 -0.077816,-0.1245442 -0.088097,-0.49433 L 6.136066,6.4114895 6.4055344,6.139603 C 6.5537428,5.9900658 6.6663636,5.860395 6.6558021,5.8514457 6.645204,5.8424922 6.1500798,5.7147002 5.5554447,5.5674538 4.9608083,5.4202076 4.4402329,5.2894605 4.3986081,5.2769047 c -0.070568,-0.021286 -0.075684,0.045426 -0.075684,0.9877231 0,1.0370352 -0.01206,1.1143426 -0.1729847,1.1143426 -0.038055,0 -0.092545,-0.023352 -0.1210858,-0.051894 z M 6.7762325,3.7321496 C 6.5516439,3.6622901 6.3295196,3.4739332 6.2210941,3.2614017 6.0898486,3.0041398 6.1186705,2.6105685 6.2864731,2.3684141 c 0.1487846,-0.2146944 0.4865032,-0.395225 0.739351,-0.395225 0.2515297,0 0.5906006,0.180579 0.7377369,0.3928969 C 8.1048428,2.8585562 7.825711,3.594807 7.2419965,3.741788 7.0165697,3.79855 6.9877856,3.797955 6.7762264,3.732158 Z M 7.3766953,3.258279 C 7.6822751,2.9782364 7.5924707,2.5148575 7.2039604,2.3669896 7.059001,2.3118175 7.0145792,2.3116189 6.8600887,2.3654547 6.2773503,2.5685189 6.4190694,3.3953077 7.0372761,3.399165 7.1863505,3.4000952 7.2514202,3.3730865 7.3766953,3.258279 Z M 2.4516096,2.6509938 C 2.2270209,2.5811343 2.0048965,2.3927773 1.8964711,2.1802458 1.7652257,1.9229839 1.7940476,1.5294126 1.9618624,1.2872583 2.1106457,1.0725637 2.4483656,0.89203335 2.7012121,0.89203335 c 0.251531,0 0.5906006,0.18057885 0.737737,0.39289685 0.341283,0.4924701 0.062152,1.228721 -0.5215633,1.375702 -0.2254268,0.056763 -0.2542109,0.056167 -0.4657702,-0.00963 z M 3.0520724,2.1771232 C 3.3576522,1.8970806 3.2678476,1.4337016 2.8793375,1.2858337 2.7343779,1.2306616 2.6899551,1.230463 2.5354646,1.2842988 1.9527261,1.487363 2.0944465,2.3141518 2.7126532,2.3180091 2.8617276,2.3189392 2.9267973,2.2919305 3.0520724,2.1771232 Z"
     id="path2" />
</svg>
