<?xml version="1.0" encoding="UTF-8" standalone="no"?>
<!-- Created with Inkscape (http://www.inkscape.org/) -->

<svg
   width="8.2710037mm"
   height="8.2710037mm"
   viewBox="0 0 8.2710037 8.2710037"
   version="1.1"
   id="svg1"
   xmlns="http://www.w3.org/2000/svg"
   xmlns:svg="http://www.w3.org/2000/svg">
  <defs
     id="defs1">
    <clipPath
       clipPathUnits="userSpaceOnUse"
       id="clipPath172">
      <path
         d="M 0,5504.926 H 5022.134 V 0 H 0 Z"
         transform="translate(-1012.2412,-3977.3453)"
         id="path172" />
    </clipPath>
    <clipPath
       clipPathUnits="userSpaceOnUse"
       id="clipPath174">
      <path
         d="M 0,5504.926 H 5022.134 V 0 H 0 Z"
         transform="translate(-1091.6358,-4058.3741)"
         id="path174" />
    </clipPath>
  </defs>
  <g
     id="layer1"
     transform="translate(-123.29584,-119.85624)">
    <g
       id="g2033"
       transform="matrix(0.02371868,0,0,0.02371868,95.976866,78.20931)"
       style="fill:#810200;fill-opacity:1;stroke-width:4.39536">
      <path
         id="path171"
         d="m 0,0 c -2.872,-4.456 -8.814,-5.739 -13.271,-2.866 -4.457,2.873 -5.739,8.815 -2.866,13.271 2.873,4.457 8.815,5.74 13.272,2.866 C 1.59,10.398 2.874,4.457 0,0 m -59.004,45.184 c -0.94,-1.459 -3.326,-1.595 -5.329,-0.305 l -62.569,40.344 11.673,-0.079 54.303,-34.98 c 2.003,-1.291 2.864,-3.52 1.922,-4.98 m 54.042,-0.146 c -12.413,8.004 -27.992,7.142 -39.357,-0.961 l -69.569,44.855 -7.427,0.17 -11.677,0.047 c -1.368,-0.394 -1.423,-1.471 -0.437,-3.521 l 9.055,-18.82 12.301,-0.283 5.335,-11.088 12.139,-0.279 5.123,-10.649 12.302,-0.285 6.949,-14.444 11.787,-7.6 c -2.69,-13.695 2.954,-28.243 15.367,-36.247 16.27,-10.49 37.992,-5.764 48.515,10.557 10.524,16.323 5.865,38.058 -10.406,48.548"
         style="fill:#810200;fill-opacity:1;fill-rule:nonzero;stroke:none;stroke-width:4.39536"
         transform="matrix(1.3333333,0,0,-1.3333333,1349.6549,2036.7797)"
         clip-path="url(#clipPath172)" />
      <path
         id="path173"
         d="m 0,0 c 0,-4.01 -3.41,-7.261 -7.616,-7.261 h -24.118 c -4.206,0 -7.617,3.251 -7.617,7.261 v 3.63 c 0,4.01 3.411,7.261 7.617,7.261 H -7.616 C -3.41,10.891 0,7.64 0,3.63 Z m -77.821,42.527 h -61.326 l 12.016,36.288 c 1.502,5.098 3.756,8.778 9.014,8.833 h 40.296 1.628 40.296 c 5.257,-0.055 7.511,-3.735 9.013,-8.833 L -14.868,42.527 H -76.193 Z M 19.17,13.717 c 0,13.4 -11.194,27.743 -17.516,28.516 l -15.959,42.356 c -3.004,7.473 -9.512,13.861 -21.779,13.861 h -22.801 -17.308 -1.628 -17.309 -22.801 c -12.265,0 -18.775,-6.388 -21.779,-13.861 l -15.959,-42.356 c -6.322,-0.773 -17.516,-15.116 -17.516,-28.516 0,0 -0.016,-0.346 -0.039,-0.962 L -154.015,0.37 v 3.26 c 0,4.01 3.41,7.261 7.617,7.261 h 24.118 c 4.206,0 7.616,-3.251 7.616,-7.261 V 0 c 0,-4.01 -3.41,-7.261 -7.616,-7.261 h -19.9 l 17.966,-11.583 c 6.244,2.861 13.039,4.347 20.033,4.347 9.207,0 18.174,-2.644 25.933,-7.646 1.749,-1.128 3.399,-2.365 4.965,-3.683 h 47.774 v -15.958 c 0,-19.409 29.159,-19.64 29.159,0 v 15.958 c 0,0 8.518,1.142 12.8,3.112 4.281,1.969 2.72,36.431 2.72,36.431"
         style="fill:#810200;fill-opacity:1;fill-rule:nonzero;stroke:none;stroke-width:4.39536"
         transform="matrix(1.3333333,0,0,-1.3333333,1455.5143,1928.7413)"
         clip-path="url(#clipPath174)" />
    </g>
  </g>
</svg>
