<?xml version="1.0" encoding="UTF-8" standalone="no"?>
<!-- Created with Inkscape (http://www.inkscape.org/) -->

<svg
   width="8.2710037mm"
   height="8.2710037mm"
   viewBox="0 0 8.2710037 8.2710037"
   version="1.1"
   id="svg1"
   xmlns="http://www.w3.org/2000/svg"
   xmlns:svg="http://www.w3.org/2000/svg">
  <defs
     id="defs1" />
  <path
     d="M 6.9926674,7.7620664 C 6.9478233,7.7564434 6.8840014,7.737606 6.8507268,7.7217208 6.81741,7.7054139 6.1772785,7.1075961 5.4280452,6.3922981 L 4.0657696,5.0917077 2.7122239,6.3846085 C 1.2186634,7.8113106 1.276033,7.7634862 1.0556644,7.7638659 0.89775422,7.7638659 0.78927094,7.7226767 0.6830369,7.620913 0.53614797,7.4804767 0.49415762,7.2883219 0.5686072,7.0986695 0.60065877,7.0169942 0.72536463,6.8927242 1.9620207,5.7109072 2.7090187,4.9970431 3.3201773,4.4051155 3.3201773,4.3956546 c 0,-0.011246 -0.1068386,-0.1192092 -0.2374487,-0.2437745 L 3.0045681,4.074563 2.8904196,4.1019755 C 2.6776419,4.1530047 2.4682384,4.1250299 2.2960597,4.0228304 2.1906269,3.960133 0.55221592,2.3864437 0.45353086,2.2579282 0.36749773,2.1456072 0.23896817,1.9702373 0.18346837,1.7999564 0.09096869,1.5161455 0.08829773,0.69353098 0.36228232,0.56398927 0.58412691,0.45911881 1.0790143,0.92673421 1.2700303,1.0910827 1.3539548,1.1674161 1.4893304,1.2429481 2.7212489,2.4176939 L 4.0659946,3.6998687 4.3175572,3.4593556 4.5691197,3.2189126 4.4508944,3.0991411 C 4.3859479,3.0332104 4.3153782,2.9469242 4.2941229,2.9071268 4.240282,2.8064737 4.2297387,2.6370363 4.2696626,2.5190359 4.298762,2.4328623 4.357242,2.373342 5.2792304,1.4889298 5.8174295,0.97267479 6.2793656,0.5393461 6.3057518,0.52597723 c 0.026429,-0.0126519 0.089266,-0.0240386 0.1397336,-0.0240386 0.0828,0 0.098404,0.005624 0.1605671,0.06579 0.059886,0.057215 0.069023,0.0760519 0.069023,0.14313555 0,0.0428757 -0.00703,0.0988255 -0.018978,0.1251135 C 6.6462607,0.86226521 6.296445,1.2101796 5.8797186,1.6092496 L 5.1220794,2.3346832 5.303733,2.508338 5.4854006,2.6819928 6.2443197,1.957726 C 6.661721,1.5593307 7.025717,1.2253478 7.0532138,1.2155496 c 0.027553,-0.011246 0.086314,-0.018135 0.1307367,-0.018135 0.070288,0 0.089829,0.00843 0.1497426,0.065931 0.062276,0.059605 0.069023,0.074225 0.069023,0.1538475 0,0.048359 -0.00984,0.1045894 -0.01954,0.124973 -0.011246,0.020102 -0.3602004,0.3635321 -0.776463,0.7624897 l -0.7568524,0.7253776 0.363715,0.347675 0.749922,-0.7152417 C 7.3759787,2.2691744 7.7407198,1.9342918 7.7740646,1.9183363 7.9137982,1.8514217 8.0912907,1.9239593 8.1304977,2.0625683 8.1701404,2.2037077 8.190524,2.180653 7.1306437,3.1966593 6.5450701,3.7580255 6.1228471,4.1496871 6.0804209,4.170858 6.0330465,4.1948966 5.9641637,4.2093761 5.8737447,4.2145775 5.7563629,4.2216063 5.7251548,4.2202005 5.6412443,4.1799955 5.5872627,4.1560974 5.489604,4.0883393 5.4207212,4.026148 L 5.2970134,3.9146705 5.0453384,4.1557319 4.7936493,4.3967231 6.1431043,5.6862078 C 7.6446636,7.120979 7.5895012,7.0601373 7.5886436,7.2811244 7.5874487,7.5923196 7.3191996,7.8091176 6.9927798,7.7628396 Z"
     fill="#1d3153"
     id="path6"
     style="fill:#955d09;fill-opacity:1;stroke-width:0.491562" />
</svg>
