<?xml version="1.0" encoding="UTF-8" standalone="no"?>
<!-- Created with Inkscape (http://www.inkscape.org/) -->

<svg
   width="8.2710037mm"
   height="8.2710037mm"
   viewBox="0 0 8.2710037 8.2710037"
   version="1.1"
   id="svg1"
   xmlns="http://www.w3.org/2000/svg"
   xmlns:svg="http://www.w3.org/2000/svg">
  <defs
     id="defs1" />
  <g
     id="layer1"
     transform="translate(-123.29584,-119.85624)">
    <g
       id="g2"
       transform="matrix(0.97064992,0,0,0.97064992,3.8003527,3.6807469)">
      <path
         style="fill:#00008b;fill-opacity:1;stroke-width:0.0315898"
         d="m 130.51853,127.66019 c -0.11342,-0.0254 -1.71588,-0.95342 -2.32101,-1.34401 -0.28306,-0.1827 -0.41889,-0.35245 -0.50499,-0.63117 -0.06,-0.19407 -0.064,-0.29045 -0.0639,-1.50709 9e-5,-0.78906 0.0128,-1.3455 0.0325,-1.4162 0.0729,-0.2625 0.39196,-0.36889 0.59466,-0.19837 0.1101,0.0927 0.12075,0.13288 0.26753,1.0098 l 0.10047,0.60024 0.10214,0.01 c 0.0963,0.009 0.10123,0.005 0.0865,-0.079 -0.009,-0.0488 -0.0656,-0.38511 -0.12668,-0.7473 -0.11462,-0.67936 -0.14071,-0.76451 -0.2802,-0.91474 -0.0452,-0.0487 -0.0822,-0.0945 -0.0822,-0.10181 0,-0.007 -0.14927,-0.3905 -0.3317,-0.85142 -0.1931,-0.48797 -0.33169,-0.88331 -0.33169,-0.94617 0,-0.22333 0.26691,-0.40748 0.48583,-0.33525 0.0587,0.0195 0.12926,0.0601 0.15677,0.0905 0.0275,0.0303 0.30627,0.615 0.61948,1.29912 0.50364,1.10007 0.57307,1.27154 0.6006,1.48354 0.0171,0.13185 0.10901,0.77674 0.20419,1.43314 0.17676,1.21891 0.19219,1.28196 0.34528,1.40899 0.0252,0.0208 0.24976,0.1294 0.49901,0.24118 0.51269,0.2298 0.63054,0.31042 0.72515,0.49584 0.26041,0.51047 -0.21834,1.12606 -0.77787,1.00029 z"
         id="path2" />
      <path
         style="fill:#00008b;fill-opacity:1;stroke-width:0.0315898"
         d="m 123.92996,127.66164 c -0.19908,-0.0621 -0.35142,-0.19348 -0.43656,-0.37636 -0.13018,-0.27954 -0.0867,-0.54716 0.12436,-0.76496 0.0955,-0.0986 0.22646,-0.17809 0.47895,-0.29091 0.61274,-0.27382 0.64979,-0.29493 0.72642,-0.41355 0.0479,-0.0742 0.0853,-0.20159 0.10765,-0.36649 0.0188,-0.139 0.11163,-0.78579 0.20624,-1.4373 l 0.17201,-1.18467 0.39899,-0.86872 c 0.45957,-1.00061 0.48049,-1.0464 0.61342,-1.34111 0.11602,-0.25729 0.17158,-0.32659 0.30844,-0.38447 0.131,-0.0555 0.27279,-0.0254 0.38763,0.0817 0.17687,0.16526 0.16835,0.21146 -0.21949,1.19237 -0.19337,0.48909 -0.37317,0.90713 -0.39955,0.929 -0.12169,0.10105 -0.19536,0.33955 -0.30776,0.99658 -0.0629,0.36762 -0.11436,0.69105 -0.11436,0.71867 0,0.0344 0.0289,0.0502 0.0908,0.0502 0.0892,0 0.0918,-0.005 0.14229,-0.2764 0.0283,-0.152 0.08,-0.45409 0.11498,-0.67126 0.0796,-0.4948 0.13497,-0.65024 0.25338,-0.71147 0.18785,-0.0971 0.43046,-0.0299 0.5203,0.14357 0.0424,0.0819 0.0477,0.28592 0.04,1.53948 l -0.009,1.44504 -0.082,0.17374 c -0.10258,0.21744 -0.27632,0.3919 -0.55468,0.5569 -0.11897,0.0706 -0.63566,0.37763 -1.14822,0.68244 -0.84689,0.50363 -1.09295,0.62786 -1.232,0.6222 -0.0261,0 -0.1082,-0.0208 -0.18253,-0.0444 z"
         id="path7" />
    </g>
  </g>
</svg>
