<?xml version="1.0" encoding="UTF-8"?>
<!-- Created with Inkscape (http://www.inkscape.org/) -->
<svg width="32" height="32" version="1.1" viewBox="0 0 8.4667 8.4667" xmlns="http://www.w3.org/2000/svg" xmlns:cc="http://creativecommons.org/ns#" xmlns:dc="http://purl.org/dc/elements/1.1/" xmlns:rdf="http://www.w3.org/1999/02/22-rdf-syntax-ns#">
 <metadata>
  <rdf:RDF>
   <cc:Work rdf:about="">
    <dc:format>image/svg+xml</dc:format>
    <dc:type rdf:resource="http://purl.org/dc/dcmitype/StillImage"/>
    <dc:title/>
   </cc:Work>
  </rdf:RDF>
 </metadata>
 <g transform="translate(-85.99 -126.19)">
  <g transform="matrix(1.104 0 0 1.104 89.967 113.56)">
   <g transform="matrix(1.6 0 0 1.6 -3.8083 -11.506)">
    <g transform="matrix(.14978 0 0 .14978 -14.227 -13.836)">
     <g transform="matrix(.88479 0 0 .88479 -19.746 -52.713)" fill="#fff">
      <g transform="matrix(.29589 0 0 .29589 102.57 202.66)">
       <rect x="168.22" y="300.74" width="29.456" height="15.54" rx="1.8281" ry="1.8281" fill="#f9f9f9" style="paint-order:stroke fill markers"/>
       <rect x="167.51" y="325.7" width="39.628" height="21.968" rx="1.8281" ry="1.8281" fill="#f2f2f2" style="paint-order:stroke fill markers"/>
       <path d="m163.65 351.47c-1.0468-0.55308-1.54-1.0428-2.0431-2.0285-0.43183-0.8461-0.44953-1.7742-0.44953-23.573 0-20.451 0.038-22.768 0.38472-23.452 0.54635-1.079 1.0316-1.5765 2.0391-2.0907 0.84332-0.43041 1.7178-0.44953 20.56-0.44953h19.68l9.3256 9.5591v19.563c0 18.728-0.0192 19.601-0.44953 20.444-0.51422 1.0075-1.0117 1.4928-2.0907 2.0391-0.68513 0.34694-2.9934 0.38379-23.502 0.37522-20.289-8e-3 -22.819-0.0501-23.455-0.38581zm41.663-7.977v-2.9674h-36.321v5.9349h36.321zm0-6.5284v-3.0861h-36.321v6.1723h36.321zm0-6.871c0-3.1514-0.0253-3.3278-0.52762-3.6796-0.46568-0.32617-2.5355-0.36955-17.633-0.36955-15.098 0-17.167 0.0434-17.633 0.36955-0.50232 0.35184-0.52761 0.52821-0.52761 3.6796v3.3101h36.321zm-10.692-15.65c1.365-0.80634 1.4338-1.1626 1.4338-7.423v-5.7202h-27.063v11.917s-0.0712 0.67119 0.42004 1.1443c0.49127 0.47312 1.1942 0.46999 1.1942 0.46999h11.679c10.385 0 11.752-0.043 12.336-0.38827z" fill="#4d4d4d" stroke-width=".2374"/>
       <rect x="186.68" y="302.97" width="6.4933" height="9.7899" rx="0" ry="1.3421" fill="#000" style="paint-order:stroke fill markers"/>
      </g>
      <path d="m138.2 300.05c-0.89006 7.5e-4 -1.6573-0.14519-2.4328-0.46278-0.72635-0.2975-1.1792-0.6033-1.7393-1.1746-0.73178-0.74701-1.1414-1.5137-1.3438-2.5175-0.18377-0.91149-0.1873-1.1183-0.0375-2.2113 0.11356-0.82572 0.15135-1.0146 0.28078-1.3856 0.42265-1.2118 1.1128-2.4198 1.9038-3.3325 0.4128-0.47615 6.3571-6.3384 6.7065-6.6138 2.1615-1.7036 5.0681-2.3373 7.1037-1.5486 1.157 0.44828 2.203 1.4898 2.8752 2.863 0.11754 0.23996 0.20975 0.46519 0.20499 0.50044-8e-3 0.0649-2.4485 2.4948-2.472 2.4629-7e-3 -8e-3 -0.0804-0.17612-0.16266-0.37008-0.6052-1.4256-1.394-2.1938-2.5101-2.4448-1.0266-0.23084-2.1414 1e-3 -3.4015 0.70884-0.27919 0.15681-0.62899 0.38355-0.77727 0.504-0.38722 0.31461-5.8341 5.7112-6.031 5.9753-0.23026 0.30881-0.5038 0.80311-0.69975 1.2643-0.15303 0.36026-0.17465 0.45128-0.26953 1.1354-0.0923 0.66121-0.0973 0.78247-0.0503 1.0928 0.14822 0.97854 0.54313 1.7164 1.1108 2.0753 1.1754 0.74326 2.4346 0.87297 3.7492 0.38625 1.1169-0.4135 1.56-0.72289 2.8659-2.0008l1.0162-0.99411 0.12496 0.054c0.33025 0.14229 0.72023 0.1564 1.7047 0.0617 0.8701-0.0837 1.2688-0.15395 1.7086-0.30128 0.12482-0.0419-3.8135 3.877-4.3618 4.3402-1.4084 1.1899-3.3539 1.9327-5.0656 1.9341zm8.122-7.7243c-1.8997 0.0369-3.39-0.73985-4.4489-2.3189-0.31183-0.46502-0.7373-1.2781-0.72322-1.3821 8e-3 -0.0638 2.4481-2.4883 2.4742-2.459 8e-3 9e-3 0.0855 0.19875 0.17111 0.42072 0.43955 1.1382 1.0938 1.8953 1.9436 2.249 0.52173 0.21713 1.4638 0.28783 2.0972 0.15738 0.76504-0.15758 1.7866-0.60938 2.4305-1.075 0.56003-0.40495 5.8136-5.5994 6.1962-6.1265 0.58457-0.80529 0.85916-1.4255 1.0061-2.2723 0.0604-0.34757 0.0975-0.70009 0.0935-0.88853-0.0201-0.96284-0.47257-1.9502-1.0931-2.3858-0.28378-0.19912-1.0659-0.52937-1.4653-0.61857-0.63661-0.14223-1.3978-0.10484-2.0481 0.10041-1.0415 0.32892-1.9756 0.98076-3.471 2.4224l-0.88063 0.84897-0.38402-0.0905c-0.91347-0.21527-1.9456-0.19218-2.8658 0.0641-0.28607 0.0798-0.52736 0.13756-0.53618 0.12858-0.0173-0.0175 2.481-2.4485 3.1913-3.105 1.7972-1.662 3.3889-2.7122 4.8775-3.2183 0.48913-0.16631 1.6152-0.33947 2.14-0.32921 2.1138 0.0417 3.9479 1.1212 4.9444 2.9102 0.47709 0.85646 0.76182 1.9934 0.74745 2.9848-5e-3 0.39955-0.15593 1.132-0.34717 1.6888-0.42106 1.2286-1.2013 2.5338-2.1794 3.6459-0.18048 0.20514-1.708 1.7371-3.3948 3.4039-2.2389 2.213-3.1922 3.1302-3.532 3.3987-0.50776 0.40088-1.399 0.92839-1.9963 1.1816-0.95393 0.40436-2.0276 0.64633-2.947 0.6642z" fill="#777767"/>
     </g>
    </g>
   </g>
  </g>
 </g>
</svg>
