<?xml version="1.0" encoding="UTF-8"?>
<!-- Created with Inkscape (http://www.inkscape.org/) -->
<svg width="32" height="32" version="1.1" viewBox="0 0 8.4667 8.4667" xmlns="http://www.w3.org/2000/svg" xmlns:cc="http://creativecommons.org/ns#" xmlns:dc="http://purl.org/dc/elements/1.1/" xmlns:rdf="http://www.w3.org/1999/02/22-rdf-syntax-ns#">
 <metadata>
  <rdf:RDF>
   <cc:Work rdf:about="">
    <dc:format>image/svg+xml</dc:format>
    <dc:type rdf:resource="http://purl.org/dc/dcmitype/StillImage"/>
    <dc:title/>
   </cc:Work>
  </rdf:RDF>
 </metadata>
 <g transform="translate(-85.99 -126.19)">
  <g transform="matrix(1.0869 0 0 1.0869 55.824 110.11)" fill="none" fill-rule="evenodd" stroke="#444" stroke-linecap="square" stroke-width=".12172">
   <path d="m28.927 15.136h3.9459l1.501 1.8425v5.2687h-5.4469z" color="#000000" color-rendering="auto" image-rendering="auto" shape-rendering="auto" solid-color="#000000" style="font-variant-east_asian:normal;isolation:auto;mix-blend-mode:normal;paint-order:normal"/>
   <path d="m32.924 15.313v1.5899h1.3636z" style="font-variant-east_asian:normal"/>
  </g>
  <g fill="#777767" style="font-feature-settings:normal;font-variant-caps:normal;font-variant-ligatures:normal;font-variant-numeric:normal" aria-label="?">
   <path d="m90.326 131.64h-0.62172q-0.0024-0.13409-0.0024-0.16335 0-0.30233 0.09996-0.49738t0.39985-0.43886q0.29989-0.24381 0.3584-0.31939 0.09021-0.11947 0.09021-0.26332 0-0.19993-0.16092-0.34134-0.15848-0.14385-0.42911-0.14385-0.26088 0-0.43642 0.14873-0.17554 0.14872-0.24137 0.45349l-0.62904-0.078q0.02682-0.43643 0.3706-0.74119 0.34621-0.30477 0.90698-0.30477 0.59003 0 0.93868 0.30964 0.34865 0.30721 0.34865 0.71681 0 0.22675-0.12922 0.42911-0.12678 0.20237-0.54614 0.55102-0.21699 0.18042-0.27063 0.29014-0.0512 0.10971-0.04632 0.39253zm-0.62172 0.92161v-0.68511h0.68511v0.68511z" fill="#777767" stroke-width=".23406px" style="font-feature-settings:normal;font-variant-caps:normal;font-variant-ligatures:normal;font-variant-numeric:normal"/>
  </g>
 </g>
</svg>
