<?xml version="1.0" encoding="UTF-8"?>
<!-- Created with Inkscape (http://www.inkscape.org/) -->
<svg width="32" height="32" version="1.1" viewBox="0 0 8.4667 8.4667" xmlns="http://www.w3.org/2000/svg" xmlns:cc="http://creativecommons.org/ns#" xmlns:dc="http://purl.org/dc/elements/1.1/" xmlns:rdf="http://www.w3.org/1999/02/22-rdf-syntax-ns#">
 <metadata>
  <rdf:RDF>
   <cc:Work rdf:about="">
    <dc:format>image/svg+xml</dc:format>
    <dc:type rdf:resource="http://purl.org/dc/dcmitype/StillImage"/>
    <dc:title/>
   </cc:Work>
  </rdf:RDF>
 </metadata>
 <g transform="translate(-85.99 -126.19)">
  <g transform="matrix(.68196 0 0 .68196 15.018 44.044)">
   <g transform="matrix(1.5855 0 0 1.5855 75.912 98.676)">
    <g transform="matrix(1.0052 0 0 1.0052 -1.8196 3.0598)">
     <g transform="translate(.36962)">
      <g transform="translate(-8.2912 -4.1718)" fill="none" stroke="#444" stroke-width=".12172">
       <path d="m28.927 15.136h3.9459l1.501 1.8425v5.2687h-5.4469z" color="#000000" color-rendering="auto" image-rendering="auto" shape-rendering="auto" solid-color="#000000" stroke-linecap="round" style="isolation:auto;mix-blend-mode:normal;paint-order:normal"/>
       <path d="m32.924 15.313v1.5899h1.3636z" stroke-linecap="square"/>
      </g>
      <rect x="19.894" y="14.685" width="5.3191" height="2.345" rx="0" ry="0" color="#000000" color-rendering="auto" fill="#777767" image-rendering="auto" shape-rendering="auto" solid-color="#000000" stroke="#fff" stroke-width=".18984" style="isolation:auto;mix-blend-mode:normal"/>
      <g fill="#fff" stroke-width=".095682px" style="font-feature-settings:normal;font-variant-caps:normal;font-variant-ligatures:normal;font-variant-numeric:normal" aria-label="PDF">
       <path d="m20.687 16.572v-1.4611h0.47342q0.2691 0 0.35083 0.02193 0.12558 0.03289 0.2103 0.14352 0.08472 0.10964 0.08472 0.28406 0 0.13455-0.04884 0.22625-0.04884 0.09169-0.12458 0.14452-0.07475 0.05183-0.15249 0.06877-0.10565 0.02093-0.30598 0.02093h-0.19236v0.55116zm0.29502-1.214v0.41462h0.16146q0.17442 0 0.23322-0.02292t0.09169-0.07176q0.03389-0.04884 0.03389-0.11362 0-0.07973-0.04684-0.13156t-0.1186-0.06478q-0.05282-0.01-0.21229-0.01z" style="font-feature-settings:normal;font-variant-caps:normal;font-variant-ligatures:normal;font-variant-numeric:normal"/>
       <path d="m22.05 15.111h0.53921q0.18239 0 0.27807 0.02791 0.12857 0.03787 0.22027 0.13455 0.09169 0.09668 0.13954 0.23721 0.04784 0.13954 0.04784 0.34485 0 0.1804-0.04485 0.31096-0.05482 0.15947-0.15648 0.25814-0.07675 0.07475-0.20731 0.11661-0.09768 0.0309-0.26113 0.0309h-0.55515zm0.29502 0.24718v0.96778h0.22027q0.12359 0 0.17841-0.01395 0.07176-0.01794 0.1186-0.0608 0.04784-0.04286 0.07774-0.14053 0.0299-0.09867 0.0299-0.26811t-0.0299-0.26013q-0.0299-0.0907-0.08372-0.14153t-0.13655-0.06877q-0.06179-0.01395-0.24219-0.01395z" style="font-feature-settings:normal;font-variant-caps:normal;font-variant-ligatures:normal;font-variant-numeric:normal"/>
       <path d="m23.528 16.572v-1.4611h1.0017v0.24718h-0.70665v0.34585h0.60997v0.24718h-0.60997v0.62093z" style="font-feature-settings:normal;font-variant-caps:normal;font-variant-ligatures:normal;font-variant-numeric:normal"/>
      </g>
     </g>
    </g>
   </g>
  </g>
 </g>
</svg>
