<?xml version="1.0" encoding="UTF-8"?>
<!-- Created with Inkscape (http://www.inkscape.org/) -->
<svg width="32" height="32" version="1.1" viewBox="0 0 8.4667 8.4667" xmlns="http://www.w3.org/2000/svg" xmlns:cc="http://creativecommons.org/ns#" xmlns:dc="http://purl.org/dc/elements/1.1/" xmlns:rdf="http://www.w3.org/1999/02/22-rdf-syntax-ns#">
 <metadata>
  <rdf:RDF>
   <cc:Work rdf:about="">
    <dc:format>image/svg+xml</dc:format>
    <dc:type rdf:resource="http://purl.org/dc/dcmitype/StillImage"/>
    <dc:title/>
   </cc:Work>
  </rdf:RDF>
 </metadata>
 <rect y="-1.6776e-7" width="8.4667" height="8.4667" fill="#fff" style="paint-order:markers stroke fill"/>
 <g transform="matrix(.79207 0 0 .79207 .041975 .041975)">
  <path d="m9.9286 5.2917a4.6369 4.6369 0 0 1-4.6369 4.6369 4.6369 4.6369 0 0 1-4.637-4.6369 4.6369 4.6369 0 0 1 4.637-4.637 4.6369 4.6369 0 0 1 4.6369 4.637z" color="#000000" color-rendering="auto" fill="#777767" fill-rule="evenodd" image-rendering="auto" shape-rendering="auto" solid-color="#000000" stroke-width="1.2519" style="isolation:auto;mix-blend-mode:normal;paint-order:markers stroke fill"/>
  <g transform="matrix(1.0953 0 0 1.0953 -.5045 -.5045)" fill="#fff" style="font-feature-settings:normal;font-variant-caps:normal;font-variant-ligatures:normal;font-variant-numeric:normal" aria-label="?">
   <path d="m5.7448 6.6721h-0.971q-0.00381-0.20944-0.00381-0.25514 0-0.4722 0.15613-0.77684 0.1561-0.3046 0.6245-0.6854t0.5598-0.4989q0.1409-0.1866 0.1409-0.4113 0-0.31226-0.25133-0.53312-0.24752-0.22467-0.67021-0.22467-0.40746 0-0.68164 0.23229-0.2742 0.2323-0.377 0.7083l-0.9825-0.1218q0.0419-0.6817 0.5789-1.1577 0.5407-0.476 1.4166-0.476 0.92154 0 1.4661 0.48362 0.54455 0.47981 0.54455 1.1196 0 0.35415-0.20183 0.67021-0.198 0.3161-0.853 0.8606-0.3389 0.2818-0.4227 0.4532-0.08 0.1713-0.0724 0.6131zm-0.971 1.4394v-1.07h1.0701v1.0701z" fill="#fff" stroke-width=".36557px" style="font-feature-settings:normal;font-variant-caps:normal;font-variant-ligatures:normal;font-variant-numeric:normal"/>
  </g>
 </g>
</svg>
