<?xml version="1.0" encoding="UTF-8" standalone="no"?>
<svg xmlns:dc="http://purl.org/dc/elements/1.1/" xmlns:cc="http://creativecommons.org/ns#" xmlns:rdf="http://www.w3.org/1999/02/22-rdf-syntax-ns#" xmlns:svg="http://www.w3.org/2000/svg" xmlns="http://www.w3.org/2000/svg" viewBox="0 0 228.54668 174.96001" height="174.96001" width="228.54668" xml:space="preserve" id="svg2" version="1.1"><metadata id="metadata8"><rdf:RDF><cc:Work rdf:about=""><dc:format>image/svg+xml</dc:format><dc:type rdf:resource="http://purl.org/dc/dcmitype/StillImage"/></cc:Work></rdf:RDF></metadata><defs id="defs6"/><g transform="matrix(1.3333333,0,0,-1.3333333,0,174.96)" id="g10"><g transform="scale(0.1)" id="g12"><path id="path14" style="fill:#4b7b81;fill-opacity:1;fill-rule:nonzero;stroke:none" d="M 70.3945,0 H 49.6523 L 16.3516,91.7383 V 0 H 0 V 131.422 H 19.3438 L 54.043,35.8281 V 131.422 H 70.3945 V 0"/><path id="path16" style="fill:#4b7b81;fill-opacity:1;fill-rule:nonzero;stroke:none" d="m 119.105,0 h -16.347 v 131.422 h 16.347 V 0"/><path id="path18" style="fill:#4b7b81;fill-opacity:1;fill-rule:nonzero;stroke:none" d="M 205.719,22.5391 V 109.07 c 0,3.989 -2.211,6 -6.621,6 H 168.023 V 16.3516 h 31.075 c 4.41,0 6.621,2.0586 6.621,6.1875 z m 16.351,-1.4102 c 0,-5.8398 -2.066,-10.8281 -6.187,-14.94921 C 211.762,2.05078 206.781,0 200.934,0 h -49.258 v 131.422 h 49.258 c 5.847,0 10.828,-2.07 14.949,-6.192 4.121,-4.121 6.187,-9.101 6.187,-14.941 V 21.1289"/><path id="path20" style="fill:#4b7b81;fill-opacity:1;fill-rule:nonzero;stroke:none" d="m 340.598,21.1289 c 0,-5.8398 -2.067,-10.8281 -6.18,-14.94921 C 330.293,2.05078 325.309,0 319.457,0 H 309.293 C 304.77,0 300.445,1.39063 296.328,4.17969 292.473,1.39063 288.148,0 283.363,0 h -10.367 c -5.851,0 -10.801,2.05078 -14.855,6.17969 -4.059,4.12111 -6.086,9.10941 -6.086,14.94921 V 131.422 h 16.351 V 22.5313 c 0,-4.1211 2.196,-6.1797 6.578,-6.1797 h 6.586 c 4.387,0 6.578,2.0586 6.578,6.1797 V 131.422 h 16.36 V 22.5313 c 0,-4.1211 2.187,-6.1797 6.578,-6.1797 h 6.574 c 4.391,0 6.586,2.0586 6.586,6.1797 V 131.422 h 16.352 V 21.1289"/><path id="path22" style="fill:#4b7b81;fill-opacity:1;fill-rule:nonzero;stroke:none" d="m 424.836,65.6016 v 43.4574 c 0,4 -2.207,6.011 -6.617,6.011 h -24.457 c -4.414,0 -6.621,-2.011 -6.621,-6.011 V 65.6016 Z M 441.188,0 H 424.836 V 49.25 H 387.141 V 0 h -16.348 v 110.289 c 0,5.84 2.023,10.82 6.082,14.941 4.059,4.122 9.004,6.192 14.855,6.192 h 28.321 c 5.847,0 10.832,-2.07 14.949,-6.192 4.121,-4.121 6.188,-9.101 6.188,-14.941 L 441.188,0"/><path id="path24" style="fill:#4b7b81;fill-opacity:1;fill-rule:nonzero;stroke:none" d="m 532.133,0 h -60.82 v 131.422 h 16.355 V 16.3516 h 44.465 V 0"/><path id="path26" style="fill:#4b7b81;fill-opacity:1;fill-rule:nonzero;stroke:none" d="M 600.938,22.5391 V 109.07 c 0,3.989 -2.208,6 -6.618,6 H 563.246 V 16.3516 h 31.074 c 4.41,0 6.618,2.0586 6.618,6.1875 z m 16.351,-1.4102 c 0,-5.8398 -2.059,-10.8281 -6.18,-14.94921 C 606.988,2.05078 602.004,0 596.152,0 h -49.257 v 131.422 h 49.257 c 5.852,0 10.836,-2.07 14.957,-6.192 4.121,-4.121 6.18,-9.101 6.18,-14.941 V 21.1289"/><path id="path28" style="fill:#4b7b81;fill-opacity:1;fill-rule:nonzero;stroke:none" d="M 717.734,0 H 647.34 v 131.422 h 70.394 V 115.07 H 663.688 V 77.3789 h 42.48 V 61.0195 h -42.48 V 16.3516 h 54.046 V 0"/><path id="path30" style="fill:#4b7b81;fill-opacity:1;fill-rule:nonzero;stroke:none" d="M 818.02,0 H 797.281 L 763.977,91.7383 V 0 h -16.356 v 131.422 h 19.348 L 801.672,35.8281 V 131.422 H 818.02 V 0"/><path id="path32" style="fill:#4b7b81;fill-opacity:1;fill-rule:nonzero;stroke:none" d="M 996.289,22.5391 V 109.07 c 0,3.989 -2.203,6 -6.617,6 H 964.82 c -4.152,0 -6.222,-2.14 -6.222,-6.41 V 23.5508 c 0,-1.8711 0.636,-3.5391 1.91,-5 1.262,-1.4727 2.836,-2.1992 4.707,-2.1992 h 24.457 c 4.414,0 6.617,2.0586 6.617,6.1875 z m 16.361,-1.4102 c 0,-5.8398 -2.07,-10.8281 -6.19,-14.94921 C 1002.35,2.05078 997.348,0 991.516,0 h -28.325 c -6.121,0 -11.14,1.98828 -15.062,5.98047 -3.918,3.98828 -5.879,9.03903 -5.879,15.14843 v 89.1601 c 0,5.84 2.023,10.82 6.078,14.941 4.059,4.122 9.012,6.192 14.863,6.192 h 28.325 c 5.832,0 10.834,-2.07 14.944,-6.192 4.12,-4.121 6.19,-9.101 6.19,-14.941 V 21.1289"/><path id="path34" style="fill:#4b7b81;fill-opacity:1;fill-rule:nonzero;stroke:none" d="m 1096.73,23.5313 v 30.9101 c 0,4.3867 -2,6.5781 -6.01,6.5781 h -31.68 V 16.3516 h 31.08 c 1.86,0 3.43,0.7265 4.7,2.1992 1.27,1.4492 1.91,3.1094 1.91,4.9805 z m 0,61.0585 v 24.0582 c 0,4.282 -2,6.422 -6.01,6.422 h -31.68 V 77.3789 h 31.08 c 1.86,0 3.43,0.7227 4.7,2.1914 1.27,1.4805 1.91,3.1485 1.91,5.0195 z m 16.35,-63.4609 c 0,-6.1094 -1.99,-11.16015 -5.98,-15.14843 C 1103.11,1.98828 1098.07,0 1091.95,0 h -49.26 v 131.422 h 49.26 c 5.83,0 10.82,-2.07 14.96,-6.192 4.11,-4.121 6.17,-9.101 6.17,-14.941 V 82.1719 c 0,-4.793 -1.46,-9.1836 -4.38,-13.1719 2.92,-3.9883 4.38,-8.2383 4.38,-12.7695 V 21.1289"/><path id="path36" style="fill:#4b7b81;fill-opacity:1;fill-rule:nonzero;stroke:none" d="m 1231.52,21.1289 c 0,-5.8398 -2.06,-10.8281 -6.18,-14.94921 C 1221.21,2.05078 1216.23,0 1210.39,0 h -10.18 c -4.52,0 -8.84,1.39063 -12.95,4.17969 C 1183.39,1.39063 1179.07,0 1174.28,0 h -10.37 c -5.84,0 -10.78,2.05078 -14.85,6.17969 -4.05,4.12111 -6.08,9.10941 -6.08,14.94921 V 131.422 h 16.35 V 22.5313 c 0,-4.1211 2.2,-6.1797 6.59,-6.1797 h 6.57 c 4.39,0 6.58,2.0586 6.58,6.1797 V 131.422 h 16.36 V 22.5313 c 0,-4.1211 2.2,-6.1797 6.58,-6.1797 h 6.58 c 4.38,0 6.59,2.0586 6.59,6.1797 V 131.422 h 16.34 V 21.1289"/><path id="path38" style="fill:#4b7b81;fill-opacity:1;fill-rule:nonzero;stroke:none" d="m 1315.72,65.6016 v 43.4574 c 0,4 -2.22,6.011 -6.62,6.011 h -24.46 c -4.41,0 -6.61,-2.011 -6.61,-6.011 V 65.6016 Z M 1332.07,0 h -16.35 v 49.25 h -37.69 V 0 h -16.35 v 110.289 c 0,5.84 2.03,10.82 6.07,14.941 4.06,4.122 9.01,6.192 14.86,6.192 h 28.32 c 5.85,0 10.83,-2.07 14.96,-6.192 4.11,-4.121 6.18,-9.101 6.18,-14.941 V 0"/><path id="path40" style="fill:#4b7b81;fill-opacity:1;fill-rule:nonzero;stroke:none" d="m 1423.01,0 h -60.82 v 131.422 h 16.35 V 16.3516 h 44.47 V 0"/><path id="path42" style="fill:#4b7b81;fill-opacity:1;fill-rule:nonzero;stroke:none" d="M 1491.82,22.5391 V 109.07 c 0,3.989 -2.2,6 -6.61,6 h -31.09 V 16.3516 h 31.09 c 4.41,0 6.61,2.0586 6.61,6.1875 z m 16.34,-1.4102 c 0,-5.8398 -2.05,-10.8281 -6.17,-14.94921 C 1497.87,2.05078 1492.88,0 1487.03,0 h -49.26 v 131.422 h 49.26 c 5.85,0 10.84,-2.07 14.96,-6.192 4.12,-4.121 6.17,-9.101 6.17,-14.941 V 21.1289"/><path id="path44" style="fill:#4b7b81;fill-opacity:1;fill-rule:nonzero;stroke:none" d="m 1608.62,0 h -70.4 v 131.422 h 70.4 V 115.07 h -54.04 V 77.3789 h 42.47 V 61.0195 h -42.47 V 16.3516 h 54.04 V 0"/><path id="path46" style="fill:#4b7b81;fill-opacity:1;fill-rule:nonzero;stroke:none" d="m 1708.91,0 h -20.75 l -33.3,91.7383 V 0 h -16.34 v 131.422 h 19.33 l 34.71,-95.5939 v 95.5939 h 16.35 V 0"/><path id="path48" style="fill:#4b7b81;fill-opacity:1;fill-rule:nonzero;stroke:none" d="M 934.742,344.746 H 779.094 V 900.793 H 934.742 V 344.746"/><path id="path50" style="fill:#4b7b81;fill-opacity:1;fill-rule:nonzero;stroke:none" d="m 1714.09,494.754 c 0,-41.52 -14.64,-76.891 -43.89,-106.145 -29.25,-29.246 -64.61,-43.863 -106.12,-43.863 h -233.51 c -41.53,0 -76.66,14.617 -105.44,43.863 -28.78,29.254 -43.15,64.625 -43.15,106.145 v 100.648 h 155.64 v -62.437 c 0,-20.762 10,-31.141 29.94,-31.141 h 158.1 c 21.8,0 32.74,9.906 32.74,29.723 v 195.726 c 0,23.571 -10.9,35.395 -32.66,35.395 h -194.63 c -42.61,0 -78.16,14.379 -106.54,43.148 -28.4,28.782 -42.59,64.391 -42.59,106.864 v 214.67 c 0,41.49 14.37,76.9 43.15,106.14 28.78,29.22 63.91,43.86 105.44,43.86 h 233.51 c 41.51,0 76.87,-14.64 106.12,-43.86 29.25,-29.24 43.89,-64.65 43.89,-106.14 V 1026.7 H 1558.4 v 62.43 c 0,20.74 -9.94,31.15 -29.9,31.15 h -156.67 c -22.81,0 -34.21,-9.91 -34.21,-29.72 V 936.715 c 0,-23.574 11.34,-35.363 33.98,-35.363 h 192.48 c 42.44,0 78.05,-14.149 106.84,-42.45 28.76,-28.304 43.17,-63.699 43.17,-106.136 V 494.754"/><path id="path52" style="fill:#dd1533;fill-opacity:1;fill-rule:nonzero;stroke:none" d="m 857.125,1202.8 -0.215,-210.042 175.19,56.702 v 211 l -164.944,51.71 -175.258,-56.72"/><path id="path54" style="fill:#4b7b81;fill-opacity:1;fill-rule:nonzero;stroke:none" d="m 532.363,495.023 c 0,-41.656 -14.644,-77.16 -43.89,-106.492 -29.25,-29.332 -64.625,-43.984 -106.145,-43.984 H 148.84 c -43.414,0 -79.0509,14.133 -106.8517,42.437 C 14.1602,415.285 0.230469,451.137 0.230469,494.547 v 632.593 c 0,41.51 14.375031,76.88 43.175831,106.13 28.7695,29.25 63.9137,43.89 105.4337,43.89 h 233.488 c 41.52,0 76.895,-14.64 106.145,-43.89 29.246,-29.25 43.89,-64.62 43.89,-106.13 V 1026.48 H 376.68 v 63.87 c 0,19.81 -10.457,29.72 -31.325,29.72 H 185.82 c -19.925,0 -29.914,-10.41 -29.914,-31.14 V 535.594 c 0,-22.656 10.91,-33.985 32.742,-33.985 h 156.707 c 20.868,0 31.325,9.911 31.325,29.727 V 673.531 H 276.035 v 157.102 h 256.328 v -335.61"/><path id="path56" style="fill:#ef8a83;fill-opacity:1;fill-rule:nonzero;stroke:none" d="m 857.125,1202.8 174.975,57.66 -164.944,51.71 -175.258,-56.72 165.227,-52.65"/></g></g></svg>