<?xml version="1.0" encoding="UTF-8" standalone="no"?>
<!-- Created with Inkscape (http://www.inkscape.org/) -->

<svg
   width="95.249992mm"
   height="31.75001mm"
   viewBox="0 0 95.249992 31.75001"
   version="1.1"
   id="svg1"
   xml:space="preserve"
   xmlns="http://www.w3.org/2000/svg"
   xmlns:svg="http://www.w3.org/2000/svg"><defs
     id="defs1" /><g
     id="layer1"
     transform="translate(-73.560442,-127.47501)"><rect
       style="fill:#ffffff;stroke-width:0.529167;stroke-linecap:round;stroke-linejoin:round;paint-order:stroke fill markers"
       id="rect37"
       width="95.25"
       height="31.75"
       x="73.56044"
       y="127.47501" /><g
       id="g37"
       transform="matrix(0.80038371,0,0,0.80038371,67.709992,66.339101)"
       style="stroke-width:1.2494"><g
         id="g10"
         transform="matrix(1.7871641,0,0,1.7871641,-32.267997,-135.26737)"
         style="stroke-width:0.699097"><path
           id="path2"
           style="fill:#4b7b81;fill-opacity:1;fill-rule:nonzero;stroke:none;stroke-width:0.0246625"
           d="m 61.706548,128.44987 h -0.731739 l -1.174775,-3.23632 v 3.23632 h -0.576848 v -4.63628 h 0.682406 l 1.224111,3.37234 v -3.37234 h 0.576845 v 4.63628" /><path
           id="path3"
           style="fill:#4b7b81;fill-opacity:1;fill-rule:nonzero;stroke:none;stroke-width:0.0246625"
           d="M 63.424946,128.44987 H 62.84826 v -4.63628 h 0.576686 v 4.63628" /><path
           id="path4"
           style="fill:#4b7b81;fill-opacity:1;fill-rule:nonzero;stroke:none;stroke-width:0.0246625"
           d="m 66.480496,127.65474 v -3.05262 c 0,-0.14072 -0.078,-0.21166 -0.233575,-0.21166 h -1.096257 v 3.48256 h 1.096257 c 0.155575,0 0.233575,-0.0726 0.233575,-0.21828 z m 0.576827,0.0498 c 0,0.20601 -0.07288,0.38199 -0.218264,0.52737 -0.14538,0.14566 -0.321098,0.21801 -0.527368,0.21801 h -1.737712 v -4.63628 h 1.737712 c 0.20627,0 0.381988,0.073 0.527368,0.21844 0.14538,0.14538 0.218264,0.32107 0.218264,0.52709 v 3.14537" /><path
           id="path5"
           style="fill:#4b7b81;fill-opacity:1;fill-rule:nonzero;stroke:none;stroke-width:0.0246625"
           d="m 71.238727,127.70449 c 0,0.20601 -0.07292,0.38199 -0.218016,0.52737 -0.145521,0.14566 -0.321346,0.21801 -0.527791,0.21801 h -0.358564 c -0.159561,0 -0.312137,-0.0491 -0.457376,-0.14745 -0.135996,0.0984 -0.288572,0.14745 -0.457376,0.14745 h -0.365725 c -0.20641,0 -0.381035,-0.0724 -0.524052,-0.21801 -0.143192,-0.14538 -0.2147,-0.32136 -0.2147,-0.52737 v -3.8909 h 0.576827 v 3.84143 c 0,0.14538 0.07747,0.218 0.232057,0.218 h 0.23234 c 0.154763,0 0.232057,-0.0726 0.232057,-0.218 v -3.84143 h 0.577144 v 3.84143 c 0,0.14538 0.07715,0.218 0.232057,0.218 h 0.231917 c 0.154904,0 0.232339,-0.0726 0.232339,-0.218 v -3.84143 h 0.576862 v 3.8909" /><path
           id="path6"
           style="fill:#4b7b81;fill-opacity:1;fill-rule:nonzero;stroke:none;stroke-width:0.0246625"
           d="m 74.210457,126.13559 v -1.53308 c 0,-0.14111 -0.07786,-0.21205 -0.233433,-0.21205 h -0.862789 c -0.155716,0 -0.233574,0.0709 -0.233574,0.21205 v 1.53308 z m 0.576862,2.31428 h -0.576862 v -1.73743 h -1.329796 v 1.73743 H 72.30394 v -3.89075 c 0,-0.20602 0.07137,-0.38171 0.214559,-0.52709 0.143193,-0.14541 0.317641,-0.21844 0.524052,-0.21844 h 0.999102 c 0.206269,0 0.382129,0.073 0.527367,0.21844 0.14538,0.14538 0.218299,0.32107 0.218299,0.52709 v 3.89075" /><path
           id="path7"
           style="fill:#4b7b81;fill-opacity:1;fill-rule:nonzero;stroke:none;stroke-width:0.0246625"
           d="m 77.995657,128.44987 h -2.145595 v -4.63628 h 0.576968 v 4.05943 h 1.568627 v 0.57685" /><path
           id="path8"
           style="fill:#4b7b81;fill-opacity:1;fill-rule:nonzero;stroke:none;stroke-width:0.0246625"
           d="m 80.422945,127.65474 v -3.05262 c 0,-0.14072 -0.07789,-0.21166 -0.233469,-0.21166 h -1.096222 v 3.48256 h 1.096222 c 0.155575,0 0.233469,-0.0726 0.233469,-0.21828 z m 0.576827,0.0498 c 0,0.20601 -0.07264,0.38199 -0.218017,0.52737 -0.14538,0.14566 -0.321204,0.21801 -0.52765,0.21801 h -1.737678 v -4.63628 h 1.737678 c 0.206446,0 0.38227,0.073 0.52765,0.21844 0.14538,0.14538 0.218017,0.32107 0.218017,0.52709 v 3.14537" /><path
           id="path9"
           style="fill:#4b7b81;fill-opacity:1;fill-rule:nonzero;stroke:none;stroke-width:0.0246625"
           d="m 84.543248,128.44987 h -2.483344 v -4.63628 h 2.483344 v 0.57687 h -1.906623 v 1.32965 h 1.4986 v 0.57713 h -1.4986 v 1.57578 h 1.906623 v 0.57685" /><path
           id="path10"
           style="fill:#4b7b81;fill-opacity:1;fill-rule:nonzero;stroke:none;stroke-width:0.0246625"
           d="M 88.081116,128.44987 H 87.34949 l -1.174891,-3.23632 v 3.23632 h -0.577004 v -4.63628 h 0.682555 l 1.224244,3.37234 v -3.37234 h 0.576722 v 4.63628" /></g><g
         id="g23"
         transform="matrix(1.7871641,0,0,1.7871641,-91.851395,-121.92906)"
         style="stroke-width:0.699097"><path
           id="path11"
           style="fill:#4b7b81;fill-opacity:1;fill-rule:nonzero;stroke:none;stroke-width:0.0246625"
           d="m 94.37005,127.65474 v -3.05262 c 0,-0.14072 -0.07772,-0.21166 -0.233433,-0.21166 h -0.876723 c -0.146474,0 -0.219499,0.0755 -0.219499,0.22613 v 3.00246 c 0,0.066 0.02244,0.12485 0.06738,0.17639 0.04452,0.052 0.100048,0.0776 0.166052,0.0776 h 0.862789 c 0.155716,0 0.233433,-0.0726 0.233433,-0.21828 z m 0.57718,0.0498 c 0,0.20601 -0.07303,0.38199 -0.21837,0.52737 -0.144991,0.14566 -0.321451,0.21801 -0.527191,0.21801 h -0.999243 c -0.215935,0 -0.392994,-0.0701 -0.531354,-0.21098 -0.138218,-0.1407 -0.207398,-0.31887 -0.207398,-0.5344 v -3.14537 c 0,-0.20602 0.07137,-0.38171 0.214419,-0.52709 0.143192,-0.14541 0.317923,-0.21844 0.524333,-0.21844 h 0.999243 c 0.20574,0 0.3822,0.073 0.527191,0.21844 0.145345,0.14538 0.21837,0.32107 0.21837,0.52709 v 3.14537" /><path
           id="path12"
           style="fill:#4b7b81;fill-opacity:1;fill-rule:nonzero;stroke:none;stroke-width:0.0246625"
           d="m 97.913386,127.61974 v -1.09044 c 0,-0.15475 -0.07056,-0.23206 -0.21202,-0.23206 h -1.1176 v 1.57578 H 97.6802 c 0.06562,0 0.121002,-0.0256 0.165805,-0.0776 0.0448,-0.0511 0.06738,-0.10969 0.06738,-0.1757 z m 0,-2.15401 v -0.84872 c 0,-0.15106 -0.07056,-0.22655 -0.21202,-0.22655 h -1.1176 v 1.32965 H 97.6802 c 0.06562,0 0.121002,-0.0255 0.165805,-0.0773 0.0448,-0.0522 0.06738,-0.11108 0.06738,-0.17708 z m 0.576791,2.23876 c 0,0.21553 -0.0702,0.3937 -0.210961,0.5344 -0.140758,0.14084 -0.318558,0.21098 -0.534458,0.21098 h -1.737784 v -4.63628 h 1.737784 c 0.205669,0 0.381705,0.073 0.527755,0.21844 0.144992,0.14538 0.217664,0.32107 0.217664,0.52709 v 0.99191 c 0,0.16908 -0.05151,0.32397 -0.154516,0.46467 0.103011,0.1407 0.154516,0.29063 0.154516,0.45048 v 1.23831" /><path
           id="path13"
           style="fill:#4b7b81;fill-opacity:1;fill-rule:nonzero;stroke:none;stroke-width:0.0246625"
           d="m 102.66848,127.70449 c 0,0.20601 -0.0727,0.38199 -0.21802,0.52737 -0.1457,0.14566 -0.32138,0.21801 -0.5274,0.21801 h -0.35913 c -0.15946,0 -0.31186,-0.0491 -0.45685,-0.14745 -0.13652,0.0984 -0.28892,0.14745 -0.4579,0.14745 h -0.36583 c -0.20603,0 -0.380298,-0.0724 -0.523878,-0.21801 -0.142875,-0.14538 -0.214489,-0.32136 -0.214489,-0.52737 v -3.8909 h 0.576787 v 3.84143 c 0,0.14538 0.0776,0.218 0.23249,0.218 h 0.23177 c 0.15487,0 0.23213,-0.0726 0.23213,-0.218 v -3.84143 h 0.57714 v 3.84143 c 0,0.14538 0.0776,0.218 0.23213,0.218 h 0.23213 c 0.15451,0 0.23248,-0.0726 0.23248,-0.218 v -3.84143 h 0.57644 v 3.8909" /><path
           id="path15"
           style="fill:#4b7b81;fill-opacity:1;fill-rule:nonzero;stroke:none;stroke-width:0.0246625"
           d="m 105.63887,126.13559 v -1.53308 c 0,-0.14111 -0.0783,-0.21205 -0.23354,-0.21205 h -0.8629 c -0.15557,0 -0.23318,0.0709 -0.23318,0.21205 v 1.53308 z m 0.57679,2.31428 h -0.57679 v -1.73743 h -1.32962 v 1.73743 h -0.57679 v -3.89075 c 0,-0.20602 0.0716,-0.38171 0.21413,-0.52709 0.14323,-0.14541 0.31785,-0.21844 0.52423,-0.21844 h 0.99907 c 0.20637,0 0.38205,0.073 0.52775,0.21844 0.14499,0.14538 0.21802,0.32107 0.21802,0.52709 v 3.89075" /><path
           id="path17"
           style="fill:#4b7b81;fill-opacity:1;fill-rule:nonzero;stroke:none;stroke-width:0.0246625"
           d="m 109.42382,128.44987 h -2.14559 v -4.63628 h 0.57679 v 4.05943 h 1.5688 v 0.57685" /><path
           id="path19"
           style="fill:#4b7b81;fill-opacity:1;fill-rule:nonzero;stroke:none;stroke-width:0.0246625"
           d="m 111.85128,127.65474 v -3.05262 c 0,-0.14072 -0.0776,-0.21166 -0.23318,-0.21166 h -1.09679 v 3.48256 h 1.09679 c 0.15557,0 0.23318,-0.0726 0.23318,-0.21828 z m 0.57644,0.0498 c 0,0.20601 -0.0723,0.38199 -0.21766,0.52737 -0.14535,0.14566 -0.32138,0.21801 -0.52776,0.21801 h -1.73778 v -4.63628 h 1.73778 c 0.20638,0 0.38241,0.073 0.52776,0.21844 0.14534,0.14538 0.21766,0.32107 0.21766,0.52709 v 3.14537" /><path
           id="path21"
           style="fill:#4b7b81;fill-opacity:1;fill-rule:nonzero;stroke:none;stroke-width:0.0246625"
           d="m 115.97173,128.44987 h -2.48356 v -4.63628 h 2.48356 v 0.57687 h -1.90641 v 1.32965 h 1.49824 v 0.57713 h -1.49824 v 1.57578 h 1.90641 v 0.57685" /><path
           id="path23"
           style="fill:#4b7b81;fill-opacity:1;fill-rule:nonzero;stroke:none;stroke-width:0.0246625"
           d="m 119.50974,128.44987 h -0.73202 l -1.17475,-3.23632 v 3.23632 h -0.57644 v -4.63628 h 0.68192 l 1.2245,3.37234 v -3.37234 h 0.57679 v 4.63628" /></g><path
         id="path25"
         style="fill:#4b7b81;fill-opacity:1;fill-rule:nonzero;stroke:none;stroke-width:0.0440761"
         d="M 41.444609,113.27827 H 35.953693 V 93.66216 h 5.490916 v 19.61611" /><path
         id="path27"
         style="fill:#4b7b81;fill-opacity:1;fill-rule:nonzero;stroke:none;stroke-width:0.0440761"
         d="m 68.93828,107.98632 c 0,1.46473 -0.51647,2.71254 -1.54835,3.74456 -1.03187,1.03173 -2.27929,1.54739 -3.74367,1.54739 h -8.23772 c -1.46508,0 -2.70439,-0.51566 -3.71969,-1.54739 -1.01529,-1.03202 -1.52223,-2.27983 -1.52223,-3.74456 v -3.55064 h 5.49063 v 2.20264 c 0,0.73244 0.35278,1.09858 1.05622,1.09858 h 5.57741 c 0.76906,0 1.155,-0.34946 1.155,-1.04856 v -6.904783 c 0,-0.83153 -0.38453,-1.24865 -1.15217,-1.24865 h -6.86612 c -1.50318,0 -2.75731,-0.50726 -3.75849,-1.52217 -1.00189,-1.015365 -1.50248,-2.271571 -1.50248,-3.769924 v -7.573081 c 0,-1.463675 0.50694,-2.712862 1.52223,-3.744384 1.0153,-1.030817 2.25461,-1.547283 3.71969,-1.547283 h 8.23772 c 1.46438,0 2.7118,0.516466 3.74367,1.547283 1.03188,1.031522 1.54835,2.280709 1.54835,3.744384 v 3.550708 h -5.4924 v -2.202392 c 0,-0.731661 -0.35066,-1.098902 -1.05481,-1.098902 H 56.8641 c -0.80468,0 -1.20685,0.349602 -1.20685,1.048455 v 5.42731 c 0,0.831639 0.40005,1.247528 1.19874,1.247528 h 6.79027 c 1.49719,0 2.75343,0.499146 3.76907,1.497542 1.01459,0.998502 1.52295,2.247156 1.52295,3.744246 v 9.102093" /><path
         id="path29"
         style="fill:#dd1533;fill-opacity:1;fill-rule:nonzero;stroke:none;stroke-width:0.0440761"
         d="m 38.706453,83.008023 -0.0076,7.409816 6.180315,-2.000321 v -7.443612 l -5.818858,-1.824214 -6.182714,2.000956" /><path
         id="path31"
         style="fill:#4b7b81;fill-opacity:1;fill-rule:nonzero;stroke:none;stroke-width:0.0440761"
         d="m 27.249571,107.97683 c 0,1.46953 -0.516608,2.72203 -1.548342,3.7568 -1.031875,1.03477 -2.279827,1.55166 -3.74456,1.55166 h -8.236938 c -1.53155,0 -2.78874,-0.49858 -3.7694905,-1.49709 -0.981714,-0.99839 -1.473124,-2.26317 -1.473124,-3.79458 V 85.67714 c 0,-1.464381 0.50712,-2.712156 1.5231475,-3.744031 1.014924,-1.031875 2.254733,-1.548342 3.719467,-1.548342 h 8.236938 c 1.464733,0 2.712685,0.516467 3.74456,1.548342 1.031734,1.031875 1.548342,2.27965 1.548342,3.744031 v 3.551061 H 21.75742 V 86.97501 c 0,-0.698853 -0.3689,-1.048456 -1.105076,-1.048456 h -5.628041 c -0.70291,0 -1.055299,0.367242 -1.055299,1.09855 v 19.520466 c 0,0.79926 0.38488,1.19892 1.155065,1.19892 h 5.528275 c 0.736176,0 1.105076,-0.34964 1.105076,-1.0487 v -5.01633 h -3.550532 v -5.542211 h 9.042683 v 11.839581" /><path
         id="path33"
         style="fill:#ef8a83;fill-opacity:1;fill-rule:nonzero;stroke:none;stroke-width:0.0440761"
         d="m 38.706453,83.008023 6.17273,-2.034117 -5.818858,-1.824214 -6.182714,2.000956 5.828842,1.857375" /></g></g></svg>
