<?xml version="1.0" encoding="UTF-8" standalone="no"?>
<!-- Created with Inkscape (http://www.inkscape.org/) -->

<svg
   width="8.2710037mm"
   height="8.2710037mm"
   viewBox="0 0 8.2710037 8.2710037"
   version="1.1"
   id="svg1"
   sodipodi:docname="lyr_huts_jo.svg"
   inkscape:version="1.4 (1:1.4+202410161351+e7c3feb100)"
   xmlns:inkscape="http://www.inkscape.org/namespaces/inkscape"
   xmlns:sodipodi="http://sodipodi.sourceforge.net/DTD/sodipodi-0.dtd"
   xmlns="http://www.w3.org/2000/svg"
   xmlns:svg="http://www.w3.org/2000/svg">
  <sodipodi:namedview
     id="namedview1"
     pagecolor="#ffffff"
     bordercolor="#000000"
     borderopacity="0.25"
     inkscape:showpageshadow="2"
     inkscape:pageopacity="0.0"
     inkscape:pagecheckerboard="0"
     inkscape:deskcolor="#d1d1d1"
     inkscape:document-units="mm"
     inkscape:zoom="48.303791"
     inkscape:cx="15.630243"
     inkscape:cy="15.630243"
     inkscape:window-width="3200"
     inkscape:window-height="1715"
     inkscape:window-x="0"
     inkscape:window-y="0"
     inkscape:window-maximized="1"
     inkscape:current-layer="svg1" />
  <defs
     id="defs1" />
  <path
     style="fill:#f36d01;fill-opacity:1;fill-rule:nonzero;stroke:none;stroke-width:0.447138"
     d="M 1.0772263,7.6297046 C 0.99170819,7.5930166 0.97408233,7.5302163 0.97408233,7.2524327 c 0,-0.1816508 0.006528,-0.2515145 0.026243,-0.2882024 0.050658,-0.097921 0.050658,-0.097921 0.8348784,-0.097921 H 2.5513229 V 6.6043232 H 1.8456747 c -0.792968,0 -0.803439,-0.00522 -0.84711201,-0.1066691 -0.0349906,-0.082123 -0.0331627,-0.5169992 0.001306,-0.5851134 0.0506581,-0.097921 0.0506581,-0.097921 0.83487841,-0.097921 H 2.5508659 V 5.5526206 H 1.8452178 c -0.7964671,0 -0.8034391,0 -0.84711207,-0.1083664 -0.0134479,-0.029768 -0.0208899,-0.0628 -0.0208899,-0.095963 C 0.98113267,5.3237455 1.0889768,5.2173245 1.295095,5.037384 L 1.6060022,4.7649142 h 5.0599936 l 0.3039221,0.2637352 c 0.3301129,0.2864529 0.3388475,0.296937 0.2899389,0.4157092 -0.045435,0.1066691 -0.052355,0.1066691 -0.847112,0.1066691 H 5.7053471 v 0.2637352 h 0.7073977 c 0.7912185,0 0.8017026,0.00522 0.8453756,0.1047107 0.033163,0.082123 0.033163,0.4978066 0,0.5781413 -0.043608,0.1047107 -0.054053,0.1047107 -0.8453756,0.1047107 H 5.7053471 v 0.2637613 h 0.7161323 c 0.7947045,0 0.792968,0 0.836641,0.1083664 0.034991,0.082123 0.033163,0.5170123 -0.00131,0.5833769 -0.050658,0.099488 -0.031465,0.097791 -1.238354,0.097791 H 4.9180585 V 5.6330207 L 4.8377629,5.5527251 H 3.4212441 L 3.340818,5.6330207 V 7.6538846 H 2.2352063 c -0.9204748,0 -1.1143462,-0.00392 -1.1597687,-0.022587 z m 0,0"
     id="path7-4" />
  <path
     style="fill:#5f2d12;fill-opacity:1;fill-rule:nonzero;stroke:none;stroke-width:0.447138"
     d="m 3.6028558,6.7948131 c 0,-0.6794444 0.00522,-0.9047682 0.019323,-0.9204748 0.02794,-0.02794 0.9851029,-0.02794 1.0130562,0 0.013578,0.015145 0.019193,0.2410304 0.019193,0.9204748 V 7.6943327 H 3.6029472 Z m 0,0"
     id="path8-6" />
  <path
     style="fill:#ffffff;fill-opacity:1;fill-rule:nonzero;stroke:none;stroke-width:0.447138"
     d="M 4.1198681,6.7738579 V 6.6515214 h -0.246279 l -0.00392,0.1048412 c -0.00653,0.1519219 -0.00653,0.1519219 0.1309797,0.1466864 L 4.1211575,6.897829 V 6.7737926 Z m 0,0"
     id="path9-9" />
  <path
     style="fill:#5f2d12;fill-opacity:1;fill-rule:nonzero;stroke:none;stroke-width:0.447138"
     d="m 5.7023311,2.3024767 c 0.00653,0.00522 0.011751,-0.1292563 0.011751,-0.2916885 0,-0.3318623 0.010445,-0.3720493 0.1048412,-0.4296793 0.047133,-0.02794 0.083821,-0.029768 0.4226813,-0.029768 0.340597,0 0.3720493,0.00392 0.4226943,0.031466 0.1011855,0.061103 0.1011855,0.068153 0.103144,0.8995196 v 0.7510576"
     id="path10-2" />
  <path
     style="fill:#f36d01;fill-opacity:1;fill-rule:nonzero;stroke:none;stroke-width:0.447138"
     d="m 6.7834885,3.0535213 0.6357714,0.550188 c 0.691665,0.5990835 0.7021491,0.6095807 0.6637117,0.735338 -0.026243,0.083821 -0.3266138,0.405212 -0.405199,0.4296663 -0.080426,0.02794 -0.1607218,0.00653 -0.2410435,-0.0628 C 7.3983439,4.6744479 6.6472471,4.0229829 5.7686958,3.2632038 4.8901313,2.5016751 4.163541,1.8781243 4.1548064,1.8781243 c -0.010445,0 -0.7580426,0.6410069 -1.6610613,1.4252534 C 1.589003,4.0876111 0.82222572,4.7408517 0.78903688,4.7565713 0.71735837,4.7915619 0.67897315,4.7932592 0.61262157,4.7617938 0.53754845,4.7303284 0.24583388,4.4124753 0.22487869,4.3373761 0.18466561,4.2045424 0.09389894,4.2919405 2.1426771,2.5138826 3.5382407,1.3017063 4.0465053,0.87029045 4.0936773,0.85632032 c 0.04191,-0.0152758 0.087346,-0.0152758 0.1274285,0.005222 0.04191,0.0152757 0.3039221,0.23230888 0.7737623,0.63928348 0.3894925,0.3388344 0.7143698,0.6182892 0.7213548,0.6200518 z m 0,0"
     id="path12-4" />
  <path
     style="fill:#f36d01;fill-opacity:1;fill-rule:nonzero;stroke:none;stroke-width:0.447138"
     d="m 1.9278374,4.4944813 c 0,-0.011751 2.1675764,-1.9003292 2.1902811,-1.9090507 0.013579,-0.00392 0.4681038,0.3772718 1.0881556,0.9134766 0.3702867,0.3196418 0.738837,0.64102 1.1073611,0.9624113 l 0.040213,0.040213 H 4.1408624 c -1.2173988,0 -2.2129859,-0.00522 -2.2129859,-0.00653 z m 0,0"
     id="path13-7" />
  <path
     style="fill:#5f2d12;fill-opacity:1;fill-rule:nonzero;stroke:none;stroke-width:0.447138"
     d="M 4.2560964,4.0159195 C 4.378433,3.9652615 4.4587155,3.8447397 4.456966,3.7119974 c 0,-0.3563166 -0.4942945,-0.4558701 -0.6305229,-0.1274285 -0.089043,0.2131033 0.064498,0.4541337 0.2899259,0.4558963 0.047133,0 0.094266,-0.00783 0.1397666,-0.024546 z m 0,0"
     id="path14-7" />
  <path
     style="fill:#5f2d12;fill-opacity:1;fill-rule:nonzero;stroke:none;stroke-width:0.447138"
     d="M 6.0953095,1.4274113 C 6.0167112,1.3871983 5.9486232,1.2824092 5.9486232,1.2020875 5.9499288,1.0815789 6.0533339,0.9663057 6.1809321,0.9453244 6.2402071,0.9348794 6.2402071,0.9348794 6.2245401,0.8771711 6.209264,0.7950476 6.2193173,0.70952952 6.2560052,0.63439112 6.339826,0.46843382 6.5284749,0.38461305 6.7083893,0.43525803 l 0.078598,0.0227178 0.033163,-0.0540526 c 0.047133,-0.076901 0.1554732,-0.16941718 0.2445425,-0.20957804 0.106408,-0.050658 0.2916885,-0.0488302 0.4034626,0.003917 0.1066691,0.0488302 0.2270603,0.1676546 0.2724697,0.27248279 0.050658,0.1152862 0.052355,0.29868657 0.00392,0.40697465 C 7.610024,1.1763929 7.2449989,1.2899166 6.9864993,1.1152638 l -0.080426,-0.054053 -0.055881,0.047133 C 6.7715943,1.1748001 6.635366,1.211488 6.5462836,1.1921648 l -0.068153,-0.015276 -0.00783,0.057578 c -0.011751,0.087346 -0.068153,0.162406 -0.1466863,0.19912 -0.090871,0.04191 -0.1380693,0.040213 -0.2270603,-0.00392 z m 0,0"
     id="path15-5" />
</svg>
