<?xml version="1.0" encoding="UTF-8"?>
<svg width="256" height="256" version="1.1" viewBox="0 0 67.733 67.733" xmlns="http://www.w3.org/2000/svg" xmlns:cc="http://creativecommons.org/ns#" xmlns:dc="http://purl.org/dc/elements/1.1/" xmlns:rdf="http://www.w3.org/1999/02/22-rdf-syntax-ns#">
 <metadata>
  <rdf:RDF>
   <cc:Work rdf:about="">
    <dc:format>image/svg+xml</dc:format>
    <dc:type rdf:resource="http://purl.org/dc/dcmitype/StillImage"/>
    <dc:title/>
   </cc:Work>
  </rdf:RDF>
 </metadata>
 <g fill="#d80202" stroke="#fff" stroke-width="2.323">
  <g transform="translate(4.5555e-4,4.5555e-4)" style="paint-order:normal">
   <path d="m33.867 1.9277c-17.576 1e-7 -31.939 14.363-31.939 31.939 0 17.576 14.363 31.937 31.939 31.938 17.576 0 31.937-14.361 31.938-31.938-1e-6 -17.576-14.361-31.939-31.938-31.939zm0 10.584c11.857 0 21.354 9.4988 21.354 21.355 0 11.857-9.4968 21.354-21.354 21.354-11.857 0-21.355-9.4968-21.355-21.354 0-11.857 9.4988-21.355 21.355-21.355z" color="#000000" color-rendering="auto" dominant-baseline="auto" fill="#d80202" image-rendering="auto" shape-rendering="auto" solid-color="#000000" stop-color="#000000" stroke="#fff" stroke-width="2.323" style="font-feature-settings:normal;font-variant-alternates:normal;font-variant-caps:normal;font-variant-east-asian:normal;font-variant-ligatures:normal;font-variant-numeric:normal;font-variant-position:normal;font-variation-settings:normal;inline-size:0;isolation:auto;mix-blend-mode:normal;paint-order:normal;shape-margin:0;shape-padding:0;text-decoration-color:#000000;text-decoration-line:none;text-decoration-style:solid;text-indent:0;text-orientation:mixed;text-transform:none;white-space:normal"/>
  </g>
  <path d="m48.468 42.749-15.364-39.5-15.364 39.5z" stop-color="#000000" style="font-variation-settings:normal;paint-order:normal"/>
 </g>
</svg>
